solid OpenSCAD_Model
  facet normal -1 0 0
    outer loop
      vertex 0 0 0
      vertex 0 5.1 2.5
      vertex 0 5.1 0
    endloop
  endfacet
  facet normal -1 -0 0
    outer loop
      vertex 0 5.1 2.5
      vertex 0 0 0
      vertex 0 0 2.5
    endloop
  endfacet
  facet normal 0 0 -1
    outer loop
      vertex 0 5.1 2.5
      vertex 125 8.7 2.5
      vertex 125 5.1 2.5
    endloop
  endfacet
  facet normal -0 0 -1
    outer loop
      vertex 125 8.7 2.5
      vertex 0 5.1 2.5
      vertex 0 8.7 2.5
    endloop
  endfacet
  facet normal 1 -0 0
    outer loop
      vertex 125 0 2.5
      vertex 125 5.1 0
      vertex 125 5.1 2.5
    endloop
  endfacet
  facet normal 1 0 0
    outer loop
      vertex 125 5.1 0
      vertex 125 0 2.5
      vertex 125 0 0
    endloop
  endfacet
  facet normal 0 0 -1
    outer loop
      vertex 0 0 0
      vertex 125 5.1 0
      vertex 125 0 0
    endloop
  endfacet
  facet normal -0 0 -1
    outer loop
      vertex 125 5.1 0
      vertex 0 0 0
      vertex 0 5.1 0
    endloop
  endfacet
  facet normal 0 -1 -0
    outer loop
      vertex 50.3 0 30.5
      vertex 0 0 0
      vertex 63.8 0 30.35
    endloop
  endfacet
  facet normal 0 -1 0
    outer loop
      vertex 63.8 0 30.35
      vertex 125 0 2.5
      vertex 125.592 0 16.8
    endloop
  endfacet
  facet normal 0 -1 0
    outer loop
      vertex 125 0 0
      vertex 63.8 0 30.35
      vertex 0 0 0
    endloop
  endfacet
  facet normal 0 -1 0
    outer loop
      vertex 63.8 0 30.35
      vertex 125 0 0
      vertex 125 0 2.5
    endloop
  endfacet
  facet normal 0 -1 0
    outer loop
      vertex 9.7 0 56
      vertex 18.55 0 62.8
      vertex -2 0 62.8
    endloop
  endfacet
  facet normal 0 -1 0
    outer loop
      vertex 22.1359 0 54.9973
      vertex 18.55 0 62.8
      vertex 20.6723 0 55.743
    endloop
  endfacet
  facet normal 0 -1 -0
    outer loop
      vertex 18.55 0 62.8
      vertex 9.7 0 56
      vertex 19.05 0 56
    endloop
  endfacet
  facet normal 0 -1 0
    outer loop
      vertex -2 0 62.8
      vertex 9.7 0 45.5
      vertex 9.7 0 56
    endloop
  endfacet
  facet normal 0 -1 0
    outer loop
      vertex -0.591724 0 16.8
      vertex 19.05 0 45.5
      vertex 9.7 0 45.5
    endloop
  endfacet
  facet normal 0 -1 0
    outer loop
      vertex 19.05 0 45.5
      vertex 47.95 0 36.6
      vertex 63.8 0 36.85
    endloop
  endfacet
  facet normal 0 -1 0
    outer loop
      vertex 63.8 0 36.85
      vertex 47.95 0 36.6
      vertex 62.887 0 36.7054
    endloop
  endfacet
  facet normal 0 -1 0
    outer loop
      vertex 19.05 0 45.5
      vertex 36.65 0 36.6
      vertex 47.95 0 36.6
    endloop
  endfacet
  facet normal 0 -1 0
    outer loop
      vertex 19.05 0 45.5
      vertex 34.3 0 35.2
      vertex 36.65 0 36.6
    endloop
  endfacet
  facet normal 0 -1 0
    outer loop
      vertex 19.05 0 45.5
      vertex 34.3 0 30.5
      vertex 34.3 0 35.2
    endloop
  endfacet
  facet normal 0 -1 0
    outer loop
      vertex 0 0 2.5
      vertex 34.3 0 30.5
      vertex -0.591724 0 16.8
    endloop
  endfacet
  facet normal 0 -1 -0
    outer loop
      vertex 19.05 0 45.5
      vertex -0.591724 0 16.8
      vertex 34.3 0 30.5
    endloop
  endfacet
  facet normal 0 -1 0
    outer loop
      vertex -0.591724 0 16.8
      vertex 9.7 0 45.5
      vertex -3.95 0 16.9
    endloop
  endfacet
  facet normal 0 -1 0
    outer loop
      vertex -3.95 0 16.9
      vertex 9.7 0 45.5
      vertex -2 0 62.8
    endloop
  endfacet
  facet normal 0 -1 0
    outer loop
      vertex 18.55 0 62.8
      vertex 106.45 0 65.3
      vertex 18.55 0 65.3
    endloop
  endfacet
  facet normal 0 -1 -0
    outer loop
      vertex 106.45 0 65.3
      vertex 18.55 0 62.8
      vertex 106.45 0 62.8
    endloop
  endfacet
  facet normal 0 -1 0
    outer loop
      vertex 18.55 0 62.8
      vertex 19.05 0 56
      vertex 20.6723 0 55.743
    endloop
  endfacet
  facet normal 0 -1 0
    outer loop
      vertex 23.2973 0 53.8359
      vertex 18.55 0 62.8
      vertex 22.1359 0 54.9973
    endloop
  endfacet
  facet normal 0 -1 0
    outer loop
      vertex 63.8 0 36.85
      vertex 18.55 0 62.8
      vertex 23.2973 0 53.8359
    endloop
  endfacet
  facet normal 0 -1 0
    outer loop
      vertex 18.55 0 62.8
      vertex 63.8 0 36.85
      vertex 106.45 0 62.8
    endloop
  endfacet
  facet normal 0 -1 0
    outer loop
      vertex 63.8 0 36.85
      vertex 23.2973 0 53.8359
      vertex 24.043 0 52.3723
    endloop
  endfacet
  facet normal 0 -1 0
    outer loop
      vertex 63.8 0 36.85
      vertex 24.043 0 52.3723
      vertex 24.3 0 50.75
    endloop
  endfacet
  facet normal 0 -1 0
    outer loop
      vertex 63.8 0 36.85
      vertex 24.3 0 50.75
      vertex 24.043 0 49.1277
    endloop
  endfacet
  facet normal 0 -1 0
    outer loop
      vertex 63.8 0 36.85
      vertex 24.043 0 49.1277
      vertex 23.2973 0 47.6641
    endloop
  endfacet
  facet normal 0 -1 0
    outer loop
      vertex 63.8 0 36.85
      vertex 23.2973 0 47.6641
      vertex 22.1359 0 46.5027
    endloop
  endfacet
  facet normal 0 -1 0
    outer loop
      vertex 63.8 0 36.85
      vertex 22.1359 0 46.5027
      vertex 20.6723 0 45.757
    endloop
  endfacet
  facet normal 0 -1 0
    outer loop
      vertex 63.8 0 36.85
      vertex 20.6723 0 45.757
      vertex 19.05 0 45.5
    endloop
  endfacet
  facet normal 0 -1 0
    outer loop
      vertex 64.713 0 36.7054
      vertex 106.45 0 62.8
      vertex 63.8 0 36.85
    endloop
  endfacet
  facet normal 0 -1 0
    outer loop
      vertex 64.8043 0 36.6909
      vertex 106.45 0 62.8
      vertex 64.713 0 36.7054
    endloop
  endfacet
  facet normal 0 -1 0
    outer loop
      vertex 65.7103 0 36.2293
      vertex 106.45 0 62.8
      vertex 64.8043 0 36.6909
    endloop
  endfacet
  facet normal 0 -1 0
    outer loop
      vertex 66.4293 0 35.5103
      vertex 106.45 0 62.8
      vertex 65.7103 0 36.2293
    endloop
  endfacet
  facet normal 0 -1 0
    outer loop
      vertex 66.8909 0 34.6043
      vertex 106.45 0 62.8
      vertex 66.4293 0 35.5103
    endloop
  endfacet
  facet normal 0 -1 0
    outer loop
      vertex 67.05 0 33.6
      vertex 106.45 0 62.8
      vertex 66.8909 0 34.6043
    endloop
  endfacet
  facet normal 0 -1 -0
    outer loop
      vertex 106.45 0 62.8
      vertex 67.05 0 33.6
      vertex 125.592 0 16.8
    endloop
  endfacet
  facet normal 0 -1 0
    outer loop
      vertex 125.592 0 16.8
      vertex 67.05 0 33.6
      vertex 66.8909 0 32.5957
    endloop
  endfacet
  facet normal 0 -1 0
    outer loop
      vertex 125.592 0 16.8
      vertex 66.8909 0 32.5957
      vertex 66.4293 0 31.6897
    endloop
  endfacet
  facet normal 0 -1 0
    outer loop
      vertex 125.592 0 16.8
      vertex 66.4293 0 31.6897
      vertex 65.7103 0 30.9707
    endloop
  endfacet
  facet normal 0 -1 0
    outer loop
      vertex 0 0 0
      vertex 34.3 0 30.5
      vertex 0 0 2.5
    endloop
  endfacet
  facet normal 0 -1 0
    outer loop
      vertex 106.45 0 62.8
      vertex 125.592 0 16.8
      vertex 127 0 62.8
    endloop
  endfacet
  facet normal 0 -1 0
    outer loop
      vertex 125.592 0 16.8
      vertex 65.7103 0 30.9707
      vertex 64.8043 0 30.5091
    endloop
  endfacet
  facet normal 0 -1 -0
    outer loop
      vertex 34.3 0 30.5
      vertex 0 0 0
      vertex 50.3 0 30.5
    endloop
  endfacet
  facet normal 0 -1 0
    outer loop
      vertex -0.591724 0 16.8
      vertex -3.95 0 16.9
      vertex -3.95 0 16.8
    endloop
  endfacet
  facet normal 0 -1 0
    outer loop
      vertex 63.8 0 30.35
      vertex 125.592 0 16.8
      vertex 64.8043 0 30.5091
    endloop
  endfacet
  facet normal 0 -1 -0
    outer loop
      vertex 127 0 62.8
      vertex 125.592 0 16.8
      vertex 128.95 0 16.9
    endloop
  endfacet
  facet normal 0 -1 -0
    outer loop
      vertex 128.95 0 16.9
      vertex 125.592 0 16.8
      vertex 128.95 0 16.8
    endloop
  endfacet
  facet normal 0 -1 0
    outer loop
      vertex 62.887 0 36.7054
      vertex 47.95 0 36.6
      vertex 62.7957 0 36.6909
    endloop
  endfacet
  facet normal 0 -1 0
    outer loop
      vertex 47.95 0 36.6
      vertex 61.8897 0 36.2293
      vertex 62.7957 0 36.6909
    endloop
  endfacet
  facet normal 0 -1 0
    outer loop
      vertex 50.3 0 35.2
      vertex 61.8897 0 36.2293
      vertex 47.95 0 36.6
    endloop
  endfacet
  facet normal 0 -1 0
    outer loop
      vertex 61.8897 0 36.2293
      vertex 50.3 0 35.2
      vertex 61.1707 0 35.5103
    endloop
  endfacet
  facet normal 0 -1 0
    outer loop
      vertex 50.3 0 35.2
      vertex 60.7091 0 34.6043
      vertex 61.1707 0 35.5103
    endloop
  endfacet
  facet normal 0 -1 0
    outer loop
      vertex 50.3 0 35.2
      vertex 60.6946 0 34.513
      vertex 60.7091 0 34.6043
    endloop
  endfacet
  facet normal 0 -1 0
    outer loop
      vertex 50.3 0 35.2
      vertex 60.55 0 33.6
      vertex 60.6946 0 34.513
    endloop
  endfacet
  facet normal 0 -1 0
    outer loop
      vertex 50.3 0 30.5
      vertex 60.55 0 33.6
      vertex 50.3 0 35.2
    endloop
  endfacet
  facet normal 0 -1 -0
    outer loop
      vertex 60.55 0 33.6
      vertex 50.3 0 30.5
      vertex 60.5645 0 33.5087
    endloop
  endfacet
  facet normal 0 -1 -0
    outer loop
      vertex 60.5645 0 33.5087
      vertex 50.3 0 30.5
      vertex 60.7091 0 32.5957
    endloop
  endfacet
  facet normal 0 -1 -0
    outer loop
      vertex 60.7091 0 32.5957
      vertex 50.3 0 30.5
      vertex 61.1707 0 31.6897
    endloop
  endfacet
  facet normal 0 -1 -0
    outer loop
      vertex 61.1707 0 31.6897
      vertex 50.3 0 30.5
      vertex 61.8897 0 30.9707
    endloop
  endfacet
  facet normal 0 -1 -0
    outer loop
      vertex 61.8897 0 30.9707
      vertex 50.3 0 30.5
      vertex 62.7957 0 30.5091
    endloop
  endfacet
  facet normal 0 -1 -0
    outer loop
      vertex 62.7957 0 30.5091
      vertex 50.3 0 30.5
      vertex 63.8 0 30.35
    endloop
  endfacet
  facet normal 0 1 -0
    outer loop
      vertex 125 5.1 0
      vertex 0 5.1 2.5
      vertex 125 5.1 2.5
    endloop
  endfacet
  facet normal 0 1 0
    outer loop
      vertex 0 5.1 2.5
      vertex 125 5.1 0
      vertex 0 5.1 0
    endloop
  endfacet
  facet normal 0 0.999406 -0.0344623
    outer loop
      vertex 125.6 9.2 17
      vertex 112.4 8.83793 6.5
      vertex 112.4 9.2 17
    endloop
  endfacet
  facet normal -1.28729e-008 0.999406 -0.0344623
    outer loop
      vertex 125 8.7 2.5
      vertex 112.4 8.83793 6.5
      vertex 125.6 9.2 17
    endloop
  endfacet
  facet normal 3.41204e-007 0.999406 -0.0344612
    outer loop
      vertex 112.4 8.83793 6.5
      vertex 125 8.7 2.5
      vertex 112.351 8.82728 6.19098
    endloop
  endfacet
  facet normal -2.85921e-007 0.999406 -0.0344633
    outer loop
      vertex 112.351 8.82728 6.19098
      vertex 125 8.7 2.5
      vertex 112.209 8.81766 5.91221
    endloop
  endfacet
  facet normal 0 0.999406 -0.0344622
    outer loop
      vertex 111.4 8.80345 5.5
      vertex 125 8.7 2.5
      vertex 13.6 8.80345 5.5
    endloop
  endfacet
  facet normal -6.30184e-007 0.999406 -0.034465
    outer loop
      vertex 111.709 8.80514 5.54894
      vertex 125 8.7 2.5
      vertex 111.4 8.80345 5.5
    endloop
  endfacet
  facet normal -1.48108e-007 0.999406 -0.0344629
    outer loop
      vertex 111.988 8.81003 5.69098
      vertex 125 8.7 2.5
      vertex 111.709 8.80514 5.54894
    endloop
  endfacet
  facet normal 2.1088e-007 0.999406 -0.0344614
    outer loop
      vertex 112.209 8.81766 5.91221
      vertex 125 8.7 2.5
      vertex 111.988 8.81003 5.69098
    endloop
  endfacet
  facet normal 0 0.999406 -0.0344623
    outer loop
      vertex 12.6 8.83793 6.5
      vertex -0.599999 9.2 17
      vertex 12.6 9.2 17
    endloop
  endfacet
  facet normal -2.51964e-007 0.999406 -0.0344614
    outer loop
      vertex 0 8.7 2.5
      vertex 12.6 8.83793 6.5
      vertex 12.6359 8.83012 6.27349
    endloop
  endfacet
  facet normal -5.14877e-007 0.999406 -0.0344606
    outer loop
      vertex 0 8.7 2.5
      vertex 12.6359 8.83012 6.27349
      vertex 12.6489 8.82728 6.19098
    endloop
  endfacet
  facet normal 2.85922e-007 0.999406 -0.0344633
    outer loop
      vertex 0 8.7 2.5
      vertex 12.6489 8.82728 6.19098
      vertex 12.791 8.81766 5.91221
    endloop
  endfacet
  facet normal -2.1088e-007 0.999406 -0.0344614
    outer loop
      vertex 0 8.7 2.5
      vertex 12.791 8.81766 5.91221
      vertex 13.0122 8.81003 5.69098
    endloop
  endfacet
  facet normal 1.15856e-008 0.999406 -0.0344623
    outer loop
      vertex 12.6 8.83793 6.5
      vertex 0 8.7 2.5
      vertex -0.599999 9.2 17
    endloop
  endfacet
  facet normal 1.48108e-007 0.999406 -0.0344629
    outer loop
      vertex 13.291 8.80514 5.54894
      vertex 0 8.7 2.5
      vertex 13.0122 8.81003 5.69098
    endloop
  endfacet
  facet normal 6.30179e-007 0.999406 -0.034465
    outer loop
      vertex 13.6 8.80345 5.5
      vertex 0 8.7 2.5
      vertex 13.291 8.80514 5.54894
    endloop
  endfacet
  facet normal 0 0.999406 -0.0344622
    outer loop
      vertex 0 8.7 2.5
      vertex 13.6 8.80345 5.5
      vertex 125 8.7 2.5
    endloop
  endfacet
  facet normal 1 0 0
    outer loop
      vertex 125.6 9.2 17.1
      vertex 125.6 5.09564 17
      vertex 125.6 9.2 17
    endloop
  endfacet
  facet normal 1 0 -0
    outer loop
      vertex 125.6 5.09564 17
      vertex 125.6 9.2 17.1
      vertex 125.6 5.09128 17.1
    endloop
  endfacet
  facet normal -0.999145 0 -0.0413439
    outer loop
      vertex 0 0 2.5
      vertex -0.591724 5.1 16.8
      vertex 0 5.1 2.5
    endloop
  endfacet
  facet normal -0.999145 -0 -0.0413439
    outer loop
      vertex -0.591724 5.1 16.8
      vertex 0 0 2.5
      vertex -0.591724 0 16.8
    endloop
  endfacet
  facet normal -0.999145 0 -0.0413439
    outer loop
      vertex -0.591724 5.1 16.8
      vertex 0 8.7 2.5
      vertex 0 5.1 2.5
    endloop
  endfacet
  facet normal -0.999145 4.69605e-009 -0.0413439
    outer loop
      vertex 0 8.7 2.5
      vertex -0.591724 5.1 16.8
      vertex -0.599999 9.2 17
    endloop
  endfacet
  facet normal -0.999145 0 -0.0413438
    outer loop
      vertex -0.595861 5.1 16.9
      vertex -0.599999 9.2 17
      vertex -0.591724 5.1 16.8
    endloop
  endfacet
  facet normal -0.999145 -0 -0.0413438
    outer loop
      vertex -0.599999 9.2 17
      vertex -0.595861 5.1 16.9
      vertex -0.599999 5.09564 17
    endloop
  endfacet
  facet normal -1 0 0
    outer loop
      vertex -0.599999 5.09564 17
      vertex -0.599999 9.2 17.1
      vertex -0.599999 9.2 17
    endloop
  endfacet
  facet normal -1 -0 0
    outer loop
      vertex -0.599999 9.2 17.1
      vertex -0.599999 5.09564 17
      vertex -0.599999 5.09128 17.1
    endloop
  endfacet
  facet normal 0.999143 1.85923e-006 -0.041392
    outer loop
      vertex 125.592 5.1 16.8
      vertex 125.6 9.2 17
      vertex 125.596 5.1 16.9
    endloop
  endfacet
  facet normal 0.999146 0 -0.0413159
    outer loop
      vertex 125.596 5.1 16.9
      vertex 125.6 9.2 17
      vertex 125.6 5.09564 17
    endloop
  endfacet
  facet normal 0.999145 -4.93207e-007 -0.0413438
    outer loop
      vertex 125.6 9.2 17
      vertex 125.592 5.1 16.8
      vertex 125 8.7 2.5
    endloop
  endfacet
  facet normal 0.999145 0 -0.0413437
    outer loop
      vertex 125.592 5.1 16.8
      vertex 125 5.1 2.5
      vertex 125 8.7 2.5
    endloop
  endfacet
  facet normal 0.999145 0 -0.0413437
    outer loop
      vertex 125.592 0 16.8
      vertex 125 5.1 2.5
      vertex 125.592 5.1 16.8
    endloop
  endfacet
  facet normal 0.999145 0 -0.0413437
    outer loop
      vertex 125 5.1 2.5
      vertex 125.592 0 16.8
      vertex 125 0 2.5
    endloop
  endfacet
  facet normal 0 1 -0
    outer loop
      vertex 12.6 9.2 17
      vertex -0.599999 9.2 17.1
      vertex 12.6 9.2 17.1
    endloop
  endfacet
  facet normal 0 1 0
    outer loop
      vertex -0.599999 9.2 17.1
      vertex 12.6 9.2 17
      vertex -0.599999 9.2 17
    endloop
  endfacet
  facet normal 0 1 -0
    outer loop
      vertex 125.6 9.2 17
      vertex 112.4 9.2 17.1
      vertex 125.6 9.2 17.1
    endloop
  endfacet
  facet normal 0 1 0
    outer loop
      vertex 112.4 9.2 17.1
      vertex 125.6 9.2 17
      vertex 112.4 9.2 17
    endloop
  endfacet
  facet normal 0 0 1
    outer loop
      vertex 123.4 6.1 62.8
      vertex 106.45 3.8 62.8
      vertex 123.4 3.1 62.8
    endloop
  endfacet
  facet normal 0 0 1
    outer loop
      vertex 123.4 6.1 62.8
      vertex 18.55 3.8 62.8
      vertex 106.45 3.8 62.8
    endloop
  endfacet
  facet normal -0 0 1
    outer loop
      vertex 1.6 6.1 62.8
      vertex 18.55 3.8 62.8
      vertex 123.4 6.1 62.8
    endloop
  endfacet
  facet normal 0 0 1
    outer loop
      vertex 1.6 3.1 62.8
      vertex 18.55 3.8 62.8
      vertex 1.6 6.1 62.8
    endloop
  endfacet
  facet normal 0 0 1
    outer loop
      vertex 18.55 3.8 62.8
      vertex 1.6 3.1 62.8
      vertex 18.55 0 62.8
    endloop
  endfacet
  facet normal 0 0 1
    outer loop
      vertex -2 0 62.8
      vertex 1.6 3.1 62.8
      vertex -2 3.1 62.8
    endloop
  endfacet
  facet normal 0 0 1
    outer loop
      vertex 1.6 3.1 62.8
      vertex -2 0 62.8
      vertex 18.55 0 62.8
    endloop
  endfacet
  facet normal -0 0 1
    outer loop
      vertex 123.4 3.1 62.8
      vertex 127 0 62.8
      vertex 127 3.1 62.8
    endloop
  endfacet
  facet normal 0 0 1
    outer loop
      vertex 106.45 0 62.8
      vertex 123.4 3.1 62.8
      vertex 106.45 3.8 62.8
    endloop
  endfacet
  facet normal 0 0 1
    outer loop
      vertex 123.4 3.1 62.8
      vertex 106.45 0 62.8
      vertex 127 0 62.8
    endloop
  endfacet
  facet normal 0.998843 0 0.0480843
    outer loop
      vertex 123.4 6.1 62.8
      vertex 125.6 5.09128 17.1
      vertex 125.6 9.2 17.1
    endloop
  endfacet
  facet normal 0.998843 0 0.0480843
    outer loop
      vertex 125.6 5.09128 17.1
      vertex 123.4 6.1 62.8
      vertex 123.4 3.1 62.8
    endloop
  endfacet
  facet normal -0.998843 0 0.0480843
    outer loop
      vertex -0.599999 5.09128 17.1
      vertex 1.6 6.1 62.8
      vertex -0.599999 9.2 17.1
    endloop
  endfacet
  facet normal -0.998843 0 0.0480843
    outer loop
      vertex 1.6 6.1 62.8
      vertex -0.599999 5.09128 17.1
      vertex 1.6 3.1 62.8
    endloop
  endfacet
  facet normal 0 0.997707 0.0676782
    outer loop
      vertex 20.6723 6.5787 55.743
      vertex 1.6 6.1 62.8
      vertex 123.4 6.1 62.8
    endloop
  endfacet
  facet normal 3.47324e-007 0.997707 0.0676791
    outer loop
      vertex 1.6 6.1 62.8
      vertex 20.6723 6.5787 55.743
      vertex 19.05 6.56127 56
    endloop
  endfacet
  facet normal -1.27707e-008 0.997707 0.0676783
    outer loop
      vertex 123.4 6.1 62.8
      vertex 22.1359 6.62928 54.9973
      vertex 20.6723 6.5787 55.743
    endloop
  endfacet
  facet normal 5.45519e-009 0.997707 0.0676781
    outer loop
      vertex 123.4 6.1 62.8
      vertex 23.2973 6.70807 53.8359
      vertex 22.1359 6.62928 54.9973
    endloop
  endfacet
  facet normal -3.68695e-010 0.997707 0.0676782
    outer loop
      vertex 111.4 7.53129 41.7
      vertex 23.2973 6.70807 53.8359
      vertex 123.4 6.1 62.8
    endloop
  endfacet
  facet normal -9.39806e-010 0.997707 0.0676782
    outer loop
      vertex 23.2973 6.70807 53.8359
      vertex 111.4 7.53129 41.7
      vertex 24.043 6.80735 52.3723
    endloop
  endfacet
  facet normal 6.63488e-009 0.997707 0.0676782
    outer loop
      vertex 24.043 6.80735 52.3723
      vertex 111.4 7.53129 41.7
      vertex 24.3 6.9174 50.75
    endloop
  endfacet
  facet normal 6.42004e-009 0.997707 0.0676782
    outer loop
      vertex 24.3 6.9174 50.75
      vertex 111.4 7.53129 41.7
      vertex 24.043 7.02744 49.1277
    endloop
  endfacet
  facet normal 1.30811e-009 0.997707 0.0676782
    outer loop
      vertex 24.043 7.02744 49.1277
      vertex 111.4 7.53129 41.7
      vertex 23.2973 7.12672 47.6641
    endloop
  endfacet
  facet normal -2.96938e-009 0.997707 0.0676781
    outer loop
      vertex 23.2973 7.12672 47.6641
      vertex 111.4 7.53129 41.7
      vertex 22.1359 7.20551 46.5027
    endloop
  endfacet
  facet normal -2.6647e-007 0.997707 0.0676786
    outer loop
      vertex 20.6723 7.25609 45.757
      vertex 13.6 7.53129 41.7
      vertex 19.05 7.27352 45.5
    endloop
  endfacet
  facet normal -0 0.997707 0.0676781
    outer loop
      vertex 13.6 7.53129 41.7
      vertex 20.6723 7.25609 45.757
      vertex 111.4 7.53129 41.7
    endloop
  endfacet
  facet normal 1.01659e-008 0.997707 0.0676784
    outer loop
      vertex 22.1359 7.20551 46.5027
      vertex 111.4 7.53129 41.7
      vertex 20.6723 7.25609 45.757
    endloop
  endfacet
  facet normal -8.04542e-009 0.997707 0.0676782
    outer loop
      vertex 123.4 6.1 62.8
      vertex 111.709 7.53461 41.6511
      vertex 111.4 7.53129 41.7
    endloop
  endfacet
  facet normal -3.17098e-007 0.997707 0.0676784
    outer loop
      vertex 123.4 6.1 62.8
      vertex 111.988 7.54425 41.509
      vertex 111.709 7.53461 41.6511
    endloop
  endfacet
  facet normal 1.80596e-007 0.997707 0.0676781
    outer loop
      vertex 123.4 6.1 62.8
      vertex 112.209 7.55925 41.2878
      vertex 111.988 7.54425 41.509
    endloop
  endfacet
  facet normal -5.4413e-007 0.997707 0.0676785
    outer loop
      vertex 123.4 6.1 62.8
      vertex 112.351 7.57816 41.009
      vertex 112.209 7.55925 41.2878
    endloop
  endfacet
  facet normal 1.08355e-007 0.997707 0.0676781
    outer loop
      vertex 123.4 6.1 62.8
      vertex 112.4 7.59912 40.7
      vertex 112.351 7.57816 41.009
    endloop
  endfacet
  facet normal 1.83099e-008 0.997707 0.0676782
    outer loop
      vertex 125.6 9.2 17.1
      vertex 112.4 7.59912 40.7
      vertex 123.4 6.1 62.8
    endloop
  endfacet
  facet normal 0 0.997707 0.0676782
    outer loop
      vertex 112.4 7.59912 40.7
      vertex 125.6 9.2 17.1
      vertex 112.4 9.2 17.1
    endloop
  endfacet
  facet normal -0 0.997707 0.0676782
    outer loop
      vertex 9.7 6.56127 56
      vertex 1.6 6.1 62.8
      vertex 19.05 6.56127 56
    endloop
  endfacet
  facet normal -5.55991e-008 0.997707 0.0676781
    outer loop
      vertex 9.7 7.27352 45.5
      vertex 1.6 6.1 62.8
      vertex 9.7 6.56127 56
    endloop
  endfacet
  facet normal 0 0.997707 0.0676782
    outer loop
      vertex 19.05 7.27352 45.5
      vertex 13.6 7.53129 41.7
      vertex 9.7 7.27352 45.5
    endloop
  endfacet
  facet normal 3.20649e-009 0.997707 0.0676782
    outer loop
      vertex 13.291 7.53461 41.6511
      vertex 9.7 7.27352 45.5
      vertex 13.6 7.53129 41.7
    endloop
  endfacet
  facet normal 2.64413e-007 0.997707 0.0676785
    outer loop
      vertex 13.0122 7.54425 41.509
      vertex 9.7 7.27352 45.5
      vertex 13.291 7.53461 41.6511
    endloop
  endfacet
  facet normal -1.81061e-007 0.997707 0.0676781
    outer loop
      vertex 12.791 7.55925 41.2878
      vertex 9.7 7.27352 45.5
      vertex 13.0122 7.54425 41.509
    endloop
  endfacet
  facet normal 4.18983e-007 0.997707 0.0676785
    outer loop
      vertex 12.6489 7.57816 41.009
      vertex 9.7 7.27352 45.5
      vertex 12.791 7.55925 41.2878
    endloop
  endfacet
  facet normal -1.6767e-007 0.997707 0.0676781
    outer loop
      vertex 12.6 7.59912 40.7
      vertex 9.7 7.27352 45.5
      vertex 12.6489 7.57816 41.009
    endloop
  endfacet
  facet normal -0 0.997707 0.0676782
    outer loop
      vertex -0.599999 9.2 17.1
      vertex 12.6 7.59912 40.7
      vertex 12.6 9.2 17.1
    endloop
  endfacet
  facet normal -6.54213e-008 0.997707 0.0676782
    outer loop
      vertex 12.6 7.59912 40.7
      vertex -0.599999 9.2 17.1
      vertex 9.7 7.27352 45.5
    endloop
  endfacet
  facet normal 1.11438e-008 0.997707 0.0676782
    outer loop
      vertex 9.7 7.27352 45.5
      vertex -0.599999 9.2 17.1
      vertex 1.6 6.1 62.8
    endloop
  endfacet
  facet normal -1 0 0
    outer loop
      vertex 18.55 0 62.8
      vertex 18.55 3.8 65.3
      vertex 18.55 3.8 62.8
    endloop
  endfacet
  facet normal -1 -0 0
    outer loop
      vertex 18.55 3.8 65.3
      vertex 18.55 0 62.8
      vertex 18.55 0 65.3
    endloop
  endfacet
  facet normal -0 0 1
    outer loop
      vertex 18.55 3.8 65.3
      vertex 106.45 0 65.3
      vertex 106.45 3.8 65.3
    endloop
  endfacet
  facet normal 0 0 1
    outer loop
      vertex 106.45 0 65.3
      vertex 18.55 3.8 65.3
      vertex 18.55 0 65.3
    endloop
  endfacet
  facet normal 1 -0 0
    outer loop
      vertex 106.45 0 65.3
      vertex 106.45 3.8 62.8
      vertex 106.45 3.8 65.3
    endloop
  endfacet
  facet normal 1 0 0
    outer loop
      vertex 106.45 3.8 62.8
      vertex 106.45 0 65.3
      vertex 106.45 0 62.8
    endloop
  endfacet
  facet normal 0 1 -0
    outer loop
      vertex 106.45 3.8 62.8
      vertex 18.55 3.8 65.3
      vertex 106.45 3.8 65.3
    endloop
  endfacet
  facet normal 0 1 0
    outer loop
      vertex 18.55 3.8 65.3
      vertex 106.45 3.8 62.8
      vertex 18.55 3.8 62.8
    endloop
  endfacet
  facet normal -1 0 0
    outer loop
      vertex -3.95 0 16.8
      vertex -3.95 5.1 16.9
      vertex -3.95 5.1 16.8
    endloop
  endfacet
  facet normal -1 -0 0
    outer loop
      vertex -3.95 5.1 16.9
      vertex -3.95 0 16.8
      vertex -3.95 0 16.9
    endloop
  endfacet
  facet normal 0 0 -1
    outer loop
      vertex -3.95 0 16.8
      vertex -0.591724 5.1 16.8
      vertex -0.591724 0 16.8
    endloop
  endfacet
  facet normal -0 0 -1
    outer loop
      vertex -0.591724 5.1 16.8
      vertex -3.95 0 16.8
      vertex -3.95 5.1 16.8
    endloop
  endfacet
  facet normal 0 0 -1
    outer loop
      vertex 125.592 0 16.8
      vertex 128.95 5.1 16.8
      vertex 128.95 0 16.8
    endloop
  endfacet
  facet normal -0 0 -1
    outer loop
      vertex 128.95 5.1 16.8
      vertex 125.592 0 16.8
      vertex 125.592 5.1 16.8
    endloop
  endfacet
  facet normal 0.999099 0 0.0424453
    outer loop
      vertex 128.95 0 16.9
      vertex 127 3.1 62.8
      vertex 127 0 62.8
    endloop
  endfacet
  facet normal 0.999099 0 0.0424453
    outer loop
      vertex 127 3.1 62.8
      vertex 128.95 0 16.9
      vertex 128.95 5.1 16.9
    endloop
  endfacet
  facet normal 1 -0 0
    outer loop
      vertex 128.95 0 16.9
      vertex 128.95 5.1 16.8
      vertex 128.95 5.1 16.9
    endloop
  endfacet
  facet normal 1 0 0
    outer loop
      vertex 128.95 5.1 16.8
      vertex 128.95 0 16.9
      vertex 128.95 0 16.8
    endloop
  endfacet
  facet normal -0.999099 0 0.0424454
    outer loop
      vertex -3.95 0 16.9
      vertex -2 3.1 62.8
      vertex -3.95 5.1 16.9
    endloop
  endfacet
  facet normal -0.999099 0 0.0424454
    outer loop
      vertex -2 3.1 62.8
      vertex -3.95 0 16.9
      vertex -2 0 62.8
    endloop
  endfacet
  facet normal 0 1 0
    outer loop
      vertex -3.95 5.1 16.8
      vertex -0.595861 5.1 16.9
      vertex -0.591724 5.1 16.8
    endloop
  endfacet
  facet normal 0 1 0
    outer loop
      vertex -0.595861 5.1 16.9
      vertex -3.95 5.1 16.8
      vertex -3.95 5.1 16.9
    endloop
  endfacet
  facet normal 0 1 -0
    outer loop
      vertex 128.95 5.1 16.8
      vertex 125.596 5.1 16.9
      vertex 128.95 5.1 16.9
    endloop
  endfacet
  facet normal 0 1 0
    outer loop
      vertex 125.596 5.1 16.9
      vertex 128.95 5.1 16.8
      vertex 125.592 5.1 16.8
    endloop
  endfacet
  facet normal 0 0.999052 0.0435317
    outer loop
      vertex 127 3.1 62.8
      vertex 125.6 5.09128 17.1
      vertex 123.4 3.1 62.8
    endloop
  endfacet
  facet normal -3.8493e-008 0.999052 0.0435317
    outer loop
      vertex 128.95 5.1 16.9
      vertex 125.6 5.09128 17.1
      vertex 127 3.1 62.8
    endloop
  endfacet
  facet normal 2.47857e-008 0.999052 0.0435327
    outer loop
      vertex 125.6 5.09128 17.1
      vertex 128.95 5.1 16.9
      vertex 125.6 5.09564 17
    endloop
  endfacet
  facet normal 0 0.999052 0.0435319
    outer loop
      vertex 125.6 5.09564 17
      vertex 128.95 5.1 16.9
      vertex 125.596 5.1 16.9
    endloop
  endfacet
  facet normal 0 0.999052 0.0435317
    outer loop
      vertex -0.599999 5.09128 17.1
      vertex -2 3.1 62.8
      vertex 1.6 3.1 62.8
    endloop
  endfacet
  facet normal -2.47857e-008 0.999052 0.0435327
    outer loop
      vertex -3.95 5.1 16.9
      vertex -0.599999 5.09128 17.1
      vertex -0.599999 5.09564 17
    endloop
  endfacet
  facet normal 3.84929e-008 0.999052 0.0435317
    outer loop
      vertex -0.599999 5.09128 17.1
      vertex -3.95 5.1 16.9
      vertex -2 3.1 62.8
    endloop
  endfacet
  facet normal -0 0.999052 0.0435319
    outer loop
      vertex -3.95 5.1 16.9
      vertex -0.599999 5.09564 17
      vertex -0.595861 5.1 16.9
    endloop
  endfacet
  facet normal -0.511805 0 -0.859102
    outer loop
      vertex 47.95 0 36.6
      vertex 50.3 1.5 35.2
      vertex 50.3 0 35.2
    endloop
  endfacet
  facet normal -0.511805 0 -0.859102
    outer loop
      vertex 50.3 1.5 35.2
      vertex 47.95 0 36.6
      vertex 47.95 1.5 36.6
    endloop
  endfacet
  facet normal -0 0 1
    outer loop
      vertex 34.3 1.5 30.5
      vertex 50.3 0 30.5
      vertex 50.3 1.5 30.5
    endloop
  endfacet
  facet normal 0 0 1
    outer loop
      vertex 50.3 0 30.5
      vertex 34.3 1.5 30.5
      vertex 34.3 0 30.5
    endloop
  endfacet
  facet normal 0 0 -1
    outer loop
      vertex 36.65 0 36.6
      vertex 47.95 1.5 36.6
      vertex 47.95 0 36.6
    endloop
  endfacet
  facet normal -0 0 -1
    outer loop
      vertex 47.95 1.5 36.6
      vertex 36.65 0 36.6
      vertex 36.65 1.5 36.6
    endloop
  endfacet
  facet normal -1 0 0
    outer loop
      vertex 50.3 0 30.5
      vertex 50.3 1.5 35.2
      vertex 50.3 1.5 30.5
    endloop
  endfacet
  facet normal -1 -0 0
    outer loop
      vertex 50.3 1.5 35.2
      vertex 50.3 0 30.5
      vertex 50.3 0 35.2
    endloop
  endfacet
  facet normal 1 -0 0
    outer loop
      vertex 34.3 0 35.2
      vertex 34.3 1.5 30.5
      vertex 34.3 1.5 35.2
    endloop
  endfacet
  facet normal 1 0 0
    outer loop
      vertex 34.3 1.5 30.5
      vertex 34.3 0 35.2
      vertex 34.3 0 30.5
    endloop
  endfacet
  facet normal 0.511805 0 -0.859102
    outer loop
      vertex 34.3 0 35.2
      vertex 36.65 1.5 36.6
      vertex 36.65 0 36.6
    endloop
  endfacet
  facet normal 0.511805 0 -0.859102
    outer loop
      vertex 36.65 1.5 36.6
      vertex 34.3 0 35.2
      vertex 34.3 1.5 35.2
    endloop
  endfacet
  facet normal -0.987687 0 -0.156441
    outer loop
      vertex 67.05 0 33.6
      vertex 66.8909 1.5 34.6043
      vertex 67.05 1.5 33.6
    endloop
  endfacet
  facet normal -0.987687 -0 -0.156441
    outer loop
      vertex 66.8909 1.5 34.6043
      vertex 67.05 0 33.6
      vertex 66.8909 0 34.6043
    endloop
  endfacet
  facet normal 0.987689 1.85265e-007 0.156432
    outer loop
      vertex 60.7091 0 32.5957
      vertex 60.5862 1.5 33.3717
      vertex 60.5645 0 33.5087
    endloop
  endfacet
  facet normal 0.987689 0 0.156433
    outer loop
      vertex 60.5862 1.5 33.3717
      vertex 60.7091 0 32.5957
      vertex 60.7091 1.5 32.5957
    endloop
  endfacet
  facet normal 0.156444 0 -0.987687
    outer loop
      vertex 62.7957 1.5 36.6909
      vertex 62.887 0 36.7054
      vertex 62.7957 0 36.6909
    endloop
  endfacet
  facet normal 0.156436 -5.02364e-007 -0.987688
    outer loop
      vertex 62.887 0 36.7054
      vertex 62.7957 1.5 36.6909
      vertex 63.0239 1.5 36.7271
    endloop
  endfacet
  facet normal -0.156435 0 0.987688
    outer loop
      vertex 63.8 1.5 30.35
      vertex 64.8043 0 30.5091
      vertex 64.8043 1.5 30.5091
    endloop
  endfacet
  facet normal -0.156435 0 0.987688
    outer loop
      vertex 64.8043 0 30.5091
      vertex 63.8 1.5 30.35
      vertex 63.8 0 30.35
    endloop
  endfacet
  facet normal -0.45399 0 0.891007
    outer loop
      vertex 64.8043 1.5 30.5091
      vertex 65.7103 0 30.9707
      vertex 65.7103 1.5 30.9707
    endloop
  endfacet
  facet normal -0.45399 0 0.891007
    outer loop
      vertex 65.7103 0 30.9707
      vertex 64.8043 1.5 30.5091
      vertex 64.8043 0 30.5091
    endloop
  endfacet
  facet normal -0.707107 0 -0.707107
    outer loop
      vertex 66.4293 0 35.5103
      vertex 65.7103 1.5 36.2293
      vertex 66.4293 1.5 35.5103
    endloop
  endfacet
  facet normal -0.707107 -0 -0.707107
    outer loop
      vertex 65.7103 1.5 36.2293
      vertex 66.4293 0 35.5103
      vertex 65.7103 0 36.2293
    endloop
  endfacet
  facet normal -0.891009 0 -0.453987
    outer loop
      vertex 66.8909 0 34.6043
      vertex 66.4293 1.5 35.5103
      vertex 66.8909 1.5 34.6043
    endloop
  endfacet
  facet normal -0.891009 -0 -0.453987
    outer loop
      vertex 66.4293 1.5 35.5103
      vertex 66.8909 0 34.6043
      vertex 66.4293 0 35.5103
    endloop
  endfacet
  facet normal 0.707105 0 -0.707109
    outer loop
      vertex 61.1707 0 35.5103
      vertex 61.8897 1.5 36.2293
      vertex 61.8897 0 36.2293
    endloop
  endfacet
  facet normal 0.707105 0 -0.707109
    outer loop
      vertex 61.8897 1.5 36.2293
      vertex 61.1707 0 35.5103
      vertex 61.1707 1.5 35.5103
    endloop
  endfacet
  facet normal 0.453991 0 -0.891006
    outer loop
      vertex 61.8897 0 36.2293
      vertex 62.7957 1.5 36.6909
      vertex 62.7957 0 36.6909
    endloop
  endfacet
  facet normal 0.453991 0 -0.891006
    outer loop
      vertex 62.7957 1.5 36.6909
      vertex 61.8897 0 36.2293
      vertex 61.8897 1.5 36.2293
    endloop
  endfacet
  facet normal 0.156433 0 -0.987689
    outer loop
      vertex 63.8 0 36.85
      vertex 63.0239 1.5 36.7271
      vertex 63.8 1.5 36.85
    endloop
  endfacet
  facet normal 0.156432 -1.85265e-007 -0.987689
    outer loop
      vertex 63.0239 1.5 36.7271
      vertex 63.8 0 36.85
      vertex 62.887 0 36.7054
    endloop
  endfacet
  facet normal -0.156444 0 -0.987687
    outer loop
      vertex 64.713 0 36.7054
      vertex 64.8043 1.5 36.6909
      vertex 64.8043 0 36.6909
    endloop
  endfacet
  facet normal -0.156438 -3.43227e-007 -0.987688
    outer loop
      vertex 64.8043 1.5 36.6909
      vertex 64.713 0 36.7054
      vertex 64.5761 1.5 36.7271
    endloop
  endfacet
  facet normal -0.45399 0 -0.891007
    outer loop
      vertex 64.8043 0 36.6909
      vertex 65.7103 1.5 36.2293
      vertex 65.7103 0 36.2293
    endloop
  endfacet
  facet normal -0.45399 0 -0.891007
    outer loop
      vertex 65.7103 1.5 36.2293
      vertex 64.8043 0 36.6909
      vertex 64.8043 1.5 36.6909
    endloop
  endfacet
  facet normal 0.987688 -5.6204e-007 -0.156436
    outer loop
      vertex 60.55 0 33.6
      vertex 60.6729 1.5 34.3761
      vertex 60.6946 0 34.513
    endloop
  endfacet
  facet normal 0.987688 0 -0.156437
    outer loop
      vertex 60.6729 1.5 34.3761
      vertex 60.55 0 33.6
      vertex 60.55 1.5 33.6
    endloop
  endfacet
  facet normal 0.987686 0 0.15645
    outer loop
      vertex 60.5645 0 33.5087
      vertex 60.55 1.5 33.6
      vertex 60.55 0 33.6
    endloop
  endfacet
  facet normal 0.987688 7.4107e-007 0.156438
    outer loop
      vertex 60.55 1.5 33.6
      vertex 60.5645 0 33.5087
      vertex 60.5862 1.5 33.3717
    endloop
  endfacet
  facet normal 0.891007 0 -0.45399
    outer loop
      vertex 61.1707 0 35.5103
      vertex 60.7091 1.5 34.6043
      vertex 61.1707 1.5 35.5103
    endloop
  endfacet
  facet normal 0.891007 0 -0.45399
    outer loop
      vertex 60.7091 1.5 34.6043
      vertex 61.1707 0 35.5103
      vertex 60.7091 0 34.6043
    endloop
  endfacet
  facet normal -0.987687 0 0.156441
    outer loop
      vertex 66.8909 0 32.5957
      vertex 67.05 1.5 33.6
      vertex 66.8909 1.5 32.5957
    endloop
  endfacet
  facet normal -0.987687 0 0.156441
    outer loop
      vertex 67.05 1.5 33.6
      vertex 66.8909 0 32.5957
      vertex 67.05 0 33.6
    endloop
  endfacet
  facet normal -0.707108 0 0.707106
    outer loop
      vertex 65.7103 0 30.9707
      vertex 66.4293 1.5 31.6897
      vertex 65.7103 1.5 30.9707
    endloop
  endfacet
  facet normal -0.707108 0 0.707106
    outer loop
      vertex 66.4293 1.5 31.6897
      vertex 65.7103 0 30.9707
      vertex 66.4293 0 31.6897
    endloop
  endfacet
  facet normal -0.891008 0 0.453987
    outer loop
      vertex 66.4293 0 31.6897
      vertex 66.8909 1.5 32.5957
      vertex 66.4293 1.5 31.6897
    endloop
  endfacet
  facet normal -0.891008 0 0.453987
    outer loop
      vertex 66.8909 1.5 32.5957
      vertex 66.4293 0 31.6897
      vertex 66.8909 0 32.5957
    endloop
  endfacet
  facet normal -0.156432 2.12562e-007 -0.987689
    outer loop
      vertex 63.8 0 36.85
      vertex 64.5761 1.5 36.7271
      vertex 64.713 0 36.7054
    endloop
  endfacet
  facet normal -0.156432 0 -0.987689
    outer loop
      vertex 64.5761 1.5 36.7271
      vertex 63.8 0 36.85
      vertex 63.8 1.5 36.85
    endloop
  endfacet
  facet normal 0.987693 0 -0.156403
    outer loop
      vertex 60.6946 0 34.513
      vertex 60.7091 1.5 34.6043
      vertex 60.7091 0 34.6043
    endloop
  endfacet
  facet normal 0.987691 1.00473e-006 -0.156419
    outer loop
      vertex 60.7091 1.5 34.6043
      vertex 60.6946 0 34.513
      vertex 60.6729 1.5 34.3761
    endloop
  endfacet
  facet normal 0.707106 0 0.707108
    outer loop
      vertex 61.1707 1.5 31.6897
      vertex 61.8897 0 30.9707
      vertex 61.8897 1.5 30.9707
    endloop
  endfacet
  facet normal 0.707106 0 0.707108
    outer loop
      vertex 61.8897 0 30.9707
      vertex 61.1707 1.5 31.6897
      vertex 61.1707 0 31.6897
    endloop
  endfacet
  facet normal 0.891007 -0 0.45399
    outer loop
      vertex 60.7091 0 32.5957
      vertex 61.1707 1.5 31.6897
      vertex 60.7091 1.5 32.5957
    endloop
  endfacet
  facet normal 0.891007 0 0.45399
    outer loop
      vertex 61.1707 1.5 31.6897
      vertex 60.7091 0 32.5957
      vertex 61.1707 0 31.6897
    endloop
  endfacet
  facet normal 0.156435 0 0.987688
    outer loop
      vertex 62.7957 1.5 30.5091
      vertex 63.8 0 30.35
      vertex 63.8 1.5 30.35
    endloop
  endfacet
  facet normal 0.156435 0 0.987688
    outer loop
      vertex 63.8 0 30.35
      vertex 62.7957 1.5 30.5091
      vertex 62.7957 0 30.5091
    endloop
  endfacet
  facet normal 0.453991 0 0.891006
    outer loop
      vertex 61.8897 1.5 30.9707
      vertex 62.7957 0 30.5091
      vertex 62.7957 1.5 30.5091
    endloop
  endfacet
  facet normal 0.453991 0 0.891006
    outer loop
      vertex 62.7957 0 30.5091
      vertex 61.8897 1.5 30.9707
      vertex 61.8897 0 30.9707
    endloop
  endfacet
  facet normal -0.453991 0 0.891006
    outer loop
      vertex 20.6723 0 45.757
      vertex 22.1359 7.20551 46.5027
      vertex 20.6723 7.25609 45.757
    endloop
  endfacet
  facet normal -0.453991 0 0.891006
    outer loop
      vertex 22.1359 7.20551 46.5027
      vertex 20.6723 0 45.757
      vertex 22.1359 0 46.5027
    endloop
  endfacet
  facet normal 1 0 0
    outer loop
      vertex 9.7 0 45.5
      vertex 9.7 6.56127 56
      vertex 9.7 0 56
    endloop
  endfacet
  facet normal 1 0 0
    outer loop
      vertex 9.7 6.56127 56
      vertex 9.7 0 45.5
      vertex 9.7 7.27352 45.5
    endloop
  endfacet
  facet normal -0.156435 0 0.987688
    outer loop
      vertex 19.05 0 45.5
      vertex 20.6723 7.25609 45.757
      vertex 19.05 7.27352 45.5
    endloop
  endfacet
  facet normal -0.156435 0 0.987688
    outer loop
      vertex 20.6723 7.25609 45.757
      vertex 19.05 0 45.5
      vertex 20.6723 0 45.757
    endloop
  endfacet
  facet normal -0.891007 0 0.45399
    outer loop
      vertex 23.2973 0 47.6641
      vertex 24.043 7.02744 49.1277
      vertex 23.2973 7.12672 47.6641
    endloop
  endfacet
  facet normal -0.891007 0 0.45399
    outer loop
      vertex 24.043 7.02744 49.1277
      vertex 23.2973 0 47.6641
      vertex 24.043 0 49.1277
    endloop
  endfacet
  facet normal 0 0 -1
    outer loop
      vertex 9.7 0 56
      vertex 19.05 6.56127 56
      vertex 19.05 0 56
    endloop
  endfacet
  facet normal -0 0 -1
    outer loop
      vertex 19.05 6.56127 56
      vertex 9.7 0 56
      vertex 9.7 6.56127 56
    endloop
  endfacet
  facet normal -0.891007 0 -0.45399
    outer loop
      vertex 24.043 0 52.3723
      vertex 23.2973 6.70807 53.8359
      vertex 24.043 6.80735 52.3723
    endloop
  endfacet
  facet normal -0.891007 -0 -0.45399
    outer loop
      vertex 23.2973 6.70807 53.8359
      vertex 24.043 0 52.3723
      vertex 23.2973 0 53.8359
    endloop
  endfacet
  facet normal -0 0 1
    outer loop
      vertex 9.7 7.27352 45.5
      vertex 19.05 0 45.5
      vertex 19.05 7.27352 45.5
    endloop
  endfacet
  facet normal 0 0 1
    outer loop
      vertex 19.05 0 45.5
      vertex 9.7 7.27352 45.5
      vertex 9.7 0 45.5
    endloop
  endfacet
  facet normal -0.707106 0 0.707107
    outer loop
      vertex 22.1359 0 46.5027
      vertex 23.2973 7.12672 47.6641
      vertex 22.1359 7.20551 46.5027
    endloop
  endfacet
  facet normal -0.707106 0 0.707107
    outer loop
      vertex 23.2973 7.12672 47.6641
      vertex 22.1359 0 46.5027
      vertex 23.2973 0 47.6641
    endloop
  endfacet
  facet normal -0.987688 0 0.156435
    outer loop
      vertex 24.043 0 49.1277
      vertex 24.3 6.9174 50.75
      vertex 24.043 7.02744 49.1277
    endloop
  endfacet
  facet normal -0.987688 0 0.156435
    outer loop
      vertex 24.3 6.9174 50.75
      vertex 24.043 0 49.1277
      vertex 24.3 0 50.75
    endloop
  endfacet
  facet normal -0.156435 -0 -0.987688
    outer loop
      vertex 19.05 6.56127 56
      vertex 20.6723 0 55.743
      vertex 19.05 0 56
    endloop
  endfacet
  facet normal -0.156435 0 -0.987688
    outer loop
      vertex 20.6723 0 55.743
      vertex 19.05 6.56127 56
      vertex 20.6723 6.5787 55.743
    endloop
  endfacet
  facet normal -0.987688 0 -0.156435
    outer loop
      vertex 24.3 0 50.75
      vertex 24.043 6.80735 52.3723
      vertex 24.3 6.9174 50.75
    endloop
  endfacet
  facet normal -0.987688 -0 -0.156435
    outer loop
      vertex 24.043 6.80735 52.3723
      vertex 24.3 0 50.75
      vertex 24.043 0 52.3723
    endloop
  endfacet
  facet normal -0.707106 -0 -0.707107
    outer loop
      vertex 22.1359 6.62928 54.9973
      vertex 23.2973 0 53.8359
      vertex 22.1359 0 54.9973
    endloop
  endfacet
  facet normal -0.707106 0 -0.707107
    outer loop
      vertex 23.2973 0 53.8359
      vertex 22.1359 6.62928 54.9973
      vertex 23.2973 6.70807 53.8359
    endloop
  endfacet
  facet normal -0.453991 -0 -0.891006
    outer loop
      vertex 20.6723 6.5787 55.743
      vertex 22.1359 0 54.9973
      vertex 20.6723 0 55.743
    endloop
  endfacet
  facet normal -0.453991 0 -0.891006
    outer loop
      vertex 22.1359 0 54.9973
      vertex 20.6723 6.5787 55.743
      vertex 22.1359 6.62928 54.9973
    endloop
  endfacet
  facet normal 0.156444 0 -0.987687
    outer loop
      vertex 13.291 1.5 41.6511
      vertex 13.6 7.53129 41.7
      vertex 13.6 1.5 41.7
    endloop
  endfacet
  facet normal 0.156444 0 -0.987687
    outer loop
      vertex 13.6 7.53129 41.7
      vertex 13.291 1.5 41.6511
      vertex 13.291 7.53461 41.6511
    endloop
  endfacet
  facet normal 0.707107 -0 0.707107
    outer loop
      vertex 12.791 1.5 5.91221
      vertex 13.0122 8.81003 5.69098
      vertex 12.791 8.81766 5.91221
    endloop
  endfacet
  facet normal 0.707107 0 0.707107
    outer loop
      vertex 13.0122 8.81003 5.69098
      vertex 12.791 1.5 5.91221
      vertex 13.0122 1.5 5.69098
    endloop
  endfacet
  facet normal 0 0 -1
    outer loop
      vertex 13.6 1.5 41.7
      vertex 111.4 7.53129 41.7
      vertex 111.4 1.5 41.7
    endloop
  endfacet
  facet normal -0 0 -1
    outer loop
      vertex 111.4 7.53129 41.7
      vertex 13.6 1.5 41.7
      vertex 13.6 7.53129 41.7
    endloop
  endfacet
  facet normal 0 1 -0
    outer loop
      vertex 61.8897 1.5 36.2293
      vertex 47.95 1.5 36.6
      vertex 62.7957 1.5 36.6909
    endloop
  endfacet
  facet normal 0 1 0
    outer loop
      vertex 50.3 1.5 35.2
      vertex 61.8897 1.5 36.2293
      vertex 61.1707 1.5 35.5103
    endloop
  endfacet
  facet normal 0 1 0
    outer loop
      vertex 61.8897 1.5 36.2293
      vertex 50.3 1.5 35.2
      vertex 47.95 1.5 36.6
    endloop
  endfacet
  facet normal 0 1 -0
    outer loop
      vertex 60.7091 1.5 34.6043
      vertex 50.3 1.5 35.2
      vertex 61.1707 1.5 35.5103
    endloop
  endfacet
  facet normal 0 1 -0
    outer loop
      vertex 60.6729 1.5 34.3761
      vertex 50.3 1.5 35.2
      vertex 60.7091 1.5 34.6043
    endloop
  endfacet
  facet normal 0 1 -0
    outer loop
      vertex 60.55 1.5 33.6
      vertex 50.3 1.5 35.2
      vertex 60.6729 1.5 34.3761
    endloop
  endfacet
  facet normal 0 1 0
    outer loop
      vertex 50.3 1.5 30.5
      vertex 60.55 1.5 33.6
      vertex 60.5862 1.5 33.3717
    endloop
  endfacet
  facet normal 0 1 0
    outer loop
      vertex 50.3 1.5 30.5
      vertex 60.5862 1.5 33.3717
      vertex 60.7091 1.5 32.5957
    endloop
  endfacet
  facet normal 0 1 0
    outer loop
      vertex 50.3 1.5 30.5
      vertex 60.7091 1.5 32.5957
      vertex 61.1707 1.5 31.6897
    endloop
  endfacet
  facet normal 0 1 0
    outer loop
      vertex 50.3 1.5 30.5
      vertex 61.1707 1.5 31.6897
      vertex 61.8897 1.5 30.9707
    endloop
  endfacet
  facet normal 0 1 0
    outer loop
      vertex 50.3 1.5 30.5
      vertex 61.8897 1.5 30.9707
      vertex 62.7957 1.5 30.5091
    endloop
  endfacet
  facet normal 0 1 0
    outer loop
      vertex 60.55 1.5 33.6
      vertex 50.3 1.5 30.5
      vertex 50.3 1.5 35.2
    endloop
  endfacet
  facet normal 0 1 0
    outer loop
      vertex 13.6 1.5 5.5
      vertex 50.3 1.5 30.5
      vertex 63.8 1.5 30.35
    endloop
  endfacet
  facet normal 0 1 0
    outer loop
      vertex 63.8 1.5 30.35
      vertex 50.3 1.5 30.5
      vertex 62.7957 1.5 30.5091
    endloop
  endfacet
  facet normal 0 1 0
    outer loop
      vertex 112.4 1.5 40.7
      vertex 111.4 1.5 41.7
      vertex 111.709 1.5 41.6511
    endloop
  endfacet
  facet normal 0 1 0
    outer loop
      vertex 111.4 1.5 41.7
      vertex 63.8 1.5 36.85
      vertex 13.6 1.5 41.7
    endloop
  endfacet
  facet normal 0 1 0
    outer loop
      vertex 112.4 1.5 40.7
      vertex 111.709 1.5 41.6511
      vertex 111.988 1.5 41.509
    endloop
  endfacet
  facet normal 0 1 -0
    outer loop
      vertex 47.95 1.5 36.6
      vertex 13.6 1.5 41.7
      vertex 63.8 1.5 36.85
    endloop
  endfacet
  facet normal 0 1 0
    outer loop
      vertex 112.4 1.5 40.7
      vertex 111.988 1.5 41.509
      vertex 112.209 1.5 41.2878
    endloop
  endfacet
  facet normal 0 1 -0
    outer loop
      vertex 36.65 1.5 36.6
      vertex 13.6 1.5 41.7
      vertex 47.95 1.5 36.6
    endloop
  endfacet
  facet normal 0 1 0
    outer loop
      vertex 112.4 1.5 40.7
      vertex 112.209 1.5 41.2878
      vertex 112.351 1.5 41.009
    endloop
  endfacet
  facet normal 0 1 -0
    outer loop
      vertex 34.3 1.5 35.2
      vertex 13.6 1.5 41.7
      vertex 36.65 1.5 36.6
    endloop
  endfacet
  facet normal 0 1 0
    outer loop
      vertex 111.4 1.5 5.5
      vertex 111.4 1.5 41.7
      vertex 112.4 1.5 40.7
    endloop
  endfacet
  facet normal 0 1 -0
    outer loop
      vertex 34.3 1.5 30.5
      vertex 13.6 1.5 41.7
      vertex 34.3 1.5 35.2
    endloop
  endfacet
  facet normal 0 1 0
    outer loop
      vertex 13.6 1.5 41.7
      vertex 12.6 1.5 40.7
      vertex 13.291 1.5 41.6511
    endloop
  endfacet
  facet normal 0 1 0
    outer loop
      vertex 111.4 1.5 41.7
      vertex 64.5761 1.5 36.7271
      vertex 63.8 1.5 36.85
    endloop
  endfacet
  facet normal 0 1 0
    outer loop
      vertex 111.4 1.5 41.7
      vertex 64.8043 1.5 36.6909
      vertex 64.5761 1.5 36.7271
    endloop
  endfacet
  facet normal 0 1 0
    outer loop
      vertex 111.4 1.5 41.7
      vertex 65.7103 1.5 36.2293
      vertex 64.8043 1.5 36.6909
    endloop
  endfacet
  facet normal 0 1 0
    outer loop
      vertex 111.4 1.5 41.7
      vertex 66.4293 1.5 35.5103
      vertex 65.7103 1.5 36.2293
    endloop
  endfacet
  facet normal 0 1 0
    outer loop
      vertex 111.4 1.5 41.7
      vertex 66.8909 1.5 34.6043
      vertex 66.4293 1.5 35.5103
    endloop
  endfacet
  facet normal 0 1 0
    outer loop
      vertex 111.4 1.5 41.7
      vertex 67.05 1.5 33.6
      vertex 66.8909 1.5 34.6043
    endloop
  endfacet
  facet normal 0 1 0
    outer loop
      vertex 111.4 1.5 41.7
      vertex 66.8909 1.5 32.5957
      vertex 67.05 1.5 33.6
    endloop
  endfacet
  facet normal 0 1 0
    outer loop
      vertex 111.4 1.5 41.7
      vertex 111.4 1.5 5.5
      vertex 66.8909 1.5 32.5957
    endloop
  endfacet
  facet normal 0 1 0
    outer loop
      vertex 66.8909 1.5 32.5957
      vertex 111.4 1.5 5.5
      vertex 66.4293 1.5 31.6897
    endloop
  endfacet
  facet normal 0 1 0
    outer loop
      vertex 66.4293 1.5 31.6897
      vertex 111.4 1.5 5.5
      vertex 65.7103 1.5 30.9707
    endloop
  endfacet
  facet normal 0 1 0
    outer loop
      vertex 65.7103 1.5 30.9707
      vertex 111.4 1.5 5.5
      vertex 64.8043 1.5 30.5091
    endloop
  endfacet
  facet normal 0 1 0
    outer loop
      vertex 111.4 1.5 5.5
      vertex 112.4 1.5 40.7
      vertex 112.4 1.5 6.5
    endloop
  endfacet
  facet normal 0 1 0
    outer loop
      vertex 47.95 1.5 36.6
      vertex 63.8 1.5 36.85
      vertex 63.0239 1.5 36.7271
    endloop
  endfacet
  facet normal 0 1 0
    outer loop
      vertex 47.95 1.5 36.6
      vertex 63.0239 1.5 36.7271
      vertex 62.7957 1.5 36.6909
    endloop
  endfacet
  facet normal 0 1 0
    outer loop
      vertex 13.291 1.5 41.6511
      vertex 12.6 1.5 40.7
      vertex 13.0122 1.5 41.509
    endloop
  endfacet
  facet normal 0 1 0
    outer loop
      vertex 13.0122 1.5 41.509
      vertex 12.6 1.5 40.7
      vertex 12.791 1.5 41.2878
    endloop
  endfacet
  facet normal 0 1 0
    outer loop
      vertex 12.791 1.5 41.2878
      vertex 12.6 1.5 40.7
      vertex 12.6489 1.5 41.009
    endloop
  endfacet
  facet normal 0 1 0
    outer loop
      vertex 13.6 1.5 41.7
      vertex 34.3 1.5 30.5
      vertex 12.6 1.5 40.7
    endloop
  endfacet
  facet normal 0 1 0
    outer loop
      vertex 64.8043 1.5 30.5091
      vertex 111.4 1.5 5.5
      vertex 63.8 1.5 30.35
    endloop
  endfacet
  facet normal 0 1 0
    outer loop
      vertex 34.3 1.5 30.5
      vertex 12.6 1.5 6.5
      vertex 12.6 1.5 40.7
    endloop
  endfacet
  facet normal 0 1 0
    outer loop
      vertex 13.6 1.5 5.5
      vertex 63.8 1.5 30.35
      vertex 111.4 1.5 5.5
    endloop
  endfacet
  facet normal 0 1 0
    outer loop
      vertex 111.4 1.5 5.5
      vertex 112.4 1.5 6.5
      vertex 112.351 1.5 6.19098
    endloop
  endfacet
  facet normal 0 1 0
    outer loop
      vertex 50.3 1.5 30.5
      vertex 13.6 1.5 5.5
      vertex 34.3 1.5 30.5
    endloop
  endfacet
  facet normal 0 1 0
    outer loop
      vertex 111.4 1.5 5.5
      vertex 112.351 1.5 6.19098
      vertex 112.209 1.5 5.91221
    endloop
  endfacet
  facet normal 0 1 0
    outer loop
      vertex 34.3 1.5 30.5
      vertex 13.6 1.5 5.5
      vertex 12.6 1.5 6.5
    endloop
  endfacet
  facet normal 0 1 0
    outer loop
      vertex 111.4 1.5 5.5
      vertex 112.209 1.5 5.91221
      vertex 111.988 1.5 5.69098
    endloop
  endfacet
  facet normal 0 1 0
    outer loop
      vertex 12.6 1.5 6.5
      vertex 13.6 1.5 5.5
      vertex 12.6489 1.5 6.19098
    endloop
  endfacet
  facet normal 0 1 0
    outer loop
      vertex 111.4 1.5 5.5
      vertex 111.988 1.5 5.69098
      vertex 111.709 1.5 5.54894
    endloop
  endfacet
  facet normal 0 1 0
    outer loop
      vertex 12.6489 1.5 6.19098
      vertex 13.6 1.5 5.5
      vertex 12.791 1.5 5.91221
    endloop
  endfacet
  facet normal 0 1 0
    outer loop
      vertex 12.791 1.5 5.91221
      vertex 13.6 1.5 5.5
      vertex 13.0122 1.5 5.69098
    endloop
  endfacet
  facet normal 0 1 0
    outer loop
      vertex 13.0122 1.5 5.69098
      vertex 13.6 1.5 5.5
      vertex 13.291 1.5 5.54894
    endloop
  endfacet
  facet normal 1 0 0
    outer loop
      vertex 12.6 1.5 6.5
      vertex 12.6 9.2 17
      vertex 12.6 9.2 17.1
    endloop
  endfacet
  facet normal 1 -0 0
    outer loop
      vertex 12.6 1.5 40.7
      vertex 12.6 9.2 17.1
      vertex 12.6 7.59912 40.7
    endloop
  endfacet
  facet normal 1 0 0
    outer loop
      vertex 12.6 9.2 17.1
      vertex 12.6 1.5 40.7
      vertex 12.6 1.5 6.5
    endloop
  endfacet
  facet normal 1 0 0
    outer loop
      vertex 12.6 9.2 17
      vertex 12.6 1.5 6.5
      vertex 12.6 8.83793 6.5
    endloop
  endfacet
  facet normal -1 0 0
    outer loop
      vertex 112.4 1.5 6.5
      vertex 112.4 9.2 17
      vertex 112.4 8.83793 6.5
    endloop
  endfacet
  facet normal -1 -0 0
    outer loop
      vertex 112.4 9.2 17
      vertex 112.4 1.5 6.5
      vertex 112.4 9.2 17.1
    endloop
  endfacet
  facet normal -1 0 0
    outer loop
      vertex 112.4 1.5 40.7
      vertex 112.4 9.2 17.1
      vertex 112.4 1.5 6.5
    endloop
  endfacet
  facet normal -1 0 0
    outer loop
      vertex 112.4 9.2 17.1
      vertex 112.4 1.5 40.7
      vertex 112.4 7.59912 40.7
    endloop
  endfacet
  facet normal -0.987689 0 -0.156432
    outer loop
      vertex 112.4 1.5 40.7
      vertex 112.351 7.57816 41.009
      vertex 112.4 7.59912 40.7
    endloop
  endfacet
  facet normal -0.987689 -0 -0.156432
    outer loop
      vertex 112.351 7.57816 41.009
      vertex 112.4 1.5 40.7
      vertex 112.351 1.5 41.009
    endloop
  endfacet
  facet normal -0.156445 -0 -0.987687
    outer loop
      vertex 111.4 7.53129 41.7
      vertex 111.709 1.5 41.6511
      vertex 111.4 1.5 41.7
    endloop
  endfacet
  facet normal -0.156445 0 -0.987687
    outer loop
      vertex 111.709 1.5 41.6511
      vertex 111.4 7.53129 41.7
      vertex 111.709 7.53461 41.6511
    endloop
  endfacet
  facet normal 0.453982 0 -0.891011
    outer loop
      vertex 13.0122 1.5 41.509
      vertex 13.291 7.53461 41.6511
      vertex 13.291 1.5 41.6511
    endloop
  endfacet
  facet normal 0.453982 0 -0.891011
    outer loop
      vertex 13.291 7.53461 41.6511
      vertex 13.0122 1.5 41.509
      vertex 13.0122 7.54425 41.509
    endloop
  endfacet
  facet normal 0.891005 0 -0.453994
    outer loop
      vertex 12.6489 1.5 41.009
      vertex 12.791 7.55925 41.2878
      vertex 12.791 1.5 41.2878
    endloop
  endfacet
  facet normal 0.891005 0 -0.453994
    outer loop
      vertex 12.791 7.55925 41.2878
      vertex 12.6489 1.5 41.009
      vertex 12.6489 7.57816 41.009
    endloop
  endfacet
  facet normal 0.987689 0 -0.156432
    outer loop
      vertex 12.6 1.5 40.7
      vertex 12.6489 7.57816 41.009
      vertex 12.6489 1.5 41.009
    endloop
  endfacet
  facet normal 0.987689 0 -0.156432
    outer loop
      vertex 12.6489 7.57816 41.009
      vertex 12.6 1.5 40.7
      vertex 12.6 7.59912 40.7
    endloop
  endfacet
  facet normal 0.156432 0 0.987689
    outer loop
      vertex 13.291 8.80514 5.54894
      vertex 13.6 1.5 5.5
      vertex 13.6 8.80345 5.5
    endloop
  endfacet
  facet normal 0.156432 0 0.987689
    outer loop
      vertex 13.6 1.5 5.5
      vertex 13.291 8.80514 5.54894
      vertex 13.291 1.5 5.54894
    endloop
  endfacet
  facet normal 0.987689 -1.01653e-008 0.156431
    outer loop
      vertex 12.6359 8.83012 6.27349
      vertex 12.6 8.83793 6.5
      vertex 12.6 1.5 6.5
    endloop
  endfacet
  facet normal 0.70711 0 -0.707104
    outer loop
      vertex 12.791 1.5 41.2878
      vertex 13.0122 7.54425 41.509
      vertex 13.0122 1.5 41.509
    endloop
  endfacet
  facet normal 0.70711 0 -0.707104
    outer loop
      vertex 13.0122 7.54425 41.509
      vertex 12.791 1.5 41.2878
      vertex 12.791 7.55925 41.2878
    endloop
  endfacet
  facet normal -0 0 1
    outer loop
      vertex 13.6 8.80345 5.5
      vertex 111.4 1.5 5.5
      vertex 111.4 8.80345 5.5
    endloop
  endfacet
  facet normal 0 0 1
    outer loop
      vertex 111.4 1.5 5.5
      vertex 13.6 8.80345 5.5
      vertex 13.6 1.5 5.5
    endloop
  endfacet
  facet normal 0.891006 -0 0.453992
    outer loop
      vertex 12.6489 1.5 6.19098
      vertex 12.791 8.81766 5.91221
      vertex 12.6489 8.82728 6.19098
    endloop
  endfacet
  facet normal 0.891006 0 0.453992
    outer loop
      vertex 12.791 8.81766 5.91221
      vertex 12.6489 1.5 6.19098
      vertex 12.791 1.5 5.91221
    endloop
  endfacet
  facet normal 0.453992 -0 0.891006
    outer loop
      vertex 13.0122 1.5 5.69098
      vertex 13.291 8.80514 5.54894
      vertex 13.0122 8.81003 5.69098
    endloop
  endfacet
  facet normal 0.453992 0 0.891006
    outer loop
      vertex 13.291 8.80514 5.54894
      vertex 13.0122 1.5 5.69098
      vertex 13.291 1.5 5.54894
    endloop
  endfacet
  facet normal -0.45398 -0 -0.891012
    outer loop
      vertex 111.709 7.53461 41.6511
      vertex 111.988 1.5 41.509
      vertex 111.709 1.5 41.6511
    endloop
  endfacet
  facet normal -0.45398 0 -0.891012
    outer loop
      vertex 111.988 1.5 41.509
      vertex 111.709 7.53461 41.6511
      vertex 111.988 7.54425 41.509
    endloop
  endfacet
  facet normal -0.156433 0 0.987689
    outer loop
      vertex 111.4 8.80345 5.5
      vertex 111.709 1.5 5.54894
      vertex 111.709 8.80514 5.54894
    endloop
  endfacet
  facet normal -0.156433 0 0.987689
    outer loop
      vertex 111.709 1.5 5.54894
      vertex 111.4 8.80345 5.5
      vertex 111.4 1.5 5.5
    endloop
  endfacet
  facet normal 0.987688 7.08866e-008 0.156434
    outer loop
      vertex 12.6 1.5 6.5
      vertex 12.6489 8.82728 6.19098
      vertex 12.6359 8.83012 6.27349
    endloop
  endfacet
  facet normal 0.987689 0 0.156432
    outer loop
      vertex 12.6489 8.82728 6.19098
      vertex 12.6 1.5 6.5
      vertex 12.6489 1.5 6.19098
    endloop
  endfacet
  facet normal -0.891 0 -0.454004
    outer loop
      vertex 112.351 1.5 41.009
      vertex 112.209 7.55925 41.2878
      vertex 112.351 7.57816 41.009
    endloop
  endfacet
  facet normal -0.891 -0 -0.454004
    outer loop
      vertex 112.209 7.55925 41.2878
      vertex 112.351 1.5 41.009
      vertex 112.209 1.5 41.2878
    endloop
  endfacet
  facet normal -0.707113 0 -0.707101
    outer loop
      vertex 112.209 1.5 41.2878
      vertex 111.988 7.54425 41.509
      vertex 112.209 7.55925 41.2878
    endloop
  endfacet
  facet normal -0.707113 -0 -0.707101
    outer loop
      vertex 111.988 7.54425 41.509
      vertex 112.209 1.5 41.2878
      vertex 111.988 1.5 41.509
    endloop
  endfacet
  facet normal -0.70711 0 0.707104
    outer loop
      vertex 112.209 1.5 5.91221
      vertex 111.988 8.81003 5.69098
      vertex 111.988 1.5 5.69098
    endloop
  endfacet
  facet normal -0.70711 0 0.707104
    outer loop
      vertex 111.988 8.81003 5.69098
      vertex 112.209 1.5 5.91221
      vertex 112.209 8.81766 5.91221
    endloop
  endfacet
  facet normal -0.891001 0 0.454002
    outer loop
      vertex 112.351 1.5 6.19098
      vertex 112.209 8.81766 5.91221
      vertex 112.209 1.5 5.91221
    endloop
  endfacet
  facet normal -0.891001 0 0.454002
    outer loop
      vertex 112.209 8.81766 5.91221
      vertex 112.351 1.5 6.19098
      vertex 112.351 8.82728 6.19098
    endloop
  endfacet
  facet normal -0.45399 0 0.891007
    outer loop
      vertex 111.709 8.80514 5.54894
      vertex 111.988 1.5 5.69098
      vertex 111.988 8.81003 5.69098
    endloop
  endfacet
  facet normal -0.45399 0 0.891007
    outer loop
      vertex 111.988 1.5 5.69098
      vertex 111.709 8.80514 5.54894
      vertex 111.709 1.5 5.54894
    endloop
  endfacet
  facet normal -0.987689 0 0.156432
    outer loop
      vertex 112.4 1.5 6.5
      vertex 112.351 8.82728 6.19098
      vertex 112.351 1.5 6.19098
    endloop
  endfacet
  facet normal -0.987689 0 0.156432
    outer loop
      vertex 112.351 8.82728 6.19098
      vertex 112.4 1.5 6.5
      vertex 112.4 8.83793 6.5
    endloop
  endfacet
endsolid OpenSCAD_Model
