solid OpenSCAD_Model
  facet normal -1 0 0
    outer loop
      vertex 0 0 0
      vertex 0 5.1 2.5
      vertex 0 5.1 0
    endloop
  endfacet
  facet normal -1 -0 0
    outer loop
      vertex 0 5.1 2.5
      vertex 0 0 0
      vertex 0 0 2.5
    endloop
  endfacet
  facet normal 0 0 -1
    outer loop
      vertex 0 5.1 2.5
      vertex 125 8.7 2.5
      vertex 125 5.1 2.5
    endloop
  endfacet
  facet normal -0 0 -1
    outer loop
      vertex 125 8.7 2.5
      vertex 0 5.1 2.5
      vertex 0 8.7 2.5
    endloop
  endfacet
  facet normal 1 -0 0
    outer loop
      vertex 125 0 2.5
      vertex 125 5.1 0
      vertex 125 5.1 2.5
    endloop
  endfacet
  facet normal 1 0 0
    outer loop
      vertex 125 5.1 0
      vertex 125 0 2.5
      vertex 125 0 0
    endloop
  endfacet
  facet normal 0 0 -1
    outer loop
      vertex 0 0 0
      vertex 125 5.1 0
      vertex 125 0 0
    endloop
  endfacet
  facet normal -0 0 -1
    outer loop
      vertex 125 5.1 0
      vertex 0 0 0
      vertex 0 5.1 0
    endloop
  endfacet
  facet normal 0 -1 -0
    outer loop
      vertex 49.3 0 28.5
      vertex 0 0 0
      vertex 62.8 0 27.85
    endloop
  endfacet
  facet normal 0 -1 0
    outer loop
      vertex 62.8 0 27.85
      vertex 125 0 2.5
      vertex 125.592 0 16.8
    endloop
  endfacet
  facet normal 0 -1 0
    outer loop
      vertex 125 0 0
      vertex 62.8 0 27.85
      vertex 0 0 0
    endloop
  endfacet
  facet normal 0 -1 0
    outer loop
      vertex 62.8 0 27.85
      vertex 125 0 0
      vertex 125 0 2.5
    endloop
  endfacet
  facet normal 0 -1 0
    outer loop
      vertex 8.7 0 56
      vertex 18.55 0 62.8
      vertex -2 0 62.8
    endloop
  endfacet
  facet normal 0 -1 0
    outer loop
      vertex 21.1359 0 54.9973
      vertex 18.55 0 62.8
      vertex 19.6723 0 55.743
    endloop
  endfacet
  facet normal 0 -1 0
    outer loop
      vertex 18.55 0 62.8
      vertex 8.7 0 56
      vertex 18.05 0 56
    endloop
  endfacet
  facet normal 0 -1 0
    outer loop
      vertex -2 0 62.8
      vertex 8.7 0 45.5
      vertex 8.7 0 56
    endloop
  endfacet
  facet normal 0 -1 0
    outer loop
      vertex -0.591724 0 16.8
      vertex 18.05 0 45.5
      vertex 8.7 0 45.5
    endloop
  endfacet
  facet normal 0 -1 0
    outer loop
      vertex 18.05 0 45.5
      vertex 46.95 0 34.1
      vertex 62.8 0 34.35
    endloop
  endfacet
  facet normal 0 -1 0
    outer loop
      vertex 62.8 0 34.35
      vertex 46.95 0 34.1
      vertex 61.887 0 34.2054
    endloop
  endfacet
  facet normal 0 -1 0
    outer loop
      vertex 18.05 0 45.5
      vertex 35.65 0 34.1
      vertex 46.95 0 34.1
    endloop
  endfacet
  facet normal 0 -1 0
    outer loop
      vertex 18.05 0 45.5
      vertex 33.3 0 32.7
      vertex 35.65 0 34.1
    endloop
  endfacet
  facet normal 0 -1 0
    outer loop
      vertex 18.05 0 45.5
      vertex 33.3 0 28.5
      vertex 33.3 0 32.7
    endloop
  endfacet
  facet normal 0 -1 0
    outer loop
      vertex 0 0 2.5
      vertex 33.3 0 28.5
      vertex -0.591724 0 16.8
    endloop
  endfacet
  facet normal 0 -1 0
    outer loop
      vertex 49.3 0 28.5
      vertex 61.7957 0 28.0091
      vertex 60.8897 0 28.4707
    endloop
  endfacet
  facet normal 0 -1 0
    outer loop
      vertex 0 0 0
      vertex 33.3 0 28.5
      vertex 0 0 2.5
    endloop
  endfacet
  facet normal 0 -1 -0
    outer loop
      vertex 18.05 0 45.5
      vertex -0.591724 0 16.8
      vertex 33.3 0 28.5
    endloop
  endfacet
  facet normal 0 -1 0
    outer loop
      vertex -0.591724 0 16.8
      vertex 8.7 0 45.5
      vertex -3.95 0 16.9
    endloop
  endfacet
  facet normal 0 -1 0
    outer loop
      vertex -3.95 0 16.9
      vertex 8.7 0 45.5
      vertex -2 0 62.8
    endloop
  endfacet
  facet normal 0 -1 0
    outer loop
      vertex 18.55 0 62.8
      vertex 106.45 0 65.3
      vertex 18.55 0 65.3
    endloop
  endfacet
  facet normal 0 -1 -0
    outer loop
      vertex 106.45 0 65.3
      vertex 18.55 0 62.8
      vertex 106.45 0 62.8
    endloop
  endfacet
  facet normal 0 -1 -0
    outer loop
      vertex 18.55 0 62.8
      vertex 18.05 0 56
      vertex 19.6723 0 55.743
    endloop
  endfacet
  facet normal 0 -1 0
    outer loop
      vertex 22.2973 0 53.8359
      vertex 18.55 0 62.8
      vertex 21.1359 0 54.9973
    endloop
  endfacet
  facet normal 0 -1 0
    outer loop
      vertex 62.8 0 34.35
      vertex 18.55 0 62.8
      vertex 22.2973 0 53.8359
    endloop
  endfacet
  facet normal 0 -1 0
    outer loop
      vertex 18.55 0 62.8
      vertex 62.8 0 34.35
      vertex 106.45 0 62.8
    endloop
  endfacet
  facet normal 0 -1 0
    outer loop
      vertex 62.8 0 34.35
      vertex 22.2973 0 53.8359
      vertex 23.043 0 52.3723
    endloop
  endfacet
  facet normal 0 -1 0
    outer loop
      vertex 62.8 0 34.35
      vertex 23.043 0 52.3723
      vertex 23.3 0 50.75
    endloop
  endfacet
  facet normal 0 -1 0
    outer loop
      vertex 62.8 0 34.35
      vertex 23.3 0 50.75
      vertex 23.043 0 49.1277
    endloop
  endfacet
  facet normal 0 -1 0
    outer loop
      vertex 62.8 0 34.35
      vertex 23.043 0 49.1277
      vertex 22.2973 0 47.6641
    endloop
  endfacet
  facet normal 0 -1 0
    outer loop
      vertex 62.8 0 34.35
      vertex 22.2973 0 47.6641
      vertex 21.1359 0 46.5027
    endloop
  endfacet
  facet normal 0 -1 0
    outer loop
      vertex 62.8 0 34.35
      vertex 21.1359 0 46.5027
      vertex 19.6723 0 45.757
    endloop
  endfacet
  facet normal 0 -1 0
    outer loop
      vertex 62.8 0 34.35
      vertex 19.6723 0 45.757
      vertex 18.05 0 45.5
    endloop
  endfacet
  facet normal 0 -1 0
    outer loop
      vertex 63.713 0 34.2054
      vertex 106.45 0 62.8
      vertex 62.8 0 34.35
    endloop
  endfacet
  facet normal 0 -1 0
    outer loop
      vertex 63.8043 0 34.1909
      vertex 106.45 0 62.8
      vertex 63.713 0 34.2054
    endloop
  endfacet
  facet normal 0 -1 0
    outer loop
      vertex 64.7103 0 33.7293
      vertex 106.45 0 62.8
      vertex 63.8043 0 34.1909
    endloop
  endfacet
  facet normal 0 -1 0
    outer loop
      vertex 65.4293 0 33.0103
      vertex 106.45 0 62.8
      vertex 64.7103 0 33.7293
    endloop
  endfacet
  facet normal 0 -1 0
    outer loop
      vertex 65.8909 0 32.1043
      vertex 106.45 0 62.8
      vertex 65.4293 0 33.0103
    endloop
  endfacet
  facet normal 0 -1 0
    outer loop
      vertex 66.05 0 31.1
      vertex 106.45 0 62.8
      vertex 65.8909 0 32.1043
    endloop
  endfacet
  facet normal 0 -1 -0
    outer loop
      vertex 106.45 0 62.8
      vertex 66.05 0 31.1
      vertex 125.592 0 16.8
    endloop
  endfacet
  facet normal 0 -1 0
    outer loop
      vertex 125.592 0 16.8
      vertex 66.05 0 31.1
      vertex 65.8909 0 30.0957
    endloop
  endfacet
  facet normal 0 -1 0
    outer loop
      vertex 125.592 0 16.8
      vertex 65.8909 0 30.0957
      vertex 65.4293 0 29.1897
    endloop
  endfacet
  facet normal 0 -1 0
    outer loop
      vertex 125.592 0 16.8
      vertex 65.4293 0 29.1897
      vertex 64.7103 0 28.4707
    endloop
  endfacet
  facet normal 0 -1 0
    outer loop
      vertex 49.3 0 28.5
      vertex 62.8 0 27.85
      vertex 61.7957 0 28.0091
    endloop
  endfacet
  facet normal 0 -1 0
    outer loop
      vertex 106.45 0 62.8
      vertex 125.592 0 16.8
      vertex 127 0 62.8
    endloop
  endfacet
  facet normal 0 -1 0
    outer loop
      vertex 125.592 0 16.8
      vertex 64.7103 0 28.4707
      vertex 63.8043 0 28.0091
    endloop
  endfacet
  facet normal 0 -1 -0
    outer loop
      vertex 33.3 0 28.5
      vertex 0 0 0
      vertex 49.3 0 28.5
    endloop
  endfacet
  facet normal 0 -1 0
    outer loop
      vertex -0.591724 0 16.8
      vertex -3.95 0 16.9
      vertex -3.95 0 16.8
    endloop
  endfacet
  facet normal 0 -1 0
    outer loop
      vertex 62.8 0 27.85
      vertex 125.592 0 16.8
      vertex 63.8043 0 28.0091
    endloop
  endfacet
  facet normal 0 -1 -0
    outer loop
      vertex 127 0 62.8
      vertex 125.592 0 16.8
      vertex 128.95 0 16.9
    endloop
  endfacet
  facet normal 0 -1 -0
    outer loop
      vertex 128.95 0 16.9
      vertex 125.592 0 16.8
      vertex 128.95 0 16.8
    endloop
  endfacet
  facet normal 0 -1 0
    outer loop
      vertex 61.887 0 34.2054
      vertex 46.95 0 34.1
      vertex 61.7957 0 34.1909
    endloop
  endfacet
  facet normal 0 -1 0
    outer loop
      vertex 46.95 0 34.1
      vertex 60.8897 0 33.7293
      vertex 61.7957 0 34.1909
    endloop
  endfacet
  facet normal 0 -1 0
    outer loop
      vertex 49.3 0 32.7
      vertex 60.8897 0 33.7293
      vertex 46.95 0 34.1
    endloop
  endfacet
  facet normal 0 -1 0
    outer loop
      vertex 60.8897 0 33.7293
      vertex 49.3 0 32.7
      vertex 60.1707 0 33.0103
    endloop
  endfacet
  facet normal 0 -1 0
    outer loop
      vertex 49.3 0 32.7
      vertex 59.7091 0 32.1043
      vertex 60.1707 0 33.0103
    endloop
  endfacet
  facet normal 0 -1 0
    outer loop
      vertex 49.3 0 32.7
      vertex 59.6946 0 32.013
      vertex 59.7091 0 32.1043
    endloop
  endfacet
  facet normal 0 -1 0
    outer loop
      vertex 49.3 0 32.7
      vertex 59.55 0 31.1
      vertex 59.6946 0 32.013
    endloop
  endfacet
  facet normal 0 -1 0
    outer loop
      vertex 49.3 0 28.5
      vertex 59.55 0 31.1
      vertex 49.3 0 32.7
    endloop
  endfacet
  facet normal 0 -1 -0
    outer loop
      vertex 59.55 0 31.1
      vertex 49.3 0 28.5
      vertex 59.5645 0 31.0087
    endloop
  endfacet
  facet normal 0 -1 -0
    outer loop
      vertex 59.5645 0 31.0087
      vertex 49.3 0 28.5
      vertex 59.7091 0 30.0957
    endloop
  endfacet
  facet normal 0 -1 -0
    outer loop
      vertex 59.7091 0 30.0957
      vertex 49.3 0 28.5
      vertex 60.1707 0 29.1897
    endloop
  endfacet
  facet normal 0 -1 -0
    outer loop
      vertex 60.1707 0 29.1897
      vertex 49.3 0 28.5
      vertex 60.8897 0 28.4707
    endloop
  endfacet
  facet normal 0 1 -0
    outer loop
      vertex 125 5.1 0
      vertex 0 5.1 2.5
      vertex 125 5.1 2.5
    endloop
  endfacet
  facet normal 0 1 0
    outer loop
      vertex 0 5.1 2.5
      vertex 125 5.1 0
      vertex 0 5.1 0
    endloop
  endfacet
  facet normal 0 0.999406 -0.0344623
    outer loop
      vertex 125.6 9.2 17
      vertex 112.4 8.83793 6.5
      vertex 112.4 9.2 17
    endloop
  endfacet
  facet normal -1.28729e-008 0.999406 -0.0344623
    outer loop
      vertex 125 8.7 2.5
      vertex 112.4 8.83793 6.5
      vertex 125.6 9.2 17
    endloop
  endfacet
  facet normal 3.41204e-007 0.999406 -0.0344612
    outer loop
      vertex 112.4 8.83793 6.5
      vertex 125 8.7 2.5
      vertex 112.351 8.82728 6.19098
    endloop
  endfacet
  facet normal -2.85921e-007 0.999406 -0.0344633
    outer loop
      vertex 112.351 8.82728 6.19098
      vertex 125 8.7 2.5
      vertex 112.209 8.81766 5.91221
    endloop
  endfacet
  facet normal 0 0.999406 -0.0344622
    outer loop
      vertex 111.4 8.80345 5.5
      vertex 125 8.7 2.5
      vertex 13.6 8.80345 5.5
    endloop
  endfacet
  facet normal -6.30184e-007 0.999406 -0.034465
    outer loop
      vertex 111.709 8.80514 5.54894
      vertex 125 8.7 2.5
      vertex 111.4 8.80345 5.5
    endloop
  endfacet
  facet normal -1.48108e-007 0.999406 -0.0344629
    outer loop
      vertex 111.988 8.81003 5.69098
      vertex 125 8.7 2.5
      vertex 111.709 8.80514 5.54894
    endloop
  endfacet
  facet normal 2.1088e-007 0.999406 -0.0344614
    outer loop
      vertex 112.209 8.81766 5.91221
      vertex 125 8.7 2.5
      vertex 111.988 8.81003 5.69098
    endloop
  endfacet
  facet normal 0 0.999406 -0.0344623
    outer loop
      vertex 12.6 8.83793 6.5
      vertex -0.599999 9.2 17
      vertex 12.6 9.2 17
    endloop
  endfacet
  facet normal -2.51964e-007 0.999406 -0.0344614
    outer loop
      vertex 0 8.7 2.5
      vertex 12.6 8.83793 6.5
      vertex 12.6359 8.83012 6.27349
    endloop
  endfacet
  facet normal -5.14877e-007 0.999406 -0.0344606
    outer loop
      vertex 0 8.7 2.5
      vertex 12.6359 8.83012 6.27349
      vertex 12.6489 8.82728 6.19098
    endloop
  endfacet
  facet normal 2.85922e-007 0.999406 -0.0344633
    outer loop
      vertex 0 8.7 2.5
      vertex 12.6489 8.82728 6.19098
      vertex 12.791 8.81766 5.91221
    endloop
  endfacet
  facet normal -2.1088e-007 0.999406 -0.0344614
    outer loop
      vertex 0 8.7 2.5
      vertex 12.791 8.81766 5.91221
      vertex 13.0122 8.81003 5.69098
    endloop
  endfacet
  facet normal 1.15856e-008 0.999406 -0.0344623
    outer loop
      vertex 12.6 8.83793 6.5
      vertex 0 8.7 2.5
      vertex -0.599999 9.2 17
    endloop
  endfacet
  facet normal 1.48108e-007 0.999406 -0.0344629
    outer loop
      vertex 13.291 8.80514 5.54894
      vertex 0 8.7 2.5
      vertex 13.0122 8.81003 5.69098
    endloop
  endfacet
  facet normal 6.30179e-007 0.999406 -0.034465
    outer loop
      vertex 13.6 8.80345 5.5
      vertex 0 8.7 2.5
      vertex 13.291 8.80514 5.54894
    endloop
  endfacet
  facet normal 0 0.999406 -0.0344622
    outer loop
      vertex 0 8.7 2.5
      vertex 13.6 8.80345 5.5
      vertex 125 8.7 2.5
    endloop
  endfacet
  facet normal 1 0 0
    outer loop
      vertex 125.6 9.2 17.1
      vertex 125.6 5.09564 17
      vertex 125.6 9.2 17
    endloop
  endfacet
  facet normal 1 0 -0
    outer loop
      vertex 125.6 5.09564 17
      vertex 125.6 9.2 17.1
      vertex 125.6 5.09128 17.1
    endloop
  endfacet
  facet normal -0.999145 0 -0.0413439
    outer loop
      vertex 0 0 2.5
      vertex -0.591724 5.1 16.8
      vertex 0 5.1 2.5
    endloop
  endfacet
  facet normal -0.999145 -0 -0.0413439
    outer loop
      vertex -0.591724 5.1 16.8
      vertex 0 0 2.5
      vertex -0.591724 0 16.8
    endloop
  endfacet
  facet normal -0.999145 0 -0.0413439
    outer loop
      vertex -0.591724 5.1 16.8
      vertex 0 8.7 2.5
      vertex 0 5.1 2.5
    endloop
  endfacet
  facet normal -0.999145 4.69605e-009 -0.0413439
    outer loop
      vertex 0 8.7 2.5
      vertex -0.591724 5.1 16.8
      vertex -0.599999 9.2 17
    endloop
  endfacet
  facet normal -0.999145 0 -0.0413438
    outer loop
      vertex -0.595861 5.1 16.9
      vertex -0.599999 9.2 17
      vertex -0.591724 5.1 16.8
    endloop
  endfacet
  facet normal -0.999145 -0 -0.0413438
    outer loop
      vertex -0.599999 9.2 17
      vertex -0.595861 5.1 16.9
      vertex -0.599999 5.09564 17
    endloop
  endfacet
  facet normal -1 0 0
    outer loop
      vertex -0.599999 5.09564 17
      vertex -0.599999 9.2 17.1
      vertex -0.599999 9.2 17
    endloop
  endfacet
  facet normal -1 -0 0
    outer loop
      vertex -0.599999 9.2 17.1
      vertex -0.599999 5.09564 17
      vertex -0.599999 5.09128 17.1
    endloop
  endfacet
  facet normal 0 1 -0
    outer loop
      vertex 12.6 9.2 17
      vertex -0.599999 9.2 17.1
      vertex 12.6 9.2 17.1
    endloop
  endfacet
  facet normal 0 1 0
    outer loop
      vertex -0.599999 9.2 17.1
      vertex 12.6 9.2 17
      vertex -0.599999 9.2 17
    endloop
  endfacet
  facet normal 0 1 -0
    outer loop
      vertex 125.6 9.2 17
      vertex 112.4 9.2 17.1
      vertex 125.6 9.2 17.1
    endloop
  endfacet
  facet normal 0 1 0
    outer loop
      vertex 112.4 9.2 17.1
      vertex 125.6 9.2 17
      vertex 112.4 9.2 17
    endloop
  endfacet
  facet normal 0.999143 1.85923e-006 -0.041392
    outer loop
      vertex 125.592 5.1 16.8
      vertex 125.6 9.2 17
      vertex 125.596 5.1 16.9
    endloop
  endfacet
  facet normal 0.999146 0 -0.0413159
    outer loop
      vertex 125.596 5.1 16.9
      vertex 125.6 9.2 17
      vertex 125.6 5.09564 17
    endloop
  endfacet
  facet normal 0.999145 -4.93207e-007 -0.0413438
    outer loop
      vertex 125.6 9.2 17
      vertex 125.592 5.1 16.8
      vertex 125 8.7 2.5
    endloop
  endfacet
  facet normal 0.999145 0 -0.0413437
    outer loop
      vertex 125.592 5.1 16.8
      vertex 125 5.1 2.5
      vertex 125 8.7 2.5
    endloop
  endfacet
  facet normal 0.999145 0 -0.0413437
    outer loop
      vertex 125.592 0 16.8
      vertex 125 5.1 2.5
      vertex 125.592 5.1 16.8
    endloop
  endfacet
  facet normal 0.999145 0 -0.0413437
    outer loop
      vertex 125 5.1 2.5
      vertex 125.592 0 16.8
      vertex 125 0 2.5
    endloop
  endfacet
  facet normal 0 0 1
    outer loop
      vertex 123.4 6.1 62.8
      vertex 106.45 3.8 62.8
      vertex 123.4 3.1 62.8
    endloop
  endfacet
  facet normal 0 0 1
    outer loop
      vertex 123.4 6.1 62.8
      vertex 18.55 3.8 62.8
      vertex 106.45 3.8 62.8
    endloop
  endfacet
  facet normal -0 0 1
    outer loop
      vertex 1.6 6.1 62.8
      vertex 18.55 3.8 62.8
      vertex 123.4 6.1 62.8
    endloop
  endfacet
  facet normal 0 0 1
    outer loop
      vertex 1.6 3.1 62.8
      vertex 18.55 3.8 62.8
      vertex 1.6 6.1 62.8
    endloop
  endfacet
  facet normal 0 0 1
    outer loop
      vertex 18.55 3.8 62.8
      vertex 1.6 3.1 62.8
      vertex 18.55 0 62.8
    endloop
  endfacet
  facet normal 0 0 1
    outer loop
      vertex -2 0 62.8
      vertex 1.6 3.1 62.8
      vertex -2 3.1 62.8
    endloop
  endfacet
  facet normal 0 0 1
    outer loop
      vertex 1.6 3.1 62.8
      vertex -2 0 62.8
      vertex 18.55 0 62.8
    endloop
  endfacet
  facet normal -0 0 1
    outer loop
      vertex 123.4 3.1 62.8
      vertex 127 0 62.8
      vertex 127 3.1 62.8
    endloop
  endfacet
  facet normal 0 0 1
    outer loop
      vertex 106.45 0 62.8
      vertex 123.4 3.1 62.8
      vertex 106.45 3.8 62.8
    endloop
  endfacet
  facet normal 0 0 1
    outer loop
      vertex 123.4 3.1 62.8
      vertex 106.45 0 62.8
      vertex 127 0 62.8
    endloop
  endfacet
  facet normal 0.998843 0 0.0480843
    outer loop
      vertex 123.4 6.1 62.8
      vertex 125.6 5.09128 17.1
      vertex 125.6 9.2 17.1
    endloop
  endfacet
  facet normal 0.998843 0 0.0480843
    outer loop
      vertex 125.6 5.09128 17.1
      vertex 123.4 6.1 62.8
      vertex 123.4 3.1 62.8
    endloop
  endfacet
  facet normal -0.998843 0 0.0480843
    outer loop
      vertex -0.599999 5.09128 17.1
      vertex 1.6 6.1 62.8
      vertex -0.599999 9.2 17.1
    endloop
  endfacet
  facet normal -0.998843 0 0.0480843
    outer loop
      vertex 1.6 6.1 62.8
      vertex -0.599999 5.09128 17.1
      vertex 1.6 3.1 62.8
    endloop
  endfacet
  facet normal 0 0.997707 0.0676782
    outer loop
      vertex 19.6723 6.5787 55.743
      vertex 1.6 6.1 62.8
      vertex 123.4 6.1 62.8
    endloop
  endfacet
  facet normal 3.34209e-007 0.997707 0.067679
    outer loop
      vertex 1.6 6.1 62.8
      vertex 19.6723 6.5787 55.743
      vertex 18.05 6.56127 56
    endloop
  endfacet
  facet normal -1.26621e-008 0.997707 0.0676783
    outer loop
      vertex 123.4 6.1 62.8
      vertex 21.1359 6.62928 54.9973
      vertex 19.6723 6.5787 55.743
    endloop
  endfacet
  facet normal 5.40563e-009 0.997707 0.0676781
    outer loop
      vertex 123.4 6.1 62.8
      vertex 22.2973 6.70807 53.8359
      vertex 21.1359 6.62928 54.9973
    endloop
  endfacet
  facet normal -3.64855e-010 0.997707 0.0676782
    outer loop
      vertex 111.4 7.53129 41.7
      vertex 22.2973 6.70807 53.8359
      vertex 123.4 6.1 62.8
    endloop
  endfacet
  facet normal -9.28472e-010 0.997707 0.0676782
    outer loop
      vertex 22.2973 6.70807 53.8359
      vertex 111.4 7.53129 41.7
      vertex 23.043 6.80735 52.3723
    endloop
  endfacet
  facet normal 6.55832e-009 0.997707 0.0676782
    outer loop
      vertex 23.043 6.80735 52.3723
      vertex 111.4 7.53129 41.7
      vertex 23.3 6.9174 50.75
    endloop
  endfacet
  facet normal 6.34833e-009 0.997707 0.0676782
    outer loop
      vertex 23.3 6.9174 50.75
      vertex 111.4 7.53129 41.7
      vertex 23.043 7.02744 49.1277
    endloop
  endfacet
  facet normal 1.29392e-009 0.997707 0.0676782
    outer loop
      vertex 23.043 7.02744 49.1277
      vertex 111.4 7.53129 41.7
      vertex 22.2973 7.12672 47.6641
    endloop
  endfacet
  facet normal -2.93815e-009 0.997707 0.0676781
    outer loop
      vertex 22.2973 7.12672 47.6641
      vertex 111.4 7.53129 41.7
      vertex 21.1359 7.20551 46.5027
    endloop
  endfacet
  facet normal -2.52834e-007 0.997707 0.0676785
    outer loop
      vertex 19.6723 7.25609 45.757
      vertex 13.6 7.53129 41.7
      vertex 18.05 7.27352 45.5
    endloop
  endfacet
  facet normal 5.30866e-007 0.997707 0.0676773
    outer loop
      vertex 21.1359 7.20551 46.5027
      vertex 13.6 7.53129 41.7
      vertex 19.6723 7.25609 45.757
    endloop
  endfacet
  facet normal -0 0.997707 0.0676782
    outer loop
      vertex 13.6 7.53129 41.7
      vertex 21.1359 7.20551 46.5027
      vertex 111.4 7.53129 41.7
    endloop
  endfacet
  facet normal -8.04542e-009 0.997707 0.0676782
    outer loop
      vertex 123.4 6.1 62.8
      vertex 111.709 7.53461 41.6511
      vertex 111.4 7.53129 41.7
    endloop
  endfacet
  facet normal -3.17098e-007 0.997707 0.0676784
    outer loop
      vertex 123.4 6.1 62.8
      vertex 111.988 7.54425 41.509
      vertex 111.709 7.53461 41.6511
    endloop
  endfacet
  facet normal 1.80596e-007 0.997707 0.0676781
    outer loop
      vertex 123.4 6.1 62.8
      vertex 112.209 7.55925 41.2878
      vertex 111.988 7.54425 41.509
    endloop
  endfacet
  facet normal -5.4413e-007 0.997707 0.0676785
    outer loop
      vertex 123.4 6.1 62.8
      vertex 112.351 7.57816 41.009
      vertex 112.209 7.55925 41.2878
    endloop
  endfacet
  facet normal 1.08355e-007 0.997707 0.0676781
    outer loop
      vertex 123.4 6.1 62.8
      vertex 112.4 7.59912 40.7
      vertex 112.351 7.57816 41.009
    endloop
  endfacet
  facet normal 1.83099e-008 0.997707 0.0676782
    outer loop
      vertex 125.6 9.2 17.1
      vertex 112.4 7.59912 40.7
      vertex 123.4 6.1 62.8
    endloop
  endfacet
  facet normal 0 0.997707 0.0676782
    outer loop
      vertex 112.4 7.59912 40.7
      vertex 125.6 9.2 17.1
      vertex 112.4 9.2 17.1
    endloop
  endfacet
  facet normal -0 0.997707 0.0676782
    outer loop
      vertex 8.7 6.56127 56
      vertex 1.6 6.1 62.8
      vertex 18.05 6.56127 56
    endloop
  endfacet
  facet normal -6.343e-008 0.997707 0.0676781
    outer loop
      vertex 8.7 7.27352 45.5
      vertex 1.6 6.1 62.8
      vertex 8.7 6.56127 56
    endloop
  endfacet
  facet normal 0 0.997707 0.0676782
    outer loop
      vertex 18.05 7.27352 45.5
      vertex 13.6 7.53129 41.7
      vertex 8.7 7.27352 45.5
    endloop
  endfacet
  facet normal 3.0955e-009 0.997707 0.0676782
    outer loop
      vertex 13.291 7.53461 41.6511
      vertex 8.7 7.27352 45.5
      vertex 13.6 7.53129 41.7
    endloop
  endfacet
  facet normal 2.42642e-007 0.997707 0.0676785
    outer loop
      vertex 13.0122 7.54425 41.509
      vertex 8.7 7.27352 45.5
      vertex 13.291 7.53461 41.6511
    endloop
  endfacet
  facet normal -1.59255e-007 0.997707 0.0676781
    outer loop
      vertex 12.791 7.55925 41.2878
      vertex 8.7 7.27352 45.5
      vertex 13.0122 7.54425 41.509
    endloop
  endfacet
  facet normal 3.51808e-007 0.997707 0.0676786
    outer loop
      vertex 12.6489 7.57816 41.009
      vertex 8.7 7.27352 45.5
      vertex 12.791 7.55925 41.2878
    endloop
  endfacet
  facet normal -1.31691e-007 0.997707 0.0676781
    outer loop
      vertex 12.6 7.59912 40.7
      vertex 8.7 7.27352 45.5
      vertex 12.6489 7.57816 41.009
    endloop
  endfacet
  facet normal -0 0.997707 0.0676782
    outer loop
      vertex -0.599999 9.2 17.1
      vertex 12.6 7.59912 40.7
      vertex 12.6 9.2 17.1
    endloop
  endfacet
  facet normal -5.5486e-008 0.997707 0.0676782
    outer loop
      vertex 12.6 7.59912 40.7
      vertex -0.599999 9.2 17.1
      vertex 8.7 7.27352 45.5
    endloop
  endfacet
  facet normal 1.25486e-008 0.997707 0.0676782
    outer loop
      vertex 8.7 7.27352 45.5
      vertex -0.599999 9.2 17.1
      vertex 1.6 6.1 62.8
    endloop
  endfacet
  facet normal -1 0 0
    outer loop
      vertex 18.55 0 62.8
      vertex 18.55 3.8 65.3
      vertex 18.55 3.8 62.8
    endloop
  endfacet
  facet normal -1 -0 0
    outer loop
      vertex 18.55 3.8 65.3
      vertex 18.55 0 62.8
      vertex 18.55 0 65.3
    endloop
  endfacet
  facet normal -0 0 1
    outer loop
      vertex 18.55 3.8 65.3
      vertex 106.45 0 65.3
      vertex 106.45 3.8 65.3
    endloop
  endfacet
  facet normal 0 0 1
    outer loop
      vertex 106.45 0 65.3
      vertex 18.55 3.8 65.3
      vertex 18.55 0 65.3
    endloop
  endfacet
  facet normal 1 -0 0
    outer loop
      vertex 106.45 0 65.3
      vertex 106.45 3.8 62.8
      vertex 106.45 3.8 65.3
    endloop
  endfacet
  facet normal 1 0 0
    outer loop
      vertex 106.45 3.8 62.8
      vertex 106.45 0 65.3
      vertex 106.45 0 62.8
    endloop
  endfacet
  facet normal 0 1 -0
    outer loop
      vertex 106.45 3.8 62.8
      vertex 18.55 3.8 65.3
      vertex 106.45 3.8 65.3
    endloop
  endfacet
  facet normal 0 1 0
    outer loop
      vertex 18.55 3.8 65.3
      vertex 106.45 3.8 62.8
      vertex 18.55 3.8 62.8
    endloop
  endfacet
  facet normal -1 0 0
    outer loop
      vertex -3.95 0 16.8
      vertex -3.95 5.1 16.9
      vertex -3.95 5.1 16.8
    endloop
  endfacet
  facet normal -1 -0 0
    outer loop
      vertex -3.95 5.1 16.9
      vertex -3.95 0 16.8
      vertex -3.95 0 16.9
    endloop
  endfacet
  facet normal 0 0 -1
    outer loop
      vertex -3.95 0 16.8
      vertex -0.591724 5.1 16.8
      vertex -0.591724 0 16.8
    endloop
  endfacet
  facet normal -0 0 -1
    outer loop
      vertex -0.591724 5.1 16.8
      vertex -3.95 0 16.8
      vertex -3.95 5.1 16.8
    endloop
  endfacet
  facet normal 0 0 -1
    outer loop
      vertex 125.592 0 16.8
      vertex 128.95 5.1 16.8
      vertex 128.95 0 16.8
    endloop
  endfacet
  facet normal -0 0 -1
    outer loop
      vertex 128.95 5.1 16.8
      vertex 125.592 0 16.8
      vertex 125.592 5.1 16.8
    endloop
  endfacet
  facet normal 0.999099 0 0.0424453
    outer loop
      vertex 128.95 0 16.9
      vertex 127 3.1 62.8
      vertex 127 0 62.8
    endloop
  endfacet
  facet normal 0.999099 0 0.0424453
    outer loop
      vertex 127 3.1 62.8
      vertex 128.95 0 16.9
      vertex 128.95 5.1 16.9
    endloop
  endfacet
  facet normal 1 -0 0
    outer loop
      vertex 128.95 0 16.9
      vertex 128.95 5.1 16.8
      vertex 128.95 5.1 16.9
    endloop
  endfacet
  facet normal 1 0 0
    outer loop
      vertex 128.95 5.1 16.8
      vertex 128.95 0 16.9
      vertex 128.95 0 16.8
    endloop
  endfacet
  facet normal -0.999099 0 0.0424454
    outer loop
      vertex -3.95 0 16.9
      vertex -2 3.1 62.8
      vertex -3.95 5.1 16.9
    endloop
  endfacet
  facet normal -0.999099 0 0.0424454
    outer loop
      vertex -2 3.1 62.8
      vertex -3.95 0 16.9
      vertex -2 0 62.8
    endloop
  endfacet
  facet normal 0 1 0
    outer loop
      vertex -3.95 5.1 16.8
      vertex -0.595861 5.1 16.9
      vertex -0.591724 5.1 16.8
    endloop
  endfacet
  facet normal 0 1 0
    outer loop
      vertex -0.595861 5.1 16.9
      vertex -3.95 5.1 16.8
      vertex -3.95 5.1 16.9
    endloop
  endfacet
  facet normal 0 1 -0
    outer loop
      vertex 128.95 5.1 16.8
      vertex 125.596 5.1 16.9
      vertex 128.95 5.1 16.9
    endloop
  endfacet
  facet normal 0 1 0
    outer loop
      vertex 125.596 5.1 16.9
      vertex 128.95 5.1 16.8
      vertex 125.592 5.1 16.8
    endloop
  endfacet
  facet normal 0 0.999052 0.0435317
    outer loop
      vertex 127 3.1 62.8
      vertex 125.6 5.09128 17.1
      vertex 123.4 3.1 62.8
    endloop
  endfacet
  facet normal -3.8493e-008 0.999052 0.0435317
    outer loop
      vertex 128.95 5.1 16.9
      vertex 125.6 5.09128 17.1
      vertex 127 3.1 62.8
    endloop
  endfacet
  facet normal 2.47857e-008 0.999052 0.0435327
    outer loop
      vertex 125.6 5.09128 17.1
      vertex 128.95 5.1 16.9
      vertex 125.6 5.09564 17
    endloop
  endfacet
  facet normal 0 0.999052 0.0435319
    outer loop
      vertex 125.6 5.09564 17
      vertex 128.95 5.1 16.9
      vertex 125.596 5.1 16.9
    endloop
  endfacet
  facet normal 0 0.999052 0.0435317
    outer loop
      vertex -0.599999 5.09128 17.1
      vertex -2 3.1 62.8
      vertex 1.6 3.1 62.8
    endloop
  endfacet
  facet normal -2.47857e-008 0.999052 0.0435327
    outer loop
      vertex -3.95 5.1 16.9
      vertex -0.599999 5.09128 17.1
      vertex -0.599999 5.09564 17
    endloop
  endfacet
  facet normal 3.84929e-008 0.999052 0.0435317
    outer loop
      vertex -0.599999 5.09128 17.1
      vertex -3.95 5.1 16.9
      vertex -2 3.1 62.8
    endloop
  endfacet
  facet normal -0 0.999052 0.0435319
    outer loop
      vertex -3.95 5.1 16.9
      vertex -0.599999 5.09564 17
      vertex -0.595861 5.1 16.9
    endloop
  endfacet
  facet normal -0.511805 0 -0.859102
    outer loop
      vertex 46.95 0 34.1
      vertex 49.3 1.5 32.7
      vertex 49.3 0 32.7
    endloop
  endfacet
  facet normal -0.511805 0 -0.859102
    outer loop
      vertex 49.3 1.5 32.7
      vertex 46.95 0 34.1
      vertex 46.95 1.5 34.1
    endloop
  endfacet
  facet normal -0 0 1
    outer loop
      vertex 33.3 1.5 28.5
      vertex 49.3 0 28.5
      vertex 49.3 1.5 28.5
    endloop
  endfacet
  facet normal 0 0 1
    outer loop
      vertex 49.3 0 28.5
      vertex 33.3 1.5 28.5
      vertex 33.3 0 28.5
    endloop
  endfacet
  facet normal 0 0 -1
    outer loop
      vertex 35.65 0 34.1
      vertex 46.95 1.5 34.1
      vertex 46.95 0 34.1
    endloop
  endfacet
  facet normal -0 0 -1
    outer loop
      vertex 46.95 1.5 34.1
      vertex 35.65 0 34.1
      vertex 35.65 1.5 34.1
    endloop
  endfacet
  facet normal -1 0 0
    outer loop
      vertex 49.3 0 28.5
      vertex 49.3 1.5 32.7
      vertex 49.3 1.5 28.5
    endloop
  endfacet
  facet normal -1 -0 0
    outer loop
      vertex 49.3 1.5 32.7
      vertex 49.3 0 28.5
      vertex 49.3 0 32.7
    endloop
  endfacet
  facet normal 1 -0 0
    outer loop
      vertex 33.3 0 32.7
      vertex 33.3 1.5 28.5
      vertex 33.3 1.5 32.7
    endloop
  endfacet
  facet normal 1 0 0
    outer loop
      vertex 33.3 1.5 28.5
      vertex 33.3 0 32.7
      vertex 33.3 0 28.5
    endloop
  endfacet
  facet normal 0.511805 0 -0.859102
    outer loop
      vertex 33.3 0 32.7
      vertex 35.65 1.5 34.1
      vertex 35.65 0 34.1
    endloop
  endfacet
  facet normal 0.511805 0 -0.859102
    outer loop
      vertex 35.65 1.5 34.1
      vertex 33.3 0 32.7
      vertex 33.3 1.5 32.7
    endloop
  endfacet
  facet normal -0.987687 0 -0.156441
    outer loop
      vertex 66.05 0 31.1
      vertex 65.8909 1.5 32.1043
      vertex 66.05 1.5 31.1
    endloop
  endfacet
  facet normal -0.987687 -0 -0.156441
    outer loop
      vertex 65.8909 1.5 32.1043
      vertex 66.05 0 31.1
      vertex 65.8909 0 32.1043
    endloop
  endfacet
  facet normal 0.987689 2.15102e-007 0.156432
    outer loop
      vertex 59.7091 0 30.0957
      vertex 59.5862 1.5 30.8717
      vertex 59.5645 0 31.0087
    endloop
  endfacet
  facet normal 0.987689 0 0.156433
    outer loop
      vertex 59.5862 1.5 30.8717
      vertex 59.7091 0 30.0957
      vertex 59.7091 1.5 30.0957
    endloop
  endfacet
  facet normal 0.156444 0 -0.987687
    outer loop
      vertex 61.7957 1.5 34.1909
      vertex 61.887 0 34.2054
      vertex 61.7957 0 34.1909
    endloop
  endfacet
  facet normal 0.156436 -5.02364e-007 -0.987688
    outer loop
      vertex 61.887 0 34.2054
      vertex 61.7957 1.5 34.1909
      vertex 62.0239 1.5 34.2271
    endloop
  endfacet
  facet normal -0.156435 0 0.987688
    outer loop
      vertex 62.8 1.5 27.85
      vertex 63.8043 0 28.0091
      vertex 63.8043 1.5 28.0091
    endloop
  endfacet
  facet normal -0.156435 0 0.987688
    outer loop
      vertex 63.8043 0 28.0091
      vertex 62.8 1.5 27.85
      vertex 62.8 0 27.85
    endloop
  endfacet
  facet normal -0.45399 0 0.891007
    outer loop
      vertex 63.8043 1.5 28.0091
      vertex 64.7103 0 28.4707
      vertex 64.7103 1.5 28.4707
    endloop
  endfacet
  facet normal -0.45399 0 0.891007
    outer loop
      vertex 64.7103 0 28.4707
      vertex 63.8043 1.5 28.0091
      vertex 63.8043 0 28.0091
    endloop
  endfacet
  facet normal -0.707107 0 -0.707107
    outer loop
      vertex 65.4293 0 33.0103
      vertex 64.7103 1.5 33.7293
      vertex 65.4293 1.5 33.0103
    endloop
  endfacet
  facet normal -0.707107 -0 -0.707107
    outer loop
      vertex 64.7103 1.5 33.7293
      vertex 65.4293 0 33.0103
      vertex 64.7103 0 33.7293
    endloop
  endfacet
  facet normal -0.891009 0 -0.453987
    outer loop
      vertex 65.8909 0 32.1043
      vertex 65.4293 1.5 33.0103
      vertex 65.8909 1.5 32.1043
    endloop
  endfacet
  facet normal -0.891009 -0 -0.453987
    outer loop
      vertex 65.4293 1.5 33.0103
      vertex 65.8909 0 32.1043
      vertex 65.4293 0 33.0103
    endloop
  endfacet
  facet normal 0.707105 0 -0.707109
    outer loop
      vertex 60.1707 0 33.0103
      vertex 60.8897 1.5 33.7293
      vertex 60.8897 0 33.7293
    endloop
  endfacet
  facet normal 0.707105 0 -0.707109
    outer loop
      vertex 60.8897 1.5 33.7293
      vertex 60.1707 0 33.0103
      vertex 60.1707 1.5 33.0103
    endloop
  endfacet
  facet normal 0.453991 0 -0.891006
    outer loop
      vertex 60.8897 0 33.7293
      vertex 61.7957 1.5 34.1909
      vertex 61.7957 0 34.1909
    endloop
  endfacet
  facet normal 0.453991 0 -0.891006
    outer loop
      vertex 61.7957 1.5 34.1909
      vertex 60.8897 0 33.7293
      vertex 60.8897 1.5 33.7293
    endloop
  endfacet
  facet normal 0.156433 0 -0.987689
    outer loop
      vertex 62.8 0 34.35
      vertex 62.0239 1.5 34.2271
      vertex 62.8 1.5 34.35
    endloop
  endfacet
  facet normal 0.156432 -1.85265e-007 -0.987689
    outer loop
      vertex 62.0239 1.5 34.2271
      vertex 62.8 0 34.35
      vertex 61.887 0 34.2054
    endloop
  endfacet
  facet normal -0.156444 0 -0.987687
    outer loop
      vertex 63.713 0 34.2054
      vertex 63.8043 1.5 34.1909
      vertex 63.8043 0 34.1909
    endloop
  endfacet
  facet normal -0.156436 -5.02364e-007 -0.987688
    outer loop
      vertex 63.8043 1.5 34.1909
      vertex 63.713 0 34.2054
      vertex 63.5761 1.5 34.2271
    endloop
  endfacet
  facet normal -0.45399 0 -0.891007
    outer loop
      vertex 63.8043 0 34.1909
      vertex 64.7103 1.5 33.7293
      vertex 64.7103 0 33.7293
    endloop
  endfacet
  facet normal -0.45399 0 -0.891007
    outer loop
      vertex 64.7103 1.5 33.7293
      vertex 63.8043 0 34.1909
      vertex 63.8043 1.5 34.1909
    endloop
  endfacet
  facet normal 0.987688 -3.92958e-007 -0.156437
    outer loop
      vertex 59.55 0 31.1
      vertex 59.6729 1.5 31.8761
      vertex 59.6946 0 32.013
    endloop
  endfacet
  facet normal 0.987688 0 -0.156437
    outer loop
      vertex 59.6729 1.5 31.8761
      vertex 59.55 0 31.1
      vertex 59.55 1.5 31.1
    endloop
  endfacet
  facet normal 0.987687 0 0.156444
    outer loop
      vertex 59.5645 0 31.0087
      vertex 59.55 1.5 31.1
      vertex 59.55 0 31.1
    endloop
  endfacet
  facet normal 0.987688 5.02364e-007 0.156436
    outer loop
      vertex 59.55 1.5 31.1
      vertex 59.5645 0 31.0087
      vertex 59.5862 1.5 30.8717
    endloop
  endfacet
  facet normal 0.891007 0 -0.45399
    outer loop
      vertex 60.1707 0 33.0103
      vertex 59.7091 1.5 32.1043
      vertex 60.1707 1.5 33.0103
    endloop
  endfacet
  facet normal 0.891007 0 -0.45399
    outer loop
      vertex 59.7091 1.5 32.1043
      vertex 60.1707 0 33.0103
      vertex 59.7091 0 32.1043
    endloop
  endfacet
  facet normal 0.891007 -0 0.45399
    outer loop
      vertex 59.7091 0 30.0957
      vertex 60.1707 1.5 29.1897
      vertex 59.7091 1.5 30.0957
    endloop
  endfacet
  facet normal 0.891007 0 0.45399
    outer loop
      vertex 60.1707 1.5 29.1897
      vertex 59.7091 0 30.0957
      vertex 60.1707 0 29.1897
    endloop
  endfacet
  facet normal -0.707108 0 0.707106
    outer loop
      vertex 64.7103 0 28.4707
      vertex 65.4293 1.5 29.1897
      vertex 64.7103 1.5 28.4707
    endloop
  endfacet
  facet normal -0.707108 0 0.707106
    outer loop
      vertex 65.4293 1.5 29.1897
      vertex 64.7103 0 28.4707
      vertex 65.4293 0 29.1897
    endloop
  endfacet
  facet normal -0.891008 0 0.453987
    outer loop
      vertex 65.4293 0 29.1897
      vertex 65.8909 1.5 30.0957
      vertex 65.4293 1.5 29.1897
    endloop
  endfacet
  facet normal -0.891008 0 0.453987
    outer loop
      vertex 65.8909 1.5 30.0957
      vertex 65.4293 0 29.1897
      vertex 65.8909 0 30.0957
    endloop
  endfacet
  facet normal -0.156432 -1.85265e-007 -0.987689
    outer loop
      vertex 62.8 0 34.35
      vertex 63.5761 1.5 34.2271
      vertex 63.713 0 34.2054
    endloop
  endfacet
  facet normal -0.156433 0 -0.987689
    outer loop
      vertex 63.5761 1.5 34.2271
      vertex 62.8 0 34.35
      vertex 62.8 1.5 34.35
    endloop
  endfacet
  facet normal 0.987693 0 -0.156403
    outer loop
      vertex 59.6946 0 32.013
      vertex 59.7091 1.5 32.1043
      vertex 59.7091 0 32.1043
    endloop
  endfacet
  facet normal 0.987691 1.08429e-006 -0.156421
    outer loop
      vertex 59.7091 1.5 32.1043
      vertex 59.6946 0 32.013
      vertex 59.6729 1.5 31.8761
    endloop
  endfacet
  facet normal 0.453991 0 0.891006
    outer loop
      vertex 60.8897 1.5 28.4707
      vertex 61.7957 0 28.0091
      vertex 61.7957 1.5 28.0091
    endloop
  endfacet
  facet normal 0.453991 0 0.891006
    outer loop
      vertex 61.7957 0 28.0091
      vertex 60.8897 1.5 28.4707
      vertex 60.8897 0 28.4707
    endloop
  endfacet
  facet normal 0.707106 0 0.707108
    outer loop
      vertex 60.1707 1.5 29.1897
      vertex 60.8897 0 28.4707
      vertex 60.8897 1.5 28.4707
    endloop
  endfacet
  facet normal 0.707106 0 0.707108
    outer loop
      vertex 60.8897 0 28.4707
      vertex 60.1707 1.5 29.1897
      vertex 60.1707 0 29.1897
    endloop
  endfacet
  facet normal -0.987687 0 0.156441
    outer loop
      vertex 65.8909 0 30.0957
      vertex 66.05 1.5 31.1
      vertex 65.8909 1.5 30.0957
    endloop
  endfacet
  facet normal -0.987687 0 0.156441
    outer loop
      vertex 66.05 1.5 31.1
      vertex 65.8909 0 30.0957
      vertex 66.05 0 31.1
    endloop
  endfacet
  facet normal 0.156435 0 0.987688
    outer loop
      vertex 61.7957 1.5 28.0091
      vertex 62.8 0 27.85
      vertex 62.8 1.5 27.85
    endloop
  endfacet
  facet normal 0.156435 0 0.987688
    outer loop
      vertex 62.8 0 27.85
      vertex 61.7957 1.5 28.0091
      vertex 61.7957 0 28.0091
    endloop
  endfacet
  facet normal -0.453991 0 0.891006
    outer loop
      vertex 19.6723 0 45.757
      vertex 21.1359 7.20551 46.5027
      vertex 19.6723 7.25609 45.757
    endloop
  endfacet
  facet normal -0.453991 0 0.891006
    outer loop
      vertex 21.1359 7.20551 46.5027
      vertex 19.6723 0 45.757
      vertex 21.1359 0 46.5027
    endloop
  endfacet
  facet normal 1 0 0
    outer loop
      vertex 8.7 0 45.5
      vertex 8.7 6.56127 56
      vertex 8.7 0 56
    endloop
  endfacet
  facet normal 1 0 0
    outer loop
      vertex 8.7 6.56127 56
      vertex 8.7 0 45.5
      vertex 8.7 7.27352 45.5
    endloop
  endfacet
  facet normal -0.156435 0 0.987688
    outer loop
      vertex 18.05 0 45.5
      vertex 19.6723 7.25609 45.757
      vertex 18.05 7.27352 45.5
    endloop
  endfacet
  facet normal -0.156435 0 0.987688
    outer loop
      vertex 19.6723 7.25609 45.757
      vertex 18.05 0 45.5
      vertex 19.6723 0 45.757
    endloop
  endfacet
  facet normal -0.891007 0 0.45399
    outer loop
      vertex 22.2973 0 47.6641
      vertex 23.043 7.02744 49.1277
      vertex 22.2973 7.12672 47.6641
    endloop
  endfacet
  facet normal -0.891007 0 0.45399
    outer loop
      vertex 23.043 7.02744 49.1277
      vertex 22.2973 0 47.6641
      vertex 23.043 0 49.1277
    endloop
  endfacet
  facet normal 0 0 -1
    outer loop
      vertex 8.7 0 56
      vertex 18.05 6.56127 56
      vertex 18.05 0 56
    endloop
  endfacet
  facet normal -0 0 -1
    outer loop
      vertex 18.05 6.56127 56
      vertex 8.7 0 56
      vertex 8.7 6.56127 56
    endloop
  endfacet
  facet normal -0 0 1
    outer loop
      vertex 8.7 7.27352 45.5
      vertex 18.05 0 45.5
      vertex 18.05 7.27352 45.5
    endloop
  endfacet
  facet normal 0 0 1
    outer loop
      vertex 18.05 0 45.5
      vertex 8.7 7.27352 45.5
      vertex 8.7 0 45.5
    endloop
  endfacet
  facet normal -0.707106 0 0.707107
    outer loop
      vertex 21.1359 0 46.5027
      vertex 22.2973 7.12672 47.6641
      vertex 21.1359 7.20551 46.5027
    endloop
  endfacet
  facet normal -0.707106 0 0.707107
    outer loop
      vertex 22.2973 7.12672 47.6641
      vertex 21.1359 0 46.5027
      vertex 22.2973 0 47.6641
    endloop
  endfacet
  facet normal -0.987688 0 0.156435
    outer loop
      vertex 23.043 0 49.1277
      vertex 23.3 6.9174 50.75
      vertex 23.043 7.02744 49.1277
    endloop
  endfacet
  facet normal -0.987688 0 0.156435
    outer loop
      vertex 23.3 6.9174 50.75
      vertex 23.043 0 49.1277
      vertex 23.3 0 50.75
    endloop
  endfacet
  facet normal -0.156435 -0 -0.987688
    outer loop
      vertex 18.05 6.56127 56
      vertex 19.6723 0 55.743
      vertex 18.05 0 56
    endloop
  endfacet
  facet normal -0.156435 0 -0.987688
    outer loop
      vertex 19.6723 0 55.743
      vertex 18.05 6.56127 56
      vertex 19.6723 6.5787 55.743
    endloop
  endfacet
  facet normal -0.987688 0 -0.156435
    outer loop
      vertex 23.3 0 50.75
      vertex 23.043 6.80735 52.3723
      vertex 23.3 6.9174 50.75
    endloop
  endfacet
  facet normal -0.987688 -0 -0.156435
    outer loop
      vertex 23.043 6.80735 52.3723
      vertex 23.3 0 50.75
      vertex 23.043 0 52.3723
    endloop
  endfacet
  facet normal -0.707106 -0 -0.707107
    outer loop
      vertex 21.1359 6.62928 54.9973
      vertex 22.2973 0 53.8359
      vertex 21.1359 0 54.9973
    endloop
  endfacet
  facet normal -0.707106 0 -0.707107
    outer loop
      vertex 22.2973 0 53.8359
      vertex 21.1359 6.62928 54.9973
      vertex 22.2973 6.70807 53.8359
    endloop
  endfacet
  facet normal -0.453991 -0 -0.891006
    outer loop
      vertex 19.6723 6.5787 55.743
      vertex 21.1359 0 54.9973
      vertex 19.6723 0 55.743
    endloop
  endfacet
  facet normal -0.453991 0 -0.891006
    outer loop
      vertex 21.1359 0 54.9973
      vertex 19.6723 6.5787 55.743
      vertex 21.1359 6.62928 54.9973
    endloop
  endfacet
  facet normal -0.891007 0 -0.45399
    outer loop
      vertex 23.043 0 52.3723
      vertex 22.2973 6.70807 53.8359
      vertex 23.043 6.80735 52.3723
    endloop
  endfacet
  facet normal -0.891007 -0 -0.45399
    outer loop
      vertex 22.2973 6.70807 53.8359
      vertex 23.043 0 52.3723
      vertex 22.2973 0 53.8359
    endloop
  endfacet
  facet normal 0.156444 0 -0.987687
    outer loop
      vertex 13.291 1.5 41.6511
      vertex 13.6 7.53129 41.7
      vertex 13.6 1.5 41.7
    endloop
  endfacet
  facet normal 0.156444 0 -0.987687
    outer loop
      vertex 13.6 7.53129 41.7
      vertex 13.291 1.5 41.6511
      vertex 13.291 7.53461 41.6511
    endloop
  endfacet
  facet normal 0.707107 -0 0.707107
    outer loop
      vertex 12.791 1.5 5.91221
      vertex 13.0122 8.81003 5.69098
      vertex 12.791 8.81766 5.91221
    endloop
  endfacet
  facet normal 0.707107 0 0.707107
    outer loop
      vertex 13.0122 8.81003 5.69098
      vertex 12.791 1.5 5.91221
      vertex 13.0122 1.5 5.69098
    endloop
  endfacet
  facet normal 0 0 -1
    outer loop
      vertex 13.6 1.5 41.7
      vertex 111.4 7.53129 41.7
      vertex 111.4 1.5 41.7
    endloop
  endfacet
  facet normal -0 0 -1
    outer loop
      vertex 111.4 7.53129 41.7
      vertex 13.6 1.5 41.7
      vertex 13.6 7.53129 41.7
    endloop
  endfacet
  facet normal 0 1 -0
    outer loop
      vertex 60.8897 1.5 33.7293
      vertex 46.95 1.5 34.1
      vertex 61.7957 1.5 34.1909
    endloop
  endfacet
  facet normal 0 1 0
    outer loop
      vertex 49.3 1.5 32.7
      vertex 60.8897 1.5 33.7293
      vertex 60.1707 1.5 33.0103
    endloop
  endfacet
  facet normal 0 1 0
    outer loop
      vertex 60.8897 1.5 33.7293
      vertex 49.3 1.5 32.7
      vertex 46.95 1.5 34.1
    endloop
  endfacet
  facet normal 0 1 -0
    outer loop
      vertex 59.7091 1.5 32.1043
      vertex 49.3 1.5 32.7
      vertex 60.1707 1.5 33.0103
    endloop
  endfacet
  facet normal 0 1 -0
    outer loop
      vertex 59.6729 1.5 31.8761
      vertex 49.3 1.5 32.7
      vertex 59.7091 1.5 32.1043
    endloop
  endfacet
  facet normal 0 1 -0
    outer loop
      vertex 59.55 1.5 31.1
      vertex 49.3 1.5 32.7
      vertex 59.6729 1.5 31.8761
    endloop
  endfacet
  facet normal 0 1 0
    outer loop
      vertex 49.3 1.5 28.5
      vertex 59.55 1.5 31.1
      vertex 59.5862 1.5 30.8717
    endloop
  endfacet
  facet normal 0 1 0
    outer loop
      vertex 49.3 1.5 28.5
      vertex 59.5862 1.5 30.8717
      vertex 59.7091 1.5 30.0957
    endloop
  endfacet
  facet normal 0 1 0
    outer loop
      vertex 49.3 1.5 28.5
      vertex 59.7091 1.5 30.0957
      vertex 60.1707 1.5 29.1897
    endloop
  endfacet
  facet normal 0 1 0
    outer loop
      vertex 59.55 1.5 31.1
      vertex 49.3 1.5 28.5
      vertex 49.3 1.5 32.7
    endloop
  endfacet
  facet normal 0 1 0
    outer loop
      vertex 61.7957 1.5 28.0091
      vertex 49.3 1.5 28.5
      vertex 60.8897 1.5 28.4707
    endloop
  endfacet
  facet normal 0 1 0
    outer loop
      vertex 60.8897 1.5 28.4707
      vertex 49.3 1.5 28.5
      vertex 60.1707 1.5 29.1897
    endloop
  endfacet
  facet normal 0 1 0
    outer loop
      vertex 112.4 1.5 40.7
      vertex 111.4 1.5 41.7
      vertex 111.709 1.5 41.6511
    endloop
  endfacet
  facet normal 0 1 0
    outer loop
      vertex 111.4 1.5 41.7
      vertex 62.8 1.5 34.35
      vertex 13.6 1.5 41.7
    endloop
  endfacet
  facet normal 0 1 0
    outer loop
      vertex 112.4 1.5 40.7
      vertex 111.709 1.5 41.6511
      vertex 111.988 1.5 41.509
    endloop
  endfacet
  facet normal 0 1 -0
    outer loop
      vertex 46.95 1.5 34.1
      vertex 13.6 1.5 41.7
      vertex 62.8 1.5 34.35
    endloop
  endfacet
  facet normal 0 1 0
    outer loop
      vertex 112.4 1.5 40.7
      vertex 111.988 1.5 41.509
      vertex 112.209 1.5 41.2878
    endloop
  endfacet
  facet normal 0 1 -0
    outer loop
      vertex 35.65 1.5 34.1
      vertex 13.6 1.5 41.7
      vertex 46.95 1.5 34.1
    endloop
  endfacet
  facet normal 0 1 0
    outer loop
      vertex 112.4 1.5 40.7
      vertex 112.209 1.5 41.2878
      vertex 112.351 1.5 41.009
    endloop
  endfacet
  facet normal 0 1 -0
    outer loop
      vertex 33.3 1.5 32.7
      vertex 13.6 1.5 41.7
      vertex 35.65 1.5 34.1
    endloop
  endfacet
  facet normal 0 1 0
    outer loop
      vertex 111.4 1.5 5.5
      vertex 111.4 1.5 41.7
      vertex 112.4 1.5 40.7
    endloop
  endfacet
  facet normal -0 1 0
    outer loop
      vertex 12.6 1.5 40.7
      vertex 13.6 1.5 41.7
      vertex 33.3 1.5 32.7
    endloop
  endfacet
  facet normal 0 1 0
    outer loop
      vertex 13.6 1.5 41.7
      vertex 12.6 1.5 40.7
      vertex 13.291 1.5 41.6511
    endloop
  endfacet
  facet normal 0 1 0
    outer loop
      vertex 111.4 1.5 41.7
      vertex 63.5761 1.5 34.2271
      vertex 62.8 1.5 34.35
    endloop
  endfacet
  facet normal 0 1 0
    outer loop
      vertex 111.4 1.5 41.7
      vertex 63.8043 1.5 34.1909
      vertex 63.5761 1.5 34.2271
    endloop
  endfacet
  facet normal 0 1 0
    outer loop
      vertex 111.4 1.5 41.7
      vertex 64.7103 1.5 33.7293
      vertex 63.8043 1.5 34.1909
    endloop
  endfacet
  facet normal 0 1 0
    outer loop
      vertex 111.4 1.5 41.7
      vertex 65.4293 1.5 33.0103
      vertex 64.7103 1.5 33.7293
    endloop
  endfacet
  facet normal 0 1 0
    outer loop
      vertex 111.4 1.5 41.7
      vertex 65.8909 1.5 32.1043
      vertex 65.4293 1.5 33.0103
    endloop
  endfacet
  facet normal 0 1 0
    outer loop
      vertex 111.4 1.5 41.7
      vertex 66.05 1.5 31.1
      vertex 65.8909 1.5 32.1043
    endloop
  endfacet
  facet normal 0 1 0
    outer loop
      vertex 111.4 1.5 41.7
      vertex 65.8909 1.5 30.0957
      vertex 66.05 1.5 31.1
    endloop
  endfacet
  facet normal 0 1 0
    outer loop
      vertex 111.4 1.5 41.7
      vertex 111.4 1.5 5.5
      vertex 65.8909 1.5 30.0957
    endloop
  endfacet
  facet normal 0 1 0
    outer loop
      vertex 65.8909 1.5 30.0957
      vertex 111.4 1.5 5.5
      vertex 65.4293 1.5 29.1897
    endloop
  endfacet
  facet normal 0 1 0
    outer loop
      vertex 65.4293 1.5 29.1897
      vertex 111.4 1.5 5.5
      vertex 64.7103 1.5 28.4707
    endloop
  endfacet
  facet normal 0 1 0
    outer loop
      vertex 64.7103 1.5 28.4707
      vertex 111.4 1.5 5.5
      vertex 63.8043 1.5 28.0091
    endloop
  endfacet
  facet normal 0 1 0
    outer loop
      vertex 111.4 1.5 5.5
      vertex 112.4 1.5 40.7
      vertex 112.4 1.5 6.5
    endloop
  endfacet
  facet normal 0 1 0
    outer loop
      vertex 46.95 1.5 34.1
      vertex 62.8 1.5 34.35
      vertex 62.0239 1.5 34.2271
    endloop
  endfacet
  facet normal 0 1 0
    outer loop
      vertex 46.95 1.5 34.1
      vertex 62.0239 1.5 34.2271
      vertex 61.7957 1.5 34.1909
    endloop
  endfacet
  facet normal 0 1 0
    outer loop
      vertex 13.291 1.5 41.6511
      vertex 12.6 1.5 40.7
      vertex 13.0122 1.5 41.509
    endloop
  endfacet
  facet normal 0 1 0
    outer loop
      vertex 13.0122 1.5 41.509
      vertex 12.6 1.5 40.7
      vertex 12.791 1.5 41.2878
    endloop
  endfacet
  facet normal 0 1 0
    outer loop
      vertex 12.791 1.5 41.2878
      vertex 12.6 1.5 40.7
      vertex 12.6489 1.5 41.009
    endloop
  endfacet
  facet normal 0 1 -0
    outer loop
      vertex 33.3 1.5 28.5
      vertex 12.6 1.5 40.7
      vertex 33.3 1.5 32.7
    endloop
  endfacet
  facet normal 0 1 0
    outer loop
      vertex 13.6 1.5 5.5
      vertex 49.3 1.5 28.5
      vertex 61.7957 1.5 28.0091
    endloop
  endfacet
  facet normal 0 1 0
    outer loop
      vertex 13.6 1.5 5.5
      vertex 61.7957 1.5 28.0091
      vertex 62.8 1.5 27.85
    endloop
  endfacet
  facet normal 0 1 0
    outer loop
      vertex 63.8043 1.5 28.0091
      vertex 111.4 1.5 5.5
      vertex 62.8 1.5 27.85
    endloop
  endfacet
  facet normal 0 1 0
    outer loop
      vertex 33.3 1.5 28.5
      vertex 12.6 1.5 6.5
      vertex 12.6 1.5 40.7
    endloop
  endfacet
  facet normal 0 1 0
    outer loop
      vertex 13.6 1.5 5.5
      vertex 62.8 1.5 27.85
      vertex 111.4 1.5 5.5
    endloop
  endfacet
  facet normal 0 1 0
    outer loop
      vertex 111.4 1.5 5.5
      vertex 112.4 1.5 6.5
      vertex 112.351 1.5 6.19098
    endloop
  endfacet
  facet normal 0 1 0
    outer loop
      vertex 49.3 1.5 28.5
      vertex 13.6 1.5 5.5
      vertex 33.3 1.5 28.5
    endloop
  endfacet
  facet normal 0 1 0
    outer loop
      vertex 111.4 1.5 5.5
      vertex 112.351 1.5 6.19098
      vertex 112.209 1.5 5.91221
    endloop
  endfacet
  facet normal 0 1 0
    outer loop
      vertex 33.3 1.5 28.5
      vertex 13.6 1.5 5.5
      vertex 12.6 1.5 6.5
    endloop
  endfacet
  facet normal 0 1 0
    outer loop
      vertex 111.4 1.5 5.5
      vertex 112.209 1.5 5.91221
      vertex 111.988 1.5 5.69098
    endloop
  endfacet
  facet normal 0 1 0
    outer loop
      vertex 12.6 1.5 6.5
      vertex 13.6 1.5 5.5
      vertex 12.6489 1.5 6.19098
    endloop
  endfacet
  facet normal 0 1 0
    outer loop
      vertex 111.4 1.5 5.5
      vertex 111.988 1.5 5.69098
      vertex 111.709 1.5 5.54894
    endloop
  endfacet
  facet normal 0 1 0
    outer loop
      vertex 12.6489 1.5 6.19098
      vertex 13.6 1.5 5.5
      vertex 12.791 1.5 5.91221
    endloop
  endfacet
  facet normal 0 1 0
    outer loop
      vertex 12.791 1.5 5.91221
      vertex 13.6 1.5 5.5
      vertex 13.0122 1.5 5.69098
    endloop
  endfacet
  facet normal 0 1 0
    outer loop
      vertex 13.0122 1.5 5.69098
      vertex 13.6 1.5 5.5
      vertex 13.291 1.5 5.54894
    endloop
  endfacet
  facet normal 1 0 0
    outer loop
      vertex 12.6 1.5 6.5
      vertex 12.6 9.2 17
      vertex 12.6 9.2 17.1
    endloop
  endfacet
  facet normal 1 -0 0
    outer loop
      vertex 12.6 1.5 40.7
      vertex 12.6 9.2 17.1
      vertex 12.6 7.59912 40.7
    endloop
  endfacet
  facet normal 1 0 0
    outer loop
      vertex 12.6 9.2 17.1
      vertex 12.6 1.5 40.7
      vertex 12.6 1.5 6.5
    endloop
  endfacet
  facet normal 1 0 0
    outer loop
      vertex 12.6 9.2 17
      vertex 12.6 1.5 6.5
      vertex 12.6 8.83793 6.5
    endloop
  endfacet
  facet normal -1 0 0
    outer loop
      vertex 112.4 1.5 6.5
      vertex 112.4 9.2 17
      vertex 112.4 8.83793 6.5
    endloop
  endfacet
  facet normal -1 -0 0
    outer loop
      vertex 112.4 9.2 17
      vertex 112.4 1.5 6.5
      vertex 112.4 9.2 17.1
    endloop
  endfacet
  facet normal -1 0 0
    outer loop
      vertex 112.4 1.5 40.7
      vertex 112.4 9.2 17.1
      vertex 112.4 1.5 6.5
    endloop
  endfacet
  facet normal -1 0 0
    outer loop
      vertex 112.4 9.2 17.1
      vertex 112.4 1.5 40.7
      vertex 112.4 7.59912 40.7
    endloop
  endfacet
  facet normal -0.987689 0 -0.156432
    outer loop
      vertex 112.4 1.5 40.7
      vertex 112.351 7.57816 41.009
      vertex 112.4 7.59912 40.7
    endloop
  endfacet
  facet normal -0.987689 -0 -0.156432
    outer loop
      vertex 112.351 7.57816 41.009
      vertex 112.4 1.5 40.7
      vertex 112.351 1.5 41.009
    endloop
  endfacet
  facet normal 0.453982 0 -0.891011
    outer loop
      vertex 13.0122 1.5 41.509
      vertex 13.291 7.53461 41.6511
      vertex 13.291 1.5 41.6511
    endloop
  endfacet
  facet normal 0.453982 0 -0.891011
    outer loop
      vertex 13.291 7.53461 41.6511
      vertex 13.0122 1.5 41.509
      vertex 13.0122 7.54425 41.509
    endloop
  endfacet
  facet normal 0.891005 0 -0.453994
    outer loop
      vertex 12.6489 1.5 41.009
      vertex 12.791 7.55925 41.2878
      vertex 12.791 1.5 41.2878
    endloop
  endfacet
  facet normal 0.891005 0 -0.453994
    outer loop
      vertex 12.791 7.55925 41.2878
      vertex 12.6489 1.5 41.009
      vertex 12.6489 7.57816 41.009
    endloop
  endfacet
  facet normal 0.987689 0 -0.156432
    outer loop
      vertex 12.6 1.5 40.7
      vertex 12.6489 7.57816 41.009
      vertex 12.6489 1.5 41.009
    endloop
  endfacet
  facet normal 0.987689 0 -0.156432
    outer loop
      vertex 12.6489 7.57816 41.009
      vertex 12.6 1.5 40.7
      vertex 12.6 7.59912 40.7
    endloop
  endfacet
  facet normal 0.156432 0 0.987689
    outer loop
      vertex 13.291 8.80514 5.54894
      vertex 13.6 1.5 5.5
      vertex 13.6 8.80345 5.5
    endloop
  endfacet
  facet normal 0.156432 0 0.987689
    outer loop
      vertex 13.6 1.5 5.5
      vertex 13.291 8.80514 5.54894
      vertex 13.291 1.5 5.54894
    endloop
  endfacet
  facet normal 0.987689 -1.01653e-008 0.156431
    outer loop
      vertex 12.6359 8.83012 6.27349
      vertex 12.6 8.83793 6.5
      vertex 12.6 1.5 6.5
    endloop
  endfacet
  facet normal -0.987689 0 0.156432
    outer loop
      vertex 112.4 1.5 6.5
      vertex 112.351 8.82728 6.19098
      vertex 112.351 1.5 6.19098
    endloop
  endfacet
  facet normal -0.987689 0 0.156432
    outer loop
      vertex 112.351 8.82728 6.19098
      vertex 112.4 1.5 6.5
      vertex 112.4 8.83793 6.5
    endloop
  endfacet
  facet normal 0.70711 0 -0.707104
    outer loop
      vertex 12.791 1.5 41.2878
      vertex 13.0122 7.54425 41.509
      vertex 13.0122 1.5 41.509
    endloop
  endfacet
  facet normal 0.70711 0 -0.707104
    outer loop
      vertex 13.0122 7.54425 41.509
      vertex 12.791 1.5 41.2878
      vertex 12.791 7.55925 41.2878
    endloop
  endfacet
  facet normal -0 0 1
    outer loop
      vertex 13.6 8.80345 5.5
      vertex 111.4 1.5 5.5
      vertex 111.4 8.80345 5.5
    endloop
  endfacet
  facet normal 0 0 1
    outer loop
      vertex 111.4 1.5 5.5
      vertex 13.6 8.80345 5.5
      vertex 13.6 1.5 5.5
    endloop
  endfacet
  facet normal 0.891006 -0 0.453992
    outer loop
      vertex 12.6489 1.5 6.19098
      vertex 12.791 8.81766 5.91221
      vertex 12.6489 8.82728 6.19098
    endloop
  endfacet
  facet normal 0.891006 0 0.453992
    outer loop
      vertex 12.791 8.81766 5.91221
      vertex 12.6489 1.5 6.19098
      vertex 12.791 1.5 5.91221
    endloop
  endfacet
  facet normal 0.453992 -0 0.891006
    outer loop
      vertex 13.0122 1.5 5.69098
      vertex 13.291 8.80514 5.54894
      vertex 13.0122 8.81003 5.69098
    endloop
  endfacet
  facet normal 0.453992 0 0.891006
    outer loop
      vertex 13.291 8.80514 5.54894
      vertex 13.0122 1.5 5.69098
      vertex 13.291 1.5 5.54894
    endloop
  endfacet
  facet normal -0.45398 -0 -0.891012
    outer loop
      vertex 111.709 7.53461 41.6511
      vertex 111.988 1.5 41.509
      vertex 111.709 1.5 41.6511
    endloop
  endfacet
  facet normal -0.45398 0 -0.891012
    outer loop
      vertex 111.988 1.5 41.509
      vertex 111.709 7.53461 41.6511
      vertex 111.988 7.54425 41.509
    endloop
  endfacet
  facet normal -0.156445 -0 -0.987687
    outer loop
      vertex 111.4 7.53129 41.7
      vertex 111.709 1.5 41.6511
      vertex 111.4 1.5 41.7
    endloop
  endfacet
  facet normal -0.156445 0 -0.987687
    outer loop
      vertex 111.709 1.5 41.6511
      vertex 111.4 7.53129 41.7
      vertex 111.709 7.53461 41.6511
    endloop
  endfacet
  facet normal -0.156433 0 0.987689
    outer loop
      vertex 111.4 8.80345 5.5
      vertex 111.709 1.5 5.54894
      vertex 111.709 8.80514 5.54894
    endloop
  endfacet
  facet normal -0.156433 0 0.987689
    outer loop
      vertex 111.709 1.5 5.54894
      vertex 111.4 8.80345 5.5
      vertex 111.4 1.5 5.5
    endloop
  endfacet
  facet normal 0.987688 7.08866e-008 0.156434
    outer loop
      vertex 12.6 1.5 6.5
      vertex 12.6489 8.82728 6.19098
      vertex 12.6359 8.83012 6.27349
    endloop
  endfacet
  facet normal 0.987689 0 0.156432
    outer loop
      vertex 12.6489 8.82728 6.19098
      vertex 12.6 1.5 6.5
      vertex 12.6489 1.5 6.19098
    endloop
  endfacet
  facet normal -0.891 0 -0.454004
    outer loop
      vertex 112.351 1.5 41.009
      vertex 112.209 7.55925 41.2878
      vertex 112.351 7.57816 41.009
    endloop
  endfacet
  facet normal -0.891 -0 -0.454004
    outer loop
      vertex 112.209 7.55925 41.2878
      vertex 112.351 1.5 41.009
      vertex 112.209 1.5 41.2878
    endloop
  endfacet
  facet normal -0.707113 0 -0.707101
    outer loop
      vertex 112.209 1.5 41.2878
      vertex 111.988 7.54425 41.509
      vertex 112.209 7.55925 41.2878
    endloop
  endfacet
  facet normal -0.707113 -0 -0.707101
    outer loop
      vertex 111.988 7.54425 41.509
      vertex 112.209 1.5 41.2878
      vertex 111.988 1.5 41.509
    endloop
  endfacet
  facet normal -0.70711 0 0.707104
    outer loop
      vertex 112.209 1.5 5.91221
      vertex 111.988 8.81003 5.69098
      vertex 111.988 1.5 5.69098
    endloop
  endfacet
  facet normal -0.70711 0 0.707104
    outer loop
      vertex 111.988 8.81003 5.69098
      vertex 112.209 1.5 5.91221
      vertex 112.209 8.81766 5.91221
    endloop
  endfacet
  facet normal -0.891001 0 0.454002
    outer loop
      vertex 112.351 1.5 6.19098
      vertex 112.209 8.81766 5.91221
      vertex 112.209 1.5 5.91221
    endloop
  endfacet
  facet normal -0.891001 0 0.454002
    outer loop
      vertex 112.209 8.81766 5.91221
      vertex 112.351 1.5 6.19098
      vertex 112.351 8.82728 6.19098
    endloop
  endfacet
  facet normal -0.45399 0 0.891007
    outer loop
      vertex 111.709 8.80514 5.54894
      vertex 111.988 1.5 5.69098
      vertex 111.988 8.81003 5.69098
    endloop
  endfacet
  facet normal -0.45399 0 0.891007
    outer loop
      vertex 111.988 1.5 5.69098
      vertex 111.709 8.80514 5.54894
      vertex 111.709 1.5 5.54894
    endloop
  endfacet
endsolid OpenSCAD_Model
