solid OpenSCAD_Model
  facet normal -1 0 0
    outer loop
      vertex 0 0 0
      vertex 0 5.1 2.5
      vertex 0 5.1 0
    endloop
  endfacet
  facet normal -1 -0 0
    outer loop
      vertex 0 5.1 2.5
      vertex 0 0 0
      vertex 0 0 2.5
    endloop
  endfacet
  facet normal 0 0 -1
    outer loop
      vertex 0 5.1 2.5
      vertex 125 8.7 2.5
      vertex 125 5.1 2.5
    endloop
  endfacet
  facet normal -0 0 -1
    outer loop
      vertex 125 8.7 2.5
      vertex 0 5.1 2.5
      vertex 0 8.7 2.5
    endloop
  endfacet
  facet normal 1 -0 0
    outer loop
      vertex 125 0 2.5
      vertex 125 5.1 0
      vertex 125 5.1 2.5
    endloop
  endfacet
  facet normal 1 0 0
    outer loop
      vertex 125 5.1 0
      vertex 125 0 2.5
      vertex 125 0 0
    endloop
  endfacet
  facet normal 0 0 -1
    outer loop
      vertex 0 0 0
      vertex 125 5.1 0
      vertex 125 0 0
    endloop
  endfacet
  facet normal -0 0 -1
    outer loop
      vertex 125 5.1 0
      vertex 0 0 0
      vertex 0 5.1 0
    endloop
  endfacet
  facet normal 0 -1 -0
    outer loop
      vertex 49.2 0 31.5
      vertex 0 0 0
      vertex 62.7 0 31.35
    endloop
  endfacet
  facet normal 0 -1 0
    outer loop
      vertex 62.7 0 31.35
      vertex 125 0 2.5
      vertex 125.592 0 16.8
    endloop
  endfacet
  facet normal 0 -1 0
    outer loop
      vertex 125 0 0
      vertex 62.7 0 31.35
      vertex 0 0 0
    endloop
  endfacet
  facet normal 0 -1 0
    outer loop
      vertex 62.7 0 31.35
      vertex 125 0 0
      vertex 125 0 2.5
    endloop
  endfacet
  facet normal 0 -1 0
    outer loop
      vertex 7.7 0 54.8
      vertex 18.55 0 62.8
      vertex -2 0 62.8
    endloop
  endfacet
  facet normal 0 -1 0
    outer loop
      vertex 20.1359 0 53.7973
      vertex 18.55 0 62.8
      vertex 18.6723 0 54.543
    endloop
  endfacet
  facet normal 0 -1 0
    outer loop
      vertex 18.55 0 62.8
      vertex 7.7 0 54.8
      vertex 17.05 0 54.8
    endloop
  endfacet
  facet normal 0 -1 0
    outer loop
      vertex -2 0 62.8
      vertex 7.7 0 44.3
      vertex 7.7 0 54.8
    endloop
  endfacet
  facet normal 0 -1 0
    outer loop
      vertex -0.591724 0 16.8
      vertex 17.05 0 44.3
      vertex 7.7 0 44.3
    endloop
  endfacet
  facet normal 0 -1 0
    outer loop
      vertex 17.05 0 44.3
      vertex 46.85 0 37.6
      vertex 62.7 0 37.85
    endloop
  endfacet
  facet normal 0 -1 0
    outer loop
      vertex 62.7 0 37.85
      vertex 46.85 0 37.6
      vertex 61.787 0 37.7054
    endloop
  endfacet
  facet normal 0 -1 0
    outer loop
      vertex 17.05 0 44.3
      vertex 35.55 0 37.6
      vertex 46.85 0 37.6
    endloop
  endfacet
  facet normal 0 -1 0
    outer loop
      vertex 17.05 0 44.3
      vertex 33.2 0 36.2
      vertex 35.55 0 37.6
    endloop
  endfacet
  facet normal 0 -1 0
    outer loop
      vertex 17.05 0 44.3
      vertex 33.2 0 31.5
      vertex 33.2 0 36.2
    endloop
  endfacet
  facet normal 0 -1 0
    outer loop
      vertex 0 0 2.5
      vertex 33.2 0 31.5
      vertex -0.591724 0 16.8
    endloop
  endfacet
  facet normal 0 -1 -0
    outer loop
      vertex 17.05 0 44.3
      vertex -0.591724 0 16.8
      vertex 33.2 0 31.5
    endloop
  endfacet
  facet normal 0 -1 0
    outer loop
      vertex -0.591724 0 16.8
      vertex 7.7 0 44.3
      vertex -3.95 0 16.9
    endloop
  endfacet
  facet normal 0 -1 0
    outer loop
      vertex -3.95 0 16.9
      vertex 7.7 0 44.3
      vertex -2 0 62.8
    endloop
  endfacet
  facet normal 0 -1 0
    outer loop
      vertex 18.55 0 62.8
      vertex 106.45 0 65.3
      vertex 18.55 0 65.3
    endloop
  endfacet
  facet normal 0 -1 -0
    outer loop
      vertex 106.45 0 65.3
      vertex 18.55 0 62.8
      vertex 106.45 0 62.8
    endloop
  endfacet
  facet normal 0 -1 -0
    outer loop
      vertex 18.55 0 62.8
      vertex 17.05 0 54.8
      vertex 18.6723 0 54.543
    endloop
  endfacet
  facet normal 0 -1 0
    outer loop
      vertex 21.2973 0 52.6359
      vertex 18.55 0 62.8
      vertex 20.1359 0 53.7973
    endloop
  endfacet
  facet normal 0 -1 0
    outer loop
      vertex 18.55 0 62.8
      vertex 62.7 0 37.85
      vertex 106.45 0 62.8
    endloop
  endfacet
  facet normal 0 -1 0
    outer loop
      vertex 18.55 0 62.8
      vertex 21.2973 0 52.6359
      vertex 62.7 0 37.85
    endloop
  endfacet
  facet normal 0 -1 0
    outer loop
      vertex 62.7 0 37.85
      vertex 21.2973 0 52.6359
      vertex 22.043 0 51.1723
    endloop
  endfacet
  facet normal 0 -1 0
    outer loop
      vertex 62.7 0 37.85
      vertex 22.043 0 51.1723
      vertex 22.3 0 49.55
    endloop
  endfacet
  facet normal 0 -1 0
    outer loop
      vertex 62.7 0 37.85
      vertex 22.3 0 49.55
      vertex 22.043 0 47.9277
    endloop
  endfacet
  facet normal 0 -1 0
    outer loop
      vertex 62.7 0 37.85
      vertex 22.043 0 47.9277
      vertex 21.2973 0 46.4641
    endloop
  endfacet
  facet normal 0 -1 0
    outer loop
      vertex 62.7 0 37.85
      vertex 21.2973 0 46.4641
      vertex 20.1359 0 45.3027
    endloop
  endfacet
  facet normal 0 -1 0
    outer loop
      vertex 62.7 0 37.85
      vertex 20.1359 0 45.3027
      vertex 18.6723 0 44.557
    endloop
  endfacet
  facet normal 0 -1 0
    outer loop
      vertex 62.7 0 37.85
      vertex 18.6723 0 44.557
      vertex 17.05 0 44.3
    endloop
  endfacet
  facet normal 0 -1 0
    outer loop
      vertex 63.613 0 37.7054
      vertex 106.45 0 62.8
      vertex 62.7 0 37.85
    endloop
  endfacet
  facet normal 0 -1 0
    outer loop
      vertex 63.7043 0 37.6909
      vertex 106.45 0 62.8
      vertex 63.613 0 37.7054
    endloop
  endfacet
  facet normal 0 -1 0
    outer loop
      vertex 64.6103 0 37.2293
      vertex 106.45 0 62.8
      vertex 63.7043 0 37.6909
    endloop
  endfacet
  facet normal 0 -1 0
    outer loop
      vertex 65.3293 0 36.5103
      vertex 106.45 0 62.8
      vertex 64.6103 0 37.2293
    endloop
  endfacet
  facet normal 0 -1 0
    outer loop
      vertex 65.7909 0 35.6043
      vertex 106.45 0 62.8
      vertex 65.3293 0 36.5103
    endloop
  endfacet
  facet normal 0 -1 0
    outer loop
      vertex 65.95 0 34.6
      vertex 106.45 0 62.8
      vertex 65.7909 0 35.6043
    endloop
  endfacet
  facet normal 0 -1 0
    outer loop
      vertex 125.592 0 16.8
      vertex 106.45 0 62.8
      vertex 65.95 0 34.6
    endloop
  endfacet
  facet normal 0 -1 0
    outer loop
      vertex 125.592 0 16.8
      vertex 65.95 0 34.6
      vertex 65.7909 0 33.5957
    endloop
  endfacet
  facet normal 0 -1 0
    outer loop
      vertex 125.592 0 16.8
      vertex 65.7909 0 33.5957
      vertex 65.3293 0 32.6897
    endloop
  endfacet
  facet normal 0 -1 0
    outer loop
      vertex 125.592 0 16.8
      vertex 65.3293 0 32.6897
      vertex 64.6103 0 31.9707
    endloop
  endfacet
  facet normal 0 -1 0
    outer loop
      vertex 125.592 0 16.8
      vertex 64.6103 0 31.9707
      vertex 63.7043 0 31.5091
    endloop
  endfacet
  facet normal 0 -1 0
    outer loop
      vertex 0 0 0
      vertex 33.2 0 31.5
      vertex 0 0 2.5
    endloop
  endfacet
  facet normal 0 -1 0
    outer loop
      vertex 106.45 0 62.8
      vertex 125.592 0 16.8
      vertex 127 0 62.8
    endloop
  endfacet
  facet normal 0 -1 -0
    outer loop
      vertex 33.2 0 31.5
      vertex 0 0 0
      vertex 49.2 0 31.5
    endloop
  endfacet
  facet normal 0 -1 0
    outer loop
      vertex -0.591724 0 16.8
      vertex -3.95 0 16.9
      vertex -3.95 0 16.8
    endloop
  endfacet
  facet normal 0 -1 0
    outer loop
      vertex 62.7 0 31.35
      vertex 125.592 0 16.8
      vertex 63.7043 0 31.5091
    endloop
  endfacet
  facet normal 0 -1 -0
    outer loop
      vertex 127 0 62.8
      vertex 125.592 0 16.8
      vertex 128.95 0 16.9
    endloop
  endfacet
  facet normal 0 -1 -0
    outer loop
      vertex 128.95 0 16.9
      vertex 125.592 0 16.8
      vertex 128.95 0 16.8
    endloop
  endfacet
  facet normal 0 -1 0
    outer loop
      vertex 61.787 0 37.7054
      vertex 46.85 0 37.6
      vertex 61.6957 0 37.6909
    endloop
  endfacet
  facet normal 0 -1 0
    outer loop
      vertex 46.85 0 37.6
      vertex 60.7897 0 37.2293
      vertex 61.6957 0 37.6909
    endloop
  endfacet
  facet normal 0 -1 0
    outer loop
      vertex 49.2 0 36.2
      vertex 60.7897 0 37.2293
      vertex 46.85 0 37.6
    endloop
  endfacet
  facet normal 0 -1 0
    outer loop
      vertex 60.7897 0 37.2293
      vertex 49.2 0 36.2
      vertex 60.0707 0 36.5103
    endloop
  endfacet
  facet normal 0 -1 0
    outer loop
      vertex 49.2 0 36.2
      vertex 59.6091 0 35.6043
      vertex 60.0707 0 36.5103
    endloop
  endfacet
  facet normal 0 -1 0
    outer loop
      vertex 49.2 0 36.2
      vertex 59.5946 0 35.513
      vertex 59.6091 0 35.6043
    endloop
  endfacet
  facet normal 0 -1 0
    outer loop
      vertex 49.2 0 36.2
      vertex 59.45 0 34.6
      vertex 59.5946 0 35.513
    endloop
  endfacet
  facet normal 0 -1 0
    outer loop
      vertex 49.2 0 31.5
      vertex 59.45 0 34.6
      vertex 49.2 0 36.2
    endloop
  endfacet
  facet normal 0 -1 -0
    outer loop
      vertex 59.45 0 34.6
      vertex 49.2 0 31.5
      vertex 59.4645 0 34.5087
    endloop
  endfacet
  facet normal 0 -1 -0
    outer loop
      vertex 59.4645 0 34.5087
      vertex 49.2 0 31.5
      vertex 59.6091 0 33.5957
    endloop
  endfacet
  facet normal 0 -1 -0
    outer loop
      vertex 59.6091 0 33.5957
      vertex 49.2 0 31.5
      vertex 60.0707 0 32.6897
    endloop
  endfacet
  facet normal 0 -1 -0
    outer loop
      vertex 60.0707 0 32.6897
      vertex 49.2 0 31.5
      vertex 60.7897 0 31.9707
    endloop
  endfacet
  facet normal 0 -1 -0
    outer loop
      vertex 60.7897 0 31.9707
      vertex 49.2 0 31.5
      vertex 61.6957 0 31.5091
    endloop
  endfacet
  facet normal 0 -1 -0
    outer loop
      vertex 61.6957 0 31.5091
      vertex 49.2 0 31.5
      vertex 62.7 0 31.35
    endloop
  endfacet
  facet normal 0 1 -0
    outer loop
      vertex 125 5.1 0
      vertex 0 5.1 2.5
      vertex 125 5.1 2.5
    endloop
  endfacet
  facet normal 0 1 0
    outer loop
      vertex 0 5.1 2.5
      vertex 125 5.1 0
      vertex 0 5.1 0
    endloop
  endfacet
  facet normal 0 0.999406 -0.0344623
    outer loop
      vertex 125.6 9.2 17
      vertex 112.4 8.83793 6.5
      vertex 112.4 9.2 17
    endloop
  endfacet
  facet normal -1.28729e-008 0.999406 -0.0344623
    outer loop
      vertex 125 8.7 2.5
      vertex 112.4 8.83793 6.5
      vertex 125.6 9.2 17
    endloop
  endfacet
  facet normal 3.41204e-007 0.999406 -0.0344612
    outer loop
      vertex 112.4 8.83793 6.5
      vertex 125 8.7 2.5
      vertex 112.351 8.82728 6.19098
    endloop
  endfacet
  facet normal -2.85921e-007 0.999406 -0.0344633
    outer loop
      vertex 112.351 8.82728 6.19098
      vertex 125 8.7 2.5
      vertex 112.209 8.81766 5.91221
    endloop
  endfacet
  facet normal 0 0.999406 -0.0344622
    outer loop
      vertex 111.4 8.80345 5.5
      vertex 125 8.7 2.5
      vertex 13.6 8.80345 5.5
    endloop
  endfacet
  facet normal -6.30184e-007 0.999406 -0.034465
    outer loop
      vertex 111.709 8.80514 5.54894
      vertex 125 8.7 2.5
      vertex 111.4 8.80345 5.5
    endloop
  endfacet
  facet normal -1.48108e-007 0.999406 -0.0344629
    outer loop
      vertex 111.988 8.81003 5.69098
      vertex 125 8.7 2.5
      vertex 111.709 8.80514 5.54894
    endloop
  endfacet
  facet normal 2.1088e-007 0.999406 -0.0344614
    outer loop
      vertex 112.209 8.81766 5.91221
      vertex 125 8.7 2.5
      vertex 111.988 8.81003 5.69098
    endloop
  endfacet
  facet normal 0 0.999406 -0.0344623
    outer loop
      vertex 12.6 8.83793 6.5
      vertex -0.599999 9.2 17
      vertex 12.6 9.2 17
    endloop
  endfacet
  facet normal -2.51964e-007 0.999406 -0.0344614
    outer loop
      vertex 0 8.7 2.5
      vertex 12.6 8.83793 6.5
      vertex 12.6359 8.83012 6.27349
    endloop
  endfacet
  facet normal -5.14877e-007 0.999406 -0.0344606
    outer loop
      vertex 0 8.7 2.5
      vertex 12.6359 8.83012 6.27349
      vertex 12.6489 8.82728 6.19098
    endloop
  endfacet
  facet normal 2.85922e-007 0.999406 -0.0344633
    outer loop
      vertex 0 8.7 2.5
      vertex 12.6489 8.82728 6.19098
      vertex 12.791 8.81766 5.91221
    endloop
  endfacet
  facet normal -2.1088e-007 0.999406 -0.0344614
    outer loop
      vertex 0 8.7 2.5
      vertex 12.791 8.81766 5.91221
      vertex 13.0122 8.81003 5.69098
    endloop
  endfacet
  facet normal 1.15856e-008 0.999406 -0.0344623
    outer loop
      vertex 12.6 8.83793 6.5
      vertex 0 8.7 2.5
      vertex -0.599999 9.2 17
    endloop
  endfacet
  facet normal 1.48108e-007 0.999406 -0.0344629
    outer loop
      vertex 13.291 8.80514 5.54894
      vertex 0 8.7 2.5
      vertex 13.0122 8.81003 5.69098
    endloop
  endfacet
  facet normal 6.30179e-007 0.999406 -0.034465
    outer loop
      vertex 13.6 8.80345 5.5
      vertex 0 8.7 2.5
      vertex 13.291 8.80514 5.54894
    endloop
  endfacet
  facet normal 0 0.999406 -0.0344622
    outer loop
      vertex 0 8.7 2.5
      vertex 13.6 8.80345 5.5
      vertex 125 8.7 2.5
    endloop
  endfacet
  facet normal 1 0 0
    outer loop
      vertex 125.6 9.2 17.1
      vertex 125.6 5.09564 17
      vertex 125.6 9.2 17
    endloop
  endfacet
  facet normal 1 0 -0
    outer loop
      vertex 125.6 5.09564 17
      vertex 125.6 9.2 17.1
      vertex 125.6 5.09128 17.1
    endloop
  endfacet
  facet normal -0.999145 0 -0.0413439
    outer loop
      vertex 0 0 2.5
      vertex -0.591724 5.1 16.8
      vertex 0 5.1 2.5
    endloop
  endfacet
  facet normal -0.999145 -0 -0.0413439
    outer loop
      vertex -0.591724 5.1 16.8
      vertex 0 0 2.5
      vertex -0.591724 0 16.8
    endloop
  endfacet
  facet normal -0.999145 0 -0.0413439
    outer loop
      vertex -0.591724 5.1 16.8
      vertex 0 8.7 2.5
      vertex 0 5.1 2.5
    endloop
  endfacet
  facet normal -0.999145 4.69605e-009 -0.0413439
    outer loop
      vertex 0 8.7 2.5
      vertex -0.591724 5.1 16.8
      vertex -0.599999 9.2 17
    endloop
  endfacet
  facet normal -0.999145 0 -0.0413438
    outer loop
      vertex -0.595861 5.1 16.9
      vertex -0.599999 9.2 17
      vertex -0.591724 5.1 16.8
    endloop
  endfacet
  facet normal -0.999145 -0 -0.0413438
    outer loop
      vertex -0.599999 9.2 17
      vertex -0.595861 5.1 16.9
      vertex -0.599999 5.09564 17
    endloop
  endfacet
  facet normal -1 0 0
    outer loop
      vertex -0.599999 5.09564 17
      vertex -0.599999 9.2 17.1
      vertex -0.599999 9.2 17
    endloop
  endfacet
  facet normal -1 -0 0
    outer loop
      vertex -0.599999 9.2 17.1
      vertex -0.599999 5.09564 17
      vertex -0.599999 5.09128 17.1
    endloop
  endfacet
  facet normal 0.999143 1.85923e-006 -0.041392
    outer loop
      vertex 125.592 5.1 16.8
      vertex 125.6 9.2 17
      vertex 125.596 5.1 16.9
    endloop
  endfacet
  facet normal 0.999146 0 -0.0413159
    outer loop
      vertex 125.596 5.1 16.9
      vertex 125.6 9.2 17
      vertex 125.6 5.09564 17
    endloop
  endfacet
  facet normal 0.999145 -4.93207e-007 -0.0413438
    outer loop
      vertex 125.6 9.2 17
      vertex 125.592 5.1 16.8
      vertex 125 8.7 2.5
    endloop
  endfacet
  facet normal 0.999145 0 -0.0413437
    outer loop
      vertex 125.592 5.1 16.8
      vertex 125 5.1 2.5
      vertex 125 8.7 2.5
    endloop
  endfacet
  facet normal 0.999145 0 -0.0413437
    outer loop
      vertex 125.592 0 16.8
      vertex 125 5.1 2.5
      vertex 125.592 5.1 16.8
    endloop
  endfacet
  facet normal 0.999145 0 -0.0413437
    outer loop
      vertex 125 5.1 2.5
      vertex 125.592 0 16.8
      vertex 125 0 2.5
    endloop
  endfacet
  facet normal 0 1 -0
    outer loop
      vertex 12.6 9.2 17
      vertex -0.599999 9.2 17.1
      vertex 12.6 9.2 17.1
    endloop
  endfacet
  facet normal 0 1 0
    outer loop
      vertex -0.599999 9.2 17.1
      vertex 12.6 9.2 17
      vertex -0.599999 9.2 17
    endloop
  endfacet
  facet normal 0 1 -0
    outer loop
      vertex 125.6 9.2 17
      vertex 112.4 9.2 17.1
      vertex 125.6 9.2 17.1
    endloop
  endfacet
  facet normal 0 1 0
    outer loop
      vertex 112.4 9.2 17.1
      vertex 125.6 9.2 17
      vertex 112.4 9.2 17
    endloop
  endfacet
  facet normal 0 0 1
    outer loop
      vertex 123.4 6.1 62.8
      vertex 106.45 3.8 62.8
      vertex 123.4 3.1 62.8
    endloop
  endfacet
  facet normal 0 0 1
    outer loop
      vertex 123.4 6.1 62.8
      vertex 18.55 3.8 62.8
      vertex 106.45 3.8 62.8
    endloop
  endfacet
  facet normal -0 0 1
    outer loop
      vertex 1.6 6.1 62.8
      vertex 18.55 3.8 62.8
      vertex 123.4 6.1 62.8
    endloop
  endfacet
  facet normal 0 0 1
    outer loop
      vertex 1.6 3.1 62.8
      vertex 18.55 3.8 62.8
      vertex 1.6 6.1 62.8
    endloop
  endfacet
  facet normal 0 0 1
    outer loop
      vertex 18.55 3.8 62.8
      vertex 1.6 3.1 62.8
      vertex 18.55 0 62.8
    endloop
  endfacet
  facet normal 0 0 1
    outer loop
      vertex -2 0 62.8
      vertex 1.6 3.1 62.8
      vertex -2 3.1 62.8
    endloop
  endfacet
  facet normal 0 0 1
    outer loop
      vertex 1.6 3.1 62.8
      vertex -2 0 62.8
      vertex 18.55 0 62.8
    endloop
  endfacet
  facet normal -0 0 1
    outer loop
      vertex 123.4 3.1 62.8
      vertex 127 0 62.8
      vertex 127 3.1 62.8
    endloop
  endfacet
  facet normal 0 0 1
    outer loop
      vertex 106.45 0 62.8
      vertex 123.4 3.1 62.8
      vertex 106.45 3.8 62.8
    endloop
  endfacet
  facet normal 0 0 1
    outer loop
      vertex 123.4 3.1 62.8
      vertex 106.45 0 62.8
      vertex 127 0 62.8
    endloop
  endfacet
  facet normal 0.998843 0 0.0480843
    outer loop
      vertex 123.4 6.1 62.8
      vertex 125.6 5.09128 17.1
      vertex 125.6 9.2 17.1
    endloop
  endfacet
  facet normal 0.998843 0 0.0480843
    outer loop
      vertex 125.6 5.09128 17.1
      vertex 123.4 6.1 62.8
      vertex 123.4 3.1 62.8
    endloop
  endfacet
  facet normal -0.998843 0 0.0480843
    outer loop
      vertex -0.599999 5.09128 17.1
      vertex 1.6 6.1 62.8
      vertex -0.599999 9.2 17.1
    endloop
  endfacet
  facet normal -0.998843 0 0.0480843
    outer loop
      vertex 1.6 6.1 62.8
      vertex -0.599999 5.09128 17.1
      vertex 1.6 3.1 62.8
    endloop
  endfacet
  facet normal 0 0.997707 0.0676782
    outer loop
      vertex 18.6723 6.6601 54.543
      vertex 1.6 6.1 62.8
      vertex 123.4 6.1 62.8
    endloop
  endfacet
  facet normal 2.92877e-007 0.997707 0.0676788
    outer loop
      vertex 1.6 6.1 62.8
      vertex 18.6723 6.6601 54.543
      vertex 17.05 6.64267 54.8
    endloop
  endfacet
  facet normal -3.87689e-008 0.997707 0.0676786
    outer loop
      vertex 123.4 6.1 62.8
      vertex 20.1359 6.71068 53.7973
      vertex 18.6723 6.6601 54.543
    endloop
  endfacet
  facet normal 2.52412e-008 0.997707 0.0676779
    outer loop
      vertex 123.4 6.1 62.8
      vertex 21.2973 6.78947 52.6359
      vertex 20.1359 6.71068 53.7973
    endloop
  endfacet
  facet normal -1.45225e-009 0.997707 0.0676782
    outer loop
      vertex 111.4 7.53129 41.7
      vertex 21.2973 6.78947 52.6359
      vertex 123.4 6.1 62.8
    endloop
  endfacet
  facet normal 2.07195e-008 0.997707 0.0676784
    outer loop
      vertex 21.2973 6.78947 52.6359
      vertex 111.4 7.53129 41.7
      vertex 22.043 6.88875 51.1723
    endloop
  endfacet
  facet normal -9.7215e-009 0.997707 0.0676781
    outer loop
      vertex 22.043 6.88875 51.1723
      vertex 111.4 7.53129 41.7
      vertex 22.3 6.9988 49.55
    endloop
  endfacet
  facet normal -9.45392e-009 0.997707 0.0676781
    outer loop
      vertex 22.3 6.9988 49.55
      vertex 111.4 7.53129 41.7
      vertex 22.043 7.10885 47.9277
    endloop
  endfacet
  facet normal 9.28264e-009 0.997707 0.0676783
    outer loop
      vertex 22.043 7.10885 47.9277
      vertex 111.4 7.53129 41.7
      vertex 21.2973 7.20812 46.4641
    endloop
  endfacet
  facet normal -1.43234e-008 0.997707 0.0676779
    outer loop
      vertex 21.2973 7.20812 46.4641
      vertex 111.4 7.53129 41.7
      vertex 20.1359 7.28691 45.3027
    endloop
  endfacet
  facet normal -2.71771e-007 0.997707 0.0676786
    outer loop
      vertex 18.6723 7.33749 44.557
      vertex 13.6 7.53129 41.7
      vertex 17.05 7.35492 44.3
    endloop
  endfacet
  facet normal -0 0.997707 0.0676781
    outer loop
      vertex 13.6 7.53129 41.7
      vertex 18.6723 7.33749 44.557
      vertex 111.4 7.53129 41.7
    endloop
  endfacet
  facet normal 1.67936e-008 0.997707 0.0676787
    outer loop
      vertex 20.1359 7.28691 45.3027
      vertex 111.4 7.53129 41.7
      vertex 18.6723 7.33749 44.557
    endloop
  endfacet
  facet normal -8.04542e-009 0.997707 0.0676782
    outer loop
      vertex 123.4 6.1 62.8
      vertex 111.709 7.53461 41.6511
      vertex 111.4 7.53129 41.7
    endloop
  endfacet
  facet normal -3.17098e-007 0.997707 0.0676784
    outer loop
      vertex 123.4 6.1 62.8
      vertex 111.988 7.54425 41.509
      vertex 111.709 7.53461 41.6511
    endloop
  endfacet
  facet normal 1.80596e-007 0.997707 0.0676781
    outer loop
      vertex 123.4 6.1 62.8
      vertex 112.209 7.55925 41.2878
      vertex 111.988 7.54425 41.509
    endloop
  endfacet
  facet normal -5.4413e-007 0.997707 0.0676785
    outer loop
      vertex 123.4 6.1 62.8
      vertex 112.351 7.57816 41.009
      vertex 112.209 7.55925 41.2878
    endloop
  endfacet
  facet normal 1.08355e-007 0.997707 0.0676781
    outer loop
      vertex 123.4 6.1 62.8
      vertex 112.4 7.59912 40.7
      vertex 112.351 7.57816 41.009
    endloop
  endfacet
  facet normal 1.83099e-008 0.997707 0.0676782
    outer loop
      vertex 125.6 9.2 17.1
      vertex 112.4 7.59912 40.7
      vertex 123.4 6.1 62.8
    endloop
  endfacet
  facet normal 0 0.997707 0.0676782
    outer loop
      vertex 112.4 7.59912 40.7
      vertex 125.6 9.2 17.1
      vertex 112.4 9.2 17.1
    endloop
  endfacet
  facet normal -0 0.997707 0.0676782
    outer loop
      vertex 7.7 6.64267 54.8
      vertex 1.6 6.1 62.8
      vertex 17.05 6.64267 54.8
    endloop
  endfacet
  facet normal -6.31354e-008 0.997707 0.0676781
    outer loop
      vertex 7.7 7.35492 44.3
      vertex 1.6 6.1 62.8
      vertex 7.7 6.64267 54.8
    endloop
  endfacet
  facet normal -6.31463e-009 0.997707 0.0676783
    outer loop
      vertex 13.291 7.53461 41.6511
      vertex 17.05 7.35492 44.3
      vertex 13.6 7.53129 41.7
    endloop
  endfacet
  facet normal 0 0.997707 0.0676783
    outer loop
      vertex 17.05 7.35492 44.3
      vertex 13.291 7.53461 41.6511
      vertex 7.7 7.35492 44.3
    endloop
  endfacet
  facet normal 1.74675e-007 0.997707 0.0676786
    outer loop
      vertex 13.0122 7.54425 41.509
      vertex 7.7 7.35492 44.3
      vertex 13.291 7.53461 41.6511
    endloop
  endfacet
  facet normal -1.35853e-007 0.997707 0.067678
    outer loop
      vertex 12.791 7.55925 41.2878
      vertex 7.7 7.35492 44.3
      vertex 13.0122 7.54425 41.509
    endloop
  endfacet
  facet normal 2.13401e-007 0.997707 0.0676786
    outer loop
      vertex 12.6489 7.57816 41.009
      vertex 7.7 7.35492 44.3
      vertex 12.791 7.55925 41.2878
    endloop
  endfacet
  facet normal -1.17686e-007 0.997707 0.0676781
    outer loop
      vertex 12.6 7.59912 40.7
      vertex 7.7 7.35492 44.3
      vertex 12.6489 7.57816 41.009
    endloop
  endfacet
  facet normal -0 0.997707 0.0676782
    outer loop
      vertex -0.599999 9.2 17.1
      vertex 12.6 7.59912 40.7
      vertex 12.6 9.2 17.1
    endloop
  endfacet
  facet normal -6.61743e-008 0.997707 0.0676782
    outer loop
      vertex 12.6 7.59912 40.7
      vertex -0.599999 9.2 17.1
      vertex 7.7 7.35492 44.3
    endloop
  endfacet
  facet normal 2.9027e-008 0.997707 0.0676782
    outer loop
      vertex 7.7 7.35492 44.3
      vertex -0.599999 9.2 17.1
      vertex 1.6 6.1 62.8
    endloop
  endfacet
  facet normal -1 0 0
    outer loop
      vertex 18.55 0 62.8
      vertex 18.55 3.8 65.3
      vertex 18.55 3.8 62.8
    endloop
  endfacet
  facet normal -1 -0 0
    outer loop
      vertex 18.55 3.8 65.3
      vertex 18.55 0 62.8
      vertex 18.55 0 65.3
    endloop
  endfacet
  facet normal -0 0 1
    outer loop
      vertex 18.55 3.8 65.3
      vertex 106.45 0 65.3
      vertex 106.45 3.8 65.3
    endloop
  endfacet
  facet normal 0 0 1
    outer loop
      vertex 106.45 0 65.3
      vertex 18.55 3.8 65.3
      vertex 18.55 0 65.3
    endloop
  endfacet
  facet normal 1 -0 0
    outer loop
      vertex 106.45 0 65.3
      vertex 106.45 3.8 62.8
      vertex 106.45 3.8 65.3
    endloop
  endfacet
  facet normal 1 0 0
    outer loop
      vertex 106.45 3.8 62.8
      vertex 106.45 0 65.3
      vertex 106.45 0 62.8
    endloop
  endfacet
  facet normal 0 1 -0
    outer loop
      vertex 106.45 3.8 62.8
      vertex 18.55 3.8 65.3
      vertex 106.45 3.8 65.3
    endloop
  endfacet
  facet normal 0 1 0
    outer loop
      vertex 18.55 3.8 65.3
      vertex 106.45 3.8 62.8
      vertex 18.55 3.8 62.8
    endloop
  endfacet
  facet normal -1 0 0
    outer loop
      vertex -3.95 0 16.8
      vertex -3.95 5.1 16.9
      vertex -3.95 5.1 16.8
    endloop
  endfacet
  facet normal -1 -0 0
    outer loop
      vertex -3.95 5.1 16.9
      vertex -3.95 0 16.8
      vertex -3.95 0 16.9
    endloop
  endfacet
  facet normal 0 0 -1
    outer loop
      vertex -3.95 0 16.8
      vertex -0.591724 5.1 16.8
      vertex -0.591724 0 16.8
    endloop
  endfacet
  facet normal -0 0 -1
    outer loop
      vertex -0.591724 5.1 16.8
      vertex -3.95 0 16.8
      vertex -3.95 5.1 16.8
    endloop
  endfacet
  facet normal 0 0 -1
    outer loop
      vertex 125.592 0 16.8
      vertex 128.95 5.1 16.8
      vertex 128.95 0 16.8
    endloop
  endfacet
  facet normal -0 0 -1
    outer loop
      vertex 128.95 5.1 16.8
      vertex 125.592 0 16.8
      vertex 125.592 5.1 16.8
    endloop
  endfacet
  facet normal 0.999099 0 0.0424453
    outer loop
      vertex 128.95 0 16.9
      vertex 127 3.1 62.8
      vertex 127 0 62.8
    endloop
  endfacet
  facet normal 0.999099 0 0.0424453
    outer loop
      vertex 127 3.1 62.8
      vertex 128.95 0 16.9
      vertex 128.95 5.1 16.9
    endloop
  endfacet
  facet normal 1 -0 0
    outer loop
      vertex 128.95 0 16.9
      vertex 128.95 5.1 16.8
      vertex 128.95 5.1 16.9
    endloop
  endfacet
  facet normal 1 0 0
    outer loop
      vertex 128.95 5.1 16.8
      vertex 128.95 0 16.9
      vertex 128.95 0 16.8
    endloop
  endfacet
  facet normal -0.999099 0 0.0424454
    outer loop
      vertex -3.95 0 16.9
      vertex -2 3.1 62.8
      vertex -3.95 5.1 16.9
    endloop
  endfacet
  facet normal -0.999099 0 0.0424454
    outer loop
      vertex -2 3.1 62.8
      vertex -3.95 0 16.9
      vertex -2 0 62.8
    endloop
  endfacet
  facet normal 0 1 0
    outer loop
      vertex -3.95 5.1 16.8
      vertex -0.595861 5.1 16.9
      vertex -0.591724 5.1 16.8
    endloop
  endfacet
  facet normal 0 1 0
    outer loop
      vertex -0.595861 5.1 16.9
      vertex -3.95 5.1 16.8
      vertex -3.95 5.1 16.9
    endloop
  endfacet
  facet normal 0 1 -0
    outer loop
      vertex 128.95 5.1 16.8
      vertex 125.596 5.1 16.9
      vertex 128.95 5.1 16.9
    endloop
  endfacet
  facet normal 0 1 0
    outer loop
      vertex 125.596 5.1 16.9
      vertex 128.95 5.1 16.8
      vertex 125.592 5.1 16.8
    endloop
  endfacet
  facet normal 0 0.999052 0.0435317
    outer loop
      vertex 127 3.1 62.8
      vertex 125.6 5.09128 17.1
      vertex 123.4 3.1 62.8
    endloop
  endfacet
  facet normal -3.8493e-008 0.999052 0.0435317
    outer loop
      vertex 128.95 5.1 16.9
      vertex 125.6 5.09128 17.1
      vertex 127 3.1 62.8
    endloop
  endfacet
  facet normal 2.47857e-008 0.999052 0.0435327
    outer loop
      vertex 125.6 5.09128 17.1
      vertex 128.95 5.1 16.9
      vertex 125.6 5.09564 17
    endloop
  endfacet
  facet normal 0 0.999052 0.0435319
    outer loop
      vertex 125.6 5.09564 17
      vertex 128.95 5.1 16.9
      vertex 125.596 5.1 16.9
    endloop
  endfacet
  facet normal 0 0.999052 0.0435317
    outer loop
      vertex -0.599999 5.09128 17.1
      vertex -2 3.1 62.8
      vertex 1.6 3.1 62.8
    endloop
  endfacet
  facet normal -2.47857e-008 0.999052 0.0435327
    outer loop
      vertex -3.95 5.1 16.9
      vertex -0.599999 5.09128 17.1
      vertex -0.599999 5.09564 17
    endloop
  endfacet
  facet normal 3.84929e-008 0.999052 0.0435317
    outer loop
      vertex -0.599999 5.09128 17.1
      vertex -3.95 5.1 16.9
      vertex -2 3.1 62.8
    endloop
  endfacet
  facet normal -0 0.999052 0.0435319
    outer loop
      vertex -3.95 5.1 16.9
      vertex -0.599999 5.09564 17
      vertex -0.595861 5.1 16.9
    endloop
  endfacet
  facet normal -0.511804 0 -0.859102
    outer loop
      vertex 46.85 0 37.6
      vertex 49.2 1.5 36.2
      vertex 49.2 0 36.2
    endloop
  endfacet
  facet normal -0.511804 0 -0.859102
    outer loop
      vertex 49.2 1.5 36.2
      vertex 46.85 0 37.6
      vertex 46.85 1.5 37.6
    endloop
  endfacet
  facet normal -0 0 1
    outer loop
      vertex 33.2 1.5 31.5
      vertex 49.2 0 31.5
      vertex 49.2 1.5 31.5
    endloop
  endfacet
  facet normal 0 0 1
    outer loop
      vertex 49.2 0 31.5
      vertex 33.2 1.5 31.5
      vertex 33.2 0 31.5
    endloop
  endfacet
  facet normal 0 0 -1
    outer loop
      vertex 35.55 0 37.6
      vertex 46.85 1.5 37.6
      vertex 46.85 0 37.6
    endloop
  endfacet
  facet normal -0 0 -1
    outer loop
      vertex 46.85 1.5 37.6
      vertex 35.55 0 37.6
      vertex 35.55 1.5 37.6
    endloop
  endfacet
  facet normal -1 0 0
    outer loop
      vertex 49.2 0 31.5
      vertex 49.2 1.5 36.2
      vertex 49.2 1.5 31.5
    endloop
  endfacet
  facet normal -1 -0 0
    outer loop
      vertex 49.2 1.5 36.2
      vertex 49.2 0 31.5
      vertex 49.2 0 36.2
    endloop
  endfacet
  facet normal 1 -0 0
    outer loop
      vertex 33.2 0 36.2
      vertex 33.2 1.5 31.5
      vertex 33.2 1.5 36.2
    endloop
  endfacet
  facet normal 1 0 0
    outer loop
      vertex 33.2 1.5 31.5
      vertex 33.2 0 36.2
      vertex 33.2 0 31.5
    endloop
  endfacet
  facet normal 0.511805 0 -0.859102
    outer loop
      vertex 33.2 0 36.2
      vertex 35.55 1.5 37.6
      vertex 35.55 0 37.6
    endloop
  endfacet
  facet normal 0.511805 0 -0.859102
    outer loop
      vertex 35.55 1.5 37.6
      vertex 33.2 0 36.2
      vertex 33.2 1.5 36.2
    endloop
  endfacet
  facet normal -0.987689 0 -0.156433
    outer loop
      vertex 65.95 0 34.6
      vertex 65.7909 1.5 35.6043
      vertex 65.95 1.5 34.6
    endloop
  endfacet
  facet normal -0.987689 -0 -0.156433
    outer loop
      vertex 65.7909 1.5 35.6043
      vertex 65.95 0 34.6
      vertex 65.7909 0 35.6043
    endloop
  endfacet
  facet normal 0.987689 1.85265e-007 0.156432
    outer loop
      vertex 59.6091 0 33.5957
      vertex 59.4862 1.5 34.3717
      vertex 59.4645 0 34.5087
    endloop
  endfacet
  facet normal 0.987689 0 0.156433
    outer loop
      vertex 59.4862 1.5 34.3717
      vertex 59.6091 0 33.5957
      vertex 59.6091 1.5 33.5957
    endloop
  endfacet
  facet normal 0.156444 0 -0.987687
    outer loop
      vertex 61.6957 1.5 37.6909
      vertex 61.787 0 37.7054
      vertex 61.6957 0 37.6909
    endloop
  endfacet
  facet normal 0.156436 -5.02364e-007 -0.987688
    outer loop
      vertex 61.787 0 37.7054
      vertex 61.6957 1.5 37.6909
      vertex 61.9239 1.5 37.7271
    endloop
  endfacet
  facet normal -0.156436 0 0.987688
    outer loop
      vertex 62.7 1.5 31.35
      vertex 63.7043 0 31.5091
      vertex 63.7043 1.5 31.5091
    endloop
  endfacet
  facet normal -0.156436 0 0.987688
    outer loop
      vertex 63.7043 0 31.5091
      vertex 62.7 1.5 31.35
      vertex 62.7 0 31.35
    endloop
  endfacet
  facet normal -0.453991 0 0.891006
    outer loop
      vertex 63.7043 1.5 31.5091
      vertex 64.6103 0 31.9707
      vertex 64.6103 1.5 31.9707
    endloop
  endfacet
  facet normal -0.453991 0 0.891006
    outer loop
      vertex 64.6103 0 31.9707
      vertex 63.7043 1.5 31.5091
      vertex 63.7043 0 31.5091
    endloop
  endfacet
  facet normal -0.707103 0 -0.707111
    outer loop
      vertex 64.6103 0 37.2293
      vertex 65.3293 1.5 36.5103
      vertex 65.3293 0 36.5103
    endloop
  endfacet
  facet normal -0.707103 0 -0.707111
    outer loop
      vertex 65.3293 1.5 36.5103
      vertex 64.6103 0 37.2293
      vertex 64.6103 1.5 37.2293
    endloop
  endfacet
  facet normal -0.891009 0 -0.453987
    outer loop
      vertex 65.7909 0 35.6043
      vertex 65.3293 1.5 36.5103
      vertex 65.7909 1.5 35.6043
    endloop
  endfacet
  facet normal -0.891009 -0 -0.453987
    outer loop
      vertex 65.3293 1.5 36.5103
      vertex 65.7909 0 35.6043
      vertex 65.3293 0 36.5103
    endloop
  endfacet
  facet normal 0.707105 0 -0.707109
    outer loop
      vertex 60.0707 0 36.5103
      vertex 60.7897 1.5 37.2293
      vertex 60.7897 0 37.2293
    endloop
  endfacet
  facet normal 0.707105 0 -0.707109
    outer loop
      vertex 60.7897 1.5 37.2293
      vertex 60.0707 0 36.5103
      vertex 60.0707 1.5 36.5103
    endloop
  endfacet
  facet normal 0.453991 0 -0.891006
    outer loop
      vertex 60.7897 0 37.2293
      vertex 61.6957 1.5 37.6909
      vertex 61.6957 0 37.6909
    endloop
  endfacet
  facet normal 0.453991 0 -0.891006
    outer loop
      vertex 61.6957 1.5 37.6909
      vertex 60.7897 0 37.2293
      vertex 60.7897 1.5 37.2293
    endloop
  endfacet
  facet normal 0.156433 0 -0.987689
    outer loop
      vertex 62.7 0 37.85
      vertex 61.9239 1.5 37.7271
      vertex 62.7 1.5 37.85
    endloop
  endfacet
  facet normal 0.156432 -1.85265e-007 -0.987689
    outer loop
      vertex 61.9239 1.5 37.7271
      vertex 62.7 0 37.85
      vertex 61.787 0 37.7054
    endloop
  endfacet
  facet normal -0.156444 0 -0.987687
    outer loop
      vertex 63.613 0 37.7054
      vertex 63.7043 1.5 37.6909
      vertex 63.7043 0 37.6909
    endloop
  endfacet
  facet normal -0.156438 -3.43227e-007 -0.987688
    outer loop
      vertex 63.7043 1.5 37.6909
      vertex 63.613 0 37.7054
      vertex 63.4761 1.5 37.7271
    endloop
  endfacet
  facet normal -0.453991 0 -0.891006
    outer loop
      vertex 63.7043 0 37.6909
      vertex 64.6103 1.5 37.2293
      vertex 64.6103 0 37.2293
    endloop
  endfacet
  facet normal -0.453991 0 -0.891006
    outer loop
      vertex 64.6103 1.5 37.2293
      vertex 63.7043 0 37.6909
      vertex 63.7043 1.5 37.6909
    endloop
  endfacet
  facet normal 0.987689 -1.85265e-007 -0.156432
    outer loop
      vertex 59.45 0 34.6
      vertex 59.5729 1.5 35.3761
      vertex 59.5946 0 35.513
    endloop
  endfacet
  facet normal 0.987689 0 -0.156433
    outer loop
      vertex 59.5729 1.5 35.3761
      vertex 59.45 0 34.6
      vertex 59.45 1.5 34.6
    endloop
  endfacet
  facet normal 0.987686 0 0.15645
    outer loop
      vertex 59.4645 0 34.5087
      vertex 59.45 1.5 34.6
      vertex 59.45 0 34.6
    endloop
  endfacet
  facet normal 0.987688 7.4107e-007 0.156438
    outer loop
      vertex 59.45 1.5 34.6
      vertex 59.4645 0 34.5087
      vertex 59.4862 1.5 34.3717
    endloop
  endfacet
  facet normal 0.891007 0 -0.45399
    outer loop
      vertex 60.0707 0 36.5103
      vertex 59.6091 1.5 35.6043
      vertex 60.0707 1.5 36.5103
    endloop
  endfacet
  facet normal 0.891007 0 -0.45399
    outer loop
      vertex 59.6091 1.5 35.6043
      vertex 60.0707 0 36.5103
      vertex 59.6091 0 35.6043
    endloop
  endfacet
  facet normal -0.987688 0 0.156434
    outer loop
      vertex 65.7909 0 33.5957
      vertex 65.95 1.5 34.6
      vertex 65.7909 1.5 33.5957
    endloop
  endfacet
  facet normal -0.987688 0 0.156434
    outer loop
      vertex 65.95 1.5 34.6
      vertex 65.7909 0 33.5957
      vertex 65.95 0 34.6
    endloop
  endfacet
  facet normal -0.707103 0 0.707111
    outer loop
      vertex 64.6103 1.5 31.9707
      vertex 65.3293 0 32.6897
      vertex 65.3293 1.5 32.6897
    endloop
  endfacet
  facet normal -0.707103 0 0.707111
    outer loop
      vertex 65.3293 0 32.6897
      vertex 64.6103 1.5 31.9707
      vertex 64.6103 0 31.9707
    endloop
  endfacet
  facet normal -0.891009 0 0.453987
    outer loop
      vertex 65.3293 0 32.6897
      vertex 65.7909 1.5 33.5957
      vertex 65.3293 1.5 32.6897
    endloop
  endfacet
  facet normal -0.891009 0 0.453987
    outer loop
      vertex 65.7909 1.5 33.5957
      vertex 65.3293 0 32.6897
      vertex 65.7909 0 33.5957
    endloop
  endfacet
  facet normal -0.156433 1.52889e-007 -0.987689
    outer loop
      vertex 62.7 0 37.85
      vertex 63.4761 1.5 37.7271
      vertex 63.613 0 37.7054
    endloop
  endfacet
  facet normal -0.156433 0 -0.987689
    outer loop
      vertex 63.4761 1.5 37.7271
      vertex 62.7 0 37.85
      vertex 62.7 1.5 37.85
    endloop
  endfacet
  facet normal 0.987687 0 -0.156444
    outer loop
      vertex 59.5946 0 35.513
      vertex 59.6091 1.5 35.6043
      vertex 59.6091 0 35.6043
    endloop
  endfacet
  facet normal 0.987688 -5.02364e-007 -0.156436
    outer loop
      vertex 59.6091 1.5 35.6043
      vertex 59.5946 0 35.513
      vertex 59.5729 1.5 35.3761
    endloop
  endfacet
  facet normal 0.707105 0 0.707109
    outer loop
      vertex 60.0707 1.5 32.6897
      vertex 60.7897 0 31.9707
      vertex 60.7897 1.5 31.9707
    endloop
  endfacet
  facet normal 0.707105 0 0.707109
    outer loop
      vertex 60.7897 0 31.9707
      vertex 60.0707 1.5 32.6897
      vertex 60.0707 0 32.6897
    endloop
  endfacet
  facet normal 0.891007 -0 0.45399
    outer loop
      vertex 59.6091 0 33.5957
      vertex 60.0707 1.5 32.6897
      vertex 59.6091 1.5 33.5957
    endloop
  endfacet
  facet normal 0.891007 0 0.45399
    outer loop
      vertex 60.0707 1.5 32.6897
      vertex 59.6091 0 33.5957
      vertex 60.0707 0 32.6897
    endloop
  endfacet
  facet normal 0.156435 0 0.987688
    outer loop
      vertex 61.6957 1.5 31.5091
      vertex 62.7 0 31.35
      vertex 62.7 1.5 31.35
    endloop
  endfacet
  facet normal 0.156435 0 0.987688
    outer loop
      vertex 62.7 0 31.35
      vertex 61.6957 1.5 31.5091
      vertex 61.6957 0 31.5091
    endloop
  endfacet
  facet normal 0.453991 0 0.891006
    outer loop
      vertex 60.7897 1.5 31.9707
      vertex 61.6957 0 31.5091
      vertex 61.6957 1.5 31.5091
    endloop
  endfacet
  facet normal 0.453991 0 0.891006
    outer loop
      vertex 61.6957 0 31.5091
      vertex 60.7897 1.5 31.9707
      vertex 60.7897 0 31.9707
    endloop
  endfacet
  facet normal -0.453989 0 0.891007
    outer loop
      vertex 18.6723 0 44.557
      vertex 20.1359 7.28691 45.3027
      vertex 18.6723 7.33749 44.557
    endloop
  endfacet
  facet normal -0.453989 0 0.891007
    outer loop
      vertex 20.1359 7.28691 45.3027
      vertex 18.6723 0 44.557
      vertex 20.1359 0 45.3027
    endloop
  endfacet
  facet normal 1 0 0
    outer loop
      vertex 7.7 0 44.3
      vertex 7.7 6.64267 54.8
      vertex 7.7 0 54.8
    endloop
  endfacet
  facet normal 1 0 0
    outer loop
      vertex 7.7 6.64267 54.8
      vertex 7.7 0 44.3
      vertex 7.7 7.35492 44.3
    endloop
  endfacet
  facet normal -0.156435 0 0.987688
    outer loop
      vertex 17.05 0 44.3
      vertex 18.6723 7.33749 44.557
      vertex 17.05 7.35492 44.3
    endloop
  endfacet
  facet normal -0.156435 0 0.987688
    outer loop
      vertex 18.6723 7.33749 44.557
      vertex 17.05 0 44.3
      vertex 18.6723 0 44.557
    endloop
  endfacet
  facet normal -0.891007 0 0.453991
    outer loop
      vertex 21.2973 0 46.4641
      vertex 22.043 7.10885 47.9277
      vertex 21.2973 7.20812 46.4641
    endloop
  endfacet
  facet normal -0.891007 0 0.453991
    outer loop
      vertex 22.043 7.10885 47.9277
      vertex 21.2973 0 46.4641
      vertex 22.043 0 47.9277
    endloop
  endfacet
  facet normal -0.453989 -0 -0.891007
    outer loop
      vertex 18.6723 6.6601 54.543
      vertex 20.1359 0 53.7973
      vertex 18.6723 0 54.543
    endloop
  endfacet
  facet normal -0.453989 0 -0.891007
    outer loop
      vertex 20.1359 0 53.7973
      vertex 18.6723 6.6601 54.543
      vertex 20.1359 6.71068 53.7973
    endloop
  endfacet
  facet normal 0 0 -1
    outer loop
      vertex 7.7 0 54.8
      vertex 17.05 6.64267 54.8
      vertex 17.05 0 54.8
    endloop
  endfacet
  facet normal -0 0 -1
    outer loop
      vertex 17.05 6.64267 54.8
      vertex 7.7 0 54.8
      vertex 7.7 6.64267 54.8
    endloop
  endfacet
  facet normal -0.891007 0 -0.453991
    outer loop
      vertex 22.043 0 51.1723
      vertex 21.2973 6.78947 52.6359
      vertex 22.043 6.88875 51.1723
    endloop
  endfacet
  facet normal -0.891007 -0 -0.453991
    outer loop
      vertex 21.2973 6.78947 52.6359
      vertex 22.043 0 51.1723
      vertex 21.2973 0 52.6359
    endloop
  endfacet
  facet normal -0 0 1
    outer loop
      vertex 7.7 7.35492 44.3
      vertex 17.05 0 44.3
      vertex 17.05 7.35492 44.3
    endloop
  endfacet
  facet normal 0 0 1
    outer loop
      vertex 17.05 0 44.3
      vertex 7.7 7.35492 44.3
      vertex 7.7 0 44.3
    endloop
  endfacet
  facet normal -0.707107 0 0.707106
    outer loop
      vertex 20.1359 0 45.3027
      vertex 21.2973 7.20812 46.4641
      vertex 20.1359 7.28691 45.3027
    endloop
  endfacet
  facet normal -0.707107 0 0.707106
    outer loop
      vertex 21.2973 7.20812 46.4641
      vertex 20.1359 0 45.3027
      vertex 21.2973 0 46.4641
    endloop
  endfacet
  facet normal -0.987688 0 0.156435
    outer loop
      vertex 22.043 0 47.9277
      vertex 22.3 6.9988 49.55
      vertex 22.043 7.10885 47.9277
    endloop
  endfacet
  facet normal -0.987688 0 0.156435
    outer loop
      vertex 22.3 6.9988 49.55
      vertex 22.043 0 47.9277
      vertex 22.3 0 49.55
    endloop
  endfacet
  facet normal -0.156435 -0 -0.987688
    outer loop
      vertex 17.05 6.64267 54.8
      vertex 18.6723 0 54.543
      vertex 17.05 0 54.8
    endloop
  endfacet
  facet normal -0.156435 0 -0.987688
    outer loop
      vertex 18.6723 0 54.543
      vertex 17.05 6.64267 54.8
      vertex 18.6723 6.6601 54.543
    endloop
  endfacet
  facet normal -0.987688 0 -0.156435
    outer loop
      vertex 22.3 0 49.55
      vertex 22.043 6.88875 51.1723
      vertex 22.3 6.9988 49.55
    endloop
  endfacet
  facet normal -0.987688 -0 -0.156435
    outer loop
      vertex 22.043 6.88875 51.1723
      vertex 22.3 0 49.55
      vertex 22.043 0 51.1723
    endloop
  endfacet
  facet normal -0.707107 0 -0.707106
    outer loop
      vertex 21.2973 0 52.6359
      vertex 20.1359 6.71068 53.7973
      vertex 21.2973 6.78947 52.6359
    endloop
  endfacet
  facet normal -0.707107 -0 -0.707106
    outer loop
      vertex 20.1359 6.71068 53.7973
      vertex 21.2973 0 52.6359
      vertex 20.1359 0 53.7973
    endloop
  endfacet
  facet normal 0.156444 0 -0.987687
    outer loop
      vertex 13.291 1.5 41.6511
      vertex 13.6 7.53129 41.7
      vertex 13.6 1.5 41.7
    endloop
  endfacet
  facet normal 0.156444 0 -0.987687
    outer loop
      vertex 13.6 7.53129 41.7
      vertex 13.291 1.5 41.6511
      vertex 13.291 7.53461 41.6511
    endloop
  endfacet
  facet normal 0.707107 -0 0.707107
    outer loop
      vertex 12.791 1.5 5.91221
      vertex 13.0122 8.81003 5.69098
      vertex 12.791 8.81766 5.91221
    endloop
  endfacet
  facet normal 0.707107 0 0.707107
    outer loop
      vertex 13.0122 8.81003 5.69098
      vertex 12.791 1.5 5.91221
      vertex 13.0122 1.5 5.69098
    endloop
  endfacet
  facet normal 0 0 -1
    outer loop
      vertex 13.6 1.5 41.7
      vertex 111.4 7.53129 41.7
      vertex 111.4 1.5 41.7
    endloop
  endfacet
  facet normal -0 0 -1
    outer loop
      vertex 111.4 7.53129 41.7
      vertex 13.6 1.5 41.7
      vertex 13.6 7.53129 41.7
    endloop
  endfacet
  facet normal 0 1 -0
    outer loop
      vertex 60.7897 1.5 37.2293
      vertex 46.85 1.5 37.6
      vertex 61.6957 1.5 37.6909
    endloop
  endfacet
  facet normal 0 1 0
    outer loop
      vertex 49.2 1.5 36.2
      vertex 60.7897 1.5 37.2293
      vertex 60.0707 1.5 36.5103
    endloop
  endfacet
  facet normal 0 1 0
    outer loop
      vertex 60.7897 1.5 37.2293
      vertex 49.2 1.5 36.2
      vertex 46.85 1.5 37.6
    endloop
  endfacet
  facet normal 0 1 -0
    outer loop
      vertex 59.6091 1.5 35.6043
      vertex 49.2 1.5 36.2
      vertex 60.0707 1.5 36.5103
    endloop
  endfacet
  facet normal 0 1 -0
    outer loop
      vertex 59.5729 1.5 35.3761
      vertex 49.2 1.5 36.2
      vertex 59.6091 1.5 35.6043
    endloop
  endfacet
  facet normal 0 1 -0
    outer loop
      vertex 59.45 1.5 34.6
      vertex 49.2 1.5 36.2
      vertex 59.5729 1.5 35.3761
    endloop
  endfacet
  facet normal 0 1 0
    outer loop
      vertex 49.2 1.5 31.5
      vertex 59.45 1.5 34.6
      vertex 59.4862 1.5 34.3717
    endloop
  endfacet
  facet normal 0 1 0
    outer loop
      vertex 49.2 1.5 31.5
      vertex 59.4862 1.5 34.3717
      vertex 59.6091 1.5 33.5957
    endloop
  endfacet
  facet normal 0 1 0
    outer loop
      vertex 49.2 1.5 31.5
      vertex 59.6091 1.5 33.5957
      vertex 60.0707 1.5 32.6897
    endloop
  endfacet
  facet normal 0 1 0
    outer loop
      vertex 49.2 1.5 31.5
      vertex 60.0707 1.5 32.6897
      vertex 60.7897 1.5 31.9707
    endloop
  endfacet
  facet normal 0 1 0
    outer loop
      vertex 49.2 1.5 31.5
      vertex 60.7897 1.5 31.9707
      vertex 61.6957 1.5 31.5091
    endloop
  endfacet
  facet normal 0 1 0
    outer loop
      vertex 59.45 1.5 34.6
      vertex 49.2 1.5 31.5
      vertex 49.2 1.5 36.2
    endloop
  endfacet
  facet normal 0 1 0
    outer loop
      vertex 13.6 1.5 5.5
      vertex 49.2 1.5 31.5
      vertex 62.7 1.5 31.35
    endloop
  endfacet
  facet normal 0 1 0
    outer loop
      vertex 62.7 1.5 31.35
      vertex 49.2 1.5 31.5
      vertex 61.6957 1.5 31.5091
    endloop
  endfacet
  facet normal 0 1 0
    outer loop
      vertex 112.4 1.5 40.7
      vertex 111.4 1.5 41.7
      vertex 111.709 1.5 41.6511
    endloop
  endfacet
  facet normal 0 1 0
    outer loop
      vertex 111.4 1.5 41.7
      vertex 62.7 1.5 37.85
      vertex 13.6 1.5 41.7
    endloop
  endfacet
  facet normal 0 1 0
    outer loop
      vertex 112.4 1.5 40.7
      vertex 111.709 1.5 41.6511
      vertex 111.988 1.5 41.509
    endloop
  endfacet
  facet normal 0 1 -0
    outer loop
      vertex 46.85 1.5 37.6
      vertex 13.6 1.5 41.7
      vertex 62.7 1.5 37.85
    endloop
  endfacet
  facet normal 0 1 0
    outer loop
      vertex 112.4 1.5 40.7
      vertex 111.988 1.5 41.509
      vertex 112.209 1.5 41.2878
    endloop
  endfacet
  facet normal 0 1 -0
    outer loop
      vertex 35.55 1.5 37.6
      vertex 13.6 1.5 41.7
      vertex 46.85 1.5 37.6
    endloop
  endfacet
  facet normal 0 1 0
    outer loop
      vertex 112.4 1.5 40.7
      vertex 112.209 1.5 41.2878
      vertex 112.351 1.5 41.009
    endloop
  endfacet
  facet normal 0 1 -0
    outer loop
      vertex 33.2 1.5 36.2
      vertex 13.6 1.5 41.7
      vertex 35.55 1.5 37.6
    endloop
  endfacet
  facet normal 0 1 0
    outer loop
      vertex 111.4 1.5 5.5
      vertex 111.4 1.5 41.7
      vertex 112.4 1.5 40.7
    endloop
  endfacet
  facet normal 0 1 -0
    outer loop
      vertex 33.2 1.5 31.5
      vertex 13.6 1.5 41.7
      vertex 33.2 1.5 36.2
    endloop
  endfacet
  facet normal 0 1 0
    outer loop
      vertex 13.6 1.5 41.7
      vertex 12.6 1.5 40.7
      vertex 13.291 1.5 41.6511
    endloop
  endfacet
  facet normal 0 1 0
    outer loop
      vertex 111.4 1.5 41.7
      vertex 63.4761 1.5 37.7271
      vertex 62.7 1.5 37.85
    endloop
  endfacet
  facet normal 0 1 0
    outer loop
      vertex 111.4 1.5 41.7
      vertex 63.7043 1.5 37.6909
      vertex 63.4761 1.5 37.7271
    endloop
  endfacet
  facet normal 0 1 0
    outer loop
      vertex 111.4 1.5 41.7
      vertex 64.6103 1.5 37.2293
      vertex 63.7043 1.5 37.6909
    endloop
  endfacet
  facet normal 0 1 0
    outer loop
      vertex 111.4 1.5 41.7
      vertex 65.3293 1.5 36.5103
      vertex 64.6103 1.5 37.2293
    endloop
  endfacet
  facet normal 0 1 0
    outer loop
      vertex 111.4 1.5 41.7
      vertex 65.7909 1.5 35.6043
      vertex 65.3293 1.5 36.5103
    endloop
  endfacet
  facet normal 0 1 0
    outer loop
      vertex 111.4 1.5 41.7
      vertex 65.95 1.5 34.6
      vertex 65.7909 1.5 35.6043
    endloop
  endfacet
  facet normal 0 1 0
    outer loop
      vertex 111.4 1.5 41.7
      vertex 65.7909 1.5 33.5957
      vertex 65.95 1.5 34.6
    endloop
  endfacet
  facet normal 0 1 0
    outer loop
      vertex 111.4 1.5 41.7
      vertex 111.4 1.5 5.5
      vertex 65.7909 1.5 33.5957
    endloop
  endfacet
  facet normal 0 1 0
    outer loop
      vertex 65.7909 1.5 33.5957
      vertex 111.4 1.5 5.5
      vertex 65.3293 1.5 32.6897
    endloop
  endfacet
  facet normal 0 1 0
    outer loop
      vertex 65.3293 1.5 32.6897
      vertex 111.4 1.5 5.5
      vertex 64.6103 1.5 31.9707
    endloop
  endfacet
  facet normal 0 1 0
    outer loop
      vertex 64.6103 1.5 31.9707
      vertex 111.4 1.5 5.5
      vertex 63.7043 1.5 31.5091
    endloop
  endfacet
  facet normal 0 1 0
    outer loop
      vertex 111.4 1.5 5.5
      vertex 112.4 1.5 40.7
      vertex 112.4 1.5 6.5
    endloop
  endfacet
  facet normal 0 1 0
    outer loop
      vertex 46.85 1.5 37.6
      vertex 62.7 1.5 37.85
      vertex 61.9239 1.5 37.7271
    endloop
  endfacet
  facet normal 0 1 0
    outer loop
      vertex 46.85 1.5 37.6
      vertex 61.9239 1.5 37.7271
      vertex 61.6957 1.5 37.6909
    endloop
  endfacet
  facet normal 0 1 0
    outer loop
      vertex 13.291 1.5 41.6511
      vertex 12.6 1.5 40.7
      vertex 13.0122 1.5 41.509
    endloop
  endfacet
  facet normal 0 1 0
    outer loop
      vertex 13.0122 1.5 41.509
      vertex 12.6 1.5 40.7
      vertex 12.791 1.5 41.2878
    endloop
  endfacet
  facet normal 0 1 0
    outer loop
      vertex 12.791 1.5 41.2878
      vertex 12.6 1.5 40.7
      vertex 12.6489 1.5 41.009
    endloop
  endfacet
  facet normal 0 1 0
    outer loop
      vertex 13.6 1.5 41.7
      vertex 33.2 1.5 31.5
      vertex 12.6 1.5 40.7
    endloop
  endfacet
  facet normal 0 1 0
    outer loop
      vertex 63.7043 1.5 31.5091
      vertex 111.4 1.5 5.5
      vertex 62.7 1.5 31.35
    endloop
  endfacet
  facet normal 0 1 0
    outer loop
      vertex 33.2 1.5 31.5
      vertex 12.6 1.5 6.5
      vertex 12.6 1.5 40.7
    endloop
  endfacet
  facet normal 0 1 0
    outer loop
      vertex 13.6 1.5 5.5
      vertex 62.7 1.5 31.35
      vertex 111.4 1.5 5.5
    endloop
  endfacet
  facet normal 0 1 0
    outer loop
      vertex 111.4 1.5 5.5
      vertex 112.4 1.5 6.5
      vertex 112.351 1.5 6.19098
    endloop
  endfacet
  facet normal 0 1 0
    outer loop
      vertex 49.2 1.5 31.5
      vertex 13.6 1.5 5.5
      vertex 33.2 1.5 31.5
    endloop
  endfacet
  facet normal 0 1 0
    outer loop
      vertex 111.4 1.5 5.5
      vertex 112.351 1.5 6.19098
      vertex 112.209 1.5 5.91221
    endloop
  endfacet
  facet normal 0 1 0
    outer loop
      vertex 33.2 1.5 31.5
      vertex 13.6 1.5 5.5
      vertex 12.6 1.5 6.5
    endloop
  endfacet
  facet normal 0 1 0
    outer loop
      vertex 111.4 1.5 5.5
      vertex 112.209 1.5 5.91221
      vertex 111.988 1.5 5.69098
    endloop
  endfacet
  facet normal 0 1 0
    outer loop
      vertex 12.6 1.5 6.5
      vertex 13.6 1.5 5.5
      vertex 12.6489 1.5 6.19098
    endloop
  endfacet
  facet normal 0 1 0
    outer loop
      vertex 111.4 1.5 5.5
      vertex 111.988 1.5 5.69098
      vertex 111.709 1.5 5.54894
    endloop
  endfacet
  facet normal 0 1 0
    outer loop
      vertex 12.6489 1.5 6.19098
      vertex 13.6 1.5 5.5
      vertex 12.791 1.5 5.91221
    endloop
  endfacet
  facet normal 0 1 0
    outer loop
      vertex 12.791 1.5 5.91221
      vertex 13.6 1.5 5.5
      vertex 13.0122 1.5 5.69098
    endloop
  endfacet
  facet normal 0 1 0
    outer loop
      vertex 13.0122 1.5 5.69098
      vertex 13.6 1.5 5.5
      vertex 13.291 1.5 5.54894
    endloop
  endfacet
  facet normal 1 0 0
    outer loop
      vertex 12.6 1.5 6.5
      vertex 12.6 9.2 17
      vertex 12.6 9.2 17.1
    endloop
  endfacet
  facet normal 1 -0 0
    outer loop
      vertex 12.6 1.5 40.7
      vertex 12.6 9.2 17.1
      vertex 12.6 7.59912 40.7
    endloop
  endfacet
  facet normal 1 0 0
    outer loop
      vertex 12.6 9.2 17.1
      vertex 12.6 1.5 40.7
      vertex 12.6 1.5 6.5
    endloop
  endfacet
  facet normal 1 0 0
    outer loop
      vertex 12.6 9.2 17
      vertex 12.6 1.5 6.5
      vertex 12.6 8.83793 6.5
    endloop
  endfacet
  facet normal -1 0 0
    outer loop
      vertex 112.4 1.5 6.5
      vertex 112.4 9.2 17
      vertex 112.4 8.83793 6.5
    endloop
  endfacet
  facet normal -1 -0 0
    outer loop
      vertex 112.4 9.2 17
      vertex 112.4 1.5 6.5
      vertex 112.4 9.2 17.1
    endloop
  endfacet
  facet normal -1 0 0
    outer loop
      vertex 112.4 1.5 40.7
      vertex 112.4 9.2 17.1
      vertex 112.4 1.5 6.5
    endloop
  endfacet
  facet normal -1 0 0
    outer loop
      vertex 112.4 9.2 17.1
      vertex 112.4 1.5 40.7
      vertex 112.4 7.59912 40.7
    endloop
  endfacet
  facet normal -0.987689 0 -0.156432
    outer loop
      vertex 112.4 1.5 40.7
      vertex 112.351 7.57816 41.009
      vertex 112.4 7.59912 40.7
    endloop
  endfacet
  facet normal -0.987689 -0 -0.156432
    outer loop
      vertex 112.351 7.57816 41.009
      vertex 112.4 1.5 40.7
      vertex 112.351 1.5 41.009
    endloop
  endfacet
  facet normal 0.453982 0 -0.891011
    outer loop
      vertex 13.0122 1.5 41.509
      vertex 13.291 7.53461 41.6511
      vertex 13.291 1.5 41.6511
    endloop
  endfacet
  facet normal 0.453982 0 -0.891011
    outer loop
      vertex 13.291 7.53461 41.6511
      vertex 13.0122 1.5 41.509
      vertex 13.0122 7.54425 41.509
    endloop
  endfacet
  facet normal 0.891005 0 -0.453994
    outer loop
      vertex 12.6489 1.5 41.009
      vertex 12.791 7.55925 41.2878
      vertex 12.791 1.5 41.2878
    endloop
  endfacet
  facet normal 0.891005 0 -0.453994
    outer loop
      vertex 12.791 7.55925 41.2878
      vertex 12.6489 1.5 41.009
      vertex 12.6489 7.57816 41.009
    endloop
  endfacet
  facet normal 0.987689 0 -0.156432
    outer loop
      vertex 12.6 1.5 40.7
      vertex 12.6489 7.57816 41.009
      vertex 12.6489 1.5 41.009
    endloop
  endfacet
  facet normal 0.987689 0 -0.156432
    outer loop
      vertex 12.6489 7.57816 41.009
      vertex 12.6 1.5 40.7
      vertex 12.6 7.59912 40.7
    endloop
  endfacet
  facet normal 0.156432 0 0.987689
    outer loop
      vertex 13.291 8.80514 5.54894
      vertex 13.6 1.5 5.5
      vertex 13.6 8.80345 5.5
    endloop
  endfacet
  facet normal 0.156432 0 0.987689
    outer loop
      vertex 13.6 1.5 5.5
      vertex 13.291 8.80514 5.54894
      vertex 13.291 1.5 5.54894
    endloop
  endfacet
  facet normal 0.987689 -1.01653e-008 0.156431
    outer loop
      vertex 12.6359 8.83012 6.27349
      vertex 12.6 8.83793 6.5
      vertex 12.6 1.5 6.5
    endloop
  endfacet
  facet normal 0.70711 0 -0.707104
    outer loop
      vertex 12.791 1.5 41.2878
      vertex 13.0122 7.54425 41.509
      vertex 13.0122 1.5 41.509
    endloop
  endfacet
  facet normal 0.70711 0 -0.707104
    outer loop
      vertex 13.0122 7.54425 41.509
      vertex 12.791 1.5 41.2878
      vertex 12.791 7.55925 41.2878
    endloop
  endfacet
  facet normal -0 0 1
    outer loop
      vertex 13.6 8.80345 5.5
      vertex 111.4 1.5 5.5
      vertex 111.4 8.80345 5.5
    endloop
  endfacet
  facet normal 0 0 1
    outer loop
      vertex 111.4 1.5 5.5
      vertex 13.6 8.80345 5.5
      vertex 13.6 1.5 5.5
    endloop
  endfacet
  facet normal 0.891006 -0 0.453992
    outer loop
      vertex 12.6489 1.5 6.19098
      vertex 12.791 8.81766 5.91221
      vertex 12.6489 8.82728 6.19098
    endloop
  endfacet
  facet normal 0.891006 0 0.453992
    outer loop
      vertex 12.791 8.81766 5.91221
      vertex 12.6489 1.5 6.19098
      vertex 12.791 1.5 5.91221
    endloop
  endfacet
  facet normal 0.453992 -0 0.891006
    outer loop
      vertex 13.0122 1.5 5.69098
      vertex 13.291 8.80514 5.54894
      vertex 13.0122 8.81003 5.69098
    endloop
  endfacet
  facet normal 0.453992 0 0.891006
    outer loop
      vertex 13.291 8.80514 5.54894
      vertex 13.0122 1.5 5.69098
      vertex 13.291 1.5 5.54894
    endloop
  endfacet
  facet normal -0.45398 -0 -0.891012
    outer loop
      vertex 111.709 7.53461 41.6511
      vertex 111.988 1.5 41.509
      vertex 111.709 1.5 41.6511
    endloop
  endfacet
  facet normal -0.45398 0 -0.891012
    outer loop
      vertex 111.988 1.5 41.509
      vertex 111.709 7.53461 41.6511
      vertex 111.988 7.54425 41.509
    endloop
  endfacet
  facet normal -0.156445 -0 -0.987687
    outer loop
      vertex 111.4 7.53129 41.7
      vertex 111.709 1.5 41.6511
      vertex 111.4 1.5 41.7
    endloop
  endfacet
  facet normal -0.156445 0 -0.987687
    outer loop
      vertex 111.709 1.5 41.6511
      vertex 111.4 7.53129 41.7
      vertex 111.709 7.53461 41.6511
    endloop
  endfacet
  facet normal -0.156433 0 0.987689
    outer loop
      vertex 111.4 8.80345 5.5
      vertex 111.709 1.5 5.54894
      vertex 111.709 8.80514 5.54894
    endloop
  endfacet
  facet normal -0.156433 0 0.987689
    outer loop
      vertex 111.709 1.5 5.54894
      vertex 111.4 8.80345 5.5
      vertex 111.4 1.5 5.5
    endloop
  endfacet
  facet normal 0.987688 7.08866e-008 0.156434
    outer loop
      vertex 12.6 1.5 6.5
      vertex 12.6489 8.82728 6.19098
      vertex 12.6359 8.83012 6.27349
    endloop
  endfacet
  facet normal 0.987689 0 0.156432
    outer loop
      vertex 12.6489 8.82728 6.19098
      vertex 12.6 1.5 6.5
      vertex 12.6489 1.5 6.19098
    endloop
  endfacet
  facet normal -0.891 0 -0.454004
    outer loop
      vertex 112.351 1.5 41.009
      vertex 112.209 7.55925 41.2878
      vertex 112.351 7.57816 41.009
    endloop
  endfacet
  facet normal -0.891 -0 -0.454004
    outer loop
      vertex 112.209 7.55925 41.2878
      vertex 112.351 1.5 41.009
      vertex 112.209 1.5 41.2878
    endloop
  endfacet
  facet normal -0.707113 0 -0.707101
    outer loop
      vertex 112.209 1.5 41.2878
      vertex 111.988 7.54425 41.509
      vertex 112.209 7.55925 41.2878
    endloop
  endfacet
  facet normal -0.707113 -0 -0.707101
    outer loop
      vertex 111.988 7.54425 41.509
      vertex 112.209 1.5 41.2878
      vertex 111.988 1.5 41.509
    endloop
  endfacet
  facet normal -0.70711 0 0.707104
    outer loop
      vertex 112.209 1.5 5.91221
      vertex 111.988 8.81003 5.69098
      vertex 111.988 1.5 5.69098
    endloop
  endfacet
  facet normal -0.70711 0 0.707104
    outer loop
      vertex 111.988 8.81003 5.69098
      vertex 112.209 1.5 5.91221
      vertex 112.209 8.81766 5.91221
    endloop
  endfacet
  facet normal -0.891001 0 0.454002
    outer loop
      vertex 112.351 1.5 6.19098
      vertex 112.209 8.81766 5.91221
      vertex 112.209 1.5 5.91221
    endloop
  endfacet
  facet normal -0.891001 0 0.454002
    outer loop
      vertex 112.209 8.81766 5.91221
      vertex 112.351 1.5 6.19098
      vertex 112.351 8.82728 6.19098
    endloop
  endfacet
  facet normal -0.45399 0 0.891007
    outer loop
      vertex 111.709 8.80514 5.54894
      vertex 111.988 1.5 5.69098
      vertex 111.988 8.81003 5.69098
    endloop
  endfacet
  facet normal -0.45399 0 0.891007
    outer loop
      vertex 111.988 1.5 5.69098
      vertex 111.709 8.80514 5.54894
      vertex 111.709 1.5 5.54894
    endloop
  endfacet
  facet normal -0.987689 0 0.156432
    outer loop
      vertex 112.4 1.5 6.5
      vertex 112.351 8.82728 6.19098
      vertex 112.351 1.5 6.19098
    endloop
  endfacet
  facet normal -0.987689 0 0.156432
    outer loop
      vertex 112.351 8.82728 6.19098
      vertex 112.4 1.5 6.5
      vertex 112.4 8.83793 6.5
    endloop
  endfacet
endsolid OpenSCAD_Model
