solid OpenSCAD_Model
  facet normal -1 0 0
    outer loop
      vertex 0 16 10.8
      vertex 0 4.5 10.8
      vertex 0 16 11.3
    endloop
  endfacet
  facet normal -1 0 0
    outer loop
      vertex 0 35 10.8
      vertex 0 23.5 10.8
      vertex 0 35 11.3
    endloop
  endfacet
  facet normal -1 0 0
    outer loop
      vertex 0 35 11.3
      vertex 0 39.39 12.8
      vertex 0 39.39 11.3
    endloop
  endfacet
  facet normal -1 0 0
    outer loop
      vertex 0 23.5 11.3
      vertex 0 35 11.3
      vertex 0 23.5 10.8
    endloop
  endfacet
  facet normal -1 0 0
    outer loop
      vertex 0 35 11.3
      vertex 0 23.5 11.3
      vertex 0 39.39 12.8
    endloop
  endfacet
  facet normal -1 0 0
    outer loop
      vertex 0 16 11.3
      vertex 0 39.39 12.8
      vertex 0 23.5 11.3
    endloop
  endfacet
  facet normal -1 0 0
    outer loop
      vertex 0 4.5 11.3
      vertex 0 16 11.3
      vertex 0 4.5 10.8
    endloop
  endfacet
  facet normal -1 0 0
    outer loop
      vertex 0 -0.5 12.8
      vertex 0 16 11.3
      vertex 0 4.5 11.3
    endloop
  endfacet
  facet normal -1 0 0
    outer loop
      vertex 0 -0.5 12.8
      vertex 0 4.5 11.3
      vertex 0 -0.5 11.3
    endloop
  endfacet
  facet normal -1 0 0
    outer loop
      vertex 0 16 11.3
      vertex 0 -0.5 12.8
      vertex 0 39.39 12.8
    endloop
  endfacet
  facet normal -1 0 0
    outer loop
      vertex 0 38.7495 6.66279
      vertex 0 41.39 6.1
      vertex 0 39.2528 6.15949
    endloop
  endfacet
  facet normal -1 0 0
    outer loop
      vertex 0 38.4263 7.29699
      vertex 0 41.39 6.1
      vertex 0 38.7495 6.66279
    endloop
  endfacet
  facet normal -1 0 0
    outer loop
      vertex 0 38.315 8
      vertex 0 41.39 6.1
      vertex 0 38.4263 7.29699
    endloop
  endfacet
  facet normal -1 0 0
    outer loop
      vertex 0 39.39 9.91043
      vertex 0 38.7495 9.33721
      vertex 0 39.2528 9.84051
    endloop
  endfacet
  facet normal -1 0 0
    outer loop
      vertex 0 41.39 6.1
      vertex 0 38.4263 8.70301
      vertex 0 39.39 9.91043
    endloop
  endfacet
  facet normal -1 0 0
    outer loop
      vertex 0 39.39 9.91043
      vertex 0 38.4263 8.70301
      vertex 0 38.7495 9.33721
    endloop
  endfacet
  facet normal -1 0 0
    outer loop
      vertex 0 41.39 6.1
      vertex 0 38.315 8
      vertex 0 38.4263 8.70301
    endloop
  endfacet
  facet normal -1 0 0
    outer loop
      vertex 0 41.293 5.83635
      vertex 0 41.39 6.1
      vertex 0 41.39 5.88576
    endloop
  endfacet
  facet normal -1 0 0
    outer loop
      vertex 0 41.39 6.1
      vertex 0 41.293 5.83635
      vertex 0 40.59 5.725
    endloop
  endfacet
  facet normal -1 0 0
    outer loop
      vertex 0 41.39 6.1
      vertex 0 40.59 5.725
      vertex 0 39.887 5.83635
    endloop
  endfacet
  facet normal -1 0 0
    outer loop
      vertex 0 39.2528 6.15949
      vertex 0 41.39 6.1
      vertex 0 39.887 5.83635
    endloop
  endfacet
  facet normal -1 0 0
    outer loop
      vertex 0 41.39 6.1
      vertex 0 39.39 9.91043
      vertex 0 39.39 11.3
    endloop
  endfacet
  facet normal -1 0 0
    outer loop
      vertex 0 41.39 6.1
      vertex 0 39.39 11.3
      vertex 0 41.39 15.8
    endloop
  endfacet
  facet normal -1 0 0
    outer loop
      vertex 0 39.39 12.8
      vertex 0 41.39 15.8
      vertex 0 39.39 11.3
    endloop
  endfacet
  facet normal -1 0 0
    outer loop
      vertex 0 39.39 14.3
      vertex 0 41.39 15.8
      vertex 0 39.39 12.8
    endloop
  endfacet
  facet normal -1 0 0
    outer loop
      vertex 0 39.39 14.3
      vertex 0 39.39 15.8
      vertex 0 41.39 15.8
    endloop
  endfacet
  facet normal -1 0 0
    outer loop
      vertex 0 -0.5 14.3
      vertex 0 39.39 15.8
      vertex 0 39.39 14.3
    endloop
  endfacet
  facet normal -1 -0 0
    outer loop
      vertex 0 39.39 15.8
      vertex 0 -0.5 14.3
      vertex 0 -0.5 15.8
    endloop
  endfacet
  facet normal -1 0 0
    outer loop
      vertex 0 -0.579535 6.1
      vertex 0 -0.5 6.14053
      vertex 0 -0.5 6.1
    endloop
  endfacet
  facet normal -1 -0 0
    outer loop
      vertex 0 -0.5 6.14053
      vertex 0 -0.579535 6.1
      vertex 0 -0.5 9.85947
    endloop
  endfacet
  facet normal -1 0 0
    outer loop
      vertex 0 -2.5 6.1
      vertex 0 -0.5 9.85947
      vertex 0 -0.579535 6.1
    endloop
  endfacet
  facet normal -1 -0 0
    outer loop
      vertex 0 -0.5 9.85947
      vertex 0 -2.5 6.1
      vertex 0 -0.5 11.3
    endloop
  endfacet
  facet normal -1 0 0
    outer loop
      vertex 0 -2.5 15.8
      vertex 0 -0.5 11.3
      vertex 0 -2.5 6.1
    endloop
  endfacet
  facet normal -1 0 0
    outer loop
      vertex 0 -0.5 11.3
      vertex 0 -2.5 15.8
      vertex 0 -0.5 12.8
    endloop
  endfacet
  facet normal -1 0 0
    outer loop
      vertex 0 -2.5 6.1
      vertex 0 -0.579535 6.1
      vertex 0 -1.09699 5.83635
    endloop
  endfacet
  facet normal -1 0 0
    outer loop
      vertex 0 -2.5 6.1
      vertex 0 -1.09699 5.83635
      vertex 0 -1.8 5.725
    endloop
  endfacet
  facet normal -1 0 0
    outer loop
      vertex 0 -2.5 6.1
      vertex 0 -1.8 5.725
      vertex 0 -2.5 5.83587
    endloop
  endfacet
  facet normal -1 0 0
    outer loop
      vertex 0 -0.5 12.8
      vertex 0 -2.5 15.8
      vertex 0 -0.5 14.3
    endloop
  endfacet
  facet normal -1 0 0
    outer loop
      vertex 0 -0.5 14.3
      vertex 0 -2.5 15.8
      vertex 0 -0.5 15.8
    endloop
  endfacet
  facet normal -1 0 0
    outer loop
      vertex 0 0.363653 7.29699
      vertex 0 0.363653 8.70301
      vertex 0 0.474999 8
    endloop
  endfacet
  facet normal -1 0 0
    outer loop
      vertex 0 0.040513 6.66279
      vertex 0 0.363653 8.70301
      vertex 0 0.363653 7.29699
    endloop
  endfacet
  facet normal -1 0 0
    outer loop
      vertex 0 0.040513 6.66279
      vertex 0 0.040513 9.33721
      vertex 0 0.363653 8.70301
    endloop
  endfacet
  facet normal -1 0 0
    outer loop
      vertex 0 -0.5 6.14053
      vertex 0 0.040513 6.66279
      vertex 0 -0.462788 6.15949
    endloop
  endfacet
  facet normal -1 -0 0
    outer loop
      vertex 0 0.040513 6.66279
      vertex 0 -0.5 6.14053
      vertex 0 0.040513 9.33721
    endloop
  endfacet
  facet normal -1 0 0
    outer loop
      vertex 0 -0.5 9.85947
      vertex 0 0.040513 9.33721
      vertex 0 -0.5 6.14053
    endloop
  endfacet
  facet normal -1 0 0
    outer loop
      vertex 0 0.040513 9.33721
      vertex 0 -0.5 9.85947
      vertex 0 -0.462788 9.84051
    endloop
  endfacet
  facet normal -0 0 1
    outer loop
      vertex 0 -0.5 15.8
      vertex 3.5 -2.5 15.8
      vertex 3.5 -0.5 15.8
    endloop
  endfacet
  facet normal 0 0 1
    outer loop
      vertex 3.5 -2.5 15.8
      vertex 0 -0.5 15.8
      vertex 0 -2.5 15.8
    endloop
  endfacet
  facet normal 1 0 0
    outer loop
      vertex 3.5 39.39 12.8
      vertex 3.5 35 11.3
      vertex 3.5 39.39 11.3
    endloop
  endfacet
  facet normal 1 0 0
    outer loop
      vertex 3.5 35 11.3
      vertex 3.5 23.5 11.3
      vertex 3.5 35 10.8
    endloop
  endfacet
  facet normal 1 0 0
    outer loop
      vertex 3.5 39.39 12.8
      vertex 3.5 23.5 11.3
      vertex 3.5 35 11.3
    endloop
  endfacet
  facet normal 1 0 0
    outer loop
      vertex 3.5 39.39 12.8
      vertex 3.5 16 11.3
      vertex 3.5 23.5 11.3
    endloop
  endfacet
  facet normal 1 0 0
    outer loop
      vertex 3.5 16 11.3
      vertex 3.5 4.5 11.3
      vertex 3.5 16 10.8
    endloop
  endfacet
  facet normal 1 -0 0
    outer loop
      vertex 3.5 -0.5 12.8
      vertex 3.5 16 11.3
      vertex 3.5 39.39 12.8
    endloop
  endfacet
  facet normal 1 0 0
    outer loop
      vertex 3.5 16 11.3
      vertex 3.5 -0.5 12.8
      vertex 3.5 4.5 11.3
    endloop
  endfacet
  facet normal 1 0 0
    outer loop
      vertex 3.5 4.5 11.3
      vertex 3.5 -0.5 12.8
      vertex 3.5 -0.5 11.3
    endloop
  endfacet
  facet normal 1 -0 0
    outer loop
      vertex 3.5 -0.5 15.8
      vertex 3.5 39.39 14.3
      vertex 3.5 39.39 15.8
    endloop
  endfacet
  facet normal 1 0 0
    outer loop
      vertex 3.5 -0.5 15.8
      vertex 3.5 -0.5 14.3
      vertex 3.5 39.39 14.3
    endloop
  endfacet
  facet normal 1 -0 0
    outer loop
      vertex 3.5 -2.5 15.8
      vertex 3.5 -0.5 14.3
      vertex 3.5 -0.5 15.8
    endloop
  endfacet
  facet normal 1 0 0
    outer loop
      vertex 3.5 -0.5 14.3
      vertex 3.5 -2.5 15.8
      vertex 3.5 -0.5 12.8
    endloop
  endfacet
  facet normal 1 0 0
    outer loop
      vertex 3.5 -0.5 12.8
      vertex 3.5 -2.5 15.8
      vertex 3.5 -0.5 11.3
    endloop
  endfacet
  facet normal 1 0 0
    outer loop
      vertex 3.5 -2.5 6.1
      vertex 3.5 -0.5 11.3
      vertex 3.5 -2.5 15.8
    endloop
  endfacet
  facet normal 1 0 0
    outer loop
      vertex 3.5 -0.5 11.3
      vertex 3.5 -2.5 6.1
      vertex 3.5 -0.5 8.70301
    endloop
  endfacet
  facet normal 1 0 0
    outer loop
      vertex 3.5 -0.5 6.14053
      vertex 3.5 -0.579535 6.1
      vertex 3.5 -0.5 6.1
    endloop
  endfacet
  facet normal 1 0 0
    outer loop
      vertex 3.5 -0.5 8.70301
      vertex 3.5 -0.579535 6.1
      vertex 3.5 -0.5 6.14053
    endloop
  endfacet
  facet normal 1 0 0
    outer loop
      vertex 3.5 -0.579535 6.1
      vertex 3.5 -2.5 6.1
      vertex 3.5 -1.09699 5.83635
    endloop
  endfacet
  facet normal 1 0 -0
    outer loop
      vertex 3.5 -0.579535 6.1
      vertex 3.5 -0.5 8.70301
      vertex 3.5 -2.5 6.1
    endloop
  endfacet
  facet normal 1 0 0
    outer loop
      vertex 3.5 -1.09699 5.83635
      vertex 3.5 -2.5 6.1
      vertex 3.5 -1.8 5.725
    endloop
  endfacet
  facet normal 1 0 0
    outer loop
      vertex 3.5 -1.8 5.725
      vertex 3.5 -2.5 6.1
      vertex 3.5 -2.5 5.83587
    endloop
  endfacet
  facet normal 1 -0 0
    outer loop
      vertex 3.5 39.39 11.3
      vertex 3.5 41.39 6.1
      vertex 3.5 41.39 15.8
    endloop
  endfacet
  facet normal 1 -0 0
    outer loop
      vertex 3.5 39.39 8.70301
      vertex 3.5 41.39 6.1
      vertex 3.5 39.39 11.3
    endloop
  endfacet
  facet normal 1 0 -0
    outer loop
      vertex 3.5 39.887 5.83635
      vertex 3.5 41.39 6.1
      vertex 3.5 39.39 8.70301
    endloop
  endfacet
  facet normal 1 0 -0
    outer loop
      vertex 3.5 41.293 5.83635
      vertex 3.5 41.39 6.1
      vertex 3.5 40.59 5.725
    endloop
  endfacet
  facet normal 1 0 0
    outer loop
      vertex 3.5 39.39 14.3
      vertex 3.5 41.39 15.8
      vertex 3.5 39.39 15.8
    endloop
  endfacet
  facet normal 1 0 0
    outer loop
      vertex 3.5 39.39 12.8
      vertex 3.5 41.39 15.8
      vertex 3.5 39.39 14.3
    endloop
  endfacet
  facet normal 1 0 0
    outer loop
      vertex 3.5 39.39 11.3
      vertex 3.5 41.39 15.8
      vertex 3.5 39.39 12.8
    endloop
  endfacet
  facet normal 1 0 0
    outer loop
      vertex 3.5 41.39 6.1
      vertex 3.5 41.293 5.83635
      vertex 3.5 41.39 5.88576
    endloop
  endfacet
  facet normal 1 0 0
    outer loop
      vertex 3.5 41.39 6.1
      vertex 3.5 39.887 5.83635
      vertex 3.5 40.59 5.725
    endloop
  endfacet
  facet normal 1 0 0
    outer loop
      vertex 3.5 39.39 8.70301
      vertex 3.5 39.2528 6.15949
      vertex 3.5 39.887 5.83635
    endloop
  endfacet
  facet normal 1 0 0
    outer loop
      vertex 3.5 39.39 8.70301
      vertex 3.5 38.7495 6.66279
      vertex 3.5 39.2528 6.15949
    endloop
  endfacet
  facet normal 1 0 0
    outer loop
      vertex 3.5 38.315 8
      vertex 3.5 39.39 8.70301
      vertex 3.5 38.4263 8.70301
    endloop
  endfacet
  facet normal 1 0 0
    outer loop
      vertex 3.5 39.39 8.70301
      vertex 3.5 38.4263 7.29699
      vertex 3.5 38.7495 6.66279
    endloop
  endfacet
  facet normal 1 0 0
    outer loop
      vertex 3.5 39.39 8.70301
      vertex 3.5 38.315 8
      vertex 3.5 38.4263 7.29699
    endloop
  endfacet
  facet normal 1 0 0
    outer loop
      vertex 3.5 35 10.8
      vertex 3.5 23.5 11.3
      vertex 3.5 23.5 10.8
    endloop
  endfacet
  facet normal 1 0 0
    outer loop
      vertex 3.5 16 10.8
      vertex 3.5 4.5 11.3
      vertex 3.5 4.5 10.8
    endloop
  endfacet
  facet normal 1 -0 0
    outer loop
      vertex 3.5 -0.5 8.70301
      vertex 3.5 0.474999 8
      vertex 3.5 0.363653 8.70301
    endloop
  endfacet
  facet normal 1 0 0
    outer loop
      vertex 3.5 0.474999 8
      vertex 3.5 -0.5 8.70301
      vertex 3.5 0.363653 7.29699
    endloop
  endfacet
  facet normal 1 0 0
    outer loop
      vertex 3.5 0.363653 7.29699
      vertex 3.5 -0.5 8.70301
      vertex 3.5 0.040513 6.66279
    endloop
  endfacet
  facet normal 1 0 0
    outer loop
      vertex 3.5 -0.5 6.14053
      vertex 3.5 0.040513 6.66279
      vertex 3.5 -0.5 8.70301
    endloop
  endfacet
  facet normal 1 0 0
    outer loop
      vertex 3.5 0.040513 6.66279
      vertex 3.5 -0.5 6.14053
      vertex 3.5 -0.462788 6.15949
    endloop
  endfacet
  facet normal 0 1 -0
    outer loop
      vertex 3.5 -0.5 6.1
      vertex 0 -0.5 6.14053
      vertex 3.5 -0.5 6.14053
    endloop
  endfacet
  facet normal 0 1 0
    outer loop
      vertex 0 -0.5 6.14053
      vertex 3.5 -0.5 6.1
      vertex 0 -0.5 6.1
    endloop
  endfacet
  facet normal 0 1 -0
    outer loop
      vertex 3.5 -0.5 12.8
      vertex 0 -0.5 14.3
      vertex 3.5 -0.5 14.3
    endloop
  endfacet
  facet normal 0 1 0
    outer loop
      vertex 0 -0.5 14.3
      vertex 3.5 -0.5 12.8
      vertex 0 -0.5 12.8
    endloop
  endfacet
  facet normal 0 1 0
    outer loop
      vertex 3.5 -0.5 11.3
      vertex 3.5 -0.5 9.85947
      vertex 0 -0.5 11.3
    endloop
  endfacet
  facet normal 0 1 0
    outer loop
      vertex 3.5 -0.5 11.3
      vertex 3.5 -0.5 9.56667
      vertex 3.5 -0.5 9.85947
    endloop
  endfacet
  facet normal 0 1 0
    outer loop
      vertex 3.5 -0.5 11.3
      vertex 3.5 -0.5 9.33049
      vertex 3.5 -0.5 9.56667
    endloop
  endfacet
  facet normal -0 1 0
    outer loop
      vertex 3.5 -0.5 9.33049
      vertex 3.5 -0.5 11.3
      vertex 3.5 -0.5 8.70301
    endloop
  endfacet
  facet normal 0 1 0
    outer loop
      vertex 0 -0.5 11.3
      vertex 3.5 -0.5 9.85947
      vertex 0 -0.5 9.85947
    endloop
  endfacet
  facet normal 0 0 -1
    outer loop
      vertex 0 -0.579535 6.1
      vertex 3.5 -0.5 6.1
      vertex 3.5 -0.579535 6.1
    endloop
  endfacet
  facet normal -0 0 -1
    outer loop
      vertex 3.5 -0.5 6.1
      vertex 0 -0.579535 6.1
      vertex 0 -0.5 6.1
    endloop
  endfacet
  facet normal 0 -1 0
    outer loop
      vertex 0 -2.5 5.83587
      vertex 3.5 -2.5 6.1
      vertex 0 -2.5 6.1
    endloop
  endfacet
  facet normal 0 -1 -0
    outer loop
      vertex 3.5 -2.5 6.1
      vertex 0 -2.5 5.83587
      vertex 3.5 -2.5 5.83587
    endloop
  endfacet
  facet normal 0 -1 0
    outer loop
      vertex 0 -2.5 6.1
      vertex 3.5 -2.5 15.8
      vertex 0 -2.5 15.8
    endloop
  endfacet
  facet normal 0 -1 -0
    outer loop
      vertex 3.5 -2.5 15.8
      vertex 0 -2.5 6.1
      vertex 3.5 -2.5 6.1
    endloop
  endfacet
  facet normal -0 0 1
    outer loop
      vertex 0 41.39 15.8
      vertex 3.5 39.39 15.8
      vertex 3.5 41.39 15.8
    endloop
  endfacet
  facet normal 0 0 1
    outer loop
      vertex 3.5 39.39 15.8
      vertex 0 41.39 15.8
      vertex 0 39.39 15.8
    endloop
  endfacet
  facet normal 0 1 -0
    outer loop
      vertex 3.5 41.39 5.88576
      vertex 0 41.39 6.1
      vertex 3.5 41.39 6.1
    endloop
  endfacet
  facet normal 0 1 0
    outer loop
      vertex 0 41.39 6.1
      vertex 3.5 41.39 5.88576
      vertex 0 41.39 5.88576
    endloop
  endfacet
  facet normal 0 1 -0
    outer loop
      vertex 3.5 41.39 6.1
      vertex 0 41.39 15.8
      vertex 3.5 41.39 15.8
    endloop
  endfacet
  facet normal 0 1 0
    outer loop
      vertex 0 41.39 15.8
      vertex 3.5 41.39 6.1
      vertex 0 41.39 6.1
    endloop
  endfacet
  facet normal 0 -1 0
    outer loop
      vertex 0 39.39 12.8
      vertex 3.5 39.39 14.3
      vertex 0 39.39 14.3
    endloop
  endfacet
  facet normal 0 -1 -0
    outer loop
      vertex 3.5 39.39 14.3
      vertex 0 39.39 12.8
      vertex 3.5 39.39 12.8
    endloop
  endfacet
  facet normal 0 -1 0
    outer loop
      vertex 0 39.39 9.91043
      vertex 3.5 39.39 11.3
      vertex 0 39.39 11.3
    endloop
  endfacet
  facet normal 0 -1 0
    outer loop
      vertex 3.5 39.39 9.91043
      vertex 3.5 39.39 11.3
      vertex 0 39.39 9.91043
    endloop
  endfacet
  facet normal 0 -1 0
    outer loop
      vertex 3.5 39.39 9.66667
      vertex 3.5 39.39 11.3
      vertex 3.5 39.39 9.91043
    endloop
  endfacet
  facet normal 0 -1 0
    outer loop
      vertex 3.5 39.39 9.40315
      vertex 3.5 39.39 11.3
      vertex 3.5 39.39 9.66667
    endloop
  endfacet
  facet normal 0 -1 -0
    outer loop
      vertex 3.5 39.39 11.3
      vertex 3.5 39.39 9.40315
      vertex 3.5 39.39 8.70301
    endloop
  endfacet
  facet normal 0 0.156434 -0.987688
    outer loop
      vertex 0 -1.8 5.725
      vertex 3.5 -1.09699 5.83635
      vertex 3.5 -1.8 5.725
    endloop
  endfacet
  facet normal 0 0.156434 -0.987688
    outer loop
      vertex 3.5 -1.09699 5.83635
      vertex 0 -1.8 5.725
      vertex 0 -1.09699 5.83635
    endloop
  endfacet
  facet normal 0 0.987688 0.156434
    outer loop
      vertex 3.5 0.474999 8
      vertex 0 0.363653 8.70301
      vertex 3.5 0.363653 8.70301
    endloop
  endfacet
  facet normal 0 0.987688 0.156434
    outer loop
      vertex 0 0.363653 8.70301
      vertex 3.5 0.474999 8
      vertex 0 0.474999 8
    endloop
  endfacet
  facet normal 0 0.891006 -0.453991
    outer loop
      vertex 3.5 0.040513 6.66279
      vertex 0 0.363653 7.29699
      vertex 3.5 0.363653 7.29699
    endloop
  endfacet
  facet normal 0 0.891006 -0.453991
    outer loop
      vertex 0 0.363653 7.29699
      vertex 3.5 0.040513 6.66279
      vertex 0 0.040513 6.66279
    endloop
  endfacet
  facet normal 0 0.45399 -0.891007
    outer loop
      vertex 0 -1.09699 5.83635
      vertex 3.5 -0.579535 6.1
      vertex 3.5 -1.09699 5.83635
    endloop
  endfacet
  facet normal 0 0.45399 -0.891007
    outer loop
      vertex 3.5 -0.579535 6.1
      vertex 0 -1.09699 5.83635
      vertex 0 -0.579535 6.1
    endloop
  endfacet
  facet normal 0 0.453987 -0.891008
    outer loop
      vertex 0 -0.5 6.14053
      vertex 3.5 -0.462788 6.15949
      vertex 3.5 -0.5 6.14053
    endloop
  endfacet
  facet normal 0 0.453987 -0.891008
    outer loop
      vertex 3.5 -0.462788 6.15949
      vertex 0 -0.5 6.14053
      vertex 0 -0.462788 6.15949
    endloop
  endfacet
  facet normal 0 0.987688 -0.156434
    outer loop
      vertex 3.5 0.363653 7.29699
      vertex 0 0.474999 8
      vertex 3.5 0.474999 8
    endloop
  endfacet
  facet normal 0 0.987688 -0.156434
    outer loop
      vertex 0 0.474999 8
      vertex 3.5 0.363653 7.29699
      vertex 0 0.363653 7.29699
    endloop
  endfacet
  facet normal 0 0.707108 0.707105
    outer loop
      vertex 3.5 0.040513 9.33721
      vertex 0 -0.462788 9.84051
      vertex 3.5 -0.462788 9.84051
    endloop
  endfacet
  facet normal 0 0.707108 0.707105
    outer loop
      vertex 0 -0.462788 9.84051
      vertex 3.5 0.040513 9.33721
      vertex 0 0.040513 9.33721
    endloop
  endfacet
  facet normal 0 0.891006 0.453991
    outer loop
      vertex 3.5 0.363653 8.70301
      vertex 0 0.040513 9.33721
      vertex 3.5 0.040513 9.33721
    endloop
  endfacet
  facet normal 0 0.891006 0.453991
    outer loop
      vertex 0 0.040513 9.33721
      vertex 3.5 0.363653 8.70301
      vertex 0 0.363653 8.70301
    endloop
  endfacet
  facet normal 0 -0.156434 -0.987688
    outer loop
      vertex 0 -2.5 5.83587
      vertex 3.5 -1.8 5.725
      vertex 3.5 -2.5 5.83587
    endloop
  endfacet
  facet normal -0 -0.156434 -0.987688
    outer loop
      vertex 3.5 -1.8 5.725
      vertex 0 -2.5 5.83587
      vertex 0 -1.8 5.725
    endloop
  endfacet
  facet normal 1 -5.52116e-007 0
    outer loop
      vertex 3.5 0.363653 8.70301
      vertex 3.5 -0.5 9.56667
      vertex 3.5 -0.5 9.33049
    endloop
  endfacet
  facet normal 0 0.707108 -0.707105
    outer loop
      vertex 3.5 -0.462788 6.15949
      vertex 0 0.040513 6.66279
      vertex 3.5 0.040513 6.66279
    endloop
  endfacet
  facet normal 0 0.707108 -0.707105
    outer loop
      vertex 0 0.040513 6.66279
      vertex 3.5 -0.462788 6.15949
      vertex 0 -0.462788 6.15949
    endloop
  endfacet
  facet normal -0 0.453996 0.891004
    outer loop
      vertex 0 -0.462788 9.84051
      vertex 3.5 -0.5 9.85947
      vertex 3.5 -0.462788 9.84051
    endloop
  endfacet
  facet normal 0 0.453996 0.891004
    outer loop
      vertex 3.5 -0.5 9.85947
      vertex 0 -0.462788 9.84051
      vertex 0 -0.5 9.85947
    endloop
  endfacet
  facet normal 1 0 7.59922e-007
    outer loop
      vertex 3.5 0.363653 8.70301
      vertex 3.5 -0.5 9.33049
      vertex 3.5 -0.5 8.70301
    endloop
  endfacet
  facet normal 1 8.29778e-007 1.62851e-006
    outer loop
      vertex 3.5 -0.5 9.56667
      vertex 3.5 -0.462788 9.84051
      vertex 3.5 -0.5 9.85947
    endloop
  endfacet
  facet normal 1 1.04689e-006 1.599e-006
    outer loop
      vertex 3.5 -0.462788 9.84051
      vertex 3.5 -0.5 9.56667
      vertex 3.5 0.363653 8.70301
    endloop
  endfacet
  facet normal 1 3.06594e-006 3.06593e-006
    outer loop
      vertex 3.5 0.040513 9.33721
      vertex 3.5 -0.462788 9.84051
      vertex 3.5 0.363653 8.70301
    endloop
  endfacet
  facet normal 0 0.156434 -0.987688
    outer loop
      vertex 0 40.59 5.725
      vertex 3.5 41.293 5.83635
      vertex 3.5 40.59 5.725
    endloop
  endfacet
  facet normal 0 0.156434 -0.987688
    outer loop
      vertex 3.5 41.293 5.83635
      vertex 0 40.59 5.725
      vertex 0 41.293 5.83635
    endloop
  endfacet
  facet normal 0 -0.453991 -0.891006
    outer loop
      vertex 0 39.2528 6.15949
      vertex 3.5 39.887 5.83635
      vertex 3.5 39.2528 6.15949
    endloop
  endfacet
  facet normal -0 -0.453991 -0.891006
    outer loop
      vertex 3.5 39.887 5.83635
      vertex 0 39.2528 6.15949
      vertex 0 39.887 5.83635
    endloop
  endfacet
  facet normal 0 0.453996 -0.891004
    outer loop
      vertex 0 41.293 5.83635
      vertex 3.5 41.39 5.88576
      vertex 3.5 41.293 5.83635
    endloop
  endfacet
  facet normal 0 0.453996 -0.891004
    outer loop
      vertex 3.5 41.39 5.88576
      vertex 0 41.293 5.83635
      vertex 0 41.39 5.88576
    endloop
  endfacet
  facet normal 0 -0.156434 -0.987688
    outer loop
      vertex 0 39.887 5.83635
      vertex 3.5 40.59 5.725
      vertex 3.5 39.887 5.83635
    endloop
  endfacet
  facet normal -0 -0.156434 -0.987688
    outer loop
      vertex 3.5 40.59 5.725
      vertex 0 39.887 5.83635
      vertex 0 40.59 5.725
    endloop
  endfacet
  facet normal 1 0 6.81064e-007
    outer loop
      vertex 3.5 39.39 8.70301
      vertex 3.5 39.39 9.40315
      vertex 3.5 38.4263 8.70301
    endloop
  endfacet
  facet normal 0 -0.987688 -0.156435
    outer loop
      vertex 0 38.4263 7.29699
      vertex 3.5 38.315 8
      vertex 0 38.315 8
    endloop
  endfacet
  facet normal 0 -0.987688 -0.156435
    outer loop
      vertex 3.5 38.315 8
      vertex 0 38.4263 7.29699
      vertex 3.5 38.4263 7.29699
    endloop
  endfacet
  facet normal 0 -0.891007 -0.45399
    outer loop
      vertex 0 38.7495 6.66279
      vertex 3.5 38.4263 7.29699
      vertex 0 38.4263 7.29699
    endloop
  endfacet
  facet normal 0 -0.891007 -0.45399
    outer loop
      vertex 3.5 38.4263 7.29699
      vertex 0 38.7495 6.66279
      vertex 3.5 38.7495 6.66279
    endloop
  endfacet
  facet normal 1 -3.06589e-006 3.0659e-006
    outer loop
      vertex 3.5 39.2528 9.84051
      vertex 3.5 38.7495 9.33721
      vertex 3.5 38.4263 8.70301
    endloop
  endfacet
  facet normal 0 -0.707106 -0.707107
    outer loop
      vertex 0 38.7495 6.66279
      vertex 3.5 39.2528 6.15949
      vertex 3.5 38.7495 6.66279
    endloop
  endfacet
  facet normal -0 -0.707106 -0.707107
    outer loop
      vertex 3.5 39.2528 6.15949
      vertex 0 38.7495 6.66279
      vertex 0 39.2528 6.15949
    endloop
  endfacet
  facet normal 0 -0.891007 0.45399
    outer loop
      vertex 0 38.4263 8.70301
      vertex 3.5 38.7495 9.33721
      vertex 0 38.7495 9.33721
    endloop
  endfacet
  facet normal 0 -0.891007 0.45399
    outer loop
      vertex 3.5 38.7495 9.33721
      vertex 0 38.4263 8.70301
      vertex 3.5 38.4263 8.70301
    endloop
  endfacet
  facet normal 0 -0.707106 0.707107
    outer loop
      vertex 0 39.2528 9.84051
      vertex 3.5 38.7495 9.33721
      vertex 3.5 39.2528 9.84051
    endloop
  endfacet
  facet normal 0 -0.707106 0.707107
    outer loop
      vertex 3.5 38.7495 9.33721
      vertex 0 39.2528 9.84051
      vertex 0 38.7495 9.33721
    endloop
  endfacet
  facet normal 0 -0.987688 0.156436
    outer loop
      vertex 0 38.315 8
      vertex 3.5 38.4263 8.70301
      vertex 0 38.4263 8.70301
    endloop
  endfacet
  facet normal 0 -0.987688 0.156436
    outer loop
      vertex 3.5 38.4263 8.70301
      vertex 0 38.315 8
      vertex 3.5 38.315 8
    endloop
  endfacet
  facet normal 0 -0.453993 0.891005
    outer loop
      vertex 0 39.39 9.91043
      vertex 3.5 39.2528 9.84051
      vertex 3.5 39.39 9.91043
    endloop
  endfacet
  facet normal 0 -0.453993 0.891005
    outer loop
      vertex 3.5 39.2528 9.84051
      vertex 0 39.39 9.91043
      vertex 0 39.2528 9.84051
    endloop
  endfacet
  facet normal 1 -4.98366e-007 9.78091e-007
    outer loop
      vertex 3.5 39.2528 9.84051
      vertex 3.5 39.39 9.66667
      vertex 3.5 39.39 9.91043
    endloop
  endfacet
  facet normal 1 -3.51653e-007 1.09389e-006
    outer loop
      vertex 3.5 39.39 9.66667
      vertex 3.5 39.2528 9.84051
      vertex 3.5 38.4263 8.70301
    endloop
  endfacet
  facet normal 1 -1.62518e-007 9.04751e-007
    outer loop
      vertex 3.5 39.39 9.40315
      vertex 3.5 39.39 9.66667
      vertex 3.5 38.4263 8.70301
    endloop
  endfacet
  facet normal -0 0 1
    outer loop
      vertex 0 39.39 12.8
      vertex 3.5 -0.5 12.8
      vertex 3.5 39.39 12.8
    endloop
  endfacet
  facet normal 0 0 1
    outer loop
      vertex 3.5 -0.5 12.8
      vertex 0 39.39 12.8
      vertex 0 -0.5 12.8
    endloop
  endfacet
  facet normal 0 0 -1
    outer loop
      vertex 0 35 11.3
      vertex 3.5 39.39 11.3
      vertex 3.5 35 11.3
    endloop
  endfacet
  facet normal -0 0 -1
    outer loop
      vertex 3.5 39.39 11.3
      vertex 0 35 11.3
      vertex 0 39.39 11.3
    endloop
  endfacet
  facet normal 0 0 -1
    outer loop
      vertex 0 -0.5 11.3
      vertex 3.5 4.5 11.3
      vertex 3.5 -0.5 11.3
    endloop
  endfacet
  facet normal -0 0 -1
    outer loop
      vertex 3.5 4.5 11.3
      vertex 0 -0.5 11.3
      vertex 0 4.5 11.3
    endloop
  endfacet
  facet normal 0 0 -1
    outer loop
      vertex 0 16 11.3
      vertex 3.5 23.5 11.3
      vertex 3.5 16 11.3
    endloop
  endfacet
  facet normal -0 0 -1
    outer loop
      vertex 3.5 23.5 11.3
      vertex 0 16 11.3
      vertex 0 23.5 11.3
    endloop
  endfacet
  facet normal 0 1 -0
    outer loop
      vertex 3.5 16 10.8
      vertex 0 16 11.3
      vertex 3.5 16 11.3
    endloop
  endfacet
  facet normal 0 1 0
    outer loop
      vertex 0 16 11.3
      vertex 3.5 16 10.8
      vertex 0 16 10.8
    endloop
  endfacet
  facet normal 0 0 -1
    outer loop
      vertex 0 4.5 10.8
      vertex 3.5 16 10.8
      vertex 3.5 4.5 10.8
    endloop
  endfacet
  facet normal -0 0 -1
    outer loop
      vertex 3.5 16 10.8
      vertex 0 4.5 10.8
      vertex 0 16 10.8
    endloop
  endfacet
  facet normal 0 -1 0
    outer loop
      vertex 0 4.5 10.8
      vertex 3.5 4.5 11.3
      vertex 0 4.5 11.3
    endloop
  endfacet
  facet normal 0 -1 -0
    outer loop
      vertex 3.5 4.5 11.3
      vertex 0 4.5 10.8
      vertex 3.5 4.5 10.8
    endloop
  endfacet
  facet normal 0 1 -0
    outer loop
      vertex 3.5 35 10.8
      vertex 0 35 11.3
      vertex 3.5 35 11.3
    endloop
  endfacet
  facet normal 0 1 0
    outer loop
      vertex 0 35 11.3
      vertex 3.5 35 10.8
      vertex 0 35 10.8
    endloop
  endfacet
  facet normal 0 0 -1
    outer loop
      vertex 0 23.5 10.8
      vertex 3.5 35 10.8
      vertex 3.5 23.5 10.8
    endloop
  endfacet
  facet normal -0 0 -1
    outer loop
      vertex 3.5 35 10.8
      vertex 0 23.5 10.8
      vertex 0 35 10.8
    endloop
  endfacet
  facet normal 0 -1 0
    outer loop
      vertex 0 23.5 10.8
      vertex 3.5 23.5 11.3
      vertex 0 23.5 11.3
    endloop
  endfacet
  facet normal 0 -1 -0
    outer loop
      vertex 3.5 23.5 11.3
      vertex 0 23.5 10.8
      vertex 3.5 23.5 10.8
    endloop
  endfacet
  facet normal -0 0 1
    outer loop
      vertex 0 39.39 15.8
      vertex 3.5 -0.5 15.8
      vertex 3.5 39.39 15.8
    endloop
  endfacet
  facet normal 0 0 1
    outer loop
      vertex 3.5 -0.5 15.8
      vertex 0 39.39 15.8
      vertex 0 -0.5 15.8
    endloop
  endfacet
  facet normal 0 0 -1
    outer loop
      vertex 0 -0.5 14.3
      vertex 3.5 39.39 14.3
      vertex 3.5 -0.5 14.3
    endloop
  endfacet
  facet normal -0 0 -1
    outer loop
      vertex 3.5 39.39 14.3
      vertex 0 -0.5 14.3
      vertex 0 39.39 14.3
    endloop
  endfacet
endsolid OpenSCAD_Model
