solid OpenSCAD_Model
  facet normal -0.809017 -0.587785 0
    outer loop
      vertex 24.08 6 0
      vertex 23.0435 7.42658 2.96
      vertex 23.0435 7.42658 0
    endloop
  endfacet
  facet normal -0.809017 -0.587785 0
    outer loop
      vertex 23.0435 7.42658 2.96
      vertex 24.08 6 0
      vertex 24.08 6 2.96
    endloop
  endfacet
  facet normal 1 -0 0
    outer loop
      vertex 21.3665 5.11832 2.96
      vertex 21.3665 6.88168 0
      vertex 21.3665 6.88168 2.96
    endloop
  endfacet
  facet normal 1 0 0
    outer loop
      vertex 21.3665 6.88168 0
      vertex 21.3665 5.11832 2.96
      vertex 21.3665 5.11832 0
    endloop
  endfacet
  facet normal 0.309017 -0.951057 0
    outer loop
      vertex 21.3665 6.88168 0
      vertex 23.0435 7.42658 2.96
      vertex 21.3665 6.88168 2.96
    endloop
  endfacet
  facet normal 0.309017 -0.951057 0
    outer loop
      vertex 23.0435 7.42658 2.96
      vertex 21.3665 6.88168 0
      vertex 23.0435 7.42658 0
    endloop
  endfacet
  facet normal 0 0 -1
    outer loop
      vertex 0 7 0
      vertex 14.8 33.89 0
      vertex 14.8 7 0
    endloop
  endfacet
  facet normal -0 0 -1
    outer loop
      vertex 14.8 33.89 0
      vertex 0 7 0
      vertex 0 33.89 0
    endloop
  endfacet
  facet normal 0 0 -1
    outer loop
      vertex 23.0435 7.42658 0
      vertex 24.08 34.89 0
      vertex 24.08 6 0
    endloop
  endfacet
  facet normal 0 0 -1
    outer loop
      vertex 23.0435 7.42658 0
      vertex 23.0435 33.4634 0
      vertex 24.08 34.89 0
    endloop
  endfacet
  facet normal 0 0 -1
    outer loop
      vertex 14.8 7 0
      vertex 23.0435 7.42658 0
      vertex 21.3665 6.88168 0
    endloop
  endfacet
  facet normal -0 0 -1
    outer loop
      vertex 23.0435 7.42658 0
      vertex 14.8 7 0
      vertex 23.0435 33.4634 0
    endloop
  endfacet
  facet normal 0 0 -1
    outer loop
      vertex 27.58 0 0
      vertex 24.08 6 0
      vertex 27.58 38.89 0
    endloop
  endfacet
  facet normal 0 0 -1
    outer loop
      vertex 27.58 0 0
      vertex 23.0435 4.57342 0
      vertex 24.08 6 0
    endloop
  endfacet
  facet normal 0 0 -1
    outer loop
      vertex 27.58 0 0
      vertex 21.3665 5.11832 0
      vertex 23.0435 4.57342 0
    endloop
  endfacet
  facet normal 0 0 -1
    outer loop
      vertex 14.8 7 0
      vertex 21.3665 6.88168 0
      vertex 21.3665 5.11832 0
    endloop
  endfacet
  facet normal 0 0 -1
    outer loop
      vertex 14.8 33.89 0
      vertex 23.0435 33.4634 0
      vertex 14.8 7 0
    endloop
  endfacet
  facet normal 0 0 -1
    outer loop
      vertex 14.8 7 0
      vertex 21.3665 5.11832 0
      vertex 14.8 5 0
    endloop
  endfacet
  facet normal 0 0 -1
    outer loop
      vertex 27.58 0 0
      vertex 14.8 5 0
      vertex 21.3665 5.11832 0
    endloop
  endfacet
  facet normal 0 0 -1
    outer loop
      vertex 27.58 0 0
      vertex 5 3 0
      vertex 14.8 5 0
    endloop
  endfacet
  facet normal 0 0 -1
    outer loop
      vertex 0 0 0
      vertex 5 3 0
      vertex 27.58 0 0
    endloop
  endfacet
  facet normal -0 0 -1
    outer loop
      vertex 5 3 0
      vertex 0 0 0
      vertex 0 3 0
    endloop
  endfacet
  facet normal 0 0 -1
    outer loop
      vertex 24.08 34.89 0
      vertex 27.58 38.89 0
      vertex 24.08 6 0
    endloop
  endfacet
  facet normal 0 0 -1
    outer loop
      vertex 23.0435 36.3166 0
      vertex 27.58 38.89 0
      vertex 24.08 34.89 0
    endloop
  endfacet
  facet normal 0 0 -1
    outer loop
      vertex 14.8 35.89 0
      vertex 23.0435 36.3166 0
      vertex 21.3665 35.7717 0
    endloop
  endfacet
  facet normal 0 0 -1
    outer loop
      vertex 23.0435 33.4634 0
      vertex 14.8 33.89 0
      vertex 21.3665 34.0083 0
    endloop
  endfacet
  facet normal -0 0 -1
    outer loop
      vertex 21.3665 34.0083 0
      vertex 14.8 33.89 0
      vertex 21.3665 35.7717 0
    endloop
  endfacet
  facet normal 0 0 -1
    outer loop
      vertex 14.8 35.89 0
      vertex 21.3665 35.7717 0
      vertex 14.8 33.89 0
    endloop
  endfacet
  facet normal -0 0 -1
    outer loop
      vertex 23.0435 36.3166 0
      vertex 14.8 35.89 0
      vertex 27.58 38.89 0
    endloop
  endfacet
  facet normal 0 0 -1
    outer loop
      vertex 5 37.89 0
      vertex 27.58 38.89 0
      vertex 14.8 35.89 0
    endloop
  endfacet
  facet normal 0 0 -1
    outer loop
      vertex 0 38.89 0
      vertex 5 37.89 0
      vertex 0 37.89 0
    endloop
  endfacet
  facet normal 0 0 -1
    outer loop
      vertex 5 37.89 0
      vertex 0 38.89 0
      vertex 27.58 38.89 0
    endloop
  endfacet
  facet normal -0.809017 0.587785 0
    outer loop
      vertex 23.0435 4.57342 0
      vertex 24.08 6 2.96
      vertex 24.08 6 0
    endloop
  endfacet
  facet normal -0.809017 0.587785 0
    outer loop
      vertex 24.08 6 2.96
      vertex 23.0435 4.57342 0
      vertex 23.0435 4.57342 2.96
    endloop
  endfacet
  facet normal 0.309016 0.951057 -0
    outer loop
      vertex 23.0435 4.57342 0
      vertex 21.3665 5.11832 2.96
      vertex 23.0435 4.57342 2.96
    endloop
  endfacet
  facet normal 0.309016 0.951057 0
    outer loop
      vertex 21.3665 5.11832 2.96
      vertex 23.0435 4.57342 0
      vertex 21.3665 5.11832 0
    endloop
  endfacet
  facet normal -1 0 0
    outer loop
      vertex 0 0 0
      vertex 0 3 2.64
      vertex 0 3 0
    endloop
  endfacet
  facet normal -1 0 0
    outer loop
      vertex 0 3 2.64
      vertex 0 0.877641 7.22746
      vertex 0 1 8
    endloop
  endfacet
  facet normal -1 0 0
    outer loop
      vertex 0 3 2.64
      vertex 0 0.522542 6.53054
      vertex 0 0.877641 7.22746
    endloop
  endfacet
  facet normal -1 -0 0
    outer loop
      vertex 0 3 2.64
      vertex 0 0 0
      vertex 0 0 6.00799
    endloop
  endfacet
  facet normal -1 0 0
    outer loop
      vertex 0 3 2.64
      vertex 0 0 6.00799
      vertex 0 0.522542 6.53054
    endloop
  endfacet
  facet normal -1 0 0
    outer loop
      vertex 0 33.89 0
      vertex 0 22.76 4.96
      vertex 0 33.89 2.64
    endloop
  endfacet
  facet normal -1 0 0
    outer loop
      vertex 0 22.76 4.96
      vertex 0 16.89 4.96
      vertex 0 22.76 10.7
    endloop
  endfacet
  facet normal -1 0 0
    outer loop
      vertex 0 7 0
      vertex 0 22.76 4.96
      vertex 0 33.89 0
    endloop
  endfacet
  facet normal -1 -0 0
    outer loop
      vertex 0 22.76 4.96
      vertex 0 7 0
      vertex 0 16.89 4.96
    endloop
  endfacet
  facet normal -1 0 0
    outer loop
      vertex 0 7 2.64
      vertex 0 16.89 4.96
      vertex 0 7 0
    endloop
  endfacet
  facet normal -1 0 0
    outer loop
      vertex 0 7 2.64
      vertex 0 3.64 4.96
      vertex 0 16.89 4.96
    endloop
  endfacet
  facet normal -1 0 0
    outer loop
      vertex 0 3 2.64
      vertex 0 3.64 4.96
      vertex 0 7 2.64
    endloop
  endfacet
  facet normal -1 0 0
    outer loop
      vertex 0 1 8
      vertex 0 3.64 4.96
      vertex 0 3 2.64
    endloop
  endfacet
  facet normal -1 0 0
    outer loop
      vertex 0 3.64 4.96
      vertex 0 1 8
      vertex 0 3.64 10.7
    endloop
  endfacet
  facet normal -1 0 0
    outer loop
      vertex 0 0.877641 8.77254
      vertex 0 3.64 10.7
      vertex 0 1 8
    endloop
  endfacet
  facet normal -1 0 0
    outer loop
      vertex 0 0.522542 9.46946
      vertex 0 3.64 10.7
      vertex 0 0.877641 8.77254
    endloop
  endfacet
  facet normal -1 0 0
    outer loop
      vertex 0 0 10.7
      vertex 0 0.522542 9.46946
      vertex 0 0 9.99201
    endloop
  endfacet
  facet normal -1 0 0
    outer loop
      vertex 0 0.522542 9.46946
      vertex 0 0 10.7
      vertex 0 3.64 10.7
    endloop
  endfacet
  facet normal -1 0 0
    outer loop
      vertex 0 37.89 2.64
      vertex 0 38.89 6.00799
      vertex 0 38.89 0
    endloop
  endfacet
  facet normal -1 0 0
    outer loop
      vertex 0 36.01 4.96
      vertex 0 38.89 6.00799
      vertex 0 37.89 2.64
    endloop
  endfacet
  facet normal -1 0 0
    outer loop
      vertex 0 37.89 2.64
      vertex 0 38.89 0
      vertex 0 37.89 0
    endloop
  endfacet
  facet normal -1 -0 0
    outer loop
      vertex 0 38.89 6.00799
      vertex 0 36.01 4.96
      vertex 0 38.3675 6.53054
    endloop
  endfacet
  facet normal -1 -0 0
    outer loop
      vertex 0 38.3675 6.53054
      vertex 0 36.01 4.96
      vertex 0 38.0124 7.22746
    endloop
  endfacet
  facet normal -1 -0 0
    outer loop
      vertex 0 38.0124 7.22746
      vertex 0 36.01 4.96
      vertex 0 37.89 8
    endloop
  endfacet
  facet normal -1 0 0
    outer loop
      vertex 0 33.89 2.64
      vertex 0 36.01 4.96
      vertex 0 37.89 2.64
    endloop
  endfacet
  facet normal -1 -0 0
    outer loop
      vertex 0 36.01 4.96
      vertex 0 33.89 2.64
      vertex 0 22.76 4.96
    endloop
  endfacet
  facet normal -1 0 0
    outer loop
      vertex 0 38.3675 9.46946
      vertex 0 38.89 10.7
      vertex 0 38.89 9.99201
    endloop
  endfacet
  facet normal -1 0 0
    outer loop
      vertex 0 36.01 10.7
      vertex 0 38.3675 9.46946
      vertex 0 38.0124 8.77254
    endloop
  endfacet
  facet normal -1 0 0
    outer loop
      vertex 0 36.01 10.7
      vertex 0 37.89 8
      vertex 0 36.01 4.96
    endloop
  endfacet
  facet normal -1 0 0
    outer loop
      vertex 0 37.89 8
      vertex 0 36.01 10.7
      vertex 0 38.0124 8.77254
    endloop
  endfacet
  facet normal -1 0 0
    outer loop
      vertex 0 38.3675 9.46946
      vertex 0 36.01 10.7
      vertex 0 38.89 10.7
    endloop
  endfacet
  facet normal -1 -0 0
    outer loop
      vertex 0 22.76 10.7
      vertex 0 16.89 4.96
      vertex 0 16.89 10.7
    endloop
  endfacet
  facet normal 0 1 -0
    outer loop
      vertex 5 3 0
      vertex 0 3 2.64
      vertex 5 3 2.64
    endloop
  endfacet
  facet normal 0 1 0
    outer loop
      vertex 0 3 2.64
      vertex 5 3 0
      vertex 0 3 0
    endloop
  endfacet
  facet normal 0 -1 0
    outer loop
      vertex 0 7 0
      vertex 14.8 7 2.64
      vertex 0 7 2.64
    endloop
  endfacet
  facet normal 0 -1 -0
    outer loop
      vertex 14.8 7 2.64
      vertex 0 7 0
      vertex 14.8 7 0
    endloop
  endfacet
  facet normal 0 0 -1
    outer loop
      vertex 5 3 2.64
      vertex 14.8 7 2.64
      vertex 14.8 5 2.64
    endloop
  endfacet
  facet normal 0 0 -1
    outer loop
      vertex 0 7 2.64
      vertex 5 3 2.64
      vertex 0 3 2.64
    endloop
  endfacet
  facet normal 0 0 -1
    outer loop
      vertex 5 3 2.64
      vertex 0 7 2.64
      vertex 14.8 7 2.64
    endloop
  endfacet
  facet normal -1 0 0
    outer loop
      vertex 14.8 5 0
      vertex 14.8 7 2.64
      vertex 14.8 7 0
    endloop
  endfacet
  facet normal -1 -0 0
    outer loop
      vertex 14.8 7 2.64
      vertex 14.8 5 0
      vertex 14.8 5 2.64
    endloop
  endfacet
  facet normal -0.19996 0.979804 0
    outer loop
      vertex 14.8 5 0
      vertex 5 3 2.64
      vertex 14.8 5 2.64
    endloop
  endfacet
  facet normal -0.19996 0.979804 0
    outer loop
      vertex 5 3 2.64
      vertex 14.8 5 0
      vertex 5 3 0
    endloop
  endfacet
  facet normal -0.809017 -0.587785 0
    outer loop
      vertex 24.08 34.89 0
      vertex 23.0435 36.3166 2.96
      vertex 23.0435 36.3166 0
    endloop
  endfacet
  facet normal -0.809017 -0.587785 0
    outer loop
      vertex 23.0435 36.3166 2.96
      vertex 24.08 34.89 0
      vertex 24.08 34.89 2.96
    endloop
  endfacet
  facet normal 1 -0 0
    outer loop
      vertex 21.3665 34.0083 2.96
      vertex 21.3665 35.7717 0
      vertex 21.3665 35.7717 2.96
    endloop
  endfacet
  facet normal 1 0 0
    outer loop
      vertex 21.3665 35.7717 0
      vertex 21.3665 34.0083 2.96
      vertex 21.3665 34.0083 0
    endloop
  endfacet
  facet normal 0.309017 -0.951057 0
    outer loop
      vertex 21.3665 35.7717 0
      vertex 23.0435 36.3166 2.96
      vertex 21.3665 35.7717 2.96
    endloop
  endfacet
  facet normal 0.309017 -0.951057 0
    outer loop
      vertex 23.0435 36.3166 2.96
      vertex 21.3665 35.7717 0
      vertex 23.0435 36.3166 0
    endloop
  endfacet
  facet normal 0.309015 0.951057 -0
    outer loop
      vertex 23.0435 33.4634 0
      vertex 21.3665 34.0083 2.96
      vertex 23.0435 33.4634 2.96
    endloop
  endfacet
  facet normal 0.309015 0.951057 0
    outer loop
      vertex 21.3665 34.0083 2.96
      vertex 23.0435 33.4634 0
      vertex 21.3665 34.0083 0
    endloop
  endfacet
  facet normal -0.809017 0.587786 0
    outer loop
      vertex 23.0435 33.4634 0
      vertex 24.08 34.89 2.96
      vertex 24.08 34.89 0
    endloop
  endfacet
  facet normal -0.809017 0.587786 0
    outer loop
      vertex 24.08 34.89 2.96
      vertex 23.0435 33.4634 0
      vertex 23.0435 33.4634 2.96
    endloop
  endfacet
  facet normal 0 0 -1
    outer loop
      vertex 14.8 33.89 2.64
      vertex 5 37.89 2.64
      vertex 14.8 35.89 2.64
    endloop
  endfacet
  facet normal 0 0 -1
    outer loop
      vertex 0 33.89 2.64
      vertex 5 37.89 2.64
      vertex 14.8 33.89 2.64
    endloop
  endfacet
  facet normal -0 0 -1
    outer loop
      vertex 5 37.89 2.64
      vertex 0 33.89 2.64
      vertex 0 37.89 2.64
    endloop
  endfacet
  facet normal 0 1 -0
    outer loop
      vertex 14.8 33.89 0
      vertex 0 33.89 2.64
      vertex 14.8 33.89 2.64
    endloop
  endfacet
  facet normal 0 1 0
    outer loop
      vertex 0 33.89 2.64
      vertex 14.8 33.89 0
      vertex 0 33.89 0
    endloop
  endfacet
  facet normal -1 0 0
    outer loop
      vertex 14.8 33.89 0
      vertex 14.8 35.89 2.64
      vertex 14.8 35.89 0
    endloop
  endfacet
  facet normal -1 -0 0
    outer loop
      vertex 14.8 35.89 2.64
      vertex 14.8 33.89 0
      vertex 14.8 33.89 2.64
    endloop
  endfacet
  facet normal 0 -1 0
    outer loop
      vertex 0 37.89 0
      vertex 5 37.89 2.64
      vertex 0 37.89 2.64
    endloop
  endfacet
  facet normal 0 -1 -0
    outer loop
      vertex 5 37.89 2.64
      vertex 0 37.89 0
      vertex 5 37.89 0
    endloop
  endfacet
  facet normal -0.19996 -0.979804 0
    outer loop
      vertex 5 37.89 0
      vertex 14.8 35.89 2.64
      vertex 5 37.89 2.64
    endloop
  endfacet
  facet normal -0.19996 -0.979804 -0
    outer loop
      vertex 14.8 35.89 2.64
      vertex 5 37.89 0
      vertex 14.8 35.89 0
    endloop
  endfacet
  facet normal -0 0 1
    outer loop
      vertex 19.1376 3 4.96
      vertex 27.58 0 4.96
      vertex 27.58 3 4.96
    endloop
  endfacet
  facet normal -0 0 1
    outer loop
      vertex 14.65 1.32 4.96
      vertex 27.58 0 4.96
      vertex 19.1376 3 4.96
    endloop
  endfacet
  facet normal 0 0 1
    outer loop
      vertex 12.32 0 4.96
      vertex 14.65 1.32 4.96
      vertex 12.32 1.32 4.96
    endloop
  endfacet
  facet normal 0 0 1
    outer loop
      vertex 14.65 1.32 4.96
      vertex 12.32 0 4.96
      vertex 27.58 0 4.96
    endloop
  endfacet
  facet normal 0 0 1
    outer loop
      vertex 27.58 38.89 4.96
      vertex 16.7068 37 4.96
      vertex 27.58 37 4.96
    endloop
  endfacet
  facet normal 0 0 1
    outer loop
      vertex 27.58 38.89 4.96
      vertex 14.65 37.77 4.96
      vertex 16.7068 37 4.96
    endloop
  endfacet
  facet normal -0 0 1
    outer loop
      vertex 12.32 38.89 4.96
      vertex 14.65 37.77 4.96
      vertex 27.58 38.89 4.96
    endloop
  endfacet
  facet normal 0 0 1
    outer loop
      vertex 14.65 37.77 4.96
      vertex 12.32 38.89 4.96
      vertex 12.32 37.77 4.96
    endloop
  endfacet
  facet normal -0 0 1
    outer loop
      vertex 24.44 24.105 4.96
      vertex 27.58 14.985 4.96
      vertex 27.58 24.105 4.96
    endloop
  endfacet
  facet normal 0 0 1
    outer loop
      vertex 24.44 24.105 4.96
      vertex 24.44 14.985 4.96
      vertex 27.58 14.985 4.96
    endloop
  endfacet
  facet normal -0 0 1
    outer loop
      vertex 14.65 20.44 4.96
      vertex 24.44 14.985 4.96
      vertex 24.44 24.105 4.96
    endloop
  endfacet
  facet normal 0 0 1
    outer loop
      vertex 14.65 20.44 4.96
      vertex 14.65 18.65 4.96
      vertex 24.44 14.985 4.96
    endloop
  endfacet
  facet normal -0 0 1
    outer loop
      vertex 12.32 20.44 4.96
      vertex 14.65 18.65 4.96
      vertex 14.65 20.44 4.96
    endloop
  endfacet
  facet normal 0 0 1
    outer loop
      vertex 14.65 18.65 4.96
      vertex 12.32 20.44 4.96
      vertex 12.32 18.65 4.96
    endloop
  endfacet
  facet normal 1 0 0
    outer loop
      vertex 27.58 3 4.96
      vertex 27.58 0 4.96
      vertex 27.58 3 2.96
    endloop
  endfacet
  facet normal 1 0 0
    outer loop
      vertex 27.58 24.105 4.96
      vertex 27.58 14.985 4.96
      vertex 27.58 24.105 2.96
    endloop
  endfacet
  facet normal 1 0 0
    outer loop
      vertex 27.58 37 2.96
      vertex 27.58 38.89 4.96
      vertex 27.58 37 4.96
    endloop
  endfacet
  facet normal 1 0 0
    outer loop
      vertex 27.58 38.89 4.96
      vertex 27.58 37 2.96
      vertex 27.58 38.89 0
    endloop
  endfacet
  facet normal 1 -0 0
    outer loop
      vertex 27.58 27 2.96
      vertex 27.58 38.89 0
      vertex 27.58 37 2.96
    endloop
  endfacet
  facet normal 1 0 0
    outer loop
      vertex 27.58 24.105 2.96
      vertex 27.58 38.89 0
      vertex 27.58 27 2.96
    endloop
  endfacet
  facet normal 1 0 0
    outer loop
      vertex 27.58 14.985 2.96
      vertex 27.58 24.105 2.96
      vertex 27.58 14.985 4.96
    endloop
  endfacet
  facet normal 1 -0 0
    outer loop
      vertex 27.58 14.985 2.96
      vertex 27.58 38.89 0
      vertex 27.58 24.105 2.96
    endloop
  endfacet
  facet normal 1 0 0
    outer loop
      vertex 27.58 0 0
      vertex 27.58 14.985 2.96
      vertex 27.58 13 2.96
    endloop
  endfacet
  facet normal 1 0 0
    outer loop
      vertex 27.58 0 0
      vertex 27.58 13 2.96
      vertex 27.58 3 2.96
    endloop
  endfacet
  facet normal 1 0 0
    outer loop
      vertex 27.58 14.985 2.96
      vertex 27.58 0 0
      vertex 27.58 38.89 0
    endloop
  endfacet
  facet normal 1 0 0
    outer loop
      vertex 27.58 0 0
      vertex 27.58 3 2.96
      vertex 27.58 0 4.96
    endloop
  endfacet
  facet normal 0 1 0
    outer loop
      vertex 27.58 38.89 4.96
      vertex 27.58 38.89 0
      vertex 12.32 38.89 4.96
    endloop
  endfacet
  facet normal 0 1 0
    outer loop
      vertex 12.32 38.89 10.7
      vertex 4 38.89 9.99201
      vertex 0 38.89 10.7
    endloop
  endfacet
  facet normal 0 1 0
    outer loop
      vertex 12.32 38.89 10.7
      vertex 4 38.89 9.98051
      vertex 4 38.89 9.99201
    endloop
  endfacet
  facet normal 0 1 0
    outer loop
      vertex 12.32 38.89 10.7
      vertex 4 38.89 9.65018
      vertex 4 38.89 9.98051
    endloop
  endfacet
  facet normal 0 1 0
    outer loop
      vertex 12.32 38.89 10.7
      vertex 4 38.89 9.41019
      vertex 4 38.89 9.65018
    endloop
  endfacet
  facet normal 0 1 0
    outer loop
      vertex 12.32 38.89 10.7
      vertex 4 38.89 8.77254
      vertex 4 38.89 9.41019
    endloop
  endfacet
  facet normal 0 1 -0
    outer loop
      vertex 12.32 38.89 4.96
      vertex 4 38.89 8.77254
      vertex 12.32 38.89 10.7
    endloop
  endfacet
  facet normal 0 1 0
    outer loop
      vertex 4 38.89 8.77254
      vertex 12.32 38.89 4.96
      vertex 4 38.89 6.00799
    endloop
  endfacet
  facet normal 0 1 0
    outer loop
      vertex 0 38.89 0
      vertex 4 38.89 6.00799
      vertex 12.32 38.89 4.96
    endloop
  endfacet
  facet normal 0 1 0
    outer loop
      vertex 0 38.89 0
      vertex 12.32 38.89 4.96
      vertex 27.58 38.89 0
    endloop
  endfacet
  facet normal 0 1 0
    outer loop
      vertex 4 38.89 6.00799
      vertex 0 38.89 0
      vertex 0 38.89 6.00799
    endloop
  endfacet
  facet normal 0 1 0
    outer loop
      vertex 0 38.89 10.7
      vertex 4 38.89 9.99201
      vertex 0 38.89 9.99201
    endloop
  endfacet
  facet normal 0 -1 0
    outer loop
      vertex 0 0 0
      vertex 4 0 6.00799
      vertex 0 0 6.00799
    endloop
  endfacet
  facet normal 0 -1 -0
    outer loop
      vertex 4 0 6.00799
      vertex 0 0 0
      vertex 12.32 0 4.96
    endloop
  endfacet
  facet normal 0 -1 0
    outer loop
      vertex 27.58 0 0
      vertex 12.32 0 4.96
      vertex 0 0 0
    endloop
  endfacet
  facet normal 0 -1 0
    outer loop
      vertex 12.32 0 4.96
      vertex 27.58 0 0
      vertex 27.58 0 4.96
    endloop
  endfacet
  facet normal 0 -1 0
    outer loop
      vertex 4 0 9.99201
      vertex 0 0 10.7
      vertex 0 0 9.99201
    endloop
  endfacet
  facet normal 0 -1 0
    outer loop
      vertex 0 0 10.7
      vertex 4 0 9.99201
      vertex 12.32 0 10.7
    endloop
  endfacet
  facet normal 0 -1 0
    outer loop
      vertex 4 0 9.98051
      vertex 12.32 0 10.7
      vertex 4 0 9.99201
    endloop
  endfacet
  facet normal 0 -1 0
    outer loop
      vertex 4 0 9.65018
      vertex 12.32 0 10.7
      vertex 4 0 9.98051
    endloop
  endfacet
  facet normal 0 -1 0
    outer loop
      vertex 4 0 9.41019
      vertex 12.32 0 10.7
      vertex 4 0 9.65018
    endloop
  endfacet
  facet normal 0 -1 0
    outer loop
      vertex 4 0 8.77254
      vertex 12.32 0 10.7
      vertex 4 0 9.41019
    endloop
  endfacet
  facet normal 0 -1 0
    outer loop
      vertex 12.32 0 4.96
      vertex 4 0 8.77254
      vertex 4 0 6.00799
    endloop
  endfacet
  facet normal 0 -1 0
    outer loop
      vertex 4 0 8.77254
      vertex 12.32 0 4.96
      vertex 12.32 0 10.7
    endloop
  endfacet
  facet normal 1 0 0
    outer loop
      vertex 4.65 3.64 10.7
      vertex 4.65 1.32 10.7
      vertex 4.65 3.64 4.96
    endloop
  endfacet
  facet normal 1 0 0
    outer loop
      vertex 4.65 16.89 4.96
      vertex 4.65 18.65 10.7
      vertex 4.65 16.89 10.7
    endloop
  endfacet
  facet normal 1 0 0
    outer loop
      vertex 4.65 18.65 10.7
      vertex 4.65 16.89 4.96
      vertex 4.65 18.65 2.96
    endloop
  endfacet
  facet normal 1 -0 0
    outer loop
      vertex 4.65 3.64 4.96
      vertex 4.65 18.65 2.96
      vertex 4.65 16.89 4.96
    endloop
  endfacet
  facet normal 1 0 0
    outer loop
      vertex 4.65 3.64 4.96
      vertex 4.65 1.32 2.96
      vertex 4.65 18.65 2.96
    endloop
  endfacet
  facet normal 1 0 0
    outer loop
      vertex 4.65 1.32 2.96
      vertex 4.65 3.64 4.96
      vertex 4.65 1.32 10.7
    endloop
  endfacet
  facet normal -0 0 1
    outer loop
      vertex 0 16.89 4.96
      vertex 4.65 3.64 4.96
      vertex 4.65 16.89 4.96
    endloop
  endfacet
  facet normal 0 0 1
    outer loop
      vertex 4.65 3.64 4.96
      vertex 0 16.89 4.96
      vertex 0 3.64 4.96
    endloop
  endfacet
  facet normal 0 1 -0
    outer loop
      vertex 4.65 3.64 4.96
      vertex 0 3.64 10.7
      vertex 4.65 3.64 10.7
    endloop
  endfacet
  facet normal 0 1 0
    outer loop
      vertex 0 3.64 10.7
      vertex 4.65 3.64 4.96
      vertex 0 3.64 4.96
    endloop
  endfacet
  facet normal 0 -1 0
    outer loop
      vertex 0 16.89 4.96
      vertex 4.65 16.89 10.7
      vertex 0 16.89 10.7
    endloop
  endfacet
  facet normal 0 -1 -0
    outer loop
      vertex 4.65 16.89 10.7
      vertex 0 16.89 4.96
      vertex 4.65 16.89 4.96
    endloop
  endfacet
  facet normal 0 1 0
    outer loop
      vertex 14.65 1.32 4.96
      vertex 14.65 1.32 2.96
      vertex 12.32 1.32 4.96
    endloop
  endfacet
  facet normal 0 1 -0
    outer loop
      vertex 12.32 1.32 4.96
      vertex 4.65 1.32 10.7
      vertex 12.32 1.32 10.7
    endloop
  endfacet
  facet normal 0 1 0
    outer loop
      vertex 4.65 1.32 2.96
      vertex 12.32 1.32 4.96
      vertex 14.65 1.32 2.96
    endloop
  endfacet
  facet normal 0 1 0
    outer loop
      vertex 12.32 1.32 4.96
      vertex 4.65 1.32 2.96
      vertex 4.65 1.32 10.7
    endloop
  endfacet
  facet normal 0 -1 0
    outer loop
      vertex 4.65 18.65 10.7
      vertex 12.32 18.65 4.96
      vertex 12.32 18.65 10.7
    endloop
  endfacet
  facet normal 0 -1 0
    outer loop
      vertex 4.65 18.65 2.96
      vertex 12.32 18.65 4.96
      vertex 4.65 18.65 10.7
    endloop
  endfacet
  facet normal 0 -1 0
    outer loop
      vertex 14.65 18.65 2.96
      vertex 12.32 18.65 4.96
      vertex 4.65 18.65 2.96
    endloop
  endfacet
  facet normal 0 -1 0
    outer loop
      vertex 12.32 18.65 4.96
      vertex 14.65 18.65 2.96
      vertex 14.65 18.65 4.96
    endloop
  endfacet
  facet normal -0.350599 -0.936526 0
    outer loop
      vertex 14.65 18.65 2.96
      vertex 24.44 14.985 4.96
      vertex 14.65 18.65 4.96
    endloop
  endfacet
  facet normal -0.350599 -0.936526 -0
    outer loop
      vertex 24.44 14.985 4.96
      vertex 14.65 18.65 2.96
      vertex 24.44 14.985 2.96
    endloop
  endfacet
  facet normal -0 0 1
    outer loop
      vertex 24.44 14.985 2.96
      vertex 27.58 13 2.96
      vertex 27.58 14.985 2.96
    endloop
  endfacet
  facet normal 0 0 1
    outer loop
      vertex 24.44 14.985 2.96
      vertex 19 13 2.96
      vertex 27.58 13 2.96
    endloop
  endfacet
  facet normal -0 0 1
    outer loop
      vertex 4.65 18.65 2.96
      vertex 19 13 2.96
      vertex 14.65 18.65 2.96
    endloop
  endfacet
  facet normal 0 0 1
    outer loop
      vertex 14.65 18.65 2.96
      vertex 19 13 2.96
      vertex 24.44 14.985 2.96
    endloop
  endfacet
  facet normal -0 0 1
    outer loop
      vertex 19 3 2.96
      vertex 14.65 1.32 2.96
      vertex 19.1376 3 2.96
    endloop
  endfacet
  facet normal 0 0 1
    outer loop
      vertex 19 13 2.96
      vertex 14.65 1.32 2.96
      vertex 19 3 2.96
    endloop
  endfacet
  facet normal 0 0 1
    outer loop
      vertex 4.65 1.32 2.96
      vertex 19 13 2.96
      vertex 4.65 18.65 2.96
    endloop
  endfacet
  facet normal 0 0 1
    outer loop
      vertex 19 13 2.96
      vertex 4.65 1.32 2.96
      vertex 14.65 1.32 2.96
    endloop
  endfacet
  facet normal -0.350599 0.936526 0
    outer loop
      vertex 19.1376 3 2.96
      vertex 14.65 1.32 4.96
      vertex 19.1376 3 4.96
    endloop
  endfacet
  facet normal -0.350599 0.936526 0
    outer loop
      vertex 14.65 1.32 4.96
      vertex 19.1376 3 2.96
      vertex 14.65 1.32 2.96
    endloop
  endfacet
  facet normal 0 -1 0
    outer loop
      vertex 24.44 14.985 2.96
      vertex 27.58 14.985 4.96
      vertex 24.44 14.985 4.96
    endloop
  endfacet
  facet normal 0 -1 -0
    outer loop
      vertex 27.58 14.985 4.96
      vertex 24.44 14.985 2.96
      vertex 27.58 14.985 2.96
    endloop
  endfacet
  facet normal 1 0 0
    outer loop
      vertex 4.65 22.76 10.7
      vertex 4.65 20.44 10.7
      vertex 4.65 22.76 4.96
    endloop
  endfacet
  facet normal 1 0 0
    outer loop
      vertex 4.65 36.01 4.96
      vertex 4.65 37.77 10.7
      vertex 4.65 36.01 10.7
    endloop
  endfacet
  facet normal 1 0 0
    outer loop
      vertex 4.65 37.77 10.7
      vertex 4.65 36.01 4.96
      vertex 4.65 37.77 2.96
    endloop
  endfacet
  facet normal 1 -0 0
    outer loop
      vertex 4.65 22.76 4.96
      vertex 4.65 37.77 2.96
      vertex 4.65 36.01 4.96
    endloop
  endfacet
  facet normal 1 0 0
    outer loop
      vertex 4.65 22.76 4.96
      vertex 4.65 20.44 2.96
      vertex 4.65 37.77 2.96
    endloop
  endfacet
  facet normal 1 0 0
    outer loop
      vertex 4.65 20.44 2.96
      vertex 4.65 22.76 4.96
      vertex 4.65 20.44 10.7
    endloop
  endfacet
  facet normal -0 0 1
    outer loop
      vertex 0 36.01 4.96
      vertex 4.65 22.76 4.96
      vertex 4.65 36.01 4.96
    endloop
  endfacet
  facet normal 0 0 1
    outer loop
      vertex 4.65 22.76 4.96
      vertex 0 36.01 4.96
      vertex 0 22.76 4.96
    endloop
  endfacet
  facet normal 0 1 -0
    outer loop
      vertex 4.65 22.76 4.96
      vertex 0 22.76 10.7
      vertex 4.65 22.76 10.7
    endloop
  endfacet
  facet normal 0 1 0
    outer loop
      vertex 0 22.76 10.7
      vertex 4.65 22.76 4.96
      vertex 0 22.76 4.96
    endloop
  endfacet
  facet normal 0 -1 0
    outer loop
      vertex 0 36.01 4.96
      vertex 4.65 36.01 10.7
      vertex 0 36.01 10.7
    endloop
  endfacet
  facet normal 0 -1 -0
    outer loop
      vertex 4.65 36.01 10.7
      vertex 0 36.01 4.96
      vertex 4.65 36.01 4.96
    endloop
  endfacet
  facet normal 0 1 0
    outer loop
      vertex 14.65 20.44 4.96
      vertex 14.65 20.44 2.96
      vertex 12.32 20.44 4.96
    endloop
  endfacet
  facet normal 0 1 -0
    outer loop
      vertex 12.32 20.44 4.96
      vertex 4.65 20.44 10.7
      vertex 12.32 20.44 10.7
    endloop
  endfacet
  facet normal 0 1 0
    outer loop
      vertex 4.65 20.44 2.96
      vertex 12.32 20.44 4.96
      vertex 14.65 20.44 2.96
    endloop
  endfacet
  facet normal 0 1 0
    outer loop
      vertex 12.32 20.44 4.96
      vertex 4.65 20.44 2.96
      vertex 4.65 20.44 10.7
    endloop
  endfacet
  facet normal 0 -1 0
    outer loop
      vertex 4.65 37.77 10.7
      vertex 12.32 37.77 4.96
      vertex 12.32 37.77 10.7
    endloop
  endfacet
  facet normal 0 -1 0
    outer loop
      vertex 4.65 37.77 2.96
      vertex 12.32 37.77 4.96
      vertex 4.65 37.77 10.7
    endloop
  endfacet
  facet normal 0 -1 0
    outer loop
      vertex 14.65 37.77 2.96
      vertex 12.32 37.77 4.96
      vertex 4.65 37.77 2.96
    endloop
  endfacet
  facet normal 0 -1 0
    outer loop
      vertex 12.32 37.77 4.96
      vertex 14.65 37.77 2.96
      vertex 14.65 37.77 4.96
    endloop
  endfacet
  facet normal -0.350599 -0.936526 0
    outer loop
      vertex 14.65 37.77 2.96
      vertex 16.7068 37 4.96
      vertex 14.65 37.77 4.96
    endloop
  endfacet
  facet normal -0.350599 -0.936526 -0
    outer loop
      vertex 16.7068 37 4.96
      vertex 14.65 37.77 2.96
      vertex 16.7068 37 2.96
    endloop
  endfacet
  facet normal 0 0 1
    outer loop
      vertex 16 37 2.96
      vertex 14.65 37.77 2.96
      vertex 16 27 2.96
    endloop
  endfacet
  facet normal 0 0 1
    outer loop
      vertex 14.65 37.77 2.96
      vertex 16 37 2.96
      vertex 16.7068 37 2.96
    endloop
  endfacet
  facet normal 0 0 1
    outer loop
      vertex 27.58 27 2.96
      vertex 24.44 24.105 2.96
      vertex 27.58 24.105 2.96
    endloop
  endfacet
  facet normal -0 0 1
    outer loop
      vertex 16 27 2.96
      vertex 24.44 24.105 2.96
      vertex 27.58 27 2.96
    endloop
  endfacet
  facet normal 0 0 1
    outer loop
      vertex 16 27 2.96
      vertex 14.65 20.44 2.96
      vertex 24.44 24.105 2.96
    endloop
  endfacet
  facet normal -0 0 1
    outer loop
      vertex 4.65 37.77 2.96
      vertex 16 27 2.96
      vertex 14.65 37.77 2.96
    endloop
  endfacet
  facet normal 0 0 1
    outer loop
      vertex 4.65 20.44 2.96
      vertex 16 27 2.96
      vertex 4.65 37.77 2.96
    endloop
  endfacet
  facet normal 0 0 1
    outer loop
      vertex 16 27 2.96
      vertex 4.65 20.44 2.96
      vertex 14.65 20.44 2.96
    endloop
  endfacet
  facet normal -0.350599 0.936526 0
    outer loop
      vertex 24.44 24.105 2.96
      vertex 14.65 20.44 4.96
      vertex 24.44 24.105 4.96
    endloop
  endfacet
  facet normal -0.350599 0.936526 0
    outer loop
      vertex 14.65 20.44 4.96
      vertex 24.44 24.105 2.96
      vertex 14.65 20.44 2.96
    endloop
  endfacet
  facet normal 0 1 -0
    outer loop
      vertex 27.58 24.105 2.96
      vertex 24.44 24.105 4.96
      vertex 27.58 24.105 4.96
    endloop
  endfacet
  facet normal 0 1 0
    outer loop
      vertex 24.44 24.105 4.96
      vertex 27.58 24.105 2.96
      vertex 24.44 24.105 2.96
    endloop
  endfacet
  facet normal 0 -0.891006 0.453991
    outer loop
      vertex 0 0.522542 6.53054
      vertex 4 0.877641 7.22746
      vertex 0 0.877641 7.22746
    endloop
  endfacet
  facet normal 0 -0.891006 0.453991
    outer loop
      vertex 4 0.877641 7.22746
      vertex 0 0.522542 6.53054
      vertex 4 0.522542 6.53054
    endloop
  endfacet
  facet normal -1 -9.00211e-07 -1.44353e-06
    outer loop
      vertex 4 0.877641 8.77254
      vertex 4 0 9.65018
      vertex 4 0 9.98051
    endloop
  endfacet
  facet normal 0 -0.987688 -0.156435
    outer loop
      vertex 0 1 8
      vertex 4 0.877641 8.77254
      vertex 0 0.877641 8.77254
    endloop
  endfacet
  facet normal 0 -0.987688 -0.156435
    outer loop
      vertex 4 0.877641 8.77254
      vertex 0 1 8
      vertex 4 1 8
    endloop
  endfacet
  facet normal -1 0 0
    outer loop
      vertex 4 0 8.77254
      vertex 4 1 8
      vertex 4 0.877641 7.22746
    endloop
  endfacet
  facet normal -1 0 0
    outer loop
      vertex 4 0 8.77254
      vertex 4 0.877641 7.22746
      vertex 4 0.522542 6.53054
    endloop
  endfacet
  facet normal -1 0 0
    outer loop
      vertex 4 0 8.77254
      vertex 4 0.522542 6.53054
      vertex 4 0 6.00799
    endloop
  endfacet
  facet normal -1 0 0
    outer loop
      vertex 4 1 8
      vertex 4 0 8.77254
      vertex 4 0.877641 8.77254
    endloop
  endfacet
  facet normal -1 -0 -3.73906e-07
    outer loop
      vertex 4 0.877641 8.77254
      vertex 4 0 8.77254
      vertex 4 0 9.41019
    endloop
  endfacet
  facet normal 0 -0.707107 0.707106
    outer loop
      vertex 0 0 6.00799
      vertex 4 0.522542 6.53054
      vertex 0 0.522542 6.53054
    endloop
  endfacet
  facet normal 0 -0.707107 0.707106
    outer loop
      vertex 4 0.522542 6.53054
      vertex 0 0 6.00799
      vertex 4 0 6.00799
    endloop
  endfacet
  facet normal 0 -0.987688 0.156435
    outer loop
      vertex 0 0.877641 7.22746
      vertex 4 1 8
      vertex 0 1 8
    endloop
  endfacet
  facet normal 0 -0.987688 0.156435
    outer loop
      vertex 4 1 8
      vertex 0 0.877641 7.22746
      vertex 4 0.877641 7.22746
    endloop
  endfacet
  facet normal -1 -4.50104e-07 -9.9342e-07
    outer loop
      vertex 4 0.877641 8.77254
      vertex 4 0 9.41019
      vertex 4 0 9.65018
    endloop
  endfacet
  facet normal -1 -2.66766e-06 -2.72765e-06
    outer loop
      vertex 4 0 9.98051
      vertex 4 0.522542 9.46946
      vertex 4 0.877641 8.77254
    endloop
  endfacet
  facet normal -1 0 0
    outer loop
      vertex 4 0.522542 9.46946
      vertex 4 0 9.98051
      vertex 4 0 9.99201
    endloop
  endfacet
  facet normal 0 -0.707107 -0.707106
    outer loop
      vertex 0 0.522542 9.46946
      vertex 4 0 9.99201
      vertex 0 0 9.99201
    endloop
  endfacet
  facet normal 0 -0.707107 -0.707106
    outer loop
      vertex 4 0 9.99201
      vertex 0 0.522542 9.46946
      vertex 4 0.522542 9.46946
    endloop
  endfacet
  facet normal 0 -0.891006 -0.453991
    outer loop
      vertex 0 0.877641 8.77254
      vertex 4 0.522542 9.46946
      vertex 0 0.522542 9.46946
    endloop
  endfacet
  facet normal 0 -0.891006 -0.453991
    outer loop
      vertex 4 0.522542 9.46946
      vertex 0 0.877641 8.77254
      vertex 4 0.877641 8.77254
    endloop
  endfacet
  facet normal 0 0.987688 -0.156436
    outer loop
      vertex 4 37.89 8
      vertex 0 38.0124 8.77254
      vertex 4 38.0124 8.77254
    endloop
  endfacet
  facet normal 0 0.987688 -0.156436
    outer loop
      vertex 0 38.0124 8.77254
      vertex 4 37.89 8
      vertex 0 37.89 8
    endloop
  endfacet
  facet normal 0 0.707108 0.707105
    outer loop
      vertex 4 38.89 6.00799
      vertex 0 38.3675 6.53054
      vertex 4 38.3675 6.53054
    endloop
  endfacet
  facet normal 0 0.707108 0.707105
    outer loop
      vertex 0 38.3675 6.53054
      vertex 4 38.89 6.00799
      vertex 0 38.89 6.00799
    endloop
  endfacet
  facet normal -1 0 0
    outer loop
      vertex 4 38.3675 6.53054
      vertex 4 38.89 8.77254
      vertex 4 38.89 6.00799
    endloop
  endfacet
  facet normal -1 0 0
    outer loop
      vertex 4 38.0124 7.22746
      vertex 4 38.89 8.77254
      vertex 4 38.3675 6.53054
    endloop
  endfacet
  facet normal -1 0 0
    outer loop
      vertex 4 37.89 8
      vertex 4 38.89 8.77254
      vertex 4 38.0124 7.22746
    endloop
  endfacet
  facet normal -1 -0 0
    outer loop
      vertex 4 38.89 8.77254
      vertex 4 37.89 8
      vertex 4 38.0124 8.77254
    endloop
  endfacet
  facet normal -1 -0 -3.73906e-07
    outer loop
      vertex 4 38.89 8.77254
      vertex 4 38.0124 8.77254
      vertex 4 38.89 9.41019
    endloop
  endfacet
  facet normal 0 0.987688 0.156436
    outer loop
      vertex 4 38.0124 7.22746
      vertex 0 37.89 8
      vertex 4 37.89 8
    endloop
  endfacet
  facet normal 0 0.987688 0.156436
    outer loop
      vertex 0 37.89 8
      vertex 4 38.0124 7.22746
      vertex 0 38.0124 7.22746
    endloop
  endfacet
  facet normal 0 0.891006 0.453991
    outer loop
      vertex 4 38.3675 6.53054
      vertex 0 38.0124 7.22746
      vertex 4 38.0124 7.22746
    endloop
  endfacet
  facet normal 0 0.891006 0.453991
    outer loop
      vertex 0 38.0124 7.22746
      vertex 4 38.3675 6.53054
      vertex 0 38.3675 6.53054
    endloop
  endfacet
  facet normal -1 9.00206e-07 -1.44352e-06
    outer loop
      vertex 4 38.89 9.65018
      vertex 4 38.0124 8.77254
      vertex 4 38.89 9.98051
    endloop
  endfacet
  facet normal -1 4.50107e-07 -9.93424e-07
    outer loop
      vertex 4 38.89 9.41019
      vertex 4 38.0124 8.77254
      vertex 4 38.89 9.65018
    endloop
  endfacet
  facet normal -1 -0 0
    outer loop
      vertex 4 38.89 9.98051
      vertex 4 38.3675 9.46946
      vertex 4 38.89 9.99201
    endloop
  endfacet
  facet normal -1 2.66767e-06 -2.72766e-06
    outer loop
      vertex 4 38.3675 9.46946
      vertex 4 38.89 9.98051
      vertex 4 38.0124 8.77254
    endloop
  endfacet
  facet normal 0 0.891006 -0.453991
    outer loop
      vertex 4 38.0124 8.77254
      vertex 0 38.3675 9.46946
      vertex 4 38.3675 9.46946
    endloop
  endfacet
  facet normal 0 0.891006 -0.453991
    outer loop
      vertex 0 38.3675 9.46946
      vertex 4 38.0124 8.77254
      vertex 0 38.0124 8.77254
    endloop
  endfacet
  facet normal 0 0.707108 -0.707105
    outer loop
      vertex 4 38.3675 9.46946
      vertex 0 38.89 9.99201
      vertex 4 38.89 9.99201
    endloop
  endfacet
  facet normal 0 0.707108 -0.707105
    outer loop
      vertex 0 38.89 9.99201
      vertex 4 38.3675 9.46946
      vertex 0 38.3675 9.46946
    endloop
  endfacet
  facet normal 0 0 1
    outer loop
      vertex 4.65 3.64 10.7
      vertex 0 3.64 10.7
      vertex 4.65 1.32 10.7
    endloop
  endfacet
  facet normal -0 0 1
    outer loop
      vertex 4.65 1.32 10.7
      vertex 12.32 0 10.7
      vertex 12.32 1.32 10.7
    endloop
  endfacet
  facet normal 0 0 1
    outer loop
      vertex 4.65 1.32 10.7
      vertex 0 0 10.7
      vertex 12.32 0 10.7
    endloop
  endfacet
  facet normal 0 0 1
    outer loop
      vertex 0 0 10.7
      vertex 4.65 1.32 10.7
      vertex 0 3.64 10.7
    endloop
  endfacet
  facet normal 0 0 1
    outer loop
      vertex 12.32 38.89 10.7
      vertex 4.65 37.77 10.7
      vertex 12.32 37.77 10.7
    endloop
  endfacet
  facet normal -0 0 1
    outer loop
      vertex 0 38.89 10.7
      vertex 4.65 37.77 10.7
      vertex 12.32 38.89 10.7
    endloop
  endfacet
  facet normal 0 0 1
    outer loop
      vertex 0 36.01 10.7
      vertex 4.65 37.77 10.7
      vertex 0 38.89 10.7
    endloop
  endfacet
  facet normal 0 0 1
    outer loop
      vertex 4.65 37.77 10.7
      vertex 0 36.01 10.7
      vertex 4.65 36.01 10.7
    endloop
  endfacet
  facet normal -0 0 1
    outer loop
      vertex 0 22.76 10.7
      vertex 4.65 20.44 10.7
      vertex 4.65 22.76 10.7
    endloop
  endfacet
  facet normal 0 0 1
    outer loop
      vertex 0 16.89 10.7
      vertex 4.65 20.44 10.7
      vertex 0 22.76 10.7
    endloop
  endfacet
  facet normal 0 0 1
    outer loop
      vertex 4.65 20.44 10.7
      vertex 0 16.89 10.7
      vertex 4.65 18.65 10.7
    endloop
  endfacet
  facet normal 0 0 1
    outer loop
      vertex 4.65 18.65 10.7
      vertex 0 16.89 10.7
      vertex 4.65 16.89 10.7
    endloop
  endfacet
  facet normal -0 0 1
    outer loop
      vertex 4.65 20.44 10.7
      vertex 12.32 18.65 10.7
      vertex 12.32 20.44 10.7
    endloop
  endfacet
  facet normal 0 0 1
    outer loop
      vertex 12.32 18.65 10.7
      vertex 4.65 20.44 10.7
      vertex 4.65 18.65 10.7
    endloop
  endfacet
  facet normal 1 -0 0
    outer loop
      vertex 12.32 0 10.7
      vertex 12.32 1.32 4.96
      vertex 12.32 1.32 10.7
    endloop
  endfacet
  facet normal 1 0 0
    outer loop
      vertex 12.32 1.32 4.96
      vertex 12.32 0 10.7
      vertex 12.32 0 4.96
    endloop
  endfacet
  facet normal 1 -0 0
    outer loop
      vertex 12.32 37.77 10.7
      vertex 12.32 38.89 4.96
      vertex 12.32 38.89 10.7
    endloop
  endfacet
  facet normal 1 0 0
    outer loop
      vertex 12.32 38.89 4.96
      vertex 12.32 37.77 10.7
      vertex 12.32 37.77 4.96
    endloop
  endfacet
  facet normal 1 -0 0
    outer loop
      vertex 12.32 18.65 10.7
      vertex 12.32 20.44 4.96
      vertex 12.32 20.44 10.7
    endloop
  endfacet
  facet normal 1 0 0
    outer loop
      vertex 12.32 20.44 4.96
      vertex 12.32 18.65 10.7
      vertex 12.32 18.65 4.96
    endloop
  endfacet
  facet normal 0 0 1
    outer loop
      vertex 27.58 13 2.96
      vertex 24.08 6 2.96
      vertex 27.58 3 2.96
    endloop
  endfacet
  facet normal 0 0 1
    outer loop
      vertex 27.58 13 2.96
      vertex 23.0435 7.42658 2.96
      vertex 24.08 6 2.96
    endloop
  endfacet
  facet normal -0 0 1
    outer loop
      vertex 19 13 2.96
      vertex 23.0435 7.42658 2.96
      vertex 27.58 13 2.96
    endloop
  endfacet
  facet normal 0 0 1
    outer loop
      vertex 19 3 2.96
      vertex 21.3665 6.88168 2.96
      vertex 19 13 2.96
    endloop
  endfacet
  facet normal 0 0 1
    outer loop
      vertex 23.0435 7.42658 2.96
      vertex 19 13 2.96
      vertex 21.3665 6.88168 2.96
    endloop
  endfacet
  facet normal -0 0 1
    outer loop
      vertex 23.0435 4.57342 2.96
      vertex 27.58 3 2.96
      vertex 24.08 6 2.96
    endloop
  endfacet
  facet normal 0 0 1
    outer loop
      vertex 19 3 2.96
      vertex 23.0435 4.57342 2.96
      vertex 21.3665 5.11832 2.96
    endloop
  endfacet
  facet normal 0 0 1
    outer loop
      vertex 23.0435 4.57342 2.96
      vertex 19 3 2.96
      vertex 27.58 3 2.96
    endloop
  endfacet
  facet normal 0 0 1
    outer loop
      vertex 21.3665 6.88168 2.96
      vertex 19 3 2.96
      vertex 21.3665 5.11832 2.96
    endloop
  endfacet
  facet normal 0 1 0
    outer loop
      vertex 27.58 3 4.96
      vertex 19.1376 3 2.96
      vertex 19.1376 3 4.96
    endloop
  endfacet
  facet normal 0 1 -0
    outer loop
      vertex 27.58 3 2.96
      vertex 19.1376 3 2.96
      vertex 27.58 3 4.96
    endloop
  endfacet
  facet normal 0 1 0
    outer loop
      vertex 19 3 2.96
      vertex 19.1376 3 2.96
      vertex 27.58 3 2.96
    endloop
  endfacet
  facet normal 0 0 1
    outer loop
      vertex 27.58 37 2.96
      vertex 24.08 34.89 2.96
      vertex 27.58 27 2.96
    endloop
  endfacet
  facet normal 0 0 1
    outer loop
      vertex 27.58 37 2.96
      vertex 23.0435 36.3166 2.96
      vertex 24.08 34.89 2.96
    endloop
  endfacet
  facet normal 0 0 1
    outer loop
      vertex 21.3665 35.7717 2.96
      vertex 16 37 2.96
      vertex 21.3665 34.0083 2.96
    endloop
  endfacet
  facet normal 0 0 1
    outer loop
      vertex 23.0435 36.3166 2.96
      vertex 16 37 2.96
      vertex 21.3665 35.7717 2.96
    endloop
  endfacet
  facet normal -0 0 1
    outer loop
      vertex 16 37 2.96
      vertex 23.0435 36.3166 2.96
      vertex 27.58 37 2.96
    endloop
  endfacet
  facet normal -0 0 1
    outer loop
      vertex 23.0435 33.4634 2.96
      vertex 27.58 27 2.96
      vertex 24.08 34.89 2.96
    endloop
  endfacet
  facet normal 0 0 1
    outer loop
      vertex 16 27 2.96
      vertex 23.0435 33.4634 2.96
      vertex 21.3665 34.0083 2.96
    endloop
  endfacet
  facet normal 0 0 1
    outer loop
      vertex 16 27 2.96
      vertex 21.3665 34.0083 2.96
      vertex 16 37 2.96
    endloop
  endfacet
  facet normal 0 0 1
    outer loop
      vertex 23.0435 33.4634 2.96
      vertex 16 27 2.96
      vertex 27.58 27 2.96
    endloop
  endfacet
  facet normal 0 -1 0
    outer loop
      vertex 16.7068 37 2.96
      vertex 27.58 37 4.96
      vertex 16.7068 37 4.96
    endloop
  endfacet
  facet normal 0 -1 0
    outer loop
      vertex 16.7068 37 2.96
      vertex 27.58 37 2.96
      vertex 27.58 37 4.96
    endloop
  endfacet
  facet normal 0 -1 0
    outer loop
      vertex 27.58 37 2.96
      vertex 16.7068 37 2.96
      vertex 16 37 2.96
    endloop
  endfacet
endsolid OpenSCAD_Model
