solid OpenSCAD_Model
  facet normal 0 -1 0
    outer loop
      vertex -8.5 -10.9 1.5
      vertex -8.5 -10.9 -1.5
      vertex 8.5 -10.9 -1.5
    endloop
  endfacet
  facet normal 0 -1 0
    outer loop
      vertex 8.5 -10.9 1.5
      vertex -8.5 -10.9 1.5
      vertex 8.5 -10.9 -1.5
    endloop
  endfacet
  facet normal 0 0 -1
    outer loop
      vertex -7.7 10.1 -1.5
      vertex -8.5 10.9 -1.5
      vertex 8.5 10.9 -1.5
    endloop
  endfacet
  facet normal 0 0 -1
    outer loop
      vertex 7.7 10.1 -1.5
      vertex -7.7 10.1 -1.5
      vertex 8.5 10.9 -1.5
    endloop
  endfacet
  facet normal 0 0 -1
    outer loop
      vertex -8.5 -10.9 -1.5
      vertex -8.5 10.9 -1.5
      vertex -7.7 -10.1 -1.5
    endloop
  endfacet
  facet normal 0 0 -1
    outer loop
      vertex -8.5 -10.9 -1.5
      vertex -7.7 -10.1 -1.5
      vertex 8.5 -10.9 -1.5
    endloop
  endfacet
  facet normal 0 0 -1
    outer loop
      vertex 7.7 10.1 -1.5
      vertex 8.5 -10.9 -1.5
      vertex 7.7 -10.1 -1.5
    endloop
  endfacet
  facet normal 0 0 -1
    outer loop
      vertex -7.7 -10.1 -1.5
      vertex 7.7 -10.1 -1.5
      vertex 8.5 -10.9 -1.5
    endloop
  endfacet
  facet normal 0 0 -1
    outer loop
      vertex 8.5 -10.9 -1.5
      vertex 7.7 10.1 -1.5
      vertex 8.5 10.9 -1.5
    endloop
  endfacet
  facet normal 0 0 -1
    outer loop
      vertex -7.7 -10.1 -1.5
      vertex -8.5 10.9 -1.5
      vertex -7.7 10.1 -1.5
    endloop
  endfacet
  facet normal -1 0 0
    outer loop
      vertex -8.5 -10.9 -1.5
      vertex -8.5 -10.9 1.5
      vertex -8.5 10.9 -1.5
    endloop
  endfacet
  facet normal -1 0 0
    outer loop
      vertex -8.5 10.9 -1.5
      vertex -8.5 -10.9 1.5
      vertex -8.5 10.9 1.5
    endloop
  endfacet
  facet normal -0.730573 -0.657811 0.183159
    outer loop
      vertex -4.7732 -8.46793 25.1
      vertex -8.5 -10.9 1.5
      vertex -3.94787 -9.38455 25.1
    endloop
  endfacet
  facet normal -0.579914 -0.798182 0.163112
    outer loop
      vertex -3.94787 -9.38455 25.1
      vertex -8.5 -10.9 1.5
      vertex -2.95 -10.1095 25.1
    endloop
  endfacet
  facet normal -0.403533 -0.906351 0.125256
    outer loop
      vertex -2.95 -10.1095 25.1
      vertex -8.5 -10.9 1.5
      vertex -1.8232 -10.6112 25.1
    endloop
  endfacet
  facet normal -0.207393 -0.975706 0.0706133
    outer loop
      vertex -1.8232 -10.6112 25.1
      vertex -8.5 -10.9 1.5
      vertex -0.616718 -10.8677 25.1
    endloop
  endfacet
  facet normal 0 -0.999999 0.00136953
    outer loop
      vertex -0.616718 -10.8677 25.1
      vertex -8.5 -10.9 1.5
      vertex 8.5 -10.9 1.5
    endloop
  endfacet
  facet normal 0 -0.999999 0.00136953
    outer loop
      vertex 0.616718 -10.8677 25.1
      vertex -0.616718 -10.8677 25.1
      vertex 8.5 -10.9 1.5
    endloop
  endfacet
  facet normal -0.993986 0 0.109507
    outer loop
      vertex -8.5 10.9 1.5
      vertex -8.5 -10.9 1.5
      vertex -5.9 -5 25.1
    endloop
  endfacet
  facet normal -0.98549 -0.103579 0.134466
    outer loop
      vertex -5.9 -5 25.1
      vertex -8.5 -10.9 1.5
      vertex -5.77107 -6.22668 25.1
    endloop
  endfacet
  facet normal -0.937423 -0.304588 0.168712
    outer loop
      vertex -5.77107 -6.22668 25.1
      vertex -8.5 -10.9 1.5
      vertex -5.38992 -7.39975 25.1
    endloop
  endfacet
  facet normal -0.851071 -0.491366 0.185034
    outer loop
      vertex -5.38992 -7.39975 25.1
      vertex -8.5 -10.9 1.5
      vertex -4.7732 -8.46793 25.1
    endloop
  endfacet
  facet normal 0.937423 -0.304588 0.168712
    outer loop
      vertex 5.77107 -6.22668 25.1
      vertex 5.38992 -7.39975 25.1
      vertex 8.5 -10.9 1.5
    endloop
  endfacet
  facet normal 0.98549 -0.103579 0.134466
    outer loop
      vertex 5.9 -5 25.1
      vertex 5.77107 -6.22668 25.1
      vertex 8.5 -10.9 1.5
    endloop
  endfacet
  facet normal 0.993986 0 0.109507
    outer loop
      vertex 8.5 10.9 1.5
      vertex 5.9 -5 25.1
      vertex 8.5 -10.9 1.5
    endloop
  endfacet
  facet normal 1 0 0
    outer loop
      vertex 8.5 -10.9 1.5
      vertex 8.5 -10.9 -1.5
      vertex 8.5 10.9 -1.5
    endloop
  endfacet
  facet normal 1 0 0
    outer loop
      vertex 8.5 10.9 1.5
      vertex 8.5 -10.9 1.5
      vertex 8.5 10.9 -1.5
    endloop
  endfacet
  facet normal 0.207393 -0.975706 0.0706133
    outer loop
      vertex 1.8232 -10.6112 25.1
      vertex 0.616718 -10.8677 25.1
      vertex 8.5 -10.9 1.5
    endloop
  endfacet
  facet normal 0.403533 -0.906351 0.125256
    outer loop
      vertex 2.95 -10.1095 25.1
      vertex 1.8232 -10.6112 25.1
      vertex 8.5 -10.9 1.5
    endloop
  endfacet
  facet normal 0.579914 -0.798182 0.163112
    outer loop
      vertex 3.94787 -9.38455 25.1
      vertex 2.95 -10.1095 25.1
      vertex 8.5 -10.9 1.5
    endloop
  endfacet
  facet normal 0.730573 -0.657811 0.183159
    outer loop
      vertex 4.7732 -8.46793 25.1
      vertex 3.94787 -9.38455 25.1
      vertex 8.5 -10.9 1.5
    endloop
  endfacet
  facet normal 0.851071 -0.491366 0.185034
    outer loop
      vertex 5.38992 -7.39975 25.1
      vertex 4.7732 -8.46793 25.1
      vertex 8.5 -10.9 1.5
    endloop
  endfacet
  facet normal 0 1 0
    outer loop
      vertex -8.5 10.9 -1.5
      vertex -8.5 10.9 1.5
      vertex 8.5 10.9 -1.5
    endloop
  endfacet
  facet normal 0 1 0
    outer loop
      vertex 8.5 10.9 -1.5
      vertex -8.5 10.9 1.5
      vertex 8.5 10.9 1.5
    endloop
  endfacet
  facet normal 1 0 0
    outer loop
      vertex -7.7 10.1 -1.5
      vertex -7.7 10.1 1.5
      vertex -7.7 -10.1 1.5
    endloop
  endfacet
  facet normal 1 0 0
    outer loop
      vertex -7.7 -10.1 -1.5
      vertex -7.7 10.1 -1.5
      vertex -7.7 -10.1 1.5
    endloop
  endfacet
  facet normal 0 -1 0
    outer loop
      vertex 7.7 10.1 -1.5
      vertex 7.7 10.1 1.5
      vertex -7.7 10.1 1.5
    endloop
  endfacet
  facet normal 0 -1 0
    outer loop
      vertex -7.7 10.1 -1.5
      vertex 7.7 10.1 -1.5
      vertex -7.7 10.1 1.5
    endloop
  endfacet
  facet normal -1 0 0
    outer loop
      vertex 7.7 10.1 1.5
      vertex 7.7 10.1 -1.5
      vertex 7.7 -10.1 1.5
    endloop
  endfacet
  facet normal -1 0 0
    outer loop
      vertex 7.7 -10.1 1.5
      vertex 7.7 10.1 -1.5
      vertex 7.7 -10.1 -1.5
    endloop
  endfacet
  facet normal 0 1 0
    outer loop
      vertex 7.7 -10.1 1.5
      vertex 7.7 -10.1 -1.5
      vertex -7.7 -10.1 1.5
    endloop
  endfacet
  facet normal 0 1 0
    outer loop
      vertex -7.7 -10.1 1.5
      vertex 7.7 -10.1 -1.5
      vertex -7.7 -10.1 -1.5
    endloop
  endfacet
  facet normal -0.978794 0.102875 0.177143
    outer loop
      vertex -5.77107 -3.77332 25.1
      vertex -8.5 10.9 1.5
      vertex -5.9 -5 25.1
    endloop
  endfacet
  facet normal 0 0.920298 0.391217
    outer loop
      vertex -8.5 10.9 1.5
      vertex -0.616718 0.867679 25.1
      vertex 8.5 10.9 1.5
    endloop
  endfacet
  facet normal 0 0.920298 0.391217
    outer loop
      vertex 8.5 10.9 1.5
      vertex -0.616718 0.867679 25.1
      vertex 0.616718 0.867679 25.1
    endloop
  endfacet
  facet normal -0.187052 0.880009 0.436573
    outer loop
      vertex -0.616718 0.867679 25.1
      vertex -8.5 10.9 1.5
      vertex -1.8232 0.611233 25.1
    endloop
  endfacet
  facet normal -0.361844 0.812716 0.456686
    outer loop
      vertex -1.8232 0.611233 25.1
      vertex -8.5 10.9 1.5
      vertex -2.95 0.10955 25.1
    endloop
  endfacet
  facet normal -0.524016 0.721246 0.453002
    outer loop
      vertex -2.95 0.10955 25.1
      vertex -8.5 10.9 1.5
      vertex -3.94787 -0.615446 25.1
    endloop
  endfacet
  facet normal -0.672605 0.605616 0.425243
    outer loop
      vertex -3.94787 -0.615446 25.1
      vertex -8.5 10.9 1.5
      vertex -4.7732 -1.53207 25.1
    endloop
  endfacet
  facet normal -0.804043 0.464214 0.371511
    outer loop
      vertex -4.7732 -1.53207 25.1
      vertex -8.5 10.9 1.5
      vertex -5.38992 -2.60025 25.1
    endloop
  endfacet
  facet normal -0.910418 0.295813 0.289196
    outer loop
      vertex -5.38992 -2.60025 25.1
      vertex -8.5 10.9 1.5
      vertex -5.77107 -3.77332 25.1
    endloop
  endfacet
  facet normal -0.863809 -0.498721 0.0714929
    outer loop
      vertex -4.74402 -5.64914 45.116
      vertex -5.38992 -7.39975 25.1
      vertex -4.7732 -8.46793 25.1
    endloop
  endfacet
  facet normal -0.771005 -0.63045 0.0899087
    outer loop
      vertex -4.74402 -5.64914 45.116
      vertex -4.7732 -8.46793 25.1
      vertex -4.4307 -6.06669 44.8749
    endloop
  endfacet
  facet normal -0.739875 -0.666186 0.0937089
    outer loop
      vertex -4.4307 -6.06669 44.8749
      vertex -4.7732 -8.46793 25.1
      vertex -3.94787 -9.38455 25.1
    endloop
  endfacet
  facet normal -0.583502 -0.803122 0.120502
    outer loop
      vertex -2.95 -10.1095 25.1
      vertex -4.4307 -6.06669 44.8749
      vertex -3.94787 -9.38455 25.1
    endloop
  endfacet
  facet normal -0.559899 -0.818999 0.125516
    outer loop
      vertex -3.92373 -6.44691 44.6554
      vertex -4.4307 -6.06669 44.8749
      vertex -2.95 -10.1095 25.1
    endloop
  endfacet
  facet normal -0.402186 -0.903326 0.149163
    outer loop
      vertex -1.8232 -10.6112 25.1
      vertex -3.92373 -6.44691 44.6554
      vertex -2.95 -10.1095 25.1
    endloop
  endfacet
  facet normal -0.394146 -0.906604 0.150724
    outer loop
      vertex -3.24528 -6.77319 44.467
      vertex -3.92373 -6.44691 44.6554
      vertex -1.8232 -10.6112 25.1
    endloop
  endfacet
  facet normal -0.267869 -0.948637 0.168327
    outer loop
      vertex -2.425 -7.03125 44.318
      vertex -3.24528 -6.77319 44.467
      vertex -1.8232 -10.6112 25.1
    endloop
  endfacet
  facet normal -0.204775 -0.96339 0.173051
    outer loop
      vertex -0.616718 -10.8677 25.1
      vertex -2.425 -7.03125 44.318
      vertex -1.8232 -10.6112 25.1
    endloop
  endfacet
  facet normal -0.167162 -0.969754 0.17786
    outer loop
      vertex -1.49873 -7.20982 44.2149
      vertex -2.425 -7.03125 44.318
      vertex -0.616718 -10.8677 25.1
    endloop
  endfacet
  facet normal -0.080404 -0.979677 0.183762
    outer loop
      vertex -0.506963 -7.30111 44.1622
      vertex -1.49873 -7.20982 44.2149
      vertex -0.616718 -10.8677 25.1
    endloop
  endfacet
  facet normal 0 -0.982943 0.18391
    outer loop
      vertex -0.506963 -7.30111 44.1622
      vertex -0.616718 -10.8677 25.1
      vertex 0.616718 -10.8677 25.1
    endloop
  endfacet
  facet normal 0 -0.982943 0.18391
    outer loop
      vertex 0.506963 -7.30111 44.1622
      vertex -0.506963 -7.30111 44.1622
      vertex 0.616718 -10.8677 25.1
    endloop
  endfacet
  facet normal 0.080404 -0.979677 0.183762
    outer loop
      vertex 1.49873 -7.20982 44.2149
      vertex 0.506963 -7.30111 44.1622
      vertex 0.616718 -10.8677 25.1
    endloop
  endfacet
  facet normal 0.167162 -0.969754 0.17786
    outer loop
      vertex 1.49873 -7.20982 44.2149
      vertex 0.616718 -10.8677 25.1
      vertex 2.425 -7.03125 44.318
    endloop
  endfacet
  facet normal 0.204775 -0.96339 0.173051
    outer loop
      vertex 2.425 -7.03125 44.318
      vertex 0.616718 -10.8677 25.1
      vertex 1.8232 -10.6112 25.1
    endloop
  endfacet
  facet normal -0.994478 0.090885 0.0524725
    outer loop
      vertex -4.85 -5 45
      vertex -5.9 -5 25.1
      vertex -4.85 -5.2125 45.3681
    endloop
  endfacet
  facet normal -0.99326 -0.104396 0.0503619
    outer loop
      vertex -4.85 -5.2125 45.3681
      vertex -5.9 -5 25.1
      vertex -5.77107 -6.22668 25.1
    endloop
  endfacet
  facet normal -0.993155 0.104385 0.0524027
    outer loop
      vertex -5.77107 -3.77332 25.1
      vertex -5.9 -5 25.1
      vertex -4.85 -5 45
    endloop
  endfacet
  facet normal -0.962149 -0.266483 0.0570587
    outer loop
      vertex -4.85 -5.2125 45.3681
      vertex -5.77107 -6.22668 25.1
      vertex -4.74402 -5.64914 45.116
    endloop
  endfacet
  facet normal -0.949476 -0.308504 0.0576209
    outer loop
      vertex -4.74402 -5.64914 45.116
      vertex -5.77107 -6.22668 25.1
      vertex -5.38992 -7.39975 25.1
    endloop
  endfacet
  facet normal 0.949476 -0.308504 0.0576209
    outer loop
      vertex 5.77107 -6.22668 25.1
      vertex 4.74402 -5.64914 45.116
      vertex 5.38992 -7.39975 25.1
    endloop
  endfacet
  facet normal 0.962149 -0.266483 0.0570587
    outer loop
      vertex 4.85 -5.2125 45.3681
      vertex 4.74402 -5.64914 45.116
      vertex 5.77107 -6.22668 25.1
    endloop
  endfacet
  facet normal 0.99326 -0.104396 0.0503619
    outer loop
      vertex 5.9 -5 25.1
      vertex 4.85 -5.2125 45.3681
      vertex 5.77107 -6.22668 25.1
    endloop
  endfacet
  facet normal 0.863809 -0.498721 0.0714929
    outer loop
      vertex 5.38992 -7.39975 25.1
      vertex 4.74402 -5.64914 45.116
      vertex 4.7732 -8.46793 25.1
    endloop
  endfacet
  facet normal 0.994478 0.090885 0.0524725
    outer loop
      vertex 4.85 -5 45
      vertex 4.85 -5.2125 45.3681
      vertex 5.9 -5 25.1
    endloop
  endfacet
  facet normal 0.993155 0.104385 0.0524027
    outer loop
      vertex 5.77107 -3.77332 25.1
      vertex 4.85 -5 45
      vertex 5.9 -5 25.1
    endloop
  endfacet
  facet normal 0.978794 0.102875 0.177143
    outer loop
      vertex 8.5 10.9 1.5
      vertex 5.77107 -3.77332 25.1
      vertex 5.9 -5 25.1
    endloop
  endfacet
  facet normal 0.804043 0.464214 0.371511
    outer loop
      vertex 8.5 10.9 1.5
      vertex 4.7732 -1.53207 25.1
      vertex 5.38992 -2.60025 25.1
    endloop
  endfacet
  facet normal 0.672605 0.605616 0.425243
    outer loop
      vertex 8.5 10.9 1.5
      vertex 3.94787 -0.615446 25.1
      vertex 4.7732 -1.53207 25.1
    endloop
  endfacet
  facet normal 0.524016 0.721246 0.453002
    outer loop
      vertex 8.5 10.9 1.5
      vertex 2.95 0.10955 25.1
      vertex 3.94787 -0.615446 25.1
    endloop
  endfacet
  facet normal 0.361844 0.812716 0.456686
    outer loop
      vertex 8.5 10.9 1.5
      vertex 1.8232 0.611233 25.1
      vertex 2.95 0.10955 25.1
    endloop
  endfacet
  facet normal 0.187052 0.880009 0.436573
    outer loop
      vertex 8.5 10.9 1.5
      vertex 0.616718 0.867679 25.1
      vertex 1.8232 0.611233 25.1
    endloop
  endfacet
  facet normal 0.910418 0.295813 0.289196
    outer loop
      vertex 8.5 10.9 1.5
      vertex 5.38992 -2.60025 25.1
      vertex 5.77107 -3.77332 25.1
    endloop
  endfacet
  facet normal 0.267869 -0.948637 0.168327
    outer loop
      vertex 2.425 -7.03125 44.318
      vertex 1.8232 -10.6112 25.1
      vertex 3.24528 -6.77319 44.467
    endloop
  endfacet
  facet normal 0.394146 -0.906604 0.150724
    outer loop
      vertex 3.24528 -6.77319 44.467
      vertex 1.8232 -10.6112 25.1
      vertex 3.92373 -6.44691 44.6554
    endloop
  endfacet
  facet normal 0.402186 -0.903326 0.149163
    outer loop
      vertex 3.92373 -6.44691 44.6554
      vertex 1.8232 -10.6112 25.1
      vertex 2.95 -10.1095 25.1
    endloop
  endfacet
  facet normal 0.559899 -0.818999 0.125516
    outer loop
      vertex 3.92373 -6.44691 44.6554
      vertex 2.95 -10.1095 25.1
      vertex 4.4307 -6.06669 44.8749
    endloop
  endfacet
  facet normal 0.583502 -0.803122 0.120502
    outer loop
      vertex 4.4307 -6.06669 44.8749
      vertex 2.95 -10.1095 25.1
      vertex 3.94787 -9.38455 25.1
    endloop
  endfacet
  facet normal 0.739875 -0.666186 0.0937089
    outer loop
      vertex 4.4307 -6.06669 44.8749
      vertex 3.94787 -9.38455 25.1
      vertex 4.7732 -8.46793 25.1
    endloop
  endfacet
  facet normal 0.771005 -0.63045 0.0899087
    outer loop
      vertex 4.74402 -5.64914 45.116
      vertex 4.4307 -6.06669 44.8749
      vertex 4.7732 -8.46793 25.1
    endloop
  endfacet
  facet normal 0.852961 0.492457 -0.173042
    outer loop
      vertex -4.65908 -7.07436 25.1
      vertex -4.12599 -7.9977 25.1
      vertex -7.7 -10.1 1.5
    endloop
  endfacet
  facet normal 0.938793 0.305032 -0.160073
    outer loop
      vertex -4.98855 -6.06035 25.1
      vertex -4.65908 -7.07436 25.1
      vertex -7.7 -10.1 1.5
    endloop
  endfacet
  facet normal 0.985949 0.103627 -0.131016
    outer loop
      vertex -5.1 -5 25.1
      vertex -4.98855 -6.06035 25.1
      vertex -7.7 -10.1 1.5
    endloop
  endfacet
  facet normal 0.993986 0 -0.109507
    outer loop
      vertex -7.7 10.1 1.5
      vertex -5.1 -5 25.1
      vertex -7.7 -10.1 1.5
    endloop
  endfacet
  facet normal 0 0.999999 -0.00118381
    outer loop
      vertex 0.533095 -10.0721 25.1
      vertex 7.7 -10.1 1.5
      vertex -0.533095 -10.0721 25.1
    endloop
  endfacet
  facet normal 0 0.999999 -0.00118381
    outer loop
      vertex -0.533095 -10.0721 25.1
      vertex 7.7 -10.1 1.5
      vertex -7.7 -10.1 1.5
    endloop
  endfacet
  facet normal 0.207484 0.976132 -0.0641647
    outer loop
      vertex -1.57599 -9.85039 25.1
      vertex -0.533095 -10.0721 25.1
      vertex -7.7 -10.1 1.5
    endloop
  endfacet
  facet normal 0.404064 0.907543 -0.11445
    outer loop
      vertex -2.55 -9.41673 25.1
      vertex -1.57599 -9.85039 25.1
      vertex -7.7 -10.1 1.5
    endloop
  endfacet
  facet normal 0.581137 0.799867 -0.149974
    outer loop
      vertex -3.41257 -8.79004 25.1
      vertex -2.55 -9.41673 25.1
      vertex -7.7 -10.1 1.5
    endloop
  endfacet
  facet normal 0.732372 0.659431 -0.169654
    outer loop
      vertex -4.12599 -7.9977 25.1
      vertex -3.41257 -8.79004 25.1
      vertex -7.7 -10.1 1.5
    endloop
  endfacet
  facet normal 0.912661 -0.296542 -0.28127
    outer loop
      vertex -4.65908 -2.92564 25.1
      vertex -4.98855 -3.93965 25.1
      vertex -7.7 10.1 1.5
    endloop
  endfacet
  facet normal 0.807503 -0.466212 -0.361367
    outer loop
      vertex -4.12599 -2.00229 25.1
      vertex -4.65908 -2.92564 25.1
      vertex -7.7 10.1 1.5
    endloop
  endfacet
  facet normal 0.676245 -0.608894 -0.414658
    outer loop
      vertex -3.41257 -1.20996 25.1
      vertex -4.12599 -2.00229 25.1
      vertex -7.7 10.1 1.5
    endloop
  endfacet
  facet normal 0.526887 -0.725197 -0.44326
    outer loop
      vertex -2.55 -0.58327 25.1
      vertex -3.41257 -1.20996 25.1
      vertex -7.7 10.1 1.5
    endloop
  endfacet
  facet normal 0.363461 -0.816347 -0.448859
    outer loop
      vertex -1.57599 -0.149612 25.1
      vertex -2.55 -0.58327 25.1
      vertex -7.7 10.1 1.5
    endloop
  endfacet
  facet normal 0.187528 -0.882247 -0.431827
    outer loop
      vertex -0.533095 0.072062 25.1
      vertex -1.57599 -0.149612 25.1
      vertex -7.7 10.1 1.5
    endloop
  endfacet
  facet normal 0 -0.92036 -0.391073
    outer loop
      vertex 7.7 10.1 1.5
      vertex 0.533095 0.072062 25.1
      vertex -0.533095 0.072062 25.1
    endloop
  endfacet
  facet normal 0 -0.92036 -0.391073
    outer loop
      vertex -7.7 10.1 1.5
      vertex 7.7 10.1 1.5
      vertex -0.533095 0.072062 25.1
    endloop
  endfacet
  facet normal 0.979393 -0.102938 -0.173762
    outer loop
      vertex -4.98855 -3.93965 25.1
      vertex -5.1 -5 25.1
      vertex -7.7 10.1 1.5
    endloop
  endfacet
  facet normal -0.807503 -0.466212 -0.361367
    outer loop
      vertex 7.7 10.1 1.5
      vertex 4.65908 -2.92564 25.1
      vertex 4.12599 -2.00229 25.1
    endloop
  endfacet
  facet normal -0.912661 -0.296542 -0.28127
    outer loop
      vertex 7.7 10.1 1.5
      vertex 4.98855 -3.93965 25.1
      vertex 4.65908 -2.92564 25.1
    endloop
  endfacet
  facet normal -0.979393 -0.102938 -0.173762
    outer loop
      vertex 7.7 10.1 1.5
      vertex 5.1 -5 25.1
      vertex 4.98855 -3.93965 25.1
    endloop
  endfacet
  facet normal -0.993986 0 -0.109507
    outer loop
      vertex 7.7 10.1 1.5
      vertex 7.7 -10.1 1.5
      vertex 5.1 -5 25.1
    endloop
  endfacet
  facet normal -0.187528 -0.882247 -0.431827
    outer loop
      vertex 7.7 10.1 1.5
      vertex 1.57599 -0.149612 25.1
      vertex 0.533095 0.072062 25.1
    endloop
  endfacet
  facet normal -0.363461 -0.816347 -0.448859
    outer loop
      vertex 7.7 10.1 1.5
      vertex 2.55 -0.58327 25.1
      vertex 1.57599 -0.149612 25.1
    endloop
  endfacet
  facet normal -0.526887 -0.725197 -0.44326
    outer loop
      vertex 7.7 10.1 1.5
      vertex 3.41257 -1.20996 25.1
      vertex 2.55 -0.58327 25.1
    endloop
  endfacet
  facet normal -0.676245 -0.608894 -0.414658
    outer loop
      vertex 7.7 10.1 1.5
      vertex 4.12599 -2.00229 25.1
      vertex 3.41257 -1.20996 25.1
    endloop
  endfacet
  facet normal -0.404064 0.907543 -0.11445
    outer loop
      vertex 2.55 -9.41673 25.1
      vertex 7.7 -10.1 1.5
      vertex 1.57599 -9.85039 25.1
    endloop
  endfacet
  facet normal -0.207484 0.976132 -0.0641647
    outer loop
      vertex 1.57599 -9.85039 25.1
      vertex 7.7 -10.1 1.5
      vertex 0.533095 -10.0721 25.1
    endloop
  endfacet
  facet normal -0.985949 0.103627 -0.131016
    outer loop
      vertex 5.1 -5 25.1
      vertex 7.7 -10.1 1.5
      vertex 4.98855 -6.06035 25.1
    endloop
  endfacet
  facet normal -0.938793 0.305032 -0.160073
    outer loop
      vertex 4.98855 -6.06035 25.1
      vertex 7.7 -10.1 1.5
      vertex 4.65908 -7.07436 25.1
    endloop
  endfacet
  facet normal -0.852961 0.492457 -0.173042
    outer loop
      vertex 4.65908 -7.07436 25.1
      vertex 7.7 -10.1 1.5
      vertex 4.12599 -7.9977 25.1
    endloop
  endfacet
  facet normal -0.732372 0.659431 -0.169654
    outer loop
      vertex 4.12599 -7.9977 25.1
      vertex 7.7 -10.1 1.5
      vertex 3.41257 -8.79004 25.1
    endloop
  endfacet
  facet normal -0.581137 0.799867 -0.149974
    outer loop
      vertex 3.41257 -8.79004 25.1
      vertex 7.7 -10.1 1.5
      vertex 2.55 -9.41673 25.1
    endloop
  endfacet
  facet normal -0.949316 0.308452 0.0604746
    outer loop
      vertex -5.38992 -2.60025 25.1
      vertex -5.77107 -3.77332 25.1
      vertex -4.74402 -4.56336 45.2521
    endloop
  endfacet
  facet normal -0.977295 0.203846 0.0577996
    outer loop
      vertex -4.74402 -4.56336 45.2521
      vertex -5.77107 -3.77332 25.1
      vertex -4.85 -5 45
    endloop
  endfacet
  facet normal 0 0.984345 0.17625
    outer loop
      vertex -0.616718 0.867679 25.1
      vertex -0.506963 -2.91139 46.2059
      vertex 0.616718 0.867679 25.1
    endloop
  endfacet
  facet normal 0 0.984345 0.17625
    outer loop
      vertex 0.616718 0.867679 25.1
      vertex -0.506963 -2.91139 46.2059
      vertex 0.506963 -2.91139 46.2059
    endloop
  endfacet
  facet normal 0.204934 0.964137 0.168646
    outer loop
      vertex 1.8232 0.611233 25.1
      vertex 0.616718 0.867679 25.1
      vertex 2.425 -3.18125 46.0501
    endloop
  endfacet
  facet normal 0.204661 0.964189 0.16868
    outer loop
      vertex 2.425 -3.18125 46.0501
      vertex 0.616718 0.867679 25.1
      vertex 1.49873 -3.00267 46.1532
    endloop
  endfacet
  facet normal 0.099487 0.979372 0.175877
    outer loop
      vertex 0.616718 0.867679 25.1
      vertex 0.506963 -2.91139 46.2059
      vertex 1.49873 -3.00267 46.1532
    endloop
  endfacet
  facet normal -0.204934 0.964137 0.168646
    outer loop
      vertex -1.8232 0.611233 25.1
      vertex -2.425 -3.18125 46.0501
      vertex -0.616718 0.867679 25.1
    endloop
  endfacet
  facet normal -0.099487 0.979372 0.175877
    outer loop
      vertex -0.616718 0.867679 25.1
      vertex -1.49873 -3.00267 46.1532
      vertex -0.506963 -2.91139 46.2059
    endloop
  endfacet
  facet normal -0.204661 0.964189 0.16868
    outer loop
      vertex -0.616718 0.867679 25.1
      vertex -2.425 -3.18125 46.0501
      vertex -1.49873 -3.00267 46.1532
    endloop
  endfacet
  facet normal -0.402231 0.903427 0.148424
    outer loop
      vertex -2.95 0.10955 25.1
      vertex -3.24528 -3.43931 45.9011
      vertex -1.8232 0.611233 25.1
    endloop
  endfacet
  facet normal -0.322521 0.933005 0.159633
    outer loop
      vertex -1.8232 0.611233 25.1
      vertex -3.24528 -3.43931 45.9011
      vertex -2.425 -3.18125 46.0501
    endloop
  endfacet
  facet normal -0.583295 0.802836 0.123377
    outer loop
      vertex -2.95 0.10955 25.1
      vertex -3.94787 -0.615446 25.1
      vertex -3.92373 -3.76559 45.7127
    endloop
  endfacet
  facet normal -0.460892 0.875877 0.142891
    outer loop
      vertex -2.95 0.10955 25.1
      vertex -3.92373 -3.76559 45.7127
      vertex -3.24528 -3.43931 45.9011
    endloop
  endfacet
  facet normal -0.739584 0.665925 0.0977713
    outer loop
      vertex -3.94787 -0.615446 25.1
      vertex -4.7732 -1.53207 25.1
      vertex -4.4307 -4.14581 45.4932
    endloop
  endfacet
  facet normal -0.628059 0.769125 0.118277
    outer loop
      vertex -3.94787 -0.615446 25.1
      vertex -4.4307 -4.14581 45.4932
      vertex -3.92373 -3.76559 45.7127
    endloop
  endfacet
  facet normal -0.863505 0.498545 0.076242
    outer loop
      vertex -4.7732 -1.53207 25.1
      vertex -5.38992 -2.60025 25.1
      vertex -4.74402 -4.56336 45.2521
    endloop
  endfacet
  facet normal -0.820148 0.56561 0.0862673
    outer loop
      vertex -4.4307 -4.14581 45.4932
      vertex -4.7732 -1.53207 25.1
      vertex -4.74402 -4.56336 45.2521
    endloop
  endfacet
  facet normal -2.68326e-08 -0.5 0.866025
    outer loop
      vertex -2.43855 -6.43532 44.6621
      vertex -4.74402 -5.64914 45.116
      vertex -1.49873 -7.20982 44.2149
    endloop
  endfacet
  facet normal -2.68326e-08 -0.5 0.866025
    outer loop
      vertex -1.6307 -6.66612 44.5288
      vertex -1.81933 -6.62976 44.5498
      vertex -1.49873 -7.20982 44.2149
    endloop
  endfacet
  facet normal -2.68326e-08 -0.5 0.866025
    outer loop
      vertex -1.81933 -6.62976 44.5498
      vertex -1.82391 -6.62868 44.5504
      vertex -1.49873 -7.20982 44.2149
    endloop
  endfacet
  facet normal -2.68326e-08 -0.5 0.866025
    outer loop
      vertex -1.82391 -6.62868 44.5504
      vertex -2.43855 -6.43532 44.6621
      vertex -1.49873 -7.20982 44.2149
    endloop
  endfacet
  facet normal -2.68326e-08 -0.5 0.866025
    outer loop
      vertex -2.95118 -6.18875 44.8044
      vertex -4.74402 -5.64914 45.116
      vertex -2.94691 -6.19084 44.8032
    endloop
  endfacet
  facet normal -2.68326e-08 -0.5 0.866025
    outer loop
      vertex -3.33107 -5.90384 44.9689
      vertex -4.74402 -5.64914 45.116
      vertex -2.95118 -6.18875 44.8044
    endloop
  endfacet
  facet normal -2.68326e-08 -0.5 0.866025
    outer loop
      vertex -3.33477 -5.9009 44.9706
      vertex -4.74402 -5.64914 45.116
      vertex -3.33107 -5.90384 44.9689
    endloop
  endfacet
  facet normal -2.68326e-08 -0.5 0.866025
    outer loop
      vertex -3.33769 -5.89734 44.9727
      vertex -4.74402 -5.64914 45.116
      vertex -3.33477 -5.9009 44.9706
    endloop
  endfacet
  facet normal -2.68326e-08 -0.5 0.866025
    outer loop
      vertex -3.57252 -5.58439 45.1533
      vertex -4.74402 -5.64914 45.116
      vertex -3.33769 -5.89734 44.9727
    endloop
  endfacet
  facet normal -2.68326e-08 -0.5 0.866025
    outer loop
      vertex -3.57459 -5.58043 45.1556
      vertex -4.74402 -5.64914 45.116
      vertex -3.57252 -5.58439 45.1533
    endloop
  endfacet
  facet normal -2.68326e-08 -0.5 0.866025
    outer loop
      vertex -3.57574 -5.57632 45.158
      vertex -4.74402 -5.64914 45.116
      vertex -3.57459 -5.58043 45.1556
    endloop
  endfacet
  facet normal -2.68326e-08 -0.5 0.866025
    outer loop
      vertex -3.65519 -5.24899 45.347
      vertex -4.74402 -5.64914 45.116
      vertex -3.57574 -5.57632 45.158
    endloop
  endfacet
  facet normal -2.68326e-08 -0.5 0.866025
    outer loop
      vertex -3.65545 -5.24491 45.3493
      vertex -4.74402 -5.64914 45.116
      vertex -3.65519 -5.24899 45.347
    endloop
  endfacet
  facet normal -2.68326e-08 -0.5 0.866025
    outer loop
      vertex -3.65489 -5.24106 45.3516
      vertex -4.74402 -5.64914 45.116
      vertex -3.65545 -5.24491 45.3493
    endloop
  endfacet
  facet normal -2.68326e-08 -0.5 0.866025
    outer loop
      vertex -3.65 -5.2125 45.3681
      vertex -4.74402 -5.64914 45.116
      vertex -3.65489 -5.24106 45.3516
    endloop
  endfacet
  facet normal -2.68326e-08 -0.5 0.866025
    outer loop
      vertex -3.63918 -5.16794 45.3938
      vertex -4.74402 -5.64914 45.116
      vertex -3.65 -5.2125 45.3681
    endloop
  endfacet
  facet normal -2.68326e-08 -0.5 0.866025
    outer loop
      vertex -3.57024 -4.8839 45.5578
      vertex -4.74402 -5.64914 45.116
      vertex -3.63918 -5.16794 45.3938
    endloop
  endfacet
  facet normal -2.68326e-08 -0.5 0.866025
    outer loop
      vertex -3.33444 -4.56965 45.7392
      vertex -4.74402 -5.64914 45.116
      vertex -3.57024 -4.8839 45.5578
    endloop
  endfacet
  facet normal -2.68326e-08 -0.5 0.866025
    outer loop
      vertex -2.425 -3.39375 46.4181
      vertex -4.74402 -5.64914 45.116
      vertex -3.33444 -4.56965 45.7392
    endloop
  endfacet
  facet normal -2.68326e-08 -0.5 0.866025
    outer loop
      vertex -2.425 -3.39375 46.4181
      vertex -3.00464 -4.32231 45.882
      vertex -2.95291 -4.28351 45.9044
    endloop
  endfacet
  facet normal -2.68326e-08 -0.5 0.866025
    outer loop
      vertex -2.425 -3.39375 46.4181
      vertex -2.95291 -4.28351 45.9044
      vertex -2.88368 -4.25021 45.9236
    endloop
  endfacet
  facet normal -2.68326e-08 -0.5 0.866025
    outer loop
      vertex -2.425 -3.39375 46.4181
      vertex -2.44233 -4.03796 46.0462
      vertex -2.28095 -3.98719 46.0755
    endloop
  endfacet
  facet normal -2.68326e-08 -0.5 0.866025
    outer loop
      vertex -2.43855 -6.43532 44.6621
      vertex -2.94691 -6.19084 44.8032
      vertex -4.74402 -5.64914 45.116
    endloop
  endfacet
  facet normal -2.68326e-08 -0.5 0.866025
    outer loop
      vertex -3.33444 -4.56965 45.7392
      vertex -3.00464 -4.32231 45.882
      vertex -2.425 -3.39375 46.4181
    endloop
  endfacet
  facet normal -2.68326e-08 -0.5 0.866025
    outer loop
      vertex -2.88368 -4.25021 45.9236
      vertex -2.44233 -4.03796 46.0462
      vertex -2.425 -3.39375 46.4181
    endloop
  endfacet
  facet normal -5.18124e-08 -0.5 0.866025
    outer loop
      vertex -1.49873 -7.20982 44.2149
      vertex -4.74402 -5.64914 45.116
      vertex -3.24528 -6.77319 44.467
    endloop
  endfacet
  facet normal -2.95291e-07 -0.5 0.866025
    outer loop
      vertex -3.24528 -6.77319 44.467
      vertex -4.74402 -5.64914 45.116
      vertex -4.4307 -6.06669 44.8749
    endloop
  endfacet
  facet normal -2.06771e-07 -0.5 0.866025
    outer loop
      vertex -4.4307 -4.35831 45.8612
      vertex -4.85 -5.2125 45.3681
      vertex -4.74402 -5.64914 45.116
    endloop
  endfacet
  facet normal -1.05054e-07 -0.5 0.866025
    outer loop
      vertex -4.4307 -4.35831 45.8612
      vertex -4.74402 -5.64914 45.116
      vertex -2.425 -3.39375 46.4181
    endloop
  endfacet
  facet normal -5.07807e-06 -0.500006 0.866022
    outer loop
      vertex -3.24528 -6.77319 44.467
      vertex -4.4307 -6.06669 44.8749
      vertex -3.92373 -6.44691 44.6554
    endloop
  endfacet
  facet normal -1.21337e-06 -0.500004 0.866023
    outer loop
      vertex -1.49873 -7.20982 44.2149
      vertex -3.24528 -6.77319 44.467
      vertex -2.425 -7.03125 44.318
    endloop
  endfacet
  facet normal 0 -0.5 0.866025
    outer loop
      vertex -1.1253 -6.76356 44.4726
      vertex -1.6307 -6.66612 44.5288
      vertex -1.49873 -7.20982 44.2149
    endloop
  endfacet
  facet normal 0 -0.5 0.866025
    outer loop
      vertex 1.49873 -7.20982 44.2149
      vertex -1.1253 -6.76356 44.4726
      vertex -1.49873 -7.20982 44.2149
    endloop
  endfacet
  facet normal 0 -0.5 0.866025
    outer loop
      vertex 1.1253 -6.76356 44.4726
      vertex 1.49873 -7.20982 44.2149
      vertex 1.6307 -6.66612 44.5288
    endloop
  endfacet
  facet normal 0 -0.5 0.866025
    outer loop
      vertex 0.382194 -6.83196 44.4331
      vertex 1.49873 -7.20982 44.2149
      vertex 1.1253 -6.76356 44.4726
    endloop
  endfacet
  facet normal 0 -0.5 0.866025
    outer loop
      vertex -0.382194 -6.83196 44.4331
      vertex 1.49873 -7.20982 44.2149
      vertex 0.382194 -6.83196 44.4331
    endloop
  endfacet
  facet normal 0 -0.5 0.866025
    outer loop
      vertex -0.382194 -6.83196 44.4331
      vertex -1.1253 -6.76356 44.4726
      vertex 1.49873 -7.20982 44.2149
    endloop
  endfacet
  facet normal 0 -0.500002 0.866024
    outer loop
      vertex 1.49873 -7.20982 44.2149
      vertex -1.49873 -7.20982 44.2149
      vertex -0.506963 -7.30111 44.1622
    endloop
  endfacet
  facet normal 0 -0.500002 0.866024
    outer loop
      vertex 0.506963 -7.30111 44.1622
      vertex 1.49873 -7.20982 44.2149
      vertex -0.506963 -7.30111 44.1622
    endloop
  endfacet
  facet normal 5.18124e-08 -0.5 0.866025
    outer loop
      vertex 4.74402 -5.64914 45.116
      vertex 1.49873 -7.20982 44.2149
      vertex 3.24528 -6.77319 44.467
    endloop
  endfacet
  facet normal 1.21337e-06 -0.500004 0.866023
    outer loop
      vertex 3.24528 -6.77319 44.467
      vertex 1.49873 -7.20982 44.2149
      vertex 2.425 -7.03125 44.318
    endloop
  endfacet
  facet normal 2.68326e-08 -0.5 0.866025
    outer loop
      vertex 2.43855 -6.43532 44.6621
      vertex 1.49873 -7.20982 44.2149
      vertex 4.74402 -5.64914 45.116
    endloop
  endfacet
  facet normal 2.68326e-08 -0.5 0.866025
    outer loop
      vertex 2.94691 -6.19084 44.8032
      vertex 2.43855 -6.43532 44.6621
      vertex 4.74402 -5.64914 45.116
    endloop
  endfacet
  facet normal 2.68326e-08 -0.5 0.866025
    outer loop
      vertex 2.425 -3.39375 46.4181
      vertex 2.28095 -3.98719 46.0755
      vertex 2.44233 -4.03796 46.0462
    endloop
  endfacet
  facet normal 2.68326e-08 -0.5 0.866025
    outer loop
      vertex 2.425 -3.39375 46.4181
      vertex 2.44233 -4.03796 46.0462
      vertex 2.88368 -4.25021 45.9236
    endloop
  endfacet
  facet normal 2.68326e-08 -0.5 0.866025
    outer loop
      vertex 2.425 -3.39375 46.4181
      vertex 2.88368 -4.25021 45.9236
      vertex 2.95291 -4.28351 45.9044
    endloop
  endfacet
  facet normal 2.68326e-08 -0.5 0.866025
    outer loop
      vertex 2.425 -3.39375 46.4181
      vertex 2.95291 -4.28351 45.9044
      vertex 3.00464 -4.32231 45.882
    endloop
  endfacet
  facet normal 2.68326e-08 -0.5 0.866025
    outer loop
      vertex 2.425 -3.39375 46.4181
      vertex 3.33444 -4.56965 45.7392
      vertex 4.74402 -5.64914 45.116
    endloop
  endfacet
  facet normal 2.68326e-08 -0.5 0.866025
    outer loop
      vertex 2.425 -3.39375 46.4181
      vertex 3.00464 -4.32231 45.882
      vertex 3.33444 -4.56965 45.7392
    endloop
  endfacet
  facet normal 2.68326e-08 -0.5 0.866025
    outer loop
      vertex 3.57024 -4.8839 45.5578
      vertex 3.63918 -5.16794 45.3938
      vertex 4.74402 -5.64914 45.116
    endloop
  endfacet
  facet normal 2.68326e-08 -0.5 0.866025
    outer loop
      vertex 3.63918 -5.16794 45.3938
      vertex 3.65 -5.2125 45.3681
      vertex 4.74402 -5.64914 45.116
    endloop
  endfacet
  facet normal 2.68326e-08 -0.5 0.866025
    outer loop
      vertex 3.65 -5.2125 45.3681
      vertex 3.65489 -5.24106 45.3516
      vertex 4.74402 -5.64914 45.116
    endloop
  endfacet
  facet normal 2.68326e-08 -0.5 0.866025
    outer loop
      vertex 3.65489 -5.24106 45.3516
      vertex 3.65545 -5.24491 45.3493
      vertex 4.74402 -5.64914 45.116
    endloop
  endfacet
  facet normal 2.68326e-08 -0.5 0.866025
    outer loop
      vertex 3.65545 -5.24491 45.3493
      vertex 3.65519 -5.24899 45.347
      vertex 4.74402 -5.64914 45.116
    endloop
  endfacet
  facet normal 2.68326e-08 -0.5 0.866025
    outer loop
      vertex 3.65519 -5.24899 45.347
      vertex 3.57574 -5.57632 45.158
      vertex 4.74402 -5.64914 45.116
    endloop
  endfacet
  facet normal 2.68326e-08 -0.5 0.866025
    outer loop
      vertex 3.57574 -5.57632 45.158
      vertex 3.57459 -5.58043 45.1556
      vertex 4.74402 -5.64914 45.116
    endloop
  endfacet
  facet normal 2.68326e-08 -0.5 0.866025
    outer loop
      vertex 3.57459 -5.58043 45.1556
      vertex 3.57252 -5.58439 45.1533
      vertex 4.74402 -5.64914 45.116
    endloop
  endfacet
  facet normal 2.68326e-08 -0.5 0.866025
    outer loop
      vertex 3.57252 -5.58439 45.1533
      vertex 3.33769 -5.89734 44.9727
      vertex 4.74402 -5.64914 45.116
    endloop
  endfacet
  facet normal 2.68326e-08 -0.5 0.866025
    outer loop
      vertex 3.33769 -5.89734 44.9727
      vertex 3.33477 -5.9009 44.9706
      vertex 4.74402 -5.64914 45.116
    endloop
  endfacet
  facet normal 2.68326e-08 -0.5 0.866025
    outer loop
      vertex 3.33477 -5.9009 44.9706
      vertex 3.33107 -5.90384 44.9689
      vertex 4.74402 -5.64914 45.116
    endloop
  endfacet
  facet normal 2.68326e-08 -0.5 0.866025
    outer loop
      vertex 3.33107 -5.90384 44.9689
      vertex 2.95118 -6.18875 44.8044
      vertex 4.74402 -5.64914 45.116
    endloop
  endfacet
  facet normal 2.68326e-08 -0.5 0.866025
    outer loop
      vertex 2.95118 -6.18875 44.8044
      vertex 2.94691 -6.19084 44.8032
      vertex 4.74402 -5.64914 45.116
    endloop
  endfacet
  facet normal 2.68326e-08 -0.5 0.866025
    outer loop
      vertex 1.82391 -6.62868 44.5504
      vertex 1.49873 -7.20982 44.2149
      vertex 2.43855 -6.43532 44.6621
    endloop
  endfacet
  facet normal 2.68326e-08 -0.5 0.866025
    outer loop
      vertex 1.81933 -6.62976 44.5498
      vertex 1.49873 -7.20982 44.2149
      vertex 1.82391 -6.62868 44.5504
    endloop
  endfacet
  facet normal 2.68326e-08 -0.5 0.866025
    outer loop
      vertex 1.6307 -6.66612 44.5288
      vertex 1.49873 -7.20982 44.2149
      vertex 1.81933 -6.62976 44.5498
    endloop
  endfacet
  facet normal 2.68326e-08 -0.5 0.866025
    outer loop
      vertex 3.33444 -4.56965 45.7392
      vertex 3.57024 -4.8839 45.5578
      vertex 4.74402 -5.64914 45.116
    endloop
  endfacet
  facet normal -0.978613 0.178152 0.102856
    outer loop
      vertex -4.85 -5 45
      vertex -4.85 -5.2125 45.3681
      vertex -4.74402 -4.77586 45.6202
    endloop
  endfacet
  facet normal -0.978613 0.178152 0.102856
    outer loop
      vertex -4.74402 -4.56336 45.2521
      vertex -4.85 -5 45
      vertex -4.74402 -4.77586 45.6202
    endloop
  endfacet
  facet normal -6.11274e-07 -0.5 0.866026
    outer loop
      vertex -4.74402 -4.77586 45.6202
      vertex -4.85 -5.2125 45.3681
      vertex -4.4307 -4.35831 45.8612
    endloop
  endfacet
  facet normal 1.05054e-07 -0.5 0.866025
    outer loop
      vertex 4.4307 -4.35831 45.8612
      vertex 2.425 -3.39375 46.4181
      vertex 4.74402 -5.64914 45.116
    endloop
  endfacet
  facet normal 2.06771e-07 -0.5 0.866025
    outer loop
      vertex 4.85 -5.2125 45.3681
      vertex 4.4307 -4.35831 45.8612
      vertex 4.74402 -5.64914 45.116
    endloop
  endfacet
  facet normal 2.95291e-07 -0.5 0.866025
    outer loop
      vertex 4.74402 -5.64914 45.116
      vertex 3.24528 -6.77319 44.467
      vertex 4.4307 -6.06669 44.8749
    endloop
  endfacet
  facet normal 6.11274e-07 -0.5 0.866026
    outer loop
      vertex 4.74402 -4.77586 45.6202
      vertex 4.4307 -4.35831 45.8612
      vertex 4.85 -5.2125 45.3681
    endloop
  endfacet
  facet normal 0.978613 0.178152 0.102856
    outer loop
      vertex 4.85 -5 45
      vertex 4.74402 -4.77586 45.6202
      vertex 4.85 -5.2125 45.3681
    endloop
  endfacet
  facet normal 0.978613 0.178152 0.102856
    outer loop
      vertex 4.74402 -4.56336 45.2521
      vertex 4.74402 -4.77586 45.6202
      vertex 4.85 -5 45
    endloop
  endfacet
  facet normal 0.977295 0.203846 0.0577996
    outer loop
      vertex 5.77107 -3.77332 25.1
      vertex 4.74402 -4.56336 45.2521
      vertex 4.85 -5 45
    endloop
  endfacet
  facet normal 0.949316 0.308452 0.0604746
    outer loop
      vertex 5.38992 -2.60025 25.1
      vertex 4.74402 -4.56336 45.2521
      vertex 5.77107 -3.77332 25.1
    endloop
  endfacet
  facet normal 0.863505 0.498545 0.076242
    outer loop
      vertex 4.7732 -1.53207 25.1
      vertex 4.74402 -4.56336 45.2521
      vertex 5.38992 -2.60025 25.1
    endloop
  endfacet
  facet normal 0.739584 0.665925 0.0977713
    outer loop
      vertex 4.7732 -1.53207 25.1
      vertex 3.94787 -0.615446 25.1
      vertex 4.4307 -4.14581 45.4932
    endloop
  endfacet
  facet normal 0.820148 0.56561 0.0862673
    outer loop
      vertex 4.7732 -1.53207 25.1
      vertex 4.4307 -4.14581 45.4932
      vertex 4.74402 -4.56336 45.2521
    endloop
  endfacet
  facet normal 0.583295 0.802836 0.123377
    outer loop
      vertex 3.94787 -0.615446 25.1
      vertex 2.95 0.10955 25.1
      vertex 3.92373 -3.76559 45.7127
    endloop
  endfacet
  facet normal 0.628059 0.769125 0.118277
    outer loop
      vertex 3.94787 -0.615446 25.1
      vertex 3.92373 -3.76559 45.7127
      vertex 4.4307 -4.14581 45.4932
    endloop
  endfacet
  facet normal 0.402231 0.903427 0.148424
    outer loop
      vertex 2.95 0.10955 25.1
      vertex 1.8232 0.611233 25.1
      vertex 3.24528 -3.43931 45.9011
    endloop
  endfacet
  facet normal 0.460892 0.875877 0.142891
    outer loop
      vertex 3.92373 -3.76559 45.7127
      vertex 2.95 0.10955 25.1
      vertex 3.24528 -3.43931 45.9011
    endloop
  endfacet
  facet normal 0.322521 0.933005 0.159633
    outer loop
      vertex 3.24528 -3.43931 45.9011
      vertex 1.8232 0.611233 25.1
      vertex 2.425 -3.18125 46.0501
    endloop
  endfacet
  facet normal 5.07807e-06 -0.500006 0.866022
    outer loop
      vertex 4.4307 -6.06669 44.8749
      vertex 3.24528 -6.77319 44.467
      vertex 3.92373 -6.44691 44.6554
    endloop
  endfacet
  facet normal 0.948432 0.308164 -0.0742406
    outer loop
      vertex -3.57574 -5.57632 45.158
      vertex -3.57459 -5.58043 45.1556
      vertex -4.65908 -7.07436 25.1
    endloop
  endfacet
  facet normal 0.948432 0.308164 -0.0742406
    outer loop
      vertex -4.98855 -6.06035 25.1
      vertex -3.57574 -5.57632 45.158
      vertex -4.65908 -7.07436 25.1
    endloop
  endfacet
  facet normal 0.862981 0.498242 -0.0837787
    outer loop
      vertex -3.57459 -5.58043 45.1556
      vertex -3.57252 -5.58439 45.1533
      vertex -4.12599 -7.9977 25.1
    endloop
  endfacet
  facet normal 0.862981 0.498242 -0.0837787
    outer loop
      vertex -4.65908 -7.07436 25.1
      vertex -3.57459 -5.58043 45.1556
      vertex -4.12599 -7.9977 25.1
    endloop
  endfacet
  facet normal 0.739442 0.665797 -0.0997003
    outer loop
      vertex -3.33769 -5.89734 44.9727
      vertex -3.33477 -5.9009 44.9706
      vertex -3.41257 -8.79004 25.1
    endloop
  endfacet
  facet normal 0.739442 0.665797 -0.0997003
    outer loop
      vertex -4.12599 -7.9977 25.1
      vertex -3.33769 -5.89734 44.9727
      vertex -3.41257 -8.79004 25.1
    endloop
  endfacet
  facet normal 0.768266 0.632686 -0.0973442
    outer loop
      vertex -3.57252 -5.58439 45.1533
      vertex -3.33769 -5.89734 44.9727
      vertex -4.12599 -7.9977 25.1
    endloop
  endfacet
  facet normal 0.992116 0.104275 -0.0695143
    outer loop
      vertex -3.65545 -5.24491 45.3493
      vertex -3.65519 -5.24899 45.347
      vertex -4.98855 -6.06035 25.1
    endloop
  endfacet
  facet normal 0.992116 0.104275 -0.0695143
    outer loop
      vertex -5.1 -5 25.1
      vertex -3.65545 -5.24491 45.3493
      vertex -4.98855 -6.06035 25.1
    endloop
  endfacet
  facet normal 0.958449 0.275456 -0.0741569
    outer loop
      vertex -3.65519 -5.24899 45.347
      vertex -3.57574 -5.57632 45.158
      vertex -4.98855 -6.06035 25.1
    endloop
  endfacet
  facet normal 0.991939 -0.104257 -0.0720238
    outer loop
      vertex -4.98855 -3.93965 25.1
      vertex -3.65489 -5.24106 45.3516
      vertex -3.65545 -5.24491 45.3493
    endloop
  endfacet
  facet normal 0.991939 -0.104257 -0.0720238
    outer loop
      vertex -5.1 -5 25.1
      vertex -4.98855 -3.93965 25.1
      vertex -3.65545 -5.24491 45.3493
    endloop
  endfacet
  facet normal 0.205321 0.965958 -0.157381
    outer loop
      vertex -0.533095 -10.0721 25.1
      vertex -1.57599 -9.85039 25.1
      vertex -1.81933 -6.62976 44.5498
    endloop
  endfacet
  facet normal 0.205321 0.965958 -0.157381
    outer loop
      vertex -1.81933 -6.62976 44.5498
      vertex -1.57599 -9.85039 25.1
      vertex -1.82391 -6.62868 44.5504
    endloop
  endfacet
  facet normal 0 0.986245 -0.165289
    outer loop
      vertex 0.382194 -6.83196 44.4331
      vertex 0.533095 -10.0721 25.1
      vertex -0.382194 -6.83196 44.4331
    endloop
  endfacet
  facet normal 0 0.986245 -0.165289
    outer loop
      vertex -0.382194 -6.83196 44.4331
      vertex 0.533095 -10.0721 25.1
      vertex -0.533095 -10.0721 25.1
    endloop
  endfacet
  facet normal 0.0816742 0.982846 -0.165357
    outer loop
      vertex -0.382194 -6.83196 44.4331
      vertex -0.533095 -10.0721 25.1
      vertex -1.1253 -6.76356 44.4726
    endloop
  endfacet
  facet normal 0.169544 0.972304 -0.16087
    outer loop
      vertex -1.1253 -6.76356 44.4726
      vertex -0.533095 -10.0721 25.1
      vertex -1.6307 -6.66612 44.5288
    endloop
  endfacet
  facet normal 0.169544 0.972304 -0.16087
    outer loop
      vertex -1.6307 -6.66612 44.5288
      vertex -0.533095 -10.0721 25.1
      vertex -1.81933 -6.62976 44.5498
    endloop
  endfacet
  facet normal -0.205321 0.965958 -0.157381
    outer loop
      vertex 1.82391 -6.62868 44.5504
      vertex 1.57599 -9.85039 25.1
      vertex 1.81933 -6.62976 44.5498
    endloop
  endfacet
  facet normal -0.205321 0.965958 -0.157381
    outer loop
      vertex 1.81933 -6.62976 44.5498
      vertex 1.57599 -9.85039 25.1
      vertex 0.533095 -10.0721 25.1
    endloop
  endfacet
  facet normal -0.169544 0.972304 -0.16087
    outer loop
      vertex 1.6307 -6.66612 44.5288
      vertex 1.81933 -6.62976 44.5498
      vertex 1.1253 -6.76356 44.4726
    endloop
  endfacet
  facet normal -0.169544 0.972304 -0.16087
    outer loop
      vertex 1.1253 -6.76356 44.4726
      vertex 1.81933 -6.62976 44.5498
      vertex 0.533095 -10.0721 25.1
    endloop
  endfacet
  facet normal -0.0816742 0.982846 -0.165357
    outer loop
      vertex 1.1253 -6.76356 44.4726
      vertex 0.533095 -10.0721 25.1
      vertex 0.382194 -6.83196 44.4331
    endloop
  endfacet
  facet normal 0.402731 0.904551 -0.139984
    outer loop
      vertex -1.57599 -9.85039 25.1
      vertex -2.55 -9.41673 25.1
      vertex -2.94691 -6.19084 44.8032
    endloop
  endfacet
  facet normal 0.402731 0.904551 -0.139984
    outer loop
      vertex -2.94691 -6.19084 44.8032
      vertex -2.55 -9.41673 25.1
      vertex -2.95118 -6.18875 44.8044
    endloop
  endfacet
  facet normal 0.270976 0.950198 -0.153934
    outer loop
      vertex -1.82391 -6.62868 44.5504
      vertex -1.57599 -9.85039 25.1
      vertex -2.43855 -6.43532 44.6621
    endloop
  endfacet
  facet normal 0.397051 0.906929 -0.140821
    outer loop
      vertex -2.43855 -6.43532 44.6621
      vertex -1.57599 -9.85039 25.1
      vertex -2.94691 -6.19084 44.8032
    endloop
  endfacet
  facet normal 0.583603 0.803261 -0.119077
    outer loop
      vertex -3.33107 -5.90384 44.9689
      vertex -2.55 -9.41673 25.1
      vertex -3.33477 -5.9009 44.9706
    endloop
  endfacet
  facet normal 0.583603 0.803261 -0.119077
    outer loop
      vertex -3.33477 -5.9009 44.9706
      vertex -2.55 -9.41673 25.1
      vertex -3.41257 -8.79004 25.1
    endloop
  endfacet
  facet normal 0.560915 0.818729 -0.122704
    outer loop
      vertex -2.95118 -6.18875 44.8044
      vertex -2.55 -9.41673 25.1
      vertex -3.33107 -5.90384 44.9689
    endloop
  endfacet
  facet normal 0.948147 -0.308072 -0.0781594
    outer loop
      vertex -4.65908 -2.92564 25.1
      vertex -3.57024 -4.6714 45.1897
      vertex -4.98855 -3.93965 25.1
    endloop
  endfacet
  facet normal 0.862509 -0.49797 -0.0900197
    outer loop
      vertex -4.12599 -2.00229 25.1
      vertex -3.57024 -4.6714 45.1897
      vertex -4.65908 -2.92564 25.1
    endloop
  endfacet
  facet normal 0.989195 -0.126963 -0.0733023
    outer loop
      vertex -3.65 -5 45
      vertex -3.65 -5.2125 45.3681
      vertex -3.65489 -5.24106 45.3516
    endloop
  endfacet
  facet normal 0.989195 -0.126963 -0.0733023
    outer loop
      vertex -4.98855 -3.93965 25.1
      vertex -3.65 -5 45
      vertex -3.65489 -5.24106 45.3516
    endloop
  endfacet
  facet normal 0.978147 -0.193484 -0.0761037
    outer loop
      vertex -3.57024 -4.6714 45.1897
      vertex -3.65 -5 45
      vertex -4.98855 -3.93965 25.1
    endloop
  endfacet
  facet normal 0.822211 -0.560813 -0.0972542
    outer loop
      vertex -3.33444 -4.35715 45.3711
      vertex -3.57024 -4.6714 45.1897
      vertex -4.12599 -2.00229 25.1
    endloop
  endfacet
  facet normal 0.738946 -0.66535 -0.106147
    outer loop
      vertex -3.41257 -1.20996 25.1
      vertex -3.33444 -4.35715 45.3711
      vertex -4.12599 -2.00229 25.1
    endloop
  endfacet
  facet normal 0.628722 -0.768053 -0.121667
    outer loop
      vertex -2.95291 -4.07101 45.5364
      vertex -3.33444 -4.35715 45.3711
      vertex -3.41257 -1.20996 25.1
    endloop
  endfacet
  facet normal 0.583139 -0.802622 -0.125481
    outer loop
      vertex -2.55 -0.58327 25.1
      vertex -2.95291 -4.07101 45.5364
      vertex -3.41257 -1.20996 25.1
    endloop
  endfacet
  facet normal 0.460512 -0.876464 -0.140501
    outer loop
      vertex -2.55 -0.58327 25.1
      vertex -2.44233 -3.82546 45.6781
      vertex -2.95291 -4.07101 45.5364
    endloop
  endfacet
  facet normal 0.402466 -0.903954 -0.144529
    outer loop
      vertex -1.57599 -0.149612 25.1
      vertex -2.44233 -3.82546 45.6781
      vertex -2.55 -0.58327 25.1
    endloop
  endfacet
  facet normal 0.321789 -0.934311 -0.153348
    outer loop
      vertex -1.57599 -0.149612 25.1
      vertex -1.825 -3.63125 45.7902
      vertex -2.44233 -3.82546 45.6781
    endloop
  endfacet
  facet normal 0.205233 -0.965545 -0.160006
    outer loop
      vertex -1.57599 -0.149612 25.1
      vertex -0.533095 0.072062 25.1
      vertex -1.825 -3.63125 45.7902
    endloop
  endfacet
  facet normal 0.204016 -0.965783 -0.160125
    outer loop
      vertex -0.533095 0.072062 25.1
      vertex -1.12791 -3.49686 45.8678
      vertex -1.825 -3.63125 45.7902
    endloop
  endfacet
  facet normal 0.0991158 -0.98117 -0.165774
    outer loop
      vertex -0.533095 0.072062 25.1
      vertex -0.381529 -3.42816 45.9075
      vertex -1.12791 -3.49686 45.8678
    endloop
  endfacet
  facet normal 0 -0.986145 -0.165889
    outer loop
      vertex 0.533095 0.072062 25.1
      vertex 0.381529 -3.42816 45.9075
      vertex -0.381529 -3.42816 45.9075
    endloop
  endfacet
  facet normal 0 -0.986145 -0.165889
    outer loop
      vertex -0.533095 0.072062 25.1
      vertex 0.533095 0.072062 25.1
      vertex -0.381529 -3.42816 45.9075
    endloop
  endfacet
  facet normal -0.0991158 -0.98117 -0.165774
    outer loop
      vertex 0.533095 0.072062 25.1
      vertex 1.12791 -3.49686 45.8678
      vertex 0.381529 -3.42816 45.9075
    endloop
  endfacet
  facet normal -0.204016 -0.965783 -0.160125
    outer loop
      vertex 1.825 -3.63125 45.7902
      vertex 1.12791 -3.49686 45.8678
      vertex 0.533095 0.072062 25.1
    endloop
  endfacet
  facet normal -0.205233 -0.965545 -0.160006
    outer loop
      vertex 1.57599 -0.149612 25.1
      vertex 1.825 -3.63125 45.7902
      vertex 0.533095 0.072062 25.1
    endloop
  endfacet
  facet normal -0.738946 -0.66535 -0.106147
    outer loop
      vertex 3.41257 -1.20996 25.1
      vertex 4.12599 -2.00229 25.1
      vertex 3.33444 -4.35715 45.3711
    endloop
  endfacet
  facet normal -0.822211 -0.560813 -0.0972542
    outer loop
      vertex 4.12599 -2.00229 25.1
      vertex 3.57024 -4.6714 45.1897
      vertex 3.33444 -4.35715 45.3711
    endloop
  endfacet
  facet normal -0.862509 -0.49797 -0.0900197
    outer loop
      vertex 4.12599 -2.00229 25.1
      vertex 4.65908 -2.92564 25.1
      vertex 3.57024 -4.6714 45.1897
    endloop
  endfacet
  facet normal -0.948147 -0.308072 -0.0781594
    outer loop
      vertex 4.65908 -2.92564 25.1
      vertex 4.98855 -3.93965 25.1
      vertex 3.57024 -4.6714 45.1897
    endloop
  endfacet
  facet normal -0.978147 -0.193484 -0.0761037
    outer loop
      vertex 4.98855 -3.93965 25.1
      vertex 3.65 -5 45
      vertex 3.57024 -4.6714 45.1897
    endloop
  endfacet
  facet normal -0.989195 -0.126963 -0.0733023
    outer loop
      vertex 4.98855 -3.93965 25.1
      vertex 3.65489 -5.24106 45.3516
      vertex 3.65 -5 45
    endloop
  endfacet
  facet normal -0.989195 -0.126963 -0.0733023
    outer loop
      vertex 3.65 -5 45
      vertex 3.65489 -5.24106 45.3516
      vertex 3.65 -5.2125 45.3681
    endloop
  endfacet
  facet normal -0.991939 -0.104257 -0.0720238
    outer loop
      vertex 5.1 -5 25.1
      vertex 3.65545 -5.24491 45.3493
      vertex 4.98855 -3.93965 25.1
    endloop
  endfacet
  facet normal -0.991939 -0.104257 -0.0720238
    outer loop
      vertex 4.98855 -3.93965 25.1
      vertex 3.65545 -5.24491 45.3493
      vertex 3.65489 -5.24106 45.3516
    endloop
  endfacet
  facet normal -0.992116 0.104275 -0.0695143
    outer loop
      vertex 5.1 -5 25.1
      vertex 4.98855 -6.06035 25.1
      vertex 3.65545 -5.24491 45.3493
    endloop
  endfacet
  facet normal -0.992116 0.104275 -0.0695143
    outer loop
      vertex 3.65545 -5.24491 45.3493
      vertex 4.98855 -6.06035 25.1
      vertex 3.65519 -5.24899 45.347
    endloop
  endfacet
  facet normal -0.321789 -0.934311 -0.153348
    outer loop
      vertex 2.44233 -3.82546 45.6781
      vertex 1.825 -3.63125 45.7902
      vertex 1.57599 -0.149612 25.1
    endloop
  endfacet
  facet normal -0.402466 -0.903954 -0.144529
    outer loop
      vertex 2.55 -0.58327 25.1
      vertex 2.44233 -3.82546 45.6781
      vertex 1.57599 -0.149612 25.1
    endloop
  endfacet
  facet normal -0.460512 -0.876464 -0.140501
    outer loop
      vertex 2.55 -0.58327 25.1
      vertex 2.95291 -4.07101 45.5364
      vertex 2.44233 -3.82546 45.6781
    endloop
  endfacet
  facet normal -0.583139 -0.802622 -0.125481
    outer loop
      vertex 3.41257 -1.20996 25.1
      vertex 2.95291 -4.07101 45.5364
      vertex 2.55 -0.58327 25.1
    endloop
  endfacet
  facet normal -0.628722 -0.768053 -0.121667
    outer loop
      vertex 3.41257 -1.20996 25.1
      vertex 3.33444 -4.35715 45.3711
      vertex 2.95291 -4.07101 45.5364
    endloop
  endfacet
  facet normal -0.402731 0.904551 -0.139984
    outer loop
      vertex 2.95118 -6.18875 44.8044
      vertex 2.55 -9.41673 25.1
      vertex 2.94691 -6.19084 44.8032
    endloop
  endfacet
  facet normal -0.402731 0.904551 -0.139984
    outer loop
      vertex 2.94691 -6.19084 44.8032
      vertex 2.55 -9.41673 25.1
      vertex 1.57599 -9.85039 25.1
    endloop
  endfacet
  facet normal -0.583603 0.803261 -0.119077
    outer loop
      vertex 3.33477 -5.9009 44.9706
      vertex 3.41257 -8.79004 25.1
      vertex 3.33107 -5.90384 44.9689
    endloop
  endfacet
  facet normal -0.583603 0.803261 -0.119077
    outer loop
      vertex 3.33107 -5.90384 44.9689
      vertex 3.41257 -8.79004 25.1
      vertex 2.55 -9.41673 25.1
    endloop
  endfacet
  facet normal -0.560915 0.818729 -0.122704
    outer loop
      vertex 2.95118 -6.18875 44.8044
      vertex 3.33107 -5.90384 44.9689
      vertex 2.55 -9.41673 25.1
    endloop
  endfacet
  facet normal -0.397051 0.906929 -0.140821
    outer loop
      vertex 2.43855 -6.43532 44.6621
      vertex 2.94691 -6.19084 44.8032
      vertex 1.57599 -9.85039 25.1
    endloop
  endfacet
  facet normal -0.270976 0.950198 -0.153934
    outer loop
      vertex 1.82391 -6.62868 44.5504
      vertex 2.43855 -6.43532 44.6621
      vertex 1.57599 -9.85039 25.1
    endloop
  endfacet
  facet normal -0.948432 0.308164 -0.0742406
    outer loop
      vertex 4.98855 -6.06035 25.1
      vertex 4.65908 -7.07436 25.1
      vertex 3.57574 -5.57632 45.158
    endloop
  endfacet
  facet normal -0.948432 0.308164 -0.0742406
    outer loop
      vertex 3.57574 -5.57632 45.158
      vertex 4.65908 -7.07436 25.1
      vertex 3.57459 -5.58043 45.1556
    endloop
  endfacet
  facet normal -0.958449 0.275456 -0.0741569
    outer loop
      vertex 3.65519 -5.24899 45.347
      vertex 4.98855 -6.06035 25.1
      vertex 3.57574 -5.57632 45.158
    endloop
  endfacet
  facet normal -0.862981 0.498242 -0.0837787
    outer loop
      vertex 4.65908 -7.07436 25.1
      vertex 4.12599 -7.9977 25.1
      vertex 3.57459 -5.58043 45.1556
    endloop
  endfacet
  facet normal -0.862981 0.498242 -0.0837787
    outer loop
      vertex 3.57459 -5.58043 45.1556
      vertex 4.12599 -7.9977 25.1
      vertex 3.57252 -5.58439 45.1533
    endloop
  endfacet
  facet normal -0.739442 0.665797 -0.0997003
    outer loop
      vertex 4.12599 -7.9977 25.1
      vertex 3.41257 -8.79004 25.1
      vertex 3.33769 -5.89734 44.9727
    endloop
  endfacet
  facet normal -0.739442 0.665797 -0.0997003
    outer loop
      vertex 3.33769 -5.89734 44.9727
      vertex 3.41257 -8.79004 25.1
      vertex 3.33477 -5.9009 44.9706
    endloop
  endfacet
  facet normal -0.768266 0.632686 -0.0973442
    outer loop
      vertex 3.57252 -5.58439 45.1533
      vertex 4.12599 -7.9977 25.1
      vertex 3.33769 -5.89734 44.9727
    endloop
  endfacet
  facet normal -0.838504 0.471893 0.272447
    outer loop
      vertex -4.74402 -4.56336 45.2521
      vertex -4.74402 -4.77586 45.6202
      vertex -4.4307 -4.14581 45.4932
    endloop
  endfacet
  facet normal 0 0.866026 0.5
    outer loop
      vertex -0.506963 -3.12389 46.5739
      vertex 0.506963 -3.12389 46.5739
      vertex -0.506963 -2.91139 46.2059
    endloop
  endfacet
  facet normal 0 0.866026 0.5
    outer loop
      vertex -0.506963 -2.91139 46.2059
      vertex 0.506963 -3.12389 46.5739
      vertex 0.506963 -2.91139 46.2059
    endloop
  endfacet
  facet normal 0.105683 0.861176 0.4972
    outer loop
      vertex 1.49873 -3.00267 46.1532
      vertex 0.506963 -2.91139 46.2059
      vertex 1.49873 -3.21517 46.5212
    endloop
  endfacet
  facet normal 0.105683 0.861176 0.4972
    outer loop
      vertex 0.506963 -2.91139 46.2059
      vertex 0.506963 -3.12389 46.5739
      vertex 1.49873 -3.21517 46.5212
    endloop
  endfacet
  facet normal -0.105683 0.861176 0.4972
    outer loop
      vertex -0.506963 -2.91139 46.2059
      vertex -1.49873 -3.21517 46.5212
      vertex -0.506963 -3.12389 46.5739
    endloop
  endfacet
  facet normal -0.105683 0.861176 0.4972
    outer loop
      vertex -1.49873 -3.00267 46.1532
      vertex -1.49873 -3.21517 46.5212
      vertex -0.506963 -2.91139 46.2059
    endloop
  endfacet
  facet normal 0.217295 0.845333 0.488053
    outer loop
      vertex 2.425 -3.18125 46.0501
      vertex 1.49873 -3.21517 46.5212
      vertex 2.425 -3.39375 46.4181
    endloop
  endfacet
  facet normal 0.217295 0.845333 0.488053
    outer loop
      vertex 1.49873 -3.00267 46.1532
      vertex 1.49873 -3.21517 46.5212
      vertex 2.425 -3.18125 46.0501
    endloop
  endfacet
  facet normal 0.34144 0.81398 0.469952
    outer loop
      vertex 2.425 -3.39375 46.4181
      vertex 3.24528 -3.65181 46.2691
      vertex 2.425 -3.18125 46.0501
    endloop
  endfacet
  facet normal 0.34144 0.81398 0.469952
    outer loop
      vertex 2.425 -3.18125 46.0501
      vertex 3.24528 -3.65181 46.2691
      vertex 3.24528 -3.43931 45.9011
    endloop
  endfacet
  facet normal -0.34144 0.81398 0.469952
    outer loop
      vertex -3.24528 -3.65181 46.2691
      vertex -2.425 -3.39375 46.4181
      vertex -3.24528 -3.43931 45.9011
    endloop
  endfacet
  facet normal -0.34144 0.81398 0.469952
    outer loop
      vertex -3.24528 -3.43931 45.9011
      vertex -2.425 -3.39375 46.4181
      vertex -2.425 -3.18125 46.0501
    endloop
  endfacet
  facet normal -0.217295 0.845333 0.488053
    outer loop
      vertex -1.49873 -3.00267 46.1532
      vertex -2.425 -3.18125 46.0501
      vertex -1.49873 -3.21517 46.5212
    endloop
  endfacet
  facet normal -0.217295 0.845333 0.488053
    outer loop
      vertex -2.425 -3.18125 46.0501
      vertex -2.425 -3.39375 46.4181
      vertex -1.49873 -3.21517 46.5212
    endloop
  endfacet
  facet normal -0.485477 0.757123 0.437125
    outer loop
      vertex -3.24528 -3.43931 45.9011
      vertex -3.92373 -3.76559 45.7127
      vertex -3.24528 -3.65181 46.2691
    endloop
  endfacet
  facet normal -0.654653 0.654654 0.377965
    outer loop
      vertex -3.92373 -3.76559 45.7127
      vertex -4.4307 -4.35831 45.8612
      vertex -3.92373 -3.97809 46.0807
    endloop
  endfacet
  facet normal -0.654654 0.654654 0.377964
    outer loop
      vertex -4.4307 -4.14581 45.4932
      vertex -4.4307 -4.35831 45.8612
      vertex -3.92373 -3.76559 45.7127
    endloop
  endfacet
  facet normal -0.485477 0.757122 0.437125
    outer loop
      vertex -3.92373 -3.76559 45.7127
      vertex -3.92373 -3.97809 46.0807
      vertex -3.24528 -3.65181 46.2691
    endloop
  endfacet
  facet normal -0.838504 0.471893 0.272447
    outer loop
      vertex -4.4307 -4.14581 45.4932
      vertex -4.74402 -4.77586 45.6202
      vertex -4.4307 -4.35831 45.8612
    endloop
  endfacet
  facet normal -7.9956e-07 -0.499996 0.866028
    outer loop
      vertex -1.49873 -3.21517 46.5212
      vertex -2.425 -3.39375 46.4181
      vertex -0.506963 -3.12389 46.5739
    endloop
  endfacet
  facet normal 0 -0.5 0.866025
    outer loop
      vertex -0.506963 -3.12389 46.5739
      vertex -2.425 -3.39375 46.4181
      vertex 2.425 -3.39375 46.4181
    endloop
  endfacet
  facet normal 0 -0.5 0.866025
    outer loop
      vertex 0.506963 -3.12389 46.5739
      vertex -0.506963 -3.12389 46.5739
      vertex 2.425 -3.39375 46.4181
    endloop
  endfacet
  facet normal 0 -0.5 0.866025
    outer loop
      vertex -1.9087 -3.87008 46.1431
      vertex -2.425 -3.39375 46.4181
      vertex -2.28095 -3.98719 46.0755
    endloop
  endfacet
  facet normal 0 -0.5 0.866025
    outer loop
      vertex -1.825 -3.84375 46.1583
      vertex -2.425 -3.39375 46.4181
      vertex -1.9087 -3.87008 46.1431
    endloop
  endfacet
  facet normal 0 -0.5 0.866025
    outer loop
      vertex 0.381529 -3.64066 46.2756
      vertex 0.482733 -3.64998 46.2702
      vertex 2.425 -3.39375 46.4181
    endloop
  endfacet
  facet normal 0 -0.5 0.866025
    outer loop
      vertex -1.12791 -3.70936 46.2359
      vertex -2.425 -3.39375 46.4181
      vertex -1.825 -3.84375 46.1583
    endloop
  endfacet
  facet normal 0 -0.5 0.866025
    outer loop
      vertex -0.482733 -3.64998 46.2702
      vertex -2.425 -3.39375 46.4181
      vertex -1.12791 -3.70936 46.2359
    endloop
  endfacet
  facet normal 0 -0.5 0.866025
    outer loop
      vertex -0.381529 -3.64066 46.2756
      vertex -2.425 -3.39375 46.4181
      vertex -0.482733 -3.64998 46.2702
    endloop
  endfacet
  facet normal 0 -0.5 0.866025
    outer loop
      vertex 2.425 -3.39375 46.4181
      vertex -2.425 -3.39375 46.4181
      vertex -0.381529 -3.64066 46.2756
    endloop
  endfacet
  facet normal 0 -0.5 0.866025
    outer loop
      vertex 1.12791 -3.70936 46.2359
      vertex 2.425 -3.39375 46.4181
      vertex 0.482733 -3.64998 46.2702
    endloop
  endfacet
  facet normal 0 -0.5 0.866025
    outer loop
      vertex 1.825 -3.84375 46.1583
      vertex 2.425 -3.39375 46.4181
      vertex 1.12791 -3.70936 46.2359
    endloop
  endfacet
  facet normal 0 -0.5 0.866025
    outer loop
      vertex 1.9087 -3.87008 46.1431
      vertex 2.425 -3.39375 46.4181
      vertex 1.825 -3.84375 46.1583
    endloop
  endfacet
  facet normal 0 -0.5 0.866025
    outer loop
      vertex 2.28095 -3.98719 46.0755
      vertex 2.425 -3.39375 46.4181
      vertex 1.9087 -3.87008 46.1431
    endloop
  endfacet
  facet normal 0 -0.5 0.866025
    outer loop
      vertex -0.381529 -3.64066 46.2756
      vertex 0.381529 -3.64066 46.2756
      vertex 2.425 -3.39375 46.4181
    endloop
  endfacet
  facet normal -6.39831e-07 -0.499999 0.866026
    outer loop
      vertex -3.24528 -3.65181 46.2691
      vertex -4.4307 -4.35831 45.8612
      vertex -2.425 -3.39375 46.4181
    endloop
  endfacet
  facet normal 0.34144 -0.81398 -0.469953
    outer loop
      vertex -2.44233 -3.82546 45.6781
      vertex -1.9087 -3.87008 46.1431
      vertex -2.28095 -3.98719 46.0755
    endloop
  endfacet
  facet normal 0.34144 -0.81398 -0.469953
    outer loop
      vertex -2.44233 -4.03796 46.0462
      vertex -2.44233 -3.82546 45.6781
      vertex -2.28095 -3.98719 46.0755
    endloop
  endfacet
  facet normal 0.485477 -0.757122 -0.437126
    outer loop
      vertex -2.44233 -3.82546 45.6781
      vertex -2.44233 -4.03796 46.0462
      vertex -2.88368 -4.25021 45.9236
    endloop
  endfacet
  facet normal 0.485478 -0.757122 -0.437124
    outer loop
      vertex -2.95291 -4.07101 45.5364
      vertex -2.44233 -3.82546 45.6781
      vertex -2.88368 -4.25021 45.9236
    endloop
  endfacet
  facet normal 0.485478 -0.757122 -0.437124
    outer loop
      vertex -2.95291 -4.28351 45.9044
      vertex -2.95291 -4.07101 45.5364
      vertex -2.88368 -4.25021 45.9236
    endloop
  endfacet
  facet normal 0.654653 -0.654654 -0.377964
    outer loop
      vertex -2.95291 -4.07101 45.5364
      vertex -2.95291 -4.28351 45.9044
      vertex -3.00464 -4.32231 45.882
    endloop
  endfacet
  facet normal 0.654653 -0.654654 -0.377964
    outer loop
      vertex -3.33444 -4.35715 45.3711
      vertex -2.95291 -4.07101 45.5364
      vertex -3.00464 -4.32231 45.882
    endloop
  endfacet
  facet normal 0.654654 -0.654653 -0.377965
    outer loop
      vertex -3.33444 -4.35715 45.3711
      vertex -3.00464 -4.32231 45.882
      vertex -3.33444 -4.56965 45.7392
    endloop
  endfacet
  facet normal 0.838505 -0.471892 -0.272448
    outer loop
      vertex -3.57024 -4.6714 45.1897
      vertex -3.33444 -4.35715 45.3711
      vertex -3.33444 -4.56965 45.7392
    endloop
  endfacet
  facet normal 0.838505 -0.471892 -0.272448
    outer loop
      vertex -3.57024 -4.8839 45.5578
      vertex -3.57024 -4.6714 45.1897
      vertex -3.33444 -4.56965 45.7392
    endloop
  endfacet
  facet normal 0.978613 -0.178151 -0.102856
    outer loop
      vertex -3.57024 -4.6714 45.1897
      vertex -3.57024 -4.8839 45.5578
      vertex -3.63918 -5.16794 45.3938
    endloop
  endfacet
  facet normal 0.978613 -0.178151 -0.102856
    outer loop
      vertex -3.65 -5 45
      vertex -3.57024 -4.6714 45.1897
      vertex -3.63918 -5.16794 45.3938
    endloop
  endfacet
  facet normal 0.978613 -0.178151 -0.102856
    outer loop
      vertex -3.65 -5.2125 45.3681
      vertex -3.65 -5 45
      vertex -3.63918 -5.16794 45.3938
    endloop
  endfacet
  facet normal -1.53265e-06 -0.499998 0.866027
    outer loop
      vertex -3.92373 -3.97809 46.0807
      vertex -4.4307 -4.35831 45.8612
      vertex -3.24528 -3.65181 46.2691
    endloop
  endfacet
  facet normal -0.978613 -0.178151 -0.102856
    outer loop
      vertex 3.65 -5.2125 45.3681
      vertex 3.63918 -5.16794 45.3938
      vertex 3.65 -5 45
    endloop
  endfacet
  facet normal -0.978613 -0.178151 -0.102856
    outer loop
      vertex 3.65 -5 45
      vertex 3.63918 -5.16794 45.3938
      vertex 3.57024 -4.6714 45.1897
    endloop
  endfacet
  facet normal -0.978613 -0.178151 -0.102856
    outer loop
      vertex 3.57024 -4.6714 45.1897
      vertex 3.63918 -5.16794 45.3938
      vertex 3.57024 -4.8839 45.5578
    endloop
  endfacet
  facet normal -0.838505 -0.471892 -0.272448
    outer loop
      vertex 3.57024 -4.6714 45.1897
      vertex 3.57024 -4.8839 45.5578
      vertex 3.33444 -4.35715 45.3711
    endloop
  endfacet
  facet normal -0.838505 -0.471892 -0.272448
    outer loop
      vertex 3.33444 -4.35715 45.3711
      vertex 3.57024 -4.8839 45.5578
      vertex 3.33444 -4.56965 45.7392
    endloop
  endfacet
  facet normal -0.654654 -0.654653 -0.377965
    outer loop
      vertex 3.33444 -4.35715 45.3711
      vertex 3.33444 -4.56965 45.7392
      vertex 3.00464 -4.32231 45.882
    endloop
  endfacet
  facet normal -0.654653 -0.654654 -0.377964
    outer loop
      vertex 2.95291 -4.07101 45.5364
      vertex 3.33444 -4.35715 45.3711
      vertex 3.00464 -4.32231 45.882
    endloop
  endfacet
  facet normal -0.654653 -0.654654 -0.377964
    outer loop
      vertex 2.95291 -4.28351 45.9044
      vertex 2.95291 -4.07101 45.5364
      vertex 3.00464 -4.32231 45.882
    endloop
  endfacet
  facet normal -0.485478 -0.757122 -0.437124
    outer loop
      vertex 2.95291 -4.07101 45.5364
      vertex 2.95291 -4.28351 45.9044
      vertex 2.88368 -4.25021 45.9236
    endloop
  endfacet
  facet normal -0.485478 -0.757122 -0.437124
    outer loop
      vertex 2.44233 -3.82546 45.6781
      vertex 2.95291 -4.07101 45.5364
      vertex 2.88368 -4.25021 45.9236
    endloop
  endfacet
  facet normal -0.485477 -0.757122 -0.437126
    outer loop
      vertex 2.44233 -3.82546 45.6781
      vertex 2.88368 -4.25021 45.9236
      vertex 2.44233 -4.03796 46.0462
    endloop
  endfacet
  facet normal -0.34144 -0.81398 -0.469953
    outer loop
      vertex 2.44233 -3.82546 45.6781
      vertex 2.44233 -4.03796 46.0462
      vertex 2.28095 -3.98719 46.0755
    endloop
  endfacet
  facet normal -0.34144 -0.81398 -0.469953
    outer loop
      vertex 1.9087 -3.87008 46.1431
      vertex 2.44233 -3.82546 45.6781
      vertex 2.28095 -3.98719 46.0755
    endloop
  endfacet
  facet normal 7.9956e-07 -0.499996 0.866028
    outer loop
      vertex 1.49873 -3.21517 46.5212
      vertex 0.506963 -3.12389 46.5739
      vertex 2.425 -3.39375 46.4181
    endloop
  endfacet
  facet normal 6.39831e-07 -0.499999 0.866026
    outer loop
      vertex 3.24528 -3.65181 46.2691
      vertex 2.425 -3.39375 46.4181
      vertex 4.4307 -4.35831 45.8612
    endloop
  endfacet
  facet normal 1.53265e-06 -0.499998 0.866027
    outer loop
      vertex 3.92373 -3.97809 46.0807
      vertex 3.24528 -3.65181 46.2691
      vertex 4.4307 -4.35831 45.8612
    endloop
  endfacet
  facet normal 0.654653 0.654654 0.377965
    outer loop
      vertex 3.92373 -3.76559 45.7127
      vertex 3.92373 -3.97809 46.0807
      vertex 4.4307 -4.35831 45.8612
    endloop
  endfacet
  facet normal 0.654654 0.654654 0.377964
    outer loop
      vertex 4.4307 -4.14581 45.4932
      vertex 3.92373 -3.76559 45.7127
      vertex 4.4307 -4.35831 45.8612
    endloop
  endfacet
  facet normal 0.838504 0.471893 0.272447
    outer loop
      vertex 4.4307 -4.14581 45.4932
      vertex 4.4307 -4.35831 45.8612
      vertex 4.74402 -4.77586 45.6202
    endloop
  endfacet
  facet normal 0.838504 0.471893 0.272447
    outer loop
      vertex 4.74402 -4.56336 45.2521
      vertex 4.4307 -4.14581 45.4932
      vertex 4.74402 -4.77586 45.6202
    endloop
  endfacet
  facet normal 0.485477 0.757123 0.437125
    outer loop
      vertex 3.24528 -3.43931 45.9011
      vertex 3.24528 -3.65181 46.2691
      vertex 3.92373 -3.76559 45.7127
    endloop
  endfacet
  facet normal 0.485477 0.757122 0.437125
    outer loop
      vertex 3.92373 -3.76559 45.7127
      vertex 3.24528 -3.65181 46.2691
      vertex 3.92373 -3.97809 46.0807
    endloop
  endfacet
  facet normal 0.341439 -0.813981 -0.469951
    outer loop
      vertex -1.825 -3.63125 45.7902
      vertex -1.825 -3.84375 46.1583
      vertex -1.9087 -3.87008 46.1431
    endloop
  endfacet
  facet normal 0.341439 -0.813981 -0.469951
    outer loop
      vertex -2.44233 -3.82546 45.6781
      vertex -1.825 -3.63125 45.7902
      vertex -1.9087 -3.87008 46.1431
    endloop
  endfacet
  facet normal 0.217295 -0.845333 -0.488052
    outer loop
      vertex -1.825 -3.63125 45.7902
      vertex -1.12791 -3.49686 45.8678
      vertex -1.12791 -3.70936 46.2359
    endloop
  endfacet
  facet normal 0.217295 -0.845333 -0.488052
    outer loop
      vertex -1.825 -3.84375 46.1583
      vertex -1.825 -3.63125 45.7902
      vertex -1.12791 -3.70936 46.2359
    endloop
  endfacet
  facet normal 0.105683 -0.861176 -0.497199
    outer loop
      vertex -1.12791 -3.49686 45.8678
      vertex -0.482733 -3.64998 46.2702
      vertex -1.12791 -3.70936 46.2359
    endloop
  endfacet
  facet normal 0.105683 -0.861176 -0.497199
    outer loop
      vertex -0.381529 -3.42816 45.9075
      vertex -0.381529 -3.64066 46.2756
      vertex -0.482733 -3.64998 46.2702
    endloop
  endfacet
  facet normal 0.105683 -0.861176 -0.497199
    outer loop
      vertex -1.12791 -3.49686 45.8678
      vertex -0.381529 -3.42816 45.9075
      vertex -0.482733 -3.64998 46.2702
    endloop
  endfacet
  facet normal 0 -0.866026 -0.499999
    outer loop
      vertex -0.381529 -3.42816 45.9075
      vertex 0.381529 -3.42816 45.9075
      vertex 0.381529 -3.64066 46.2756
    endloop
  endfacet
  facet normal 0 -0.866026 -0.499999
    outer loop
      vertex -0.381529 -3.64066 46.2756
      vertex -0.381529 -3.42816 45.9075
      vertex 0.381529 -3.64066 46.2756
    endloop
  endfacet
  facet normal -0.105683 -0.861176 -0.497199
    outer loop
      vertex 0.381529 -3.42816 45.9075
      vertex 1.12791 -3.49686 45.8678
      vertex 0.482733 -3.64998 46.2702
    endloop
  endfacet
  facet normal -0.105683 -0.861176 -0.497199
    outer loop
      vertex 0.381529 -3.64066 46.2756
      vertex 0.381529 -3.42816 45.9075
      vertex 0.482733 -3.64998 46.2702
    endloop
  endfacet
  facet normal -0.105683 -0.861176 -0.497199
    outer loop
      vertex 1.12791 -3.49686 45.8678
      vertex 1.12791 -3.70936 46.2359
      vertex 0.482733 -3.64998 46.2702
    endloop
  endfacet
  facet normal -0.217295 -0.845333 -0.488052
    outer loop
      vertex 1.12791 -3.49686 45.8678
      vertex 1.825 -3.63125 45.7902
      vertex 1.825 -3.84375 46.1583
    endloop
  endfacet
  facet normal -0.217295 -0.845333 -0.488052
    outer loop
      vertex 1.12791 -3.70936 46.2359
      vertex 1.12791 -3.49686 45.8678
      vertex 1.825 -3.84375 46.1583
    endloop
  endfacet
  facet normal -0.341439 -0.813981 -0.469951
    outer loop
      vertex 1.825 -3.63125 45.7902
      vertex 2.44233 -3.82546 45.6781
      vertex 1.9087 -3.87008 46.1431
    endloop
  endfacet
  facet normal -0.341439 -0.813981 -0.469951
    outer loop
      vertex 1.825 -3.84375 46.1583
      vertex 1.825 -3.63125 45.7902
      vertex 1.9087 -3.87008 46.1431
    endloop
  endfacet
endsolid OpenSCAD_Model
