solid OpenSCAD_Model
  facet normal -1 0 0
    outer loop
      vertex 0 -2.5 0
      vertex 0 -2.5 5
      vertex 0 2.5 0
    endloop
  endfacet
  facet normal -1 0 0
    outer loop
      vertex 0 2.5 0
      vertex 0 -2.5 5
      vertex 0 2.5 5
    endloop
  endfacet
  facet normal 0 -1 0
    outer loop
      vertex 0 -2.5 5
      vertex 0 -2.5 0
      vertex 10 -2.5 0
    endloop
  endfacet
  facet normal 0 -1 0
    outer loop
      vertex 10 -2.5 5
      vertex 0 -2.5 5
      vertex 10 -2.5 0
    endloop
  endfacet
  facet normal 0 0 -1
    outer loop
      vertex 0 -2.5 0
      vertex 0 2.5 0
      vertex 10 -2.5 0
    endloop
  endfacet
  facet normal 0 0 -1
    outer loop
      vertex 10 -2.5 0
      vertex 0 2.5 0
      vertex 10 2.5 0
    endloop
  endfacet
  facet normal 0 1 0
    outer loop
      vertex 0 2.5 0
      vertex 0 2.5 5
      vertex 10 2.5 0
    endloop
  endfacet
  facet normal 0 1 0
    outer loop
      vertex 10 2.5 0
      vertex 0 2.5 5
      vertex 10 2.5 5
    endloop
  endfacet
  facet normal 0 0 1
    outer loop
      vertex 5.46352 -1.42658 5
      vertex 0 -2.5 5
      vertex 10 -2.5 5
    endloop
  endfacet
  facet normal 0 0 1
    outer loop
      vertex 5.46352 1.42658 5
      vertex 6.5 0 5
      vertex 10 2.5 5
    endloop
  endfacet
  facet normal 0 0 1
    outer loop
      vertex 0 2.5 5
      vertex 0 -2.5 5
      vertex 3.78647 -0.881678 5
    endloop
  endfacet
  facet normal 0 0 1
    outer loop
      vertex 5.46352 1.42658 5
      vertex 0 2.5 5
      vertex 3.78647 0.881678 5
    endloop
  endfacet
  facet normal 0 0 1
    outer loop
      vertex 10 2.5 5
      vertex 0 2.5 5
      vertex 5.46352 1.42658 5
    endloop
  endfacet
  facet normal 0 0 1
    outer loop
      vertex 10 2.5 5
      vertex 6.5 0 5
      vertex 10 -2.5 5
    endloop
  endfacet
  facet normal 0 0 1
    outer loop
      vertex 3.78647 -0.881678 5
      vertex 0 -2.5 5
      vertex 5.46352 -1.42658 5
    endloop
  endfacet
  facet normal 0 0 1
    outer loop
      vertex 3.78647 -0.881678 5
      vertex 3.78647 0.881678 5
      vertex 0 2.5 5
    endloop
  endfacet
  facet normal 0 0 1
    outer loop
      vertex 6.5 0 5
      vertex 5.46352 -1.42658 5
      vertex 10 -2.5 5
    endloop
  endfacet
  facet normal 1 0 0
    outer loop
      vertex 10 -2.5 5
      vertex 10 -2.5 0
      vertex 10 2.5 0
    endloop
  endfacet
  facet normal 1 0 0
    outer loop
      vertex 10 2.5 5
      vertex 10 -2.5 5
      vertex 10 2.5 0
    endloop
  endfacet
  facet normal -1 0 0
    outer loop
      vertex 3.78647 -0.881678 5
      vertex 3.78647 -0.881678 10
      vertex 3.78647 0.881678 5
    endloop
  endfacet
  facet normal -1 0 0
    outer loop
      vertex 3.78647 0.881678 5
      vertex 3.78647 -0.881678 10
      vertex 3.78647 0.881678 10
    endloop
  endfacet
  facet normal -0.309017 -0.951056 0
    outer loop
      vertex 3.78647 -0.881678 10
      vertex 3.78647 -0.881678 5
      vertex 5.46352 -1.42658 5
    endloop
  endfacet
  facet normal -0.309017 -0.951056 0
    outer loop
      vertex 5.46352 -1.42658 10
      vertex 3.78647 -0.881678 10
      vertex 5.46352 -1.42658 5
    endloop
  endfacet
  facet normal 0.809017 -0.587785 0
    outer loop
      vertex 5.46352 -1.42658 10
      vertex 5.46352 -1.42658 5
      vertex 6.5 0 5
    endloop
  endfacet
  facet normal 0.809017 -0.587785 0
    outer loop
      vertex 6.5 0 10
      vertex 5.46352 -1.42658 10
      vertex 6.5 0 5
    endloop
  endfacet
  facet normal 0.809017 0.587785 0
    outer loop
      vertex 6.5 0 5
      vertex 5.46352 1.42658 5
      vertex 5.46352 1.42658 10
    endloop
  endfacet
  facet normal 0.809017 0.587785 0
    outer loop
      vertex 6.5 0 10
      vertex 6.5 0 5
      vertex 5.46352 1.42658 10
    endloop
  endfacet
  facet normal -0.309017 0.951056 0
    outer loop
      vertex 3.78647 0.881678 5
      vertex 3.78647 0.881678 10
      vertex 5.46352 1.42658 5
    endloop
  endfacet
  facet normal -0.309017 0.951056 0
    outer loop
      vertex 5.46352 1.42658 5
      vertex 3.78647 0.881678 10
      vertex 5.46352 1.42658 10
    endloop
  endfacet
  facet normal 0 0 1
    outer loop
      vertex 3.78647 0.881678 10
      vertex 3.78647 -0.881678 10
      vertex 5.46352 -1.42658 10
    endloop
  endfacet
  facet normal 0 0 1
    outer loop
      vertex 5.46352 1.42658 10
      vertex 3.78647 0.881678 10
      vertex 6.5 0 10
    endloop
  endfacet
  facet normal 0 0 1
    outer loop
      vertex 6.5 0 10
      vertex 3.78647 0.881678 10
      vertex 5.46352 -1.42658 10
    endloop
  endfacet
endsolid OpenSCAD_Model
