solid OpenSCAD_Model
  facet normal 0 0 -1
    outer loop
      vertex -35 0 0
      vertex -34.2352 7.27691 0
      vertex -34.2352 -7.27691 0
    endloop
  endfacet
  facet normal 0 0 -1
    outer loop
      vertex -34.2352 -7.27691 0
      vertex -34.2352 7.27691 0
      vertex -31.9741 14.2358 0
    endloop
  endfacet
  facet normal 0 0 -1
    outer loop
      vertex -34.2352 -7.27691 0
      vertex -31.9741 14.2358 0
      vertex -28.3156 20.5725 0
    endloop
  endfacet
  facet normal 0 0 -1
    outer loop
      vertex -34.2352 -7.27691 0
      vertex -28.3156 20.5725 0
      vertex -23.4196 26.0101 0
    endloop
  endfacet
  facet normal 0 0 -1
    outer loop
      vertex -34.2352 -7.27691 0
      vertex -23.4196 26.0101 0
      vertex -17.5 30.3109 0
    endloop
  endfacet
  facet normal 0 0 -1
    outer loop
      vertex -34.2352 -7.27691 0
      vertex -17.5 30.3109 0
      vertex -10.8156 33.287 0
    endloop
  endfacet
  facet normal 0 0 -1
    outer loop
      vertex -34.2352 -7.27691 0
      vertex -10.8156 33.287 0
      vertex -3.6585 34.8083 0
    endloop
  endfacet
  facet normal 0 0 -1
    outer loop
      vertex -34.2352 -7.27691 0
      vertex -3.6585 34.8083 0
      vertex 3.6585 34.8083 0
    endloop
  endfacet
  facet normal 0 0 -1
    outer loop
      vertex -34.2352 -7.27691 0
      vertex 3.6585 34.8083 0
      vertex 10.8156 33.287 0
    endloop
  endfacet
  facet normal 0 0 -1
    outer loop
      vertex -34.2352 -7.27691 0
      vertex 10.8156 33.287 0
      vertex 17.5 30.3109 0
    endloop
  endfacet
  facet normal 0 0 -1
    outer loop
      vertex -34.2352 -7.27691 0
      vertex 17.5 30.3109 0
      vertex 23.4196 26.0101 0
    endloop
  endfacet
  facet normal 0 0 -1
    outer loop
      vertex -34.2352 -7.27691 0
      vertex 23.4196 26.0101 0
      vertex 28.3156 20.5725 0
    endloop
  endfacet
  facet normal 0 0 -1
    outer loop
      vertex -34.2352 -7.27691 0
      vertex 28.3156 20.5725 0
      vertex 31.9741 14.2358 0
    endloop
  endfacet
  facet normal 0 0 -1
    outer loop
      vertex -34.2352 -7.27691 0
      vertex 31.9741 14.2358 0
      vertex 34.2352 7.27691 0
    endloop
  endfacet
  facet normal 0 0 -1
    outer loop
      vertex -34.2352 -7.27691 0
      vertex 34.2352 7.27691 0
      vertex 35 0 0
    endloop
  endfacet
  facet normal 0 0 -1
    outer loop
      vertex -34.2352 -7.27691 0
      vertex 35 0 0
      vertex 34.2352 -7.27691 0
    endloop
  endfacet
  facet normal 0 0 -1
    outer loop
      vertex -34.2352 -7.27691 0
      vertex 34.2352 -7.27691 0
      vertex 31.9741 -14.2358 0
    endloop
  endfacet
  facet normal 0 0 -1
    outer loop
      vertex -34.2352 -7.27691 0
      vertex 31.9741 -14.2358 0
      vertex 28.3156 -20.5725 0
    endloop
  endfacet
  facet normal 0 0 -1
    outer loop
      vertex -34.2352 -7.27691 0
      vertex 28.3156 -20.5725 0
      vertex 23.4196 -26.0101 0
    endloop
  endfacet
  facet normal 0 0 -1
    outer loop
      vertex -34.2352 -7.27691 0
      vertex 23.4196 -26.0101 0
      vertex 17.5 -30.3109 0
    endloop
  endfacet
  facet normal 0 0 -1
    outer loop
      vertex -34.2352 -7.27691 0
      vertex 17.5 -30.3109 0
      vertex 10.8156 -33.287 0
    endloop
  endfacet
  facet normal 0 0 -1
    outer loop
      vertex -34.2352 -7.27691 0
      vertex 10.8156 -33.287 0
      vertex 5 -34.5231 0
    endloop
  endfacet
  facet normal 0 0 -1
    outer loop
      vertex -5 -34.5231 0
      vertex 5 -34.5231 0
      vertex 5 -56 0
    endloop
  endfacet
  facet normal 0 0 -1
    outer loop
      vertex -34.2352 -7.27691 0
      vertex 5 -34.5231 0
      vertex -5 -34.5231 0
    endloop
  endfacet
  facet normal 0 0 -1
    outer loop
      vertex -23.4196 -26.0101 0
      vertex -34.2352 -7.27691 0
      vertex -17.5 -30.3109 0
    endloop
  endfacet
  facet normal 0 0 -1
    outer loop
      vertex -34.2352 -7.27691 0
      vertex -5 -34.5231 0
      vertex -10.8156 -33.287 0
    endloop
  endfacet
  facet normal 0 0 -1
    outer loop
      vertex -34.2352 -7.27691 0
      vertex -23.4196 -26.0101 0
      vertex -28.3156 -20.5725 0
    endloop
  endfacet
  facet normal 0 0 -1
    outer loop
      vertex -34.2352 -7.27691 0
      vertex -28.3156 -20.5725 0
      vertex -31.9741 -14.2358 0
    endloop
  endfacet
  facet normal 0 0 -1
    outer loop
      vertex -5 -34.5231 0
      vertex 5 -56 0
      vertex -5 -56 0
    endloop
  endfacet
  facet normal 0 0 -1
    outer loop
      vertex -17.5 -30.3109 0
      vertex -34.2352 -7.27691 0
      vertex -10.8156 -33.287 0
    endloop
  endfacet
  facet normal -0.994522 0.104528 0
    outer loop
      vertex -35 0 0
      vertex -35 0 1
      vertex -34.2352 7.27691 0
    endloop
  endfacet
  facet normal -0.994522 0.104528 0
    outer loop
      vertex -34.2352 7.27691 0
      vertex -35 0 1
      vertex -34.2352 7.27691 1
    endloop
  endfacet
  facet normal -0.994522 -0.104528 0
    outer loop
      vertex -35 0 0
      vertex -34.2352 -7.27691 0
      vertex -35 0 1
    endloop
  endfacet
  facet normal -0.994522 -0.104528 0
    outer loop
      vertex -35 0 1
      vertex -34.2352 -7.27691 0
      vertex -34.2352 -7.27691 1
    endloop
  endfacet
  facet normal -0.951057 -0.309017 0
    outer loop
      vertex -34.2352 -7.27691 0
      vertex -31.9741 -14.2358 0
      vertex -34.2352 -7.27691 1
    endloop
  endfacet
  facet normal -0.951057 -0.309017 0
    outer loop
      vertex -34.2352 -7.27691 1
      vertex -31.9741 -14.2358 0
      vertex -31.9741 -14.2358 1
    endloop
  endfacet
  facet normal -0.866025 -0.5 0
    outer loop
      vertex -31.9741 -14.2358 0
      vertex -28.3156 -20.5725 0
      vertex -31.9741 -14.2358 1
    endloop
  endfacet
  facet normal -0.866025 -0.5 0
    outer loop
      vertex -31.9741 -14.2358 1
      vertex -28.3156 -20.5725 0
      vertex -28.3156 -20.5725 1
    endloop
  endfacet
  facet normal -0.743145 -0.669131 0
    outer loop
      vertex -28.3156 -20.5725 0
      vertex -23.4196 -26.0101 0
      vertex -28.3156 -20.5725 1
    endloop
  endfacet
  facet normal -0.743145 -0.669131 0
    outer loop
      vertex -28.3156 -20.5725 1
      vertex -23.4196 -26.0101 0
      vertex -23.4196 -26.0101 1
    endloop
  endfacet
  facet normal -0.587785 -0.809017 0
    outer loop
      vertex -23.4196 -26.0101 1
      vertex -23.4196 -26.0101 0
      vertex -17.5 -30.3109 0
    endloop
  endfacet
  facet normal -0.587785 -0.809017 0
    outer loop
      vertex -17.5 -30.3109 1
      vertex -23.4196 -26.0101 1
      vertex -17.5 -30.3109 0
    endloop
  endfacet
  facet normal -0.406737 -0.913545 0
    outer loop
      vertex -17.5 -30.3109 1
      vertex -17.5 -30.3109 0
      vertex -10.8156 -33.287 0
    endloop
  endfacet
  facet normal -0.406737 -0.913545 0
    outer loop
      vertex -10.8156 -33.287 1
      vertex -17.5 -30.3109 1
      vertex -10.8156 -33.287 0
    endloop
  endfacet
  facet normal -0.207912 -0.978148 0
    outer loop
      vertex -10.8156 -33.287 1
      vertex -10.8156 -33.287 0
      vertex -5 -34.5231 0
    endloop
  endfacet
  facet normal -0.207912 -0.978148 0
    outer loop
      vertex -5 -34.5231 1
      vertex -10.8156 -33.287 1
      vertex -5 -34.5231 0
    endloop
  endfacet
  facet normal -1 0 0
    outer loop
      vertex -5 -34.5231 1
      vertex -5 -34.5231 0
      vertex -5 -46 1
    endloop
  endfacet
  facet normal -1 0 0
    outer loop
      vertex -5 -56 0
      vertex -5 -56 7
      vertex -5 -46 1
    endloop
  endfacet
  facet normal -1 0 0
    outer loop
      vertex -5 -56 0
      vertex -5 -46 1
      vertex -5 -34.5231 0
    endloop
  endfacet
  facet normal -1 0 0
    outer loop
      vertex -5 -46 1
      vertex -5 -56 7
      vertex -5 -46 7
    endloop
  endfacet
  facet normal 0 -1 0
    outer loop
      vertex -5 -56 7
      vertex -5 -56 0
      vertex 5 -56 0
    endloop
  endfacet
  facet normal 0 -1 0
    outer loop
      vertex 5 -56 7
      vertex -5 -56 7
      vertex 5 -56 0
    endloop
  endfacet
  facet normal 1 0 0
    outer loop
      vertex 5 -46 1
      vertex 5 -56 0
      vertex 5 -34.5231 0
    endloop
  endfacet
  facet normal 1 0 0
    outer loop
      vertex 5 -46 1
      vertex 5 -46 7
      vertex 5 -56 7
    endloop
  endfacet
  facet normal 1 0 0
    outer loop
      vertex 5 -56 7
      vertex 5 -56 0
      vertex 5 -46 1
    endloop
  endfacet
  facet normal 1 0 0
    outer loop
      vertex 5 -34.5231 1
      vertex 5 -46 1
      vertex 5 -34.5231 0
    endloop
  endfacet
  facet normal 0.207912 -0.978148 0
    outer loop
      vertex 5 -34.5231 1
      vertex 5 -34.5231 0
      vertex 10.8156 -33.287 0
    endloop
  endfacet
  facet normal 0.207912 -0.978148 0
    outer loop
      vertex 10.8156 -33.287 1
      vertex 5 -34.5231 1
      vertex 10.8156 -33.287 0
    endloop
  endfacet
  facet normal 0.406737 -0.913545 0
    outer loop
      vertex 10.8156 -33.287 1
      vertex 10.8156 -33.287 0
      vertex 17.5 -30.3109 0
    endloop
  endfacet
  facet normal 0.406737 -0.913545 0
    outer loop
      vertex 17.5 -30.3109 1
      vertex 10.8156 -33.287 1
      vertex 17.5 -30.3109 0
    endloop
  endfacet
  facet normal 0.587785 -0.809017 0
    outer loop
      vertex 17.5 -30.3109 1
      vertex 17.5 -30.3109 0
      vertex 23.4196 -26.0101 0
    endloop
  endfacet
  facet normal 0.587785 -0.809017 0
    outer loop
      vertex 23.4196 -26.0101 1
      vertex 17.5 -30.3109 1
      vertex 23.4196 -26.0101 0
    endloop
  endfacet
  facet normal 0.743145 -0.669131 0
    outer loop
      vertex 23.4196 -26.0101 1
      vertex 23.4196 -26.0101 0
      vertex 28.3156 -20.5725 0
    endloop
  endfacet
  facet normal 0.743145 -0.669131 0
    outer loop
      vertex 28.3156 -20.5725 1
      vertex 23.4196 -26.0101 1
      vertex 28.3156 -20.5725 0
    endloop
  endfacet
  facet normal 0.866025 -0.5 0
    outer loop
      vertex 28.3156 -20.5725 1
      vertex 28.3156 -20.5725 0
      vertex 31.9741 -14.2358 0
    endloop
  endfacet
  facet normal 0.866025 -0.5 0
    outer loop
      vertex 31.9741 -14.2358 1
      vertex 28.3156 -20.5725 1
      vertex 31.9741 -14.2358 0
    endloop
  endfacet
  facet normal 0.951057 -0.309017 0
    outer loop
      vertex 31.9741 -14.2358 1
      vertex 31.9741 -14.2358 0
      vertex 34.2352 -7.27691 0
    endloop
  endfacet
  facet normal 0.951057 -0.309017 0
    outer loop
      vertex 34.2352 -7.27691 1
      vertex 31.9741 -14.2358 1
      vertex 34.2352 -7.27691 0
    endloop
  endfacet
  facet normal 0.994522 -0.104528 0
    outer loop
      vertex 34.2352 -7.27691 1
      vertex 34.2352 -7.27691 0
      vertex 35 0 0
    endloop
  endfacet
  facet normal 0.994522 -0.104528 0
    outer loop
      vertex 35 0 1
      vertex 34.2352 -7.27691 1
      vertex 35 0 0
    endloop
  endfacet
  facet normal 0.994522 0.104528 0
    outer loop
      vertex 35 0 0
      vertex 34.2352 7.27691 0
      vertex 34.2352 7.27691 1
    endloop
  endfacet
  facet normal 0.994522 0.104528 0
    outer loop
      vertex 35 0 1
      vertex 35 0 0
      vertex 34.2352 7.27691 1
    endloop
  endfacet
  facet normal 0.951057 0.309017 0
    outer loop
      vertex 34.2352 7.27691 0
      vertex 31.9741 14.2358 0
      vertex 31.9741 14.2358 1
    endloop
  endfacet
  facet normal 0.951057 0.309017 0
    outer loop
      vertex 34.2352 7.27691 1
      vertex 34.2352 7.27691 0
      vertex 31.9741 14.2358 1
    endloop
  endfacet
  facet normal 0.866025 0.5 0
    outer loop
      vertex 31.9741 14.2358 0
      vertex 28.3156 20.5725 0
      vertex 28.3156 20.5725 1
    endloop
  endfacet
  facet normal 0.866025 0.5 0
    outer loop
      vertex 31.9741 14.2358 1
      vertex 31.9741 14.2358 0
      vertex 28.3156 20.5725 1
    endloop
  endfacet
  facet normal 0.743145 0.669131 0
    outer loop
      vertex 28.3156 20.5725 0
      vertex 23.4196 26.0101 0
      vertex 23.4196 26.0101 1
    endloop
  endfacet
  facet normal 0.743145 0.669131 0
    outer loop
      vertex 28.3156 20.5725 1
      vertex 28.3156 20.5725 0
      vertex 23.4196 26.0101 1
    endloop
  endfacet
  facet normal 0.587785 0.809017 0
    outer loop
      vertex 17.5 30.3109 0
      vertex 17.5 30.3109 1
      vertex 23.4196 26.0101 0
    endloop
  endfacet
  facet normal 0.587785 0.809017 0
    outer loop
      vertex 23.4196 26.0101 0
      vertex 17.5 30.3109 1
      vertex 23.4196 26.0101 1
    endloop
  endfacet
  facet normal 0.406737 0.913545 0
    outer loop
      vertex 10.8156 33.287 0
      vertex 10.8156 33.287 1
      vertex 17.5 30.3109 0
    endloop
  endfacet
  facet normal 0.406737 0.913545 0
    outer loop
      vertex 17.5 30.3109 0
      vertex 10.8156 33.287 1
      vertex 17.5 30.3109 1
    endloop
  endfacet
  facet normal 0.207912 0.978148 0
    outer loop
      vertex 3.6585 34.8083 0
      vertex 3.6585 34.8083 1
      vertex 10.8156 33.287 0
    endloop
  endfacet
  facet normal 0.207912 0.978148 0
    outer loop
      vertex 10.8156 33.287 0
      vertex 3.6585 34.8083 1
      vertex 10.8156 33.287 1
    endloop
  endfacet
  facet normal 0 1 0
    outer loop
      vertex -3.6585 34.8083 0
      vertex -3.6585 34.8083 1
      vertex 3.6585 34.8083 0
    endloop
  endfacet
  facet normal 0 1 0
    outer loop
      vertex 3.6585 34.8083 0
      vertex -3.6585 34.8083 1
      vertex 3.6585 34.8083 1
    endloop
  endfacet
  facet normal -0.207912 0.978148 0
    outer loop
      vertex -10.8156 33.287 0
      vertex -10.8156 33.287 1
      vertex -3.6585 34.8083 0
    endloop
  endfacet
  facet normal -0.207912 0.978148 0
    outer loop
      vertex -3.6585 34.8083 0
      vertex -10.8156 33.287 1
      vertex -3.6585 34.8083 1
    endloop
  endfacet
  facet normal -0.406737 0.913545 0
    outer loop
      vertex -17.5 30.3109 0
      vertex -17.5 30.3109 1
      vertex -10.8156 33.287 0
    endloop
  endfacet
  facet normal -0.406737 0.913545 0
    outer loop
      vertex -10.8156 33.287 0
      vertex -17.5 30.3109 1
      vertex -10.8156 33.287 1
    endloop
  endfacet
  facet normal -0.587785 0.809017 0
    outer loop
      vertex -23.4196 26.0101 0
      vertex -23.4196 26.0101 1
      vertex -17.5 30.3109 0
    endloop
  endfacet
  facet normal -0.587785 0.809017 0
    outer loop
      vertex -17.5 30.3109 0
      vertex -23.4196 26.0101 1
      vertex -17.5 30.3109 1
    endloop
  endfacet
  facet normal -0.743145 0.669131 0
    outer loop
      vertex -28.3156 20.5725 0
      vertex -28.3156 20.5725 1
      vertex -23.4196 26.0101 0
    endloop
  endfacet
  facet normal -0.743145 0.669131 0
    outer loop
      vertex -23.4196 26.0101 0
      vertex -28.3156 20.5725 1
      vertex -23.4196 26.0101 1
    endloop
  endfacet
  facet normal -0.866025 0.5 0
    outer loop
      vertex -31.9741 14.2358 0
      vertex -31.9741 14.2358 1
      vertex -28.3156 20.5725 0
    endloop
  endfacet
  facet normal -0.866025 0.5 0
    outer loop
      vertex -28.3156 20.5725 0
      vertex -31.9741 14.2358 1
      vertex -28.3156 20.5725 1
    endloop
  endfacet
  facet normal -0.951057 0.309017 0
    outer loop
      vertex -34.2352 7.27691 0
      vertex -34.2352 7.27691 1
      vertex -31.9741 14.2358 0
    endloop
  endfacet
  facet normal -0.951057 0.309017 0
    outer loop
      vertex -31.9741 14.2358 0
      vertex -34.2352 7.27691 1
      vertex -31.9741 14.2358 1
    endloop
  endfacet
  facet normal 0 0 1
    outer loop
      vertex -34.2352 7.27691 1
      vertex -35 0 1
      vertex -34.2352 -7.27691 1
    endloop
  endfacet
  facet normal 0 0 1
    outer loop
      vertex -28.3156 -20.5725 1
      vertex -34.2352 7.27691 1
      vertex -31.9741 -14.2358 1
    endloop
  endfacet
  facet normal 0 0 1
    outer loop
      vertex -31.9741 -14.2358 1
      vertex -34.2352 7.27691 1
      vertex -34.2352 -7.27691 1
    endloop
  endfacet
  facet normal 0 0 1
    outer loop
      vertex -23.4196 -26.0101 1
      vertex -34.2352 7.27691 1
      vertex -28.3156 -20.5725 1
    endloop
  endfacet
  facet normal 0 0 1
    outer loop
      vertex -17.5 -30.3109 1
      vertex -34.2352 7.27691 1
      vertex -23.4196 -26.0101 1
    endloop
  endfacet
  facet normal 0 0 1
    outer loop
      vertex -10.8156 -33.287 1
      vertex -34.2352 7.27691 1
      vertex -17.5 -30.3109 1
    endloop
  endfacet
  facet normal 0 0 1
    outer loop
      vertex -5 -34.5231 1
      vertex -34.2352 7.27691 1
      vertex -10.8156 -33.287 1
    endloop
  endfacet
  facet normal 0 0 1
    outer loop
      vertex 5 -46 1
      vertex -34.2352 7.27691 1
      vertex -5 -34.5231 1
    endloop
  endfacet
  facet normal 0 0 1
    outer loop
      vertex 5 -46 1
      vertex -5 -34.5231 1
      vertex -5 -46 1
    endloop
  endfacet
  facet normal 0 0 1
    outer loop
      vertex 5 -34.5231 1
      vertex -34.2352 7.27691 1
      vertex 5 -46 1
    endloop
  endfacet
  facet normal 0 0 1
    outer loop
      vertex 10.8156 -33.287 1
      vertex -34.2352 7.27691 1
      vertex 5 -34.5231 1
    endloop
  endfacet
  facet normal 0 0 1
    outer loop
      vertex 17.5 -30.3109 1
      vertex -34.2352 7.27691 1
      vertex 10.8156 -33.287 1
    endloop
  endfacet
  facet normal 0 0 1
    outer loop
      vertex 23.4196 -26.0101 1
      vertex -34.2352 7.27691 1
      vertex 17.5 -30.3109 1
    endloop
  endfacet
  facet normal 0 0 1
    outer loop
      vertex 28.3156 -20.5725 1
      vertex -34.2352 7.27691 1
      vertex 23.4196 -26.0101 1
    endloop
  endfacet
  facet normal 0 0 1
    outer loop
      vertex 31.9741 -14.2358 1
      vertex -34.2352 7.27691 1
      vertex 28.3156 -20.5725 1
    endloop
  endfacet
  facet normal 0 0 1
    outer loop
      vertex 0 -2.25 1
      vertex -34.2352 7.27691 1
      vertex 31.9741 -14.2358 1
    endloop
  endfacet
  facet normal 0 0 1
    outer loop
      vertex 1.59099 1.59099 1
      vertex 34.2352 -7.27691 1
      vertex 35 0 1
    endloop
  endfacet
  facet normal 0 0 1
    outer loop
      vertex 34.2352 7.27691 1
      vertex -34.2352 7.27691 1
      vertex 35 0 1
    endloop
  endfacet
  facet normal 0 0 1
    outer loop
      vertex 31.9741 14.2358 1
      vertex -34.2352 7.27691 1
      vertex 34.2352 7.27691 1
    endloop
  endfacet
  facet normal 0 0 1
    outer loop
      vertex 28.3156 20.5725 1
      vertex -34.2352 7.27691 1
      vertex 31.9741 14.2358 1
    endloop
  endfacet
  facet normal 0 0 1
    outer loop
      vertex 23.4196 26.0101 1
      vertex -34.2352 7.27691 1
      vertex 28.3156 20.5725 1
    endloop
  endfacet
  facet normal 0 0 1
    outer loop
      vertex 3 22.5 1
      vertex -34.2352 7.27691 1
      vertex 23.4196 26.0101 1
    endloop
  endfacet
  facet normal 0 0 1
    outer loop
      vertex -2 24.5 1
      vertex 17.5 30.3109 1
      vertex 10.8156 33.287 1
    endloop
  endfacet
  facet normal 0 0 1
    outer loop
      vertex 3.6585 34.8083 1
      vertex -34.2352 7.27691 1
      vertex 10.8156 33.287 1
    endloop
  endfacet
  facet normal 0 0 1
    outer loop
      vertex -3.6585 34.8083 1
      vertex -34.2352 7.27691 1
      vertex 3.6585 34.8083 1
    endloop
  endfacet
  facet normal 0 0 1
    outer loop
      vertex -10.8156 33.287 1
      vertex -34.2352 7.27691 1
      vertex -3.6585 34.8083 1
    endloop
  endfacet
  facet normal 0 0 1
    outer loop
      vertex -17.5 30.3109 1
      vertex -34.2352 7.27691 1
      vertex -10.8156 33.287 1
    endloop
  endfacet
  facet normal 0 0 1
    outer loop
      vertex -23.4196 26.0101 1
      vertex -34.2352 7.27691 1
      vertex -17.5 30.3109 1
    endloop
  endfacet
  facet normal 0 0 1
    outer loop
      vertex -28.3156 20.5725 1
      vertex -34.2352 7.27691 1
      vertex -23.4196 26.0101 1
    endloop
  endfacet
  facet normal 0 0 1
    outer loop
      vertex -31.9741 14.2358 1
      vertex -34.2352 7.27691 1
      vertex -28.3156 20.5725 1
    endloop
  endfacet
  facet normal 0 0 1
    outer loop
      vertex -2.25 0 1
      vertex -34.2352 7.27691 1
      vertex -1.59099 -1.59099 1
    endloop
  endfacet
  facet normal 0 0 1
    outer loop
      vertex 1.59099 1.59099 1
      vertex 2.25 0 1
      vertex 34.2352 -7.27691 1
    endloop
  endfacet
  facet normal 0 0 1
    outer loop
      vertex 2.25 0 1
      vertex 1.59099 -1.59099 1
      vertex 34.2352 -7.27691 1
    endloop
  endfacet
  facet normal 0 0 1
    outer loop
      vertex 0 2.25 1
      vertex -34.2352 7.27691 1
      vertex -1.59099 1.59099 1
    endloop
  endfacet
  facet normal 0 0 1
    outer loop
      vertex 35 0 1
      vertex -34.2352 7.27691 1
      vertex 0 2.25 1
    endloop
  endfacet
  facet normal 0 0 1
    outer loop
      vertex 1.59099 -1.59099 1
      vertex 0 -2.25 1
      vertex 31.9741 -14.2358 1
    endloop
  endfacet
  facet normal 0 0 1
    outer loop
      vertex 35 0 1
      vertex 0 2.25 1
      vertex 1.59099 1.59099 1
    endloop
  endfacet
  facet normal 0 0 1
    outer loop
      vertex 3 22.5 1
      vertex -2 22.5 1
      vertex -34.2352 7.27691 1
    endloop
  endfacet
  facet normal 0 0 1
    outer loop
      vertex 3 24.5 1
      vertex 3 22.5 1
      vertex 17.5 30.3109 1
    endloop
  endfacet
  facet normal 0 0 1
    outer loop
      vertex -1.59099 -1.59099 1
      vertex -34.2352 7.27691 1
      vertex 0 -2.25 1
    endloop
  endfacet
  facet normal 0 0 1
    outer loop
      vertex -2 24.5 1
      vertex -34.2352 7.27691 1
      vertex -2 22.5 1
    endloop
  endfacet
  facet normal 0 0 1
    outer loop
      vertex 10.8156 33.287 1
      vertex -34.2352 7.27691 1
      vertex -2 24.5 1
    endloop
  endfacet
  facet normal 0 0 1
    outer loop
      vertex 17.5 30.3109 1
      vertex 3 22.5 1
      vertex 23.4196 26.0101 1
    endloop
  endfacet
  facet normal 0 0 1
    outer loop
      vertex -2 24.5 1
      vertex 3 24.5 1
      vertex 17.5 30.3109 1
    endloop
  endfacet
  facet normal 0 0 1
    outer loop
      vertex 1.59099 -1.59099 1
      vertex 31.9741 -14.2358 1
      vertex 34.2352 -7.27691 1
    endloop
  endfacet
  facet normal 0 0 1
    outer loop
      vertex -2.25 0 1
      vertex -1.59099 1.59099 1
      vertex -34.2352 7.27691 1
    endloop
  endfacet
  facet normal 0 1 0
    outer loop
      vertex -5 -46 1
      vertex -5 -46 7
      vertex 5 -46 1
    endloop
  endfacet
  facet normal 0 1 0
    outer loop
      vertex 5 -46 1
      vertex -5 -46 7
      vertex 5 -46 7
    endloop
  endfacet
  facet normal 0 0 1
    outer loop
      vertex -5 -46 7
      vertex -5 -56 7
      vertex 5 -56 7
    endloop
  endfacet
  facet normal 0 0 1
    outer loop
      vertex 5 -46 7
      vertex -5 -46 7
      vertex 5 -56 7
    endloop
  endfacet
  facet normal -0.923879 -0.382684 0
    outer loop
      vertex -2.25 0 1
      vertex -1.59099 -1.59099 1
      vertex -2.25 0 15
    endloop
  endfacet
  facet normal -0.923879 -0.382684 0
    outer loop
      vertex -2.25 0 15
      vertex -1.59099 -1.59099 1
      vertex -1.59099 -1.59099 15
    endloop
  endfacet
  facet normal -0.382684 -0.923879 0
    outer loop
      vertex -1.59099 -1.59099 15
      vertex -1.59099 -1.59099 1
      vertex 0 -2.25 1
    endloop
  endfacet
  facet normal -0.382684 -0.923879 0
    outer loop
      vertex 0 -2.25 15
      vertex -1.59099 -1.59099 15
      vertex 0 -2.25 1
    endloop
  endfacet
  facet normal 0.382684 -0.923879 0
    outer loop
      vertex 0 -2.25 15
      vertex 0 -2.25 1
      vertex 1.59099 -1.59099 1
    endloop
  endfacet
  facet normal 0.382684 -0.923879 0
    outer loop
      vertex 1.59099 -1.59099 15
      vertex 0 -2.25 15
      vertex 1.59099 -1.59099 1
    endloop
  endfacet
  facet normal 0.923879 -0.382684 0
    outer loop
      vertex 1.59099 -1.59099 15
      vertex 1.59099 -1.59099 1
      vertex 2.25 0 1
    endloop
  endfacet
  facet normal 0.923879 -0.382684 0
    outer loop
      vertex 2.25 0 15
      vertex 1.59099 -1.59099 15
      vertex 2.25 0 1
    endloop
  endfacet
  facet normal 0.923879 0.382684 0
    outer loop
      vertex 2.25 0 1
      vertex 1.59099 1.59099 1
      vertex 1.59099 1.59099 15
    endloop
  endfacet
  facet normal 0.923879 0.382684 0
    outer loop
      vertex 2.25 0 15
      vertex 2.25 0 1
      vertex 1.59099 1.59099 15
    endloop
  endfacet
  facet normal 0.382684 0.923879 0
    outer loop
      vertex 0 2.25 1
      vertex 0 2.25 15
      vertex 1.59099 1.59099 1
    endloop
  endfacet
  facet normal 0.382684 0.923879 0
    outer loop
      vertex 1.59099 1.59099 1
      vertex 0 2.25 15
      vertex 1.59099 1.59099 15
    endloop
  endfacet
  facet normal -0.382684 0.923879 0
    outer loop
      vertex -1.59099 1.59099 1
      vertex -1.59099 1.59099 15
      vertex 0 2.25 1
    endloop
  endfacet
  facet normal -0.382684 0.923879 0
    outer loop
      vertex 0 2.25 1
      vertex -1.59099 1.59099 15
      vertex 0 2.25 15
    endloop
  endfacet
  facet normal -0.923879 0.382684 0
    outer loop
      vertex -2.25 0 1
      vertex -2.25 0 15
      vertex -1.59099 1.59099 1
    endloop
  endfacet
  facet normal -0.923879 0.382684 0
    outer loop
      vertex -1.59099 1.59099 1
      vertex -2.25 0 15
      vertex -1.59099 1.59099 15
    endloop
  endfacet
  facet normal -0.707107 0 0.707107
    outer loop
      vertex -2 22.5 1
      vertex 3 22.5 6
      vertex -2 24.5 1
    endloop
  endfacet
  facet normal -0.707107 0 0.707107
    outer loop
      vertex -2 24.5 1
      vertex 3 22.5 6
      vertex 3 24.5 6
    endloop
  endfacet
  facet normal 0 -1 0
    outer loop
      vertex 3 22.5 6
      vertex -2 22.5 1
      vertex 3 22.5 1
    endloop
  endfacet
  facet normal 1 0 0
    outer loop
      vertex 3 22.5 6
      vertex 3 22.5 1
      vertex 3 24.5 1
    endloop
  endfacet
  facet normal 1 0 0
    outer loop
      vertex 3 24.5 6
      vertex 3 22.5 6
      vertex 3 24.5 1
    endloop
  endfacet
  facet normal 0 1 0
    outer loop
      vertex 3 24.5 1
      vertex -2 24.5 1
      vertex 3 24.5 6
    endloop
  endfacet
  facet normal 0 0 1
    outer loop
      vertex -1.59099 1.59099 15
      vertex -2.25 0 15
      vertex -1.59099 -1.59099 15
    endloop
  endfacet
  facet normal 0 0 1
    outer loop
      vertex 1.59099 -1.59099 15
      vertex -1.59099 1.59099 15
      vertex 0 -2.25 15
    endloop
  endfacet
  facet normal 0 0 1
    outer loop
      vertex 0 -2.25 15
      vertex -1.59099 1.59099 15
      vertex -1.59099 -1.59099 15
    endloop
  endfacet
  facet normal 0 0 1
    outer loop
      vertex 2.25 0 15
      vertex -1.59099 1.59099 15
      vertex 1.59099 -1.59099 15
    endloop
  endfacet
  facet normal 0 0 1
    outer loop
      vertex 1.59099 1.59099 15
      vertex -1.59099 1.59099 15
      vertex 2.25 0 15
    endloop
  endfacet
  facet normal 0 0 1
    outer loop
      vertex 0 2.25 15
      vertex -1.59099 1.59099 15
      vertex 1.59099 1.59099 15
    endloop
  endfacet
endsolid OpenSCAD_Model
