solid clipwireM8
facet normal 0.612485717434619 -0.790481654397241 0.0
outer loop
vertex 10.7455452787791 4.84551344497416 4.5
vertex 9.34742042825286 4.02951482804388 0.0
vertex 10.7455452787791 4.84551344497416 0.0
endloop
endfacet
facet normal 0.387024065741133 -0.922069613715366 0.0
outer loop
vertex 9.34742042825286 4.02951482804388 0.0
vertex 10.7455452787791 4.84551344497416 4.5
vertex 9.34742042825286 4.02951482804388 4.5
endloop
endfacet
facet normal -1.0 0.0 0.0
outer loop
vertex 0.799239497279813 21.3925974276016 4.5
vertex 0.799239497279813 15.8956013592259 0.0
vertex 0.799239497279813 15.8956013592259 4.5
endloop
endfacet
facet normal -1.0 0.0 0.0
outer loop
vertex 0.799239497279813 15.8956013592259 0.0
vertex 0.799239497279813 21.3925974276016 4.5
vertex 0.799239497279813 21.3925974276016 0.0
endloop
endfacet
facet normal 0.0 -1.0 0.0
outer loop
vertex 11.5939433074312 19.8925978410725 4.5
vertex 2.30220764962858 19.8925978410725 0.0
vertex 11.5939433074312 19.8925978410725 0.0
endloop
endfacet
facet normal 0.0 -1.0 0.0
outer loop
vertex 2.30220764962858 19.8925978410725 0.0
vertex 11.5939433074312 19.8925978410725 4.5
vertex 2.30220764962858 19.8925978410725 4.5
endloop
endfacet
facet normal 0.135187363554897 -0.990820052650872 0.0
outer loop
vertex 7.78573954391417 3.60318202848206 4.5
vertex 6.94742042825287 3.59923949727981 0.0
vertex 7.78573954391417 3.60318202848206 0.0
endloop
endfacet
facet normal 0.00470284827138634 -0.999988941547924 0.0
outer loop
vertex 6.94742042825287 3.59923949727981 0.0
vertex 7.78573954391417 3.60318202848206 4.5
vertex 6.94742042825287 3.59923949727981 4.5
endloop
endfacet
facet normal 0.254273580362063 0.967132331343471 0.0
outer loop
vertex 7.72791225927471 15.8992719344751 4.5
vertex 9.29353397749746 15.4876465271929 0.0
vertex 7.72791225927471 15.8992719344751 0.0
endloop
endfacet
facet normal 0.254273580362063 0.967132331343471 0.0
outer loop
vertex 9.29353397749746 15.4876465271929 0.0
vertex 7.72791225927471 15.8992719344751 4.5
vertex 9.29353397749746 15.4876465271929 4.5
endloop
endfacet
facet normal 0.258819045102512 0.965925826289071 0.0
outer loop
vertex 5.80754658842081 6.16052383558452 4.5
vertex 6.76865263376025 6.03399182426925 0.0
vertex 5.80754658842081 6.16052383558452 0.0
endloop
endfacet
facet normal -4.00108834314546e-15 1.0 0.0
outer loop
vertex 6.76865263376025 6.03399182426925 0.0
vertex 5.80754658842081 6.16052383558452 4.5
vertex 6.76865263376025 6.03399182426925 4.5
endloop
endfacet
facet normal -0.125862134049923 -0.992047742405777 0.0
outer loop
vertex 6.16692859723102 3.59556892203058 4.5
vertex 4.60130687900827 4.00719432931285 0.0
vertex 6.16692859723102 3.59556892203058 0.0
endloop
endfacet
facet normal -0.378334335216252 -0.925669017952139 0.0
outer loop
vertex 4.60130687900827 4.00719432931285 0.0
vertex 6.16692859723102 3.59556892203058 4.5
vertex 4.60130687900827 4.00719432931285 4.5
endloop
endfacet
facet normal -0.710424377583685 0.703773545776505 0.0
outer loop
vertex 3.14929557772666 14.6493274115316 4.5
vertex 2.6 14.0948408565057 0.0
vertex 2.6 14.0948408565057 4.5
endloop
endfacet
facet normal -0.710424377583685 0.703773545776505 0.0
outer loop
vertex 2.6 14.0948408565057 0.0
vertex 3.14929557772666 14.6493274115316 4.5
vertex 3.14929557772666 14.6493274115316 0.0
endloop
endfacet
facet normal 0.925669017952138 -0.378334335216253 0.0
outer loop
vertex 12.6876465271929 7.40130687900826 0.0
vertex 11.88483419744 5.99556892203057 4.5
vertex 11.88483419744 5.99556892203057 0.0
endloop
endfacet
facet normal 0.796207479665442 -0.605023676664646 0.0
outer loop
vertex 11.88483419744 5.99556892203057 4.5
vertex 12.6876465271929 7.40130687900826 0.0
vertex 12.6876465271929 7.40130687900826 4.5
endloop
endfacet
facet normal -0.499999999999997 0.86602540378444 0.0
outer loop
vertex 8.62536693575204 6.53149692206326 4.5
vertex 9.39444318108915 7.12162988092395 0.0
vertex 8.62536693575204 6.53149692206326 0.0
endloop
endfacet
facet normal -0.707106781186546 0.707106781186549 0.0
outer loop
vertex 9.39444318108915 7.12162988092395 0.0
vertex 8.62536693575204 6.53149692206326 4.5
vertex 9.39444318108915 7.12162988092395 4.5
endloop
endfacet
facet normal -0.707106781186547 -0.707106781186548 0.0
outer loop
vertex 9.39444318108915 12.3732109755818 4.5
vertex 8.62536693575205 12.9633439344425 0.0
vertex 9.39444318108915 12.3732109755818 0.0
endloop
endfacet
facet normal -0.500000000000005 -0.866025403784436 0.0
outer loop
vertex 8.62536693575205 12.9633439344425 0.0
vertex 9.39444318108915 12.3732109755818 4.5
vertex 8.62536693575205 12.9633439344425 4.5
endloop
endfacet
facet normal 5.15062151968392e-15 -1.0 0.0
outer loop
vertex 6.76865263376024 13.4608490322365 4.5
vertex 5.80754658842083 13.3343170209212 0.0
vertex 6.76865263376024 13.4608490322365 0.0
endloop
endfacet
facet normal 0.258819045102509 -0.965925826289072 0.0
outer loop
vertex 5.80754658842083 13.3343170209212 0.0
vertex 6.76865263376024 13.4608490322365 4.5
vertex 5.80754658842083 13.3343170209212 4.5
endloop
endfacet
facet normal 0.00470284827138601 -0.999988941547924 0.0
outer loop
vertex 6.94742042825287 3.59923949727981 4.5
vertex 6.16692859723102 3.59556892203058 0.0
vertex 6.94742042825287 3.59923949727981 0.0
endloop
endfacet
facet normal -0.125862134049923 -0.992047742405777 0.0
outer loop
vertex 6.16692859723102 3.59556892203058 0.0
vertex 6.94742042825287 3.59923949727981 4.5
vertex 6.16692859723102 3.59556892203058 4.5
endloop
endfacet
facet normal 0.608761429008723 0.793353340291233 0.0
outer loop
vertex 4.1428620864313 7.12162988092395 4.5
vertex 4.9119383317684 6.53149692206326 0.0
vertex 4.1428620864313 7.12162988092395 0.0
endloop
endfacet
facet normal 0.499999999999995 0.866025403784442 0.0
outer loop
vertex 4.9119383317684 6.53149692206326 0.0
vertex 4.1428620864313 7.12162988092395 4.5
vertex 4.9119383317684 6.53149692206326 4.5
endloop
endfacet
facet normal 0.387024065741133 -0.922069613715366 0.0
outer loop
vertex 9.34742042825286 4.02951482804388 4.5
vertex 7.78573954391417 3.60318202848206 0.0
vertex 9.34742042825286 4.02951482804388 0.0
endloop
endfacet
facet normal 0.135187363554897 -0.990820052650872 0.0
outer loop
vertex 7.78573954391417 3.60318202848206 0.0
vertex 9.34742042825286 4.02951482804388 4.5
vertex 7.78573954391417 3.60318202848206 4.5
endloop
endfacet
facet normal -0.504067256847126 0.863664402748321 0.0
outer loop
vertex 3.14929557772666 14.6493274115316 4.5
vertex 4.54742042825287 15.4653260284618 0.0
vertex 3.14929557772666 14.6493274115316 0.0
endloop
endfacet
facet normal -0.504067256847126 0.863664402748321 0.0
outer loop
vertex 4.54742042825287 15.4653260284618 0.0
vertex 3.14929557772666 14.6493274115316 4.5
vertex 4.54742042825287 15.4653260284618 4.5
endloop
endfacet
facet normal 0.499999999999992 -0.866025403784443 0.0
outer loop
vertex 4.9119383317684 12.9633439344425 4.5
vertex 4.14286208643131 12.3732109755818 0.0
vertex 4.9119383317684 12.9633439344425 0.0
endloop
endfacet
facet normal 0.608761429008736 -0.793353340291224 0.0
outer loop
vertex 4.14286208643131 12.3732109755818 0.0
vertex 4.9119383317684 12.9633439344425 4.5
vertex 4.14286208643131 12.3732109755818 4.5
endloop
endfacet
facet normal -0.744713074848603 0.667384773687218 0.0
outer loop
vertex 4.1428620864313 7.12162988092395 4.5
vertex 2.6 5.4 0.0
vertex 2.6 5.4 4.5
endloop
endfacet
facet normal -0.744713074848603 0.667384773687218 0.0
outer loop
vertex 2.6 5.4 0.0
vertex 4.1428620864313 7.12162988092395 4.5
vertex 4.1428620864313 7.12162988092395 0.0
endloop
endfacet
facet normal -0.96592582628907 0.258819045102514 0.0
outer loop
vertex 10.3555492264286 8.78631438291344 4.5
vertex 9.98457613994983 7.89070612626105 0.0
vertex 9.98457613994983 7.89070612626105 4.5
endloop
endfacet
facet normal -0.866025403784442 0.499999999999995 0.0
outer loop
vertex 9.98457613994983 7.89070612626105 0.0
vertex 10.3555492264286 8.78631438291344 4.5
vertex 10.3555492264286 8.78631438291344 0.0
endloop
endfacet
facet normal 0.796207479665442 -0.605023676664646 0.0
outer loop
vertex 11.88483419744 5.99556892203057 0.0
vertex 10.7455452787791 4.84551344497416 4.5
vertex 10.7455452787791 4.84551344497416 0.0
endloop
endfacet
facet normal 0.612485717434619 -0.790481654397241 0.0
outer loop
vertex 10.7455452787791 4.84551344497416 4.5
vertex 11.88483419744 5.99556892203057 0.0
vertex 11.88483419744 5.99556892203057 4.5
endloop
endfacet
facet normal -4.00108834314546e-15 1.0 0.0
outer loop
vertex 6.76865263376025 6.03399182426925 4.5
vertex 7.72975867909965 6.16052383558453 0.0
vertex 6.76865263376025 6.03399182426925 0.0
endloop
endfacet
facet normal -0.25881904510252 0.965925826289069 0.0
outer loop
vertex 7.72975867909965 6.16052383558453 0.0
vertex 6.76865263376025 6.03399182426925 4.5
vertex 7.72975867909965 6.16052383558453 4.5
endloop
endfacet
facet normal -0.263358785566965 0.964697957945746 0.0
outer loop
vertex 4.54742042825287 15.4653260284618 4.5
vertex 6.10910131259155 15.8916588280237 0.0
vertex 4.54742042825287 15.4653260284618 0.0
endloop
endfacet
facet normal -0.263358785566965 0.964697957945746 0.0
outer loop
vertex 6.10910131259155 15.8916588280237 0.0
vertex 4.54742042825287 15.4653260284618 4.5
vertex 6.10910131259155 15.8916588280237 4.5
endloop
endfacet
facet normal -1.0 0.0 0.0
outer loop
vertex 11.5939433074312 19.8925978410725 4.5
vertex 11.5939433074312 13.7985385348508 0.0
vertex 11.5939433074312 13.7985385348508 4.5
endloop
endfacet
facet normal -1.0 0.0 0.0
outer loop
vertex 11.5939433074312 13.7985385348508 0.0
vertex 11.5939433074312 19.8925978410725 4.5
vertex 11.5939433074312 19.8925978410725 0.0
endloop
endfacet
facet normal 0.703773545776507 0.710424377583682 0.0
outer loop
vertex 10.6992719344751 14.68483419744 4.5
vertex 11.5939433074312 13.7985385348508 0.0
vertex 10.6992719344751 14.68483419744 0.0
endloop
endfacet
facet normal 0.703773545776507 0.710424377583682 0.0
outer loop
vertex 11.5939433074312 13.7985385348508 0.0
vertex 10.6992719344751 14.68483419744 4.5
vertex 11.5939433074312 13.7985385348508 4.5
endloop
endfacet
facet normal 0.992047742405777 -0.125862134049922 0.0
outer loop
vertex 13.0992719344751 8.96692859723102 0.0
vertex 12.6876465271929 7.40130687900826 4.5
vertex 12.6876465271929 7.40130687900826 0.0
endloop
endfacet
facet normal 0.925669017952138 -0.378334335216253 0.0
outer loop
vertex 12.6876465271929 7.40130687900826 4.5
vertex 13.0992719344751 8.96692859723102 0.0
vertex 13.0992719344751 8.96692859723102 4.5
endloop
endfacet
facet normal 0.99999972435275 -0.000742492037011355 0.0
outer loop
vertex 2.30220764962858 19.8925978410725 0.0
vertex 2.29923908380894 15.8944876211704 4.5
vertex 2.29923908380894 15.8944876211704 0.0
endloop
endfacet
facet normal 0.99999972435275 -0.000742492037011355 0.0
outer loop
vertex 2.29923908380894 15.8944876211704 4.5
vertex 2.30220764962858 19.8925978410725 0.0
vertex 2.30220764962858 19.8925978410725 4.5
endloop
endfacet
facet normal 0.0 1.0 0.0
outer loop
vertex 0.799239497279813 21.3925974276016 4.5
vertex 13.094311500226 21.3925974276016 0.0
vertex 0.799239497279813 21.3925974276016 0.0
endloop
endfacet
facet normal 0.0 1.0 0.0
outer loop
vertex 13.094311500226 21.3925974276016 0.0
vertex 0.799239497279813 21.3925974276016 4.5
vertex 13.094311500226 21.3925974276016 4.5
endloop
endfacet
facet normal -0.605023676664645 -0.796207479665442 0.0
outer loop
vertex 3.19556892203057 4.81000665906573 4.5
vertex 2.6 5.4 0.0
vertex 3.19556892203057 4.81000665906573 0.0
endloop
endfacet
facet normal -0.703773545776507 -0.710424377583683 0.0
outer loop
vertex 2.6 5.4 0.0
vertex 3.19556892203057 4.81000665906573 4.5
vertex 2.6 5.4 4.5
endloop
endfacet
facet normal -0.744713074848598 -0.667384773687223 0.0
outer loop
vertex 2.6 14.0948408565057 4.5
vertex 4.14286208643131 12.3732109755818 0.0
vertex 4.14286208643131 12.3732109755818 4.5
endloop
endfacet
facet normal -0.744713074848598 -0.667384773687223 0.0
outer loop
vertex 4.14286208643131 12.3732109755818 0.0
vertex 2.6 14.0948408565057 4.5
vertex 2.6 14.0948408565057 0.0
endloop
endfacet
facet normal 0.495921684700796 0.868367251019708 0.0
outer loop
vertex 9.29353397749746 15.4876465271929 4.5
vertex 10.6992719344751 14.68483419744 0.0
vertex 9.29353397749746 15.4876465271929 0.0
endloop
endfacet
facet normal 0.495921684700796 0.868367251019708 0.0
outer loop
vertex 10.6992719344751 14.68483419744 0.0
vertex 9.29353397749746 15.4876465271929 4.5
vertex 10.6992719344751 14.68483419744 4.5
endloop
endfacet
facet normal -0.258819045102524 -0.965925826289068 0.0
outer loop
vertex 7.72975867909967 13.3343170209212 4.5
vertex 6.76865263376024 13.4608490322365 0.0
vertex 7.72975867909967 13.3343170209212 0.0
endloop
endfacet
facet normal 5.15062151968392e-15 -1.0 0.0
outer loop
vertex 6.76865263376024 13.4608490322365 0.0
vertex 7.72975867909967 13.3343170209212 4.5
vertex 6.76865263376024 13.4608490322365 4.5
endloop
endfacet
facet normal 0.499999999999995 0.866025403784442 0.0
outer loop
vertex 4.9119383317684 6.53149692206326 4.5
vertex 5.80754658842081 6.16052383558452 0.0
vertex 4.9119383317684 6.53149692206326 0.0
endloop
endfacet
facet normal 0.258819045102512 0.965925826289071 0.0
outer loop
vertex 5.80754658842081 6.16052383558452 0.0
vertex 4.9119383317684 6.53149692206326 4.5
vertex 5.80754658842081 6.16052383558452 4.5
endloop
endfacet
facet normal -0.378334335216252 -0.925669017952139 0.0
outer loop
vertex 4.60130687900827 4.00719432931285 4.5
vertex 3.19556892203057 4.81000665906573 0.0
vertex 4.60130687900827 4.00719432931285 0.0
endloop
endfacet
facet normal -0.605023676664645 -0.796207479665442 0.0
outer loop
vertex 3.19556892203057 4.81000665906573 0.0
vertex 4.60130687900827 4.00719432931285 4.5
vertex 3.19556892203057 4.81000665906573 4.5
endloop
endfacet
facet normal -0.866025403784442 0.499999999999995 0.0
outer loop
vertex 9.98457613994983 7.89070612626105 4.5
vertex 9.39444318108915 7.12162988092395 0.0
vertex 9.39444318108915 7.12162988092395 4.5
endloop
endfacet
facet normal -0.707106781186546 0.707106781186549 0.0
outer loop
vertex 9.39444318108915 7.12162988092395 0.0
vertex 9.98457613994983 7.89070612626105 4.5
vertex 9.98457613994983 7.89070612626105 0.0
endloop
endfacet
facet normal -0.00470284827138878 0.999988941547923 0.0
outer loop
vertex 6.10910131259155 15.8916588280237 4.5
vertex 7.72791225927471 15.8992719344751 0.0
vertex 6.10910131259155 15.8916588280237 0.0
endloop
endfacet
facet normal -0.00470284827138878 0.999988941547923 0.0
outer loop
vertex 7.72791225927471 15.8992719344751 0.0
vertex 6.10910131259155 15.8916588280237 4.5
vertex 7.72791225927471 15.8992719344751 4.5
endloop
endfacet
facet normal 0.999988941547923 0.00470284827138962 0.0
outer loop
vertex 13.0956013592259 9.74742042825286 0.0
vertex 13.0992719344751 8.96692859723102 4.5
vertex 13.0992719344751 8.96692859723102 0.0
endloop
endfacet
facet normal 0.992047742405777 -0.125862134049922 0.0
outer loop
vertex 13.0992719344751 8.96692859723102 4.5
vertex 13.0956013592259 9.74742042825286 0.0
vertex 13.0956013592259 9.74742042825286 4.5
endloop
endfacet
facet normal 4.42724460280815e-32 5.59504692068068e-32 1.0
outer loop
vertex 3.19556892203057 4.81000665906573 4.5
vertex 4.1428620864313 7.12162988092395 4.5
vertex 2.6 5.4 4.5
endloop
endfacet
facet normal 4.42724460280815e-32 5.59504692068068e-32 1.0
outer loop
vertex 4.1428620864313 7.12162988092395 4.5
vertex 3.19556892203057 4.81000665906573 4.5
vertex 4.60130687900827 4.00719432931285 4.5
endloop
endfacet
facet normal 4.42724460280815e-32 5.59504692068068e-32 1.0
outer loop
vertex 4.1428620864313 7.12162988092395 4.5
vertex 4.60130687900827 4.00719432931285 4.5
vertex 4.9119383317684 6.53149692206326 4.5
endloop
endfacet
facet normal 4.42724460280815e-32 5.59504692068068e-32 1.0
outer loop
vertex 4.9119383317684 6.53149692206326 4.5
vertex 4.60130687900827 4.00719432931285 4.5
vertex 6.16692859723102 3.59556892203058 4.5
endloop
endfacet
facet normal 4.42724460280815e-32 5.59504692068068e-32 1.0
outer loop
vertex 4.9119383317684 6.53149692206326 4.5
vertex 6.16692859723102 3.59556892203058 4.5
vertex 5.80754658842081 6.16052383558452 4.5
endloop
endfacet
facet normal 4.42724460280815e-32 5.59504692068068e-32 1.0
outer loop
vertex 5.80754658842081 6.16052383558452 4.5
vertex 6.16692859723102 3.59556892203058 4.5
vertex 6.76865263376025 6.03399182426925 4.5
endloop
endfacet
facet normal 4.42724460280815e-32 5.59504692068068e-32 1.0
outer loop
vertex 6.76865263376025 6.03399182426925 4.5
vertex 6.16692859723102 3.59556892203058 4.5
vertex 6.94742042825287 3.59923949727981 4.5
endloop
endfacet
facet normal 4.42724460280815e-32 5.59504692068068e-32 1.0
outer loop
vertex 6.76865263376025 6.03399182426925 4.5
vertex 6.94742042825287 3.59923949727981 4.5
vertex 7.72975867909965 6.16052383558453 4.5
endloop
endfacet
facet normal 4.42724460280815e-32 5.59504692068068e-32 1.0
outer loop
vertex 7.72975867909965 6.16052383558453 4.5
vertex 6.94742042825287 3.59923949727981 4.5
vertex 7.78573954391417 3.60318202848206 4.5
endloop
endfacet
facet normal 4.42724460280815e-32 5.59504692068068e-32 1.0
outer loop
vertex 7.72975867909965 6.16052383558453 4.5
vertex 7.78573954391417 3.60318202848206 4.5
vertex 8.62536693575204 6.53149692206326 4.5
endloop
endfacet
facet normal 4.42724460280815e-32 5.59504692068068e-32 1.0
outer loop
vertex 8.62536693575204 6.53149692206326 4.5
vertex 7.78573954391417 3.60318202848206 4.5
vertex 9.34742042825286 4.02951482804388 4.5
endloop
endfacet
facet normal 4.42724460280815e-32 5.59504692068068e-32 1.0
outer loop
vertex 8.62536693575204 6.53149692206326 4.5
vertex 9.34742042825286 4.02951482804388 4.5
vertex 9.39444318108915 7.12162988092395 4.5
endloop
endfacet
facet normal 4.42724460280815e-32 5.59504692068068e-32 1.0
outer loop
vertex 9.39444318108915 7.12162988092395 4.5
vertex 9.34742042825286 4.02951482804388 4.5
vertex 10.7455452787791 4.84551344497416 4.5
endloop
endfacet
facet normal 4.42724460280815e-32 5.59504692068068e-32 1.0
outer loop
vertex 9.39444318108915 7.12162988092395 4.5
vertex 10.7455452787791 4.84551344497416 4.5
vertex 9.98457613994983 7.89070612626105 4.5
endloop
endfacet
facet normal 4.42724460280815e-32 5.59504692068068e-32 1.0
outer loop
vertex 9.98457613994983 7.89070612626105 4.5
vertex 10.7455452787791 4.84551344497416 4.5
vertex 10.3555492264286 8.78631438291344 4.5
endloop
endfacet
facet normal 4.42724460280815e-32 5.59504692068068e-32 1.0
outer loop
vertex 10.3555492264286 8.78631438291344 4.5
vertex 10.7455452787791 4.84551344497416 4.5
vertex 10.4820812377438 9.74742042825286 4.5
endloop
endfacet
facet normal 4.42724460280815e-32 5.59504692068068e-32 1.0
outer loop
vertex 10.4820812377438 9.74742042825286 4.5
vertex 10.7455452787791 4.84551344497416 4.5
vertex 10.6992719344751 14.68483419744 4.5
endloop
endfacet
facet normal 4.42724460280815e-32 5.59504692068068e-32 1.0
outer loop
vertex 10.6992719344751 14.68483419744 4.5
vertex 10.7455452787791 4.84551344497416 4.5
vertex 11.5939433074312 13.7985385348508 4.5
endloop
endfacet
facet normal 4.42724460280815e-32 5.59504692068068e-32 1.0
outer loop
vertex 11.5939433074312 13.7985385348508 4.5
vertex 10.7455452787791 4.84551344497416 4.5
vertex 11.88483419744 5.99556892203057 4.5
endloop
endfacet
facet normal 4.42724460280815e-32 5.59504692068068e-32 1.0
outer loop
vertex 11.5939433074312 13.7985385348508 4.5
vertex 11.88483419744 5.99556892203057 4.5
vertex 11.5939433074312 19.8925978410725 4.5
endloop
endfacet
facet normal 4.42724460280815e-32 5.59504692068068e-32 1.0
outer loop
vertex 2.29923908380894 15.8944876211704 4.5
vertex 0.799239497279813 21.3925974276016 4.5
vertex 0.799239497279813 15.8956013592259 4.5
endloop
endfacet
facet normal 4.42724460280815e-32 5.59504692068068e-32 1.0
outer loop
vertex 0.799239497279813 21.3925974276016 4.5
vertex 2.29923908380894 15.8944876211704 4.5
vertex 2.30220764962858 19.8925978410725 4.5
endloop
endfacet
facet normal 4.42724460280815e-32 5.59504692068068e-32 1.0
outer loop
vertex 0.799239497279813 21.3925974276016 4.5
vertex 2.30220764962858 19.8925978410725 4.5
vertex 13.094311500226 21.3925974276016 4.5
endloop
endfacet
facet normal 4.42724460280815e-32 5.59504692068068e-32 1.0
outer loop
vertex 13.094311500226 21.3925974276016 4.5
vertex 2.30220764962858 19.8925978410725 4.5
vertex 11.5939433074312 19.8925978410725 4.5
endloop
endfacet
facet normal 4.42724460280815e-32 5.59504692068068e-32 1.0
outer loop
vertex 13.094311500226 21.3925974276016 4.5
vertex 11.5939433074312 19.8925978410725 4.5
vertex 11.88483419744 5.99556892203057 4.5
endloop
endfacet
facet normal 4.42724460280815e-32 5.59504692068068e-32 1.0
outer loop
vertex 13.094311500226 21.3925974276016 4.5
vertex 11.88483419744 5.99556892203057 4.5
vertex 12.6876465271929 7.40130687900826 4.5
endloop
endfacet
facet normal 4.42724460280815e-32 5.59504692068068e-32 1.0
outer loop
vertex 13.094311500226 21.3925974276016 4.5
vertex 12.6876465271929 7.40130687900826 4.5
vertex 13.0956013592259 9.74742042825286 4.5
endloop
endfacet
facet normal 4.42724460280815e-32 5.59504692068068e-32 1.0
outer loop
vertex 13.0956013592259 9.74742042825286 4.5
vertex 12.6876465271929 7.40130687900826 4.5
vertex 13.0992719344751 8.96692859723102 4.5
endloop
endfacet
facet normal 4.42724460280815e-32 5.59504692068068e-32 1.0
outer loop
vertex 4.14286208643131 12.3732109755818 4.5
vertex 3.14929557772666 14.6493274115316 4.5
vertex 2.6 14.0948408565057 4.5
endloop
endfacet
facet normal 4.42724460280815e-32 5.59504692068068e-32 1.0
outer loop
vertex 3.14929557772666 14.6493274115316 4.5
vertex 4.14286208643131 12.3732109755818 4.5
vertex 4.54742042825287 15.4653260284618 4.5
endloop
endfacet
facet normal 4.42724460280815e-32 5.59504692068068e-32 1.0
outer loop
vertex 4.54742042825287 15.4653260284618 4.5
vertex 4.14286208643131 12.3732109755818 4.5
vertex 4.9119383317684 12.9633439344425 4.5
endloop
endfacet
facet normal 4.42724460280815e-32 5.59504692068068e-32 1.0
outer loop
vertex 4.54742042825287 15.4653260284618 4.5
vertex 4.9119383317684 12.9633439344425 4.5
vertex 6.10910131259155 15.8916588280237 4.5
endloop
endfacet
facet normal 4.42724460280815e-32 5.59504692068068e-32 1.0
outer loop
vertex 6.10910131259155 15.8916588280237 4.5
vertex 4.9119383317684 12.9633439344425 4.5
vertex 5.80754658842083 13.3343170209212 4.5
endloop
endfacet
facet normal 4.42724460280815e-32 5.59504692068068e-32 1.0
outer loop
vertex 6.10910131259155 15.8916588280237 4.5
vertex 5.80754658842083 13.3343170209212 4.5
vertex 6.76865263376024 13.4608490322365 4.5
endloop
endfacet
facet normal 4.42724460280815e-32 5.59504692068068e-32 1.0
outer loop
vertex 6.10910131259155 15.8916588280237 4.5
vertex 6.76865263376024 13.4608490322365 4.5
vertex 7.72791225927471 15.8992719344751 4.5
endloop
endfacet
facet normal 4.42724460280815e-32 5.59504692068068e-32 1.0
outer loop
vertex 7.72791225927471 15.8992719344751 4.5
vertex 6.76865263376024 13.4608490322365 4.5
vertex 7.72975867909967 13.3343170209212 4.5
endloop
endfacet
facet normal 4.42724460280815e-32 5.59504692068068e-32 1.0
outer loop
vertex 7.72791225927471 15.8992719344751 4.5
vertex 7.72975867909967 13.3343170209212 4.5
vertex 9.29353397749746 15.4876465271929 4.5
endloop
endfacet
facet normal 4.42724460280815e-32 5.59504692068068e-32 1.0
outer loop
vertex 9.29353397749746 15.4876465271929 4.5
vertex 7.72975867909967 13.3343170209212 4.5
vertex 8.62536693575205 12.9633439344425 4.5
endloop
endfacet
facet normal 4.42724460280815e-32 5.59504692068068e-32 1.0
outer loop
vertex 9.29353397749746 15.4876465271929 4.5
vertex 8.62536693575205 12.9633439344425 4.5
vertex 9.39444318108915 12.3732109755818 4.5
endloop
endfacet
facet normal 4.42724460280815e-32 5.59504692068068e-32 1.0
outer loop
vertex 9.29353397749746 15.4876465271929 4.5
vertex 9.39444318108915 12.3732109755818 4.5
vertex 10.6992719344751 14.68483419744 4.5
endloop
endfacet
facet normal 4.42724460280815e-32 5.59504692068068e-32 1.0
outer loop
vertex 10.6992719344751 14.68483419744 4.5
vertex 9.39444318108915 12.3732109755818 4.5
vertex 9.98457613994984 11.6041347302447 4.5
endloop
endfacet
facet normal 4.42724460280815e-32 5.59504692068068e-32 1.0
outer loop
vertex 10.6992719344751 14.68483419744 4.5
vertex 9.98457613994984 11.6041347302447 4.5
vertex 10.3555492264286 10.7085264735923 4.5
endloop
endfacet
facet normal 4.42724460280815e-32 5.59504692068068e-32 1.0
outer loop
vertex 10.6992719344751 14.68483419744 4.5
vertex 10.3555492264286 10.7085264735923 4.5
vertex 10.4820812377438 9.74742042825286 4.5
endloop
endfacet
facet normal 0.999999993865738 0.000110763365131656 0.0
outer loop
vertex 13.094311500226 21.3925974276016 0.0
vertex 13.0956013592259 9.74742042825286 4.5
vertex 13.0956013592259 9.74742042825286 0.0
endloop
endfacet
facet normal 0.999999993865738 0.000110763365131656 0.0
outer loop
vertex 13.0956013592259 9.74742042825286 4.5
vertex 13.094311500226 21.3925974276016 0.0
vertex 13.094311500226 21.3925974276016 4.5
endloop
endfacet
facet normal -0.866025403784443 -0.499999999999993 0.0
outer loop
vertex 9.98457613994984 11.6041347302447 4.5
vertex 10.3555492264286 10.7085264735923 0.0
vertex 10.3555492264286 10.7085264735923 4.5
endloop
endfacet
facet normal -0.965925826289071 -0.258819045102511 0.0
outer loop
vertex 10.3555492264286 10.7085264735923 0.0
vertex 9.98457613994984 11.6041347302447 4.5
vertex 9.98457613994984 11.6041347302447 0.0
endloop
endfacet
facet normal -0.707106781186547 -0.707106781186548 0.0
outer loop
vertex 9.39444318108915 12.3732109755818 4.5
vertex 9.98457613994984 11.6041347302447 0.0
vertex 9.98457613994984 11.6041347302447 4.5
endloop
endfacet
facet normal -0.866025403784443 -0.499999999999993 0.0
outer loop
vertex 9.98457613994984 11.6041347302447 0.0
vertex 9.39444318108915 12.3732109755818 4.5
vertex 9.39444318108915 12.3732109755818 0.0
endloop
endfacet
facet normal -1.0 -2.11193304526832e-15 0.0
outer loop
vertex 10.4820812377438 9.74742042825286 4.5
vertex 10.3555492264286 8.78631438291344 0.0
vertex 10.3555492264286 8.78631438291344 4.5
endloop
endfacet
facet normal -0.96592582628907 0.258819045102514 0.0
outer loop
vertex 10.3555492264286 8.78631438291344 0.0
vertex 10.4820812377438 9.74742042825286 4.5
vertex 10.4820812377438 9.74742042825286 0.0
endloop
endfacet
facet normal -0.000742492037011289 -0.99999972435275 0.0
outer loop
vertex 2.29923908380894 15.8944876211704 4.5
vertex 0.799239497279813 15.8956013592259 0.0
vertex 2.29923908380894 15.8944876211704 0.0
endloop
endfacet
facet normal -0.000742492037011289 -0.99999972435275 0.0
outer loop
vertex 0.799239497279813 15.8956013592259 0.0
vertex 2.29923908380894 15.8944876211704 4.5
vertex 0.799239497279813 15.8956013592259 4.5
endloop
endfacet
facet normal -0.25881904510252 0.965925826289069 0.0
outer loop
vertex 7.72975867909965 6.16052383558453 4.5
vertex 8.62536693575204 6.53149692206326 0.0
vertex 7.72975867909965 6.16052383558453 0.0
endloop
endfacet
facet normal -0.499999999999997 0.86602540378444 0.0
outer loop
vertex 8.62536693575204 6.53149692206326 0.0
vertex 7.72975867909965 6.16052383558453 4.5
vertex 8.62536693575204 6.53149692206326 4.5
endloop
endfacet
facet normal -0.500000000000005 -0.866025403784436 0.0
outer loop
vertex 8.62536693575205 12.9633439344425 4.5
vertex 7.72975867909967 13.3343170209212 0.0
vertex 8.62536693575205 12.9633439344425 0.0
endloop
endfacet
facet normal -0.258819045102524 -0.965925826289068 0.0
outer loop
vertex 7.72975867909967 13.3343170209212 0.0
vertex 8.62536693575205 12.9633439344425 4.5
vertex 7.72975867909967 13.3343170209212 4.5
endloop
endfacet
facet normal 0.0 0.0 -1.0
outer loop
vertex 3.14929557772666 14.6493274115316 0.0
vertex 4.14286208643131 12.3732109755818 0.0
vertex 2.6 14.0948408565057 0.0
endloop
endfacet
facet normal 0.0 0.0 -1.0
outer loop
vertex 4.14286208643131 12.3732109755818 0.0
vertex 3.14929557772666 14.6493274115316 0.0
vertex 4.54742042825287 15.4653260284618 0.0
endloop
endfacet
facet normal 0.0 0.0 -1.0
outer loop
vertex 4.14286208643131 12.3732109755818 0.0
vertex 4.54742042825287 15.4653260284618 0.0
vertex 4.9119383317684 12.9633439344425 0.0
endloop
endfacet
facet normal 0.0 0.0 -1.0
outer loop
vertex 4.9119383317684 12.9633439344425 0.0
vertex 4.54742042825287 15.4653260284618 0.0
vertex 6.10910131259155 15.8916588280237 0.0
endloop
endfacet
facet normal 0.0 0.0 -1.0
outer loop
vertex 4.9119383317684 12.9633439344425 0.0
vertex 6.10910131259155 15.8916588280237 0.0
vertex 5.80754658842083 13.3343170209212 0.0
endloop
endfacet
facet normal 0.0 0.0 -1.0
outer loop
vertex 5.80754658842083 13.3343170209212 0.0
vertex 6.10910131259155 15.8916588280237 0.0
vertex 6.76865263376024 13.4608490322365 0.0
endloop
endfacet
facet normal 0.0 0.0 -1.0
outer loop
vertex 6.76865263376024 13.4608490322365 0.0
vertex 6.10910131259155 15.8916588280237 0.0
vertex 7.72791225927471 15.8992719344751 0.0
endloop
endfacet
facet normal 0.0 0.0 -1.0
outer loop
vertex 6.76865263376024 13.4608490322365 0.0
vertex 7.72791225927471 15.8992719344751 0.0
vertex 7.72975867909967 13.3343170209212 0.0
endloop
endfacet
facet normal 0.0 0.0 -1.0
outer loop
vertex 7.72975867909967 13.3343170209212 0.0
vertex 7.72791225927471 15.8992719344751 0.0
vertex 9.29353397749746 15.4876465271929 0.0
endloop
endfacet
facet normal 0.0 0.0 -1.0
outer loop
vertex 7.72975867909967 13.3343170209212 0.0
vertex 9.29353397749746 15.4876465271929 0.0
vertex 8.62536693575205 12.9633439344425 0.0
endloop
endfacet
facet normal 0.0 0.0 -1.0
outer loop
vertex 8.62536693575205 12.9633439344425 0.0
vertex 9.29353397749746 15.4876465271929 0.0
vertex 9.39444318108915 12.3732109755818 0.0
endloop
endfacet
facet normal 0.0 0.0 -1.0
outer loop
vertex 9.39444318108915 12.3732109755818 0.0
vertex 9.29353397749746 15.4876465271929 0.0
vertex 10.6992719344751 14.68483419744 0.0
endloop
endfacet
facet normal 0.0 0.0 -1.0
outer loop
vertex 9.39444318108915 12.3732109755818 0.0
vertex 10.6992719344751 14.68483419744 0.0
vertex 9.98457613994984 11.6041347302447 0.0
endloop
endfacet
facet normal 0.0 0.0 -1.0
outer loop
vertex 9.98457613994984 11.6041347302447 0.0
vertex 10.6992719344751 14.68483419744 0.0
vertex 10.3555492264286 10.7085264735923 0.0
endloop
endfacet
facet normal 0.0 0.0 -1.0
outer loop
vertex 10.3555492264286 10.7085264735923 0.0
vertex 10.6992719344751 14.68483419744 0.0
vertex 10.4820812377438 9.74742042825286 0.0
endloop
endfacet
facet normal 0.0 0.0 -1.0
outer loop
vertex 0.799239497279813 21.3925974276016 0.0
vertex 2.30220764962858 19.8925978410725 0.0
vertex 0.799239497279813 15.8956013592259 0.0
endloop
endfacet
facet normal 0.0 0.0 -1.0
outer loop
vertex 2.30220764962858 19.8925978410725 0.0
vertex 0.799239497279813 21.3925974276016 0.0
vertex 13.094311500226 21.3925974276016 0.0
endloop
endfacet
facet normal 0.0 0.0 -1.0
outer loop
vertex 0.799239497279813 15.8956013592259 0.0
vertex 2.30220764962858 19.8925978410725 0.0
vertex 2.29923908380894 15.8944876211704 0.0
endloop
endfacet
facet normal 0.0 0.0 -1.0
outer loop
vertex 2.30220764962858 19.8925978410725 0.0
vertex 13.094311500226 21.3925974276016 0.0
vertex 11.5939433074312 19.8925978410725 0.0
endloop
endfacet
facet normal 0.0 0.0 -1.0
outer loop
vertex 11.5939433074312 19.8925978410725 0.0
vertex 13.094311500226 21.3925974276016 0.0
vertex 11.5939433074312 13.7985385348508 0.0
endloop
endfacet
facet normal 0.0 0.0 -1.0
outer loop
vertex 11.5939433074312 13.7985385348508 0.0
vertex 13.094311500226 21.3925974276016 0.0
vertex 11.88483419744 5.99556892203057 0.0
endloop
endfacet
facet normal 0.0 0.0 -1.0
outer loop
vertex 11.88483419744 5.99556892203057 0.0
vertex 13.094311500226 21.3925974276016 0.0
vertex 12.6876465271929 7.40130687900826 0.0
endloop
endfacet
facet normal 0.0 0.0 -1.0
outer loop
vertex 12.6876465271929 7.40130687900826 0.0
vertex 13.094311500226 21.3925974276016 0.0
vertex 13.0956013592259 9.74742042825286 0.0
endloop
endfacet
facet normal 0.0 0.0 -1.0
outer loop
vertex 12.6876465271929 7.40130687900826 0.0
vertex 13.0956013592259 9.74742042825286 0.0
vertex 13.0992719344751 8.96692859723102 0.0
endloop
endfacet
facet normal 0.0 0.0 -1.0
outer loop
vertex 4.1428620864313 7.12162988092395 0.0
vertex 3.19556892203057 4.81000665906573 0.0
vertex 2.6 5.4 0.0
endloop
endfacet
facet normal 0.0 0.0 -1.0
outer loop
vertex 3.19556892203057 4.81000665906573 0.0
vertex 4.1428620864313 7.12162988092395 0.0
vertex 4.60130687900827 4.00719432931285 0.0
endloop
endfacet
facet normal 0.0 0.0 -1.0
outer loop
vertex 4.60130687900827 4.00719432931285 0.0
vertex 4.1428620864313 7.12162988092395 0.0
vertex 4.9119383317684 6.53149692206326 0.0
endloop
endfacet
facet normal 0.0 0.0 -1.0
outer loop
vertex 4.60130687900827 4.00719432931285 0.0
vertex 4.9119383317684 6.53149692206326 0.0
vertex 6.16692859723102 3.59556892203058 0.0
endloop
endfacet
facet normal 0.0 0.0 -1.0
outer loop
vertex 6.16692859723102 3.59556892203058 0.0
vertex 4.9119383317684 6.53149692206326 0.0
vertex 5.80754658842081 6.16052383558452 0.0
endloop
endfacet
facet normal 0.0 0.0 -1.0
outer loop
vertex 6.16692859723102 3.59556892203058 0.0
vertex 5.80754658842081 6.16052383558452 0.0
vertex 6.76865263376025 6.03399182426925 0.0
endloop
endfacet
facet normal 0.0 0.0 -1.0
outer loop
vertex 6.16692859723102 3.59556892203058 0.0
vertex 6.76865263376025 6.03399182426925 0.0
vertex 6.94742042825287 3.59923949727981 0.0
endloop
endfacet
facet normal 0.0 0.0 -1.0
outer loop
vertex 6.94742042825287 3.59923949727981 0.0
vertex 6.76865263376025 6.03399182426925 0.0
vertex 7.72975867909965 6.16052383558453 0.0
endloop
endfacet
facet normal 0.0 0.0 -1.0
outer loop
vertex 6.94742042825287 3.59923949727981 0.0
vertex 7.72975867909965 6.16052383558453 0.0
vertex 7.78573954391417 3.60318202848206 0.0
endloop
endfacet
facet normal 0.0 0.0 -1.0
outer loop
vertex 7.78573954391417 3.60318202848206 0.0
vertex 7.72975867909965 6.16052383558453 0.0
vertex 8.62536693575204 6.53149692206326 0.0
endloop
endfacet
facet normal 0.0 0.0 -1.0
outer loop
vertex 7.78573954391417 3.60318202848206 0.0
vertex 8.62536693575204 6.53149692206326 0.0
vertex 9.34742042825286 4.02951482804388 0.0
endloop
endfacet
facet normal 0.0 0.0 -1.0
outer loop
vertex 9.34742042825286 4.02951482804388 0.0
vertex 8.62536693575204 6.53149692206326 0.0
vertex 9.39444318108915 7.12162988092395 0.0
endloop
endfacet
facet normal 0.0 0.0 -1.0
outer loop
vertex 9.34742042825286 4.02951482804388 0.0
vertex 9.39444318108915 7.12162988092395 0.0
vertex 10.7455452787791 4.84551344497416 0.0
endloop
endfacet
facet normal 0.0 0.0 -1.0
outer loop
vertex 10.7455452787791 4.84551344497416 0.0
vertex 9.39444318108915 7.12162988092395 0.0
vertex 9.98457613994983 7.89070612626105 0.0
endloop
endfacet
facet normal 0.0 0.0 -1.0
outer loop
vertex 10.7455452787791 4.84551344497416 0.0
vertex 9.98457613994983 7.89070612626105 0.0
vertex 10.3555492264286 8.78631438291344 0.0
endloop
endfacet
facet normal 0.0 0.0 -1.0
outer loop
vertex 10.7455452787791 4.84551344497416 0.0
vertex 10.3555492264286 8.78631438291344 0.0
vertex 10.4820812377438 9.74742042825286 0.0
endloop
endfacet
facet normal 0.0 0.0 -1.0
outer loop
vertex 10.7455452787791 4.84551344497416 0.0
vertex 10.4820812377438 9.74742042825286 0.0
vertex 10.6992719344751 14.68483419744 0.0
endloop
endfacet
facet normal 0.0 0.0 -1.0
outer loop
vertex 10.7455452787791 4.84551344497416 0.0
vertex 10.6992719344751 14.68483419744 0.0
vertex 11.5939433074312 13.7985385348508 0.0
endloop
endfacet
facet normal 0.0 0.0 -1.0
outer loop
vertex 10.7455452787791 4.84551344497416 0.0
vertex 11.5939433074312 13.7985385348508 0.0
vertex 11.88483419744 5.99556892203057 0.0
endloop
endfacet
facet normal -0.965925826289071 -0.258819045102511 0.0
outer loop
vertex 10.3555492264286 10.7085264735923 4.5
vertex 10.4820812377438 9.74742042825286 0.0
vertex 10.4820812377438 9.74742042825286 4.5
endloop
endfacet
facet normal -1.0 -2.11193304526832e-15 0.0
outer loop
vertex 10.4820812377438 9.74742042825286 0.0
vertex 10.3555492264286 10.7085264735923 4.5
vertex 10.3555492264286 10.7085264735923 0.0
endloop
endfacet
facet normal 0.258819045102509 -0.965925826289072 0.0
outer loop
vertex 5.80754658842083 13.3343170209212 4.5
vertex 4.9119383317684 12.9633439344425 0.0
vertex 5.80754658842083 13.3343170209212 0.0
endloop
endfacet
facet normal 0.499999999999992 -0.866025403784443 0.0
outer loop
vertex 4.9119383317684 12.9633439344425 0.0
vertex 5.80754658842083 13.3343170209212 4.5
vertex 4.9119383317684 12.9633439344425 4.5
endloop
endfacet
endsolid clipwireM8
