solid OpenSCAD_Model
  facet normal 1 -8.00721e-07 -1.26822e-07
    outer loop
      vertex -6 14.5355 13.0355
      vertex -6 14.3287 10.5816
      vertex -6 14.5 9.5
    endloop
  endfacet
  facet normal 1 4.95791e-07 -2.36101e-07
    outer loop
      vertex -6 14.5355 13.0355
      vertex -6 13.8316 11.5572
      vertex -6 14.3287 10.5816
    endloop
  endfacet
  facet normal 1 0 0
    outer loop
      vertex -6 14.5355 13.0355
      vertex -6 13.0572 12.3316
      vertex -6 13.8316 11.5572
    endloop
  endfacet
  facet normal 1 0 0
    outer loop
      vertex -6 14.5355 13.0355
      vertex -6 12.0816 12.8287
      vertex -6 13.0572 12.3316
    endloop
  endfacet
  facet normal 1 0 0
    outer loop
      vertex -6 14.5355 13.0355
      vertex -6 11 13
      vertex -6 12.0816 12.8287
    endloop
  endfacet
  facet normal 1 0 0
    outer loop
      vertex -6 8.16844 11.5572
      vertex -6 7.46447 13.0355
      vertex -6 8.11789 11.458
    endloop
  endfacet
  facet normal 1 0 0
    outer loop
      vertex -6 8.94275 12.3316
      vertex -6 7.46447 13.0355
      vertex -6 8.16844 11.5572
    endloop
  endfacet
  facet normal 1 0 0
    outer loop
      vertex -6 9.91844 12.8287
      vertex -6 7.46447 13.0355
      vertex -6 8.94275 12.3316
    endloop
  endfacet
  facet normal 1 0 0
    outer loop
      vertex -6 11 13
      vertex -6 7.46447 13.0355
      vertex -6 9.91844 12.8287
    endloop
  endfacet
  facet normal 1 -0 0
    outer loop
      vertex -6 7.46447 13.0355
      vertex -6 11 13
      vertex -6 14.5355 13.0355
    endloop
  endfacet
  facet normal 1 1.38922e-09 -1.34884e-07
    outer loop
      vertex -6 14.5 9.5
      vertex -6 35 6.17597
      vertex -6 14.5355 13.0355
    endloop
  endfacet
  facet normal 1 2.26779e-08 -3.59184e-09
    outer loop
      vertex -6 14.3287 8.41844
      vertex -6 35 6.17597
      vertex -6 14.5 9.5
    endloop
  endfacet
  facet normal 1 2.30676e-08 0
    outer loop
      vertex -6 35 6.17597
      vertex -6 14.3287 8.41844
      vertex -6 35 4.5
    endloop
  endfacet
  facet normal 1 2.10358e-08 -1.07183e-08
    outer loop
      vertex -6 13.8316 7.44275
      vertex -6 35 4.5
      vertex -6 14.3287 8.41844
    endloop
  endfacet
  facet normal 1 1.97766e-08 -1.97766e-08
    outer loop
      vertex -6 13.0572 6.66844
      vertex -6 35 4.5
      vertex -6 13.8316 7.44275
    endloop
  endfacet
  facet normal 1 -7.29139e-07 4.71852e-07
    outer loop
      vertex -6 11 4.5
      vertex -6 13.0572 6.66844
      vertex -6 12.0816 6.1713
    endloop
  endfacet
  facet normal 1 0 0
    outer loop
      vertex -6 11 4.5
      vertex -6 12.0816 6.1713
      vertex -6 11 6
    endloop
  endfacet
  facet normal 1 0 -2.19899e-07
    outer loop
      vertex -6 13.0572 6.66844
      vertex -6 11 4.5
      vertex -6 35 4.5
    endloop
  endfacet
  facet normal 1 0 -0
    outer loop
      vertex -6 11 4.5
      vertex -6 11 6
      vertex -6 10.3351 6.10532
    endloop
  endfacet
  facet normal 0 0 -1
    outer loop
      vertex -6 11 4.5
      vertex -11 11 4.5
      vertex -6 35 4.5
    endloop
  endfacet
  facet normal 0 0 -1
    outer loop
      vertex 38.5 35 4.5
      vertex 43.5 11 4.5
      vertex 38.5 11 4.5
    endloop
  endfacet
  facet normal 0 0 -1
    outer loop
      vertex 43.5 11 4.5
      vertex 38.5 35 4.5
      vertex 43.5 40 4.5
    endloop
  endfacet
  facet normal 0 0 -1
    outer loop
      vertex -6 35 4.5
      vertex 43.5 40 4.5
      vertex 38.5 35 4.5
    endloop
  endfacet
  facet normal 0 0 -1
    outer loop
      vertex -6 35 4.5
      vertex -11 40 4.5
      vertex 43.5 40 4.5
    endloop
  endfacet
  facet normal 0 0 -1
    outer loop
      vertex -11 40 4.5
      vertex -6 35 4.5
      vertex -11 11 4.5
    endloop
  endfacet
  facet normal 1 -2.01847e-07 -1.3487e-07
    outer loop
      vertex -6 7.46447 13.0355
      vertex -6 6.3806 7.58658
      vertex -6 7.46447 5.96447
    endloop
  endfacet
  facet normal 0 -0.19509 -0.980785
    outer loop
      vertex -11 9.08658 4.8806
      vertex -6 11 4.5
      vertex -6 9.08658 4.8806
    endloop
  endfacet
  facet normal -0 -0.19509 -0.980785
    outer loop
      vertex -6 11 4.5
      vertex -11 9.08658 4.8806
      vertex -11 11 4.5
    endloop
  endfacet
  facet normal 0 -0.55557 -0.83147
    outer loop
      vertex -11 7.46447 5.96447
      vertex -6 9.08658 4.8806
      vertex -6 7.46447 5.96447
    endloop
  endfacet
  facet normal -0 -0.55557 -0.83147
    outer loop
      vertex -6 9.08658 4.8806
      vertex -11 7.46447 5.96447
      vertex -11 9.08658 4.8806
    endloop
  endfacet
  facet normal 1 -1.07673e-06 -4.45996e-07
    outer loop
      vertex -6 7.46447 13.0355
      vertex -6 7.87361 10.9786
      vertex -6 8.11789 11.458
    endloop
  endfacet
  facet normal 1 0 0
    outer loop
      vertex -6 9.08658 4.8806
      vertex -6 10.3351 6.10532
      vertex -6 9.91844 6.1713
    endloop
  endfacet
  facet normal 1 0 0
    outer loop
      vertex -6 10.3351 6.10532
      vertex -6 9.08658 4.8806
      vertex -6 11 4.5
    endloop
  endfacet
  facet normal 1 0 0
    outer loop
      vertex -6 8.94275 6.66844
      vertex -6 9.08658 4.8806
      vertex -6 9.91844 6.1713
    endloop
  endfacet
  facet normal 1 1.9614e-06 1.57794e-07
    outer loop
      vertex -6 9.08658 4.8806
      vertex -6 8.94275 6.66844
      vertex -6 8.67837 6.93282
    endloop
  endfacet
  facet normal 1 4.66015e-08 0
    outer loop
      vertex -6 14.5355 13.0355
      vertex -6 35 6.17597
      vertex -6 35 14.2124
    endloop
  endfacet
  facet normal 0 0 1
    outer loop
      vertex 43.5 40 14.5
      vertex 38.5 35 14.5
      vertex 43.5 11 14.5
    endloop
  endfacet
  facet normal 0 0 1
    outer loop
      vertex 43.5 40 14.5
      vertex -6 35 14.5
      vertex 38.5 35 14.5
    endloop
  endfacet
  facet normal 0 -0 1
    outer loop
      vertex -6 35 14.5
      vertex 43.5 40 14.5
      vertex -11 40 14.5
    endloop
  endfacet
  facet normal 0 0 1
    outer loop
      vertex 43.5 11 14.5
      vertex 38.5 35 14.5
      vertex 38.5 11 14.5
    endloop
  endfacet
  facet normal 0 0 1
    outer loop
      vertex -11 11 14.5
      vertex -6 35 14.5
      vertex -11 40 14.5
    endloop
  endfacet
  facet normal 0 0 1
    outer loop
      vertex -6 35 14.5
      vertex -11 11 14.5
      vertex -6 11 14.5
    endloop
  endfacet
  facet normal 0 1 -0
    outer loop
      vertex 43.5 40 4.5
      vertex -11 40 14.5
      vertex 43.5 40 14.5
    endloop
  endfacet
  facet normal 0 1 0
    outer loop
      vertex -11 40 14.5
      vertex 43.5 40 4.5
      vertex -11 40 4.5
    endloop
  endfacet
  facet normal 1 -1.25285e-06 2.49207e-07
    outer loop
      vertex -6 6.3806 11.4134
      vertex -6 6 9.5
      vertex -6 7.46447 13.0355
    endloop
  endfacet
  facet normal 0 -0.980785 0.19509
    outer loop
      vertex -11 6.3806 11.4134
      vertex -11 6 9.5
      vertex -6 6.3806 11.4134
    endloop
  endfacet
  facet normal 1 4.31789e-08 0
    outer loop
      vertex -6 35 14.5
      vertex -6 12.9134 14.1194
      vertex -6 35 14.4297
    endloop
  endfacet
  facet normal 1 3.97364e-08 1.99768e-07
    outer loop
      vertex -6 12.9134 14.1194
      vertex -6 35 14.5
      vertex -6 11 14.5
    endloop
  endfacet
  facet normal 0 -0.195091 0.980785
    outer loop
      vertex -11 11 14.5
      vertex -6 9.08658 14.1194
      vertex -6 11 14.5
    endloop
  endfacet
  facet normal 0 -0.195091 0.980785
    outer loop
      vertex -6 9.08658 14.1194
      vertex -11 11 14.5
      vertex -11 9.08658 14.1194
    endloop
  endfacet
  facet normal 0 -0.83147 -0.55557
    outer loop
      vertex -11 7.46447 5.96447
      vertex -6 6.3806 7.58658
      vertex -11 6.3806 7.58658
    endloop
  endfacet
  facet normal 0 -0.83147 -0.55557
    outer loop
      vertex -6 6.3806 7.58658
      vertex -11 7.46447 5.96447
      vertex -6 7.46447 5.96447
    endloop
  endfacet
  facet normal 0 -0.980785 -0.19509
    outer loop
      vertex -6 6 9.5
      vertex -11 6.3806 7.58658
      vertex -6 6.3806 7.58658
    endloop
  endfacet
  facet normal 1 -4.39942e-07 -8.75099e-08
    outer loop
      vertex -6 7.46447 13.0355
      vertex -6 6 9.5
      vertex -6 6.3806 7.58658
    endloop
  endfacet
  facet normal 1 4.66015e-08 0
    outer loop
      vertex -6 35 14.4297
      vertex -6 14.5355 13.0355
      vertex -6 35 14.2124
    endloop
  endfacet
  facet normal 1 4.22896e-08 6.32909e-08
    outer loop
      vertex -6 14.5355 13.0355
      vertex -6 35 14.4297
      vertex -6 12.9134 14.1194
    endloop
  endfacet
  facet normal 3.72105e-08 -0.980785 0.19509
    outer loop
      vertex -6 6.3806 11.4134
      vertex -11 6 9.5
      vertex -6 6 9.5
    endloop
  endfacet
  facet normal 1 8.00724e-07 -1.26822e-07
    outer loop
      vertex -6 7.6713 10.5816
      vertex -6 7.46447 13.0355
      vertex -6 7.5 9.5
    endloop
  endfacet
  facet normal 1 3.27228e-07 -1.66731e-07
    outer loop
      vertex -6 7.46447 13.0355
      vertex -6 7.6713 10.5816
      vertex -6 7.87361 10.9786
    endloop
  endfacet
  facet normal 1 -2.18506e-07 -2.18506e-07
    outer loop
      vertex -6 7.46447 5.96447
      vertex -6 8.67837 6.93282
      vertex -6 8.16844 7.44275
    endloop
  endfacet
  facet normal 1 -3.27229e-07 -1.66731e-07
    outer loop
      vertex -6 7.46447 5.96447
      vertex -6 8.16844 7.44275
      vertex -6 7.6713 8.41844
    endloop
  endfacet
  facet normal 1 -1.7905e-07 -2.67967e-07
    outer loop
      vertex -6 8.67837 6.93282
      vertex -6 7.46447 5.96447
      vertex -6 9.08658 4.8806
    endloop
  endfacet
  facet normal 1 -8.00725e-07 -1.26822e-07
    outer loop
      vertex -6 7.5 9.5
      vertex -6 7.46447 5.96447
      vertex -6 7.6713 8.41844
    endloop
  endfacet
  facet normal 1 1.8098e-12 -1.3487e-07
    outer loop
      vertex -6 7.46447 5.96447
      vertex -6 7.5 9.5
      vertex -6 7.46447 13.0355
    endloop
  endfacet
  facet normal 1 0 0
    outer loop
      vertex -6 11 14.5
      vertex -6 14.5355 13.0355
      vertex -6 12.9134 14.1194
    endloop
  endfacet
  facet normal 1 -0 0
    outer loop
      vertex -6 9.08658 14.1194
      vertex -6 14.5355 13.0355
      vertex -6 11 14.5
    endloop
  endfacet
  facet normal 1 0 0
    outer loop
      vertex -6 14.5355 13.0355
      vertex -6 9.08658 14.1194
      vertex -6 7.46447 13.0355
    endloop
  endfacet
  facet normal 0 -0.83147 0.55557
    outer loop
      vertex -11 6.3806 11.4134
      vertex -6 7.46447 13.0355
      vertex -11 7.46447 13.0355
    endloop
  endfacet
  facet normal 0 -0.83147 0.55557
    outer loop
      vertex -6 7.46447 13.0355
      vertex -11 6.3806 11.4134
      vertex -6 6.3806 11.4134
    endloop
  endfacet
  facet normal 0 -0.55557 0.83147
    outer loop
      vertex -11 9.08658 14.1194
      vertex -6 7.46447 13.0355
      vertex -6 9.08658 14.1194
    endloop
  endfacet
  facet normal 0 -0.55557 0.83147
    outer loop
      vertex -6 7.46447 13.0355
      vertex -11 9.08658 14.1194
      vertex -11 7.46447 13.0355
    endloop
  endfacet
  facet normal -1 0 0
    outer loop
      vertex -11 40 4.5
      vertex -11 14.5 9.5
      vertex -11 40 14.5
    endloop
  endfacet
  facet normal -1 0 0
    outer loop
      vertex -11 40 4.5
      vertex -11 14.3287 8.41844
      vertex -11 14.5 9.5
    endloop
  endfacet
  facet normal -1 0 0
    outer loop
      vertex -11 40 4.5
      vertex -11 13.8316 7.44275
      vertex -11 14.3287 8.41844
    endloop
  endfacet
  facet normal -1 0 0
    outer loop
      vertex -11 40 4.5
      vertex -11 13.0572 6.66844
      vertex -11 13.8316 7.44275
    endloop
  endfacet
  facet normal -1 0 0
    outer loop
      vertex -11 11 4.5
      vertex -11 13.0572 6.66844
      vertex -11 40 4.5
    endloop
  endfacet
  facet normal -1 0 0
    outer loop
      vertex -11 13.0572 6.66844
      vertex -11 11 4.5
      vertex -11 12.0816 6.1713
    endloop
  endfacet
  facet normal -1 0 0
    outer loop
      vertex -11 11 4.5
      vertex -11 11 6
      vertex -11 12.0816 6.1713
    endloop
  endfacet
  facet normal -1 0 0
    outer loop
      vertex -11 11 4.5
      vertex -11 9.91844 6.1713
      vertex -11 11 6
    endloop
  endfacet
  facet normal -1 0 0
    outer loop
      vertex -11 9.08658 4.8806
      vertex -11 9.91844 6.1713
      vertex -11 11 4.5
    endloop
  endfacet
  facet normal -1 0 0
    outer loop
      vertex -11 9.08658 4.8806
      vertex -11 8.94275 6.66844
      vertex -11 9.91844 6.1713
    endloop
  endfacet
  facet normal -1 0 0
    outer loop
      vertex -11 7.46447 5.96447
      vertex -11 8.94275 6.66844
      vertex -11 9.08658 4.8806
    endloop
  endfacet
  facet normal -1 -0 0
    outer loop
      vertex -11 8.94275 6.66844
      vertex -11 7.46447 5.96447
      vertex -11 8.16844 7.44275
    endloop
  endfacet
  facet normal -1 0 0
    outer loop
      vertex -11 8.16844 7.44275
      vertex -11 6.3806 7.58658
      vertex -11 7.6713 8.41844
    endloop
  endfacet
  facet normal -1 0 0
    outer loop
      vertex -11 6.3806 7.58658
      vertex -11 8.16844 7.44275
      vertex -11 7.46447 5.96447
    endloop
  endfacet
  facet normal -1 0 0
    outer loop
      vertex -11 14.3287 10.5816
      vertex -11 40 14.5
      vertex -11 14.5 9.5
    endloop
  endfacet
  facet normal -1 0 0
    outer loop
      vertex -11 13.8316 11.5572
      vertex -11 40 14.5
      vertex -11 14.3287 10.5816
    endloop
  endfacet
  facet normal -1 0 0
    outer loop
      vertex -11 13.0572 12.3316
      vertex -11 40 14.5
      vertex -11 13.8316 11.5572
    endloop
  endfacet
  facet normal -1 0 0
    outer loop
      vertex -11 11 14.5
      vertex -11 13.0572 12.3316
      vertex -11 12.0816 12.8287
    endloop
  endfacet
  facet normal -1 0 0
    outer loop
      vertex -11 11 14.5
      vertex -11 12.0816 12.8287
      vertex -11 11 13
    endloop
  endfacet
  facet normal -1 0 0
    outer loop
      vertex -11 13.0572 12.3316
      vertex -11 11 14.5
      vertex -11 40 14.5
    endloop
  endfacet
  facet normal -1 0 0
    outer loop
      vertex -11 9.91844 12.8287
      vertex -11 11 14.5
      vertex -11 11 13
    endloop
  endfacet
  facet normal -1 0 0
    outer loop
      vertex -11 9.91844 12.8287
      vertex -11 9.08658 14.1194
      vertex -11 11 14.5
    endloop
  endfacet
  facet normal -1 0 0
    outer loop
      vertex -11 8.94275 12.3316
      vertex -11 9.08658 14.1194
      vertex -11 9.91844 12.8287
    endloop
  endfacet
  facet normal -1 0 0
    outer loop
      vertex -11 7.46447 13.0355
      vertex -11 8.94275 12.3316
      vertex -11 8.16844 11.5572
    endloop
  endfacet
  facet normal -1 0 0
    outer loop
      vertex -11 6.3806 11.4134
      vertex -11 8.16844 11.5572
      vertex -11 7.6713 10.5816
    endloop
  endfacet
  facet normal -1 0 0
    outer loop
      vertex -11 8.94275 12.3316
      vertex -11 7.46447 13.0355
      vertex -11 9.08658 14.1194
    endloop
  endfacet
  facet normal -1 0 0
    outer loop
      vertex -11 6 9.5
      vertex -11 7.6713 10.5816
      vertex -11 7.5 9.5
    endloop
  endfacet
  facet normal -1 0 0
    outer loop
      vertex -11 6 9.5
      vertex -11 7.6713 8.41844
      vertex -11 6.3806 7.58658
    endloop
  endfacet
  facet normal -1 0 0
    outer loop
      vertex -11 7.6713 8.41844
      vertex -11 6 9.5
      vertex -11 7.5 9.5
    endloop
  endfacet
  facet normal -1 -0 0
    outer loop
      vertex -11 8.16844 11.5572
      vertex -11 6.3806 11.4134
      vertex -11 7.46447 13.0355
    endloop
  endfacet
  facet normal -1 -0 0
    outer loop
      vertex -11 7.6713 10.5816
      vertex -11 6 9.5
      vertex -11 6.3806 11.4134
    endloop
  endfacet
  facet normal -3.72105e-08 -0.980785 -0.19509
    outer loop
      vertex -6 6 9.5
      vertex -11 6 9.5
      vertex -11 6.3806 7.58658
    endloop
  endfacet
  facet normal 0 -0.156435 -0.987688
    outer loop
      vertex -11 11 13
      vertex -6 12.0816 12.8287
      vertex -6 11 13
    endloop
  endfacet
  facet normal -0 -0.156435 -0.987688
    outer loop
      vertex -6 12.0816 12.8287
      vertex -11 11 13
      vertex -11 12.0816 12.8287
    endloop
  endfacet
  facet normal 0 -0.45399 -0.891007
    outer loop
      vertex -11 12.0816 12.8287
      vertex -6 13.0572 12.3316
      vertex -6 12.0816 12.8287
    endloop
  endfacet
  facet normal -0 -0.45399 -0.891007
    outer loop
      vertex -6 13.0572 12.3316
      vertex -11 12.0816 12.8287
      vertex -11 13.0572 12.3316
    endloop
  endfacet
  facet normal -0 0.156434 0.987688
    outer loop
      vertex -11 11 6
      vertex -6 10.3351 6.10532
      vertex -6 11 6
    endloop
  endfacet
  facet normal -3.62742e-08 0.156434 0.987688
    outer loop
      vertex -11 9.91844 6.1713
      vertex -6 10.3351 6.10532
      vertex -11 11 6
    endloop
  endfacet
  facet normal 0 0.156434 0.987688
    outer loop
      vertex -6 10.3351 6.10532
      vertex -11 9.91844 6.1713
      vertex -6 9.91844 6.1713
    endloop
  endfacet
  facet normal 0 -0.987688 0.156435
    outer loop
      vertex -11 14.3287 8.41844
      vertex -6 14.5 9.5
      vertex -11 14.5 9.5
    endloop
  endfacet
  facet normal 0 -0.987688 0.156435
    outer loop
      vertex -6 14.5 9.5
      vertex -11 14.3287 8.41844
      vertex -6 14.3287 8.41844
    endloop
  endfacet
  facet normal 0 0.891006 -0.453991
    outer loop
      vertex -6 8.11789 11.458
      vertex -11 8.16844 11.5572
      vertex -6 8.16844 11.5572
    endloop
  endfacet
  facet normal 2.29358e-08 0.891007 -0.45399
    outer loop
      vertex -6 7.87361 10.9786
      vertex -11 8.16844 11.5572
      vertex -6 8.11789 11.458
    endloop
  endfacet
  facet normal 0 0.891006 -0.453991
    outer loop
      vertex -11 7.6713 10.5816
      vertex -6 7.87361 10.9786
      vertex -6 7.6713 10.5816
    endloop
  endfacet
  facet normal -4.79413e-08 0.891007 -0.45399
    outer loop
      vertex -6 7.87361 10.9786
      vertex -11 7.6713 10.5816
      vertex -11 8.16844 11.5572
    endloop
  endfacet
  facet normal 0 0.707107 0.707107
    outer loop
      vertex -6 8.67837 6.93282
      vertex -11 8.16844 7.44275
      vertex -6 8.16844 7.44275
    endloop
  endfacet
  facet normal -0 0.707107 0.707107
    outer loop
      vertex -11 8.94275 6.66844
      vertex -6 8.67837 6.93282
      vertex -6 8.94275 6.66844
    endloop
  endfacet
  facet normal 0 0.707107 0.707107
    outer loop
      vertex -6 8.67837 6.93282
      vertex -11 8.94275 6.66844
      vertex -11 8.16844 7.44275
    endloop
  endfacet
  facet normal 0 -0.707107 0.707107
    outer loop
      vertex -11 13.0572 6.66844
      vertex -6 13.8316 7.44275
      vertex -11 13.8316 7.44275
    endloop
  endfacet
  facet normal 0 -0.707107 0.707107
    outer loop
      vertex -6 13.8316 7.44275
      vertex -11 13.0572 6.66844
      vertex -6 13.0572 6.66844
    endloop
  endfacet
  facet normal 0 -0.891007 0.45399
    outer loop
      vertex -11 13.8316 7.44275
      vertex -6 14.3287 8.41844
      vertex -11 14.3287 8.41844
    endloop
  endfacet
  facet normal 0 -0.891007 0.45399
    outer loop
      vertex -6 14.3287 8.41844
      vertex -11 13.8316 7.44275
      vertex -6 13.8316 7.44275
    endloop
  endfacet
  facet normal 0 0.707107 -0.707107
    outer loop
      vertex -6 8.16844 11.5572
      vertex -11 8.94275 12.3316
      vertex -6 8.94275 12.3316
    endloop
  endfacet
  facet normal 0 0.707107 -0.707107
    outer loop
      vertex -11 8.94275 12.3316
      vertex -6 8.16844 11.5572
      vertex -11 8.16844 11.5572
    endloop
  endfacet
  facet normal -0 0.45399 0.891007
    outer loop
      vertex -11 9.91844 6.1713
      vertex -6 8.94275 6.66844
      vertex -6 9.91844 6.1713
    endloop
  endfacet
  facet normal 0 0.45399 0.891007
    outer loop
      vertex -6 8.94275 6.66844
      vertex -11 9.91844 6.1713
      vertex -11 8.94275 6.66844
    endloop
  endfacet
  facet normal 0 -0.707107 -0.707107
    outer loop
      vertex -11 13.8316 11.5572
      vertex -6 13.0572 12.3316
      vertex -11 13.0572 12.3316
    endloop
  endfacet
  facet normal 0 -0.707107 -0.707107
    outer loop
      vertex -6 13.0572 12.3316
      vertex -11 13.8316 11.5572
      vertex -6 13.8316 11.5572
    endloop
  endfacet
  facet normal 0 -0.891007 -0.45399
    outer loop
      vertex -11 14.3287 10.5816
      vertex -6 13.8316 11.5572
      vertex -11 13.8316 11.5572
    endloop
  endfacet
  facet normal 0 -0.891007 -0.45399
    outer loop
      vertex -6 13.8316 11.5572
      vertex -11 14.3287 10.5816
      vertex -6 14.3287 10.5816
    endloop
  endfacet
  facet normal 0 -0.45399 0.891007
    outer loop
      vertex -11 13.0572 6.66844
      vertex -6 12.0816 6.1713
      vertex -6 13.0572 6.66844
    endloop
  endfacet
  facet normal 0 -0.45399 0.891007
    outer loop
      vertex -6 12.0816 6.1713
      vertex -11 13.0572 6.66844
      vertex -11 12.0816 6.1713
    endloop
  endfacet
  facet normal 0 0.891007 0.45399
    outer loop
      vertex -6 8.16844 7.44275
      vertex -11 7.6713 8.41844
      vertex -6 7.6713 8.41844
    endloop
  endfacet
  facet normal 0 0.891007 0.45399
    outer loop
      vertex -11 7.6713 8.41844
      vertex -6 8.16844 7.44275
      vertex -11 8.16844 7.44275
    endloop
  endfacet
  facet normal 0 -0.987688 -0.156435
    outer loop
      vertex -11 14.5 9.5
      vertex -6 14.3287 10.5816
      vertex -11 14.3287 10.5816
    endloop
  endfacet
  facet normal 0 -0.987688 -0.156435
    outer loop
      vertex -6 14.3287 10.5816
      vertex -11 14.5 9.5
      vertex -6 14.5 9.5
    endloop
  endfacet
  facet normal 0 -0.156434 0.987688
    outer loop
      vertex -11 12.0816 6.1713
      vertex -6 11 6
      vertex -6 12.0816 6.1713
    endloop
  endfacet
  facet normal 0 -0.156434 0.987688
    outer loop
      vertex -6 11 6
      vertex -11 12.0816 6.1713
      vertex -11 11 6
    endloop
  endfacet
  facet normal 0 0.45399 -0.891007
    outer loop
      vertex -11 8.94275 12.3316
      vertex -6 9.91844 12.8287
      vertex -6 8.94275 12.3316
    endloop
  endfacet
  facet normal 0 0.45399 -0.891007
    outer loop
      vertex -6 9.91844 12.8287
      vertex -11 8.94275 12.3316
      vertex -11 9.91844 12.8287
    endloop
  endfacet
  facet normal 0 0.156435 -0.987688
    outer loop
      vertex -11 9.91844 12.8287
      vertex -6 11 13
      vertex -6 9.91844 12.8287
    endloop
  endfacet
  facet normal 0 0.156435 -0.987688
    outer loop
      vertex -6 11 13
      vertex -11 9.91844 12.8287
      vertex -11 11 13
    endloop
  endfacet
  facet normal 0 0.987688 0.156434
    outer loop
      vertex -6 7.6713 8.41844
      vertex -11 7.5 9.5
      vertex -6 7.5 9.5
    endloop
  endfacet
  facet normal 0 0.987688 0.156434
    outer loop
      vertex -11 7.5 9.5
      vertex -6 7.6713 8.41844
      vertex -11 7.6713 8.41844
    endloop
  endfacet
  facet normal 0 0.987688 -0.156434
    outer loop
      vertex -6 7.5 9.5
      vertex -11 7.6713 10.5816
      vertex -6 7.6713 10.5816
    endloop
  endfacet
  facet normal 0 0.987688 -0.156434
    outer loop
      vertex -11 7.6713 10.5816
      vertex -6 7.5 9.5
      vertex -11 7.5 9.5
    endloop
  endfacet
  facet normal 0 -0.980785 -0.19509
    outer loop
      vertex 43.5 6 9.5
      vertex 38.5 6.3806 7.58658
      vertex 43.5 6.3806 7.58658
    endloop
  endfacet
  facet normal 1 0 0
    outer loop
      vertex 43.5 40 14.5
      vertex 43.5 13 9.5
      vertex 43.5 40 4.5
    endloop
  endfacet
  facet normal 1 0 0
    outer loop
      vertex 43.5 40 14.5
      vertex 43.5 12.9021 10.118
      vertex 43.5 13 9.5
    endloop
  endfacet
  facet normal 1 0 0
    outer loop
      vertex 43.5 40 14.5
      vertex 43.5 12.618 10.6756
      vertex 43.5 12.9021 10.118
    endloop
  endfacet
  facet normal 1 -0 0
    outer loop
      vertex 43.5 11 14.5
      vertex 43.5 12.618 10.6756
      vertex 43.5 40 14.5
    endloop
  endfacet
  facet normal 1 0 0
    outer loop
      vertex 43.5 12.618 10.6756
      vertex 43.5 11 14.5
      vertex 43.5 12.1756 11.118
    endloop
  endfacet
  facet normal 1 0 0
    outer loop
      vertex 43.5 12.1756 11.118
      vertex 43.5 11 14.5
      vertex 43.5 11.618 11.4021
    endloop
  endfacet
  facet normal 1 0 0
    outer loop
      vertex 43.5 11 14.5
      vertex 43.5 11 11.5
      vertex 43.5 11.618 11.4021
    endloop
  endfacet
  facet normal 1 0 0
    outer loop
      vertex 43.5 11 14.5
      vertex 43.5 10.382 11.4021
      vertex 43.5 11 11.5
    endloop
  endfacet
  facet normal 1 -0 0
    outer loop
      vertex 43.5 9.08658 14.1194
      vertex 43.5 10.382 11.4021
      vertex 43.5 11 14.5
    endloop
  endfacet
  facet normal 1 0 0
    outer loop
      vertex 43.5 10.382 11.4021
      vertex 43.5 9.08658 14.1194
      vertex 43.5 9.82443 11.118
    endloop
  endfacet
  facet normal 1 -0 0
    outer loop
      vertex 43.5 7.46447 13.0355
      vertex 43.5 9.82443 11.118
      vertex 43.5 9.08658 14.1194
    endloop
  endfacet
  facet normal 1 0 0
    outer loop
      vertex 43.5 9.82443 11.118
      vertex 43.5 7.46447 13.0355
      vertex 43.5 9.38197 10.6756
    endloop
  endfacet
  facet normal 1 -0 0
    outer loop
      vertex 43.5 6.3806 11.4134
      vertex 43.5 9.38197 10.6756
      vertex 43.5 7.46447 13.0355
    endloop
  endfacet
  facet normal 1 0 0
    outer loop
      vertex 43.5 9.38197 10.6756
      vertex 43.5 6.3806 11.4134
      vertex 43.5 9.09789 10.118
    endloop
  endfacet
  facet normal 1 -0 0
    outer loop
      vertex 43.5 12.9021 8.88197
      vertex 43.5 40 4.5
      vertex 43.5 13 9.5
    endloop
  endfacet
  facet normal 1 -0 0
    outer loop
      vertex 43.5 12.618 8.32443
      vertex 43.5 40 4.5
      vertex 43.5 12.9021 8.88197
    endloop
  endfacet
  facet normal 1 0 0
    outer loop
      vertex 43.5 11 4.5
      vertex 43.5 12.618 8.32443
      vertex 43.5 12.1756 7.88197
    endloop
  endfacet
  facet normal 1 0 0
    outer loop
      vertex 43.5 11 4.5
      vertex 43.5 12.1756 7.88197
      vertex 43.5 11.618 7.59789
    endloop
  endfacet
  facet normal 1 0 0
    outer loop
      vertex 43.5 11 4.5
      vertex 43.5 11.618 7.59789
      vertex 43.5 11 7.5
    endloop
  endfacet
  facet normal 1 0 0
    outer loop
      vertex 43.5 12.618 8.32443
      vertex 43.5 11 4.5
      vertex 43.5 40 4.5
    endloop
  endfacet
  facet normal 1 0 0
    outer loop
      vertex 43.5 10.382 7.59789
      vertex 43.5 11 4.5
      vertex 43.5 11 7.5
    endloop
  endfacet
  facet normal 1 0 0
    outer loop
      vertex 43.5 9.08658 4.8806
      vertex 43.5 10.382 7.59789
      vertex 43.5 9.82443 7.88197
    endloop
  endfacet
  facet normal 1 0 0
    outer loop
      vertex 43.5 7.46447 5.96447
      vertex 43.5 9.82443 7.88197
      vertex 43.5 9.38197 8.32443
    endloop
  endfacet
  facet normal 1 0 0
    outer loop
      vertex 43.5 6.3806 7.58658
      vertex 43.5 9.38197 8.32443
      vertex 43.5 9.09789 8.88197
    endloop
  endfacet
  facet normal 1 0 0
    outer loop
      vertex 43.5 10.382 7.59789
      vertex 43.5 9.08658 4.8806
      vertex 43.5 11 4.5
    endloop
  endfacet
  facet normal 1 -0 0
    outer loop
      vertex 43.5 6 9.5
      vertex 43.5 9.09789 8.88197
      vertex 43.5 9 9.5
    endloop
  endfacet
  facet normal 1 0 0
    outer loop
      vertex 43.5 6 9.5
      vertex 43.5 9.09789 10.118
      vertex 43.5 6.3806 11.4134
    endloop
  endfacet
  facet normal 1 0 0
    outer loop
      vertex 43.5 9.82443 7.88197
      vertex 43.5 7.46447 5.96447
      vertex 43.5 9.08658 4.8806
    endloop
  endfacet
  facet normal 1 0 0
    outer loop
      vertex 43.5 9.09789 10.118
      vertex 43.5 6 9.5
      vertex 43.5 9 9.5
    endloop
  endfacet
  facet normal 1 0 0
    outer loop
      vertex 43.5 9.38197 8.32443
      vertex 43.5 6.3806 7.58658
      vertex 43.5 7.46447 5.96447
    endloop
  endfacet
  facet normal 1 0 0
    outer loop
      vertex 43.5 9.09789 8.88197
      vertex 43.5 6 9.5
      vertex 43.5 6.3806 7.58658
    endloop
  endfacet
  facet normal 0 -0.83147 0.55557
    outer loop
      vertex 38.5 6.3806 11.4134
      vertex 43.5 7.46447 13.0355
      vertex 38.5 7.46447 13.0355
    endloop
  endfacet
  facet normal 0 -0.83147 0.55557
    outer loop
      vertex 43.5 7.46447 13.0355
      vertex 38.5 6.3806 11.4134
      vertex 43.5 6.3806 11.4134
    endloop
  endfacet
  facet normal -3.72105e-08 -0.980785 -0.19509
    outer loop
      vertex 43.5 6 9.5
      vertex 38.5 6 9.5
      vertex 38.5 6.3806 7.58658
    endloop
  endfacet
  facet normal -1 0 0
    outer loop
      vertex 38.5 35 4.5
      vertex 38.5 13 9.5
      vertex 38.5 35 14.5
    endloop
  endfacet
  facet normal -1 0 0
    outer loop
      vertex 38.5 35 4.5
      vertex 38.5 12.9021 8.88197
      vertex 38.5 13 9.5
    endloop
  endfacet
  facet normal -1 0 0
    outer loop
      vertex 38.5 35 4.5
      vertex 38.5 12.618 8.32443
      vertex 38.5 12.9021 8.88197
    endloop
  endfacet
  facet normal -1 0 0
    outer loop
      vertex 38.5 11 4.5
      vertex 38.5 12.618 8.32443
      vertex 38.5 35 4.5
    endloop
  endfacet
  facet normal -1 0 0
    outer loop
      vertex 38.5 12.618 8.32443
      vertex 38.5 11 4.5
      vertex 38.5 12.1756 7.88197
    endloop
  endfacet
  facet normal -1 0 0
    outer loop
      vertex 38.5 12.1756 7.88197
      vertex 38.5 11 4.5
      vertex 38.5 11.618 7.59789
    endloop
  endfacet
  facet normal -1 0 0
    outer loop
      vertex 38.5 11 4.5
      vertex 38.5 11 7.5
      vertex 38.5 11.618 7.59789
    endloop
  endfacet
  facet normal -1 0 0
    outer loop
      vertex 38.5 11 4.5
      vertex 38.5 10.382 7.59789
      vertex 38.5 11 7.5
    endloop
  endfacet
  facet normal -1 0 0
    outer loop
      vertex 38.5 9.08658 4.8806
      vertex 38.5 10.382 7.59789
      vertex 38.5 11 4.5
    endloop
  endfacet
  facet normal -1 -0 0
    outer loop
      vertex 38.5 10.382 7.59789
      vertex 38.5 9.08658 4.8806
      vertex 38.5 9.82443 7.88197
    endloop
  endfacet
  facet normal -1 0 0
    outer loop
      vertex 38.5 7.46447 5.96447
      vertex 38.5 9.82443 7.88197
      vertex 38.5 9.08658 4.8806
    endloop
  endfacet
  facet normal -1 -0 0
    outer loop
      vertex 38.5 9.82443 7.88197
      vertex 38.5 7.46447 5.96447
      vertex 38.5 9.38197 8.32443
    endloop
  endfacet
  facet normal -1 0 0
    outer loop
      vertex 38.5 6.3806 7.58658
      vertex 38.5 9.38197 8.32443
      vertex 38.5 7.46447 5.96447
    endloop
  endfacet
  facet normal -1 -0 0
    outer loop
      vertex 38.5 9.38197 8.32443
      vertex 38.5 6.3806 7.58658
      vertex 38.5 9.09789 8.88197
    endloop
  endfacet
  facet normal -1 0 0
    outer loop
      vertex 38.5 12.9021 10.118
      vertex 38.5 35 14.5
      vertex 38.5 13 9.5
    endloop
  endfacet
  facet normal -1 0 0
    outer loop
      vertex 38.5 12.618 10.6756
      vertex 38.5 35 14.5
      vertex 38.5 12.9021 10.118
    endloop
  endfacet
  facet normal -1 0 0
    outer loop
      vertex 38.5 11 14.5
      vertex 38.5 12.618 10.6756
      vertex 38.5 12.1756 11.118
    endloop
  endfacet
  facet normal -1 0 0
    outer loop
      vertex 38.5 11 14.5
      vertex 38.5 12.1756 11.118
      vertex 38.5 11.618 11.4021
    endloop
  endfacet
  facet normal -1 0 0
    outer loop
      vertex 38.5 11 14.5
      vertex 38.5 11.618 11.4021
      vertex 38.5 11 11.5
    endloop
  endfacet
  facet normal -1 0 0
    outer loop
      vertex 38.5 12.618 10.6756
      vertex 38.5 11 14.5
      vertex 38.5 35 14.5
    endloop
  endfacet
  facet normal -1 0 0
    outer loop
      vertex 38.5 10.382 11.4021
      vertex 38.5 11 14.5
      vertex 38.5 11 11.5
    endloop
  endfacet
  facet normal -1 0 0
    outer loop
      vertex 38.5 9.08658 14.1194
      vertex 38.5 10.382 11.4021
      vertex 38.5 9.82443 11.118
    endloop
  endfacet
  facet normal -1 0 0
    outer loop
      vertex 38.5 7.46447 13.0355
      vertex 38.5 9.82443 11.118
      vertex 38.5 9.38197 10.6756
    endloop
  endfacet
  facet normal -1 0 0
    outer loop
      vertex 38.5 6.3806 11.4134
      vertex 38.5 9.38197 10.6756
      vertex 38.5 9.09789 10.118
    endloop
  endfacet
  facet normal -1 0 0
    outer loop
      vertex 38.5 10.382 11.4021
      vertex 38.5 9.08658 14.1194
      vertex 38.5 11 14.5
    endloop
  endfacet
  facet normal -1 0 0
    outer loop
      vertex 38.5 6 9.5
      vertex 38.5 9.09789 10.118
      vertex 38.5 9 9.5
    endloop
  endfacet
  facet normal -1 0 0
    outer loop
      vertex 38.5 6 9.5
      vertex 38.5 9.09789 8.88197
      vertex 38.5 6.3806 7.58658
    endloop
  endfacet
  facet normal -1 0 0
    outer loop
      vertex 38.5 9.82443 11.118
      vertex 38.5 7.46447 13.0355
      vertex 38.5 9.08658 14.1194
    endloop
  endfacet
  facet normal -1 0 0
    outer loop
      vertex 38.5 9.09789 8.88197
      vertex 38.5 6 9.5
      vertex 38.5 9 9.5
    endloop
  endfacet
  facet normal -1 0 0
    outer loop
      vertex 38.5 9.38197 10.6756
      vertex 38.5 6.3806 11.4134
      vertex 38.5 7.46447 13.0355
    endloop
  endfacet
  facet normal -1 -0 0
    outer loop
      vertex 38.5 9.09789 10.118
      vertex 38.5 6 9.5
      vertex 38.5 6.3806 11.4134
    endloop
  endfacet
  facet normal 0 -0.83147 -0.55557
    outer loop
      vertex 38.5 7.46447 5.96447
      vertex 43.5 6.3806 7.58658
      vertex 38.5 6.3806 7.58658
    endloop
  endfacet
  facet normal 0 -0.83147 -0.55557
    outer loop
      vertex 43.5 6.3806 7.58658
      vertex 38.5 7.46447 5.96447
      vertex 43.5 7.46447 5.96447
    endloop
  endfacet
  facet normal 0 -0.55557 -0.83147
    outer loop
      vertex 38.5 7.46447 5.96447
      vertex 43.5 9.08658 4.8806
      vertex 43.5 7.46447 5.96447
    endloop
  endfacet
  facet normal -0 -0.55557 -0.83147
    outer loop
      vertex 43.5 9.08658 4.8806
      vertex 38.5 7.46447 5.96447
      vertex 38.5 9.08658 4.8806
    endloop
  endfacet
  facet normal 3.72105e-08 -0.980785 0.19509
    outer loop
      vertex 43.5 6.3806 11.4134
      vertex 38.5 6 9.5
      vertex 43.5 6 9.5
    endloop
  endfacet
  facet normal 0 -0.980785 0.19509
    outer loop
      vertex 38.5 6.3806 11.4134
      vertex 38.5 6 9.5
      vertex 43.5 6.3806 11.4134
    endloop
  endfacet
  facet normal 0 -0.19509 -0.980785
    outer loop
      vertex 38.5 9.08658 4.8806
      vertex 43.5 11 4.5
      vertex 43.5 9.08658 4.8806
    endloop
  endfacet
  facet normal -0 -0.19509 -0.980785
    outer loop
      vertex 43.5 11 4.5
      vertex 38.5 9.08658 4.8806
      vertex 38.5 11 4.5
    endloop
  endfacet
  facet normal 0 -0.55557 0.83147
    outer loop
      vertex 38.5 9.08658 14.1194
      vertex 43.5 7.46447 13.0355
      vertex 43.5 9.08658 14.1194
    endloop
  endfacet
  facet normal 0 -0.55557 0.83147
    outer loop
      vertex 43.5 7.46447 13.0355
      vertex 38.5 9.08658 14.1194
      vertex 38.5 7.46447 13.0355
    endloop
  endfacet
  facet normal 0 -0.195091 0.980785
    outer loop
      vertex 38.5 11 14.5
      vertex 43.5 9.08658 14.1194
      vertex 43.5 11 14.5
    endloop
  endfacet
  facet normal 0 -0.195091 0.980785
    outer loop
      vertex 43.5 9.08658 14.1194
      vertex 38.5 11 14.5
      vertex 38.5 9.08658 14.1194
    endloop
  endfacet
  facet normal 0 -0.156435 -0.987688
    outer loop
      vertex 38.5 11 11.5
      vertex 43.5 11.618 11.4021
      vertex 43.5 11 11.5
    endloop
  endfacet
  facet normal -0 -0.156435 -0.987688
    outer loop
      vertex 43.5 11.618 11.4021
      vertex 38.5 11 11.5
      vertex 38.5 11.618 11.4021
    endloop
  endfacet
  facet normal 0 -0.453991 -0.891006
    outer loop
      vertex 38.5 11.618 11.4021
      vertex 43.5 12.1756 11.118
      vertex 43.5 11.618 11.4021
    endloop
  endfacet
  facet normal -0 -0.453991 -0.891006
    outer loop
      vertex 43.5 12.1756 11.118
      vertex 38.5 11.618 11.4021
      vertex 38.5 12.1756 11.118
    endloop
  endfacet
  facet normal -0 0.156433 0.987689
    outer loop
      vertex 38.5 11 7.5
      vertex 43.5 10.382 7.59789
      vertex 43.5 11 7.5
    endloop
  endfacet
  facet normal 0 0.156433 0.987689
    outer loop
      vertex 43.5 10.382 7.59789
      vertex 38.5 11 7.5
      vertex 38.5 10.382 7.59789
    endloop
  endfacet
  facet normal 0 -0.987688 0.156434
    outer loop
      vertex 38.5 12.9021 8.88197
      vertex 43.5 13 9.5
      vertex 38.5 13 9.5
    endloop
  endfacet
  facet normal 0 -0.987688 0.156434
    outer loop
      vertex 43.5 13 9.5
      vertex 38.5 12.9021 8.88197
      vertex 43.5 12.9021 8.88197
    endloop
  endfacet
  facet normal 0 -0.891006 0.453991
    outer loop
      vertex 38.5 12.618 8.32443
      vertex 43.5 12.9021 8.88197
      vertex 38.5 12.9021 8.88197
    endloop
  endfacet
  facet normal 0 -0.891006 0.453991
    outer loop
      vertex 43.5 12.9021 8.88197
      vertex 38.5 12.618 8.32443
      vertex 43.5 12.618 8.32443
    endloop
  endfacet
  facet normal 0 0.891006 -0.453991
    outer loop
      vertex 43.5 9.09789 10.118
      vertex 38.5 9.38197 10.6756
      vertex 43.5 9.38197 10.6756
    endloop
  endfacet
  facet normal 0 0.891006 -0.453991
    outer loop
      vertex 38.5 9.38197 10.6756
      vertex 43.5 9.09789 10.118
      vertex 38.5 9.09789 10.118
    endloop
  endfacet
  facet normal -0 0.453991 0.891006
    outer loop
      vertex 38.5 10.382 7.59789
      vertex 43.5 9.82443 7.88197
      vertex 43.5 10.382 7.59789
    endloop
  endfacet
  facet normal 0 0.453991 0.891006
    outer loop
      vertex 43.5 9.82443 7.88197
      vertex 38.5 10.382 7.59789
      vertex 38.5 9.82443 7.88197
    endloop
  endfacet
  facet normal 0 -0.987688 -0.156435
    outer loop
      vertex 38.5 13 9.5
      vertex 43.5 12.9021 10.118
      vertex 38.5 12.9021 10.118
    endloop
  endfacet
  facet normal 0 -0.987688 -0.156435
    outer loop
      vertex 43.5 12.9021 10.118
      vertex 38.5 13 9.5
      vertex 43.5 13 9.5
    endloop
  endfacet
  facet normal 0 -0.156433 0.987689
    outer loop
      vertex 38.5 11.618 7.59789
      vertex 43.5 11 7.5
      vertex 43.5 11.618 7.59789
    endloop
  endfacet
  facet normal 0 -0.156433 0.987689
    outer loop
      vertex 43.5 11 7.5
      vertex 38.5 11.618 7.59789
      vertex 38.5 11 7.5
    endloop
  endfacet
  facet normal 0 0.987689 0.156433
    outer loop
      vertex 43.5 9.09789 8.88197
      vertex 38.5 9 9.5
      vertex 43.5 9 9.5
    endloop
  endfacet
  facet normal 0 0.987689 0.156433
    outer loop
      vertex 38.5 9 9.5
      vertex 43.5 9.09789 8.88197
      vertex 38.5 9.09789 8.88197
    endloop
  endfacet
  facet normal 0 0.987689 -0.156433
    outer loop
      vertex 43.5 9 9.5
      vertex 38.5 9.09789 10.118
      vertex 43.5 9.09789 10.118
    endloop
  endfacet
  facet normal 0 0.987689 -0.156433
    outer loop
      vertex 38.5 9.09789 10.118
      vertex 43.5 9 9.5
      vertex 38.5 9 9.5
    endloop
  endfacet
  facet normal 0 -0.707107 -0.707107
    outer loop
      vertex 38.5 12.618 10.6756
      vertex 43.5 12.1756 11.118
      vertex 38.5 12.1756 11.118
    endloop
  endfacet
  facet normal 0 -0.707107 -0.707107
    outer loop
      vertex 43.5 12.1756 11.118
      vertex 38.5 12.618 10.6756
      vertex 43.5 12.618 10.6756
    endloop
  endfacet
  facet normal 0 -0.891006 -0.453991
    outer loop
      vertex 38.5 12.9021 10.118
      vertex 43.5 12.618 10.6756
      vertex 38.5 12.618 10.6756
    endloop
  endfacet
  facet normal 0 -0.891006 -0.453991
    outer loop
      vertex 43.5 12.618 10.6756
      vertex 38.5 12.9021 10.118
      vertex 43.5 12.9021 10.118
    endloop
  endfacet
  facet normal 0 -0.707107 0.707107
    outer loop
      vertex 38.5 12.1756 7.88197
      vertex 43.5 12.618 8.32443
      vertex 38.5 12.618 8.32443
    endloop
  endfacet
  facet normal 0 -0.707107 0.707107
    outer loop
      vertex 43.5 12.618 8.32443
      vertex 38.5 12.1756 7.88197
      vertex 43.5 12.1756 7.88197
    endloop
  endfacet
  facet normal 0 -0.453991 0.891006
    outer loop
      vertex 38.5 12.1756 7.88197
      vertex 43.5 11.618 7.59789
      vertex 43.5 12.1756 7.88197
    endloop
  endfacet
  facet normal 0 -0.453991 0.891006
    outer loop
      vertex 43.5 11.618 7.59789
      vertex 38.5 12.1756 7.88197
      vertex 38.5 11.618 7.59789
    endloop
  endfacet
  facet normal 0 0.707107 -0.707107
    outer loop
      vertex 43.5 9.38197 10.6756
      vertex 38.5 9.82443 11.118
      vertex 43.5 9.82443 11.118
    endloop
  endfacet
  facet normal 0 0.707107 -0.707107
    outer loop
      vertex 38.5 9.82443 11.118
      vertex 43.5 9.38197 10.6756
      vertex 38.5 9.38197 10.6756
    endloop
  endfacet
  facet normal 0 0.453991 -0.891006
    outer loop
      vertex 38.5 9.82443 11.118
      vertex 43.5 10.382 11.4021
      vertex 43.5 9.82443 11.118
    endloop
  endfacet
  facet normal 0 0.453991 -0.891006
    outer loop
      vertex 43.5 10.382 11.4021
      vertex 38.5 9.82443 11.118
      vertex 38.5 10.382 11.4021
    endloop
  endfacet
  facet normal 0 0.156434 -0.987688
    outer loop
      vertex 38.5 10.382 11.4021
      vertex 43.5 11 11.5
      vertex 43.5 10.382 11.4021
    endloop
  endfacet
  facet normal 0 0.156434 -0.987688
    outer loop
      vertex 43.5 11 11.5
      vertex 38.5 10.382 11.4021
      vertex 38.5 11 11.5
    endloop
  endfacet
  facet normal 0 0.707107 0.707107
    outer loop
      vertex 43.5 9.82443 7.88197
      vertex 38.5 9.38197 8.32443
      vertex 43.5 9.38197 8.32443
    endloop
  endfacet
  facet normal 0 0.707107 0.707107
    outer loop
      vertex 38.5 9.38197 8.32443
      vertex 43.5 9.82443 7.88197
      vertex 38.5 9.82443 7.88197
    endloop
  endfacet
  facet normal 0 0.891006 0.453991
    outer loop
      vertex 43.5 9.38197 8.32443
      vertex 38.5 9.09789 8.88197
      vertex 43.5 9.09789 8.88197
    endloop
  endfacet
  facet normal 0 0.891006 0.453991
    outer loop
      vertex 38.5 9.09789 8.88197
      vertex 43.5 9.38197 8.32443
      vertex 38.5 9.38197 8.32443
    endloop
  endfacet
  facet normal 0 -1 0
    outer loop
      vertex -6 35 14.4297
      vertex 38.5 35 14.5
      vertex -6 35 14.5
    endloop
  endfacet
  facet normal 0 -1 0
    outer loop
      vertex -6 35 14.2124
      vertex 38.5 35 14.5
      vertex -6 35 14.4297
    endloop
  endfacet
  facet normal 0 -1 0
    outer loop
      vertex -6 35 6.17597
      vertex 38.5 35 14.5
      vertex -6 35 14.2124
    endloop
  endfacet
  facet normal 0 -1 0
    outer loop
      vertex 38.5 35 4.5
      vertex -6 35 6.17597
      vertex -6 35 4.5
    endloop
  endfacet
  facet normal 0 -1 0
    outer loop
      vertex -6 35 6.17597
      vertex 38.5 35 4.5
      vertex 38.5 35 14.5
    endloop
  endfacet
endsolid OpenSCAD_Model
