solid OpenSCAD_Model
  facet normal 1 -2.27552e-07 -3.60408e-08
    outer loop
      vertex -6 14.5355 13.0355
      vertex -6 12.9021 10.118
      vertex -6 13 9.5
    endloop
  endfacet
  facet normal 1 -1.52834e-07 -7.7873e-08
    outer loop
      vertex -6 14.5355 13.0355
      vertex -6 12.618 10.6756
      vertex -6 12.9021 10.118
    endloop
  endfacet
  facet normal 1 4.83106e-07 -5.94583e-07
    outer loop
      vertex -6 14.5355 13.0355
      vertex -6 12.1756 11.118
      vertex -6 12.618 10.6756
    endloop
  endfacet
  facet normal 1 0 0
    outer loop
      vertex -6 14.5355 13.0355
      vertex -6 11.618 11.4021
      vertex -6 12.1756 11.118
    endloop
  endfacet
  facet normal 1 0 0
    outer loop
      vertex -6 14.5355 13.0355
      vertex -6 11 11.5
      vertex -6 11.618 11.4021
    endloop
  endfacet
  facet normal 1 -0 0
    outer loop
      vertex -6 7.46447 13.0355
      vertex -6 11 11.5
      vertex -6 14.5355 13.0355
    endloop
  endfacet
  facet normal 1 2.27553e-07 -3.60405e-08
    outer loop
      vertex -6 9.09789 10.118
      vertex -6 7.46447 13.0355
      vertex -6 9 9.5
    endloop
  endfacet
  facet normal 1 1.52834e-07 -7.7873e-08
    outer loop
      vertex -6 9.38197 10.6756
      vertex -6 7.46447 13.0355
      vertex -6 9.09789 10.118
    endloop
  endfacet
  facet normal 1 -4.83106e-07 -5.94583e-07
    outer loop
      vertex -6 9.82443 11.118
      vertex -6 7.46447 13.0355
      vertex -6 9.38197 10.6756
    endloop
  endfacet
  facet normal 1 0 0
    outer loop
      vertex -6 10.382 11.4021
      vertex -6 7.46447 13.0355
      vertex -6 9.82443 11.118
    endloop
  endfacet
  facet normal 1 0 0
    outer loop
      vertex -6 11 11.5
      vertex -6 7.46447 13.0355
      vertex -6 10.382 11.4021
    endloop
  endfacet
  facet normal 1 4.76139e-09 -1.16674e-07
    outer loop
      vertex -6 12.9021 8.88197
      vertex -6 40 5.9009
      vertex -6 14.5355 13.0355
    endloop
  endfacet
  facet normal 1 -4.88783e-07 7.74156e-08
    outer loop
      vertex -6 12.9021 8.88197
      vertex -6 14.5355 13.0355
      vertex -6 13 9.5
    endloop
  endfacet
  facet normal 1 1.75968e-08 0
    outer loop
      vertex -6 40 5.9009
      vertex -6 12.9021 8.88197
      vertex -6 40 4.5
    endloop
  endfacet
  facet normal 1 1.62573e-08 -8.28353e-09
    outer loop
      vertex -6 12.618 8.32443
      vertex -6 40 4.5
      vertex -6 12.9021 8.88197
    endloop
  endfacet
  facet normal 1 2.16116e-07 -2.16116e-07
    outer loop
      vertex -6 11 4.5
      vertex -6 12.618 8.32443
      vertex -6 12.1756 7.88197
    endloop
  endfacet
  facet normal 1 8.73023e-08 -1.7134e-07
    outer loop
      vertex -6 11 4.5
      vertex -6 12.1756 7.88197
      vertex -6 11.618 7.59789
    endloop
  endfacet
  facet normal 1 2.51743e-08 -1.58946e-07
    outer loop
      vertex -6 11 4.5
      vertex -6 11.618 7.59789
      vertex -6 11 7.5
    endloop
  endfacet
  facet normal 1 0 -1.24682e-07
    outer loop
      vertex -6 12.618 8.32443
      vertex -6 11 4.5
      vertex -6 40 4.5
    endloop
  endfacet
  facet normal 1 -2.51743e-08 -1.58946e-07
    outer loop
      vertex -6 10.382 7.59789
      vertex -6 11 4.5
      vertex -6 11 7.5
    endloop
  endfacet
  facet normal 1 -8.73024e-08 -1.7134e-07
    outer loop
      vertex -6 9.82443 7.88197
      vertex -6 11 4.5
      vertex -6 10.382 7.59789
    endloop
  endfacet
  facet normal 1 -2.16116e-07 -2.16116e-07
    outer loop
      vertex -6 11 4.5
      vertex -6 9.82443 7.88197
      vertex -6 9.43984 8.26655
    endloop
  endfacet
  facet normal 1 4.88778e-07 7.74138e-08
    outer loop
      vertex -6 9.044 9.22221
      vertex -6 9 9.5
      vertex -6 7.46447 13.0355
    endloop
  endfacet
  facet normal 0 0 -1
    outer loop
      vertex -6 11 4.5
      vertex -11 11 4.5
      vertex -6 40 4.5
    endloop
  endfacet
  facet normal 0 0 -1
    outer loop
      vertex 35.5 40 4.5
      vertex 40.5 11 4.5
      vertex 35.5 11 4.5
    endloop
  endfacet
  facet normal 0 0 -1
    outer loop
      vertex 40.5 11 4.5
      vertex 35.5 40 4.5
      vertex 40.5 45 4.5
    endloop
  endfacet
  facet normal 0 0 -1
    outer loop
      vertex -6 40 4.5
      vertex 40.5 45 4.5
      vertex 35.5 40 4.5
    endloop
  endfacet
  facet normal 0 0 -1
    outer loop
      vertex -6 40 4.5
      vertex -11 45 4.5
      vertex 40.5 45 4.5
    endloop
  endfacet
  facet normal 0 0 -1
    outer loop
      vertex -11 45 4.5
      vertex -6 40 4.5
      vertex -11 11 4.5
    endloop
  endfacet
  facet normal 1 -2.01847e-07 -1.3487e-07
    outer loop
      vertex -6 7.46447 13.0355
      vertex -6 6.3806 7.58658
      vertex -6 7.46447 5.96447
    endloop
  endfacet
  facet normal 0 -0.83147 0.55557
    outer loop
      vertex -11 6.3806 11.4134
      vertex -6 7.46447 13.0355
      vertex -11 7.46447 13.0355
    endloop
  endfacet
  facet normal 0 -0.83147 0.55557
    outer loop
      vertex -6 7.46447 13.0355
      vertex -11 6.3806 11.4134
      vertex -6 6.3806 11.4134
    endloop
  endfacet
  facet normal 0 -0.980785 -0.19509
    outer loop
      vertex -6 6 9.5
      vertex -11 6.3806 7.58658
      vertex -6 6.3806 7.58658
    endloop
  endfacet
  facet normal 1 3.74512e-08 0
    outer loop
      vertex -6 14.5355 13.0355
      vertex -6 40 5.9009
      vertex -6 40 14.2596
    endloop
  endfacet
  facet normal 1 0 0
    outer loop
      vertex -6 11 14.5
      vertex -6 14.5355 13.0355
      vertex -6 12.9134 14.1194
    endloop
  endfacet
  facet normal 1 -0 0
    outer loop
      vertex -6 9.08658 14.1194
      vertex -6 14.5355 13.0355
      vertex -6 11 14.5
    endloop
  endfacet
  facet normal 1 0 0
    outer loop
      vertex -6 14.5355 13.0355
      vertex -6 9.08658 14.1194
      vertex -6 7.46447 13.0355
    endloop
  endfacet
  facet normal 0 0 1
    outer loop
      vertex 40.5 45 14.5
      vertex 35.5 40 14.5
      vertex 40.5 11 14.5
    endloop
  endfacet
  facet normal 0 0 1
    outer loop
      vertex 40.5 45 14.5
      vertex -6 40 14.5
      vertex 35.5 40 14.5
    endloop
  endfacet
  facet normal 0 -0 1
    outer loop
      vertex -6 40 14.5
      vertex 40.5 45 14.5
      vertex -11 45 14.5
    endloop
  endfacet
  facet normal 0 0 1
    outer loop
      vertex 40.5 11 14.5
      vertex 35.5 40 14.5
      vertex 35.5 11 14.5
    endloop
  endfacet
  facet normal 0 0 1
    outer loop
      vertex -11 11 14.5
      vertex -6 40 14.5
      vertex -11 45 14.5
    endloop
  endfacet
  facet normal 0 0 1
    outer loop
      vertex -6 40 14.5
      vertex -11 11 14.5
      vertex -6 11 14.5
    endloop
  endfacet
  facet normal 0 1 -0
    outer loop
      vertex 40.5 45 4.5
      vertex -11 45 14.5
      vertex 40.5 45 14.5
    endloop
  endfacet
  facet normal 0 1 0
    outer loop
      vertex -11 45 14.5
      vertex 40.5 45 4.5
      vertex -11 45 4.5
    endloop
  endfacet
  facet normal 1 -1.25285e-06 2.49207e-07
    outer loop
      vertex -6 6.3806 11.4134
      vertex -6 6 9.5
      vertex -6 7.46447 13.0355
    endloop
  endfacet
  facet normal -3.72105e-08 -0.980785 -0.19509
    outer loop
      vertex -6 6 9.5
      vertex -11 6 9.5
      vertex -11 6.3806 7.58658
    endloop
  endfacet
  facet normal 1 3.52084e-08 0
    outer loop
      vertex -6 40 14.5
      vertex -6 12.9134 14.1194
      vertex -6 40 14.4407
    endloop
  endfacet
  facet normal 1 3.28853e-08 1.65325e-07
    outer loop
      vertex -6 12.9134 14.1194
      vertex -6 40 14.5
      vertex -6 11 14.5
    endloop
  endfacet
  facet normal 0 -0.195091 0.980785
    outer loop
      vertex -11 11 14.5
      vertex -6 9.08658 14.1194
      vertex -6 11 14.5
    endloop
  endfacet
  facet normal 0 -0.195091 0.980785
    outer loop
      vertex -6 9.08658 14.1194
      vertex -11 11 14.5
      vertex -11 9.08658 14.1194
    endloop
  endfacet
  facet normal 1 -9.01171e-08 -1.3487e-07
    outer loop
      vertex -6 7.46447 13.0355
      vertex -6 7.46447 5.96447
      vertex -6 9.08658 4.8806
    endloop
  endfacet
  facet normal -1 0 0
    outer loop
      vertex -11 45 4.5
      vertex -11 13 9.5
      vertex -11 45 14.5
    endloop
  endfacet
  facet normal -1 0 0
    outer loop
      vertex -11 45 4.5
      vertex -11 12.9021 8.88197
      vertex -11 13 9.5
    endloop
  endfacet
  facet normal -1 0 0
    outer loop
      vertex -11 45 4.5
      vertex -11 12.618 8.32443
      vertex -11 12.9021 8.88197
    endloop
  endfacet
  facet normal -1 0 0
    outer loop
      vertex -11 11 4.5
      vertex -11 12.618 8.32443
      vertex -11 45 4.5
    endloop
  endfacet
  facet normal -1 0 0
    outer loop
      vertex -11 12.618 8.32443
      vertex -11 11 4.5
      vertex -11 12.1756 7.88197
    endloop
  endfacet
  facet normal -1 0 0
    outer loop
      vertex -11 12.1756 7.88197
      vertex -11 11 4.5
      vertex -11 11.618 7.59789
    endloop
  endfacet
  facet normal -1 0 0
    outer loop
      vertex -11 11 4.5
      vertex -11 11 7.5
      vertex -11 11.618 7.59789
    endloop
  endfacet
  facet normal -1 0 0
    outer loop
      vertex -11 11 4.5
      vertex -11 10.382 7.59789
      vertex -11 11 7.5
    endloop
  endfacet
  facet normal -1 0 0
    outer loop
      vertex -11 9.08658 4.8806
      vertex -11 10.382 7.59789
      vertex -11 11 4.5
    endloop
  endfacet
  facet normal -1 -0 0
    outer loop
      vertex -11 10.382 7.59789
      vertex -11 9.08658 4.8806
      vertex -11 9.82443 7.88197
    endloop
  endfacet
  facet normal -1 0 0
    outer loop
      vertex -11 7.46447 5.96447
      vertex -11 9.82443 7.88197
      vertex -11 9.08658 4.8806
    endloop
  endfacet
  facet normal -1 -0 0
    outer loop
      vertex -11 9.82443 7.88197
      vertex -11 7.46447 5.96447
      vertex -11 9.38197 8.32443
    endloop
  endfacet
  facet normal -1 0 0
    outer loop
      vertex -11 6.3806 7.58658
      vertex -11 9.38197 8.32443
      vertex -11 7.46447 5.96447
    endloop
  endfacet
  facet normal -1 -0 0
    outer loop
      vertex -11 9.38197 8.32443
      vertex -11 6.3806 7.58658
      vertex -11 9.09789 8.88197
    endloop
  endfacet
  facet normal -1 0 0
    outer loop
      vertex -11 12.9021 10.118
      vertex -11 45 14.5
      vertex -11 13 9.5
    endloop
  endfacet
  facet normal -1 0 0
    outer loop
      vertex -11 12.618 10.6756
      vertex -11 45 14.5
      vertex -11 12.9021 10.118
    endloop
  endfacet
  facet normal -1 0 0
    outer loop
      vertex -11 11 14.5
      vertex -11 12.618 10.6756
      vertex -11 12.1756 11.118
    endloop
  endfacet
  facet normal -1 0 0
    outer loop
      vertex -11 11 14.5
      vertex -11 12.1756 11.118
      vertex -11 11.618 11.4021
    endloop
  endfacet
  facet normal -1 0 0
    outer loop
      vertex -11 11 14.5
      vertex -11 11.618 11.4021
      vertex -11 11 11.5
    endloop
  endfacet
  facet normal -1 0 0
    outer loop
      vertex -11 12.618 10.6756
      vertex -11 11 14.5
      vertex -11 45 14.5
    endloop
  endfacet
  facet normal -1 0 0
    outer loop
      vertex -11 10.382 11.4021
      vertex -11 11 14.5
      vertex -11 11 11.5
    endloop
  endfacet
  facet normal -1 0 0
    outer loop
      vertex -11 9.08658 14.1194
      vertex -11 10.382 11.4021
      vertex -11 9.82443 11.118
    endloop
  endfacet
  facet normal -1 0 0
    outer loop
      vertex -11 7.46447 13.0355
      vertex -11 9.82443 11.118
      vertex -11 9.38197 10.6756
    endloop
  endfacet
  facet normal -1 0 0
    outer loop
      vertex -11 6.3806 11.4134
      vertex -11 9.38197 10.6756
      vertex -11 9.09789 10.118
    endloop
  endfacet
  facet normal -1 0 0
    outer loop
      vertex -11 10.382 11.4021
      vertex -11 9.08658 14.1194
      vertex -11 11 14.5
    endloop
  endfacet
  facet normal -1 0 0
    outer loop
      vertex -11 6 9.5
      vertex -11 9.09789 10.118
      vertex -11 9 9.5
    endloop
  endfacet
  facet normal -1 0 0
    outer loop
      vertex -11 6 9.5
      vertex -11 9.09789 8.88197
      vertex -11 6.3806 7.58658
    endloop
  endfacet
  facet normal -1 0 0
    outer loop
      vertex -11 9.82443 11.118
      vertex -11 7.46447 13.0355
      vertex -11 9.08658 14.1194
    endloop
  endfacet
  facet normal -1 0 0
    outer loop
      vertex -11 9.09789 8.88197
      vertex -11 6 9.5
      vertex -11 9 9.5
    endloop
  endfacet
  facet normal -1 0 0
    outer loop
      vertex -11 9.38197 10.6756
      vertex -11 6.3806 11.4134
      vertex -11 7.46447 13.0355
    endloop
  endfacet
  facet normal -1 -0 0
    outer loop
      vertex -11 9.09789 10.118
      vertex -11 6 9.5
      vertex -11 6.3806 11.4134
    endloop
  endfacet
  facet normal 1 -4.39942e-07 -8.75099e-08
    outer loop
      vertex -6 7.46447 13.0355
      vertex -6 6 9.5
      vertex -6 6.3806 7.58658
    endloop
  endfacet
  facet normal 1 3.74512e-08 0
    outer loop
      vertex -6 40 14.4407
      vertex -6 14.5355 13.0355
      vertex -6 40 14.2596
    endloop
  endfacet
  facet normal 1 3.45942e-08 5.1774e-08
    outer loop
      vertex -6 14.5355 13.0355
      vertex -6 40 14.4407
      vertex -6 12.9134 14.1194
    endloop
  endfacet
  facet normal 0 -0.55557 0.83147
    outer loop
      vertex -11 9.08658 14.1194
      vertex -6 7.46447 13.0355
      vertex -6 9.08658 14.1194
    endloop
  endfacet
  facet normal 0 -0.55557 0.83147
    outer loop
      vertex -6 7.46447 13.0355
      vertex -11 9.08658 14.1194
      vertex -11 7.46447 13.0355
    endloop
  endfacet
  facet normal 0 -0.83147 -0.55557
    outer loop
      vertex -11 7.46447 5.96447
      vertex -6 6.3806 7.58658
      vertex -11 6.3806 7.58658
    endloop
  endfacet
  facet normal 0 -0.83147 -0.55557
    outer loop
      vertex -6 6.3806 7.58658
      vertex -11 7.46447 5.96447
      vertex -6 7.46447 5.96447
    endloop
  endfacet
  facet normal 0 -0.19509 -0.980785
    outer loop
      vertex -11 9.08658 4.8806
      vertex -6 11 4.5
      vertex -6 9.08658 4.8806
    endloop
  endfacet
  facet normal -0 -0.19509 -0.980785
    outer loop
      vertex -6 11 4.5
      vertex -11 9.08658 4.8806
      vertex -11 11 4.5
    endloop
  endfacet
  facet normal 1 -1.27523e-07 -1.27523e-07
    outer loop
      vertex -6 9.08658 4.8806
      vertex -6 9.43984 8.26655
      vertex -6 9.38197 8.32443
    endloop
  endfacet
  facet normal 1 -2.32592e-07 -1.18512e-07
    outer loop
      vertex -6 9.08658 4.8806
      vertex -6 9.38197 8.32443
      vertex -6 9.09789 8.88197
    endloop
  endfacet
  facet normal 1 -2.74429e-08 -1.37965e-07
    outer loop
      vertex -6 9.43984 8.26655
      vertex -6 9.08658 4.8806
      vertex -6 11 4.5
    endloop
  endfacet
  facet normal 1 4.88781e-07 7.74148e-08
    outer loop
      vertex -6 7.46447 13.0355
      vertex -6 9.09789 8.88197
      vertex -6 9.044 9.22221
    endloop
  endfacet
  facet normal 1 -1.10251e-08 -1.19138e-07
    outer loop
      vertex -6 9.09789 8.88197
      vertex -6 7.46447 13.0355
      vertex -6 9.08658 4.8806
    endloop
  endfacet
  facet normal 3.72105e-08 -0.980785 0.19509
    outer loop
      vertex -6 6.3806 11.4134
      vertex -11 6 9.5
      vertex -6 6 9.5
    endloop
  endfacet
  facet normal 0 -0.980785 0.19509
    outer loop
      vertex -11 6.3806 11.4134
      vertex -11 6 9.5
      vertex -6 6.3806 11.4134
    endloop
  endfacet
  facet normal 0 -0.55557 -0.83147
    outer loop
      vertex -11 7.46447 5.96447
      vertex -6 9.08658 4.8806
      vertex -6 7.46447 5.96447
    endloop
  endfacet
  facet normal -0 -0.55557 -0.83147
    outer loop
      vertex -6 9.08658 4.8806
      vertex -11 7.46447 5.96447
      vertex -11 9.08658 4.8806
    endloop
  endfacet
  facet normal 0 -0.156435 -0.987688
    outer loop
      vertex -11 11 11.5
      vertex -6 11.618 11.4021
      vertex -6 11 11.5
    endloop
  endfacet
  facet normal -0 -0.156435 -0.987688
    outer loop
      vertex -6 11.618 11.4021
      vertex -11 11 11.5
      vertex -11 11.618 11.4021
    endloop
  endfacet
  facet normal 0 -0.453991 -0.891006
    outer loop
      vertex -11 11.618 11.4021
      vertex -6 12.1756 11.118
      vertex -6 11.618 11.4021
    endloop
  endfacet
  facet normal -0 -0.453991 -0.891006
    outer loop
      vertex -6 12.1756 11.118
      vertex -11 11.618 11.4021
      vertex -11 12.1756 11.118
    endloop
  endfacet
  facet normal -0 0.156433 0.987689
    outer loop
      vertex -11 11 7.5
      vertex -6 10.382 7.59789
      vertex -6 11 7.5
    endloop
  endfacet
  facet normal 0 0.156433 0.987689
    outer loop
      vertex -6 10.382 7.59789
      vertex -11 11 7.5
      vertex -11 10.382 7.59789
    endloop
  endfacet
  facet normal 0 -0.987688 0.156434
    outer loop
      vertex -11 12.9021 8.88197
      vertex -6 13 9.5
      vertex -11 13 9.5
    endloop
  endfacet
  facet normal 0 -0.987688 0.156434
    outer loop
      vertex -6 13 9.5
      vertex -11 12.9021 8.88197
      vertex -6 12.9021 8.88197
    endloop
  endfacet
  facet normal 0 0.891006 0.453991
    outer loop
      vertex -6 9.38197 8.32443
      vertex -11 9.09789 8.88197
      vertex -6 9.09789 8.88197
    endloop
  endfacet
  facet normal 0 0.891006 0.453991
    outer loop
      vertex -11 9.09789 8.88197
      vertex -6 9.38197 8.32443
      vertex -11 9.38197 8.32443
    endloop
  endfacet
  facet normal 0 -0.891006 0.453991
    outer loop
      vertex -11 12.618 8.32443
      vertex -6 12.9021 8.88197
      vertex -11 12.9021 8.88197
    endloop
  endfacet
  facet normal 0 -0.891006 0.453991
    outer loop
      vertex -6 12.9021 8.88197
      vertex -11 12.618 8.32443
      vertex -6 12.618 8.32443
    endloop
  endfacet
  facet normal 0 0.891006 -0.453991
    outer loop
      vertex -6 9.09789 10.118
      vertex -11 9.38197 10.6756
      vertex -6 9.38197 10.6756
    endloop
  endfacet
  facet normal 0 0.891006 -0.453991
    outer loop
      vertex -11 9.38197 10.6756
      vertex -6 9.09789 10.118
      vertex -11 9.09789 10.118
    endloop
  endfacet
  facet normal -0 0.453991 0.891006
    outer loop
      vertex -11 10.382 7.59789
      vertex -6 9.82443 7.88197
      vertex -6 10.382 7.59789
    endloop
  endfacet
  facet normal 0 0.453991 0.891006
    outer loop
      vertex -6 9.82443 7.88197
      vertex -11 10.382 7.59789
      vertex -11 9.82443 7.88197
    endloop
  endfacet
  facet normal 0 -0.987688 -0.156435
    outer loop
      vertex -11 13 9.5
      vertex -6 12.9021 10.118
      vertex -11 12.9021 10.118
    endloop
  endfacet
  facet normal 0 -0.987688 -0.156435
    outer loop
      vertex -6 12.9021 10.118
      vertex -11 13 9.5
      vertex -6 13 9.5
    endloop
  endfacet
  facet normal 0 -0.156433 0.987689
    outer loop
      vertex -11 11.618 7.59789
      vertex -6 11 7.5
      vertex -6 11.618 7.59789
    endloop
  endfacet
  facet normal 0 -0.156433 0.987689
    outer loop
      vertex -6 11 7.5
      vertex -11 11.618 7.59789
      vertex -11 11 7.5
    endloop
  endfacet
  facet normal 0 0.987689 0.156432
    outer loop
      vertex -6 9.044 9.22221
      vertex -11 9 9.5
      vertex -6 9 9.5
    endloop
  endfacet
  facet normal -0 0.987688 0.156434
    outer loop
      vertex -11 9.09789 8.88197
      vertex -6 9.044 9.22221
      vertex -6 9.09789 8.88197
    endloop
  endfacet
  facet normal 3.79906e-08 0.987689 0.156433
    outer loop
      vertex -6 9.044 9.22221
      vertex -11 9.09789 8.88197
      vertex -11 9 9.5
    endloop
  endfacet
  facet normal 0 0.987689 -0.156433
    outer loop
      vertex -6 9 9.5
      vertex -11 9.09789 10.118
      vertex -6 9.09789 10.118
    endloop
  endfacet
  facet normal 0 0.987689 -0.156433
    outer loop
      vertex -11 9.09789 10.118
      vertex -6 9 9.5
      vertex -11 9 9.5
    endloop
  endfacet
  facet normal 0 -0.707107 -0.707107
    outer loop
      vertex -11 12.618 10.6756
      vertex -6 12.1756 11.118
      vertex -11 12.1756 11.118
    endloop
  endfacet
  facet normal 0 -0.707107 -0.707107
    outer loop
      vertex -6 12.1756 11.118
      vertex -11 12.618 10.6756
      vertex -6 12.618 10.6756
    endloop
  endfacet
  facet normal 0 -0.891006 -0.453991
    outer loop
      vertex -11 12.9021 10.118
      vertex -6 12.618 10.6756
      vertex -11 12.618 10.6756
    endloop
  endfacet
  facet normal 0 -0.891006 -0.453991
    outer loop
      vertex -6 12.618 10.6756
      vertex -11 12.9021 10.118
      vertex -6 12.9021 10.118
    endloop
  endfacet
  facet normal 0 -0.707107 0.707107
    outer loop
      vertex -11 12.1756 7.88197
      vertex -6 12.618 8.32443
      vertex -11 12.618 8.32443
    endloop
  endfacet
  facet normal 0 -0.707107 0.707107
    outer loop
      vertex -6 12.618 8.32443
      vertex -11 12.1756 7.88197
      vertex -6 12.1756 7.88197
    endloop
  endfacet
  facet normal 0 -0.453991 0.891006
    outer loop
      vertex -11 12.1756 7.88197
      vertex -6 11.618 7.59789
      vertex -6 12.1756 7.88197
    endloop
  endfacet
  facet normal 0 -0.453991 0.891006
    outer loop
      vertex -6 11.618 7.59789
      vertex -11 12.1756 7.88197
      vertex -11 11.618 7.59789
    endloop
  endfacet
  facet normal 0 0.707107 -0.707107
    outer loop
      vertex -6 9.38197 10.6756
      vertex -11 9.82443 11.118
      vertex -6 9.82443 11.118
    endloop
  endfacet
  facet normal 0 0.707107 -0.707107
    outer loop
      vertex -11 9.82443 11.118
      vertex -6 9.38197 10.6756
      vertex -11 9.38197 10.6756
    endloop
  endfacet
  facet normal 0 0.453991 -0.891006
    outer loop
      vertex -11 9.82443 11.118
      vertex -6 10.382 11.4021
      vertex -6 9.82443 11.118
    endloop
  endfacet
  facet normal 0 0.453991 -0.891006
    outer loop
      vertex -6 10.382 11.4021
      vertex -11 9.82443 11.118
      vertex -11 10.382 11.4021
    endloop
  endfacet
  facet normal 0 0.156434 -0.987688
    outer loop
      vertex -11 10.382 11.4021
      vertex -6 11 11.5
      vertex -6 10.382 11.4021
    endloop
  endfacet
  facet normal 0 0.156434 -0.987688
    outer loop
      vertex -6 11 11.5
      vertex -11 10.382 11.4021
      vertex -11 11 11.5
    endloop
  endfacet
  facet normal 0 0.707107 0.707107
    outer loop
      vertex -6 9.43984 8.26655
      vertex -11 9.38197 8.32443
      vertex -6 9.38197 8.32443
    endloop
  endfacet
  facet normal -0 0.707107 0.707107
    outer loop
      vertex -11 9.82443 7.88197
      vertex -6 9.43984 8.26655
      vertex -6 9.82443 7.88197
    endloop
  endfacet
  facet normal 0 0.707107 0.707107
    outer loop
      vertex -6 9.43984 8.26655
      vertex -11 9.82443 7.88197
      vertex -11 9.38197 8.32443
    endloop
  endfacet
  facet normal 0 -0.980785 -0.19509
    outer loop
      vertex 40.5 6 9.5
      vertex 35.5 6.3806 7.58658
      vertex 40.5 6.3806 7.58658
    endloop
  endfacet
  facet normal 1 0 0
    outer loop
      vertex 40.5 45 14.5
      vertex 40.5 13 9.5
      vertex 40.5 45 4.5
    endloop
  endfacet
  facet normal 1 0 0
    outer loop
      vertex 40.5 45 14.5
      vertex 40.5 12.9021 10.118
      vertex 40.5 13 9.5
    endloop
  endfacet
  facet normal 1 0 0
    outer loop
      vertex 40.5 45 14.5
      vertex 40.5 12.618 10.6756
      vertex 40.5 12.9021 10.118
    endloop
  endfacet
  facet normal 1 -0 0
    outer loop
      vertex 40.5 11 14.5
      vertex 40.5 12.618 10.6756
      vertex 40.5 45 14.5
    endloop
  endfacet
  facet normal 1 0 0
    outer loop
      vertex 40.5 12.618 10.6756
      vertex 40.5 11 14.5
      vertex 40.5 12.1756 11.118
    endloop
  endfacet
  facet normal 1 0 0
    outer loop
      vertex 40.5 12.1756 11.118
      vertex 40.5 11 14.5
      vertex 40.5 11.618 11.4021
    endloop
  endfacet
  facet normal 1 0 0
    outer loop
      vertex 40.5 11 14.5
      vertex 40.5 11 11.5
      vertex 40.5 11.618 11.4021
    endloop
  endfacet
  facet normal 1 0 0
    outer loop
      vertex 40.5 11 14.5
      vertex 40.5 10.382 11.4021
      vertex 40.5 11 11.5
    endloop
  endfacet
  facet normal 1 -0 0
    outer loop
      vertex 40.5 9.08658 14.1194
      vertex 40.5 10.382 11.4021
      vertex 40.5 11 14.5
    endloop
  endfacet
  facet normal 1 0 0
    outer loop
      vertex 40.5 10.382 11.4021
      vertex 40.5 9.08658 14.1194
      vertex 40.5 9.82443 11.118
    endloop
  endfacet
  facet normal 1 -0 0
    outer loop
      vertex 40.5 7.46447 13.0355
      vertex 40.5 9.82443 11.118
      vertex 40.5 9.08658 14.1194
    endloop
  endfacet
  facet normal 1 0 0
    outer loop
      vertex 40.5 9.82443 11.118
      vertex 40.5 7.46447 13.0355
      vertex 40.5 9.38197 10.6756
    endloop
  endfacet
  facet normal 1 -0 0
    outer loop
      vertex 40.5 6.3806 11.4134
      vertex 40.5 9.38197 10.6756
      vertex 40.5 7.46447 13.0355
    endloop
  endfacet
  facet normal 1 0 0
    outer loop
      vertex 40.5 9.38197 10.6756
      vertex 40.5 6.3806 11.4134
      vertex 40.5 9.09789 10.118
    endloop
  endfacet
  facet normal 1 -0 0
    outer loop
      vertex 40.5 12.9021 8.88197
      vertex 40.5 45 4.5
      vertex 40.5 13 9.5
    endloop
  endfacet
  facet normal 1 -0 0
    outer loop
      vertex 40.5 12.618 8.32443
      vertex 40.5 45 4.5
      vertex 40.5 12.9021 8.88197
    endloop
  endfacet
  facet normal 1 0 0
    outer loop
      vertex 40.5 11 4.5
      vertex 40.5 12.618 8.32443
      vertex 40.5 12.1756 7.88197
    endloop
  endfacet
  facet normal 1 0 0
    outer loop
      vertex 40.5 11 4.5
      vertex 40.5 12.1756 7.88197
      vertex 40.5 11.618 7.59789
    endloop
  endfacet
  facet normal 1 0 0
    outer loop
      vertex 40.5 11 4.5
      vertex 40.5 11.618 7.59789
      vertex 40.5 11 7.5
    endloop
  endfacet
  facet normal 1 0 0
    outer loop
      vertex 40.5 12.618 8.32443
      vertex 40.5 11 4.5
      vertex 40.5 45 4.5
    endloop
  endfacet
  facet normal 1 0 0
    outer loop
      vertex 40.5 10.382 7.59789
      vertex 40.5 11 4.5
      vertex 40.5 11 7.5
    endloop
  endfacet
  facet normal 1 0 0
    outer loop
      vertex 40.5 9.08658 4.8806
      vertex 40.5 10.382 7.59789
      vertex 40.5 9.82443 7.88197
    endloop
  endfacet
  facet normal 1 0 0
    outer loop
      vertex 40.5 7.46447 5.96447
      vertex 40.5 9.82443 7.88197
      vertex 40.5 9.38197 8.32443
    endloop
  endfacet
  facet normal 1 0 0
    outer loop
      vertex 40.5 6.3806 7.58658
      vertex 40.5 9.38197 8.32443
      vertex 40.5 9.09789 8.88197
    endloop
  endfacet
  facet normal 1 0 0
    outer loop
      vertex 40.5 10.382 7.59789
      vertex 40.5 9.08658 4.8806
      vertex 40.5 11 4.5
    endloop
  endfacet
  facet normal 1 -0 0
    outer loop
      vertex 40.5 6 9.5
      vertex 40.5 9.09789 8.88197
      vertex 40.5 9 9.5
    endloop
  endfacet
  facet normal 1 0 0
    outer loop
      vertex 40.5 6 9.5
      vertex 40.5 9.09789 10.118
      vertex 40.5 6.3806 11.4134
    endloop
  endfacet
  facet normal 1 0 0
    outer loop
      vertex 40.5 9.82443 7.88197
      vertex 40.5 7.46447 5.96447
      vertex 40.5 9.08658 4.8806
    endloop
  endfacet
  facet normal 1 0 0
    outer loop
      vertex 40.5 9.09789 10.118
      vertex 40.5 6 9.5
      vertex 40.5 9 9.5
    endloop
  endfacet
  facet normal 1 0 0
    outer loop
      vertex 40.5 9.38197 8.32443
      vertex 40.5 6.3806 7.58658
      vertex 40.5 7.46447 5.96447
    endloop
  endfacet
  facet normal 1 0 0
    outer loop
      vertex 40.5 9.09789 8.88197
      vertex 40.5 6 9.5
      vertex 40.5 6.3806 7.58658
    endloop
  endfacet
  facet normal 0 -0.83147 0.55557
    outer loop
      vertex 35.5 6.3806 11.4134
      vertex 40.5 7.46447 13.0355
      vertex 35.5 7.46447 13.0355
    endloop
  endfacet
  facet normal 0 -0.83147 0.55557
    outer loop
      vertex 40.5 7.46447 13.0355
      vertex 35.5 6.3806 11.4134
      vertex 40.5 6.3806 11.4134
    endloop
  endfacet
  facet normal -3.72105e-08 -0.980785 -0.19509
    outer loop
      vertex 40.5 6 9.5
      vertex 35.5 6 9.5
      vertex 35.5 6.3806 7.58658
    endloop
  endfacet
  facet normal -1 0 0
    outer loop
      vertex 35.5 40 4.5
      vertex 35.5 13 9.5
      vertex 35.5 40 14.5
    endloop
  endfacet
  facet normal -1 0 0
    outer loop
      vertex 35.5 40 4.5
      vertex 35.5 12.9021 8.88197
      vertex 35.5 13 9.5
    endloop
  endfacet
  facet normal -1 0 0
    outer loop
      vertex 35.5 40 4.5
      vertex 35.5 12.618 8.32443
      vertex 35.5 12.9021 8.88197
    endloop
  endfacet
  facet normal -1 0 0
    outer loop
      vertex 35.5 11 4.5
      vertex 35.5 12.618 8.32443
      vertex 35.5 40 4.5
    endloop
  endfacet
  facet normal -1 0 0
    outer loop
      vertex 35.5 12.618 8.32443
      vertex 35.5 11 4.5
      vertex 35.5 12.1756 7.88197
    endloop
  endfacet
  facet normal -1 0 0
    outer loop
      vertex 35.5 12.1756 7.88197
      vertex 35.5 11 4.5
      vertex 35.5 11.618 7.59789
    endloop
  endfacet
  facet normal -1 0 0
    outer loop
      vertex 35.5 11 4.5
      vertex 35.5 11 7.5
      vertex 35.5 11.618 7.59789
    endloop
  endfacet
  facet normal -1 0 0
    outer loop
      vertex 35.5 11 4.5
      vertex 35.5 10.382 7.59789
      vertex 35.5 11 7.5
    endloop
  endfacet
  facet normal -1 0 0
    outer loop
      vertex 35.5 9.08658 4.8806
      vertex 35.5 10.382 7.59789
      vertex 35.5 11 4.5
    endloop
  endfacet
  facet normal -1 -0 0
    outer loop
      vertex 35.5 10.382 7.59789
      vertex 35.5 9.08658 4.8806
      vertex 35.5 9.82443 7.88197
    endloop
  endfacet
  facet normal -1 0 0
    outer loop
      vertex 35.5 7.46447 5.96447
      vertex 35.5 9.82443 7.88197
      vertex 35.5 9.08658 4.8806
    endloop
  endfacet
  facet normal -1 -0 0
    outer loop
      vertex 35.5 9.82443 7.88197
      vertex 35.5 7.46447 5.96447
      vertex 35.5 9.38197 8.32443
    endloop
  endfacet
  facet normal -1 0 0
    outer loop
      vertex 35.5 6.3806 7.58658
      vertex 35.5 9.38197 8.32443
      vertex 35.5 7.46447 5.96447
    endloop
  endfacet
  facet normal -1 -0 0
    outer loop
      vertex 35.5 9.38197 8.32443
      vertex 35.5 6.3806 7.58658
      vertex 35.5 9.09789 8.88197
    endloop
  endfacet
  facet normal -1 0 0
    outer loop
      vertex 35.5 12.9021 10.118
      vertex 35.5 40 14.5
      vertex 35.5 13 9.5
    endloop
  endfacet
  facet normal -1 0 0
    outer loop
      vertex 35.5 12.618 10.6756
      vertex 35.5 40 14.5
      vertex 35.5 12.9021 10.118
    endloop
  endfacet
  facet normal -1 0 0
    outer loop
      vertex 35.5 11 14.5
      vertex 35.5 12.618 10.6756
      vertex 35.5 12.1756 11.118
    endloop
  endfacet
  facet normal -1 0 0
    outer loop
      vertex 35.5 11 14.5
      vertex 35.5 12.1756 11.118
      vertex 35.5 11.618 11.4021
    endloop
  endfacet
  facet normal -1 0 0
    outer loop
      vertex 35.5 11 14.5
      vertex 35.5 11.618 11.4021
      vertex 35.5 11 11.5
    endloop
  endfacet
  facet normal -1 0 0
    outer loop
      vertex 35.5 12.618 10.6756
      vertex 35.5 11 14.5
      vertex 35.5 40 14.5
    endloop
  endfacet
  facet normal -1 0 0
    outer loop
      vertex 35.5 10.382 11.4021
      vertex 35.5 11 14.5
      vertex 35.5 11 11.5
    endloop
  endfacet
  facet normal -1 0 0
    outer loop
      vertex 35.5 9.08658 14.1194
      vertex 35.5 10.382 11.4021
      vertex 35.5 9.82443 11.118
    endloop
  endfacet
  facet normal -1 0 0
    outer loop
      vertex 35.5 7.46447 13.0355
      vertex 35.5 9.82443 11.118
      vertex 35.5 9.38197 10.6756
    endloop
  endfacet
  facet normal -1 0 0
    outer loop
      vertex 35.5 6.3806 11.4134
      vertex 35.5 9.38197 10.6756
      vertex 35.5 9.09789 10.118
    endloop
  endfacet
  facet normal -1 0 0
    outer loop
      vertex 35.5 10.382 11.4021
      vertex 35.5 9.08658 14.1194
      vertex 35.5 11 14.5
    endloop
  endfacet
  facet normal -1 0 0
    outer loop
      vertex 35.5 6 9.5
      vertex 35.5 9.09789 10.118
      vertex 35.5 9 9.5
    endloop
  endfacet
  facet normal -1 0 0
    outer loop
      vertex 35.5 6 9.5
      vertex 35.5 9.09789 8.88197
      vertex 35.5 6.3806 7.58658
    endloop
  endfacet
  facet normal -1 0 0
    outer loop
      vertex 35.5 9.82443 11.118
      vertex 35.5 7.46447 13.0355
      vertex 35.5 9.08658 14.1194
    endloop
  endfacet
  facet normal -1 0 0
    outer loop
      vertex 35.5 9.09789 8.88197
      vertex 35.5 6 9.5
      vertex 35.5 9 9.5
    endloop
  endfacet
  facet normal -1 0 0
    outer loop
      vertex 35.5 9.38197 10.6756
      vertex 35.5 6.3806 11.4134
      vertex 35.5 7.46447 13.0355
    endloop
  endfacet
  facet normal -1 -0 0
    outer loop
      vertex 35.5 9.09789 10.118
      vertex 35.5 6 9.5
      vertex 35.5 6.3806 11.4134
    endloop
  endfacet
  facet normal 0 -0.83147 -0.55557
    outer loop
      vertex 35.5 7.46447 5.96447
      vertex 40.5 6.3806 7.58658
      vertex 35.5 6.3806 7.58658
    endloop
  endfacet
  facet normal 0 -0.83147 -0.55557
    outer loop
      vertex 40.5 6.3806 7.58658
      vertex 35.5 7.46447 5.96447
      vertex 40.5 7.46447 5.96447
    endloop
  endfacet
  facet normal 0 -0.55557 -0.83147
    outer loop
      vertex 35.5 7.46447 5.96447
      vertex 40.5 9.08658 4.8806
      vertex 40.5 7.46447 5.96447
    endloop
  endfacet
  facet normal -0 -0.55557 -0.83147
    outer loop
      vertex 40.5 9.08658 4.8806
      vertex 35.5 7.46447 5.96447
      vertex 35.5 9.08658 4.8806
    endloop
  endfacet
  facet normal 3.72105e-08 -0.980785 0.19509
    outer loop
      vertex 40.5 6.3806 11.4134
      vertex 35.5 6 9.5
      vertex 40.5 6 9.5
    endloop
  endfacet
  facet normal 0 -0.980785 0.19509
    outer loop
      vertex 35.5 6.3806 11.4134
      vertex 35.5 6 9.5
      vertex 40.5 6.3806 11.4134
    endloop
  endfacet
  facet normal 0 -0.55557 0.83147
    outer loop
      vertex 35.5 9.08658 14.1194
      vertex 40.5 7.46447 13.0355
      vertex 40.5 9.08658 14.1194
    endloop
  endfacet
  facet normal 0 -0.55557 0.83147
    outer loop
      vertex 40.5 7.46447 13.0355
      vertex 35.5 9.08658 14.1194
      vertex 35.5 7.46447 13.0355
    endloop
  endfacet
  facet normal 0 -0.195091 0.980785
    outer loop
      vertex 35.5 11 14.5
      vertex 40.5 9.08658 14.1194
      vertex 40.5 11 14.5
    endloop
  endfacet
  facet normal 0 -0.195091 0.980785
    outer loop
      vertex 40.5 9.08658 14.1194
      vertex 35.5 11 14.5
      vertex 35.5 9.08658 14.1194
    endloop
  endfacet
  facet normal 0 -0.19509 -0.980785
    outer loop
      vertex 35.5 9.08658 4.8806
      vertex 40.5 11 4.5
      vertex 40.5 9.08658 4.8806
    endloop
  endfacet
  facet normal -0 -0.19509 -0.980785
    outer loop
      vertex 40.5 11 4.5
      vertex 35.5 9.08658 4.8806
      vertex 35.5 11 4.5
    endloop
  endfacet
  facet normal 0 -0.156435 -0.987688
    outer loop
      vertex 35.5 11 11.5
      vertex 40.5 11.618 11.4021
      vertex 40.5 11 11.5
    endloop
  endfacet
  facet normal -0 -0.156435 -0.987688
    outer loop
      vertex 40.5 11.618 11.4021
      vertex 35.5 11 11.5
      vertex 35.5 11.618 11.4021
    endloop
  endfacet
  facet normal -0 0.156433 0.987689
    outer loop
      vertex 35.5 11 7.5
      vertex 40.5 10.382 7.59789
      vertex 40.5 11 7.5
    endloop
  endfacet
  facet normal 0 0.156433 0.987689
    outer loop
      vertex 40.5 10.382 7.59789
      vertex 35.5 11 7.5
      vertex 35.5 10.382 7.59789
    endloop
  endfacet
  facet normal 0 0.891006 -0.453991
    outer loop
      vertex 40.5 9.09789 10.118
      vertex 35.5 9.38197 10.6756
      vertex 40.5 9.38197 10.6756
    endloop
  endfacet
  facet normal 0 0.891006 -0.453991
    outer loop
      vertex 35.5 9.38197 10.6756
      vertex 40.5 9.09789 10.118
      vertex 35.5 9.09789 10.118
    endloop
  endfacet
  facet normal 0 0.987689 -0.156433
    outer loop
      vertex 40.5 9 9.5
      vertex 35.5 9.09789 10.118
      vertex 40.5 9.09789 10.118
    endloop
  endfacet
  facet normal 0 0.987689 -0.156433
    outer loop
      vertex 35.5 9.09789 10.118
      vertex 40.5 9 9.5
      vertex 35.5 9 9.5
    endloop
  endfacet
  facet normal 0 -0.987688 0.156434
    outer loop
      vertex 35.5 12.9021 8.88197
      vertex 40.5 13 9.5
      vertex 35.5 13 9.5
    endloop
  endfacet
  facet normal 0 -0.987688 0.156434
    outer loop
      vertex 40.5 13 9.5
      vertex 35.5 12.9021 8.88197
      vertex 40.5 12.9021 8.88197
    endloop
  endfacet
  facet normal 0 -0.987688 -0.156435
    outer loop
      vertex 35.5 13 9.5
      vertex 40.5 12.9021 10.118
      vertex 35.5 12.9021 10.118
    endloop
  endfacet
  facet normal 0 -0.987688 -0.156435
    outer loop
      vertex 40.5 12.9021 10.118
      vertex 35.5 13 9.5
      vertex 40.5 13 9.5
    endloop
  endfacet
  facet normal 0 0.453991 -0.891006
    outer loop
      vertex 35.5 9.82443 11.118
      vertex 40.5 10.382 11.4021
      vertex 40.5 9.82443 11.118
    endloop
  endfacet
  facet normal 0 0.453991 -0.891006
    outer loop
      vertex 40.5 10.382 11.4021
      vertex 35.5 9.82443 11.118
      vertex 35.5 10.382 11.4021
    endloop
  endfacet
  facet normal 0 -0.453991 -0.891006
    outer loop
      vertex 35.5 11.618 11.4021
      vertex 40.5 12.1756 11.118
      vertex 40.5 11.618 11.4021
    endloop
  endfacet
  facet normal -0 -0.453991 -0.891006
    outer loop
      vertex 40.5 12.1756 11.118
      vertex 35.5 11.618 11.4021
      vertex 35.5 12.1756 11.118
    endloop
  endfacet
  facet normal 0 -0.156433 0.987689
    outer loop
      vertex 35.5 11.618 7.59789
      vertex 40.5 11 7.5
      vertex 40.5 11.618 7.59789
    endloop
  endfacet
  facet normal 0 -0.156433 0.987689
    outer loop
      vertex 40.5 11 7.5
      vertex 35.5 11.618 7.59789
      vertex 35.5 11 7.5
    endloop
  endfacet
  facet normal 0 -0.891006 0.453991
    outer loop
      vertex 35.5 12.618 8.32443
      vertex 40.5 12.9021 8.88197
      vertex 35.5 12.9021 8.88197
    endloop
  endfacet
  facet normal 0 -0.891006 0.453991
    outer loop
      vertex 40.5 12.9021 8.88197
      vertex 35.5 12.618 8.32443
      vertex 40.5 12.618 8.32443
    endloop
  endfacet
  facet normal 0 0.707107 -0.707107
    outer loop
      vertex 40.5 9.38197 10.6756
      vertex 35.5 9.82443 11.118
      vertex 40.5 9.82443 11.118
    endloop
  endfacet
  facet normal 0 0.707107 -0.707107
    outer loop
      vertex 35.5 9.82443 11.118
      vertex 40.5 9.38197 10.6756
      vertex 35.5 9.38197 10.6756
    endloop
  endfacet
  facet normal 0 0.987689 0.156433
    outer loop
      vertex 40.5 9.09789 8.88197
      vertex 35.5 9 9.5
      vertex 40.5 9 9.5
    endloop
  endfacet
  facet normal 0 0.987689 0.156433
    outer loop
      vertex 35.5 9 9.5
      vertex 40.5 9.09789 8.88197
      vertex 35.5 9.09789 8.88197
    endloop
  endfacet
  facet normal -0 0.453991 0.891006
    outer loop
      vertex 35.5 10.382 7.59789
      vertex 40.5 9.82443 7.88197
      vertex 40.5 10.382 7.59789
    endloop
  endfacet
  facet normal 0 0.453991 0.891006
    outer loop
      vertex 40.5 9.82443 7.88197
      vertex 35.5 10.382 7.59789
      vertex 35.5 9.82443 7.88197
    endloop
  endfacet
  facet normal 0 0.891006 0.453991
    outer loop
      vertex 40.5 9.38197 8.32443
      vertex 35.5 9.09789 8.88197
      vertex 40.5 9.09789 8.88197
    endloop
  endfacet
  facet normal 0 0.891006 0.453991
    outer loop
      vertex 35.5 9.09789 8.88197
      vertex 40.5 9.38197 8.32443
      vertex 35.5 9.38197 8.32443
    endloop
  endfacet
  facet normal 0 -0.707107 -0.707107
    outer loop
      vertex 35.5 12.618 10.6756
      vertex 40.5 12.1756 11.118
      vertex 35.5 12.1756 11.118
    endloop
  endfacet
  facet normal 0 -0.707107 -0.707107
    outer loop
      vertex 40.5 12.1756 11.118
      vertex 35.5 12.618 10.6756
      vertex 40.5 12.618 10.6756
    endloop
  endfacet
  facet normal 0 -0.891006 -0.453991
    outer loop
      vertex 35.5 12.9021 10.118
      vertex 40.5 12.618 10.6756
      vertex 35.5 12.618 10.6756
    endloop
  endfacet
  facet normal 0 -0.891006 -0.453991
    outer loop
      vertex 40.5 12.618 10.6756
      vertex 35.5 12.9021 10.118
      vertex 40.5 12.9021 10.118
    endloop
  endfacet
  facet normal 0 -0.707107 0.707107
    outer loop
      vertex 35.5 12.1756 7.88197
      vertex 40.5 12.618 8.32443
      vertex 35.5 12.618 8.32443
    endloop
  endfacet
  facet normal 0 -0.707107 0.707107
    outer loop
      vertex 40.5 12.618 8.32443
      vertex 35.5 12.1756 7.88197
      vertex 40.5 12.1756 7.88197
    endloop
  endfacet
  facet normal 0 -0.453991 0.891006
    outer loop
      vertex 35.5 12.1756 7.88197
      vertex 40.5 11.618 7.59789
      vertex 40.5 12.1756 7.88197
    endloop
  endfacet
  facet normal 0 -0.453991 0.891006
    outer loop
      vertex 40.5 11.618 7.59789
      vertex 35.5 12.1756 7.88197
      vertex 35.5 11.618 7.59789
    endloop
  endfacet
  facet normal 0 0.156434 -0.987688
    outer loop
      vertex 35.5 10.382 11.4021
      vertex 40.5 11 11.5
      vertex 40.5 10.382 11.4021
    endloop
  endfacet
  facet normal 0 0.156434 -0.987688
    outer loop
      vertex 40.5 11 11.5
      vertex 35.5 10.382 11.4021
      vertex 35.5 11 11.5
    endloop
  endfacet
  facet normal 0 0.707107 0.707107
    outer loop
      vertex 40.5 9.82443 7.88197
      vertex 35.5 9.38197 8.32443
      vertex 40.5 9.38197 8.32443
    endloop
  endfacet
  facet normal 0 0.707107 0.707107
    outer loop
      vertex 35.5 9.38197 8.32443
      vertex 40.5 9.82443 7.88197
      vertex 35.5 9.82443 7.88197
    endloop
  endfacet
  facet normal 0 -1 0
    outer loop
      vertex -6 40 14.4407
      vertex 35.5 40 14.5
      vertex -6 40 14.5
    endloop
  endfacet
  facet normal 0 -1 0
    outer loop
      vertex -6 40 14.2596
      vertex 35.5 40 14.5
      vertex -6 40 14.4407
    endloop
  endfacet
  facet normal 0 -1 0
    outer loop
      vertex -6 40 5.9009
      vertex 35.5 40 14.5
      vertex -6 40 14.2596
    endloop
  endfacet
  facet normal 0 -1 0
    outer loop
      vertex 35.5 40 4.5
      vertex -6 40 5.9009
      vertex -6 40 4.5
    endloop
  endfacet
  facet normal 0 -1 0
    outer loop
      vertex -6 40 5.9009
      vertex 35.5 40 4.5
      vertex 35.5 40 14.5
    endloop
  endfacet
endsolid OpenSCAD_Model
