solid OpenSCAD_Model
  facet normal -1 0 0
    outer loop
      vertex 0 0 0
      vertex 0 34 3
      vertex 0 34 0
    endloop
  endfacet
  facet normal -1 -0 0
    outer loop
      vertex 0 34 3
      vertex 0 0 0
      vertex 0 0 3
    endloop
  endfacet
  facet normal -0 0 1
    outer loop
      vertex 0 34 3
      vertex 4 29.2 3
      vertex 4 34 3
    endloop
  endfacet
  facet normal 0 0 1
    outer loop
      vertex 4 29.2 3
      vertex 0 34 3
      vertex 4 4.8 3
    endloop
  endfacet
  facet normal 0 0 1
    outer loop
      vertex 0 0 3
      vertex 4 4.8 3
      vertex 0 34 3
    endloop
  endfacet
  facet normal 0 0 1
    outer loop
      vertex 4 4.8 3
      vertex 0 0 3
      vertex 4 0 3
    endloop
  endfacet
  facet normal 0 0 1
    outer loop
      vertex 11.2806 12.9134 3
      vertex 4 4.8 3
      vertex 10.9 11 3
    endloop
  endfacet
  facet normal 0 0 1
    outer loop
      vertex 10.9 11 3
      vertex 4 4.8 3
      vertex 8.75 4.8 3
    endloop
  endfacet
  facet normal 0 0 1
    outer loop
      vertex 8.75 29.2 3
      vertex 12 29.2 3
      vertex 12 34 3
    endloop
  endfacet
  facet normal 0 0 1
    outer loop
      vertex 12 29.2 3
      vertex 8.75 29.2 3
      vertex 11.2806 12.9134 3
    endloop
  endfacet
  facet normal 0 0 1
    outer loop
      vertex 8.75 29.2 3
      vertex 12 34 3
      vertex 8.75 34 3
    endloop
  endfacet
  facet normal 0 0 1
    outer loop
      vertex 30 29.2 3
      vertex 25 4.8 3
      vertex 30 0 3
    endloop
  endfacet
  facet normal -0 0 1
    outer loop
      vertex 20.5194 12.9134 3
      vertex 25 4.8 3
      vertex 30 29.2 3
    endloop
  endfacet
  facet normal 0 0 1
    outer loop
      vertex 25 4.8 3
      vertex 20.5194 12.9134 3
      vertex 20.9 11 3
    endloop
  endfacet
  facet normal 0 0 1
    outer loop
      vertex 19.4355 14.5355 3
      vertex 30 29.2 3
      vertex 20 29.2 3
    endloop
  endfacet
  facet normal 0 0 1
    outer loop
      vertex 30 29.2 3
      vertex 19.4355 14.5355 3
      vertex 20.5194 12.9134 3
    endloop
  endfacet
  facet normal 0 0 1
    outer loop
      vertex 20 29.2 3
      vertex 17.8134 15.6194 3
      vertex 19.4355 14.5355 3
    endloop
  endfacet
  facet normal 0 0 1
    outer loop
      vertex 20 29.2 3
      vertex 15.9 16 3
      vertex 17.8134 15.6194 3
    endloop
  endfacet
  facet normal -0 0 1
    outer loop
      vertex 12 29.2 3
      vertex 15.9 16 3
      vertex 20 29.2 3
    endloop
  endfacet
  facet normal 0 0 1
    outer loop
      vertex 15.9 16 3
      vertex 12 29.2 3
      vertex 13.9866 15.6194 3
    endloop
  endfacet
  facet normal 0 0 1
    outer loop
      vertex 13.9866 15.6194 3
      vertex 12 29.2 3
      vertex 12.3645 14.5355 3
    endloop
  endfacet
  facet normal 0 0 1
    outer loop
      vertex 12.3645 14.5355 3
      vertex 12 29.2 3
      vertex 11.2806 12.9134 3
    endloop
  endfacet
  facet normal 0 0 1
    outer loop
      vertex 30 0 3
      vertex 25 4.8 3
      vertex 25 0 3
    endloop
  endfacet
  facet normal -0 0 1
    outer loop
      vertex 20.5194 9.08658 3
      vertex 25 4.8 3
      vertex 20.9 11 3
    endloop
  endfacet
  facet normal -0 0 1
    outer loop
      vertex 19.4355 7.46447 3
      vertex 25 4.8 3
      vertex 20.5194 9.08658 3
    endloop
  endfacet
  facet normal -0 0 1
    outer loop
      vertex 17.8134 6.3806 3
      vertex 25 4.8 3
      vertex 19.4355 7.46447 3
    endloop
  endfacet
  facet normal -0 0 1
    outer loop
      vertex 15.9 6 3
      vertex 25 4.8 3
      vertex 17.8134 6.3806 3
    endloop
  endfacet
  facet normal 0 0 1
    outer loop
      vertex 15.9 6 3
      vertex 12 4.8 3
      vertex 25 4.8 3
    endloop
  endfacet
  facet normal 0 0 1
    outer loop
      vertex 13.9866 6.3806 3
      vertex 12 4.8 3
      vertex 15.9 6 3
    endloop
  endfacet
  facet normal 0 0 1
    outer loop
      vertex 12.3645 7.46447 3
      vertex 12 4.8 3
      vertex 13.9866 6.3806 3
    endloop
  endfacet
  facet normal 0 0 1
    outer loop
      vertex 8.75 4.8 3
      vertex 12.3645 7.46447 3
      vertex 11.2806 9.08658 3
    endloop
  endfacet
  facet normal 0 0 1
    outer loop
      vertex 12.3645 7.46447 3
      vertex 8.75 4.8 3
      vertex 12 4.8 3
    endloop
  endfacet
  facet normal 0 0 1
    outer loop
      vertex 8.75 4.8 3
      vertex 11.2806 9.08658 3
      vertex 10.9 11 3
    endloop
  endfacet
  facet normal -0 0 1
    outer loop
      vertex 4 29.2 3
      vertex 11.2806 12.9134 3
      vertex 8.75 29.2 3
    endloop
  endfacet
  facet normal 0 0 1
    outer loop
      vertex 4 4.8 3
      vertex 11.2806 12.9134 3
      vertex 4 29.2 3
    endloop
  endfacet
  facet normal 0 0 1
    outer loop
      vertex 12 4.8 3
      vertex 8.75 4.8 3
      vertex 12 0 3
    endloop
  endfacet
  facet normal 0 0 1
    outer loop
      vertex 12 0 3
      vertex 8.75 4.8 3
      vertex 8.75 0 3
    endloop
  endfacet
  facet normal 0 0 0
    outer loop
      vertex 8.75 34 3
      vertex 12 34 3
      vertex 20 34 3
    endloop
  endfacet
  facet normal 0 0 0
    outer loop
      vertex 0 34 3
      vertex 4 34 3
      vertex 8.75 34 3
    endloop
  endfacet
  facet normal 0 0 0
    outer loop
      vertex 8.75 34 3
      vertex 20 34 3
      vertex 0 34 3
    endloop
  endfacet
  facet normal 1 0 0
    outer loop
      vertex 35 34 16
      vertex 35 13 9.5
      vertex 35 34 0
    endloop
  endfacet
  facet normal 1 0 0
    outer loop
      vertex 35 34 16
      vertex 35 12.9021 10.118
      vertex 35 13 9.5
    endloop
  endfacet
  facet normal 1 0 0
    outer loop
      vertex 35 34 16
      vertex 35 12.618 10.6756
      vertex 35 12.9021 10.118
    endloop
  endfacet
  facet normal 1 0 0
    outer loop
      vertex 35 34 16
      vertex 35 12.1756 11.118
      vertex 35 12.618 10.6756
    endloop
  endfacet
  facet normal 1 0 0
    outer loop
      vertex 35 34 16
      vertex 35 11.618 11.4021
      vertex 35 12.1756 11.118
    endloop
  endfacet
  facet normal 1 -0 0
    outer loop
      vertex 35 0 16
      vertex 35 11.618 11.4021
      vertex 35 34 16
    endloop
  endfacet
  facet normal 1 0 0
    outer loop
      vertex 35 11.618 11.4021
      vertex 35 0 16
      vertex 35 11 11.5
    endloop
  endfacet
  facet normal 1 0 0
    outer loop
      vertex 35 9.09789 10.118
      vertex 35 0 16
      vertex 35 9 9.5
    endloop
  endfacet
  facet normal 1 0 0
    outer loop
      vertex 35 9.38197 10.6756
      vertex 35 0 16
      vertex 35 9.09789 10.118
    endloop
  endfacet
  facet normal 1 0 0
    outer loop
      vertex 35 9.82443 11.118
      vertex 35 0 16
      vertex 35 9.38197 10.6756
    endloop
  endfacet
  facet normal 1 0 0
    outer loop
      vertex 35 10.382 11.4021
      vertex 35 0 16
      vertex 35 9.82443 11.118
    endloop
  endfacet
  facet normal 1 0 0
    outer loop
      vertex 35 11 11.5
      vertex 35 0 16
      vertex 35 10.382 11.4021
    endloop
  endfacet
  facet normal 1 -0 0
    outer loop
      vertex 35 12.9021 8.88197
      vertex 35 34 0
      vertex 35 13 9.5
    endloop
  endfacet
  facet normal 1 -0 0
    outer loop
      vertex 35 12.618 8.32443
      vertex 35 34 0
      vertex 35 12.9021 8.88197
    endloop
  endfacet
  facet normal 1 -0 0
    outer loop
      vertex 35 12.1756 7.88197
      vertex 35 34 0
      vertex 35 12.618 8.32443
    endloop
  endfacet
  facet normal 1 -0 0
    outer loop
      vertex 35 11.618 7.59789
      vertex 35 34 0
      vertex 35 12.1756 7.88197
    endloop
  endfacet
  facet normal 1 0 0
    outer loop
      vertex 35 0 0
      vertex 35 11.618 7.59789
      vertex 35 11 7.5
    endloop
  endfacet
  facet normal 1 0 0
    outer loop
      vertex 35 0 0
      vertex 35 11 7.5
      vertex 35 10.382 7.59789
    endloop
  endfacet
  facet normal 1 0 0
    outer loop
      vertex 35 0 16
      vertex 35 9.09789 8.88197
      vertex 35 9 9.5
    endloop
  endfacet
  facet normal 1 0 0
    outer loop
      vertex 35 0 0
      vertex 35 9.09789 8.88197
      vertex 35 0 16
    endloop
  endfacet
  facet normal 1 0 0
    outer loop
      vertex 35 9.09789 8.88197
      vertex 35 0 0
      vertex 35 9.38197 8.32443
    endloop
  endfacet
  facet normal 1 0 0
    outer loop
      vertex 35 11.618 7.59789
      vertex 35 0 0
      vertex 35 34 0
    endloop
  endfacet
  facet normal 1 0 0
    outer loop
      vertex 35 9.82443 7.88197
      vertex 35 0 0
      vertex 35 10.382 7.59789
    endloop
  endfacet
  facet normal 1 0 0
    outer loop
      vertex 35 9.38197 8.32443
      vertex 35 0 0
      vertex 35 9.82443 7.88197
    endloop
  endfacet
  facet normal 0 0 -1
    outer loop
      vertex 20.5194 12.9134 0
      vertex 35 0 0
      vertex 20.9 11 0
    endloop
  endfacet
  facet normal 0 0 -1
    outer loop
      vertex 35 0 0
      vertex 20.5194 9.08658 0
      vertex 20.9 11 0
    endloop
  endfacet
  facet normal 0 0 -1
    outer loop
      vertex 35 0 0
      vertex 19.4355 7.46447 0
      vertex 20.5194 9.08658 0
    endloop
  endfacet
  facet normal 0 0 -1
    outer loop
      vertex 35 0 0
      vertex 17.8134 6.3806 0
      vertex 19.4355 7.46447 0
    endloop
  endfacet
  facet normal 0 0 -1
    outer loop
      vertex 35 0 0
      vertex 15.9 6 0
      vertex 17.8134 6.3806 0
    endloop
  endfacet
  facet normal 0 0 -1
    outer loop
      vertex 0 0 0
      vertex 15.9 6 0
      vertex 35 0 0
    endloop
  endfacet
  facet normal -0 0 -1
    outer loop
      vertex 11.2806 9.08658 0
      vertex 0 0 0
      vertex 10.9 11 0
    endloop
  endfacet
  facet normal -0 0 -1
    outer loop
      vertex 12.3645 7.46447 0
      vertex 0 0 0
      vertex 11.2806 9.08658 0
    endloop
  endfacet
  facet normal -0 0 -1
    outer loop
      vertex 13.9866 6.3806 0
      vertex 0 0 0
      vertex 12.3645 7.46447 0
    endloop
  endfacet
  facet normal -0 0 -1
    outer loop
      vertex 15.9 6 0
      vertex 0 0 0
      vertex 13.9866 6.3806 0
    endloop
  endfacet
  facet normal 0 0 -1
    outer loop
      vertex 35 0 0
      vertex 20.5194 12.9134 0
      vertex 35 34 0
    endloop
  endfacet
  facet normal 0 0 -1
    outer loop
      vertex 19.4355 14.5355 0
      vertex 35 34 0
      vertex 20.5194 12.9134 0
    endloop
  endfacet
  facet normal 0 0 -1
    outer loop
      vertex 17.8134 15.6194 0
      vertex 35 34 0
      vertex 19.4355 14.5355 0
    endloop
  endfacet
  facet normal 0 0 -1
    outer loop
      vertex 15.9 16 0
      vertex 35 34 0
      vertex 17.8134 15.6194 0
    endloop
  endfacet
  facet normal 0 0 -1
    outer loop
      vertex 0 34 0
      vertex 15.9 16 0
      vertex 13.9866 15.6194 0
    endloop
  endfacet
  facet normal 0 0 -1
    outer loop
      vertex 0 34 0
      vertex 13.9866 15.6194 0
      vertex 12.3645 14.5355 0
    endloop
  endfacet
  facet normal 0 0 -1
    outer loop
      vertex 0 0 0
      vertex 11.2806 12.9134 0
      vertex 10.9 11 0
    endloop
  endfacet
  facet normal 0 0 -1
    outer loop
      vertex 0 34 0
      vertex 11.2806 12.9134 0
      vertex 0 0 0
    endloop
  endfacet
  facet normal 0 0 -1
    outer loop
      vertex 15.9 16 0
      vertex 0 34 0
      vertex 35 34 0
    endloop
  endfacet
  facet normal 0 0 -1
    outer loop
      vertex 11.2806 12.9134 0
      vertex 0 34 0
      vertex 12.3645 14.5355 0
    endloop
  endfacet
  facet normal 0 -1 0
    outer loop
      vertex 0 0 0
      vertex 4 0 3
      vertex 0 0 3
    endloop
  endfacet
  facet normal 0 -1 -0
    outer loop
      vertex 4 0 3
      vertex 0 0 0
      vertex 8.75 0 3
    endloop
  endfacet
  facet normal 0 -1 -0
    outer loop
      vertex 8.75 0 3
      vertex 0 0 0
      vertex 12 0 3
    endloop
  endfacet
  facet normal 0 -1 0
    outer loop
      vertex 35 0 0
      vertex 12 0 3
      vertex 0 0 0
    endloop
  endfacet
  facet normal 0 -1 0
    outer loop
      vertex 12 0 3
      vertex 35 0 0
      vertex 25 0 3
    endloop
  endfacet
  facet normal 0 -1 0
    outer loop
      vertex 4 0 3
      vertex 8.75 0 6
      vertex 4 0 6
    endloop
  endfacet
  facet normal 0 -1 -0
    outer loop
      vertex 8.75 0 6
      vertex 4 0 3
      vertex 8.75 0 3
    endloop
  endfacet
  facet normal 0 -1 0
    outer loop
      vertex 12 0 16
      vertex 25 0 14
      vertex 35 0 16
    endloop
  endfacet
  facet normal 0 -1 0
    outer loop
      vertex 12 0 3
      vertex 25 0 14
      vertex 12 0 16
    endloop
  endfacet
  facet normal 0 -1 -0
    outer loop
      vertex 25 0 14
      vertex 12 0 3
      vertex 25 0 3
    endloop
  endfacet
  facet normal 0 -1 0
    outer loop
      vertex 30 0 14
      vertex 35 0 16
      vertex 25 0 14
    endloop
  endfacet
  facet normal 0 -1 0
    outer loop
      vertex 30 0 3
      vertex 35 0 16
      vertex 30 0 14
    endloop
  endfacet
  facet normal 0 -1 0
    outer loop
      vertex 30 0 3
      vertex 35 0 0
      vertex 35 0 16
    endloop
  endfacet
  facet normal 0 -1 0
    outer loop
      vertex 25 0 3
      vertex 35 0 0
      vertex 30 0 3
    endloop
  endfacet
  facet normal 0 1 0
    outer loop
      vertex 35 34 16
      vertex 20 34 3
      vertex 20 34 16
    endloop
  endfacet
  facet normal 0 1 -0
    outer loop
      vertex 35 34 0
      vertex 20 34 3
      vertex 35 34 16
    endloop
  endfacet
  facet normal 0 1 0
    outer loop
      vertex 0 34 0
      vertex 20 34 3
      vertex 35 34 0
    endloop
  endfacet
  facet normal 0 1 0
    outer loop
      vertex 20 34 3
      vertex 0 34 0
      vertex 0 34 3
    endloop
  endfacet
  facet normal -0.980785 -0.19509 0
    outer loop
      vertex 20.9 11 0
      vertex 20.5194 12.9134 3
      vertex 20.5194 12.9134 0
    endloop
  endfacet
  facet normal -0.980785 -0.19509 0
    outer loop
      vertex 20.5194 12.9134 3
      vertex 20.9 11 0
      vertex 20.9 11 3
    endloop
  endfacet
  facet normal 0.195091 -0.980785 0
    outer loop
      vertex 13.9866 15.6194 0
      vertex 15.9 16 3
      vertex 13.9866 15.6194 3
    endloop
  endfacet
  facet normal 0.195091 -0.980785 0
    outer loop
      vertex 15.9 16 3
      vertex 13.9866 15.6194 0
      vertex 15.9 16 0
    endloop
  endfacet
  facet normal -0.19509 0.980785 0
    outer loop
      vertex 17.8134 6.3806 0
      vertex 15.9 6 3
      vertex 17.8134 6.3806 3
    endloop
  endfacet
  facet normal -0.19509 0.980785 0
    outer loop
      vertex 15.9 6 3
      vertex 17.8134 6.3806 0
      vertex 15.9 6 0
    endloop
  endfacet
  facet normal -0.55557 0.83147 0
    outer loop
      vertex 19.4355 7.46447 0
      vertex 17.8134 6.3806 3
      vertex 19.4355 7.46447 3
    endloop
  endfacet
  facet normal -0.55557 0.83147 0
    outer loop
      vertex 17.8134 6.3806 3
      vertex 19.4355 7.46447 0
      vertex 17.8134 6.3806 0
    endloop
  endfacet
  facet normal -0.55557 -0.83147 0
    outer loop
      vertex 17.8134 15.6194 0
      vertex 19.4355 14.5355 3
      vertex 17.8134 15.6194 3
    endloop
  endfacet
  facet normal -0.55557 -0.83147 -0
    outer loop
      vertex 19.4355 14.5355 3
      vertex 17.8134 15.6194 0
      vertex 19.4355 14.5355 0
    endloop
  endfacet
  facet normal -0.83147 -0.55557 0
    outer loop
      vertex 20.5194 12.9134 0
      vertex 19.4355 14.5355 3
      vertex 19.4355 14.5355 0
    endloop
  endfacet
  facet normal -0.83147 -0.55557 0
    outer loop
      vertex 19.4355 14.5355 3
      vertex 20.5194 12.9134 0
      vertex 20.5194 12.9134 3
    endloop
  endfacet
  facet normal -0.195091 -0.980785 0
    outer loop
      vertex 15.9 16 0
      vertex 17.8134 15.6194 3
      vertex 15.9 16 3
    endloop
  endfacet
  facet normal -0.195091 -0.980785 -0
    outer loop
      vertex 17.8134 15.6194 3
      vertex 15.9 16 0
      vertex 17.8134 15.6194 0
    endloop
  endfacet
  facet normal 0.83147 -0.55557 0
    outer loop
      vertex 11.2806 12.9134 3
      vertex 12.3645 14.5355 0
      vertex 12.3645 14.5355 3
    endloop
  endfacet
  facet normal 0.83147 -0.55557 0
    outer loop
      vertex 12.3645 14.5355 0
      vertex 11.2806 12.9134 3
      vertex 11.2806 12.9134 0
    endloop
  endfacet
  facet normal 0.980785 -0.19509 0
    outer loop
      vertex 10.9 11 3
      vertex 11.2806 12.9134 0
      vertex 11.2806 12.9134 3
    endloop
  endfacet
  facet normal 0.980785 -0.19509 0
    outer loop
      vertex 11.2806 12.9134 0
      vertex 10.9 11 3
      vertex 10.9 11 0
    endloop
  endfacet
  facet normal 0.55557 -0.83147 0
    outer loop
      vertex 12.3645 14.5355 0
      vertex 13.9866 15.6194 3
      vertex 12.3645 14.5355 3
    endloop
  endfacet
  facet normal 0.55557 -0.83147 0
    outer loop
      vertex 13.9866 15.6194 3
      vertex 12.3645 14.5355 0
      vertex 13.9866 15.6194 0
    endloop
  endfacet
  facet normal -0.980785 0.19509 0
    outer loop
      vertex 20.5194 9.08658 0
      vertex 20.9 11 3
      vertex 20.9 11 0
    endloop
  endfacet
  facet normal -0.980785 0.19509 0
    outer loop
      vertex 20.9 11 3
      vertex 20.5194 9.08658 0
      vertex 20.5194 9.08658 3
    endloop
  endfacet
  facet normal 0.19509 0.980785 -0
    outer loop
      vertex 15.9 6 0
      vertex 13.9866 6.3806 3
      vertex 15.9 6 3
    endloop
  endfacet
  facet normal 0.19509 0.980785 0
    outer loop
      vertex 13.9866 6.3806 3
      vertex 15.9 6 0
      vertex 13.9866 6.3806 0
    endloop
  endfacet
  facet normal 0.83147 0.55557 0
    outer loop
      vertex 12.3645 7.46447 3
      vertex 11.2806 9.08658 0
      vertex 11.2806 9.08658 3
    endloop
  endfacet
  facet normal 0.83147 0.55557 0
    outer loop
      vertex 11.2806 9.08658 0
      vertex 12.3645 7.46447 3
      vertex 12.3645 7.46447 0
    endloop
  endfacet
  facet normal 0.980785 0.19509 0
    outer loop
      vertex 11.2806 9.08658 3
      vertex 10.9 11 0
      vertex 10.9 11 3
    endloop
  endfacet
  facet normal 0.980785 0.19509 0
    outer loop
      vertex 10.9 11 0
      vertex 11.2806 9.08658 3
      vertex 11.2806 9.08658 0
    endloop
  endfacet
  facet normal -0.83147 0.55557 0
    outer loop
      vertex 19.4355 7.46447 0
      vertex 20.5194 9.08658 3
      vertex 20.5194 9.08658 0
    endloop
  endfacet
  facet normal -0.83147 0.55557 0
    outer loop
      vertex 20.5194 9.08658 3
      vertex 19.4355 7.46447 0
      vertex 19.4355 7.46447 3
    endloop
  endfacet
  facet normal 0.55557 0.83147 -0
    outer loop
      vertex 13.9866 6.3806 0
      vertex 12.3645 7.46447 3
      vertex 13.9866 6.3806 3
    endloop
  endfacet
  facet normal 0.55557 0.83147 0
    outer loop
      vertex 12.3645 7.46447 3
      vertex 13.9866 6.3806 0
      vertex 12.3645 7.46447 0
    endloop
  endfacet
  facet normal -1 0 0
    outer loop
      vertex 12 4.8 3
      vertex 12 4 9.5
      vertex 12 4.8 16
    endloop
  endfacet
  facet normal -1 0 0
    outer loop
      vertex 12 4.8 3
      vertex 12 3.56066 8.43934
      vertex 12 4 9.5
    endloop
  endfacet
  facet normal -1 0 0
    outer loop
      vertex 12 4.8 3
      vertex 12 2.5 8
      vertex 12 3.56066 8.43934
    endloop
  endfacet
  facet normal -1 0 0
    outer loop
      vertex 12 0 3
      vertex 12 2.5 8
      vertex 12 4.8 3
    endloop
  endfacet
  facet normal -1 -0 0
    outer loop
      vertex 12 1.43934 8.43934
      vertex 12 0 3
      vertex 12 1 9.5
    endloop
  endfacet
  facet normal -1 -0 0
    outer loop
      vertex 12 2.5 8
      vertex 12 0 3
      vertex 12 1.43934 8.43934
    endloop
  endfacet
  facet normal -1 0 0
    outer loop
      vertex 12 3.56066 10.5607
      vertex 12 4.8 16
      vertex 12 4 9.5
    endloop
  endfacet
  facet normal -1 0 0
    outer loop
      vertex 12 2.5 11
      vertex 12 4.8 16
      vertex 12 3.56066 10.5607
    endloop
  endfacet
  facet normal -1 0 0
    outer loop
      vertex 12 0 16
      vertex 12 2.5 11
      vertex 12 1.43934 10.5607
    endloop
  endfacet
  facet normal -1 0 0
    outer loop
      vertex 12 2.5 11
      vertex 12 0 16
      vertex 12 4.8 16
    endloop
  endfacet
  facet normal -1 0 0
    outer loop
      vertex 12 1 9.5
      vertex 12 0 16
      vertex 12 1.43934 10.5607
    endloop
  endfacet
  facet normal -1 0 0
    outer loop
      vertex 12 0 16
      vertex 12 1 9.5
      vertex 12 0 3
    endloop
  endfacet
  facet normal 0 0 1
    outer loop
      vertex 35 34 16
      vertex 30 29.2 16
      vertex 35 0 16
    endloop
  endfacet
  facet normal -0 0 1
    outer loop
      vertex 20 34 16
      vertex 30 29.2 16
      vertex 35 34 16
    endloop
  endfacet
  facet normal 0 0 1
    outer loop
      vertex 20 34 16
      vertex 20 29.2 16
      vertex 30 29.2 16
    endloop
  endfacet
  facet normal -0 0 1
    outer loop
      vertex 12 34 16
      vertex 20 29.2 16
      vertex 20 34 16
    endloop
  endfacet
  facet normal 0 0 1
    outer loop
      vertex 20 29.2 16
      vertex 12 34 16
      vertex 12 29.2 16
    endloop
  endfacet
  facet normal -0 0 1
    outer loop
      vertex 30 4.8 16
      vertex 35 0 16
      vertex 30 29.2 16
    endloop
  endfacet
  facet normal 0 0 1
    outer loop
      vertex 12 0 16
      vertex 30 4.8 16
      vertex 12 4.8 16
    endloop
  endfacet
  facet normal 0 0 1
    outer loop
      vertex 30 4.8 16
      vertex 12 0 16
      vertex 35 0 16
    endloop
  endfacet
  facet normal 1 -0 0
    outer loop
      vertex 25 0 14
      vertex 25 4.8 3
      vertex 25 4.8 14
    endloop
  endfacet
  facet normal 1 0 0
    outer loop
      vertex 25 4.8 3
      vertex 25 0 14
      vertex 25 0 3
    endloop
  endfacet
  facet normal 0 1 0
    outer loop
      vertex 25 4.8 14
      vertex 30 4.8 16
      vertex 30 4.8 14
    endloop
  endfacet
  facet normal 0 1 0
    outer loop
      vertex 30 4.8 16
      vertex 25 4.8 14
      vertex 12 4.8 16
    endloop
  endfacet
  facet normal 0 1 0
    outer loop
      vertex 12 4.8 3
      vertex 25 4.8 14
      vertex 25 4.8 3
    endloop
  endfacet
  facet normal 0 1 0
    outer loop
      vertex 25 4.8 14
      vertex 12 4.8 3
      vertex 12 4.8 16
    endloop
  endfacet
  facet normal 0 -0.382684 -0.923879
    outer loop
      vertex 12 2.5 11
      vertex 17 3.56066 10.5607
      vertex 17 2.5 11
    endloop
  endfacet
  facet normal -0 -0.382684 -0.923879
    outer loop
      vertex 17 3.56066 10.5607
      vertex 12 2.5 11
      vertex 12 3.56066 10.5607
    endloop
  endfacet
  facet normal 0 -0.923879 -0.382684
    outer loop
      vertex 12 4 9.5
      vertex 17 3.56066 10.5607
      vertex 12 3.56066 10.5607
    endloop
  endfacet
  facet normal 0 -0.923879 -0.382684
    outer loop
      vertex 17 3.56066 10.5607
      vertex 12 4 9.5
      vertex 17 4 9.5
    endloop
  endfacet
  facet normal -0 0.382683 0.92388
    outer loop
      vertex 12 2.5 8
      vertex 17 1.43934 8.43934
      vertex 17 2.5 8
    endloop
  endfacet
  facet normal 0 0.382683 0.92388
    outer loop
      vertex 17 1.43934 8.43934
      vertex 12 2.5 8
      vertex 12 1.43934 8.43934
    endloop
  endfacet
  facet normal 0 0.92388 0.382683
    outer loop
      vertex 17 1.43934 8.43934
      vertex 12 1 9.5
      vertex 17 1 9.5
    endloop
  endfacet
  facet normal 0 0.92388 0.382683
    outer loop
      vertex 12 1 9.5
      vertex 17 1.43934 8.43934
      vertex 12 1.43934 8.43934
    endloop
  endfacet
  facet normal 0 -0.923879 0.382684
    outer loop
      vertex 12 3.56066 8.43934
      vertex 17 4 9.5
      vertex 12 4 9.5
    endloop
  endfacet
  facet normal 0 -0.923879 0.382684
    outer loop
      vertex 17 4 9.5
      vertex 12 3.56066 8.43934
      vertex 17 3.56066 8.43934
    endloop
  endfacet
  facet normal -1 0 0
    outer loop
      vertex 17 3.56066 8.43934
      vertex 17 3.56066 10.5607
      vertex 17 4 9.5
    endloop
  endfacet
  facet normal -1 0 0
    outer loop
      vertex 17 2.5 8
      vertex 17 3.56066 10.5607
      vertex 17 3.56066 8.43934
    endloop
  endfacet
  facet normal -1 0 0
    outer loop
      vertex 17 2.5 8
      vertex 17 2.5 11
      vertex 17 3.56066 10.5607
    endloop
  endfacet
  facet normal -1 0 0
    outer loop
      vertex 17 1.43934 8.43934
      vertex 17 2.5 11
      vertex 17 2.5 8
    endloop
  endfacet
  facet normal -1 0 0
    outer loop
      vertex 17 1.43934 8.43934
      vertex 17 1.43934 10.5607
      vertex 17 2.5 11
    endloop
  endfacet
  facet normal -1 0 -0
    outer loop
      vertex 17 1.43934 10.5607
      vertex 17 1.43934 8.43934
      vertex 17 1 9.5
    endloop
  endfacet
  facet normal 0 -0.382684 0.923879
    outer loop
      vertex 12 3.56066 8.43934
      vertex 17 2.5 8
      vertex 17 3.56066 8.43934
    endloop
  endfacet
  facet normal 0 -0.382684 0.923879
    outer loop
      vertex 17 2.5 8
      vertex 12 3.56066 8.43934
      vertex 12 2.5 8
    endloop
  endfacet
  facet normal 0 0.923879 -0.382684
    outer loop
      vertex 17 1 9.5
      vertex 12 1.43934 10.5607
      vertex 17 1.43934 10.5607
    endloop
  endfacet
  facet normal 0 0.923879 -0.382684
    outer loop
      vertex 12 1.43934 10.5607
      vertex 17 1 9.5
      vertex 12 1 9.5
    endloop
  endfacet
  facet normal 0 0.382684 -0.923879
    outer loop
      vertex 12 1.43934 10.5607
      vertex 17 2.5 11
      vertex 17 1.43934 10.5607
    endloop
  endfacet
  facet normal 0 0.382684 -0.923879
    outer loop
      vertex 17 2.5 11
      vertex 12 1.43934 10.5607
      vertex 12 2.5 11
    endloop
  endfacet
  facet normal -1 0 0
    outer loop
      vertex 4 0 3
      vertex 4 4.8 6
      vertex 4 4.8 3
    endloop
  endfacet
  facet normal -1 -0 0
    outer loop
      vertex 4 4.8 6
      vertex 4 0 3
      vertex 4 0 6
    endloop
  endfacet
  facet normal -0 0 1
    outer loop
      vertex 4 4.8 6
      vertex 8.75 0 6
      vertex 8.75 4.8 6
    endloop
  endfacet
  facet normal 0 0 1
    outer loop
      vertex 8.75 0 6
      vertex 4 4.8 6
      vertex 4 0 6
    endloop
  endfacet
  facet normal 1 -0 0
    outer loop
      vertex 8.75 0 6
      vertex 8.75 4.8 3
      vertex 8.75 4.8 6
    endloop
  endfacet
  facet normal 1 0 0
    outer loop
      vertex 8.75 4.8 3
      vertex 8.75 0 6
      vertex 8.75 0 3
    endloop
  endfacet
  facet normal 0 1 -0
    outer loop
      vertex 8.75 4.8 3
      vertex 4 4.8 6
      vertex 8.75 4.8 6
    endloop
  endfacet
  facet normal 0 1 0
    outer loop
      vertex 4 4.8 6
      vertex 8.75 4.8 3
      vertex 4 4.8 3
    endloop
  endfacet
  facet normal -1 0 0
    outer loop
      vertex 12 34 3
      vertex 12 33.2 9.5
      vertex 12 34 16
    endloop
  endfacet
  facet normal -1 0 0
    outer loop
      vertex 12 34 3
      vertex 12 32.7607 8.43934
      vertex 12 33.2 9.5
    endloop
  endfacet
  facet normal -1 0 0
    outer loop
      vertex 12 34 3
      vertex 12 31.7 8
      vertex 12 32.7607 8.43934
    endloop
  endfacet
  facet normal -1 0 0
    outer loop
      vertex 12 29.2 3
      vertex 12 31.7 8
      vertex 12 34 3
    endloop
  endfacet
  facet normal -1 -0 0
    outer loop
      vertex 12 30.6393 8.43934
      vertex 12 29.2 3
      vertex 12 30.2 9.5
    endloop
  endfacet
  facet normal -1 -0 0
    outer loop
      vertex 12 31.7 8
      vertex 12 29.2 3
      vertex 12 30.6393 8.43934
    endloop
  endfacet
  facet normal -1 0 0
    outer loop
      vertex 12 32.7607 10.5607
      vertex 12 34 16
      vertex 12 33.2 9.5
    endloop
  endfacet
  facet normal -1 0 0
    outer loop
      vertex 12 31.7 11
      vertex 12 34 16
      vertex 12 32.7607 10.5607
    endloop
  endfacet
  facet normal -1 0 0
    outer loop
      vertex 12 29.2 16
      vertex 12 31.7 11
      vertex 12 30.6393 10.5607
    endloop
  endfacet
  facet normal -1 0 0
    outer loop
      vertex 12 31.7 11
      vertex 12 29.2 16
      vertex 12 34 16
    endloop
  endfacet
  facet normal -1 0 0
    outer loop
      vertex 12 30.2 9.5
      vertex 12 29.2 16
      vertex 12 30.6393 10.5607
    endloop
  endfacet
  facet normal -1 0 0
    outer loop
      vertex 12 29.2 16
      vertex 12 30.2 9.5
      vertex 12 29.2 3
    endloop
  endfacet
  facet normal 0 -1 0
    outer loop
      vertex 12 29.2 3
      vertex 20 29.2 16
      vertex 12 29.2 16
    endloop
  endfacet
  facet normal 0 -1 -0
    outer loop
      vertex 20 29.2 16
      vertex 12 29.2 3
      vertex 20 29.2 3
    endloop
  endfacet
  facet normal 0 1 -0
    outer loop
      vertex 20 34 3
      vertex 12 34 16
      vertex 20 34 16
    endloop
  endfacet
  facet normal 0 1 0
    outer loop
      vertex 12 34 16
      vertex 20 34 3
      vertex 12 34 3
    endloop
  endfacet
  facet normal 0 -0.382685 -0.923879
    outer loop
      vertex 12 31.7 11
      vertex 17 32.7607 10.5607
      vertex 17 31.7 11
    endloop
  endfacet
  facet normal -0 -0.382685 -0.923879
    outer loop
      vertex 17 32.7607 10.5607
      vertex 12 31.7 11
      vertex 12 32.7607 10.5607
    endloop
  endfacet
  facet normal 0 -0.923879 -0.382686
    outer loop
      vertex 12 33.2 9.5
      vertex 17 32.7607 10.5607
      vertex 12 32.7607 10.5607
    endloop
  endfacet
  facet normal 0 -0.923879 -0.382686
    outer loop
      vertex 17 32.7607 10.5607
      vertex 12 33.2 9.5
      vertex 17 33.2 9.5
    endloop
  endfacet
  facet normal -0 0.382683 0.92388
    outer loop
      vertex 12 31.7 8
      vertex 17 30.6393 8.43934
      vertex 17 31.7 8
    endloop
  endfacet
  facet normal 0 0.382683 0.92388
    outer loop
      vertex 17 30.6393 8.43934
      vertex 12 31.7 8
      vertex 12 30.6393 8.43934
    endloop
  endfacet
  facet normal 0 0.92388 0.382683
    outer loop
      vertex 17 30.6393 8.43934
      vertex 12 30.2 9.5
      vertex 17 30.2 9.5
    endloop
  endfacet
  facet normal 0 0.92388 0.382683
    outer loop
      vertex 12 30.2 9.5
      vertex 17 30.6393 8.43934
      vertex 12 30.6393 8.43934
    endloop
  endfacet
  facet normal 0 -0.923879 0.382685
    outer loop
      vertex 12 32.7607 8.43934
      vertex 17 33.2 9.5
      vertex 12 33.2 9.5
    endloop
  endfacet
  facet normal 0 -0.923879 0.382685
    outer loop
      vertex 17 33.2 9.5
      vertex 12 32.7607 8.43934
      vertex 17 32.7607 8.43934
    endloop
  endfacet
  facet normal -1 0 0
    outer loop
      vertex 17 32.7607 8.43934
      vertex 17 32.7607 10.5607
      vertex 17 33.2 9.5
    endloop
  endfacet
  facet normal -1 0 0
    outer loop
      vertex 17 31.7 8
      vertex 17 32.7607 10.5607
      vertex 17 32.7607 8.43934
    endloop
  endfacet
  facet normal -1 0 0
    outer loop
      vertex 17 31.7 8
      vertex 17 31.7 11
      vertex 17 32.7607 10.5607
    endloop
  endfacet
  facet normal -1 0 0
    outer loop
      vertex 17 30.6393 8.43934
      vertex 17 31.7 11
      vertex 17 31.7 8
    endloop
  endfacet
  facet normal -1 0 0
    outer loop
      vertex 17 30.6393 8.43934
      vertex 17 30.6393 10.5607
      vertex 17 31.7 11
    endloop
  endfacet
  facet normal -1 0 -0
    outer loop
      vertex 17 30.6393 10.5607
      vertex 17 30.6393 8.43934
      vertex 17 30.2 9.5
    endloop
  endfacet
  facet normal 0 -0.382684 0.923879
    outer loop
      vertex 12 32.7607 8.43934
      vertex 17 31.7 8
      vertex 17 32.7607 8.43934
    endloop
  endfacet
  facet normal 0 -0.382684 0.923879
    outer loop
      vertex 17 31.7 8
      vertex 12 32.7607 8.43934
      vertex 12 31.7 8
    endloop
  endfacet
  facet normal 0 0.92388 -0.382683
    outer loop
      vertex 17 30.2 9.5
      vertex 12 30.6393 10.5607
      vertex 17 30.6393 10.5607
    endloop
  endfacet
  facet normal 0 0.92388 -0.382683
    outer loop
      vertex 12 30.6393 10.5607
      vertex 17 30.2 9.5
      vertex 12 30.2 9.5
    endloop
  endfacet
  facet normal 0 0.382684 -0.923879
    outer loop
      vertex 12 30.6393 10.5607
      vertex 17 31.7 11
      vertex 17 30.6393 10.5607
    endloop
  endfacet
  facet normal 0 0.382684 -0.923879
    outer loop
      vertex 17 31.7 11
      vertex 12 30.6393 10.5607
      vertex 12 31.7 11
    endloop
  endfacet
  facet normal -1 0 0
    outer loop
      vertex 4 29.2 3
      vertex 4 34 6
      vertex 4 34 3
    endloop
  endfacet
  facet normal -1 -0 0
    outer loop
      vertex 4 34 6
      vertex 4 29.2 3
      vertex 4 29.2 6
    endloop
  endfacet
  facet normal -0 0 1
    outer loop
      vertex 4 34 6
      vertex 8.75 29.2 6
      vertex 8.75 34 6
    endloop
  endfacet
  facet normal 0 0 1
    outer loop
      vertex 8.75 29.2 6
      vertex 4 34 6
      vertex 4 29.2 6
    endloop
  endfacet
  facet normal 1 -0 0
    outer loop
      vertex 8.75 29.2 6
      vertex 8.75 34 3
      vertex 8.75 34 6
    endloop
  endfacet
  facet normal 1 0 0
    outer loop
      vertex 8.75 34 3
      vertex 8.75 29.2 6
      vertex 8.75 29.2 3
    endloop
  endfacet
  facet normal 0 1 -0
    outer loop
      vertex 8.75 34 3
      vertex 4 34 6
      vertex 8.75 34 6
    endloop
  endfacet
  facet normal 0 1 0
    outer loop
      vertex 4 34 6
      vertex 8.75 34 3
      vertex 4 34 3
    endloop
  endfacet
  facet normal 0 -1 0
    outer loop
      vertex 4 29.2 3
      vertex 8.75 29.2 6
      vertex 4 29.2 6
    endloop
  endfacet
  facet normal 0 -1 -0
    outer loop
      vertex 8.75 29.2 6
      vertex 4 29.2 3
      vertex 8.75 29.2 3
    endloop
  endfacet
  facet normal -1 0 0
    outer loop
      vertex 30 29.2 3
      vertex 30 13 9.5
      vertex 30 29.2 16
    endloop
  endfacet
  facet normal -1 0 0
    outer loop
      vertex 30 29.2 3
      vertex 30 12.9021 8.88197
      vertex 30 13 9.5
    endloop
  endfacet
  facet normal -1 0 0
    outer loop
      vertex 30 29.2 3
      vertex 30 12.618 8.32443
      vertex 30 12.9021 8.88197
    endloop
  endfacet
  facet normal -1 0 0
    outer loop
      vertex 30 29.2 3
      vertex 30 12.1756 7.88197
      vertex 30 12.618 8.32443
    endloop
  endfacet
  facet normal -1 0 0
    outer loop
      vertex 30 29.2 3
      vertex 30 11.618 7.59789
      vertex 30 12.1756 7.88197
    endloop
  endfacet
  facet normal -1 0 0
    outer loop
      vertex 30 29.2 3
      vertex 30 11 7.5
      vertex 30 11.618 7.59789
    endloop
  endfacet
  facet normal -1 0 0
    outer loop
      vertex 30 0 3
      vertex 30 11 7.5
      vertex 30 29.2 3
    endloop
  endfacet
  facet normal -1 0 0
    outer loop
      vertex 30 9.09789 8.88197
      vertex 30 4.8 14
      vertex 30 9 9.5
    endloop
  endfacet
  facet normal -1 0 0
    outer loop
      vertex 30 0 3
      vertex 30 9.09789 8.88197
      vertex 30 9.38197 8.32443
    endloop
  endfacet
  facet normal -1 -0 0
    outer loop
      vertex 30 11 7.5
      vertex 30 0 3
      vertex 30 10.382 7.59789
    endloop
  endfacet
  facet normal -1 0 0
    outer loop
      vertex 30 0 3
      vertex 30 9.82443 7.88197
      vertex 30 10.382 7.59789
    endloop
  endfacet
  facet normal -1 0 0
    outer loop
      vertex 30 0 3
      vertex 30 9.38197 8.32443
      vertex 30 9.82443 7.88197
    endloop
  endfacet
  facet normal -1 -0 0
    outer loop
      vertex 30 9.09789 8.88197
      vertex 30 0 3
      vertex 30 4.8 14
    endloop
  endfacet
  facet normal -1 -0 0
    outer loop
      vertex 30 4.8 14
      vertex 30 0 3
      vertex 30 0 14
    endloop
  endfacet
  facet normal -1 0 0
    outer loop
      vertex 30 12.9021 10.118
      vertex 30 29.2 16
      vertex 30 13 9.5
    endloop
  endfacet
  facet normal -1 0 0
    outer loop
      vertex 30 12.618 10.6756
      vertex 30 29.2 16
      vertex 30 12.9021 10.118
    endloop
  endfacet
  facet normal -1 0 0
    outer loop
      vertex 30 12.1756 11.118
      vertex 30 29.2 16
      vertex 30 12.618 10.6756
    endloop
  endfacet
  facet normal -1 0 0
    outer loop
      vertex 30 11.618 11.4021
      vertex 30 29.2 16
      vertex 30 12.1756 11.118
    endloop
  endfacet
  facet normal -1 0 0
    outer loop
      vertex 30 4.8 16
      vertex 30 11.618 11.4021
      vertex 30 11 11.5
    endloop
  endfacet
  facet normal -1 0 0
    outer loop
      vertex 30 4.8 16
      vertex 30 11 11.5
      vertex 30 10.382 11.4021
    endloop
  endfacet
  facet normal -1 0 0
    outer loop
      vertex 30 4.8 14
      vertex 30 9.09789 10.118
      vertex 30 9 9.5
    endloop
  endfacet
  facet normal -1 0 0
    outer loop
      vertex 30 4.8 14
      vertex 30 9.38197 10.6756
      vertex 30 9.09789 10.118
    endloop
  endfacet
  facet normal -1 0 0
    outer loop
      vertex 30 4.8 14
      vertex 30 9.82443 11.118
      vertex 30 9.38197 10.6756
    endloop
  endfacet
  facet normal -1 0 0
    outer loop
      vertex 30 4.8 14
      vertex 30 10.382 11.4021
      vertex 30 9.82443 11.118
    endloop
  endfacet
  facet normal -1 0 0
    outer loop
      vertex 30 4.8 16
      vertex 30 10.382 11.4021
      vertex 30 4.8 14
    endloop
  endfacet
  facet normal -1 0 0
    outer loop
      vertex 30 11.618 11.4021
      vertex 30 4.8 16
      vertex 30 29.2 16
    endloop
  endfacet
  facet normal 0 0 -1
    outer loop
      vertex 25 0 14
      vertex 30 4.8 14
      vertex 30 0 14
    endloop
  endfacet
  facet normal -0 0 -1
    outer loop
      vertex 30 4.8 14
      vertex 25 0 14
      vertex 25 4.8 14
    endloop
  endfacet
  facet normal 0 -1 0
    outer loop
      vertex 20 29.2 3
      vertex 30 29.2 16
      vertex 20 29.2 16
    endloop
  endfacet
  facet normal 0 -1 -0
    outer loop
      vertex 30 29.2 16
      vertex 20 29.2 3
      vertex 30 29.2 3
    endloop
  endfacet
  facet normal 0 -0.156435 -0.987688
    outer loop
      vertex 30 11 11.5
      vertex 35 11.618 11.4021
      vertex 35 11 11.5
    endloop
  endfacet
  facet normal -0 -0.156435 -0.987688
    outer loop
      vertex 35 11.618 11.4021
      vertex 30 11 11.5
      vertex 30 11.618 11.4021
    endloop
  endfacet
  facet normal 0 -0.453991 -0.891006
    outer loop
      vertex 30 11.618 11.4021
      vertex 35 12.1756 11.118
      vertex 35 11.618 11.4021
    endloop
  endfacet
  facet normal -0 -0.453991 -0.891006
    outer loop
      vertex 35 12.1756 11.118
      vertex 30 11.618 11.4021
      vertex 30 12.1756 11.118
    endloop
  endfacet
  facet normal -0 0.156433 0.987689
    outer loop
      vertex 30 11 7.5
      vertex 35 10.382 7.59789
      vertex 35 11 7.5
    endloop
  endfacet
  facet normal 0 0.156433 0.987689
    outer loop
      vertex 35 10.382 7.59789
      vertex 30 11 7.5
      vertex 30 10.382 7.59789
    endloop
  endfacet
  facet normal 0 -0.987688 0.156434
    outer loop
      vertex 30 12.9021 8.88197
      vertex 35 13 9.5
      vertex 30 13 9.5
    endloop
  endfacet
  facet normal 0 -0.987688 0.156434
    outer loop
      vertex 35 13 9.5
      vertex 30 12.9021 8.88197
      vertex 35 12.9021 8.88197
    endloop
  endfacet
  facet normal 0 -0.891006 0.453991
    outer loop
      vertex 30 12.618 8.32443
      vertex 35 12.9021 8.88197
      vertex 30 12.9021 8.88197
    endloop
  endfacet
  facet normal 0 -0.891006 0.453991
    outer loop
      vertex 35 12.9021 8.88197
      vertex 30 12.618 8.32443
      vertex 35 12.618 8.32443
    endloop
  endfacet
  facet normal 0 0.891006 -0.453991
    outer loop
      vertex 35 9.09789 10.118
      vertex 30 9.38197 10.6756
      vertex 35 9.38197 10.6756
    endloop
  endfacet
  facet normal 0 0.891006 -0.453991
    outer loop
      vertex 30 9.38197 10.6756
      vertex 35 9.09789 10.118
      vertex 30 9.09789 10.118
    endloop
  endfacet
  facet normal -0 0.453991 0.891006
    outer loop
      vertex 30 10.382 7.59789
      vertex 35 9.82443 7.88197
      vertex 35 10.382 7.59789
    endloop
  endfacet
  facet normal 0 0.453991 0.891006
    outer loop
      vertex 35 9.82443 7.88197
      vertex 30 10.382 7.59789
      vertex 30 9.82443 7.88197
    endloop
  endfacet
  facet normal 0 -0.987688 -0.156435
    outer loop
      vertex 30 13 9.5
      vertex 35 12.9021 10.118
      vertex 30 12.9021 10.118
    endloop
  endfacet
  facet normal 0 -0.987688 -0.156435
    outer loop
      vertex 35 12.9021 10.118
      vertex 30 13 9.5
      vertex 35 13 9.5
    endloop
  endfacet
  facet normal 0 -0.156433 0.987689
    outer loop
      vertex 30 11.618 7.59789
      vertex 35 11 7.5
      vertex 35 11.618 7.59789
    endloop
  endfacet
  facet normal 0 -0.156433 0.987689
    outer loop
      vertex 35 11 7.5
      vertex 30 11.618 7.59789
      vertex 30 11 7.5
    endloop
  endfacet
  facet normal 0 0.987689 0.156433
    outer loop
      vertex 35 9.09789 8.88197
      vertex 30 9 9.5
      vertex 35 9 9.5
    endloop
  endfacet
  facet normal 0 0.987689 0.156433
    outer loop
      vertex 30 9 9.5
      vertex 35 9.09789 8.88197
      vertex 30 9.09789 8.88197
    endloop
  endfacet
  facet normal 0 0.987689 -0.156433
    outer loop
      vertex 35 9 9.5
      vertex 30 9.09789 10.118
      vertex 35 9.09789 10.118
    endloop
  endfacet
  facet normal 0 0.987689 -0.156433
    outer loop
      vertex 30 9.09789 10.118
      vertex 35 9 9.5
      vertex 30 9 9.5
    endloop
  endfacet
  facet normal 0 -0.707107 -0.707107
    outer loop
      vertex 30 12.618 10.6756
      vertex 35 12.1756 11.118
      vertex 30 12.1756 11.118
    endloop
  endfacet
  facet normal 0 -0.707107 -0.707107
    outer loop
      vertex 35 12.1756 11.118
      vertex 30 12.618 10.6756
      vertex 35 12.618 10.6756
    endloop
  endfacet
  facet normal 0 -0.891006 -0.453991
    outer loop
      vertex 30 12.9021 10.118
      vertex 35 12.618 10.6756
      vertex 30 12.618 10.6756
    endloop
  endfacet
  facet normal 0 -0.891006 -0.453991
    outer loop
      vertex 35 12.618 10.6756
      vertex 30 12.9021 10.118
      vertex 35 12.9021 10.118
    endloop
  endfacet
  facet normal 0 -0.707107 0.707107
    outer loop
      vertex 30 12.1756 7.88197
      vertex 35 12.618 8.32443
      vertex 30 12.618 8.32443
    endloop
  endfacet
  facet normal 0 -0.707107 0.707107
    outer loop
      vertex 35 12.618 8.32443
      vertex 30 12.1756 7.88197
      vertex 35 12.1756 7.88197
    endloop
  endfacet
  facet normal 0 -0.453991 0.891006
    outer loop
      vertex 30 12.1756 7.88197
      vertex 35 11.618 7.59789
      vertex 35 12.1756 7.88197
    endloop
  endfacet
  facet normal 0 -0.453991 0.891006
    outer loop
      vertex 35 11.618 7.59789
      vertex 30 12.1756 7.88197
      vertex 30 11.618 7.59789
    endloop
  endfacet
  facet normal 0 0.707107 -0.707107
    outer loop
      vertex 35 9.38197 10.6756
      vertex 30 9.82443 11.118
      vertex 35 9.82443 11.118
    endloop
  endfacet
  facet normal 0 0.707107 -0.707107
    outer loop
      vertex 30 9.82443 11.118
      vertex 35 9.38197 10.6756
      vertex 30 9.38197 10.6756
    endloop
  endfacet
  facet normal 0 0.453991 -0.891006
    outer loop
      vertex 30 9.82443 11.118
      vertex 35 10.382 11.4021
      vertex 35 9.82443 11.118
    endloop
  endfacet
  facet normal 0 0.453991 -0.891006
    outer loop
      vertex 35 10.382 11.4021
      vertex 30 9.82443 11.118
      vertex 30 10.382 11.4021
    endloop
  endfacet
  facet normal 0 0.156434 -0.987688
    outer loop
      vertex 30 10.382 11.4021
      vertex 35 11 11.5
      vertex 35 10.382 11.4021
    endloop
  endfacet
  facet normal 0 0.156434 -0.987688
    outer loop
      vertex 35 11 11.5
      vertex 30 10.382 11.4021
      vertex 30 11 11.5
    endloop
  endfacet
  facet normal 0 0.707107 0.707107
    outer loop
      vertex 35 9.82443 7.88197
      vertex 30 9.38197 8.32443
      vertex 35 9.38197 8.32443
    endloop
  endfacet
  facet normal 0 0.707107 0.707107
    outer loop
      vertex 30 9.38197 8.32443
      vertex 35 9.82443 7.88197
      vertex 30 9.82443 7.88197
    endloop
  endfacet
  facet normal 0 0.891006 0.453991
    outer loop
      vertex 35 9.38197 8.32443
      vertex 30 9.09789 8.88197
      vertex 35 9.09789 8.88197
    endloop
  endfacet
  facet normal 0 0.891006 0.453991
    outer loop
      vertex 30 9.09789 8.88197
      vertex 35 9.38197 8.32443
      vertex 30 9.38197 8.32443
    endloop
  endfacet
endsolid OpenSCAD_Model
