solid OpenSCAD_Model
  facet normal -0.885585 -0.140263 -0.442793
    outer loop
      vertex 0.244717 3.45491 40
      vertex 0 5 40
      vertex 1 5 38
    endloop
  endfacet
  facet normal -0.894427 0 -0.447214
    outer loop
      vertex 0 5 40
      vertex 0 47 40
      vertex 1 5 38
    endloop
  endfacet
  facet normal -0.894427 0 -0.447214
    outer loop
      vertex 1 5 38
      vertex 0 47 40
      vertex 1 47 38
    endloop
  endfacet
  facet normal -1 0 0
    outer loop
      vertex 0 5 40
      vertex 0 5 44
      vertex 0 47 40
    endloop
  endfacet
  facet normal -1 0 0
    outer loop
      vertex 0 47 40
      vertex 0 5 44
      vertex 0 47 44
    endloop
  endfacet
  facet normal -0.987688 -0.156434 0
    outer loop
      vertex 0 5 40
      vertex 0.244717 3.45491 40
      vertex 0 5 44
    endloop
  endfacet
  facet normal -0.987688 -0.156434 0
    outer loop
      vertex 0 5 44
      vertex 0.244717 3.45491 40
      vertex 0.244717 3.45491 44
    endloop
  endfacet
  facet normal -0.885585 -0.140263 -0.442793
    outer loop
      vertex 1.19577 3.76393 38
      vertex 0.244717 3.45491 40
      vertex 1 5 38
    endloop
  endfacet
  facet normal -0.891006 -0.453991 0
    outer loop
      vertex 0.244717 3.45491 40
      vertex 0.954915 2.06107 40
      vertex 0.244717 3.45491 44
    endloop
  endfacet
  facet normal -0.891006 -0.453991 0
    outer loop
      vertex 0.244717 3.45491 44
      vertex 0.954915 2.06107 40
      vertex 0.954915 2.06107 44
    endloop
  endfacet
  facet normal -0.798898 -0.407059 -0.442793
    outer loop
      vertex 0.954915 2.06107 40
      vertex 0.244717 3.45491 40
      vertex 1.76393 2.64886 38
    endloop
  endfacet
  facet normal -0.798898 -0.407059 -0.442793
    outer loop
      vertex 1.76393 2.64886 38
      vertex 0.244717 3.45491 40
      vertex 1.19577 3.76393 38
    endloop
  endfacet
  facet normal -0.987688 -0.156435 0
    outer loop
      vertex 1 5 0
      vertex 1.19577 3.76393 0
      vertex 1 5 38
    endloop
  endfacet
  facet normal -0.987688 -0.156435 0
    outer loop
      vertex 1 5 38
      vertex 1.19577 3.76393 0
      vertex 1.19577 3.76393 38
    endloop
  endfacet
  facet normal -1 0 0
    outer loop
      vertex 1 5 0
      vertex 1 5 38
      vertex 1 47 0
    endloop
  endfacet
  facet normal -1 0 0
    outer loop
      vertex 1 47 0
      vertex 1 5 38
      vertex 1 47 38
    endloop
  endfacet
  facet normal -0.987688 0.156435 0
    outer loop
      vertex 1 47 0
      vertex 1 47 38
      vertex 1.19577 48.2361 0
    endloop
  endfacet
  facet normal -0.987688 0.156435 0
    outer loop
      vertex 1.19577 48.2361 0
      vertex 1 47 38
      vertex 1.19577 48.2361 38
    endloop
  endfacet
  facet normal -0.885585 0.140263 -0.442793
    outer loop
      vertex 1 47 38
      vertex 0.244717 48.5451 40
      vertex 1.19577 48.2361 38
    endloop
  endfacet
  facet normal -0.885585 0.140263 -0.442793
    outer loop
      vertex 1 47 38
      vertex 0 47 40
      vertex 0.244717 48.5451 40
    endloop
  endfacet
  facet normal -0.987688 0.156434 0
    outer loop
      vertex 0 47 40
      vertex 0 47 44
      vertex 0.244717 48.5451 40
    endloop
  endfacet
  facet normal -0.987688 0.156434 0
    outer loop
      vertex 0.244717 48.5451 40
      vertex 0 47 44
      vertex 0.244717 48.5451 44
    endloop
  endfacet
  facet normal 0 0 1
    outer loop
      vertex 0 47 44
      vertex 0 5 44
      vertex 0.244717 3.45491 44
    endloop
  endfacet
  facet normal 0 0 1
    outer loop
      vertex 2.06107 0.954915 44
      vertex 0 47 44
      vertex 0.954915 2.06107 44
    endloop
  endfacet
  facet normal 0 0 1
    outer loop
      vertex 0.954915 2.06107 44
      vertex 0 47 44
      vertex 0.244717 3.45491 44
    endloop
  endfacet
  facet normal 0 0 1
    outer loop
      vertex 2.5 5.2 44
      vertex 0 47 44
      vertex 2.06107 0.954915 44
    endloop
  endfacet
  facet normal 0 0 1
    outer loop
      vertex 2.5 46.8 44
      vertex 2.63215 47.6343 44
      vertex 0 47 44
    endloop
  endfacet
  facet normal 0 0 1
    outer loop
      vertex 49.3679 47.6343 44
      vertex 49.5 46.8 44
      vertex 52 47 44
    endloop
  endfacet
  facet normal 0 0 1
    outer loop
      vertex 5.2 49.5 44
      vertex 46.8 49.5 44
      vertex 51.0451 49.9389 44
    endloop
  endfacet
  facet normal 0 0 1
    outer loop
      vertex 5.2 49.5 44
      vertex 48.5451 51.7553 44
      vertex 47 52 44
    endloop
  endfacet
  facet normal 0 0 1
    outer loop
      vertex 3.01565 48.387 44
      vertex 3.61298 48.9843 44
      vertex 5 52 44
    endloop
  endfacet
  facet normal 0 0 1
    outer loop
      vertex 3.45491 51.7553 44
      vertex 0 47 44
      vertex 5 52 44
    endloop
  endfacet
  facet normal 0 0 1
    outer loop
      vertex 2.06107 51.0451 44
      vertex 0 47 44
      vertex 3.45491 51.7553 44
    endloop
  endfacet
  facet normal 0 0 1
    outer loop
      vertex 0.954915 49.9389 44
      vertex 0 47 44
      vertex 2.06107 51.0451 44
    endloop
  endfacet
  facet normal 0 0 1
    outer loop
      vertex 0.244717 48.5451 44
      vertex 0 47 44
      vertex 0.954915 49.9389 44
    endloop
  endfacet
  facet normal 0 0 1
    outer loop
      vertex 2.63215 4.36565 44
      vertex 2.5 5.2 44
      vertex 2.06107 0.954915 44
    endloop
  endfacet
  facet normal 0 0 1
    outer loop
      vertex 46.8 2.5 44
      vertex 5.2 2.5 44
      vertex 47 0 44
    endloop
  endfacet
  facet normal 0 0 1
    outer loop
      vertex 3.01565 48.387 44
      vertex 0 47 44
      vertex 2.63215 47.6343 44
    endloop
  endfacet
  facet normal 0 0 1
    outer loop
      vertex 5 52 44
      vertex 0 47 44
      vertex 3.01565 48.387 44
    endloop
  endfacet
  facet normal 0 0 1
    outer loop
      vertex 5 52 44
      vertex 3.61298 48.9843 44
      vertex 4.36565 49.3679 44
    endloop
  endfacet
  facet normal 0 0 1
    outer loop
      vertex 5 52 44
      vertex 5.2 49.5 44
      vertex 47 52 44
    endloop
  endfacet
  facet normal 0 0 1
    outer loop
      vertex 5 52 44
      vertex 4.36565 49.3679 44
      vertex 5.2 49.5 44
    endloop
  endfacet
  facet normal 0 0 1
    outer loop
      vertex 48.387 48.9843 44
      vertex 48.9843 48.387 44
      vertex 51.7553 48.5451 44
    endloop
  endfacet
  facet normal 0 0 1
    outer loop
      vertex 5.2 49.5 44
      vertex 49.9389 51.0451 44
      vertex 48.5451 51.7553 44
    endloop
  endfacet
  facet normal 0 0 1
    outer loop
      vertex 51.0451 49.9389 44
      vertex 47.6343 49.3679 44
      vertex 51.7553 48.5451 44
    endloop
  endfacet
  facet normal 0 0 1
    outer loop
      vertex 51.0451 49.9389 44
      vertex 46.8 49.5 44
      vertex 47.6343 49.3679 44
    endloop
  endfacet
  facet normal 0 0 1
    outer loop
      vertex 5.2 49.5 44
      vertex 51.0451 49.9389 44
      vertex 49.9389 51.0451 44
    endloop
  endfacet
  facet normal 0 0 1
    outer loop
      vertex 51.7553 48.5451 44
      vertex 48.9843 48.387 44
      vertex 52 47 44
    endloop
  endfacet
  facet normal 0 0 1
    outer loop
      vertex 48.9843 48.387 44
      vertex 49.3679 47.6343 44
      vertex 52 47 44
    endloop
  endfacet
  facet normal 0 0 1
    outer loop
      vertex 52 47 44
      vertex 49.5 46.8 44
      vertex 52 5 44
    endloop
  endfacet
  facet normal 0 0 1
    outer loop
      vertex 51.7553 3.45491 44
      vertex 49.5 5.2 44
      vertex 51.0451 2.06107 44
    endloop
  endfacet
  facet normal 0 0 1
    outer loop
      vertex 47.6343 49.3679 44
      vertex 48.387 48.9843 44
      vertex 51.7553 48.5451 44
    endloop
  endfacet
  facet normal 0 0 1
    outer loop
      vertex 49.5 5.2 44
      vertex 49.3679 4.36565 44
      vertex 51.0451 2.06107 44
    endloop
  endfacet
  facet normal 0 0 1
    outer loop
      vertex 51.0451 2.06107 44
      vertex 48.9843 3.61298 44
      vertex 49.9389 0.954915 44
    endloop
  endfacet
  facet normal 0 0 1
    outer loop
      vertex 48.9843 3.61298 44
      vertex 48.387 3.01565 44
      vertex 49.9389 0.954915 44
    endloop
  endfacet
  facet normal 0 0 1
    outer loop
      vertex 49.9389 0.954915 44
      vertex 47.6343 2.63215 44
      vertex 48.5451 0.244717 44
    endloop
  endfacet
  facet normal 0 0 1
    outer loop
      vertex 49.5 46.8 44
      vertex 49.5 5.2 44
      vertex 51.7553 3.45491 44
    endloop
  endfacet
  facet normal 0 0 1
    outer loop
      vertex 47.6343 2.63215 44
      vertex 46.8 2.5 44
      vertex 48.5451 0.244717 44
    endloop
  endfacet
  facet normal 0 0 1
    outer loop
      vertex 49.5 46.8 44
      vertex 51.7553 3.45491 44
      vertex 52 5 44
    endloop
  endfacet
  facet normal 0 0 1
    outer loop
      vertex 47 0 44
      vertex 5.2 2.5 44
      vertex 5 0 44
    endloop
  endfacet
  facet normal 0 0 1
    outer loop
      vertex 5 0 44
      vertex 4.36565 2.63215 44
      vertex 3.45491 0.244717 44
    endloop
  endfacet
  facet normal 0 0 1
    outer loop
      vertex 4.36565 2.63215 44
      vertex 3.61298 3.01565 44
      vertex 3.45491 0.244717 44
    endloop
  endfacet
  facet normal 0 0 1
    outer loop
      vertex 3.45491 0.244717 44
      vertex 2.63215 4.36565 44
      vertex 2.06107 0.954915 44
    endloop
  endfacet
  facet normal 0 0 1
    outer loop
      vertex 49.3679 4.36565 44
      vertex 48.9843 3.61298 44
      vertex 51.0451 2.06107 44
    endloop
  endfacet
  facet normal 0 0 1
    outer loop
      vertex 48.387 3.01565 44
      vertex 47.6343 2.63215 44
      vertex 49.9389 0.954915 44
    endloop
  endfacet
  facet normal 0 0 1
    outer loop
      vertex 46.8 2.5 44
      vertex 47 0 44
      vertex 48.5451 0.244717 44
    endloop
  endfacet
  facet normal 0 0 1
    outer loop
      vertex 5.2 2.5 44
      vertex 4.36565 2.63215 44
      vertex 5 0 44
    endloop
  endfacet
  facet normal 0 0 1
    outer loop
      vertex 3.61298 3.01565 44
      vertex 3.01565 3.61298 44
      vertex 3.45491 0.244717 44
    endloop
  endfacet
  facet normal 0 0 1
    outer loop
      vertex 3.01565 3.61298 44
      vertex 2.63215 4.36565 44
      vertex 3.45491 0.244717 44
    endloop
  endfacet
  facet normal 0 0 1
    outer loop
      vertex 2.5 5.2 44
      vertex 2.5 46.8 44
      vertex 0 47 44
    endloop
  endfacet
  facet normal -0.707107 -0.707107 0
    outer loop
      vertex 0.954915 2.06107 44
      vertex 0.954915 2.06107 40
      vertex 2.06107 0.954915 40
    endloop
  endfacet
  facet normal -0.707107 -0.707107 0
    outer loop
      vertex 2.06107 0.954915 44
      vertex 0.954915 2.06107 44
      vertex 2.06107 0.954915 40
    endloop
  endfacet
  facet normal -0.634009 -0.634009 -0.442793
    outer loop
      vertex 2.06107 0.954915 40
      vertex 0.954915 2.06107 40
      vertex 1.76393 2.64886 38
    endloop
  endfacet
  facet normal -0.634009 -0.634009 -0.442793
    outer loop
      vertex 2.64886 1.76393 38
      vertex 2.06107 0.954915 40
      vertex 1.76393 2.64886 38
    endloop
  endfacet
  facet normal -0.407059 -0.798898 -0.442793
    outer loop
      vertex 3.45491 0.244717 40
      vertex 2.64886 1.76393 38
      vertex 3.76393 1.19577 38
    endloop
  endfacet
  facet normal -0.407059 -0.798898 -0.442793
    outer loop
      vertex 3.45491 0.244717 40
      vertex 2.06107 0.954915 40
      vertex 2.64886 1.76393 38
    endloop
  endfacet
  facet normal -0.140263 -0.885585 -0.442793
    outer loop
      vertex 5 1 38
      vertex 3.45491 0.244717 40
      vertex 3.76393 1.19577 38
    endloop
  endfacet
  facet normal -0.140263 -0.885585 -0.442793
    outer loop
      vertex 5 0 40
      vertex 3.45491 0.244717 40
      vertex 5 1 38
    endloop
  endfacet
  facet normal 0 -0.894427 -0.447214
    outer loop
      vertex 47 0 40
      vertex 5 0 40
      vertex 5 1 38
    endloop
  endfacet
  facet normal 0 -0.894427 -0.447214
    outer loop
      vertex 47 1 38
      vertex 47 0 40
      vertex 5 1 38
    endloop
  endfacet
  facet normal 0 -1 0
    outer loop
      vertex 5 1 38
      vertex 5 1 0
      vertex 47 1 0
    endloop
  endfacet
  facet normal 0 -1 0
    outer loop
      vertex 47 1 38
      vertex 5 1 38
      vertex 47 1 0
    endloop
  endfacet
  facet normal -0.156435 -0.987688 0
    outer loop
      vertex 3.76393 1.19577 38
      vertex 3.76393 1.19577 0
      vertex 5 1 0
    endloop
  endfacet
  facet normal -0.156435 -0.987688 0
    outer loop
      vertex 5 1 38
      vertex 3.76393 1.19577 38
      vertex 5 1 0
    endloop
  endfacet
  facet normal -0.45399 -0.891007 0
    outer loop
      vertex 2.64886 1.76393 38
      vertex 2.64886 1.76393 0
      vertex 3.76393 1.19577 0
    endloop
  endfacet
  facet normal -0.45399 -0.891007 0
    outer loop
      vertex 3.76393 1.19577 38
      vertex 2.64886 1.76393 38
      vertex 3.76393 1.19577 0
    endloop
  endfacet
  facet normal -0.707107 -0.707107 0
    outer loop
      vertex 1.76393 2.64886 38
      vertex 1.76393 2.64886 0
      vertex 2.64886 1.76393 0
    endloop
  endfacet
  facet normal -0.707107 -0.707107 0
    outer loop
      vertex 2.64886 1.76393 38
      vertex 1.76393 2.64886 38
      vertex 2.64886 1.76393 0
    endloop
  endfacet
  facet normal -0.891007 -0.45399 0
    outer loop
      vertex 1.19577 3.76393 0
      vertex 1.76393 2.64886 0
      vertex 1.19577 3.76393 38
    endloop
  endfacet
  facet normal -0.891007 -0.45399 0
    outer loop
      vertex 1.19577 3.76393 38
      vertex 1.76393 2.64886 0
      vertex 1.76393 2.64886 38
    endloop
  endfacet
  facet normal 0 0 -1
    outer loop
      vertex 1 5 0
      vertex 1 47 0
      vertex 1.19577 3.76393 0
    endloop
  endfacet
  facet normal 0 0 -1
    outer loop
      vertex 1.19577 3.76393 0
      vertex 1 47 0
      vertex 1.19577 48.2361 0
    endloop
  endfacet
  facet normal 0 0 -1
    outer loop
      vertex 1.19577 3.76393 0
      vertex 1.19577 48.2361 0
      vertex 1.76393 49.3511 0
    endloop
  endfacet
  facet normal 0 0 -1
    outer loop
      vertex 1.19577 3.76393 0
      vertex 1.76393 49.3511 0
      vertex 2.64886 50.2361 0
    endloop
  endfacet
  facet normal 0 0 -1
    outer loop
      vertex 1.19577 3.76393 0
      vertex 2.64886 50.2361 0
      vertex 3.76393 50.8042 0
    endloop
  endfacet
  facet normal 0 0 -1
    outer loop
      vertex 1.19577 3.76393 0
      vertex 3.76393 50.8042 0
      vertex 5 51 0
    endloop
  endfacet
  facet normal 0 0 -1
    outer loop
      vertex 1.19577 3.76393 0
      vertex 5 51 0
      vertex 47 51 0
    endloop
  endfacet
  facet normal 0 0 -1
    outer loop
      vertex 1.19577 3.76393 0
      vertex 47 51 0
      vertex 48.2361 50.8042 0
    endloop
  endfacet
  facet normal 0 0 -1
    outer loop
      vertex 1.19577 3.76393 0
      vertex 48.2361 50.8042 0
      vertex 49.3511 50.2361 0
    endloop
  endfacet
  facet normal 0 0 -1
    outer loop
      vertex 1.19577 3.76393 0
      vertex 49.3511 50.2361 0
      vertex 50.2361 49.3511 0
    endloop
  endfacet
  facet normal 0 0 -1
    outer loop
      vertex 1.19577 3.76393 0
      vertex 50.2361 49.3511 0
      vertex 50.8042 48.2361 0
    endloop
  endfacet
  facet normal 0 0 -1
    outer loop
      vertex 1.19577 3.76393 0
      vertex 50.8042 48.2361 0
      vertex 51 47 0
    endloop
  endfacet
  facet normal 0 0 -1
    outer loop
      vertex 1.19577 3.76393 0
      vertex 51 47 0
      vertex 51 5 0
    endloop
  endfacet
  facet normal 0 0 -1
    outer loop
      vertex 1.19577 3.76393 0
      vertex 51 5 0
      vertex 50.8042 3.76393 0
    endloop
  endfacet
  facet normal 0 0 -1
    outer loop
      vertex 1.19577 3.76393 0
      vertex 50.8042 3.76393 0
      vertex 50.2361 2.64886 0
    endloop
  endfacet
  facet normal 0 0 -1
    outer loop
      vertex 1.19577 3.76393 0
      vertex 50.2361 2.64886 0
      vertex 49.3511 1.76393 0
    endloop
  endfacet
  facet normal 0 0 -1
    outer loop
      vertex 1.19577 3.76393 0
      vertex 49.3511 1.76393 0
      vertex 48.2361 1.19577 0
    endloop
  endfacet
  facet normal 0 0 -1
    outer loop
      vertex 1.19577 3.76393 0
      vertex 48.2361 1.19577 0
      vertex 47 1 0
    endloop
  endfacet
  facet normal 0 0 -1
    outer loop
      vertex 1.19577 3.76393 0
      vertex 47 1 0
      vertex 5 1 0
    endloop
  endfacet
  facet normal 0 0 -1
    outer loop
      vertex 1.19577 3.76393 0
      vertex 5 1 0
      vertex 3.76393 1.19577 0
    endloop
  endfacet
  facet normal 0 0 -1
    outer loop
      vertex 1.19577 3.76393 0
      vertex 3.76393 1.19577 0
      vertex 2.64886 1.76393 0
    endloop
  endfacet
  facet normal 0 0 -1
    outer loop
      vertex 1.19577 3.76393 0
      vertex 2.64886 1.76393 0
      vertex 1.76393 2.64886 0
    endloop
  endfacet
  facet normal -0.891007 0.45399 0
    outer loop
      vertex 1.19577 48.2361 0
      vertex 1.19577 48.2361 38
      vertex 1.76393 49.3511 0
    endloop
  endfacet
  facet normal -0.891007 0.45399 0
    outer loop
      vertex 1.76393 49.3511 0
      vertex 1.19577 48.2361 38
      vertex 1.76393 49.3511 38
    endloop
  endfacet
  facet normal -0.707107 0.707107 0
    outer loop
      vertex 1.76393 49.3511 0
      vertex 1.76393 49.3511 38
      vertex 2.64886 50.2361 0
    endloop
  endfacet
  facet normal -0.707107 0.707107 0
    outer loop
      vertex 2.64886 50.2361 0
      vertex 1.76393 49.3511 38
      vertex 2.64886 50.2361 38
    endloop
  endfacet
  facet normal -0.45399 0.891007 0
    outer loop
      vertex 2.64886 50.2361 0
      vertex 2.64886 50.2361 38
      vertex 3.76393 50.8042 0
    endloop
  endfacet
  facet normal -0.45399 0.891007 0
    outer loop
      vertex 3.76393 50.8042 0
      vertex 2.64886 50.2361 38
      vertex 3.76393 50.8042 38
    endloop
  endfacet
  facet normal -0.407059 0.798898 -0.442793
    outer loop
      vertex 3.76393 50.8042 38
      vertex 2.64886 50.2361 38
      vertex 3.45491 51.7553 40
    endloop
  endfacet
  facet normal -0.407059 0.798898 -0.442793
    outer loop
      vertex 2.64886 50.2361 38
      vertex 2.06107 51.0451 40
      vertex 3.45491 51.7553 40
    endloop
  endfacet
  facet normal -0.634009 0.634009 -0.442793
    outer loop
      vertex 2.64886 50.2361 38
      vertex 1.76393 49.3511 38
      vertex 2.06107 51.0451 40
    endloop
  endfacet
  facet normal -0.634009 0.634009 -0.442793
    outer loop
      vertex 1.76393 49.3511 38
      vertex 0.954915 49.9389 40
      vertex 2.06107 51.0451 40
    endloop
  endfacet
  facet normal -0.798898 0.407059 -0.442793
    outer loop
      vertex 1.76393 49.3511 38
      vertex 0.244717 48.5451 40
      vertex 0.954915 49.9389 40
    endloop
  endfacet
  facet normal -0.798898 0.407059 -0.442793
    outer loop
      vertex 1.19577 48.2361 38
      vertex 0.244717 48.5451 40
      vertex 1.76393 49.3511 38
    endloop
  endfacet
  facet normal -0.891006 0.453991 0
    outer loop
      vertex 0.244717 48.5451 40
      vertex 0.244717 48.5451 44
      vertex 0.954915 49.9389 40
    endloop
  endfacet
  facet normal -0.891006 0.453991 0
    outer loop
      vertex 0.954915 49.9389 40
      vertex 0.244717 48.5451 44
      vertex 0.954915 49.9389 44
    endloop
  endfacet
  facet normal -0.707107 0.707107 0
    outer loop
      vertex 0.954915 49.9389 40
      vertex 0.954915 49.9389 44
      vertex 2.06107 51.0451 40
    endloop
  endfacet
  facet normal -0.707107 0.707107 0
    outer loop
      vertex 2.06107 51.0451 40
      vertex 0.954915 49.9389 44
      vertex 2.06107 51.0451 44
    endloop
  endfacet
  facet normal -0.453991 0.891006 0
    outer loop
      vertex 2.06107 51.0451 40
      vertex 2.06107 51.0451 44
      vertex 3.45491 51.7553 40
    endloop
  endfacet
  facet normal -0.453991 0.891006 0
    outer loop
      vertex 3.45491 51.7553 40
      vertex 2.06107 51.0451 44
      vertex 3.45491 51.7553 44
    endloop
  endfacet
  facet normal -0.156434 0.987688 0
    outer loop
      vertex 3.45491 51.7553 40
      vertex 3.45491 51.7553 44
      vertex 5 52 40
    endloop
  endfacet
  facet normal -0.156434 0.987688 0
    outer loop
      vertex 5 52 40
      vertex 3.45491 51.7553 44
      vertex 5 52 44
    endloop
  endfacet
  facet normal 0 1 0
    outer loop
      vertex 5 52 40
      vertex 5 52 44
      vertex 47 52 40
    endloop
  endfacet
  facet normal 0 1 0
    outer loop
      vertex 47 52 40
      vertex 5 52 44
      vertex 47 52 44
    endloop
  endfacet
  facet normal 0.156434 0.987688 0
    outer loop
      vertex 47 52 40
      vertex 47 52 44
      vertex 48.5451 51.7553 40
    endloop
  endfacet
  facet normal 0.156434 0.987688 0
    outer loop
      vertex 48.5451 51.7553 40
      vertex 47 52 44
      vertex 48.5451 51.7553 44
    endloop
  endfacet
  facet normal 0.453991 0.891006 0
    outer loop
      vertex 48.5451 51.7553 40
      vertex 48.5451 51.7553 44
      vertex 49.9389 51.0451 40
    endloop
  endfacet
  facet normal 0.453991 0.891006 0
    outer loop
      vertex 49.9389 51.0451 40
      vertex 48.5451 51.7553 44
      vertex 49.9389 51.0451 44
    endloop
  endfacet
  facet normal 0.707107 0.707107 0
    outer loop
      vertex 49.9389 51.0451 40
      vertex 49.9389 51.0451 44
      vertex 51.0451 49.9389 40
    endloop
  endfacet
  facet normal 0.707107 0.707107 0
    outer loop
      vertex 51.0451 49.9389 40
      vertex 49.9389 51.0451 44
      vertex 51.0451 49.9389 44
    endloop
  endfacet
  facet normal 0.891006 0.453991 0
    outer loop
      vertex 51.7553 48.5451 40
      vertex 51.0451 49.9389 40
      vertex 51.0451 49.9389 44
    endloop
  endfacet
  facet normal 0.891006 0.453991 0
    outer loop
      vertex 51.7553 48.5451 44
      vertex 51.7553 48.5451 40
      vertex 51.0451 49.9389 44
    endloop
  endfacet
  facet normal 0.987688 0.156434 0
    outer loop
      vertex 52 47 40
      vertex 51.7553 48.5451 40
      vertex 51.7553 48.5451 44
    endloop
  endfacet
  facet normal 0.987688 0.156434 0
    outer loop
      vertex 52 47 44
      vertex 52 47 40
      vertex 51.7553 48.5451 44
    endloop
  endfacet
  facet normal 1 0 0
    outer loop
      vertex 52 5 44
      vertex 52 5 40
      vertex 52 47 40
    endloop
  endfacet
  facet normal 1 0 0
    outer loop
      vertex 52 47 44
      vertex 52 5 44
      vertex 52 47 40
    endloop
  endfacet
  facet normal 0.987688 -0.156434 0
    outer loop
      vertex 51.7553 3.45491 44
      vertex 51.7553 3.45491 40
      vertex 52 5 40
    endloop
  endfacet
  facet normal 0.987688 -0.156434 0
    outer loop
      vertex 52 5 44
      vertex 51.7553 3.45491 44
      vertex 52 5 40
    endloop
  endfacet
  facet normal 0.891006 -0.453991 0
    outer loop
      vertex 51.0451 2.06107 44
      vertex 51.0451 2.06107 40
      vertex 51.7553 3.45491 40
    endloop
  endfacet
  facet normal 0.891006 -0.453991 0
    outer loop
      vertex 51.7553 3.45491 44
      vertex 51.0451 2.06107 44
      vertex 51.7553 3.45491 40
    endloop
  endfacet
  facet normal 0.707107 -0.707107 0
    outer loop
      vertex 49.9389 0.954915 44
      vertex 49.9389 0.954915 40
      vertex 51.0451 2.06107 40
    endloop
  endfacet
  facet normal 0.707107 -0.707107 0
    outer loop
      vertex 51.0451 2.06107 44
      vertex 49.9389 0.954915 44
      vertex 51.0451 2.06107 40
    endloop
  endfacet
  facet normal 0.453991 -0.891006 0
    outer loop
      vertex 48.5451 0.244717 44
      vertex 48.5451 0.244717 40
      vertex 49.9389 0.954915 40
    endloop
  endfacet
  facet normal 0.453991 -0.891006 0
    outer loop
      vertex 49.9389 0.954915 44
      vertex 48.5451 0.244717 44
      vertex 49.9389 0.954915 40
    endloop
  endfacet
  facet normal 0.156434 -0.987688 0
    outer loop
      vertex 47 0 44
      vertex 47 0 40
      vertex 48.5451 0.244717 40
    endloop
  endfacet
  facet normal 0.156434 -0.987688 0
    outer loop
      vertex 48.5451 0.244717 44
      vertex 47 0 44
      vertex 48.5451 0.244717 40
    endloop
  endfacet
  facet normal 0 -1 0
    outer loop
      vertex 5 0 44
      vertex 5 0 40
      vertex 47 0 40
    endloop
  endfacet
  facet normal 0 -1 0
    outer loop
      vertex 47 0 44
      vertex 5 0 44
      vertex 47 0 40
    endloop
  endfacet
  facet normal -0.156434 -0.987688 0
    outer loop
      vertex 3.45491 0.244717 44
      vertex 3.45491 0.244717 40
      vertex 5 0 40
    endloop
  endfacet
  facet normal -0.156434 -0.987688 0
    outer loop
      vertex 5 0 44
      vertex 3.45491 0.244717 44
      vertex 5 0 40
    endloop
  endfacet
  facet normal -0.453991 -0.891006 0
    outer loop
      vertex 2.06107 0.954915 44
      vertex 2.06107 0.954915 40
      vertex 3.45491 0.244717 40
    endloop
  endfacet
  facet normal -0.453991 -0.891006 0
    outer loop
      vertex 3.45491 0.244717 44
      vertex 2.06107 0.954915 44
      vertex 3.45491 0.244717 40
    endloop
  endfacet
  facet normal 0.987688 0.156434 0
    outer loop
      vertex 2.5 5.2 44
      vertex 2.63215 4.36565 44
      vertex 2.63215 4.36565 1.5
    endloop
  endfacet
  facet normal 0.987688 0.156434 0
    outer loop
      vertex 2.5 5.2 1.5
      vertex 2.5 5.2 44
      vertex 2.63215 4.36565 1.5
    endloop
  endfacet
  facet normal 1 0 0
    outer loop
      vertex 2.5 46.8 1.5
      vertex 2.5 46.8 44
      vertex 2.5 5.2 44
    endloop
  endfacet
  facet normal 1 0 0
    outer loop
      vertex 2.5 5.2 1.5
      vertex 2.5 46.8 1.5
      vertex 2.5 5.2 44
    endloop
  endfacet
  facet normal 0.891006 0.453991 0
    outer loop
      vertex 2.63215 4.36565 44
      vertex 3.01565 3.61298 44
      vertex 3.01565 3.61298 1.5
    endloop
  endfacet
  facet normal 0.891006 0.453991 0
    outer loop
      vertex 2.63215 4.36565 1.5
      vertex 2.63215 4.36565 44
      vertex 3.01565 3.61298 1.5
    endloop
  endfacet
  facet normal 0.707107 0.707107 0
    outer loop
      vertex 3.61298 3.01565 44
      vertex 3.61298 3.01565 1.5
      vertex 3.01565 3.61298 44
    endloop
  endfacet
  facet normal 0.707107 0.707107 0
    outer loop
      vertex 3.01565 3.61298 44
      vertex 3.61298 3.01565 1.5
      vertex 3.01565 3.61298 1.5
    endloop
  endfacet
  facet normal 0.453991 0.891006 0
    outer loop
      vertex 4.36565 2.63215 44
      vertex 4.36565 2.63215 1.5
      vertex 3.61298 3.01565 44
    endloop
  endfacet
  facet normal 0.453991 0.891006 0
    outer loop
      vertex 3.61298 3.01565 44
      vertex 4.36565 2.63215 1.5
      vertex 3.61298 3.01565 1.5
    endloop
  endfacet
  facet normal 0.156434 0.987688 0
    outer loop
      vertex 5.2 2.5 44
      vertex 5.2 2.5 1.5
      vertex 4.36565 2.63215 44
    endloop
  endfacet
  facet normal 0.156434 0.987688 0
    outer loop
      vertex 4.36565 2.63215 44
      vertex 5.2 2.5 1.5
      vertex 4.36565 2.63215 1.5
    endloop
  endfacet
  facet normal 0 1 0
    outer loop
      vertex 46.8 2.5 44
      vertex 46.8 2.5 1.5
      vertex 5.2 2.5 44
    endloop
  endfacet
  facet normal 0 1 0
    outer loop
      vertex 5.2 2.5 44
      vertex 46.8 2.5 1.5
      vertex 5.2 2.5 1.5
    endloop
  endfacet
  facet normal -0.156434 0.987688 0
    outer loop
      vertex 47.6343 2.63215 44
      vertex 47.6343 2.63215 1.5
      vertex 46.8 2.5 44
    endloop
  endfacet
  facet normal -0.156434 0.987688 0
    outer loop
      vertex 46.8 2.5 44
      vertex 47.6343 2.63215 1.5
      vertex 46.8 2.5 1.5
    endloop
  endfacet
  facet normal -0.453991 0.891006 0
    outer loop
      vertex 48.387 3.01565 44
      vertex 48.387 3.01565 1.5
      vertex 47.6343 2.63215 44
    endloop
  endfacet
  facet normal -0.453991 0.891006 0
    outer loop
      vertex 47.6343 2.63215 44
      vertex 48.387 3.01565 1.5
      vertex 47.6343 2.63215 1.5
    endloop
  endfacet
  facet normal -0.707107 0.707107 0
    outer loop
      vertex 48.9843 3.61298 44
      vertex 48.9843 3.61298 1.5
      vertex 48.387 3.01565 44
    endloop
  endfacet
  facet normal -0.707107 0.707107 0
    outer loop
      vertex 48.387 3.01565 44
      vertex 48.9843 3.61298 1.5
      vertex 48.387 3.01565 1.5
    endloop
  endfacet
  facet normal -0.891006 0.453991 0
    outer loop
      vertex 49.3679 4.36565 44
      vertex 49.3679 4.36565 1.5
      vertex 48.9843 3.61298 44
    endloop
  endfacet
  facet normal -0.891006 0.453991 0
    outer loop
      vertex 48.9843 3.61298 44
      vertex 49.3679 4.36565 1.5
      vertex 48.9843 3.61298 1.5
    endloop
  endfacet
  facet normal -0.987688 0.156434 0
    outer loop
      vertex 49.5 5.2 44
      vertex 49.5 5.2 1.5
      vertex 49.3679 4.36565 44
    endloop
  endfacet
  facet normal -0.987688 0.156434 0
    outer loop
      vertex 49.3679 4.36565 44
      vertex 49.5 5.2 1.5
      vertex 49.3679 4.36565 1.5
    endloop
  endfacet
  facet normal -1 0 0
    outer loop
      vertex 49.5 46.8 44
      vertex 49.5 46.8 1.5
      vertex 49.5 5.2 44
    endloop
  endfacet
  facet normal -1 0 0
    outer loop
      vertex 49.5 5.2 44
      vertex 49.5 46.8 1.5
      vertex 49.5 5.2 1.5
    endloop
  endfacet
  facet normal -0.987688 -0.156434 0
    outer loop
      vertex 49.5 46.8 44
      vertex 49.3679 47.6343 44
      vertex 49.5 46.8 1.5
    endloop
  endfacet
  facet normal -0.987688 -0.156434 0
    outer loop
      vertex 49.5 46.8 1.5
      vertex 49.3679 47.6343 44
      vertex 49.3679 47.6343 1.5
    endloop
  endfacet
  facet normal -0.891006 -0.453991 0
    outer loop
      vertex 49.3679 47.6343 44
      vertex 48.9843 48.387 44
      vertex 49.3679 47.6343 1.5
    endloop
  endfacet
  facet normal -0.891006 -0.453991 0
    outer loop
      vertex 49.3679 47.6343 1.5
      vertex 48.9843 48.387 44
      vertex 48.9843 48.387 1.5
    endloop
  endfacet
  facet normal -0.707107 -0.707107 0
    outer loop
      vertex 48.9843 48.387 1.5
      vertex 48.9843 48.387 44
      vertex 48.387 48.9843 44
    endloop
  endfacet
  facet normal -0.707107 -0.707107 0
    outer loop
      vertex 48.387 48.9843 1.5
      vertex 48.9843 48.387 1.5
      vertex 48.387 48.9843 44
    endloop
  endfacet
  facet normal -0.453991 -0.891006 0
    outer loop
      vertex 48.387 48.9843 1.5
      vertex 48.387 48.9843 44
      vertex 47.6343 49.3679 44
    endloop
  endfacet
  facet normal -0.453991 -0.891006 0
    outer loop
      vertex 47.6343 49.3679 1.5
      vertex 48.387 48.9843 1.5
      vertex 47.6343 49.3679 44
    endloop
  endfacet
  facet normal -0.156434 -0.987688 0
    outer loop
      vertex 47.6343 49.3679 1.5
      vertex 47.6343 49.3679 44
      vertex 46.8 49.5 44
    endloop
  endfacet
  facet normal -0.156434 -0.987688 0
    outer loop
      vertex 46.8 49.5 1.5
      vertex 47.6343 49.3679 1.5
      vertex 46.8 49.5 44
    endloop
  endfacet
  facet normal 0 -1 0
    outer loop
      vertex 46.8 49.5 1.5
      vertex 46.8 49.5 44
      vertex 5.2 49.5 44
    endloop
  endfacet
  facet normal 0 -1 0
    outer loop
      vertex 5.2 49.5 1.5
      vertex 46.8 49.5 1.5
      vertex 5.2 49.5 44
    endloop
  endfacet
  facet normal 0.156434 -0.987688 0
    outer loop
      vertex 5.2 49.5 1.5
      vertex 5.2 49.5 44
      vertex 4.36565 49.3679 44
    endloop
  endfacet
  facet normal 0.156434 -0.987688 0
    outer loop
      vertex 4.36565 49.3679 1.5
      vertex 5.2 49.5 1.5
      vertex 4.36565 49.3679 44
    endloop
  endfacet
  facet normal 0.453991 -0.891006 0
    outer loop
      vertex 4.36565 49.3679 1.5
      vertex 4.36565 49.3679 44
      vertex 3.61298 48.9843 44
    endloop
  endfacet
  facet normal 0.453991 -0.891006 0
    outer loop
      vertex 3.61298 48.9843 1.5
      vertex 4.36565 49.3679 1.5
      vertex 3.61298 48.9843 44
    endloop
  endfacet
  facet normal 0.707107 -0.707107 0
    outer loop
      vertex 3.61298 48.9843 1.5
      vertex 3.61298 48.9843 44
      vertex 3.01565 48.387 44
    endloop
  endfacet
  facet normal 0.707107 -0.707107 0
    outer loop
      vertex 3.01565 48.387 1.5
      vertex 3.61298 48.9843 1.5
      vertex 3.01565 48.387 44
    endloop
  endfacet
  facet normal 0.891006 -0.453991 0
    outer loop
      vertex 3.01565 48.387 1.5
      vertex 3.01565 48.387 44
      vertex 2.63215 47.6343 44
    endloop
  endfacet
  facet normal 0.891006 -0.453991 0
    outer loop
      vertex 2.63215 47.6343 1.5
      vertex 3.01565 48.387 1.5
      vertex 2.63215 47.6343 44
    endloop
  endfacet
  facet normal 0.987688 -0.156434 0
    outer loop
      vertex 2.63215 47.6343 1.5
      vertex 2.63215 47.6343 44
      vertex 2.5 46.8 44
    endloop
  endfacet
  facet normal 0.987688 -0.156434 0
    outer loop
      vertex 2.5 46.8 1.5
      vertex 2.63215 47.6343 1.5
      vertex 2.5 46.8 44
    endloop
  endfacet
  facet normal 0.140263 -0.885585 -0.442793
    outer loop
      vertex 48.5451 0.244717 40
      vertex 47 0 40
      vertex 47 1 38
    endloop
  endfacet
  facet normal 0.140263 -0.885585 -0.442793
    outer loop
      vertex 48.5451 0.244717 40
      vertex 47 1 38
      vertex 48.2361 1.19577 38
    endloop
  endfacet
  facet normal 0.156435 -0.987688 0
    outer loop
      vertex 47 1 38
      vertex 47 1 0
      vertex 48.2361 1.19577 0
    endloop
  endfacet
  facet normal 0.156435 -0.987688 0
    outer loop
      vertex 48.2361 1.19577 38
      vertex 47 1 38
      vertex 48.2361 1.19577 0
    endloop
  endfacet
  facet normal 0.45399 -0.891007 0
    outer loop
      vertex 48.2361 1.19577 38
      vertex 48.2361 1.19577 0
      vertex 49.3511 1.76393 0
    endloop
  endfacet
  facet normal 0.45399 -0.891007 0
    outer loop
      vertex 49.3511 1.76393 38
      vertex 48.2361 1.19577 38
      vertex 49.3511 1.76393 0
    endloop
  endfacet
  facet normal 0.707107 -0.707107 0
    outer loop
      vertex 49.3511 1.76393 38
      vertex 49.3511 1.76393 0
      vertex 50.2361 2.64886 0
    endloop
  endfacet
  facet normal 0.707107 -0.707107 0
    outer loop
      vertex 50.2361 2.64886 38
      vertex 49.3511 1.76393 38
      vertex 50.2361 2.64886 0
    endloop
  endfacet
  facet normal 0.891007 -0.45399 0
    outer loop
      vertex 50.2361 2.64886 38
      vertex 50.2361 2.64886 0
      vertex 50.8042 3.76393 0
    endloop
  endfacet
  facet normal 0.891007 -0.45399 0
    outer loop
      vertex 50.8042 3.76393 38
      vertex 50.2361 2.64886 38
      vertex 50.8042 3.76393 0
    endloop
  endfacet
  facet normal 0.987688 -0.156435 0
    outer loop
      vertex 50.8042 3.76393 38
      vertex 50.8042 3.76393 0
      vertex 51 5 0
    endloop
  endfacet
  facet normal 0.987688 -0.156435 0
    outer loop
      vertex 51 5 38
      vertex 50.8042 3.76393 38
      vertex 51 5 0
    endloop
  endfacet
  facet normal 1 0 0
    outer loop
      vertex 51 5 38
      vertex 51 5 0
      vertex 51 47 0
    endloop
  endfacet
  facet normal 1 0 0
    outer loop
      vertex 51 47 38
      vertex 51 5 38
      vertex 51 47 0
    endloop
  endfacet
  facet normal 0.987688 0.156435 0
    outer loop
      vertex 51 47 0
      vertex 50.8042 48.2361 0
      vertex 50.8042 48.2361 38
    endloop
  endfacet
  facet normal 0.987688 0.156435 0
    outer loop
      vertex 51 47 38
      vertex 51 47 0
      vertex 50.8042 48.2361 38
    endloop
  endfacet
  facet normal 0.891007 0.45399 0
    outer loop
      vertex 50.8042 48.2361 0
      vertex 50.2361 49.3511 0
      vertex 50.2361 49.3511 38
    endloop
  endfacet
  facet normal 0.891007 0.45399 0
    outer loop
      vertex 50.8042 48.2361 38
      vertex 50.8042 48.2361 0
      vertex 50.2361 49.3511 38
    endloop
  endfacet
  facet normal 0.707107 0.707107 0
    outer loop
      vertex 49.3511 50.2361 0
      vertex 49.3511 50.2361 38
      vertex 50.2361 49.3511 0
    endloop
  endfacet
  facet normal 0.707107 0.707107 0
    outer loop
      vertex 50.2361 49.3511 0
      vertex 49.3511 50.2361 38
      vertex 50.2361 49.3511 38
    endloop
  endfacet
  facet normal 0.45399 0.891007 0
    outer loop
      vertex 48.2361 50.8042 0
      vertex 48.2361 50.8042 38
      vertex 49.3511 50.2361 0
    endloop
  endfacet
  facet normal 0.45399 0.891007 0
    outer loop
      vertex 49.3511 50.2361 0
      vertex 48.2361 50.8042 38
      vertex 49.3511 50.2361 38
    endloop
  endfacet
  facet normal 0.156435 0.987688 0
    outer loop
      vertex 47 51 0
      vertex 47 51 38
      vertex 48.2361 50.8042 0
    endloop
  endfacet
  facet normal 0.156435 0.987688 0
    outer loop
      vertex 48.2361 50.8042 0
      vertex 47 51 38
      vertex 48.2361 50.8042 38
    endloop
  endfacet
  facet normal 0 1 0
    outer loop
      vertex 5 51 0
      vertex 5 51 38
      vertex 47 51 0
    endloop
  endfacet
  facet normal 0 1 0
    outer loop
      vertex 47 51 0
      vertex 5 51 38
      vertex 47 51 38
    endloop
  endfacet
  facet normal -0.156435 0.987688 0
    outer loop
      vertex 3.76393 50.8042 0
      vertex 3.76393 50.8042 38
      vertex 5 51 0
    endloop
  endfacet
  facet normal -0.156435 0.987688 0
    outer loop
      vertex 5 51 0
      vertex 3.76393 50.8042 38
      vertex 5 51 38
    endloop
  endfacet
  facet normal 0 0.894427 -0.447214
    outer loop
      vertex 5 51 38
      vertex 5 52 40
      vertex 47 51 38
    endloop
  endfacet
  facet normal 0 0.894427 -0.447214
    outer loop
      vertex 47 51 38
      vertex 5 52 40
      vertex 47 52 40
    endloop
  endfacet
  facet normal -0.140263 0.885585 -0.442793
    outer loop
      vertex 5 51 38
      vertex 3.45491 51.7553 40
      vertex 5 52 40
    endloop
  endfacet
  facet normal -0.140263 0.885585 -0.442793
    outer loop
      vertex 3.76393 50.8042 38
      vertex 3.45491 51.7553 40
      vertex 5 51 38
    endloop
  endfacet
  facet normal 0.140263 0.885585 -0.442793
    outer loop
      vertex 48.5451 51.7553 40
      vertex 47 51 38
      vertex 47 52 40
    endloop
  endfacet
  facet normal 0.407059 0.798898 -0.442793
    outer loop
      vertex 49.3511 50.2361 38
      vertex 48.5451 51.7553 40
      vertex 49.9389 51.0451 40
    endloop
  endfacet
  facet normal 0.140263 0.885585 -0.442793
    outer loop
      vertex 48.2361 50.8042 38
      vertex 47 51 38
      vertex 48.5451 51.7553 40
    endloop
  endfacet
  facet normal 0.407059 0.798898 -0.442793
    outer loop
      vertex 49.3511 50.2361 38
      vertex 48.2361 50.8042 38
      vertex 48.5451 51.7553 40
    endloop
  endfacet
  facet normal 0.634009 0.634009 -0.442793
    outer loop
      vertex 49.3511 50.2361 38
      vertex 49.9389 51.0451 40
      vertex 50.2361 49.3511 38
    endloop
  endfacet
  facet normal 0.634009 0.634009 -0.442793
    outer loop
      vertex 50.2361 49.3511 38
      vertex 49.9389 51.0451 40
      vertex 51.0451 49.9389 40
    endloop
  endfacet
  facet normal 0.798898 0.407059 -0.442793
    outer loop
      vertex 51.7553 48.5451 40
      vertex 50.2361 49.3511 38
      vertex 51.0451 49.9389 40
    endloop
  endfacet
  facet normal 0.885585 0.140263 -0.442793
    outer loop
      vertex 52 47 40
      vertex 51 47 38
      vertex 51.7553 48.5451 40
    endloop
  endfacet
  facet normal 0.798898 0.407059 -0.442793
    outer loop
      vertex 50.8042 48.2361 38
      vertex 50.2361 49.3511 38
      vertex 51.7553 48.5451 40
    endloop
  endfacet
  facet normal 0.885585 0.140263 -0.442793
    outer loop
      vertex 51 47 38
      vertex 50.8042 48.2361 38
      vertex 51.7553 48.5451 40
    endloop
  endfacet
  facet normal 0.894427 0 -0.447214
    outer loop
      vertex 52 5 40
      vertex 51 5 38
      vertex 51 47 38
    endloop
  endfacet
  facet normal 0.894427 0 -0.447214
    outer loop
      vertex 52 47 40
      vertex 52 5 40
      vertex 51 47 38
    endloop
  endfacet
  facet normal 0.885585 -0.140263 -0.442793
    outer loop
      vertex 51.7553 3.45491 40
      vertex 51 5 38
      vertex 52 5 40
    endloop
  endfacet
  facet normal 0.798898 -0.407059 -0.442793
    outer loop
      vertex 51.0451 2.06107 40
      vertex 50.2361 2.64886 38
      vertex 51.7553 3.45491 40
    endloop
  endfacet
  facet normal 0.885585 -0.140263 -0.442793
    outer loop
      vertex 51.7553 3.45491 40
      vertex 50.8042 3.76393 38
      vertex 51 5 38
    endloop
  endfacet
  facet normal 0.798898 -0.407059 -0.442793
    outer loop
      vertex 51.7553 3.45491 40
      vertex 50.2361 2.64886 38
      vertex 50.8042 3.76393 38
    endloop
  endfacet
  facet normal 0.634009 -0.634009 -0.442793
    outer loop
      vertex 51.0451 2.06107 40
      vertex 49.3511 1.76393 38
      vertex 50.2361 2.64886 38
    endloop
  endfacet
  facet normal 0.634009 -0.634009 -0.442793
    outer loop
      vertex 49.9389 0.954915 40
      vertex 49.3511 1.76393 38
      vertex 51.0451 2.06107 40
    endloop
  endfacet
  facet normal 0.407059 -0.798898 -0.442793
    outer loop
      vertex 49.9389 0.954915 40
      vertex 48.5451 0.244717 40
      vertex 49.3511 1.76393 38
    endloop
  endfacet
  facet normal 0.407059 -0.798898 -0.442793
    outer loop
      vertex 48.5451 0.244717 40
      vertex 48.2361 1.19577 38
      vertex 49.3511 1.76393 38
    endloop
  endfacet
  facet normal 0 0 1
    outer loop
      vertex 2.63215 4.36565 1.5
      vertex 3.01565 3.61298 1.5
      vertex 3.61298 3.01565 1.5
    endloop
  endfacet
  facet normal 0 0 1
    outer loop
      vertex 5.2 2.5 1.5
      vertex 2.63215 4.36565 1.5
      vertex 4.36565 2.63215 1.5
    endloop
  endfacet
  facet normal 0 0 1
    outer loop
      vertex 4.36565 2.63215 1.5
      vertex 2.63215 4.36565 1.5
      vertex 3.61298 3.01565 1.5
    endloop
  endfacet
  facet normal 0 0 1
    outer loop
      vertex 46.8 2.5 1.5
      vertex 2.63215 4.36565 1.5
      vertex 5.2 2.5 1.5
    endloop
  endfacet
  facet normal 0 0 1
    outer loop
      vertex 47.6343 2.63215 1.5
      vertex 2.63215 4.36565 1.5
      vertex 46.8 2.5 1.5
    endloop
  endfacet
  facet normal 0 0 1
    outer loop
      vertex 48.387 3.01565 1.5
      vertex 2.63215 4.36565 1.5
      vertex 47.6343 2.63215 1.5
    endloop
  endfacet
  facet normal 0 0 1
    outer loop
      vertex 48.9843 3.61298 1.5
      vertex 2.63215 4.36565 1.5
      vertex 48.387 3.01565 1.5
    endloop
  endfacet
  facet normal 0 0 1
    outer loop
      vertex 49.3679 4.36565 1.5
      vertex 2.63215 4.36565 1.5
      vertex 48.9843 3.61298 1.5
    endloop
  endfacet
  facet normal 0 0 1
    outer loop
      vertex 49.5 5.2 1.5
      vertex 2.63215 4.36565 1.5
      vertex 49.3679 4.36565 1.5
    endloop
  endfacet
  facet normal 0 0 1
    outer loop
      vertex 49.5 46.8 1.5
      vertex 2.63215 4.36565 1.5
      vertex 49.5 5.2 1.5
    endloop
  endfacet
  facet normal 0 0 1
    outer loop
      vertex 49.3679 47.6343 1.5
      vertex 2.63215 4.36565 1.5
      vertex 49.5 46.8 1.5
    endloop
  endfacet
  facet normal 0 0 1
    outer loop
      vertex 48.9843 48.387 1.5
      vertex 2.63215 4.36565 1.5
      vertex 49.3679 47.6343 1.5
    endloop
  endfacet
  facet normal 0 0 1
    outer loop
      vertex 48.387 48.9843 1.5
      vertex 2.63215 4.36565 1.5
      vertex 48.9843 48.387 1.5
    endloop
  endfacet
  facet normal 0 0 1
    outer loop
      vertex 47.6343 49.3679 1.5
      vertex 2.63215 4.36565 1.5
      vertex 48.387 48.9843 1.5
    endloop
  endfacet
  facet normal 0 0 1
    outer loop
      vertex 46.8 49.5 1.5
      vertex 2.63215 4.36565 1.5
      vertex 47.6343 49.3679 1.5
    endloop
  endfacet
  facet normal 0 0 1
    outer loop
      vertex 5.2 49.5 1.5
      vertex 2.63215 4.36565 1.5
      vertex 46.8 49.5 1.5
    endloop
  endfacet
  facet normal 0 0 1
    outer loop
      vertex 4.36565 49.3679 1.5
      vertex 2.63215 4.36565 1.5
      vertex 5.2 49.5 1.5
    endloop
  endfacet
  facet normal 0 0 1
    outer loop
      vertex 3.61298 48.9843 1.5
      vertex 2.63215 4.36565 1.5
      vertex 4.36565 49.3679 1.5
    endloop
  endfacet
  facet normal 0 0 1
    outer loop
      vertex 3.01565 48.387 1.5
      vertex 2.63215 4.36565 1.5
      vertex 3.61298 48.9843 1.5
    endloop
  endfacet
  facet normal 0 0 1
    outer loop
      vertex 2.63215 47.6343 1.5
      vertex 2.63215 4.36565 1.5
      vertex 3.01565 48.387 1.5
    endloop
  endfacet
  facet normal 0 0 1
    outer loop
      vertex 2.5 46.8 1.5
      vertex 2.63215 4.36565 1.5
      vertex 2.63215 47.6343 1.5
    endloop
  endfacet
  facet normal 0 0 1
    outer loop
      vertex 2.5 5.2 1.5
      vertex 2.63215 4.36565 1.5
      vertex 2.5 46.8 1.5
    endloop
  endfacet
endsolid OpenSCAD_Model
