solid OpenSCAD_Model
  facet normal -1 0 0
    outer loop
      vertex 0 14.4 5.4
      vertex 0 14 5
      vertex 0 5.6 5.4
    endloop
  endfacet
  facet normal -1 0 -0
    outer loop
      vertex 0 1 10
      vertex 0 0 10.4
      vertex 0 20 10.4
    endloop
  endfacet
  facet normal -1 0 -0
    outer loop
      vertex 0 19 10
      vertex 0 1 10
      vertex 0 20 10.4
    endloop
  endfacet
  facet normal -1 0 -0
    outer loop
      vertex 0 0 0
      vertex 0 0 10.4
      vertex 0 1.6 9.4
    endloop
  endfacet
  facet normal -1 0 0
    outer loop
      vertex 0 16.0706 1.72909
      vertex 0 12.4 3.4
      vertex 0 15.354 2.36387
    endloop
  endfacet
  facet normal -1 0 0
    outer loop
      vertex 0 20 0
      vertex 0 18.4 9.4
      vertex 0 20 10.4
    endloop
  endfacet
  facet normal -1 0 0
    outer loop
      vertex 0 18.4 9.4
      vertex 0 19 10
      vertex 0 20 10.4
    endloop
  endfacet
  facet normal -1 0 0
    outer loop
      vertex 0 0 0
      vertex 0 1.6 9.4
      vertex 0 1.5 7.8934
    endloop
  endfacet
  facet normal -1 0 0
    outer loop
      vertex 0 12.4 3.4
      vertex 0 16.0706 1.72909
      vertex 0 12 3
    endloop
  endfacet
  facet normal -1 0 0
    outer loop
      vertex 0 0 0
      vertex 0 1.5 7.8934
      vertex 0 1.5 1.5
    endloop
  endfacet
  facet normal -1 -0 0
    outer loop
      vertex 0 0 0
      vertex 0 1.5 1.5
      vertex 0 20 0
    endloop
  endfacet
  facet normal -1 0 0
    outer loop
      vertex 0 1.5 1.5
      vertex 0 7.8934 1.5
      vertex 0 20 0
    endloop
  endfacet
  facet normal -1 0 0
    outer loop
      vertex 0 1.5 7.8934
      vertex 0 1.6 9.4
      vertex 0 2 9
    endloop
  endfacet
  facet normal -1 0 0
    outer loop
      vertex 0 1.5 7.8934
      vertex 0 2 9
      vertex 0 2.6 8.4
    endloop
  endfacet
  facet normal -1 0 0
    outer loop
      vertex 0 13.4 4.4
      vertex 0 13 4
      vertex 0 6.6 4.4
    endloop
  endfacet
  facet normal -1 -0 -0
    outer loop
      vertex 0 2 9
      vertex 0 1.6 9.4
      vertex 0 18 9
    endloop
  endfacet
  facet normal -1 0 0
    outer loop
      vertex 0 18.87 4.20921
      vertex 0 17.4 8.4
      vertex 0 18 9
    endloop
  endfacet
  facet normal -1 0 0
    outer loop
      vertex 0 20 0
      vertex 0 18 9
      vertex 0 18.4 9.4
    endloop
  endfacet
  facet normal -1 0 0
    outer loop
      vertex 0 1.5 7.8934
      vertex 0 2.6 8.4
      vertex 0 3 8
    endloop
  endfacet
  facet normal -1 -0 0
    outer loop
      vertex 0 1.5 7.8934
      vertex 0 3 8
      vertex 0 3.6 7.4
    endloop
  endfacet
  facet normal -1 0 0
    outer loop
      vertex 0 17.4786 5.44188
      vertex 0 16.4 7.4
      vertex 0 17 8
    endloop
  endfacet
  facet normal -1 0 0
    outer loop
      vertex 0 18.3262 4.99702
      vertex 0 17 8
      vertex 0 17.4 8.4
    endloop
  endfacet
  facet normal -1 0 0
    outer loop
      vertex 0 1.5 7.8934
      vertex 0 3.6 7.4
      vertex 0 4 7
    endloop
  endfacet
  facet normal -1 0 0
    outer loop
      vertex 0 7.8934 1.5
      vertex 0 1.5 7.8934
      vertex 0 4.6 6.4
    endloop
  endfacet
  facet normal -1 0 0
    outer loop
      vertex 0 16.0706 1.72909
      vertex 0 20 0
      vertex 0 12 3
    endloop
  endfacet
  facet normal -1 -0 -0
    outer loop
      vertex 0 9 2
      vertex 0 8.6 2.4
      vertex 0 11 2
    endloop
  endfacet
  facet normal -1 0 0
    outer loop
      vertex 0 13 4
      vertex 0 15.354 2.36387
      vertex 0 12.4 3.4
    endloop
  endfacet
  facet normal -1 0 0
    outer loop
      vertex 0 16.5214 5.44188
      vertex 0 15.4 6.4
      vertex 0 16 7
    endloop
  endfacet
  facet normal -1 0 0
    outer loop
      vertex 0 7.8934 1.5
      vertex 0 4.6 6.4
      vertex 0 5 6
    endloop
  endfacet
  facet normal -1 0 0
    outer loop
      vertex 0 7.8934 1.5
      vertex 0 5 6
      vertex 0 5.6 5.4
    endloop
  endfacet
  facet normal -1 -0 -0
    outer loop
      vertex 0 8 3
      vertex 0 7.6 3.4
      vertex 0 12 3
    endloop
  endfacet
  facet normal -1 0 0
    outer loop
      vertex 0 15.6738 4.99702
      vertex 0 14.4 5.4
      vertex 0 15 6
    endloop
  endfacet
  facet normal -1 0 -0
    outer loop
      vertex 0 15.6738 4.99702
      vertex 0 15.4 6.4
      vertex 0 16.5214 5.44188
    endloop
  endfacet
  facet normal -1 0 0
    outer loop
      vertex 0 7.8934 1.5
      vertex 0 5.6 5.4
      vertex 0 6 5
    endloop
  endfacet
  facet normal -1 0 0
    outer loop
      vertex 0 7.8934 1.5
      vertex 0 6 5
      vertex 0 6.6 4.4
    endloop
  endfacet
  facet normal -1 0 0
    outer loop
      vertex 0 12 3
      vertex 0 20 0
      vertex 0 11.4 2.4
    endloop
  endfacet
  facet normal -1 -0 -0
    outer loop
      vertex 0 5 6
      vertex 0 4.6 6.4
      vertex 0 15 6
    endloop
  endfacet
  facet normal -1 -0 -0
    outer loop
      vertex 0 7 4
      vertex 0 6.6 4.4
      vertex 0 13 4
    endloop
  endfacet
  facet normal -1 0 0
    outer loop
      vertex 0 15.13 4.20921
      vertex 0 14 5
      vertex 0 14.4 5.4
    endloop
  endfacet
  facet normal -1 0 0
    outer loop
      vertex 0 7.8934 1.5
      vertex 0 6.6 4.4
      vertex 0 7 4
    endloop
  endfacet
  facet normal -1 0 0
    outer loop
      vertex 0 7.8934 1.5
      vertex 0 7 4
      vertex 0 7.6 3.4
    endloop
  endfacet
  facet normal -1 0 0
    outer loop
      vertex 0 11.4 2.4
      vertex 0 20 0
      vertex 0 11 2
    endloop
  endfacet
  facet normal -1 0 0
    outer loop
      vertex 0 4.6 6.4
      vertex 0 1.5 7.8934
      vertex 0 4 7
    endloop
  endfacet
  facet normal -1 0 0
    outer loop
      vertex 0 17.9294 1.72909
      vertex 0 20 0
      vertex 0 17 1.5
    endloop
  endfacet
  facet normal -1 -0 -0
    outer loop
      vertex 0 3 8
      vertex 0 2.6 8.4
      vertex 0 17 8
    endloop
  endfacet
  facet normal -1 0 0
    outer loop
      vertex 0 15.0146 3.25893
      vertex 0 13 4
      vertex 0 13.4 4.4
    endloop
  endfacet
  facet normal -1 0 -0
    outer loop
      vertex 0 7.8934 1.5
      vertex 0 7.6 3.4
      vertex 0 8 3
    endloop
  endfacet
  facet normal -1 0 -0
    outer loop
      vertex 0 15.13 4.20921
      vertex 0 14.4 5.4
      vertex 0 15.6738 4.99702
    endloop
  endfacet
  facet normal -1 0 0
    outer loop
      vertex 0 7.8934 1.5
      vertex 0 8 3
      vertex 0 8.6 2.4
    endloop
  endfacet
  facet normal -1 0 0
    outer loop
      vertex 0 11 2
      vertex 0 20 0
      vertex 0 10.4 1.4
    endloop
  endfacet
  facet normal -1 0 0
    outer loop
      vertex 0 11.4 2.4
      vertex 0 11 2
      vertex 0 8.6 2.4
    endloop
  endfacet
  facet normal -1 0 0
    outer loop
      vertex 0 12.4 3.4
      vertex 0 12 3
      vertex 0 7.6 3.4
    endloop
  endfacet
  facet normal -1 0 0
    outer loop
      vertex 0 7.8934 1.5
      vertex 0 8.6 2.4
      vertex 0 9 2
    endloop
  endfacet
  facet normal -1 0 0
    outer loop
      vertex 0 16.5214 5.44188
      vertex 0 16 7
      vertex 0 16.4 7.4
    endloop
  endfacet
  facet normal -1 -0 0
    outer loop
      vertex 0 7.8934 1.5
      vertex 0 9 2
      vertex 0 9.6 1.4
    endloop
  endfacet
  facet normal -1 0 0
    outer loop
      vertex 0 7.8934 1.5
      vertex 0 9.6 1.4
      vertex 0 20 0
    endloop
  endfacet
  facet normal -1 0 0
    outer loop
      vertex 0 9.6 1.4
      vertex 0 10.4 1.4
      vertex 0 20 0
    endloop
  endfacet
  facet normal -1 0 0
    outer loop
      vertex 0 18.646 2.36387
      vertex 0 20 0
      vertex 0 17.9294 1.72909
    endloop
  endfacet
  facet normal -1 0 0
    outer loop
      vertex 0 15.0146 3.25893
      vertex 0 13.4 4.4
      vertex 0 14 5
    endloop
  endfacet
  facet normal -1 0 0
    outer loop
      vertex 0 17 1.5
      vertex 0 20 0
      vertex 0 16.0706 1.72909
    endloop
  endfacet
  facet normal -1 0 0
    outer loop
      vertex 0 15.354 2.36387
      vertex 0 13 4
      vertex 0 15.0146 3.25893
    endloop
  endfacet
  facet normal -1 -0 -0
    outer loop
      vertex 0 6 5
      vertex 0 5.6 5.4
      vertex 0 14 5
    endloop
  endfacet
  facet normal -1 -0 -0
    outer loop
      vertex 0 4 7
      vertex 0 3.6 7.4
      vertex 0 16 7
    endloop
  endfacet
  facet normal -1 -0 -0
    outer loop
      vertex 0 16.5214 5.44188
      vertex 0 16.4 7.4
      vertex 0 17.4786 5.44188
    endloop
  endfacet
  facet normal -1 0 0
    outer loop
      vertex 0 18.9854 3.25893
      vertex 0 20 0
      vertex 0 18.646 2.36387
    endloop
  endfacet
  facet normal -1 0 0
    outer loop
      vertex 0 18.87 4.20921
      vertex 0 20 0
      vertex 0 18.9854 3.25893
    endloop
  endfacet
  facet normal -1 -0 -0
    outer loop
      vertex 0 18.3262 4.99702
      vertex 0 17.4 8.4
      vertex 0 18.87 4.20921
    endloop
  endfacet
  facet normal -1 0 0
    outer loop
      vertex 0 20 0
      vertex 0 18.87 4.20921
      vertex 0 18 9
    endloop
  endfacet
  facet normal -1 -0 -0
    outer loop
      vertex 0 17.4786 5.44188
      vertex 0 17 8
      vertex 0 18.3262 4.99702
    endloop
  endfacet
  facet normal -1 0 0
    outer loop
      vertex 0 15.6738 4.99702
      vertex 0 15 6
      vertex 0 15.4 6.4
    endloop
  endfacet
  facet normal -1 0 -0
    outer loop
      vertex 0 15.0146 3.25893
      vertex 0 14 5
      vertex 0 15.13 4.20921
    endloop
  endfacet
  facet normal -1 0 0
    outer loop
      vertex 0 1.6 9.4
      vertex 0 0 10.4
      vertex 0 1 10
    endloop
  endfacet
  facet normal -1 0 0
    outer loop
      vertex 0 15.4 6.4
      vertex 0 15 6
      vertex 0 4.6 6.4
    endloop
  endfacet
  facet normal -1 0 0
    outer loop
      vertex 0 16.4 7.4
      vertex 0 16 7
      vertex 0 3.6 7.4
    endloop
  endfacet
  facet normal -1 0 0
    outer loop
      vertex 0 17.4 8.4
      vertex 0 17 8
      vertex 0 2.6 8.4
    endloop
  endfacet
  facet normal -1 0 0
    outer loop
      vertex 0 18.4 9.4
      vertex 0 18 9
      vertex 0 1.6 9.4
    endloop
  endfacet
  facet normal 0 -1 0
    outer loop
      vertex 0 0 10.4
      vertex 0 0 0
      vertex 5 0 0
    endloop
  endfacet
  facet normal 0 -1 0
    outer loop
      vertex 5 0 10.4
      vertex 0 0 10.4
      vertex 5 0 0
    endloop
  endfacet
  facet normal -0 -0 -1
    outer loop
      vertex 0 0 0
      vertex 0 20 0
      vertex 5 0 0
    endloop
  endfacet
  facet normal 0 0 -1
    outer loop
      vertex 5 0 0
      vertex 0 20 0
      vertex 5 20 0
    endloop
  endfacet
  facet normal 0 1 0
    outer loop
      vertex 0 20 0
      vertex 0 20 10.4
      vertex 5 20 0
    endloop
  endfacet
  facet normal 0 1 0
    outer loop
      vertex 5 20 0
      vertex 0 20 10.4
      vertex 5 20 10.4
    endloop
  endfacet
  facet normal 0 -0 1
    outer loop
      vertex 0 20 10.4
      vertex 0 0 10.4
      vertex 5 0 10.4
    endloop
  endfacet
  facet normal 0 0 1
    outer loop
      vertex 5 20 10.4
      vertex 0 20 10.4
      vertex 5 0 10.4
    endloop
  endfacet
  facet normal 0 0.707107 0.707107
    outer loop
      vertex 5 1 10
      vertex 5 1.6 9.4
      vertex 0 1.6 9.4
    endloop
  endfacet
  facet normal 0 0.707107 0.707107
    outer loop
      vertex 0 1 10
      vertex 5 1 10
      vertex 0 1.6 9.4
    endloop
  endfacet
  facet normal 0 0 -1
    outer loop
      vertex 5 19 10
      vertex 5 1 10
      vertex 0 19 10
    endloop
  endfacet
  facet normal 0 0 -1
    outer loop
      vertex 0 19 10
      vertex 5 1 10
      vertex 0 1 10
    endloop
  endfacet
  facet normal 0 -0.707107 0.707107
    outer loop
      vertex 5 18.4 9.4
      vertex 5 19 10
      vertex 0 19 10
    endloop
  endfacet
  facet normal 0 -0.707107 0.707107
    outer loop
      vertex 0 18.4 9.4
      vertex 5 18.4 9.4
      vertex 0 19 10
    endloop
  endfacet
  facet normal 0 -0 1
    outer loop
      vertex 0 18.4 9.4
      vertex 0 1.6 9.4
      vertex 5 1.6 9.4
    endloop
  endfacet
  facet normal 0 0 1
    outer loop
      vertex 5 18.4 9.4
      vertex 0 18.4 9.4
      vertex 5 1.6 9.4
    endloop
  endfacet
  facet normal -0 -0.707107 -0.707107
    outer loop
      vertex 0 1.5 7.8934
      vertex 0 7.8934 1.5
      vertex 5 1.5 7.8934
    endloop
  endfacet
  facet normal 0 -0.707107 -0.707107
    outer loop
      vertex 5 1.5 7.8934
      vertex 0 7.8934 1.5
      vertex 5 7.8934 1.5
    endloop
  endfacet
  facet normal 0 1 0
    outer loop
      vertex 5 1.5 7.8934
      vertex 5 1.5 1.5
      vertex 0 1.5 7.8934
    endloop
  endfacet
  facet normal 0 1 -0
    outer loop
      vertex 0 1.5 7.8934
      vertex 5 1.5 1.5
      vertex 0 1.5 1.5
    endloop
  endfacet
  facet normal 0 0 1
    outer loop
      vertex 5 1.5 1.5
      vertex 5 7.8934 1.5
      vertex 0 7.8934 1.5
    endloop
  endfacet
  facet normal 0 0 1
    outer loop
      vertex 0 1.5 1.5
      vertex 5 1.5 1.5
      vertex 0 7.8934 1.5
    endloop
  endfacet
  facet normal 0 0.707107 0.707107
    outer loop
      vertex 5 2 9
      vertex 5 2.6 8.4
      vertex 0 2.6 8.4
    endloop
  endfacet
  facet normal 0 0.707107 0.707107
    outer loop
      vertex 0 2 9
      vertex 5 2 9
      vertex 0 2.6 8.4
    endloop
  endfacet
  facet normal -0 -0 -1
    outer loop
      vertex 0 2 9
      vertex 0 18 9
      vertex 5 2 9
    endloop
  endfacet
  facet normal 0 0 -1
    outer loop
      vertex 5 2 9
      vertex 0 18 9
      vertex 5 18 9
    endloop
  endfacet
  facet normal 0 -0.707107 0.707107
    outer loop
      vertex 5 17.4 8.4
      vertex 5 18 9
      vertex 0 18 9
    endloop
  endfacet
  facet normal 0 -0.707107 0.707107
    outer loop
      vertex 0 17.4 8.4
      vertex 5 17.4 8.4
      vertex 0 18 9
    endloop
  endfacet
  facet normal 0 -0 1
    outer loop
      vertex 0 17.4 8.4
      vertex 0 2.6 8.4
      vertex 5 2.6 8.4
    endloop
  endfacet
  facet normal 0 0 1
    outer loop
      vertex 5 17.4 8.4
      vertex 0 17.4 8.4
      vertex 5 2.6 8.4
    endloop
  endfacet
  facet normal 0 0.707107 0.707107
    outer loop
      vertex 5 3 8
      vertex 5 3.6 7.4
      vertex 0 3.6 7.4
    endloop
  endfacet
  facet normal 0 0.707107 0.707107
    outer loop
      vertex 0 3 8
      vertex 5 3 8
      vertex 0 3.6 7.4
    endloop
  endfacet
  facet normal -0 -0 -1
    outer loop
      vertex 0 3 8
      vertex 0 17 8
      vertex 5 3 8
    endloop
  endfacet
  facet normal 0 0 -1
    outer loop
      vertex 5 3 8
      vertex 0 17 8
      vertex 5 17 8
    endloop
  endfacet
  facet normal 0 -0.707107 0.707107
    outer loop
      vertex 5 16.4 7.4
      vertex 5 17 8
      vertex 0 17 8
    endloop
  endfacet
  facet normal 0 -0.707107 0.707107
    outer loop
      vertex 0 16.4 7.4
      vertex 5 16.4 7.4
      vertex 0 17 8
    endloop
  endfacet
  facet normal 0 -0 1
    outer loop
      vertex 0 16.4 7.4
      vertex 0 3.6 7.4
      vertex 5 3.6 7.4
    endloop
  endfacet
  facet normal 0 0 1
    outer loop
      vertex 5 16.4 7.4
      vertex 0 16.4 7.4
      vertex 5 3.6 7.4
    endloop
  endfacet
  facet normal 0 0.707107 0.707107
    outer loop
      vertex 5 4 7
      vertex 5 4.6 6.4
      vertex 0 4.6 6.4
    endloop
  endfacet
  facet normal 0 0.707107 0.707107
    outer loop
      vertex 0 4 7
      vertex 5 4 7
      vertex 0 4.6 6.4
    endloop
  endfacet
  facet normal -0 -0 -1
    outer loop
      vertex 0 4 7
      vertex 0 16 7
      vertex 5 4 7
    endloop
  endfacet
  facet normal 0 0 -1
    outer loop
      vertex 5 4 7
      vertex 0 16 7
      vertex 5 16 7
    endloop
  endfacet
  facet normal 0 -0.707107 0.707107
    outer loop
      vertex 5 15.4 6.4
      vertex 5 16 7
      vertex 0 16 7
    endloop
  endfacet
  facet normal 0 -0.707107 0.707107
    outer loop
      vertex 0 15.4 6.4
      vertex 5 15.4 6.4
      vertex 0 16 7
    endloop
  endfacet
  facet normal 0 -0 1
    outer loop
      vertex 0 15.4 6.4
      vertex 0 4.6 6.4
      vertex 5 4.6 6.4
    endloop
  endfacet
  facet normal 0 0 1
    outer loop
      vertex 5 15.4 6.4
      vertex 0 15.4 6.4
      vertex 5 4.6 6.4
    endloop
  endfacet
  facet normal 0 0.707107 0.707107
    outer loop
      vertex 5 5 6
      vertex 5 5.6 5.4
      vertex 0 5.6 5.4
    endloop
  endfacet
  facet normal 0 0.707107 0.707107
    outer loop
      vertex 0 5 6
      vertex 5 5 6
      vertex 0 5.6 5.4
    endloop
  endfacet
  facet normal -0 -0 -1
    outer loop
      vertex 0 5 6
      vertex 0 15 6
      vertex 5 5 6
    endloop
  endfacet
  facet normal 0 0 -1
    outer loop
      vertex 5 5 6
      vertex 0 15 6
      vertex 5 15 6
    endloop
  endfacet
  facet normal 0 -0.707107 0.707107
    outer loop
      vertex 5 14.4 5.4
      vertex 5 15 6
      vertex 0 15 6
    endloop
  endfacet
  facet normal 0 -0.707107 0.707107
    outer loop
      vertex 0 14.4 5.4
      vertex 5 14.4 5.4
      vertex 0 15 6
    endloop
  endfacet
  facet normal 0 -0 1
    outer loop
      vertex 0 14.4 5.4
      vertex 0 5.6 5.4
      vertex 5 5.6 5.4
    endloop
  endfacet
  facet normal 0 0 1
    outer loop
      vertex 5 14.4 5.4
      vertex 0 14.4 5.4
      vertex 5 5.6 5.4
    endloop
  endfacet
  facet normal 0 0.707107 0.707107
    outer loop
      vertex 5 6 5
      vertex 5 6.6 4.4
      vertex 0 6.6 4.4
    endloop
  endfacet
  facet normal 0 0.707107 0.707107
    outer loop
      vertex 0 6 5
      vertex 5 6 5
      vertex 0 6.6 4.4
    endloop
  endfacet
  facet normal -0 -0 -1
    outer loop
      vertex 0 6 5
      vertex 0 14 5
      vertex 5 6 5
    endloop
  endfacet
  facet normal 0 0 -1
    outer loop
      vertex 5 6 5
      vertex 0 14 5
      vertex 5 14 5
    endloop
  endfacet
  facet normal 0 -0.707107 0.707107
    outer loop
      vertex 5 13.4 4.4
      vertex 5 14 5
      vertex 0 14 5
    endloop
  endfacet
  facet normal 0 -0.707107 0.707107
    outer loop
      vertex 0 13.4 4.4
      vertex 5 13.4 4.4
      vertex 0 14 5
    endloop
  endfacet
  facet normal 0 -0 1
    outer loop
      vertex 0 13.4 4.4
      vertex 0 6.6 4.4
      vertex 5 6.6 4.4
    endloop
  endfacet
  facet normal 0 0 1
    outer loop
      vertex 5 13.4 4.4
      vertex 0 13.4 4.4
      vertex 5 6.6 4.4
    endloop
  endfacet
  facet normal 0 0.707107 0.707107
    outer loop
      vertex 5 7 4
      vertex 5 7.6 3.4
      vertex 0 7.6 3.4
    endloop
  endfacet
  facet normal 0 0.707107 0.707107
    outer loop
      vertex 0 7 4
      vertex 5 7 4
      vertex 0 7.6 3.4
    endloop
  endfacet
  facet normal -0 -0 -1
    outer loop
      vertex 0 7 4
      vertex 0 13 4
      vertex 5 7 4
    endloop
  endfacet
  facet normal 0 0 -1
    outer loop
      vertex 5 7 4
      vertex 0 13 4
      vertex 5 13 4
    endloop
  endfacet
  facet normal 0 -0.707107 0.707107
    outer loop
      vertex 5 12.4 3.4
      vertex 5 13 4
      vertex 0 13 4
    endloop
  endfacet
  facet normal 0 -0.707107 0.707107
    outer loop
      vertex 0 12.4 3.4
      vertex 5 12.4 3.4
      vertex 0 13 4
    endloop
  endfacet
  facet normal 0 -0 1
    outer loop
      vertex 0 12.4 3.4
      vertex 0 7.6 3.4
      vertex 5 7.6 3.4
    endloop
  endfacet
  facet normal 0 0 1
    outer loop
      vertex 5 12.4 3.4
      vertex 0 12.4 3.4
      vertex 5 7.6 3.4
    endloop
  endfacet
  facet normal 0 0.707107 0.707107
    outer loop
      vertex 5 8 3
      vertex 5 8.6 2.4
      vertex 0 8.6 2.4
    endloop
  endfacet
  facet normal 0 0.707107 0.707107
    outer loop
      vertex 0 8 3
      vertex 5 8 3
      vertex 0 8.6 2.4
    endloop
  endfacet
  facet normal -0 -0 -1
    outer loop
      vertex 0 8 3
      vertex 0 12 3
      vertex 5 8 3
    endloop
  endfacet
  facet normal 0 0 -1
    outer loop
      vertex 5 8 3
      vertex 0 12 3
      vertex 5 12 3
    endloop
  endfacet
  facet normal 0 -0.707107 0.707107
    outer loop
      vertex 5 11.4 2.4
      vertex 5 12 3
      vertex 0 12 3
    endloop
  endfacet
  facet normal 0 -0.707107 0.707107
    outer loop
      vertex 0 11.4 2.4
      vertex 5 11.4 2.4
      vertex 0 12 3
    endloop
  endfacet
  facet normal 0 -0 1
    outer loop
      vertex 0 11.4 2.4
      vertex 0 8.6 2.4
      vertex 5 8.6 2.4
    endloop
  endfacet
  facet normal 0 0 1
    outer loop
      vertex 5 11.4 2.4
      vertex 0 11.4 2.4
      vertex 5 8.6 2.4
    endloop
  endfacet
  facet normal 0 0.707107 0.707107
    outer loop
      vertex 5 9 2
      vertex 5 9.6 1.4
      vertex 0 9.6 1.4
    endloop
  endfacet
  facet normal 0 0.707107 0.707107
    outer loop
      vertex 0 9 2
      vertex 5 9 2
      vertex 0 9.6 1.4
    endloop
  endfacet
  facet normal -0 -0 -1
    outer loop
      vertex 0 9 2
      vertex 0 11 2
      vertex 5 9 2
    endloop
  endfacet
  facet normal 0 0 -1
    outer loop
      vertex 5 9 2
      vertex 0 11 2
      vertex 5 11 2
    endloop
  endfacet
  facet normal 0 -0.707107 0.707107
    outer loop
      vertex 5 10.4 1.4
      vertex 5 11 2
      vertex 0 11 2
    endloop
  endfacet
  facet normal 0 -0.707107 0.707107
    outer loop
      vertex 0 10.4 1.4
      vertex 5 10.4 1.4
      vertex 0 11 2
    endloop
  endfacet
  facet normal 0 -0 1
    outer loop
      vertex 0 10.4 1.4
      vertex 0 9.6 1.4
      vertex 5 9.6 1.4
    endloop
  endfacet
  facet normal 0 0 1
    outer loop
      vertex 5 10.4 1.4
      vertex 0 10.4 1.4
      vertex 5 9.6 1.4
    endloop
  endfacet
  facet normal 1.00909e-016 0.822984 -0.568065
    outer loop
      vertex 5 15.6738 4.99702
      vertex 5 15.13 4.20921
      vertex 0 15.6738 4.99702
    endloop
  endfacet
  facet normal 1.0873e-016 0.822984 -0.568065
    outer loop
      vertex 0 15.6738 4.99702
      vertex 5 15.13 4.20921
      vertex 0 15.13 4.20921
    endloop
  endfacet
  facet normal 2.14118e-017 0.992709 -0.120537
    outer loop
      vertex 5 15.13 4.20921
      vertex 5 15.0146 3.25893
      vertex 0 15.13 4.20921
    endloop
  endfacet
  facet normal 2.26521e-017 0.992709 -0.120537
    outer loop
      vertex 0 15.13 4.20921
      vertex 5 15.0146 3.25893
      vertex 0 15.0146 3.25893
    endloop
  endfacet
  facet normal 1.57289e-016 0.464724 -0.885456
    outer loop
      vertex 5 16.5214 5.44188
      vertex 5 15.6738 4.99702
      vertex 0 16.5214 5.44188
    endloop
  endfacet
  facet normal 1.54034e-016 0.464724 -0.885456
    outer loop
      vertex 0 16.5214 5.44188
      vertex 5 15.6738 4.99702
      vertex 0 15.6738 4.99702
    endloop
  endfacet
  facet normal 1.77636e-016 0 -1
    outer loop
      vertex 5 17.4786 5.44188
      vertex 5 16.5214 5.44188
      vertex 0 17.4786 5.44188
    endloop
  endfacet
  facet normal 1.77636e-016 0 -1
    outer loop
      vertex 0 17.4786 5.44188
      vertex 5 16.5214 5.44188
      vertex 0 16.5214 5.44188
    endloop
  endfacet
  facet normal 1.57289e-016 -0.464724 -0.885456
    outer loop
      vertex 5 18.3262 4.99702
      vertex 5 17.4786 5.44188
      vertex 0 18.3262 4.99702
    endloop
  endfacet
  facet normal 1.63095e-016 -0.464724 -0.885456
    outer loop
      vertex 0 18.3262 4.99702
      vertex 5 17.4786 5.44188
      vertex 0 17.4786 5.44188
    endloop
  endfacet
  facet normal 1.00909e-016 -0.822984 -0.568065
    outer loop
      vertex 0 18.87 4.20921
      vertex 5 18.87 4.20921
      vertex 5 18.3262 4.99702
    endloop
  endfacet
  facet normal 1.00909e-016 -0.822984 -0.568065
    outer loop
      vertex 0 18.3262 4.99702
      vertex 0 18.87 4.20921
      vertex 5 18.3262 4.99702
    endloop
  endfacet
  facet normal 2.14118e-017 -0.992709 -0.120537
    outer loop
      vertex 0 18.9854 3.25893
      vertex 5 18.9854 3.25893
      vertex 5 18.87 4.20921
    endloop
  endfacet
  facet normal 2.14118e-017 -0.992709 -0.120537
    outer loop
      vertex 0 18.87 4.20921
      vertex 0 18.9854 3.25893
      vertex 5 18.87 4.20921
    endloop
  endfacet
  facet normal -6.3426e-017 -0.935016 0.354605
    outer loop
      vertex 5 18.646 2.36387
      vertex 5 18.9854 3.25893
      vertex 0 18.9854 3.25893
    endloop
  endfacet
  facet normal -6.29905e-017 -0.935016 0.354605
    outer loop
      vertex 0 18.646 2.36387
      vertex 5 18.646 2.36387
      vertex 0 18.9854 3.25893
    endloop
  endfacet
  facet normal -1.26852e-016 -0.663123 0.748511
    outer loop
      vertex 5 17.9294 1.72909
      vertex 5 18.646 2.36387
      vertex 0 18.646 2.36387
    endloop
  endfacet
  facet normal -1.66203e-016 -0.663123 0.748511
    outer loop
      vertex 0 17.9294 1.72909
      vertex 5 17.9294 1.72909
      vertex 0 18.646 2.36387
    endloop
  endfacet
  facet normal -2.17461e-016 -0.239316 0.970942
    outer loop
      vertex 5 17 1.5
      vertex 5 17.9294 1.72909
      vertex 0 17.9294 1.72909
    endloop
  endfacet
  facet normal -2.15592e-016 -0.239316 0.970942
    outer loop
      vertex 0 17 1.5
      vertex 5 17 1.5
      vertex 0 17.9294 1.72909
    endloop
  endfacet
  facet normal -2.17461e-016 0.239316 0.970942
    outer loop
      vertex 5 16.0706 1.72909
      vertex 5 17 1.5
      vertex 0 17 1.5
    endloop
  endfacet
  facet normal -2.15592e-016 0.239316 0.970942
    outer loop
      vertex 0 16.0706 1.72909
      vertex 5 16.0706 1.72909
      vertex 0 17 1.5
    endloop
  endfacet
  facet normal -1.63095e-016 0.663123 0.748511
    outer loop
      vertex 5 15.354 2.36387
      vertex 5 16.0706 1.72909
      vertex 0 16.0706 1.72909
    endloop
  endfacet
  facet normal -1.32962e-016 0.663123 0.748511
    outer loop
      vertex 0 15.354 2.36387
      vertex 5 15.354 2.36387
      vertex 0 16.0706 1.72909
    endloop
  endfacet
  facet normal -6.29905e-017 0.935016 0.354605
    outer loop
      vertex 5 15.354 2.36387
      vertex 0 15.354 2.36387
      vertex 5 15.0146 3.25893
    endloop
  endfacet
  facet normal -6.29905e-017 0.935016 0.354605
    outer loop
      vertex 5 15.0146 3.25893
      vertex 0 15.354 2.36387
      vertex 0 15.0146 3.25893
    endloop
  endfacet
  facet normal 1 0 -0
    outer loop
      vertex 5 1.5 1.5
      vertex 5 0 0
      vertex 5 20 0
    endloop
  endfacet
  facet normal 1 0 0
    outer loop
      vertex 5 1.5 7.8934
      vertex 5 7.8934 1.5
      vertex 5 1.6 9.4
    endloop
  endfacet
  facet normal 1 0 -0
    outer loop
      vertex 5 0 10.4
      vertex 5 0 0
      vertex 5 1.6 9.4
    endloop
  endfacet
  facet normal 1 0 0
    outer loop
      vertex 5 20 10.4
      vertex 5 0 10.4
      vertex 5 1 10
    endloop
  endfacet
  facet normal 1 0 0
    outer loop
      vertex 5 20 10.4
      vertex 5 19 10
      vertex 5 20 0
    endloop
  endfacet
  facet normal 1 0 0
    outer loop
      vertex 5 20 10.4
      vertex 5 1 10
      vertex 5 19 10
    endloop
  endfacet
  facet normal 1 0 -0
    outer loop
      vertex 5 19 10
      vertex 5 18.4 9.4
      vertex 5 20 0
    endloop
  endfacet
  facet normal 1 0 -0
    outer loop
      vertex 5 7.8934 1.5
      vertex 5 1.5 1.5
      vertex 5 20 0
    endloop
  endfacet
  facet normal 1 0 0
    outer loop
      vertex 5 1.5 7.8934
      vertex 5 0 0
      vertex 5 1.5 1.5
    endloop
  endfacet
  facet normal 1 0 0
    outer loop
      vertex 5 1.6 9.4
      vertex 5 0 0
      vertex 5 1.5 7.8934
    endloop
  endfacet
  facet normal 1 -0 -0
    outer loop
      vertex 5 9.6 1.4
      vertex 5 7.8934 1.5
      vertex 5 20 0
    endloop
  endfacet
  facet normal 1 0 0
    outer loop
      vertex 5 2 9
      vertex 5 7.8934 1.5
      vertex 5 2.6 8.4
    endloop
  endfacet
  facet normal 1 0 0
    outer loop
      vertex 5 2 9
      vertex 5 18 9
      vertex 5 1.6 9.4
    endloop
  endfacet
  facet normal 1 0 0
    outer loop
      vertex 5 1.6 9.4
      vertex 5 7.8934 1.5
      vertex 5 2 9
    endloop
  endfacet
  facet normal 1 0 -0
    outer loop
      vertex 5 18.4 9.4
      vertex 5 18 9
      vertex 5 20 0
    endloop
  endfacet
  facet normal 1 0 0
    outer loop
      vertex 5 3 8
      vertex 5 7.8934 1.5
      vertex 5 3.6 7.4
    endloop
  endfacet
  facet normal 1 0 0
    outer loop
      vertex 5 3 8
      vertex 5 17 8
      vertex 5 2.6 8.4
    endloop
  endfacet
  facet normal 1 0 0
    outer loop
      vertex 5 2.6 8.4
      vertex 5 7.8934 1.5
      vertex 5 3 8
    endloop
  endfacet
  facet normal 1 0 0
    outer loop
      vertex 5 18.87 4.20921
      vertex 5 18.9854 3.25893
      vertex 5 20 0
    endloop
  endfacet
  facet normal 1 0 0
    outer loop
      vertex 5 4 7
      vertex 5 16 7
      vertex 5 3.6 7.4
    endloop
  endfacet
  facet normal 1 0 0
    outer loop
      vertex 5 4 7
      vertex 5 7.8934 1.5
      vertex 5 4.6 6.4
    endloop
  endfacet
  facet normal 1 0 0
    outer loop
      vertex 5 3.6 7.4
      vertex 5 7.8934 1.5
      vertex 5 4 7
    endloop
  endfacet
  facet normal 1 0 0
    outer loop
      vertex 5 17.4786 5.44188
      vertex 5 18.3262 4.99702
      vertex 5 17 8
    endloop
  endfacet
  facet normal 1 0 0
    outer loop
      vertex 5 13.4 4.4
      vertex 5 6.6 4.4
      vertex 5 13 4
    endloop
  endfacet
  facet normal 1 0 0
    outer loop
      vertex 5 11.4 2.4
      vertex 5 8.6 2.4
      vertex 5 11 2
    endloop
  endfacet
  facet normal 1 0 0
    outer loop
      vertex 5 5 6
      vertex 5 7.8934 1.5
      vertex 5 5.6 5.4
    endloop
  endfacet
  facet normal 1 0 0
    outer loop
      vertex 5 4.6 6.4
      vertex 5 7.8934 1.5
      vertex 5 5 6
    endloop
  endfacet
  facet normal 1 0 0
    outer loop
      vertex 5 9 2
      vertex 5 11 2
      vertex 5 8.6 2.4
    endloop
  endfacet
  facet normal 1 0 -0
    outer loop
      vertex 5 17.9294 1.72909
      vertex 5 17 1.5
      vertex 5 20 0
    endloop
  endfacet
  facet normal 1 0 0
    outer loop
      vertex 5 6 5
      vertex 5 14 5
      vertex 5 5.6 5.4
    endloop
  endfacet
  facet normal 1 0 0
    outer loop
      vertex 5 6 5
      vertex 5 7.8934 1.5
      vertex 5 6.6 4.4
    endloop
  endfacet
  facet normal 1 0 0
    outer loop
      vertex 5 5.6 5.4
      vertex 5 7.8934 1.5
      vertex 5 6 5
    endloop
  endfacet
  facet normal 1 0 0
    outer loop
      vertex 5 15.13 4.20921
      vertex 5 15.6738 4.99702
      vertex 5 14.4 5.4
    endloop
  endfacet
  facet normal 1 0 -0
    outer loop
      vertex 5 13 4
      vertex 5 12.4 3.4
      vertex 5 15.354 2.36387
    endloop
  endfacet
  facet normal 1 0 0
    outer loop
      vertex 5 15.6738 4.99702
      vertex 5 16.5214 5.44188
      vertex 5 15.4 6.4
    endloop
  endfacet
  facet normal 1 0 -0
    outer loop
      vertex 5 11.4 2.4
      vertex 5 11 2
      vertex 5 20 0
    endloop
  endfacet
  facet normal 1 0 0
    outer loop
      vertex 5 7 4
      vertex 5 7.8934 1.5
      vertex 5 7.6 3.4
    endloop
  endfacet
  facet normal 1 0 0
    outer loop
      vertex 5 6.6 4.4
      vertex 5 7.8934 1.5
      vertex 5 7 4
    endloop
  endfacet
  facet normal 1 0 0
    outer loop
      vertex 5 16.0706 1.72909
      vertex 5 15.354 2.36387
      vertex 5 12.4 3.4
    endloop
  endfacet
  facet normal 1 0 0
    outer loop
      vertex 5 15.354 2.36387
      vertex 5 15.0146 3.25893
      vertex 5 13 4
    endloop
  endfacet
  facet normal 1 0 -0
    outer loop
      vertex 5 12.4 3.4
      vertex 5 12 3
      vertex 5 16.0706 1.72909
    endloop
  endfacet
  facet normal 1 0 0
    outer loop
      vertex 5 15.0146 3.25893
      vertex 5 14 5
      vertex 5 13.4 4.4
    endloop
  endfacet
  facet normal 1 0 -0
    outer loop
      vertex 5 8 3
      vertex 5 7.8934 1.5
      vertex 5 8.6 2.4
    endloop
  endfacet
  facet normal 1 0 0
    outer loop
      vertex 5 7.6 3.4
      vertex 5 7.8934 1.5
      vertex 5 8 3
    endloop
  endfacet
  facet normal 1 0 -0
    outer loop
      vertex 5 12 3
      vertex 5 11.4 2.4
      vertex 5 20 0
    endloop
  endfacet
  facet normal 1 0 0
    outer loop
      vertex 5 5 6
      vertex 5 15 6
      vertex 5 4.6 6.4
    endloop
  endfacet
  facet normal 1 0 0
    outer loop
      vertex 5 15.0146 3.25893
      vertex 5 15.13 4.20921
      vertex 5 14 5
    endloop
  endfacet
  facet normal 1 0 0
    outer loop
      vertex 5 7 4
      vertex 5 13 4
      vertex 5 6.6 4.4
    endloop
  endfacet
  facet normal 1 0 -0
    outer loop
      vertex 5 11 2
      vertex 5 10.4 1.4
      vertex 5 20 0
    endloop
  endfacet
  facet normal 1 0 -0
    outer loop
      vertex 5 9 2
      vertex 5 7.8934 1.5
      vertex 5 9.6 1.4
    endloop
  endfacet
  facet normal 1 0 -0
    outer loop
      vertex 5 8.6 2.4
      vertex 5 7.8934 1.5
      vertex 5 9 2
    endloop
  endfacet
  facet normal 1 0 0
    outer loop
      vertex 5 8 3
      vertex 5 12 3
      vertex 5 7.6 3.4
    endloop
  endfacet
  facet normal 1 0 0
    outer loop
      vertex 5 20 0
      vertex 5 10.4 1.4
      vertex 5 9.6 1.4
    endloop
  endfacet
  facet normal 1 -0 -0
    outer loop
      vertex 5 17 1.5
      vertex 5 16.0706 1.72909
      vertex 5 20 0
    endloop
  endfacet
  facet normal 1 0 0
    outer loop
      vertex 5 16.5214 5.44188
      vertex 5 17.4786 5.44188
      vertex 5 16.4 7.4
    endloop
  endfacet
  facet normal 1 0 -0
    outer loop
      vertex 5 13.4 4.4
      vertex 5 13 4
      vertex 5 15.0146 3.25893
    endloop
  endfacet
  facet normal 1 0 0
    outer loop
      vertex 5 15.6738 4.99702
      vertex 5 15.4 6.4
      vertex 5 15 6
    endloop
  endfacet
  facet normal 1 0 -0
    outer loop
      vertex 5 14.4 5.4
      vertex 5 14 5
      vertex 5 15.13 4.20921
    endloop
  endfacet
  facet normal 1 0 0
    outer loop
      vertex 5 16.5214 5.44188
      vertex 5 16.4 7.4
      vertex 5 16 7
    endloop
  endfacet
  facet normal 1 0 -0
    outer loop
      vertex 5 15 6
      vertex 5 14.4 5.4
      vertex 5 15.6738 4.99702
    endloop
  endfacet
  facet normal 1 0 -0
    outer loop
      vertex 5 16 7
      vertex 5 15.4 6.4
      vertex 5 16.5214 5.44188
    endloop
  endfacet
  facet normal 1 0 -0
    outer loop
      vertex 5 17 8
      vertex 5 16.4 7.4
      vertex 5 17.4786 5.44188
    endloop
  endfacet
  facet normal 1 0 -0
    outer loop
      vertex 5 17.4 8.4
      vertex 5 17 8
      vertex 5 18.3262 4.99702
    endloop
  endfacet
  facet normal 1 0 0
    outer loop
      vertex 5 18 9
      vertex 5 18.87 4.20921
      vertex 5 20 0
    endloop
  endfacet
  facet normal 1 0 -0
    outer loop
      vertex 5 18 9
      vertex 5 17.4 8.4
      vertex 5 18.87 4.20921
    endloop
  endfacet
  facet normal 1 0 -0
    outer loop
      vertex 5 18.9854 3.25893
      vertex 5 18.646 2.36387
      vertex 5 20 0
    endloop
  endfacet
  facet normal 1 0 0
    outer loop
      vertex 5 18.3262 4.99702
      vertex 5 18.87 4.20921
      vertex 5 17.4 8.4
    endloop
  endfacet
  facet normal 1 0 -0
    outer loop
      vertex 5 18.646 2.36387
      vertex 5 17.9294 1.72909
      vertex 5 20 0
    endloop
  endfacet
  facet normal 1 0 0
    outer loop
      vertex 5 12.4 3.4
      vertex 5 7.6 3.4
      vertex 5 12 3
    endloop
  endfacet
  facet normal 1 -0 -0
    outer loop
      vertex 5 16.0706 1.72909
      vertex 5 12 3
      vertex 5 20 0
    endloop
  endfacet
  facet normal 1 0 0
    outer loop
      vertex 5 1.6 9.4
      vertex 5 1 10
      vertex 5 0 10.4
    endloop
  endfacet
  facet normal 1 0 0
    outer loop
      vertex 5 14.4 5.4
      vertex 5 5.6 5.4
      vertex 5 14 5
    endloop
  endfacet
  facet normal 1 0 0
    outer loop
      vertex 5 16.4 7.4
      vertex 5 3.6 7.4
      vertex 5 16 7
    endloop
  endfacet
  facet normal 1 0 0
    outer loop
      vertex 5 15.4 6.4
      vertex 5 4.6 6.4
      vertex 5 15 6
    endloop
  endfacet
  facet normal 1 0 0
    outer loop
      vertex 5 18.4 9.4
      vertex 5 1.6 9.4
      vertex 5 18 9
    endloop
  endfacet
  facet normal 1 0 0
    outer loop
      vertex 5 17.4 8.4
      vertex 5 2.6 8.4
      vertex 5 17 8
    endloop
  endfacet
endsolid OpenSCAD_Model
