solid sierpinski
facet normal -0 -0.832050294 -0.554700196
	outer loop
		vertex 15 5 7.5
		vertex 5 5 7.5
		vertex 10 10 0
	endloop
endfacet
facet normal 0.832050294 0 -0.554700196
	outer loop
		vertex 15 15 7.5
		vertex 15 5 7.5
		vertex 10 10 0
	endloop
endfacet
facet normal 0 0.832050294 -0.554700196
	outer loop
		vertex 5 15 7.5
		vertex 15 15 7.5
		vertex 10 10 0
	endloop
endfacet
facet normal -0.832050294 0 -0.554700196
	outer loop
		vertex 5 5 7.5
		vertex 5 15 7.5
		vertex 10 10 0
	endloop
endfacet
facet normal -0 -0.832050294 -0.554700196
	outer loop
		vertex 7.5 2.5 3.75
		vertex 2.5 2.5 3.75
		vertex 5 5 0
	endloop
endfacet
facet normal 0.832050294 0 -0.554700196
	outer loop
		vertex 7.5 7.5 3.75
		vertex 7.5 2.5 3.75
		vertex 5 5 0
	endloop
endfacet
facet normal 0 0.832050294 -0.554700196
	outer loop
		vertex 2.5 7.5 3.75
		vertex 7.5 7.5 3.75
		vertex 5 5 0
	endloop
endfacet
facet normal -0.832050294 0 -0.554700196
	outer loop
		vertex 2.5 2.5 3.75
		vertex 2.5 7.5 3.75
		vertex 5 5 0
	endloop
endfacet
facet normal -0 -0.832050294 -0.554700196
	outer loop
		vertex 3.75 1.25 1.875
		vertex 1.25 1.25 1.875
		vertex 2.5 2.5 0
	endloop
endfacet
facet normal 0.832050294 0 -0.554700196
	outer loop
		vertex 3.75 3.75 1.875
		vertex 3.75 1.25 1.875
		vertex 2.5 2.5 0
	endloop
endfacet
facet normal 0 0.832050294 -0.554700196
	outer loop
		vertex 1.25 3.75 1.875
		vertex 3.75 3.75 1.875
		vertex 2.5 2.5 0
	endloop
endfacet
facet normal -0.832050294 0 -0.554700196
	outer loop
		vertex 1.25 1.25 1.875
		vertex 1.25 3.75 1.875
		vertex 2.5 2.5 0
	endloop
endfacet
facet normal 0 -0.832050294 0.554700196
	outer loop
		vertex 0 0 0
		vertex 2.5 0 0
		vertex 1.25 1.25 1.875
	endloop
endfacet
facet normal 0.832050294 -0 0.554700196
	outer loop
		vertex 2.5 0 0
		vertex 2.5 2.5 0
		vertex 1.25 1.25 1.875
	endloop
endfacet
facet normal 0 0.832050294 0.554700196
	outer loop
		vertex 2.5 2.5 0
		vertex 0 2.5 0
		vertex 1.25 1.25 1.875
	endloop
endfacet
facet normal -0.832050294 0 0.554700196
	outer loop
		vertex 0 2.5 0
		vertex 0 0 0
		vertex 1.25 1.25 1.875
	endloop
endfacet
facet normal 0 -0.832050294 0.554700196
	outer loop
		vertex 2.5 0 0
		vertex 5 0 0
		vertex 3.75 1.25 1.875
	endloop
endfacet
facet normal 0.832050294 -0 0.554700196
	outer loop
		vertex 5 0 0
		vertex 5 2.5 0
		vertex 3.75 1.25 1.875
	endloop
endfacet
facet normal 0 0.832050294 0.554700196
	outer loop
		vertex 5 2.5 0
		vertex 2.5 2.5 0
		vertex 3.75 1.25 1.875
	endloop
endfacet
facet normal -0.832050294 0 0.554700196
	outer loop
		vertex 2.5 2.5 0
		vertex 2.5 0 0
		vertex 3.75 1.25 1.875
	endloop
endfacet
facet normal 0 -0.832050294 0.554700196
	outer loop
		vertex 0 2.5 0
		vertex 2.5 2.5 0
		vertex 1.25 3.75 1.875
	endloop
endfacet
facet normal 0.832050294 -0 0.554700196
	outer loop
		vertex 2.5 2.5 0
		vertex 2.5 5 0
		vertex 1.25 3.75 1.875
	endloop
endfacet
facet normal 0 0.832050294 0.554700196
	outer loop
		vertex 2.5 5 0
		vertex 0 5 0
		vertex 1.25 3.75 1.875
	endloop
endfacet
facet normal -0.832050294 0 0.554700196
	outer loop
		vertex 0 5 0
		vertex 0 2.5 0
		vertex 1.25 3.75 1.875
	endloop
endfacet
facet normal 0 -0.832050294 0.554700196
	outer loop
		vertex 2.5 2.5 0
		vertex 5 2.5 0
		vertex 3.75 3.75 1.875
	endloop
endfacet
facet normal 0.832050294 -0 0.554700196
	outer loop
		vertex 5 2.5 0
		vertex 5 5 0
		vertex 3.75 3.75 1.875
	endloop
endfacet
facet normal 0 0.832050294 0.554700196
	outer loop
		vertex 5 5 0
		vertex 2.5 5 0
		vertex 3.75 3.75 1.875
	endloop
endfacet
facet normal -0.832050294 0 0.554700196
	outer loop
		vertex 2.5 5 0
		vertex 2.5 2.5 0
		vertex 3.75 3.75 1.875
	endloop
endfacet
facet normal 0 -0.832050294 0.554700196
	outer loop
		vertex 1.25 1.25 1.875
		vertex 3.75 1.25 1.875
		vertex 2.5 2.5 3.75
	endloop
endfacet
facet normal 0.832050294 -0 0.554700196
	outer loop
		vertex 3.75 1.25 1.875
		vertex 3.75 3.75 1.875
		vertex 2.5 2.5 3.75
	endloop
endfacet
facet normal 0 0.832050294 0.554700196
	outer loop
		vertex 3.75 3.75 1.875
		vertex 1.25 3.75 1.875
		vertex 2.5 2.5 3.75
	endloop
endfacet
facet normal -0.832050294 0 0.554700196
	outer loop
		vertex 1.25 3.75 1.875
		vertex 1.25 1.25 1.875
		vertex 2.5 2.5 3.75
	endloop
endfacet
facet normal -0 -0.832050294 -0.554700196
	outer loop
		vertex 8.75 1.25 1.875
		vertex 6.25 1.25 1.875
		vertex 7.5 2.5 0
	endloop
endfacet
facet normal 0.832050294 0 -0.554700196
	outer loop
		vertex 8.75 3.75 1.875
		vertex 8.75 1.25 1.875
		vertex 7.5 2.5 0
	endloop
endfacet
facet normal 0 0.832050294 -0.554700196
	outer loop
		vertex 6.25 3.75 1.875
		vertex 8.75 3.75 1.875
		vertex 7.5 2.5 0
	endloop
endfacet
facet normal -0.832050294 0 -0.554700196
	outer loop
		vertex 6.25 1.25 1.875
		vertex 6.25 3.75 1.875
		vertex 7.5 2.5 0
	endloop
endfacet
facet normal 0 -0.832050294 0.554700196
	outer loop
		vertex 5 0 0
		vertex 7.5 0 0
		vertex 6.25 1.25 1.875
	endloop
endfacet
facet normal 0.832050294 -0 0.554700196
	outer loop
		vertex 7.5 0 0
		vertex 7.5 2.5 0
		vertex 6.25 1.25 1.875
	endloop
endfacet
facet normal 0 0.832050294 0.554700196
	outer loop
		vertex 7.5 2.5 0
		vertex 5 2.5 0
		vertex 6.25 1.25 1.875
	endloop
endfacet
facet normal -0.832050294 0 0.554700196
	outer loop
		vertex 5 2.5 0
		vertex 5 0 0
		vertex 6.25 1.25 1.875
	endloop
endfacet
facet normal 0 -0.832050294 0.554700196
	outer loop
		vertex 7.5 0 0
		vertex 10 0 0
		vertex 8.75 1.25 1.875
	endloop
endfacet
facet normal 0.832050294 -0 0.554700196
	outer loop
		vertex 10 0 0
		vertex 10 2.5 0
		vertex 8.75 1.25 1.875
	endloop
endfacet
facet normal 0 0.832050294 0.554700196
	outer loop
		vertex 10 2.5 0
		vertex 7.5 2.5 0
		vertex 8.75 1.25 1.875
	endloop
endfacet
facet normal -0.832050294 0 0.554700196
	outer loop
		vertex 7.5 2.5 0
		vertex 7.5 0 0
		vertex 8.75 1.25 1.875
	endloop
endfacet
facet normal 0 -0.832050294 0.554700196
	outer loop
		vertex 5 2.5 0
		vertex 7.5 2.5 0
		vertex 6.25 3.75 1.875
	endloop
endfacet
facet normal 0.832050294 -0 0.554700196
	outer loop
		vertex 7.5 2.5 0
		vertex 7.5 5 0
		vertex 6.25 3.75 1.875
	endloop
endfacet
facet normal 0 0.832050294 0.554700196
	outer loop
		vertex 7.5 5 0
		vertex 5 5 0
		vertex 6.25 3.75 1.875
	endloop
endfacet
facet normal -0.832050294 0 0.554700196
	outer loop
		vertex 5 5 0
		vertex 5 2.5 0
		vertex 6.25 3.75 1.875
	endloop
endfacet
facet normal 0 -0.832050294 0.554700196
	outer loop
		vertex 7.5 2.5 0
		vertex 10 2.5 0
		vertex 8.75 3.75 1.875
	endloop
endfacet
facet normal 0.832050294 -0 0.554700196
	outer loop
		vertex 10 2.5 0
		vertex 10 5 0
		vertex 8.75 3.75 1.875
	endloop
endfacet
facet normal 0 0.832050294 0.554700196
	outer loop
		vertex 10 5 0
		vertex 7.5 5 0
		vertex 8.75 3.75 1.875
	endloop
endfacet
facet normal -0.832050294 0 0.554700196
	outer loop
		vertex 7.5 5 0
		vertex 7.5 2.5 0
		vertex 8.75 3.75 1.875
	endloop
endfacet
facet normal 0 -0.832050294 0.554700196
	outer loop
		vertex 6.25 1.25 1.875
		vertex 8.75 1.25 1.875
		vertex 7.5 2.5 3.75
	endloop
endfacet
facet normal 0.832050294 -0 0.554700196
	outer loop
		vertex 8.75 1.25 1.875
		vertex 8.75 3.75 1.875
		vertex 7.5 2.5 3.75
	endloop
endfacet
facet normal 0 0.832050294 0.554700196
	outer loop
		vertex 8.75 3.75 1.875
		vertex 6.25 3.75 1.875
		vertex 7.5 2.5 3.75
	endloop
endfacet
facet normal -0.832050294 0 0.554700196
	outer loop
		vertex 6.25 3.75 1.875
		vertex 6.25 1.25 1.875
		vertex 7.5 2.5 3.75
	endloop
endfacet
facet normal -0 -0.832050294 -0.554700196
	outer loop
		vertex 3.75 6.25 1.875
		vertex 1.25 6.25 1.875
		vertex 2.5 7.5 0
	endloop
endfacet
facet normal 0.832050294 0 -0.554700196
	outer loop
		vertex 3.75 8.75 1.875
		vertex 3.75 6.25 1.875
		vertex 2.5 7.5 0
	endloop
endfacet
facet normal 0 0.832050294 -0.554700196
	outer loop
		vertex 1.25 8.75 1.875
		vertex 3.75 8.75 1.875
		vertex 2.5 7.5 0
	endloop
endfacet
facet normal -0.832050294 0 -0.554700196
	outer loop
		vertex 1.25 6.25 1.875
		vertex 1.25 8.75 1.875
		vertex 2.5 7.5 0
	endloop
endfacet
facet normal 0 -0.832050294 0.554700196
	outer loop
		vertex 0 5 0
		vertex 2.5 5 0
		vertex 1.25 6.25 1.875
	endloop
endfacet
facet normal 0.832050294 -0 0.554700196
	outer loop
		vertex 2.5 5 0
		vertex 2.5 7.5 0
		vertex 1.25 6.25 1.875
	endloop
endfacet
facet normal 0 0.832050294 0.554700196
	outer loop
		vertex 2.5 7.5 0
		vertex 0 7.5 0
		vertex 1.25 6.25 1.875
	endloop
endfacet
facet normal -0.832050294 0 0.554700196
	outer loop
		vertex 0 7.5 0
		vertex 0 5 0
		vertex 1.25 6.25 1.875
	endloop
endfacet
facet normal 0 -0.832050294 0.554700196
	outer loop
		vertex 2.5 5 0
		vertex 5 5 0
		vertex 3.75 6.25 1.875
	endloop
endfacet
facet normal 0.832050294 -0 0.554700196
	outer loop
		vertex 5 5 0
		vertex 5 7.5 0
		vertex 3.75 6.25 1.875
	endloop
endfacet
facet normal 0 0.832050294 0.554700196
	outer loop
		vertex 5 7.5 0
		vertex 2.5 7.5 0
		vertex 3.75 6.25 1.875
	endloop
endfacet
facet normal -0.832050294 0 0.554700196
	outer loop
		vertex 2.5 7.5 0
		vertex 2.5 5 0
		vertex 3.75 6.25 1.875
	endloop
endfacet
facet normal 0 -0.832050294 0.554700196
	outer loop
		vertex 0 7.5 0
		vertex 2.5 7.5 0
		vertex 1.25 8.75 1.875
	endloop
endfacet
facet normal 0.832050294 -0 0.554700196
	outer loop
		vertex 2.5 7.5 0
		vertex 2.5 10 0
		vertex 1.25 8.75 1.875
	endloop
endfacet
facet normal 0 0.832050294 0.554700196
	outer loop
		vertex 2.5 10 0
		vertex 0 10 0
		vertex 1.25 8.75 1.875
	endloop
endfacet
facet normal -0.832050294 0 0.554700196
	outer loop
		vertex 0 10 0
		vertex 0 7.5 0
		vertex 1.25 8.75 1.875
	endloop
endfacet
facet normal 0 -0.832050294 0.554700196
	outer loop
		vertex 2.5 7.5 0
		vertex 5 7.5 0
		vertex 3.75 8.75 1.875
	endloop
endfacet
facet normal 0.832050294 -0 0.554700196
	outer loop
		vertex 5 7.5 0
		vertex 5 10 0
		vertex 3.75 8.75 1.875
	endloop
endfacet
facet normal 0 0.832050294 0.554700196
	outer loop
		vertex 5 10 0
		vertex 2.5 10 0
		vertex 3.75 8.75 1.875
	endloop
endfacet
facet normal -0.832050294 0 0.554700196
	outer loop
		vertex 2.5 10 0
		vertex 2.5 7.5 0
		vertex 3.75 8.75 1.875
	endloop
endfacet
facet normal 0 -0.832050294 0.554700196
	outer loop
		vertex 1.25 6.25 1.875
		vertex 3.75 6.25 1.875
		vertex 2.5 7.5 3.75
	endloop
endfacet
facet normal 0.832050294 -0 0.554700196
	outer loop
		vertex 3.75 6.25 1.875
		vertex 3.75 8.75 1.875
		vertex 2.5 7.5 3.75
	endloop
endfacet
facet normal 0 0.832050294 0.554700196
	outer loop
		vertex 3.75 8.75 1.875
		vertex 1.25 8.75 1.875
		vertex 2.5 7.5 3.75
	endloop
endfacet
facet normal -0.832050294 0 0.554700196
	outer loop
		vertex 1.25 8.75 1.875
		vertex 1.25 6.25 1.875
		vertex 2.5 7.5 3.75
	endloop
endfacet
facet normal -0 -0.832050294 -0.554700196
	outer loop
		vertex 8.75 6.25 1.875
		vertex 6.25 6.25 1.875
		vertex 7.5 7.5 0
	endloop
endfacet
facet normal 0.832050294 0 -0.554700196
	outer loop
		vertex 8.75 8.75 1.875
		vertex 8.75 6.25 1.875
		vertex 7.5 7.5 0
	endloop
endfacet
facet normal 0 0.832050294 -0.554700196
	outer loop
		vertex 6.25 8.75 1.875
		vertex 8.75 8.75 1.875
		vertex 7.5 7.5 0
	endloop
endfacet
facet normal -0.832050294 0 -0.554700196
	outer loop
		vertex 6.25 6.25 1.875
		vertex 6.25 8.75 1.875
		vertex 7.5 7.5 0
	endloop
endfacet
facet normal 0 -0.832050294 0.554700196
	outer loop
		vertex 5 5 0
		vertex 7.5 5 0
		vertex 6.25 6.25 1.875
	endloop
endfacet
facet normal 0.832050294 -0 0.554700196
	outer loop
		vertex 7.5 5 0
		vertex 7.5 7.5 0
		vertex 6.25 6.25 1.875
	endloop
endfacet
facet normal 0 0.832050294 0.554700196
	outer loop
		vertex 7.5 7.5 0
		vertex 5 7.5 0
		vertex 6.25 6.25 1.875
	endloop
endfacet
facet normal -0.832050294 0 0.554700196
	outer loop
		vertex 5 7.5 0
		vertex 5 5 0
		vertex 6.25 6.25 1.875
	endloop
endfacet
facet normal 0 -0.832050294 0.554700196
	outer loop
		vertex 7.5 5 0
		vertex 10 5 0
		vertex 8.75 6.25 1.875
	endloop
endfacet
facet normal 0.832050294 -0 0.554700196
	outer loop
		vertex 10 5 0
		vertex 10 7.5 0
		vertex 8.75 6.25 1.875
	endloop
endfacet
facet normal 0 0.832050294 0.554700196
	outer loop
		vertex 10 7.5 0
		vertex 7.5 7.5 0
		vertex 8.75 6.25 1.875
	endloop
endfacet
facet normal -0.832050294 0 0.554700196
	outer loop
		vertex 7.5 7.5 0
		vertex 7.5 5 0
		vertex 8.75 6.25 1.875
	endloop
endfacet
facet normal 0 -0.832050294 0.554700196
	outer loop
		vertex 5 7.5 0
		vertex 7.5 7.5 0
		vertex 6.25 8.75 1.875
	endloop
endfacet
facet normal 0.832050294 -0 0.554700196
	outer loop
		vertex 7.5 7.5 0
		vertex 7.5 10 0
		vertex 6.25 8.75 1.875
	endloop
endfacet
facet normal 0 0.832050294 0.554700196
	outer loop
		vertex 7.5 10 0
		vertex 5 10 0
		vertex 6.25 8.75 1.875
	endloop
endfacet
facet normal -0.832050294 0 0.554700196
	outer loop
		vertex 5 10 0
		vertex 5 7.5 0
		vertex 6.25 8.75 1.875
	endloop
endfacet
facet normal 0 -0.832050294 0.554700196
	outer loop
		vertex 7.5 7.5 0
		vertex 10 7.5 0
		vertex 8.75 8.75 1.875
	endloop
endfacet
facet normal 0.832050294 -0 0.554700196
	outer loop
		vertex 10 7.5 0
		vertex 10 10 0
		vertex 8.75 8.75 1.875
	endloop
endfacet
facet normal 0 0.832050294 0.554700196
	outer loop
		vertex 10 10 0
		vertex 7.5 10 0
		vertex 8.75 8.75 1.875
	endloop
endfacet
facet normal -0.832050294 0 0.554700196
	outer loop
		vertex 7.5 10 0
		vertex 7.5 7.5 0
		vertex 8.75 8.75 1.875
	endloop
endfacet
facet normal 0 -0.832050294 0.554700196
	outer loop
		vertex 6.25 6.25 1.875
		vertex 8.75 6.25 1.875
		vertex 7.5 7.5 3.75
	endloop
endfacet
facet normal 0.832050294 -0 0.554700196
	outer loop
		vertex 8.75 6.25 1.875
		vertex 8.75 8.75 1.875
		vertex 7.5 7.5 3.75
	endloop
endfacet
facet normal 0 0.832050294 0.554700196
	outer loop
		vertex 8.75 8.75 1.875
		vertex 6.25 8.75 1.875
		vertex 7.5 7.5 3.75
	endloop
endfacet
facet normal -0.832050294 0 0.554700196
	outer loop
		vertex 6.25 8.75 1.875
		vertex 6.25 6.25 1.875
		vertex 7.5 7.5 3.75
	endloop
endfacet
facet normal -0 -0.832050294 -0.554700196
	outer loop
		vertex 6.25 3.75 5.625
		vertex 3.75 3.75 5.625
		vertex 5 5 3.75
	endloop
endfacet
facet normal 0.832050294 0 -0.554700196
	outer loop
		vertex 6.25 6.25 5.625
		vertex 6.25 3.75 5.625
		vertex 5 5 3.75
	endloop
endfacet
facet normal 0 0.832050294 -0.554700196
	outer loop
		vertex 3.75 6.25 5.625
		vertex 6.25 6.25 5.625
		vertex 5 5 3.75
	endloop
endfacet
facet normal -0.832050294 0 -0.554700196
	outer loop
		vertex 3.75 3.75 5.625
		vertex 3.75 6.25 5.625
		vertex 5 5 3.75
	endloop
endfacet
facet normal 0 -0.832050294 0.554700196
	outer loop
		vertex 2.5 2.5 3.75
		vertex 5 2.5 3.75
		vertex 3.75 3.75 5.625
	endloop
endfacet
facet normal 0.832050294 -0 0.554700196
	outer loop
		vertex 5 2.5 3.75
		vertex 5 5 3.75
		vertex 3.75 3.75 5.625
	endloop
endfacet
facet normal 0 0.832050294 0.554700196
	outer loop
		vertex 5 5 3.75
		vertex 2.5 5 3.75
		vertex 3.75 3.75 5.625
	endloop
endfacet
facet normal -0.832050294 0 0.554700196
	outer loop
		vertex 2.5 5 3.75
		vertex 2.5 2.5 3.75
		vertex 3.75 3.75 5.625
	endloop
endfacet
facet normal 0 -0.832050294 0.554700196
	outer loop
		vertex 5 2.5 3.75
		vertex 7.5 2.5 3.75
		vertex 6.25 3.75 5.625
	endloop
endfacet
facet normal 0.832050294 -0 0.554700196
	outer loop
		vertex 7.5 2.5 3.75
		vertex 7.5 5 3.75
		vertex 6.25 3.75 5.625
	endloop
endfacet
facet normal 0 0.832050294 0.554700196
	outer loop
		vertex 7.5 5 3.75
		vertex 5 5 3.75
		vertex 6.25 3.75 5.625
	endloop
endfacet
facet normal -0.832050294 0 0.554700196
	outer loop
		vertex 5 5 3.75
		vertex 5 2.5 3.75
		vertex 6.25 3.75 5.625
	endloop
endfacet
facet normal 0 -0.832050294 0.554700196
	outer loop
		vertex 2.5 5 3.75
		vertex 5 5 3.75
		vertex 3.75 6.25 5.625
	endloop
endfacet
facet normal 0.832050294 -0 0.554700196
	outer loop
		vertex 5 5 3.75
		vertex 5 7.5 3.75
		vertex 3.75 6.25 5.625
	endloop
endfacet
facet normal 0 0.832050294 0.554700196
	outer loop
		vertex 5 7.5 3.75
		vertex 2.5 7.5 3.75
		vertex 3.75 6.25 5.625
	endloop
endfacet
facet normal -0.832050294 0 0.554700196
	outer loop
		vertex 2.5 7.5 3.75
		vertex 2.5 5 3.75
		vertex 3.75 6.25 5.625
	endloop
endfacet
facet normal 0 -0.832050294 0.554700196
	outer loop
		vertex 5 5 3.75
		vertex 7.5 5 3.75
		vertex 6.25 6.25 5.625
	endloop
endfacet
facet normal 0.832050294 -0 0.554700196
	outer loop
		vertex 7.5 5 3.75
		vertex 7.5 7.5 3.75
		vertex 6.25 6.25 5.625
	endloop
endfacet
facet normal 0 0.832050294 0.554700196
	outer loop
		vertex 7.5 7.5 3.75
		vertex 5 7.5 3.75
		vertex 6.25 6.25 5.625
	endloop
endfacet
facet normal -0.832050294 0 0.554700196
	outer loop
		vertex 5 7.5 3.75
		vertex 5 5 3.75
		vertex 6.25 6.25 5.625
	endloop
endfacet
facet normal 0 -0.832050294 0.554700196
	outer loop
		vertex 3.75 3.75 5.625
		vertex 6.25 3.75 5.625
		vertex 5 5 7.5
	endloop
endfacet
facet normal 0.832050294 -0 0.554700196
	outer loop
		vertex 6.25 3.75 5.625
		vertex 6.25 6.25 5.625
		vertex 5 5 7.5
	endloop
endfacet
facet normal 0 0.832050294 0.554700196
	outer loop
		vertex 6.25 6.25 5.625
		vertex 3.75 6.25 5.625
		vertex 5 5 7.5
	endloop
endfacet
facet normal -0.832050294 0 0.554700196
	outer loop
		vertex 3.75 6.25 5.625
		vertex 3.75 3.75 5.625
		vertex 5 5 7.5
	endloop
endfacet
facet normal -0 -0.832050294 -0.554700196
	outer loop
		vertex 17.5 2.5 3.75
		vertex 12.5 2.5 3.75
		vertex 15 5 0
	endloop
endfacet
facet normal 0.832050294 0 -0.554700196
	outer loop
		vertex 17.5 7.5 3.75
		vertex 17.5 2.5 3.75
		vertex 15 5 0
	endloop
endfacet
facet normal 0 0.832050294 -0.554700196
	outer loop
		vertex 12.5 7.5 3.75
		vertex 17.5 7.5 3.75
		vertex 15 5 0
	endloop
endfacet
facet normal -0.832050294 0 -0.554700196
	outer loop
		vertex 12.5 2.5 3.75
		vertex 12.5 7.5 3.75
		vertex 15 5 0
	endloop
endfacet
facet normal -0 -0.832050294 -0.554700196
	outer loop
		vertex 13.75 1.25 1.875
		vertex 11.25 1.25 1.875
		vertex 12.5 2.5 0
	endloop
endfacet
facet normal 0.832050294 0 -0.554700196
	outer loop
		vertex 13.75 3.75 1.875
		vertex 13.75 1.25 1.875
		vertex 12.5 2.5 0
	endloop
endfacet
facet normal 0 0.832050294 -0.554700196
	outer loop
		vertex 11.25 3.75 1.875
		vertex 13.75 3.75 1.875
		vertex 12.5 2.5 0
	endloop
endfacet
facet normal -0.832050294 0 -0.554700196
	outer loop
		vertex 11.25 1.25 1.875
		vertex 11.25 3.75 1.875
		vertex 12.5 2.5 0
	endloop
endfacet
facet normal 0 -0.832050294 0.554700196
	outer loop
		vertex 10 0 0
		vertex 12.5 0 0
		vertex 11.25 1.25 1.875
	endloop
endfacet
facet normal 0.832050294 -0 0.554700196
	outer loop
		vertex 12.5 0 0
		vertex 12.5 2.5 0
		vertex 11.25 1.25 1.875
	endloop
endfacet
facet normal 0 0.832050294 0.554700196
	outer loop
		vertex 12.5 2.5 0
		vertex 10 2.5 0
		vertex 11.25 1.25 1.875
	endloop
endfacet
facet normal -0.832050294 0 0.554700196
	outer loop
		vertex 10 2.5 0
		vertex 10 0 0
		vertex 11.25 1.25 1.875
	endloop
endfacet
facet normal 0 -0.832050294 0.554700196
	outer loop
		vertex 12.5 0 0
		vertex 15 0 0
		vertex 13.75 1.25 1.875
	endloop
endfacet
facet normal 0.832050294 -0 0.554700196
	outer loop
		vertex 15 0 0
		vertex 15 2.5 0
		vertex 13.75 1.25 1.875
	endloop
endfacet
facet normal 0 0.832050294 0.554700196
	outer loop
		vertex 15 2.5 0
		vertex 12.5 2.5 0
		vertex 13.75 1.25 1.875
	endloop
endfacet
facet normal -0.832050294 0 0.554700196
	outer loop
		vertex 12.5 2.5 0
		vertex 12.5 0 0
		vertex 13.75 1.25 1.875
	endloop
endfacet
facet normal 0 -0.832050294 0.554700196
	outer loop
		vertex 10 2.5 0
		vertex 12.5 2.5 0
		vertex 11.25 3.75 1.875
	endloop
endfacet
facet normal 0.832050294 -0 0.554700196
	outer loop
		vertex 12.5 2.5 0
		vertex 12.5 5 0
		vertex 11.25 3.75 1.875
	endloop
endfacet
facet normal 0 0.832050294 0.554700196
	outer loop
		vertex 12.5 5 0
		vertex 10 5 0
		vertex 11.25 3.75 1.875
	endloop
endfacet
facet normal -0.832050294 0 0.554700196
	outer loop
		vertex 10 5 0
		vertex 10 2.5 0
		vertex 11.25 3.75 1.875
	endloop
endfacet
facet normal 0 -0.832050294 0.554700196
	outer loop
		vertex 12.5 2.5 0
		vertex 15 2.5 0
		vertex 13.75 3.75 1.875
	endloop
endfacet
facet normal 0.832050294 -0 0.554700196
	outer loop
		vertex 15 2.5 0
		vertex 15 5 0
		vertex 13.75 3.75 1.875
	endloop
endfacet
facet normal 0 0.832050294 0.554700196
	outer loop
		vertex 15 5 0
		vertex 12.5 5 0
		vertex 13.75 3.75 1.875
	endloop
endfacet
facet normal -0.832050294 0 0.554700196
	outer loop
		vertex 12.5 5 0
		vertex 12.5 2.5 0
		vertex 13.75 3.75 1.875
	endloop
endfacet
facet normal 0 -0.832050294 0.554700196
	outer loop
		vertex 11.25 1.25 1.875
		vertex 13.75 1.25 1.875
		vertex 12.5 2.5 3.75
	endloop
endfacet
facet normal 0.832050294 -0 0.554700196
	outer loop
		vertex 13.75 1.25 1.875
		vertex 13.75 3.75 1.875
		vertex 12.5 2.5 3.75
	endloop
endfacet
facet normal 0 0.832050294 0.554700196
	outer loop
		vertex 13.75 3.75 1.875
		vertex 11.25 3.75 1.875
		vertex 12.5 2.5 3.75
	endloop
endfacet
facet normal -0.832050294 0 0.554700196
	outer loop
		vertex 11.25 3.75 1.875
		vertex 11.25 1.25 1.875
		vertex 12.5 2.5 3.75
	endloop
endfacet
facet normal -0 -0.832050294 -0.554700196
	outer loop
		vertex 18.75 1.25 1.875
		vertex 16.25 1.25 1.875
		vertex 17.5 2.5 0
	endloop
endfacet
facet normal 0.832050294 0 -0.554700196
	outer loop
		vertex 18.75 3.75 1.875
		vertex 18.75 1.25 1.875
		vertex 17.5 2.5 0
	endloop
endfacet
facet normal 0 0.832050294 -0.554700196
	outer loop
		vertex 16.25 3.75 1.875
		vertex 18.75 3.75 1.875
		vertex 17.5 2.5 0
	endloop
endfacet
facet normal -0.832050294 0 -0.554700196
	outer loop
		vertex 16.25 1.25 1.875
		vertex 16.25 3.75 1.875
		vertex 17.5 2.5 0
	endloop
endfacet
facet normal 0 -0.832050294 0.554700196
	outer loop
		vertex 15 0 0
		vertex 17.5 0 0
		vertex 16.25 1.25 1.875
	endloop
endfacet
facet normal 0.832050294 -0 0.554700196
	outer loop
		vertex 17.5 0 0
		vertex 17.5 2.5 0
		vertex 16.25 1.25 1.875
	endloop
endfacet
facet normal 0 0.832050294 0.554700196
	outer loop
		vertex 17.5 2.5 0
		vertex 15 2.5 0
		vertex 16.25 1.25 1.875
	endloop
endfacet
facet normal -0.832050294 0 0.554700196
	outer loop
		vertex 15 2.5 0
		vertex 15 0 0
		vertex 16.25 1.25 1.875
	endloop
endfacet
facet normal 0 -0.832050294 0.554700196
	outer loop
		vertex 17.5 0 0
		vertex 20 0 0
		vertex 18.75 1.25 1.875
	endloop
endfacet
facet normal 0.832050294 -0 0.554700196
	outer loop
		vertex 20 0 0
		vertex 20 2.5 0
		vertex 18.75 1.25 1.875
	endloop
endfacet
facet normal 0 0.832050294 0.554700196
	outer loop
		vertex 20 2.5 0
		vertex 17.5 2.5 0
		vertex 18.75 1.25 1.875
	endloop
endfacet
facet normal -0.832050294 0 0.554700196
	outer loop
		vertex 17.5 2.5 0
		vertex 17.5 0 0
		vertex 18.75 1.25 1.875
	endloop
endfacet
facet normal 0 -0.832050294 0.554700196
	outer loop
		vertex 15 2.5 0
		vertex 17.5 2.5 0
		vertex 16.25 3.75 1.875
	endloop
endfacet
facet normal 0.832050294 -0 0.554700196
	outer loop
		vertex 17.5 2.5 0
		vertex 17.5 5 0
		vertex 16.25 3.75 1.875
	endloop
endfacet
facet normal 0 0.832050294 0.554700196
	outer loop
		vertex 17.5 5 0
		vertex 15 5 0
		vertex 16.25 3.75 1.875
	endloop
endfacet
facet normal -0.832050294 0 0.554700196
	outer loop
		vertex 15 5 0
		vertex 15 2.5 0
		vertex 16.25 3.75 1.875
	endloop
endfacet
facet normal 0 -0.832050294 0.554700196
	outer loop
		vertex 17.5 2.5 0
		vertex 20 2.5 0
		vertex 18.75 3.75 1.875
	endloop
endfacet
facet normal 0.832050294 -0 0.554700196
	outer loop
		vertex 20 2.5 0
		vertex 20 5 0
		vertex 18.75 3.75 1.875
	endloop
endfacet
facet normal 0 0.832050294 0.554700196
	outer loop
		vertex 20 5 0
		vertex 17.5 5 0
		vertex 18.75 3.75 1.875
	endloop
endfacet
facet normal -0.832050294 0 0.554700196
	outer loop
		vertex 17.5 5 0
		vertex 17.5 2.5 0
		vertex 18.75 3.75 1.875
	endloop
endfacet
facet normal 0 -0.832050294 0.554700196
	outer loop
		vertex 16.25 1.25 1.875
		vertex 18.75 1.25 1.875
		vertex 17.5 2.5 3.75
	endloop
endfacet
facet normal 0.832050294 -0 0.554700196
	outer loop
		vertex 18.75 1.25 1.875
		vertex 18.75 3.75 1.875
		vertex 17.5 2.5 3.75
	endloop
endfacet
facet normal 0 0.832050294 0.554700196
	outer loop
		vertex 18.75 3.75 1.875
		vertex 16.25 3.75 1.875
		vertex 17.5 2.5 3.75
	endloop
endfacet
facet normal -0.832050294 0 0.554700196
	outer loop
		vertex 16.25 3.75 1.875
		vertex 16.25 1.25 1.875
		vertex 17.5 2.5 3.75
	endloop
endfacet
facet normal -0 -0.832050294 -0.554700196
	outer loop
		vertex 13.75 6.25 1.875
		vertex 11.25 6.25 1.875
		vertex 12.5 7.5 0
	endloop
endfacet
facet normal 0.832050294 0 -0.554700196
	outer loop
		vertex 13.75 8.75 1.875
		vertex 13.75 6.25 1.875
		vertex 12.5 7.5 0
	endloop
endfacet
facet normal 0 0.832050294 -0.554700196
	outer loop
		vertex 11.25 8.75 1.875
		vertex 13.75 8.75 1.875
		vertex 12.5 7.5 0
	endloop
endfacet
facet normal -0.832050294 0 -0.554700196
	outer loop
		vertex 11.25 6.25 1.875
		vertex 11.25 8.75 1.875
		vertex 12.5 7.5 0
	endloop
endfacet
facet normal 0 -0.832050294 0.554700196
	outer loop
		vertex 10 5 0
		vertex 12.5 5 0
		vertex 11.25 6.25 1.875
	endloop
endfacet
facet normal 0.832050294 -0 0.554700196
	outer loop
		vertex 12.5 5 0
		vertex 12.5 7.5 0
		vertex 11.25 6.25 1.875
	endloop
endfacet
facet normal 0 0.832050294 0.554700196
	outer loop
		vertex 12.5 7.5 0
		vertex 10 7.5 0
		vertex 11.25 6.25 1.875
	endloop
endfacet
facet normal -0.832050294 0 0.554700196
	outer loop
		vertex 10 7.5 0
		vertex 10 5 0
		vertex 11.25 6.25 1.875
	endloop
endfacet
facet normal 0 -0.832050294 0.554700196
	outer loop
		vertex 12.5 5 0
		vertex 15 5 0
		vertex 13.75 6.25 1.875
	endloop
endfacet
facet normal 0.832050294 -0 0.554700196
	outer loop
		vertex 15 5 0
		vertex 15 7.5 0
		vertex 13.75 6.25 1.875
	endloop
endfacet
facet normal 0 0.832050294 0.554700196
	outer loop
		vertex 15 7.5 0
		vertex 12.5 7.5 0
		vertex 13.75 6.25 1.875
	endloop
endfacet
facet normal -0.832050294 0 0.554700196
	outer loop
		vertex 12.5 7.5 0
		vertex 12.5 5 0
		vertex 13.75 6.25 1.875
	endloop
endfacet
facet normal 0 -0.832050294 0.554700196
	outer loop
		vertex 10 7.5 0
		vertex 12.5 7.5 0
		vertex 11.25 8.75 1.875
	endloop
endfacet
facet normal 0.832050294 -0 0.554700196
	outer loop
		vertex 12.5 7.5 0
		vertex 12.5 10 0
		vertex 11.25 8.75 1.875
	endloop
endfacet
facet normal 0 0.832050294 0.554700196
	outer loop
		vertex 12.5 10 0
		vertex 10 10 0
		vertex 11.25 8.75 1.875
	endloop
endfacet
facet normal -0.832050294 0 0.554700196
	outer loop
		vertex 10 10 0
		vertex 10 7.5 0
		vertex 11.25 8.75 1.875
	endloop
endfacet
facet normal 0 -0.832050294 0.554700196
	outer loop
		vertex 12.5 7.5 0
		vertex 15 7.5 0
		vertex 13.75 8.75 1.875
	endloop
endfacet
facet normal 0.832050294 -0 0.554700196
	outer loop
		vertex 15 7.5 0
		vertex 15 10 0
		vertex 13.75 8.75 1.875
	endloop
endfacet
facet normal 0 0.832050294 0.554700196
	outer loop
		vertex 15 10 0
		vertex 12.5 10 0
		vertex 13.75 8.75 1.875
	endloop
endfacet
facet normal -0.832050294 0 0.554700196
	outer loop
		vertex 12.5 10 0
		vertex 12.5 7.5 0
		vertex 13.75 8.75 1.875
	endloop
endfacet
facet normal 0 -0.832050294 0.554700196
	outer loop
		vertex 11.25 6.25 1.875
		vertex 13.75 6.25 1.875
		vertex 12.5 7.5 3.75
	endloop
endfacet
facet normal 0.832050294 -0 0.554700196
	outer loop
		vertex 13.75 6.25 1.875
		vertex 13.75 8.75 1.875
		vertex 12.5 7.5 3.75
	endloop
endfacet
facet normal 0 0.832050294 0.554700196
	outer loop
		vertex 13.75 8.75 1.875
		vertex 11.25 8.75 1.875
		vertex 12.5 7.5 3.75
	endloop
endfacet
facet normal -0.832050294 0 0.554700196
	outer loop
		vertex 11.25 8.75 1.875
		vertex 11.25 6.25 1.875
		vertex 12.5 7.5 3.75
	endloop
endfacet
facet normal -0 -0.832050294 -0.554700196
	outer loop
		vertex 18.75 6.25 1.875
		vertex 16.25 6.25 1.875
		vertex 17.5 7.5 0
	endloop
endfacet
facet normal 0.832050294 0 -0.554700196
	outer loop
		vertex 18.75 8.75 1.875
		vertex 18.75 6.25 1.875
		vertex 17.5 7.5 0
	endloop
endfacet
facet normal 0 0.832050294 -0.554700196
	outer loop
		vertex 16.25 8.75 1.875
		vertex 18.75 8.75 1.875
		vertex 17.5 7.5 0
	endloop
endfacet
facet normal -0.832050294 0 -0.554700196
	outer loop
		vertex 16.25 6.25 1.875
		vertex 16.25 8.75 1.875
		vertex 17.5 7.5 0
	endloop
endfacet
facet normal 0 -0.832050294 0.554700196
	outer loop
		vertex 15 5 0
		vertex 17.5 5 0
		vertex 16.25 6.25 1.875
	endloop
endfacet
facet normal 0.832050294 -0 0.554700196
	outer loop
		vertex 17.5 5 0
		vertex 17.5 7.5 0
		vertex 16.25 6.25 1.875
	endloop
endfacet
facet normal 0 0.832050294 0.554700196
	outer loop
		vertex 17.5 7.5 0
		vertex 15 7.5 0
		vertex 16.25 6.25 1.875
	endloop
endfacet
facet normal -0.832050294 0 0.554700196
	outer loop
		vertex 15 7.5 0
		vertex 15 5 0
		vertex 16.25 6.25 1.875
	endloop
endfacet
facet normal 0 -0.832050294 0.554700196
	outer loop
		vertex 17.5 5 0
		vertex 20 5 0
		vertex 18.75 6.25 1.875
	endloop
endfacet
facet normal 0.832050294 -0 0.554700196
	outer loop
		vertex 20 5 0
		vertex 20 7.5 0
		vertex 18.75 6.25 1.875
	endloop
endfacet
facet normal 0 0.832050294 0.554700196
	outer loop
		vertex 20 7.5 0
		vertex 17.5 7.5 0
		vertex 18.75 6.25 1.875
	endloop
endfacet
facet normal -0.832050294 0 0.554700196
	outer loop
		vertex 17.5 7.5 0
		vertex 17.5 5 0
		vertex 18.75 6.25 1.875
	endloop
endfacet
facet normal 0 -0.832050294 0.554700196
	outer loop
		vertex 15 7.5 0
		vertex 17.5 7.5 0
		vertex 16.25 8.75 1.875
	endloop
endfacet
facet normal 0.832050294 -0 0.554700196
	outer loop
		vertex 17.5 7.5 0
		vertex 17.5 10 0
		vertex 16.25 8.75 1.875
	endloop
endfacet
facet normal 0 0.832050294 0.554700196
	outer loop
		vertex 17.5 10 0
		vertex 15 10 0
		vertex 16.25 8.75 1.875
	endloop
endfacet
facet normal -0.832050294 0 0.554700196
	outer loop
		vertex 15 10 0
		vertex 15 7.5 0
		vertex 16.25 8.75 1.875
	endloop
endfacet
facet normal 0 -0.832050294 0.554700196
	outer loop
		vertex 17.5 7.5 0
		vertex 20 7.5 0
		vertex 18.75 8.75 1.875
	endloop
endfacet
facet normal 0.832050294 -0 0.554700196
	outer loop
		vertex 20 7.5 0
		vertex 20 10 0
		vertex 18.75 8.75 1.875
	endloop
endfacet
facet normal 0 0.832050294 0.554700196
	outer loop
		vertex 20 10 0
		vertex 17.5 10 0
		vertex 18.75 8.75 1.875
	endloop
endfacet
facet normal -0.832050294 0 0.554700196
	outer loop
		vertex 17.5 10 0
		vertex 17.5 7.5 0
		vertex 18.75 8.75 1.875
	endloop
endfacet
facet normal 0 -0.832050294 0.554700196
	outer loop
		vertex 16.25 6.25 1.875
		vertex 18.75 6.25 1.875
		vertex 17.5 7.5 3.75
	endloop
endfacet
facet normal 0.832050294 -0 0.554700196
	outer loop
		vertex 18.75 6.25 1.875
		vertex 18.75 8.75 1.875
		vertex 17.5 7.5 3.75
	endloop
endfacet
facet normal 0 0.832050294 0.554700196
	outer loop
		vertex 18.75 8.75 1.875
		vertex 16.25 8.75 1.875
		vertex 17.5 7.5 3.75
	endloop
endfacet
facet normal -0.832050294 0 0.554700196
	outer loop
		vertex 16.25 8.75 1.875
		vertex 16.25 6.25 1.875
		vertex 17.5 7.5 3.75
	endloop
endfacet
facet normal -0 -0.832050294 -0.554700196
	outer loop
		vertex 16.25 3.75 5.625
		vertex 13.75 3.75 5.625
		vertex 15 5 3.75
	endloop
endfacet
facet normal 0.832050294 0 -0.554700196
	outer loop
		vertex 16.25 6.25 5.625
		vertex 16.25 3.75 5.625
		vertex 15 5 3.75
	endloop
endfacet
facet normal 0 0.832050294 -0.554700196
	outer loop
		vertex 13.75 6.25 5.625
		vertex 16.25 6.25 5.625
		vertex 15 5 3.75
	endloop
endfacet
facet normal -0.832050294 0 -0.554700196
	outer loop
		vertex 13.75 3.75 5.625
		vertex 13.75 6.25 5.625
		vertex 15 5 3.75
	endloop
endfacet
facet normal 0 -0.832050294 0.554700196
	outer loop
		vertex 12.5 2.5 3.75
		vertex 15 2.5 3.75
		vertex 13.75 3.75 5.625
	endloop
endfacet
facet normal 0.832050294 -0 0.554700196
	outer loop
		vertex 15 2.5 3.75
		vertex 15 5 3.75
		vertex 13.75 3.75 5.625
	endloop
endfacet
facet normal 0 0.832050294 0.554700196
	outer loop
		vertex 15 5 3.75
		vertex 12.5 5 3.75
		vertex 13.75 3.75 5.625
	endloop
endfacet
facet normal -0.832050294 0 0.554700196
	outer loop
		vertex 12.5 5 3.75
		vertex 12.5 2.5 3.75
		vertex 13.75 3.75 5.625
	endloop
endfacet
facet normal 0 -0.832050294 0.554700196
	outer loop
		vertex 15 2.5 3.75
		vertex 17.5 2.5 3.75
		vertex 16.25 3.75 5.625
	endloop
endfacet
facet normal 0.832050294 -0 0.554700196
	outer loop
		vertex 17.5 2.5 3.75
		vertex 17.5 5 3.75
		vertex 16.25 3.75 5.625
	endloop
endfacet
facet normal 0 0.832050294 0.554700196
	outer loop
		vertex 17.5 5 3.75
		vertex 15 5 3.75
		vertex 16.25 3.75 5.625
	endloop
endfacet
facet normal -0.832050294 0 0.554700196
	outer loop
		vertex 15 5 3.75
		vertex 15 2.5 3.75
		vertex 16.25 3.75 5.625
	endloop
endfacet
facet normal 0 -0.832050294 0.554700196
	outer loop
		vertex 12.5 5 3.75
		vertex 15 5 3.75
		vertex 13.75 6.25 5.625
	endloop
endfacet
facet normal 0.832050294 -0 0.554700196
	outer loop
		vertex 15 5 3.75
		vertex 15 7.5 3.75
		vertex 13.75 6.25 5.625
	endloop
endfacet
facet normal 0 0.832050294 0.554700196
	outer loop
		vertex 15 7.5 3.75
		vertex 12.5 7.5 3.75
		vertex 13.75 6.25 5.625
	endloop
endfacet
facet normal -0.832050294 0 0.554700196
	outer loop
		vertex 12.5 7.5 3.75
		vertex 12.5 5 3.75
		vertex 13.75 6.25 5.625
	endloop
endfacet
facet normal 0 -0.832050294 0.554700196
	outer loop
		vertex 15 5 3.75
		vertex 17.5 5 3.75
		vertex 16.25 6.25 5.625
	endloop
endfacet
facet normal 0.832050294 -0 0.554700196
	outer loop
		vertex 17.5 5 3.75
		vertex 17.5 7.5 3.75
		vertex 16.25 6.25 5.625
	endloop
endfacet
facet normal 0 0.832050294 0.554700196
	outer loop
		vertex 17.5 7.5 3.75
		vertex 15 7.5 3.75
		vertex 16.25 6.25 5.625
	endloop
endfacet
facet normal -0.832050294 0 0.554700196
	outer loop
		vertex 15 7.5 3.75
		vertex 15 5 3.75
		vertex 16.25 6.25 5.625
	endloop
endfacet
facet normal 0 -0.832050294 0.554700196
	outer loop
		vertex 13.75 3.75 5.625
		vertex 16.25 3.75 5.625
		vertex 15 5 7.5
	endloop
endfacet
facet normal 0.832050294 -0 0.554700196
	outer loop
		vertex 16.25 3.75 5.625
		vertex 16.25 6.25 5.625
		vertex 15 5 7.5
	endloop
endfacet
facet normal 0 0.832050294 0.554700196
	outer loop
		vertex 16.25 6.25 5.625
		vertex 13.75 6.25 5.625
		vertex 15 5 7.5
	endloop
endfacet
facet normal -0.832050294 0 0.554700196
	outer loop
		vertex 13.75 6.25 5.625
		vertex 13.75 3.75 5.625
		vertex 15 5 7.5
	endloop
endfacet
facet normal -0 -0.832050294 -0.554700196
	outer loop
		vertex 7.5 12.5 3.75
		vertex 2.5 12.5 3.75
		vertex 5 15 0
	endloop
endfacet
facet normal 0.832050294 0 -0.554700196
	outer loop
		vertex 7.5 17.5 3.75
		vertex 7.5 12.5 3.75
		vertex 5 15 0
	endloop
endfacet
facet normal 0 0.832050294 -0.554700196
	outer loop
		vertex 2.5 17.5 3.75
		vertex 7.5 17.5 3.75
		vertex 5 15 0
	endloop
endfacet
facet normal -0.832050294 0 -0.554700196
	outer loop
		vertex 2.5 12.5 3.75
		vertex 2.5 17.5 3.75
		vertex 5 15 0
	endloop
endfacet
facet normal -0 -0.832050294 -0.554700196
	outer loop
		vertex 3.75 11.25 1.875
		vertex 1.25 11.25 1.875
		vertex 2.5 12.5 0
	endloop
endfacet
facet normal 0.832050294 0 -0.554700196
	outer loop
		vertex 3.75 13.75 1.875
		vertex 3.75 11.25 1.875
		vertex 2.5 12.5 0
	endloop
endfacet
facet normal 0 0.832050294 -0.554700196
	outer loop
		vertex 1.25 13.75 1.875
		vertex 3.75 13.75 1.875
		vertex 2.5 12.5 0
	endloop
endfacet
facet normal -0.832050294 0 -0.554700196
	outer loop
		vertex 1.25 11.25 1.875
		vertex 1.25 13.75 1.875
		vertex 2.5 12.5 0
	endloop
endfacet
facet normal 0 -0.832050294 0.554700196
	outer loop
		vertex 0 10 0
		vertex 2.5 10 0
		vertex 1.25 11.25 1.875
	endloop
endfacet
facet normal 0.832050294 -0 0.554700196
	outer loop
		vertex 2.5 10 0
		vertex 2.5 12.5 0
		vertex 1.25 11.25 1.875
	endloop
endfacet
facet normal 0 0.832050294 0.554700196
	outer loop
		vertex 2.5 12.5 0
		vertex 0 12.5 0
		vertex 1.25 11.25 1.875
	endloop
endfacet
facet normal -0.832050294 0 0.554700196
	outer loop
		vertex 0 12.5 0
		vertex 0 10 0
		vertex 1.25 11.25 1.875
	endloop
endfacet
facet normal 0 -0.832050294 0.554700196
	outer loop
		vertex 2.5 10 0
		vertex 5 10 0
		vertex 3.75 11.25 1.875
	endloop
endfacet
facet normal 0.832050294 -0 0.554700196
	outer loop
		vertex 5 10 0
		vertex 5 12.5 0
		vertex 3.75 11.25 1.875
	endloop
endfacet
facet normal 0 0.832050294 0.554700196
	outer loop
		vertex 5 12.5 0
		vertex 2.5 12.5 0
		vertex 3.75 11.25 1.875
	endloop
endfacet
facet normal -0.832050294 0 0.554700196
	outer loop
		vertex 2.5 12.5 0
		vertex 2.5 10 0
		vertex 3.75 11.25 1.875
	endloop
endfacet
facet normal 0 -0.832050294 0.554700196
	outer loop
		vertex 0 12.5 0
		vertex 2.5 12.5 0
		vertex 1.25 13.75 1.875
	endloop
endfacet
facet normal 0.832050294 -0 0.554700196
	outer loop
		vertex 2.5 12.5 0
		vertex 2.5 15 0
		vertex 1.25 13.75 1.875
	endloop
endfacet
facet normal 0 0.832050294 0.554700196
	outer loop
		vertex 2.5 15 0
		vertex 0 15 0
		vertex 1.25 13.75 1.875
	endloop
endfacet
facet normal -0.832050294 0 0.554700196
	outer loop
		vertex 0 15 0
		vertex 0 12.5 0
		vertex 1.25 13.75 1.875
	endloop
endfacet
facet normal 0 -0.832050294 0.554700196
	outer loop
		vertex 2.5 12.5 0
		vertex 5 12.5 0
		vertex 3.75 13.75 1.875
	endloop
endfacet
facet normal 0.832050294 -0 0.554700196
	outer loop
		vertex 5 12.5 0
		vertex 5 15 0
		vertex 3.75 13.75 1.875
	endloop
endfacet
facet normal 0 0.832050294 0.554700196
	outer loop
		vertex 5 15 0
		vertex 2.5 15 0
		vertex 3.75 13.75 1.875
	endloop
endfacet
facet normal -0.832050294 0 0.554700196
	outer loop
		vertex 2.5 15 0
		vertex 2.5 12.5 0
		vertex 3.75 13.75 1.875
	endloop
endfacet
facet normal 0 -0.832050294 0.554700196
	outer loop
		vertex 1.25 11.25 1.875
		vertex 3.75 11.25 1.875
		vertex 2.5 12.5 3.75
	endloop
endfacet
facet normal 0.832050294 -0 0.554700196
	outer loop
		vertex 3.75 11.25 1.875
		vertex 3.75 13.75 1.875
		vertex 2.5 12.5 3.75
	endloop
endfacet
facet normal 0 0.832050294 0.554700196
	outer loop
		vertex 3.75 13.75 1.875
		vertex 1.25 13.75 1.875
		vertex 2.5 12.5 3.75
	endloop
endfacet
facet normal -0.832050294 0 0.554700196
	outer loop
		vertex 1.25 13.75 1.875
		vertex 1.25 11.25 1.875
		vertex 2.5 12.5 3.75
	endloop
endfacet
facet normal -0 -0.832050294 -0.554700196
	outer loop
		vertex 8.75 11.25 1.875
		vertex 6.25 11.25 1.875
		vertex 7.5 12.5 0
	endloop
endfacet
facet normal 0.832050294 0 -0.554700196
	outer loop
		vertex 8.75 13.75 1.875
		vertex 8.75 11.25 1.875
		vertex 7.5 12.5 0
	endloop
endfacet
facet normal 0 0.832050294 -0.554700196
	outer loop
		vertex 6.25 13.75 1.875
		vertex 8.75 13.75 1.875
		vertex 7.5 12.5 0
	endloop
endfacet
facet normal -0.832050294 0 -0.554700196
	outer loop
		vertex 6.25 11.25 1.875
		vertex 6.25 13.75 1.875
		vertex 7.5 12.5 0
	endloop
endfacet
facet normal 0 -0.832050294 0.554700196
	outer loop
		vertex 5 10 0
		vertex 7.5 10 0
		vertex 6.25 11.25 1.875
	endloop
endfacet
facet normal 0.832050294 -0 0.554700196
	outer loop
		vertex 7.5 10 0
		vertex 7.5 12.5 0
		vertex 6.25 11.25 1.875
	endloop
endfacet
facet normal 0 0.832050294 0.554700196
	outer loop
		vertex 7.5 12.5 0
		vertex 5 12.5 0
		vertex 6.25 11.25 1.875
	endloop
endfacet
facet normal -0.832050294 0 0.554700196
	outer loop
		vertex 5 12.5 0
		vertex 5 10 0
		vertex 6.25 11.25 1.875
	endloop
endfacet
facet normal 0 -0.832050294 0.554700196
	outer loop
		vertex 7.5 10 0
		vertex 10 10 0
		vertex 8.75 11.25 1.875
	endloop
endfacet
facet normal 0.832050294 -0 0.554700196
	outer loop
		vertex 10 10 0
		vertex 10 12.5 0
		vertex 8.75 11.25 1.875
	endloop
endfacet
facet normal 0 0.832050294 0.554700196
	outer loop
		vertex 10 12.5 0
		vertex 7.5 12.5 0
		vertex 8.75 11.25 1.875
	endloop
endfacet
facet normal -0.832050294 0 0.554700196
	outer loop
		vertex 7.5 12.5 0
		vertex 7.5 10 0
		vertex 8.75 11.25 1.875
	endloop
endfacet
facet normal 0 -0.832050294 0.554700196
	outer loop
		vertex 5 12.5 0
		vertex 7.5 12.5 0
		vertex 6.25 13.75 1.875
	endloop
endfacet
facet normal 0.832050294 -0 0.554700196
	outer loop
		vertex 7.5 12.5 0
		vertex 7.5 15 0
		vertex 6.25 13.75 1.875
	endloop
endfacet
facet normal 0 0.832050294 0.554700196
	outer loop
		vertex 7.5 15 0
		vertex 5 15 0
		vertex 6.25 13.75 1.875
	endloop
endfacet
facet normal -0.832050294 0 0.554700196
	outer loop
		vertex 5 15 0
		vertex 5 12.5 0
		vertex 6.25 13.75 1.875
	endloop
endfacet
facet normal 0 -0.832050294 0.554700196
	outer loop
		vertex 7.5 12.5 0
		vertex 10 12.5 0
		vertex 8.75 13.75 1.875
	endloop
endfacet
facet normal 0.832050294 -0 0.554700196
	outer loop
		vertex 10 12.5 0
		vertex 10 15 0
		vertex 8.75 13.75 1.875
	endloop
endfacet
facet normal 0 0.832050294 0.554700196
	outer loop
		vertex 10 15 0
		vertex 7.5 15 0
		vertex 8.75 13.75 1.875
	endloop
endfacet
facet normal -0.832050294 0 0.554700196
	outer loop
		vertex 7.5 15 0
		vertex 7.5 12.5 0
		vertex 8.75 13.75 1.875
	endloop
endfacet
facet normal 0 -0.832050294 0.554700196
	outer loop
		vertex 6.25 11.25 1.875
		vertex 8.75 11.25 1.875
		vertex 7.5 12.5 3.75
	endloop
endfacet
facet normal 0.832050294 -0 0.554700196
	outer loop
		vertex 8.75 11.25 1.875
		vertex 8.75 13.75 1.875
		vertex 7.5 12.5 3.75
	endloop
endfacet
facet normal 0 0.832050294 0.554700196
	outer loop
		vertex 8.75 13.75 1.875
		vertex 6.25 13.75 1.875
		vertex 7.5 12.5 3.75
	endloop
endfacet
facet normal -0.832050294 0 0.554700196
	outer loop
		vertex 6.25 13.75 1.875
		vertex 6.25 11.25 1.875
		vertex 7.5 12.5 3.75
	endloop
endfacet
facet normal -0 -0.832050294 -0.554700196
	outer loop
		vertex 3.75 16.25 1.875
		vertex 1.25 16.25 1.875
		vertex 2.5 17.5 0
	endloop
endfacet
facet normal 0.832050294 0 -0.554700196
	outer loop
		vertex 3.75 18.75 1.875
		vertex 3.75 16.25 1.875
		vertex 2.5 17.5 0
	endloop
endfacet
facet normal 0 0.832050294 -0.554700196
	outer loop
		vertex 1.25 18.75 1.875
		vertex 3.75 18.75 1.875
		vertex 2.5 17.5 0
	endloop
endfacet
facet normal -0.832050294 0 -0.554700196
	outer loop
		vertex 1.25 16.25 1.875
		vertex 1.25 18.75 1.875
		vertex 2.5 17.5 0
	endloop
endfacet
facet normal 0 -0.832050294 0.554700196
	outer loop
		vertex 0 15 0
		vertex 2.5 15 0
		vertex 1.25 16.25 1.875
	endloop
endfacet
facet normal 0.832050294 -0 0.554700196
	outer loop
		vertex 2.5 15 0
		vertex 2.5 17.5 0
		vertex 1.25 16.25 1.875
	endloop
endfacet
facet normal 0 0.832050294 0.554700196
	outer loop
		vertex 2.5 17.5 0
		vertex 0 17.5 0
		vertex 1.25 16.25 1.875
	endloop
endfacet
facet normal -0.832050294 0 0.554700196
	outer loop
		vertex 0 17.5 0
		vertex 0 15 0
		vertex 1.25 16.25 1.875
	endloop
endfacet
facet normal 0 -0.832050294 0.554700196
	outer loop
		vertex 2.5 15 0
		vertex 5 15 0
		vertex 3.75 16.25 1.875
	endloop
endfacet
facet normal 0.832050294 -0 0.554700196
	outer loop
		vertex 5 15 0
		vertex 5 17.5 0
		vertex 3.75 16.25 1.875
	endloop
endfacet
facet normal 0 0.832050294 0.554700196
	outer loop
		vertex 5 17.5 0
		vertex 2.5 17.5 0
		vertex 3.75 16.25 1.875
	endloop
endfacet
facet normal -0.832050294 0 0.554700196
	outer loop
		vertex 2.5 17.5 0
		vertex 2.5 15 0
		vertex 3.75 16.25 1.875
	endloop
endfacet
facet normal 0 -0.832050294 0.554700196
	outer loop
		vertex 0 17.5 0
		vertex 2.5 17.5 0
		vertex 1.25 18.75 1.875
	endloop
endfacet
facet normal 0.832050294 -0 0.554700196
	outer loop
		vertex 2.5 17.5 0
		vertex 2.5 20 0
		vertex 1.25 18.75 1.875
	endloop
endfacet
facet normal 0 0.832050294 0.554700196
	outer loop
		vertex 2.5 20 0
		vertex 0 20 0
		vertex 1.25 18.75 1.875
	endloop
endfacet
facet normal -0.832050294 0 0.554700196
	outer loop
		vertex 0 20 0
		vertex 0 17.5 0
		vertex 1.25 18.75 1.875
	endloop
endfacet
facet normal 0 -0.832050294 0.554700196
	outer loop
		vertex 2.5 17.5 0
		vertex 5 17.5 0
		vertex 3.75 18.75 1.875
	endloop
endfacet
facet normal 0.832050294 -0 0.554700196
	outer loop
		vertex 5 17.5 0
		vertex 5 20 0
		vertex 3.75 18.75 1.875
	endloop
endfacet
facet normal 0 0.832050294 0.554700196
	outer loop
		vertex 5 20 0
		vertex 2.5 20 0
		vertex 3.75 18.75 1.875
	endloop
endfacet
facet normal -0.832050294 0 0.554700196
	outer loop
		vertex 2.5 20 0
		vertex 2.5 17.5 0
		vertex 3.75 18.75 1.875
	endloop
endfacet
facet normal 0 -0.832050294 0.554700196
	outer loop
		vertex 1.25 16.25 1.875
		vertex 3.75 16.25 1.875
		vertex 2.5 17.5 3.75
	endloop
endfacet
facet normal 0.832050294 -0 0.554700196
	outer loop
		vertex 3.75 16.25 1.875
		vertex 3.75 18.75 1.875
		vertex 2.5 17.5 3.75
	endloop
endfacet
facet normal 0 0.832050294 0.554700196
	outer loop
		vertex 3.75 18.75 1.875
		vertex 1.25 18.75 1.875
		vertex 2.5 17.5 3.75
	endloop
endfacet
facet normal -0.832050294 0 0.554700196
	outer loop
		vertex 1.25 18.75 1.875
		vertex 1.25 16.25 1.875
		vertex 2.5 17.5 3.75
	endloop
endfacet
facet normal -0 -0.832050294 -0.554700196
	outer loop
		vertex 8.75 16.25 1.875
		vertex 6.25 16.25 1.875
		vertex 7.5 17.5 0
	endloop
endfacet
facet normal 0.832050294 0 -0.554700196
	outer loop
		vertex 8.75 18.75 1.875
		vertex 8.75 16.25 1.875
		vertex 7.5 17.5 0
	endloop
endfacet
facet normal 0 0.832050294 -0.554700196
	outer loop
		vertex 6.25 18.75 1.875
		vertex 8.75 18.75 1.875
		vertex 7.5 17.5 0
	endloop
endfacet
facet normal -0.832050294 0 -0.554700196
	outer loop
		vertex 6.25 16.25 1.875
		vertex 6.25 18.75 1.875
		vertex 7.5 17.5 0
	endloop
endfacet
facet normal 0 -0.832050294 0.554700196
	outer loop
		vertex 5 15 0
		vertex 7.5 15 0
		vertex 6.25 16.25 1.875
	endloop
endfacet
facet normal 0.832050294 -0 0.554700196
	outer loop
		vertex 7.5 15 0
		vertex 7.5 17.5 0
		vertex 6.25 16.25 1.875
	endloop
endfacet
facet normal 0 0.832050294 0.554700196
	outer loop
		vertex 7.5 17.5 0
		vertex 5 17.5 0
		vertex 6.25 16.25 1.875
	endloop
endfacet
facet normal -0.832050294 0 0.554700196
	outer loop
		vertex 5 17.5 0
		vertex 5 15 0
		vertex 6.25 16.25 1.875
	endloop
endfacet
facet normal 0 -0.832050294 0.554700196
	outer loop
		vertex 7.5 15 0
		vertex 10 15 0
		vertex 8.75 16.25 1.875
	endloop
endfacet
facet normal 0.832050294 -0 0.554700196
	outer loop
		vertex 10 15 0
		vertex 10 17.5 0
		vertex 8.75 16.25 1.875
	endloop
endfacet
facet normal 0 0.832050294 0.554700196
	outer loop
		vertex 10 17.5 0
		vertex 7.5 17.5 0
		vertex 8.75 16.25 1.875
	endloop
endfacet
facet normal -0.832050294 0 0.554700196
	outer loop
		vertex 7.5 17.5 0
		vertex 7.5 15 0
		vertex 8.75 16.25 1.875
	endloop
endfacet
facet normal 0 -0.832050294 0.554700196
	outer loop
		vertex 5 17.5 0
		vertex 7.5 17.5 0
		vertex 6.25 18.75 1.875
	endloop
endfacet
facet normal 0.832050294 -0 0.554700196
	outer loop
		vertex 7.5 17.5 0
		vertex 7.5 20 0
		vertex 6.25 18.75 1.875
	endloop
endfacet
facet normal 0 0.832050294 0.554700196
	outer loop
		vertex 7.5 20 0
		vertex 5 20 0
		vertex 6.25 18.75 1.875
	endloop
endfacet
facet normal -0.832050294 0 0.554700196
	outer loop
		vertex 5 20 0
		vertex 5 17.5 0
		vertex 6.25 18.75 1.875
	endloop
endfacet
facet normal 0 -0.832050294 0.554700196
	outer loop
		vertex 7.5 17.5 0
		vertex 10 17.5 0
		vertex 8.75 18.75 1.875
	endloop
endfacet
facet normal 0.832050294 -0 0.554700196
	outer loop
		vertex 10 17.5 0
		vertex 10 20 0
		vertex 8.75 18.75 1.875
	endloop
endfacet
facet normal 0 0.832050294 0.554700196
	outer loop
		vertex 10 20 0
		vertex 7.5 20 0
		vertex 8.75 18.75 1.875
	endloop
endfacet
facet normal -0.832050294 0 0.554700196
	outer loop
		vertex 7.5 20 0
		vertex 7.5 17.5 0
		vertex 8.75 18.75 1.875
	endloop
endfacet
facet normal 0 -0.832050294 0.554700196
	outer loop
		vertex 6.25 16.25 1.875
		vertex 8.75 16.25 1.875
		vertex 7.5 17.5 3.75
	endloop
endfacet
facet normal 0.832050294 -0 0.554700196
	outer loop
		vertex 8.75 16.25 1.875
		vertex 8.75 18.75 1.875
		vertex 7.5 17.5 3.75
	endloop
endfacet
facet normal 0 0.832050294 0.554700196
	outer loop
		vertex 8.75 18.75 1.875
		vertex 6.25 18.75 1.875
		vertex 7.5 17.5 3.75
	endloop
endfacet
facet normal -0.832050294 0 0.554700196
	outer loop
		vertex 6.25 18.75 1.875
		vertex 6.25 16.25 1.875
		vertex 7.5 17.5 3.75
	endloop
endfacet
facet normal -0 -0.832050294 -0.554700196
	outer loop
		vertex 6.25 13.75 5.625
		vertex 3.75 13.75 5.625
		vertex 5 15 3.75
	endloop
endfacet
facet normal 0.832050294 0 -0.554700196
	outer loop
		vertex 6.25 16.25 5.625
		vertex 6.25 13.75 5.625
		vertex 5 15 3.75
	endloop
endfacet
facet normal 0 0.832050294 -0.554700196
	outer loop
		vertex 3.75 16.25 5.625
		vertex 6.25 16.25 5.625
		vertex 5 15 3.75
	endloop
endfacet
facet normal -0.832050294 0 -0.554700196
	outer loop
		vertex 3.75 13.75 5.625
		vertex 3.75 16.25 5.625
		vertex 5 15 3.75
	endloop
endfacet
facet normal 0 -0.832050294 0.554700196
	outer loop
		vertex 2.5 12.5 3.75
		vertex 5 12.5 3.75
		vertex 3.75 13.75 5.625
	endloop
endfacet
facet normal 0.832050294 -0 0.554700196
	outer loop
		vertex 5 12.5 3.75
		vertex 5 15 3.75
		vertex 3.75 13.75 5.625
	endloop
endfacet
facet normal 0 0.832050294 0.554700196
	outer loop
		vertex 5 15 3.75
		vertex 2.5 15 3.75
		vertex 3.75 13.75 5.625
	endloop
endfacet
facet normal -0.832050294 0 0.554700196
	outer loop
		vertex 2.5 15 3.75
		vertex 2.5 12.5 3.75
		vertex 3.75 13.75 5.625
	endloop
endfacet
facet normal 0 -0.832050294 0.554700196
	outer loop
		vertex 5 12.5 3.75
		vertex 7.5 12.5 3.75
		vertex 6.25 13.75 5.625
	endloop
endfacet
facet normal 0.832050294 -0 0.554700196
	outer loop
		vertex 7.5 12.5 3.75
		vertex 7.5 15 3.75
		vertex 6.25 13.75 5.625
	endloop
endfacet
facet normal 0 0.832050294 0.554700196
	outer loop
		vertex 7.5 15 3.75
		vertex 5 15 3.75
		vertex 6.25 13.75 5.625
	endloop
endfacet
facet normal -0.832050294 0 0.554700196
	outer loop
		vertex 5 15 3.75
		vertex 5 12.5 3.75
		vertex 6.25 13.75 5.625
	endloop
endfacet
facet normal 0 -0.832050294 0.554700196
	outer loop
		vertex 2.5 15 3.75
		vertex 5 15 3.75
		vertex 3.75 16.25 5.625
	endloop
endfacet
facet normal 0.832050294 -0 0.554700196
	outer loop
		vertex 5 15 3.75
		vertex 5 17.5 3.75
		vertex 3.75 16.25 5.625
	endloop
endfacet
facet normal 0 0.832050294 0.554700196
	outer loop
		vertex 5 17.5 3.75
		vertex 2.5 17.5 3.75
		vertex 3.75 16.25 5.625
	endloop
endfacet
facet normal -0.832050294 0 0.554700196
	outer loop
		vertex 2.5 17.5 3.75
		vertex 2.5 15 3.75
		vertex 3.75 16.25 5.625
	endloop
endfacet
facet normal 0 -0.832050294 0.554700196
	outer loop
		vertex 5 15 3.75
		vertex 7.5 15 3.75
		vertex 6.25 16.25 5.625
	endloop
endfacet
facet normal 0.832050294 -0 0.554700196
	outer loop
		vertex 7.5 15 3.75
		vertex 7.5 17.5 3.75
		vertex 6.25 16.25 5.625
	endloop
endfacet
facet normal 0 0.832050294 0.554700196
	outer loop
		vertex 7.5 17.5 3.75
		vertex 5 17.5 3.75
		vertex 6.25 16.25 5.625
	endloop
endfacet
facet normal -0.832050294 0 0.554700196
	outer loop
		vertex 5 17.5 3.75
		vertex 5 15 3.75
		vertex 6.25 16.25 5.625
	endloop
endfacet
facet normal 0 -0.832050294 0.554700196
	outer loop
		vertex 3.75 13.75 5.625
		vertex 6.25 13.75 5.625
		vertex 5 15 7.5
	endloop
endfacet
facet normal 0.832050294 -0 0.554700196
	outer loop
		vertex 6.25 13.75 5.625
		vertex 6.25 16.25 5.625
		vertex 5 15 7.5
	endloop
endfacet
facet normal 0 0.832050294 0.554700196
	outer loop
		vertex 6.25 16.25 5.625
		vertex 3.75 16.25 5.625
		vertex 5 15 7.5
	endloop
endfacet
facet normal -0.832050294 0 0.554700196
	outer loop
		vertex 3.75 16.25 5.625
		vertex 3.75 13.75 5.625
		vertex 5 15 7.5
	endloop
endfacet
facet normal -0 -0.832050294 -0.554700196
	outer loop
		vertex 17.5 12.5 3.75
		vertex 12.5 12.5 3.75
		vertex 15 15 0
	endloop
endfacet
facet normal 0.832050294 0 -0.554700196
	outer loop
		vertex 17.5 17.5 3.75
		vertex 17.5 12.5 3.75
		vertex 15 15 0
	endloop
endfacet
facet normal 0 0.832050294 -0.554700196
	outer loop
		vertex 12.5 17.5 3.75
		vertex 17.5 17.5 3.75
		vertex 15 15 0
	endloop
endfacet
facet normal -0.832050294 0 -0.554700196
	outer loop
		vertex 12.5 12.5 3.75
		vertex 12.5 17.5 3.75
		vertex 15 15 0
	endloop
endfacet
facet normal -0 -0.832050294 -0.554700196
	outer loop
		vertex 13.75 11.25 1.875
		vertex 11.25 11.25 1.875
		vertex 12.5 12.5 0
	endloop
endfacet
facet normal 0.832050294 0 -0.554700196
	outer loop
		vertex 13.75 13.75 1.875
		vertex 13.75 11.25 1.875
		vertex 12.5 12.5 0
	endloop
endfacet
facet normal 0 0.832050294 -0.554700196
	outer loop
		vertex 11.25 13.75 1.875
		vertex 13.75 13.75 1.875
		vertex 12.5 12.5 0
	endloop
endfacet
facet normal -0.832050294 0 -0.554700196
	outer loop
		vertex 11.25 11.25 1.875
		vertex 11.25 13.75 1.875
		vertex 12.5 12.5 0
	endloop
endfacet
facet normal 0 -0.832050294 0.554700196
	outer loop
		vertex 10 10 0
		vertex 12.5 10 0
		vertex 11.25 11.25 1.875
	endloop
endfacet
facet normal 0.832050294 -0 0.554700196
	outer loop
		vertex 12.5 10 0
		vertex 12.5 12.5 0
		vertex 11.25 11.25 1.875
	endloop
endfacet
facet normal 0 0.832050294 0.554700196
	outer loop
		vertex 12.5 12.5 0
		vertex 10 12.5 0
		vertex 11.25 11.25 1.875
	endloop
endfacet
facet normal -0.832050294 0 0.554700196
	outer loop
		vertex 10 12.5 0
		vertex 10 10 0
		vertex 11.25 11.25 1.875
	endloop
endfacet
facet normal 0 -0.832050294 0.554700196
	outer loop
		vertex 12.5 10 0
		vertex 15 10 0
		vertex 13.75 11.25 1.875
	endloop
endfacet
facet normal 0.832050294 -0 0.554700196
	outer loop
		vertex 15 10 0
		vertex 15 12.5 0
		vertex 13.75 11.25 1.875
	endloop
endfacet
facet normal 0 0.832050294 0.554700196
	outer loop
		vertex 15 12.5 0
		vertex 12.5 12.5 0
		vertex 13.75 11.25 1.875
	endloop
endfacet
facet normal -0.832050294 0 0.554700196
	outer loop
		vertex 12.5 12.5 0
		vertex 12.5 10 0
		vertex 13.75 11.25 1.875
	endloop
endfacet
facet normal 0 -0.832050294 0.554700196
	outer loop
		vertex 10 12.5 0
		vertex 12.5 12.5 0
		vertex 11.25 13.75 1.875
	endloop
endfacet
facet normal 0.832050294 -0 0.554700196
	outer loop
		vertex 12.5 12.5 0
		vertex 12.5 15 0
		vertex 11.25 13.75 1.875
	endloop
endfacet
facet normal 0 0.832050294 0.554700196
	outer loop
		vertex 12.5 15 0
		vertex 10 15 0
		vertex 11.25 13.75 1.875
	endloop
endfacet
facet normal -0.832050294 0 0.554700196
	outer loop
		vertex 10 15 0
		vertex 10 12.5 0
		vertex 11.25 13.75 1.875
	endloop
endfacet
facet normal 0 -0.832050294 0.554700196
	outer loop
		vertex 12.5 12.5 0
		vertex 15 12.5 0
		vertex 13.75 13.75 1.875
	endloop
endfacet
facet normal 0.832050294 -0 0.554700196
	outer loop
		vertex 15 12.5 0
		vertex 15 15 0
		vertex 13.75 13.75 1.875
	endloop
endfacet
facet normal 0 0.832050294 0.554700196
	outer loop
		vertex 15 15 0
		vertex 12.5 15 0
		vertex 13.75 13.75 1.875
	endloop
endfacet
facet normal -0.832050294 0 0.554700196
	outer loop
		vertex 12.5 15 0
		vertex 12.5 12.5 0
		vertex 13.75 13.75 1.875
	endloop
endfacet
facet normal 0 -0.832050294 0.554700196
	outer loop
		vertex 11.25 11.25 1.875
		vertex 13.75 11.25 1.875
		vertex 12.5 12.5 3.75
	endloop
endfacet
facet normal 0.832050294 -0 0.554700196
	outer loop
		vertex 13.75 11.25 1.875
		vertex 13.75 13.75 1.875
		vertex 12.5 12.5 3.75
	endloop
endfacet
facet normal 0 0.832050294 0.554700196
	outer loop
		vertex 13.75 13.75 1.875
		vertex 11.25 13.75 1.875
		vertex 12.5 12.5 3.75
	endloop
endfacet
facet normal -0.832050294 0 0.554700196
	outer loop
		vertex 11.25 13.75 1.875
		vertex 11.25 11.25 1.875
		vertex 12.5 12.5 3.75
	endloop
endfacet
facet normal -0 -0.832050294 -0.554700196
	outer loop
		vertex 18.75 11.25 1.875
		vertex 16.25 11.25 1.875
		vertex 17.5 12.5 0
	endloop
endfacet
facet normal 0.832050294 0 -0.554700196
	outer loop
		vertex 18.75 13.75 1.875
		vertex 18.75 11.25 1.875
		vertex 17.5 12.5 0
	endloop
endfacet
facet normal 0 0.832050294 -0.554700196
	outer loop
		vertex 16.25 13.75 1.875
		vertex 18.75 13.75 1.875
		vertex 17.5 12.5 0
	endloop
endfacet
facet normal -0.832050294 0 -0.554700196
	outer loop
		vertex 16.25 11.25 1.875
		vertex 16.25 13.75 1.875
		vertex 17.5 12.5 0
	endloop
endfacet
facet normal 0 -0.832050294 0.554700196
	outer loop
		vertex 15 10 0
		vertex 17.5 10 0
		vertex 16.25 11.25 1.875
	endloop
endfacet
facet normal 0.832050294 -0 0.554700196
	outer loop
		vertex 17.5 10 0
		vertex 17.5 12.5 0
		vertex 16.25 11.25 1.875
	endloop
endfacet
facet normal 0 0.832050294 0.554700196
	outer loop
		vertex 17.5 12.5 0
		vertex 15 12.5 0
		vertex 16.25 11.25 1.875
	endloop
endfacet
facet normal -0.832050294 0 0.554700196
	outer loop
		vertex 15 12.5 0
		vertex 15 10 0
		vertex 16.25 11.25 1.875
	endloop
endfacet
facet normal 0 -0.832050294 0.554700196
	outer loop
		vertex 17.5 10 0
		vertex 20 10 0
		vertex 18.75 11.25 1.875
	endloop
endfacet
facet normal 0.832050294 -0 0.554700196
	outer loop
		vertex 20 10 0
		vertex 20 12.5 0
		vertex 18.75 11.25 1.875
	endloop
endfacet
facet normal 0 0.832050294 0.554700196
	outer loop
		vertex 20 12.5 0
		vertex 17.5 12.5 0
		vertex 18.75 11.25 1.875
	endloop
endfacet
facet normal -0.832050294 0 0.554700196
	outer loop
		vertex 17.5 12.5 0
		vertex 17.5 10 0
		vertex 18.75 11.25 1.875
	endloop
endfacet
facet normal 0 -0.832050294 0.554700196
	outer loop
		vertex 15 12.5 0
		vertex 17.5 12.5 0
		vertex 16.25 13.75 1.875
	endloop
endfacet
facet normal 0.832050294 -0 0.554700196
	outer loop
		vertex 17.5 12.5 0
		vertex 17.5 15 0
		vertex 16.25 13.75 1.875
	endloop
endfacet
facet normal 0 0.832050294 0.554700196
	outer loop
		vertex 17.5 15 0
		vertex 15 15 0
		vertex 16.25 13.75 1.875
	endloop
endfacet
facet normal -0.832050294 0 0.554700196
	outer loop
		vertex 15 15 0
		vertex 15 12.5 0
		vertex 16.25 13.75 1.875
	endloop
endfacet
facet normal 0 -0.832050294 0.554700196
	outer loop
		vertex 17.5 12.5 0
		vertex 20 12.5 0
		vertex 18.75 13.75 1.875
	endloop
endfacet
facet normal 0.832050294 -0 0.554700196
	outer loop
		vertex 20 12.5 0
		vertex 20 15 0
		vertex 18.75 13.75 1.875
	endloop
endfacet
facet normal 0 0.832050294 0.554700196
	outer loop
		vertex 20 15 0
		vertex 17.5 15 0
		vertex 18.75 13.75 1.875
	endloop
endfacet
facet normal -0.832050294 0 0.554700196
	outer loop
		vertex 17.5 15 0
		vertex 17.5 12.5 0
		vertex 18.75 13.75 1.875
	endloop
endfacet
facet normal 0 -0.832050294 0.554700196
	outer loop
		vertex 16.25 11.25 1.875
		vertex 18.75 11.25 1.875
		vertex 17.5 12.5 3.75
	endloop
endfacet
facet normal 0.832050294 -0 0.554700196
	outer loop
		vertex 18.75 11.25 1.875
		vertex 18.75 13.75 1.875
		vertex 17.5 12.5 3.75
	endloop
endfacet
facet normal 0 0.832050294 0.554700196
	outer loop
		vertex 18.75 13.75 1.875
		vertex 16.25 13.75 1.875
		vertex 17.5 12.5 3.75
	endloop
endfacet
facet normal -0.832050294 0 0.554700196
	outer loop
		vertex 16.25 13.75 1.875
		vertex 16.25 11.25 1.875
		vertex 17.5 12.5 3.75
	endloop
endfacet
facet normal -0 -0.832050294 -0.554700196
	outer loop
		vertex 13.75 16.25 1.875
		vertex 11.25 16.25 1.875
		vertex 12.5 17.5 0
	endloop
endfacet
facet normal 0.832050294 0 -0.554700196
	outer loop
		vertex 13.75 18.75 1.875
		vertex 13.75 16.25 1.875
		vertex 12.5 17.5 0
	endloop
endfacet
facet normal 0 0.832050294 -0.554700196
	outer loop
		vertex 11.25 18.75 1.875
		vertex 13.75 18.75 1.875
		vertex 12.5 17.5 0
	endloop
endfacet
facet normal -0.832050294 0 -0.554700196
	outer loop
		vertex 11.25 16.25 1.875
		vertex 11.25 18.75 1.875
		vertex 12.5 17.5 0
	endloop
endfacet
facet normal 0 -0.832050294 0.554700196
	outer loop
		vertex 10 15 0
		vertex 12.5 15 0
		vertex 11.25 16.25 1.875
	endloop
endfacet
facet normal 0.832050294 -0 0.554700196
	outer loop
		vertex 12.5 15 0
		vertex 12.5 17.5 0
		vertex 11.25 16.25 1.875
	endloop
endfacet
facet normal 0 0.832050294 0.554700196
	outer loop
		vertex 12.5 17.5 0
		vertex 10 17.5 0
		vertex 11.25 16.25 1.875
	endloop
endfacet
facet normal -0.832050294 0 0.554700196
	outer loop
		vertex 10 17.5 0
		vertex 10 15 0
		vertex 11.25 16.25 1.875
	endloop
endfacet
facet normal 0 -0.832050294 0.554700196
	outer loop
		vertex 12.5 15 0
		vertex 15 15 0
		vertex 13.75 16.25 1.875
	endloop
endfacet
facet normal 0.832050294 -0 0.554700196
	outer loop
		vertex 15 15 0
		vertex 15 17.5 0
		vertex 13.75 16.25 1.875
	endloop
endfacet
facet normal 0 0.832050294 0.554700196
	outer loop
		vertex 15 17.5 0
		vertex 12.5 17.5 0
		vertex 13.75 16.25 1.875
	endloop
endfacet
facet normal -0.832050294 0 0.554700196
	outer loop
		vertex 12.5 17.5 0
		vertex 12.5 15 0
		vertex 13.75 16.25 1.875
	endloop
endfacet
facet normal 0 -0.832050294 0.554700196
	outer loop
		vertex 10 17.5 0
		vertex 12.5 17.5 0
		vertex 11.25 18.75 1.875
	endloop
endfacet
facet normal 0.832050294 -0 0.554700196
	outer loop
		vertex 12.5 17.5 0
		vertex 12.5 20 0
		vertex 11.25 18.75 1.875
	endloop
endfacet
facet normal 0 0.832050294 0.554700196
	outer loop
		vertex 12.5 20 0
		vertex 10 20 0
		vertex 11.25 18.75 1.875
	endloop
endfacet
facet normal -0.832050294 0 0.554700196
	outer loop
		vertex 10 20 0
		vertex 10 17.5 0
		vertex 11.25 18.75 1.875
	endloop
endfacet
facet normal 0 -0.832050294 0.554700196
	outer loop
		vertex 12.5 17.5 0
		vertex 15 17.5 0
		vertex 13.75 18.75 1.875
	endloop
endfacet
facet normal 0.832050294 -0 0.554700196
	outer loop
		vertex 15 17.5 0
		vertex 15 20 0
		vertex 13.75 18.75 1.875
	endloop
endfacet
facet normal 0 0.832050294 0.554700196
	outer loop
		vertex 15 20 0
		vertex 12.5 20 0
		vertex 13.75 18.75 1.875
	endloop
endfacet
facet normal -0.832050294 0 0.554700196
	outer loop
		vertex 12.5 20 0
		vertex 12.5 17.5 0
		vertex 13.75 18.75 1.875
	endloop
endfacet
facet normal 0 -0.832050294 0.554700196
	outer loop
		vertex 11.25 16.25 1.875
		vertex 13.75 16.25 1.875
		vertex 12.5 17.5 3.75
	endloop
endfacet
facet normal 0.832050294 -0 0.554700196
	outer loop
		vertex 13.75 16.25 1.875
		vertex 13.75 18.75 1.875
		vertex 12.5 17.5 3.75
	endloop
endfacet
facet normal 0 0.832050294 0.554700196
	outer loop
		vertex 13.75 18.75 1.875
		vertex 11.25 18.75 1.875
		vertex 12.5 17.5 3.75
	endloop
endfacet
facet normal -0.832050294 0 0.554700196
	outer loop
		vertex 11.25 18.75 1.875
		vertex 11.25 16.25 1.875
		vertex 12.5 17.5 3.75
	endloop
endfacet
facet normal -0 -0.832050294 -0.554700196
	outer loop
		vertex 18.75 16.25 1.875
		vertex 16.25 16.25 1.875
		vertex 17.5 17.5 0
	endloop
endfacet
facet normal 0.832050294 0 -0.554700196
	outer loop
		vertex 18.75 18.75 1.875
		vertex 18.75 16.25 1.875
		vertex 17.5 17.5 0
	endloop
endfacet
facet normal 0 0.832050294 -0.554700196
	outer loop
		vertex 16.25 18.75 1.875
		vertex 18.75 18.75 1.875
		vertex 17.5 17.5 0
	endloop
endfacet
facet normal -0.832050294 0 -0.554700196
	outer loop
		vertex 16.25 16.25 1.875
		vertex 16.25 18.75 1.875
		vertex 17.5 17.5 0
	endloop
endfacet
facet normal 0 -0.832050294 0.554700196
	outer loop
		vertex 15 15 0
		vertex 17.5 15 0
		vertex 16.25 16.25 1.875
	endloop
endfacet
facet normal 0.832050294 -0 0.554700196
	outer loop
		vertex 17.5 15 0
		vertex 17.5 17.5 0
		vertex 16.25 16.25 1.875
	endloop
endfacet
facet normal 0 0.832050294 0.554700196
	outer loop
		vertex 17.5 17.5 0
		vertex 15 17.5 0
		vertex 16.25 16.25 1.875
	endloop
endfacet
facet normal -0.832050294 0 0.554700196
	outer loop
		vertex 15 17.5 0
		vertex 15 15 0
		vertex 16.25 16.25 1.875
	endloop
endfacet
facet normal 0 -0.832050294 0.554700196
	outer loop
		vertex 17.5 15 0
		vertex 20 15 0
		vertex 18.75 16.25 1.875
	endloop
endfacet
facet normal 0.832050294 -0 0.554700196
	outer loop
		vertex 20 15 0
		vertex 20 17.5 0
		vertex 18.75 16.25 1.875
	endloop
endfacet
facet normal 0 0.832050294 0.554700196
	outer loop
		vertex 20 17.5 0
		vertex 17.5 17.5 0
		vertex 18.75 16.25 1.875
	endloop
endfacet
facet normal -0.832050294 0 0.554700196
	outer loop
		vertex 17.5 17.5 0
		vertex 17.5 15 0
		vertex 18.75 16.25 1.875
	endloop
endfacet
facet normal 0 -0.832050294 0.554700196
	outer loop
		vertex 15 17.5 0
		vertex 17.5 17.5 0
		vertex 16.25 18.75 1.875
	endloop
endfacet
facet normal 0.832050294 -0 0.554700196
	outer loop
		vertex 17.5 17.5 0
		vertex 17.5 20 0
		vertex 16.25 18.75 1.875
	endloop
endfacet
facet normal 0 0.832050294 0.554700196
	outer loop
		vertex 17.5 20 0
		vertex 15 20 0
		vertex 16.25 18.75 1.875
	endloop
endfacet
facet normal -0.832050294 0 0.554700196
	outer loop
		vertex 15 20 0
		vertex 15 17.5 0
		vertex 16.25 18.75 1.875
	endloop
endfacet
facet normal 0 -0.832050294 0.554700196
	outer loop
		vertex 17.5 17.5 0
		vertex 20 17.5 0
		vertex 18.75 18.75 1.875
	endloop
endfacet
facet normal 0.832050294 -0 0.554700196
	outer loop
		vertex 20 17.5 0
		vertex 20 20 0
		vertex 18.75 18.75 1.875
	endloop
endfacet
facet normal 0 0.832050294 0.554700196
	outer loop
		vertex 20 20 0
		vertex 17.5 20 0
		vertex 18.75 18.75 1.875
	endloop
endfacet
facet normal -0.832050294 0 0.554700196
	outer loop
		vertex 17.5 20 0
		vertex 17.5 17.5 0
		vertex 18.75 18.75 1.875
	endloop
endfacet
facet normal 0 -0.832050294 0.554700196
	outer loop
		vertex 16.25 16.25 1.875
		vertex 18.75 16.25 1.875
		vertex 17.5 17.5 3.75
	endloop
endfacet
facet normal 0.832050294 -0 0.554700196
	outer loop
		vertex 18.75 16.25 1.875
		vertex 18.75 18.75 1.875
		vertex 17.5 17.5 3.75
	endloop
endfacet
facet normal 0 0.832050294 0.554700196
	outer loop
		vertex 18.75 18.75 1.875
		vertex 16.25 18.75 1.875
		vertex 17.5 17.5 3.75
	endloop
endfacet
facet normal -0.832050294 0 0.554700196
	outer loop
		vertex 16.25 18.75 1.875
		vertex 16.25 16.25 1.875
		vertex 17.5 17.5 3.75
	endloop
endfacet
facet normal -0 -0.832050294 -0.554700196
	outer loop
		vertex 16.25 13.75 5.625
		vertex 13.75 13.75 5.625
		vertex 15 15 3.75
	endloop
endfacet
facet normal 0.832050294 0 -0.554700196
	outer loop
		vertex 16.25 16.25 5.625
		vertex 16.25 13.75 5.625
		vertex 15 15 3.75
	endloop
endfacet
facet normal 0 0.832050294 -0.554700196
	outer loop
		vertex 13.75 16.25 5.625
		vertex 16.25 16.25 5.625
		vertex 15 15 3.75
	endloop
endfacet
facet normal -0.832050294 0 -0.554700196
	outer loop
		vertex 13.75 13.75 5.625
		vertex 13.75 16.25 5.625
		vertex 15 15 3.75
	endloop
endfacet
facet normal 0 -0.832050294 0.554700196
	outer loop
		vertex 12.5 12.5 3.75
		vertex 15 12.5 3.75
		vertex 13.75 13.75 5.625
	endloop
endfacet
facet normal 0.832050294 -0 0.554700196
	outer loop
		vertex 15 12.5 3.75
		vertex 15 15 3.75
		vertex 13.75 13.75 5.625
	endloop
endfacet
facet normal 0 0.832050294 0.554700196
	outer loop
		vertex 15 15 3.75
		vertex 12.5 15 3.75
		vertex 13.75 13.75 5.625
	endloop
endfacet
facet normal -0.832050294 0 0.554700196
	outer loop
		vertex 12.5 15 3.75
		vertex 12.5 12.5 3.75
		vertex 13.75 13.75 5.625
	endloop
endfacet
facet normal 0 -0.832050294 0.554700196
	outer loop
		vertex 15 12.5 3.75
		vertex 17.5 12.5 3.75
		vertex 16.25 13.75 5.625
	endloop
endfacet
facet normal 0.832050294 -0 0.554700196
	outer loop
		vertex 17.5 12.5 3.75
		vertex 17.5 15 3.75
		vertex 16.25 13.75 5.625
	endloop
endfacet
facet normal 0 0.832050294 0.554700196
	outer loop
		vertex 17.5 15 3.75
		vertex 15 15 3.75
		vertex 16.25 13.75 5.625
	endloop
endfacet
facet normal -0.832050294 0 0.554700196
	outer loop
		vertex 15 15 3.75
		vertex 15 12.5 3.75
		vertex 16.25 13.75 5.625
	endloop
endfacet
facet normal 0 -0.832050294 0.554700196
	outer loop
		vertex 12.5 15 3.75
		vertex 15 15 3.75
		vertex 13.75 16.25 5.625
	endloop
endfacet
facet normal 0.832050294 -0 0.554700196
	outer loop
		vertex 15 15 3.75
		vertex 15 17.5 3.75
		vertex 13.75 16.25 5.625
	endloop
endfacet
facet normal 0 0.832050294 0.554700196
	outer loop
		vertex 15 17.5 3.75
		vertex 12.5 17.5 3.75
		vertex 13.75 16.25 5.625
	endloop
endfacet
facet normal -0.832050294 0 0.554700196
	outer loop
		vertex 12.5 17.5 3.75
		vertex 12.5 15 3.75
		vertex 13.75 16.25 5.625
	endloop
endfacet
facet normal 0 -0.832050294 0.554700196
	outer loop
		vertex 15 15 3.75
		vertex 17.5 15 3.75
		vertex 16.25 16.25 5.625
	endloop
endfacet
facet normal 0.832050294 -0 0.554700196
	outer loop
		vertex 17.5 15 3.75
		vertex 17.5 17.5 3.75
		vertex 16.25 16.25 5.625
	endloop
endfacet
facet normal 0 0.832050294 0.554700196
	outer loop
		vertex 17.5 17.5 3.75
		vertex 15 17.5 3.75
		vertex 16.25 16.25 5.625
	endloop
endfacet
facet normal -0.832050294 0 0.554700196
	outer loop
		vertex 15 17.5 3.75
		vertex 15 15 3.75
		vertex 16.25 16.25 5.625
	endloop
endfacet
facet normal 0 -0.832050294 0.554700196
	outer loop
		vertex 13.75 13.75 5.625
		vertex 16.25 13.75 5.625
		vertex 15 15 7.5
	endloop
endfacet
facet normal 0.832050294 -0 0.554700196
	outer loop
		vertex 16.25 13.75 5.625
		vertex 16.25 16.25 5.625
		vertex 15 15 7.5
	endloop
endfacet
facet normal 0 0.832050294 0.554700196
	outer loop
		vertex 16.25 16.25 5.625
		vertex 13.75 16.25 5.625
		vertex 15 15 7.5
	endloop
endfacet
facet normal -0.832050294 0 0.554700196
	outer loop
		vertex 13.75 16.25 5.625
		vertex 13.75 13.75 5.625
		vertex 15 15 7.5
	endloop
endfacet
facet normal -0 -0.832050294 -0.554700196
	outer loop
		vertex 12.5 7.5 11.25
		vertex 7.5 7.5 11.25
		vertex 10 10 7.5
	endloop
endfacet
facet normal 0.832050294 0 -0.554700196
	outer loop
		vertex 12.5 12.5 11.25
		vertex 12.5 7.5 11.25
		vertex 10 10 7.5
	endloop
endfacet
facet normal 0 0.832050294 -0.554700196
	outer loop
		vertex 7.5 12.5 11.25
		vertex 12.5 12.5 11.25
		vertex 10 10 7.5
	endloop
endfacet
facet normal -0.832050294 0 -0.554700196
	outer loop
		vertex 7.5 7.5 11.25
		vertex 7.5 12.5 11.25
		vertex 10 10 7.5
	endloop
endfacet
facet normal -0 -0.832050294 -0.554700196
	outer loop
		vertex 8.75 6.25 9.375
		vertex 6.25 6.25 9.375
		vertex 7.5 7.5 7.5
	endloop
endfacet
facet normal 0.832050294 0 -0.554700196
	outer loop
		vertex 8.75 8.75 9.375
		vertex 8.75 6.25 9.375
		vertex 7.5 7.5 7.5
	endloop
endfacet
facet normal 0 0.832050294 -0.554700196
	outer loop
		vertex 6.25 8.75 9.375
		vertex 8.75 8.75 9.375
		vertex 7.5 7.5 7.5
	endloop
endfacet
facet normal -0.832050294 0 -0.554700196
	outer loop
		vertex 6.25 6.25 9.375
		vertex 6.25 8.75 9.375
		vertex 7.5 7.5 7.5
	endloop
endfacet
facet normal 0 -0.832050294 0.554700196
	outer loop
		vertex 5 5 7.5
		vertex 7.5 5 7.5
		vertex 6.25 6.25 9.375
	endloop
endfacet
facet normal 0.832050294 -0 0.554700196
	outer loop
		vertex 7.5 5 7.5
		vertex 7.5 7.5 7.5
		vertex 6.25 6.25 9.375
	endloop
endfacet
facet normal 0 0.832050294 0.554700196
	outer loop
		vertex 7.5 7.5 7.5
		vertex 5 7.5 7.5
		vertex 6.25 6.25 9.375
	endloop
endfacet
facet normal -0.832050294 0 0.554700196
	outer loop
		vertex 5 7.5 7.5
		vertex 5 5 7.5
		vertex 6.25 6.25 9.375
	endloop
endfacet
facet normal 0 -0.832050294 0.554700196
	outer loop
		vertex 7.5 5 7.5
		vertex 10 5 7.5
		vertex 8.75 6.25 9.375
	endloop
endfacet
facet normal 0.832050294 -0 0.554700196
	outer loop
		vertex 10 5 7.5
		vertex 10 7.5 7.5
		vertex 8.75 6.25 9.375
	endloop
endfacet
facet normal 0 0.832050294 0.554700196
	outer loop
		vertex 10 7.5 7.5
		vertex 7.5 7.5 7.5
		vertex 8.75 6.25 9.375
	endloop
endfacet
facet normal -0.832050294 0 0.554700196
	outer loop
		vertex 7.5 7.5 7.5
		vertex 7.5 5 7.5
		vertex 8.75 6.25 9.375
	endloop
endfacet
facet normal 0 -0.832050294 0.554700196
	outer loop
		vertex 5 7.5 7.5
		vertex 7.5 7.5 7.5
		vertex 6.25 8.75 9.375
	endloop
endfacet
facet normal 0.832050294 -0 0.554700196
	outer loop
		vertex 7.5 7.5 7.5
		vertex 7.5 10 7.5
		vertex 6.25 8.75 9.375
	endloop
endfacet
facet normal 0 0.832050294 0.554700196
	outer loop
		vertex 7.5 10 7.5
		vertex 5 10 7.5
		vertex 6.25 8.75 9.375
	endloop
endfacet
facet normal -0.832050294 0 0.554700196
	outer loop
		vertex 5 10 7.5
		vertex 5 7.5 7.5
		vertex 6.25 8.75 9.375
	endloop
endfacet
facet normal 0 -0.832050294 0.554700196
	outer loop
		vertex 7.5 7.5 7.5
		vertex 10 7.5 7.5
		vertex 8.75 8.75 9.375
	endloop
endfacet
facet normal 0.832050294 -0 0.554700196
	outer loop
		vertex 10 7.5 7.5
		vertex 10 10 7.5
		vertex 8.75 8.75 9.375
	endloop
endfacet
facet normal 0 0.832050294 0.554700196
	outer loop
		vertex 10 10 7.5
		vertex 7.5 10 7.5
		vertex 8.75 8.75 9.375
	endloop
endfacet
facet normal -0.832050294 0 0.554700196
	outer loop
		vertex 7.5 10 7.5
		vertex 7.5 7.5 7.5
		vertex 8.75 8.75 9.375
	endloop
endfacet
facet normal 0 -0.832050294 0.554700196
	outer loop
		vertex 6.25 6.25 9.375
		vertex 8.75 6.25 9.375
		vertex 7.5 7.5 11.25
	endloop
endfacet
facet normal 0.832050294 -0 0.554700196
	outer loop
		vertex 8.75 6.25 9.375
		vertex 8.75 8.75 9.375
		vertex 7.5 7.5 11.25
	endloop
endfacet
facet normal 0 0.832050294 0.554700196
	outer loop
		vertex 8.75 8.75 9.375
		vertex 6.25 8.75 9.375
		vertex 7.5 7.5 11.25
	endloop
endfacet
facet normal -0.832050294 0 0.554700196
	outer loop
		vertex 6.25 8.75 9.375
		vertex 6.25 6.25 9.375
		vertex 7.5 7.5 11.25
	endloop
endfacet
facet normal -0 -0.832050294 -0.554700196
	outer loop
		vertex 13.75 6.25 9.375
		vertex 11.25 6.25 9.375
		vertex 12.5 7.5 7.5
	endloop
endfacet
facet normal 0.832050294 0 -0.554700196
	outer loop
		vertex 13.75 8.75 9.375
		vertex 13.75 6.25 9.375
		vertex 12.5 7.5 7.5
	endloop
endfacet
facet normal 0 0.832050294 -0.554700196
	outer loop
		vertex 11.25 8.75 9.375
		vertex 13.75 8.75 9.375
		vertex 12.5 7.5 7.5
	endloop
endfacet
facet normal -0.832050294 0 -0.554700196
	outer loop
		vertex 11.25 6.25 9.375
		vertex 11.25 8.75 9.375
		vertex 12.5 7.5 7.5
	endloop
endfacet
facet normal 0 -0.832050294 0.554700196
	outer loop
		vertex 10 5 7.5
		vertex 12.5 5 7.5
		vertex 11.25 6.25 9.375
	endloop
endfacet
facet normal 0.832050294 -0 0.554700196
	outer loop
		vertex 12.5 5 7.5
		vertex 12.5 7.5 7.5
		vertex 11.25 6.25 9.375
	endloop
endfacet
facet normal 0 0.832050294 0.554700196
	outer loop
		vertex 12.5 7.5 7.5
		vertex 10 7.5 7.5
		vertex 11.25 6.25 9.375
	endloop
endfacet
facet normal -0.832050294 0 0.554700196
	outer loop
		vertex 10 7.5 7.5
		vertex 10 5 7.5
		vertex 11.25 6.25 9.375
	endloop
endfacet
facet normal 0 -0.832050294 0.554700196
	outer loop
		vertex 12.5 5 7.5
		vertex 15 5 7.5
		vertex 13.75 6.25 9.375
	endloop
endfacet
facet normal 0.832050294 -0 0.554700196
	outer loop
		vertex 15 5 7.5
		vertex 15 7.5 7.5
		vertex 13.75 6.25 9.375
	endloop
endfacet
facet normal 0 0.832050294 0.554700196
	outer loop
		vertex 15 7.5 7.5
		vertex 12.5 7.5 7.5
		vertex 13.75 6.25 9.375
	endloop
endfacet
facet normal -0.832050294 0 0.554700196
	outer loop
		vertex 12.5 7.5 7.5
		vertex 12.5 5 7.5
		vertex 13.75 6.25 9.375
	endloop
endfacet
facet normal 0 -0.832050294 0.554700196
	outer loop
		vertex 10 7.5 7.5
		vertex 12.5 7.5 7.5
		vertex 11.25 8.75 9.375
	endloop
endfacet
facet normal 0.832050294 -0 0.554700196
	outer loop
		vertex 12.5 7.5 7.5
		vertex 12.5 10 7.5
		vertex 11.25 8.75 9.375
	endloop
endfacet
facet normal 0 0.832050294 0.554700196
	outer loop
		vertex 12.5 10 7.5
		vertex 10 10 7.5
		vertex 11.25 8.75 9.375
	endloop
endfacet
facet normal -0.832050294 0 0.554700196
	outer loop
		vertex 10 10 7.5
		vertex 10 7.5 7.5
		vertex 11.25 8.75 9.375
	endloop
endfacet
facet normal 0 -0.832050294 0.554700196
	outer loop
		vertex 12.5 7.5 7.5
		vertex 15 7.5 7.5
		vertex 13.75 8.75 9.375
	endloop
endfacet
facet normal 0.832050294 -0 0.554700196
	outer loop
		vertex 15 7.5 7.5
		vertex 15 10 7.5
		vertex 13.75 8.75 9.375
	endloop
endfacet
facet normal 0 0.832050294 0.554700196
	outer loop
		vertex 15 10 7.5
		vertex 12.5 10 7.5
		vertex 13.75 8.75 9.375
	endloop
endfacet
facet normal -0.832050294 0 0.554700196
	outer loop
		vertex 12.5 10 7.5
		vertex 12.5 7.5 7.5
		vertex 13.75 8.75 9.375
	endloop
endfacet
facet normal 0 -0.832050294 0.554700196
	outer loop
		vertex 11.25 6.25 9.375
		vertex 13.75 6.25 9.375
		vertex 12.5 7.5 11.25
	endloop
endfacet
facet normal 0.832050294 -0 0.554700196
	outer loop
		vertex 13.75 6.25 9.375
		vertex 13.75 8.75 9.375
		vertex 12.5 7.5 11.25
	endloop
endfacet
facet normal 0 0.832050294 0.554700196
	outer loop
		vertex 13.75 8.75 9.375
		vertex 11.25 8.75 9.375
		vertex 12.5 7.5 11.25
	endloop
endfacet
facet normal -0.832050294 0 0.554700196
	outer loop
		vertex 11.25 8.75 9.375
		vertex 11.25 6.25 9.375
		vertex 12.5 7.5 11.25
	endloop
endfacet
facet normal -0 -0.832050294 -0.554700196
	outer loop
		vertex 8.75 11.25 9.375
		vertex 6.25 11.25 9.375
		vertex 7.5 12.5 7.5
	endloop
endfacet
facet normal 0.832050294 0 -0.554700196
	outer loop
		vertex 8.75 13.75 9.375
		vertex 8.75 11.25 9.375
		vertex 7.5 12.5 7.5
	endloop
endfacet
facet normal 0 0.832050294 -0.554700196
	outer loop
		vertex 6.25 13.75 9.375
		vertex 8.75 13.75 9.375
		vertex 7.5 12.5 7.5
	endloop
endfacet
facet normal -0.832050294 0 -0.554700196
	outer loop
		vertex 6.25 11.25 9.375
		vertex 6.25 13.75 9.375
		vertex 7.5 12.5 7.5
	endloop
endfacet
facet normal 0 -0.832050294 0.554700196
	outer loop
		vertex 5 10 7.5
		vertex 7.5 10 7.5
		vertex 6.25 11.25 9.375
	endloop
endfacet
facet normal 0.832050294 -0 0.554700196
	outer loop
		vertex 7.5 10 7.5
		vertex 7.5 12.5 7.5
		vertex 6.25 11.25 9.375
	endloop
endfacet
facet normal 0 0.832050294 0.554700196
	outer loop
		vertex 7.5 12.5 7.5
		vertex 5 12.5 7.5
		vertex 6.25 11.25 9.375
	endloop
endfacet
facet normal -0.832050294 0 0.554700196
	outer loop
		vertex 5 12.5 7.5
		vertex 5 10 7.5
		vertex 6.25 11.25 9.375
	endloop
endfacet
facet normal 0 -0.832050294 0.554700196
	outer loop
		vertex 7.5 10 7.5
		vertex 10 10 7.5
		vertex 8.75 11.25 9.375
	endloop
endfacet
facet normal 0.832050294 -0 0.554700196
	outer loop
		vertex 10 10 7.5
		vertex 10 12.5 7.5
		vertex 8.75 11.25 9.375
	endloop
endfacet
facet normal 0 0.832050294 0.554700196
	outer loop
		vertex 10 12.5 7.5
		vertex 7.5 12.5 7.5
		vertex 8.75 11.25 9.375
	endloop
endfacet
facet normal -0.832050294 0 0.554700196
	outer loop
		vertex 7.5 12.5 7.5
		vertex 7.5 10 7.5
		vertex 8.75 11.25 9.375
	endloop
endfacet
facet normal 0 -0.832050294 0.554700196
	outer loop
		vertex 5 12.5 7.5
		vertex 7.5 12.5 7.5
		vertex 6.25 13.75 9.375
	endloop
endfacet
facet normal 0.832050294 -0 0.554700196
	outer loop
		vertex 7.5 12.5 7.5
		vertex 7.5 15 7.5
		vertex 6.25 13.75 9.375
	endloop
endfacet
facet normal 0 0.832050294 0.554700196
	outer loop
		vertex 7.5 15 7.5
		vertex 5 15 7.5
		vertex 6.25 13.75 9.375
	endloop
endfacet
facet normal -0.832050294 0 0.554700196
	outer loop
		vertex 5 15 7.5
		vertex 5 12.5 7.5
		vertex 6.25 13.75 9.375
	endloop
endfacet
facet normal 0 -0.832050294 0.554700196
	outer loop
		vertex 7.5 12.5 7.5
		vertex 10 12.5 7.5
		vertex 8.75 13.75 9.375
	endloop
endfacet
facet normal 0.832050294 -0 0.554700196
	outer loop
		vertex 10 12.5 7.5
		vertex 10 15 7.5
		vertex 8.75 13.75 9.375
	endloop
endfacet
facet normal 0 0.832050294 0.554700196
	outer loop
		vertex 10 15 7.5
		vertex 7.5 15 7.5
		vertex 8.75 13.75 9.375
	endloop
endfacet
facet normal -0.832050294 0 0.554700196
	outer loop
		vertex 7.5 15 7.5
		vertex 7.5 12.5 7.5
		vertex 8.75 13.75 9.375
	endloop
endfacet
facet normal 0 -0.832050294 0.554700196
	outer loop
		vertex 6.25 11.25 9.375
		vertex 8.75 11.25 9.375
		vertex 7.5 12.5 11.25
	endloop
endfacet
facet normal 0.832050294 -0 0.554700196
	outer loop
		vertex 8.75 11.25 9.375
		vertex 8.75 13.75 9.375
		vertex 7.5 12.5 11.25
	endloop
endfacet
facet normal 0 0.832050294 0.554700196
	outer loop
		vertex 8.75 13.75 9.375
		vertex 6.25 13.75 9.375
		vertex 7.5 12.5 11.25
	endloop
endfacet
facet normal -0.832050294 0 0.554700196
	outer loop
		vertex 6.25 13.75 9.375
		vertex 6.25 11.25 9.375
		vertex 7.5 12.5 11.25
	endloop
endfacet
facet normal -0 -0.832050294 -0.554700196
	outer loop
		vertex 13.75 11.25 9.375
		vertex 11.25 11.25 9.375
		vertex 12.5 12.5 7.5
	endloop
endfacet
facet normal 0.832050294 0 -0.554700196
	outer loop
		vertex 13.75 13.75 9.375
		vertex 13.75 11.25 9.375
		vertex 12.5 12.5 7.5
	endloop
endfacet
facet normal 0 0.832050294 -0.554700196
	outer loop
		vertex 11.25 13.75 9.375
		vertex 13.75 13.75 9.375
		vertex 12.5 12.5 7.5
	endloop
endfacet
facet normal -0.832050294 0 -0.554700196
	outer loop
		vertex 11.25 11.25 9.375
		vertex 11.25 13.75 9.375
		vertex 12.5 12.5 7.5
	endloop
endfacet
facet normal 0 -0.832050294 0.554700196
	outer loop
		vertex 10 10 7.5
		vertex 12.5 10 7.5
		vertex 11.25 11.25 9.375
	endloop
endfacet
facet normal 0.832050294 -0 0.554700196
	outer loop
		vertex 12.5 10 7.5
		vertex 12.5 12.5 7.5
		vertex 11.25 11.25 9.375
	endloop
endfacet
facet normal 0 0.832050294 0.554700196
	outer loop
		vertex 12.5 12.5 7.5
		vertex 10 12.5 7.5
		vertex 11.25 11.25 9.375
	endloop
endfacet
facet normal -0.832050294 0 0.554700196
	outer loop
		vertex 10 12.5 7.5
		vertex 10 10 7.5
		vertex 11.25 11.25 9.375
	endloop
endfacet
facet normal 0 -0.832050294 0.554700196
	outer loop
		vertex 12.5 10 7.5
		vertex 15 10 7.5
		vertex 13.75 11.25 9.375
	endloop
endfacet
facet normal 0.832050294 -0 0.554700196
	outer loop
		vertex 15 10 7.5
		vertex 15 12.5 7.5
		vertex 13.75 11.25 9.375
	endloop
endfacet
facet normal 0 0.832050294 0.554700196
	outer loop
		vertex 15 12.5 7.5
		vertex 12.5 12.5 7.5
		vertex 13.75 11.25 9.375
	endloop
endfacet
facet normal -0.832050294 0 0.554700196
	outer loop
		vertex 12.5 12.5 7.5
		vertex 12.5 10 7.5
		vertex 13.75 11.25 9.375
	endloop
endfacet
facet normal 0 -0.832050294 0.554700196
	outer loop
		vertex 10 12.5 7.5
		vertex 12.5 12.5 7.5
		vertex 11.25 13.75 9.375
	endloop
endfacet
facet normal 0.832050294 -0 0.554700196
	outer loop
		vertex 12.5 12.5 7.5
		vertex 12.5 15 7.5
		vertex 11.25 13.75 9.375
	endloop
endfacet
facet normal 0 0.832050294 0.554700196
	outer loop
		vertex 12.5 15 7.5
		vertex 10 15 7.5
		vertex 11.25 13.75 9.375
	endloop
endfacet
facet normal -0.832050294 0 0.554700196
	outer loop
		vertex 10 15 7.5
		vertex 10 12.5 7.5
		vertex 11.25 13.75 9.375
	endloop
endfacet
facet normal 0 -0.832050294 0.554700196
	outer loop
		vertex 12.5 12.5 7.5
		vertex 15 12.5 7.5
		vertex 13.75 13.75 9.375
	endloop
endfacet
facet normal 0.832050294 -0 0.554700196
	outer loop
		vertex 15 12.5 7.5
		vertex 15 15 7.5
		vertex 13.75 13.75 9.375
	endloop
endfacet
facet normal 0 0.832050294 0.554700196
	outer loop
		vertex 15 15 7.5
		vertex 12.5 15 7.5
		vertex 13.75 13.75 9.375
	endloop
endfacet
facet normal -0.832050294 0 0.554700196
	outer loop
		vertex 12.5 15 7.5
		vertex 12.5 12.5 7.5
		vertex 13.75 13.75 9.375
	endloop
endfacet
facet normal 0 -0.832050294 0.554700196
	outer loop
		vertex 11.25 11.25 9.375
		vertex 13.75 11.25 9.375
		vertex 12.5 12.5 11.25
	endloop
endfacet
facet normal 0.832050294 -0 0.554700196
	outer loop
		vertex 13.75 11.25 9.375
		vertex 13.75 13.75 9.375
		vertex 12.5 12.5 11.25
	endloop
endfacet
facet normal 0 0.832050294 0.554700196
	outer loop
		vertex 13.75 13.75 9.375
		vertex 11.25 13.75 9.375
		vertex 12.5 12.5 11.25
	endloop
endfacet
facet normal -0.832050294 0 0.554700196
	outer loop
		vertex 11.25 13.75 9.375
		vertex 11.25 11.25 9.375
		vertex 12.5 12.5 11.25
	endloop
endfacet
facet normal -0 -0.832050294 -0.554700196
	outer loop
		vertex 11.25 8.75 13.125
		vertex 8.75 8.75 13.125
		vertex 10 10 11.25
	endloop
endfacet
facet normal 0.832050294 0 -0.554700196
	outer loop
		vertex 11.25 11.25 13.125
		vertex 11.25 8.75 13.125
		vertex 10 10 11.25
	endloop
endfacet
facet normal 0 0.832050294 -0.554700196
	outer loop
		vertex 8.75 11.25 13.125
		vertex 11.25 11.25 13.125
		vertex 10 10 11.25
	endloop
endfacet
facet normal -0.832050294 0 -0.554700196
	outer loop
		vertex 8.75 8.75 13.125
		vertex 8.75 11.25 13.125
		vertex 10 10 11.25
	endloop
endfacet
facet normal 0 -0.832050294 0.554700196
	outer loop
		vertex 7.5 7.5 11.25
		vertex 10 7.5 11.25
		vertex 8.75 8.75 13.125
	endloop
endfacet
facet normal 0.832050294 -0 0.554700196
	outer loop
		vertex 10 7.5 11.25
		vertex 10 10 11.25
		vertex 8.75 8.75 13.125
	endloop
endfacet
facet normal 0 0.832050294 0.554700196
	outer loop
		vertex 10 10 11.25
		vertex 7.5 10 11.25
		vertex 8.75 8.75 13.125
	endloop
endfacet
facet normal -0.832050294 0 0.554700196
	outer loop
		vertex 7.5 10 11.25
		vertex 7.5 7.5 11.25
		vertex 8.75 8.75 13.125
	endloop
endfacet
facet normal 0 -0.832050294 0.554700196
	outer loop
		vertex 10 7.5 11.25
		vertex 12.5 7.5 11.25
		vertex 11.25 8.75 13.125
	endloop
endfacet
facet normal 0.832050294 -0 0.554700196
	outer loop
		vertex 12.5 7.5 11.25
		vertex 12.5 10 11.25
		vertex 11.25 8.75 13.125
	endloop
endfacet
facet normal 0 0.832050294 0.554700196
	outer loop
		vertex 12.5 10 11.25
		vertex 10 10 11.25
		vertex 11.25 8.75 13.125
	endloop
endfacet
facet normal -0.832050294 0 0.554700196
	outer loop
		vertex 10 10 11.25
		vertex 10 7.5 11.25
		vertex 11.25 8.75 13.125
	endloop
endfacet
facet normal 0 -0.832050294 0.554700196
	outer loop
		vertex 7.5 10 11.25
		vertex 10 10 11.25
		vertex 8.75 11.25 13.125
	endloop
endfacet
facet normal 0.832050294 -0 0.554700196
	outer loop
		vertex 10 10 11.25
		vertex 10 12.5 11.25
		vertex 8.75 11.25 13.125
	endloop
endfacet
facet normal 0 0.832050294 0.554700196
	outer loop
		vertex 10 12.5 11.25
		vertex 7.5 12.5 11.25
		vertex 8.75 11.25 13.125
	endloop
endfacet
facet normal -0.832050294 0 0.554700196
	outer loop
		vertex 7.5 12.5 11.25
		vertex 7.5 10 11.25
		vertex 8.75 11.25 13.125
	endloop
endfacet
facet normal 0 -0.832050294 0.554700196
	outer loop
		vertex 10 10 11.25
		vertex 12.5 10 11.25
		vertex 11.25 11.25 13.125
	endloop
endfacet
facet normal 0.832050294 -0 0.554700196
	outer loop
		vertex 12.5 10 11.25
		vertex 12.5 12.5 11.25
		vertex 11.25 11.25 13.125
	endloop
endfacet
facet normal 0 0.832050294 0.554700196
	outer loop
		vertex 12.5 12.5 11.25
		vertex 10 12.5 11.25
		vertex 11.25 11.25 13.125
	endloop
endfacet
facet normal -0.832050294 0 0.554700196
	outer loop
		vertex 10 12.5 11.25
		vertex 10 10 11.25
		vertex 11.25 11.25 13.125
	endloop
endfacet
facet normal 0 -0.832050294 0.554700196
	outer loop
		vertex 8.75 8.75 13.125
		vertex 11.25 8.75 13.125
		vertex 10 10 15
	endloop
endfacet
facet normal 0.832050294 -0 0.554700196
	outer loop
		vertex 11.25 8.75 13.125
		vertex 11.25 11.25 13.125
		vertex 10 10 15
	endloop
endfacet
facet normal 0 0.832050294 0.554700196
	outer loop
		vertex 11.25 11.25 13.125
		vertex 8.75 11.25 13.125
		vertex 10 10 15
	endloop
endfacet
facet normal -0.832050294 0 0.554700196
	outer loop
		vertex 8.75 11.25 13.125
		vertex 8.75 8.75 13.125
		vertex 10 10 15
	endloop
endfacet
facet normal 0 -0.832050294 0.554700196
	outer loop
		vertex -1.25 -1.25 -1.875
		vertex 21.25 -1.25 -1.875
		vertex 0 0 0
	endloop
endfacet
facet normal 0 -0.832050294 0.554700196
	outer loop
		vertex 21.25 -1.25 -1.875
		vertex 20 0 0
		vertex 0 0 0
	endloop
endfacet
facet normal 0.832050294 -0 0.554700196
	outer loop
		vertex 21.25 -1.25 -1.875
		vertex 21.25 21.25 -1.875
		vertex 20 0 0
	endloop
endfacet
facet normal 0.832050294 0 0.554700196
	outer loop
		vertex 21.25 21.25 -1.875
		vertex 20 20 0
		vertex 20 0 0
	endloop
endfacet
facet normal 0 0.832050294 0.554700196
	outer loop
		vertex 21.25 21.25 -1.875
		vertex -1.25 21.25 -1.875
		vertex 20 20 0
	endloop
endfacet
facet normal -0 0.832050294 0.554700196
	outer loop
		vertex -1.25 21.25 -1.875
		vertex 0 20 0
		vertex 20 20 0
	endloop
endfacet
facet normal -0.832050294 0 0.554700196
	outer loop
		vertex -1.25 21.25 -1.875
		vertex -1.25 -1.25 -1.875
		vertex 0 20 0
	endloop
endfacet
facet normal -0.832050294 0 0.554700196
	outer loop
		vertex -1.25 -1.25 -1.875
		vertex 0 0 0
		vertex 0 20 0
	endloop
endfacet
facet normal -0 -0 -1
	outer loop
		vertex 21.25 21.25 -1.875
		vertex 21.25 -1.25 -1.875
		vertex -1.25 -1.25 -1.875
	endloop
endfacet
facet normal 0 -0 -1
	outer loop
		vertex -1.25 21.25 -1.875
		vertex 21.25 21.25 -1.875
		vertex -1.25 -1.25 -1.875
	endloop
endfacet
endsolid sierpinski
