solid OpenSCAD_Model
  facet normal 0 0 -1
    outer loop
      vertex 10 10 0
      vertex 10 -10 0
      vertex -10 10 0
    endloop
  endfacet
  facet normal 0 0 -1
    outer loop
      vertex -10 10 0
      vertex 10 -10 0
      vertex -10 -10 0
    endloop
  endfacet
  facet normal -0.707107 0 0.707107
    outer loop
      vertex -10 -10 0
      vertex -7 -7 3
      vertex -10 10 0
    endloop
  endfacet
  facet normal -0.707107 0 0.707107
    outer loop
      vertex -10 10 0
      vertex -7 -7 3
      vertex -7 0 3
    endloop
  endfacet
  facet normal -0.707107 0 0.707107
    outer loop
      vertex -10 10 0
      vertex -7 0 3
      vertex -7 7 3
    endloop
  endfacet
  facet normal 0 -0.707107 0.707107
    outer loop
      vertex -6.5 -8.70732 1.29268
      vertex -10 -10 0
      vertex 10 -10 0
    endloop
  endfacet
  facet normal 0 -0.707107 0.707107
    outer loop
      vertex -6.5 -8.70732 1.29268
      vertex -6.5 -7 3
      vertex -7 -7 3
    endloop
  endfacet
  facet normal 0 -0.707107 0.707107
    outer loop
      vertex 7 -7 3
      vertex 6.5 -7 3
      vertex 10 -10 0
    endloop
  endfacet
  facet normal 0 -0.707107 0.707107
    outer loop
      vertex 6.5 -7 3
      vertex 6.5 -8.70732 1.29268
      vertex 10 -10 0
    endloop
  endfacet
  facet normal 0 -0.707107 0.707107
    outer loop
      vertex -7 -7 3
      vertex -10 -10 0
      vertex -6.5 -8.70732 1.29268
    endloop
  endfacet
  facet normal 0 -0.707107 0.707107
    outer loop
      vertex 6.5 -8.70732 1.29268
      vertex -6.5 -8.70732 1.29268
      vertex 10 -10 0
    endloop
  endfacet
  facet normal 0 0.707107 0.707107
    outer loop
      vertex 6.5 8.70732 1.29268
      vertex 10 10 0
      vertex -6.5 8.70732 1.29268
    endloop
  endfacet
  facet normal 0 0.707107 0.707107
    outer loop
      vertex -10 10 0
      vertex -7 7 3
      vertex -6.5 8.70732 1.29268
    endloop
  endfacet
  facet normal 0 0.707107 0.707107
    outer loop
      vertex -10 10 0
      vertex -6.5 8.70732 1.29268
      vertex 10 10 0
    endloop
  endfacet
  facet normal 0 0.707107 0.707107
    outer loop
      vertex 10 10 0
      vertex 6.5 8.70732 1.29268
      vertex 6.5 7 3
    endloop
  endfacet
  facet normal 0 0.707107 0.707107
    outer loop
      vertex 10 10 0
      vertex 6.5 7 3
      vertex 7 7 3
    endloop
  endfacet
  facet normal 0 0.707107 0.707107
    outer loop
      vertex -6.5 8.70732 1.29268
      vertex -7 7 3
      vertex -6.5 7 3
    endloop
  endfacet
  facet normal 0.707107 0 0.707107
    outer loop
      vertex 7 0 3
      vertex 7 -7 3
      vertex 10 -10 0
    endloop
  endfacet
  facet normal 0.707107 0 0.707107
    outer loop
      vertex 7 7 3
      vertex 7 0 3
      vertex 10 10 0
    endloop
  endfacet
  facet normal 0.707107 0 0.707107
    outer loop
      vertex 10 10 0
      vertex 7 0 3
      vertex 10 -10 0
    endloop
  endfacet
  facet normal 0 0 1
    outer loop
      vertex -6.71645 1.97213 3
      vertex -6.5 2.44609 3
      vertex -6.5 7 3
    endloop
  endfacet
  facet normal 0 0 1
    outer loop
      vertex -7 0 3
      vertex -6.71645 1.97213 3
      vertex -7 7 3
    endloop
  endfacet
  facet normal 0 0 1
    outer loop
      vertex -7 7 3
      vertex -6.71645 1.97213 3
      vertex -6.5 7 3
    endloop
  endfacet
  facet normal 0 0 1
    outer loop
      vertex -6.5 -7 3
      vertex -6.5 -2.44609 3
      vertex -6.71645 -1.97213 3
    endloop
  endfacet
  facet normal 0 0 1
    outer loop
      vertex -7 0 3
      vertex -6.5 -7 3
      vertex -6.71645 -1.97213 3
    endloop
  endfacet
  facet normal 0 0 1
    outer loop
      vertex -7 0 3
      vertex -7 -7 3
      vertex -6.5 -7 3
    endloop
  endfacet
  facet normal 0 0 1
    outer loop
      vertex 6.5 -8.5 3
      vertex -6.5 -2.44609 3
      vertex -6.5 -7 3
    endloop
  endfacet
  facet normal 0 0 1
    outer loop
      vertex 6.5 -2.44609 3
      vertex 6.71645 -1.97213 3
      vertex -6.71645 -1.97213 3
    endloop
  endfacet
  facet normal 0 0 1
    outer loop
      vertex -6.71645 -1.97213 3
      vertex -6.5 -2.44609 3
      vertex 6.5 -8.5 3
    endloop
  endfacet
  facet normal 0 0 1
    outer loop
      vertex -6.5 -8.5 3
      vertex 6.5 -8.5 3
      vertex -6.5 -7 3
    endloop
  endfacet
  facet normal 0 0 1
    outer loop
      vertex 6.5 -8.5 3
      vertex 6.5 -7 3
      vertex -6.71645 -1.97213 3
    endloop
  endfacet
  facet normal 0 0 1
    outer loop
      vertex 6.5 -7 3
      vertex 6.5 -2.44609 3
      vertex -6.71645 -1.97213 3
    endloop
  endfacet
  facet normal 0 0 1
    outer loop
      vertex 6.5 2.44609 3
      vertex 6.5 7 3
      vertex -6.71645 -1.97213 3
    endloop
  endfacet
  facet normal 0 0 1
    outer loop
      vertex 6.71645 -1.97213 3
      vertex 7 0 3
      vertex -6.71645 -1.97213 3
    endloop
  endfacet
  facet normal 0 0 1
    outer loop
      vertex 7 0 3
      vertex 6.71645 1.97213 3
      vertex -6.71645 -1.97213 3
    endloop
  endfacet
  facet normal 0 0 1
    outer loop
      vertex 6.71645 1.97213 3
      vertex 6.5 2.44609 3
      vertex -6.71645 -1.97213 3
    endloop
  endfacet
  facet normal 0 0 1
    outer loop
      vertex -6.71645 1.97213 3
      vertex -7 0 3
      vertex -6.71645 -1.97213 3
    endloop
  endfacet
  facet normal 0 0 1
    outer loop
      vertex 6.5 7 3
      vertex 6.5 8.5 3
      vertex -6.71645 -1.97213 3
    endloop
  endfacet
  facet normal 0 0 1
    outer loop
      vertex 6.5 8.5 3
      vertex -6.5 8.5 3
      vertex -6.5 7 3
    endloop
  endfacet
  facet normal 0 0 1
    outer loop
      vertex 6.5 8.5 3
      vertex -6.5 2.44609 3
      vertex -6.71645 -1.97213 3
    endloop
  endfacet
  facet normal 0 0 1
    outer loop
      vertex 6.5 8.5 3
      vertex -6.5 7 3
      vertex -6.5 2.44609 3
    endloop
  endfacet
  facet normal 0 0 1
    outer loop
      vertex -6.5 2.44609 3
      vertex -6.71645 1.97213 3
      vertex -6.71645 -1.97213 3
    endloop
  endfacet
  facet normal -1 0 0
    outer loop
      vertex -6.5 -8.5 5
      vertex -6.5 -8.5 3
      vertex -6.5 -10.5 5
    endloop
  endfacet
  facet normal -1 0 0
    outer loop
      vertex -6.5 -8.70732 1.29268
      vertex -6.5 -8.5 3
      vertex -6.5 -7 3
    endloop
  endfacet
  facet normal -1 0 0
    outer loop
      vertex -6.5 -10.5 5
      vertex -6.5 -8.5 3
      vertex -6.5 -8.70732 1.29268
    endloop
  endfacet
  facet normal -1 0 0
    outer loop
      vertex -6.5 -10.5 5
      vertex -6.5 -8.70732 1.29268
      vertex -6.5 -10.5 3
    endloop
  endfacet
  facet normal 0 -0.689655 -0.724138
    outer loop
      vertex 6.5 -8.70732 1.29268
      vertex 6.5 -10.5 3
      vertex -6.5 -8.70732 1.29268
    endloop
  endfacet
  facet normal 0 -0.689655 -0.724138
    outer loop
      vertex -6.5 -8.70732 1.29268
      vertex 6.5 -10.5 3
      vertex -6.5 -10.5 3
    endloop
  endfacet
  facet normal 1 0 0
    outer loop
      vertex 6.5 -8.70732 1.29268
      vertex 6.5 -7 3
      vertex 6.5 -8.5 3
    endloop
  endfacet
  facet normal 1 0 0
    outer loop
      vertex 6.5 -8.5 5
      vertex 6.5 -8.70732 1.29268
      vertex 6.5 -8.5 3
    endloop
  endfacet
  facet normal 1 0 0
    outer loop
      vertex 6.5 -8.5 5
      vertex 6.5 -10.5 5
      vertex 6.5 -8.70732 1.29268
    endloop
  endfacet
  facet normal 1 0 0
    outer loop
      vertex 6.5 -10.5 5
      vertex 6.5 -10.5 3
      vertex 6.5 -8.70732 1.29268
    endloop
  endfacet
  facet normal 0 0 1
    outer loop
      vertex 7 -7 3
      vertex 7 0 3
      vertex 6.71645 -1.97213 3
    endloop
  endfacet
  facet normal 0 0 1
    outer loop
      vertex 6.5 -2.44609 3
      vertex 7 -7 3
      vertex 6.71645 -1.97213 3
    endloop
  endfacet
  facet normal 0 0 1
    outer loop
      vertex 6.5 -2.44609 3
      vertex 6.5 -7 3
      vertex 7 -7 3
    endloop
  endfacet
  facet normal 0 0 1
    outer loop
      vertex 6.71645 1.97213 3
      vertex 7 0 3
      vertex 7 7 3
    endloop
  endfacet
  facet normal 0 0 1
    outer loop
      vertex 6.5 2.44609 3
      vertex 6.71645 1.97213 3
      vertex 6.5 7 3
    endloop
  endfacet
  facet normal 0 0 1
    outer loop
      vertex 6.5 7 3
      vertex 6.71645 1.97213 3
      vertex 7 7 3
    endloop
  endfacet
  facet normal 1 0 0
    outer loop
      vertex 6.5 8.70732 1.29268
      vertex 6.5 10.5 3
      vertex 6.5 10.5 5
    endloop
  endfacet
  facet normal 1 0 0
    outer loop
      vertex 6.5 8.5 3
      vertex 6.5 8.70732 1.29268
      vertex 6.5 8.5 5
    endloop
  endfacet
  facet normal 1 0 0
    outer loop
      vertex 6.5 8.5 5
      vertex 6.5 8.70732 1.29268
      vertex 6.5 10.5 5
    endloop
  endfacet
  facet normal 1 0 0
    outer loop
      vertex 6.5 7 3
      vertex 6.5 8.70732 1.29268
      vertex 6.5 8.5 3
    endloop
  endfacet
  facet normal 0 0.689655 -0.724138
    outer loop
      vertex 6.5 10.5 3
      vertex 6.5 8.70732 1.29268
      vertex -6.5 10.5 3
    endloop
  endfacet
  facet normal 0 0.689655 -0.724138
    outer loop
      vertex -6.5 10.5 3
      vertex 6.5 8.70732 1.29268
      vertex -6.5 8.70732 1.29268
    endloop
  endfacet
  facet normal -1 0 0
    outer loop
      vertex -6.5 8.5 5
      vertex -6.5 10.5 5
      vertex -6.5 8.5 3
    endloop
  endfacet
  facet normal -1 0 0
    outer loop
      vertex -6.5 8.5 3
      vertex -6.5 10.5 5
      vertex -6.5 10.5 3
    endloop
  endfacet
  facet normal -1 0 0
    outer loop
      vertex -6.5 8.5 3
      vertex -6.5 10.5 3
      vertex -6.5 8.70732 1.29268
    endloop
  endfacet
  facet normal -1 0 0
    outer loop
      vertex -6.5 8.5 3
      vertex -6.5 8.70732 1.29268
      vertex -6.5 7 3
    endloop
  endfacet
  facet normal 0 -1 0
    outer loop
      vertex -6.5 8.5 5
      vertex -6.5 8.5 3
      vertex 6.5 8.5 3
    endloop
  endfacet
  facet normal 0 -1 0
    outer loop
      vertex 6.5 8.5 5
      vertex -6.5 8.5 5
      vertex 6.5 8.5 3
    endloop
  endfacet
  facet normal 0 1 0
    outer loop
      vertex -6.5 -8.5 3
      vertex -6.5 -8.5 5
      vertex 6.5 -8.5 3
    endloop
  endfacet
  facet normal 0 1 0
    outer loop
      vertex 6.5 -8.5 3
      vertex -6.5 -8.5 5
      vertex 6.5 -8.5 5
    endloop
  endfacet
  facet normal 0 0 1
    outer loop
      vertex -6.5 -8.5 5
      vertex -6.5 -10.5 5
      vertex 6.5 -10.5 5
    endloop
  endfacet
  facet normal 0 0 1
    outer loop
      vertex 6.5 -8.5 5
      vertex -6.5 -8.5 5
      vertex 6.5 -10.5 5
    endloop
  endfacet
  facet normal 0 -1 0
    outer loop
      vertex -6.5 -10.5 5
      vertex -6.5 -10.5 3
      vertex 6.5 -10.5 3
    endloop
  endfacet
  facet normal 0 -1 0
    outer loop
      vertex 6.5 -10.5 5
      vertex -6.5 -10.5 5
      vertex 6.5 -10.5 3
    endloop
  endfacet
  facet normal 0 0 1
    outer loop
      vertex -6.5 10.5 5
      vertex -6.5 8.5 5
      vertex 6.5 8.5 5
    endloop
  endfacet
  facet normal 0 0 1
    outer loop
      vertex 6.5 10.5 5
      vertex -6.5 10.5 5
      vertex 6.5 8.5 5
    endloop
  endfacet
  facet normal 0 1 0
    outer loop
      vertex -6.5 10.5 3
      vertex -6.5 10.5 5
      vertex 6.5 10.5 3
    endloop
  endfacet
  facet normal 0 1 0
    outer loop
      vertex 6.5 10.5 3
      vertex -6.5 10.5 5
      vertex 6.5 10.5 5
    endloop
  endfacet
endsolid OpenSCAD_Model
