solid OpenSCAD_Model
  facet normal 1 0 0
    outer loop
      vertex 6.5 -8.5 7
      vertex 6.5 -10.5 7
      vertex 6.5 -8.5 5
    endloop
  endfacet
  facet normal 1 0 0
    outer loop
      vertex 6.5 -2.44609 5
      vertex 6.5 -6.5 3.5
      vertex 6.5 -2.44609 3.5
    endloop
  endfacet
  facet normal 1 -0 0
    outer loop
      vertex 6.5 -8.5 5
      vertex 6.5 -6.5 3.5
      vertex 6.5 -2.44609 5
    endloop
  endfacet
  facet normal 1 0 0
    outer loop
      vertex 6.5 -8.5 5
      vertex 6.5 -7.68293 2.31707
      vertex 6.5 -6.5 3.5
    endloop
  endfacet
  facet normal 1 0 0
    outer loop
      vertex 6.5 -10.5 5
      vertex 6.5 -8.5 5
      vertex 6.5 -10.5 7
    endloop
  endfacet
  facet normal 1 0 0
    outer loop
      vertex 6.5 -8.5 5
      vertex 6.5 -10.5 5
      vertex 6.5 -7.68293 2.31707
    endloop
  endfacet
  facet normal 1 -0 0
    outer loop
      vertex 6.5 8.5 7
      vertex 6.5 10.5 5
      vertex 6.5 10.5 7
    endloop
  endfacet
  facet normal 1 0 0
    outer loop
      vertex 6.5 8.5 5
      vertex 6.5 10.5 5
      vertex 6.5 8.5 7
    endloop
  endfacet
  facet normal 1 -0 0
    outer loop
      vertex 6.5 8.5 5
      vertex 6.5 7.68293 2.31707
      vertex 6.5 10.5 5
    endloop
  endfacet
  facet normal 1 0 0
    outer loop
      vertex 6.5 8.5 5
      vertex 6.5 6.5 3.5
      vertex 6.5 7.68293 2.31707
    endloop
  endfacet
  facet normal 1 -0 0
    outer loop
      vertex 6.5 2.44609 5
      vertex 6.5 6.5 3.5
      vertex 6.5 8.5 5
    endloop
  endfacet
  facet normal 1 0 0
    outer loop
      vertex 6.5 6.5 3.5
      vertex 6.5 2.44609 5
      vertex 6.5 2.44609 3.5
    endloop
  endfacet
  facet normal -1 0 0
    outer loop
      vertex -6.5 -6.5 3.5
      vertex -6.5 -2.44609 5
      vertex -6.5 -2.44609 3.5
    endloop
  endfacet
  facet normal -1 0 0
    outer loop
      vertex -6.5 -6.5 3.5
      vertex -6.5 -8.5 5
      vertex -6.5 -2.44609 5
    endloop
  endfacet
  facet normal -1 0 0
    outer loop
      vertex -6.5 -7.68293 2.31707
      vertex -6.5 -8.5 5
      vertex -6.5 -6.5 3.5
    endloop
  endfacet
  facet normal -1 0 0
    outer loop
      vertex -6.5 -10.5 5
      vertex -6.5 -8.5 5
      vertex -6.5 -7.68293 2.31707
    endloop
  endfacet
  facet normal -1 0 0
    outer loop
      vertex -6.5 -10.5 5
      vertex -6.5 -8.5 7
      vertex -6.5 -8.5 5
    endloop
  endfacet
  facet normal -1 -0 0
    outer loop
      vertex -6.5 -8.5 7
      vertex -6.5 -10.5 5
      vertex -6.5 -10.5 7
    endloop
  endfacet
  facet normal -1 0 0
    outer loop
      vertex -6.5 10.5 5
      vertex -6.5 8.5 5
      vertex -6.5 10.5 7
    endloop
  endfacet
  facet normal -1 0 0
    outer loop
      vertex -6.5 7.68293 2.31707
      vertex -6.5 8.5 5
      vertex -6.5 10.5 5
    endloop
  endfacet
  facet normal -1 0 0
    outer loop
      vertex -6.5 6.5 3.5
      vertex -6.5 8.5 5
      vertex -6.5 7.68293 2.31707
    endloop
  endfacet
  facet normal -1 0 0
    outer loop
      vertex -6.5 2.44609 5
      vertex -6.5 6.5 3.5
      vertex -6.5 2.44609 3.5
    endloop
  endfacet
  facet normal -1 0 0
    outer loop
      vertex -6.5 6.5 3.5
      vertex -6.5 2.44609 5
      vertex -6.5 8.5 5
    endloop
  endfacet
  facet normal -1 -0 0
    outer loop
      vertex -6.5 10.5 7
      vertex -6.5 8.5 5
      vertex -6.5 8.5 7
    endloop
  endfacet
  facet normal 0 -0.689655 -0.724138
    outer loop
      vertex -6.5 -10.5 5
      vertex 6.5 -7.68293 2.31707
      vertex 6.5 -10.5 5
    endloop
  endfacet
  facet normal -0 -0.689655 -0.724138
    outer loop
      vertex 6.5 -7.68293 2.31707
      vertex -6.5 -10.5 5
      vertex -6.5 -7.68293 2.31707
    endloop
  endfacet
  facet normal 0 0.689655 -0.724138
    outer loop
      vertex -6.5 7.68293 2.31707
      vertex 6.5 10.5 5
      vertex 6.5 7.68293 2.31707
    endloop
  endfacet
  facet normal 0 0.689655 -0.724138
    outer loop
      vertex 6.5 10.5 5
      vertex -6.5 7.68293 2.31707
      vertex -6.5 10.5 5
    endloop
  endfacet
  facet normal 0 0 1
    outer loop
      vertex -7 0 5
      vertex -6.5 2.44609 5
      vertex -6.71645 1.97213 5
    endloop
  endfacet
  facet normal 0 0 1
    outer loop
      vertex -6.5 2.44609 5
      vertex -7 0 5
      vertex -6.5 -2.44609 5
    endloop
  endfacet
  facet normal 0 0 1
    outer loop
      vertex -6.5 -2.44609 5
      vertex -7 0 5
      vertex -6.71645 -1.97213 5
    endloop
  endfacet
  facet normal 0 0 1
    outer loop
      vertex -6.5 2.44609 5
      vertex 6.5 2.44609 5
      vertex 6.5 8.5 5
    endloop
  endfacet
  facet normal 0 0 1
    outer loop
      vertex 6.5 2.44609 5
      vertex -6.5 2.44609 5
      vertex 6.5 -2.44609 5
    endloop
  endfacet
  facet normal 0 0 1
    outer loop
      vertex -6.5 2.44609 5
      vertex 6.5 8.5 5
      vertex -6.5 8.5 5
    endloop
  endfacet
  facet normal 0 0 1
    outer loop
      vertex -6.5 -2.44609 5
      vertex 6.5 -2.44609 5
      vertex -6.5 2.44609 5
    endloop
  endfacet
  facet normal 0 0 1
    outer loop
      vertex 6.5 -2.44609 5
      vertex -6.5 -2.44609 5
      vertex 6.5 -8.5 5
    endloop
  endfacet
  facet normal 0 0 1
    outer loop
      vertex 6.5 -8.5 5
      vertex -6.5 -2.44609 5
      vertex -6.5 -8.5 5
    endloop
  endfacet
  facet normal 0 0 1
    outer loop
      vertex 6.5 2.44609 5
      vertex 7 0 5
      vertex 6.71645 1.97213 5
    endloop
  endfacet
  facet normal 0 0 1
    outer loop
      vertex 6.5 -2.44609 5
      vertex 7 0 5
      vertex 6.5 2.44609 5
    endloop
  endfacet
  facet normal 0 0 1
    outer loop
      vertex 7 0 5
      vertex 6.5 -2.44609 5
      vertex 6.71645 -1.97213 5
    endloop
  endfacet
  facet normal -0 0 1
    outer loop
      vertex -6.5 10.5 7
      vertex 6.5 8.5 7
      vertex 6.5 10.5 7
    endloop
  endfacet
  facet normal 0 0 1
    outer loop
      vertex 6.5 8.5 7
      vertex -6.5 10.5 7
      vertex -6.5 8.5 7
    endloop
  endfacet
  facet normal 0 -1 0
    outer loop
      vertex -6.5 8.5 5
      vertex 6.5 8.5 7
      vertex -6.5 8.5 7
    endloop
  endfacet
  facet normal 0 -1 -0
    outer loop
      vertex 6.5 8.5 7
      vertex -6.5 8.5 5
      vertex 6.5 8.5 5
    endloop
  endfacet
  facet normal 0 1 -0
    outer loop
      vertex 6.5 10.5 5
      vertex -6.5 10.5 7
      vertex 6.5 10.5 7
    endloop
  endfacet
  facet normal 0 1 0
    outer loop
      vertex -6.5 10.5 7
      vertex 6.5 10.5 5
      vertex -6.5 10.5 5
    endloop
  endfacet
  facet normal -0 0 1
    outer loop
      vertex -6.5 -8.5 7
      vertex 6.5 -10.5 7
      vertex 6.5 -8.5 7
    endloop
  endfacet
  facet normal 0 0 1
    outer loop
      vertex 6.5 -10.5 7
      vertex -6.5 -8.5 7
      vertex -6.5 -10.5 7
    endloop
  endfacet
  facet normal 0 1 -0
    outer loop
      vertex 6.5 -8.5 5
      vertex -6.5 -8.5 7
      vertex 6.5 -8.5 7
    endloop
  endfacet
  facet normal 0 1 0
    outer loop
      vertex -6.5 -8.5 7
      vertex 6.5 -8.5 5
      vertex -6.5 -8.5 5
    endloop
  endfacet
  facet normal 0 -1 0
    outer loop
      vertex -6.5 -10.5 5
      vertex 6.5 -10.5 7
      vertex -6.5 -10.5 7
    endloop
  endfacet
  facet normal 0 -1 -0
    outer loop
      vertex 6.5 -10.5 7
      vertex -6.5 -10.5 5
      vertex 6.5 -10.5 5
    endloop
  endfacet
  facet normal 0 0 -1
    outer loop
      vertex -10 -10 0
      vertex 10 10 0
      vertex 10 -10 0
    endloop
  endfacet
  facet normal -0 0 -1
    outer loop
      vertex 10 10 0
      vertex -10 -10 0
      vertex -10 10 0
    endloop
  endfacet
  facet normal 0.707107 0 0.707107
    outer loop
      vertex 6.71645 1.97213 3.28355
      vertex 6.5 6.5 3.5
      vertex 6.5 2.44609 3.5
    endloop
  endfacet
  facet normal 0.707107 0 0.707107
    outer loop
      vertex 6.5 6.5 3.5
      vertex 6.71645 1.97213 3.28355
      vertex 10 10 0
    endloop
  endfacet
  facet normal 0.707107 0 0.707107
    outer loop
      vertex 7 0 3
      vertex 10 10 0
      vertex 6.71645 1.97213 3.28355
    endloop
  endfacet
  facet normal 0.707107 0 0.707107
    outer loop
      vertex 10 -10 0
      vertex 7 0 3
      vertex 6.71645 -1.97213 3.28355
    endloop
  endfacet
  facet normal 0.707107 -0 0.707107
    outer loop
      vertex 6.5 -6.5 3.5
      vertex 6.71645 -1.97213 3.28355
      vertex 6.5 -2.44609 3.5
    endloop
  endfacet
  facet normal 0.707107 0 0.707107
    outer loop
      vertex 10 -10 0
      vertex 6.71645 -1.97213 3.28355
      vertex 6.5 -6.5 3.5
    endloop
  endfacet
  facet normal 0.707107 0 0.707107
    outer loop
      vertex 7 0 3
      vertex 10 -10 0
      vertex 10 10 0
    endloop
  endfacet
  facet normal 0 -0.707107 0.707107
    outer loop
      vertex -6.5 -7.68293 2.31707
      vertex -10 -10 0
      vertex 6.5 -7.68293 2.31707
    endloop
  endfacet
  facet normal 1.42517e-007 -0.707107 0.707107
    outer loop
      vertex -10 -10 0
      vertex -6.5 -7.68293 2.31707
      vertex -6.5 -6.5 3.5
    endloop
  endfacet
  facet normal -1.42517e-007 -0.707107 0.707107
    outer loop
      vertex 6.5 -7.68293 2.31707
      vertex 10 -10 0
      vertex 6.5 -6.5 3.5
    endloop
  endfacet
  facet normal 0 -0.707107 0.707107
    outer loop
      vertex 10 -10 0
      vertex 6.5 -7.68293 2.31707
      vertex -10 -10 0
    endloop
  endfacet
  facet normal 0 0.707107 0.707107
    outer loop
      vertex 6.5 7.68293 2.31707
      vertex 10 10 0
      vertex -6.5 7.68293 2.31707
    endloop
  endfacet
  facet normal -1.42517e-007 0.707107 0.707107
    outer loop
      vertex 10 10 0
      vertex 6.5 7.68293 2.31707
      vertex 6.5 6.5 3.5
    endloop
  endfacet
  facet normal 1.42517e-007 0.707107 0.707107
    outer loop
      vertex -6.5 7.68293 2.31707
      vertex -10 10 0
      vertex -6.5 6.5 3.5
    endloop
  endfacet
  facet normal -0 0.707107 0.707107
    outer loop
      vertex -10 10 0
      vertex -6.5 7.68293 2.31707
      vertex 10 10 0
    endloop
  endfacet
  facet normal -0.707107 0 0.707107
    outer loop
      vertex -6.71645 1.97213 3.28355
      vertex -6.5 6.5 3.5
      vertex -10 10 0
    endloop
  endfacet
  facet normal -0.707107 0 0.707107
    outer loop
      vertex -6.5 6.5 3.5
      vertex -6.71645 1.97213 3.28355
      vertex -6.5 2.44609 3.5
    endloop
  endfacet
  facet normal -0.707107 0 0.707107
    outer loop
      vertex -10 10 0
      vertex -7 0 3
      vertex -6.71645 1.97213 3.28355
    endloop
  endfacet
  facet normal -0.707107 0 0.707107
    outer loop
      vertex -10 -10 0
      vertex -7 0 3
      vertex -10 10 0
    endloop
  endfacet
  facet normal -0.707107 0 0.707107
    outer loop
      vertex -6.71645 -1.97213 3.28355
      vertex -6.5 -6.5 3.5
      vertex -6.5 -2.44609 3.5
    endloop
  endfacet
  facet normal -0.707107 0 0.707107
    outer loop
      vertex -7 0 3
      vertex -10 -10 0
      vertex -6.71645 -1.97213 3.28355
    endloop
  endfacet
  facet normal -0.707107 0 0.707107
    outer loop
      vertex -6.71645 -1.97213 3.28355
      vertex -10 -10 0
      vertex -6.5 -6.5 3.5
    endloop
  endfacet
  facet normal -0.989821 0.142315 0
    outer loop
      vertex -7 0 5
      vertex -6.71645 1.97213 3.28355
      vertex -7 0 3
    endloop
  endfacet
  facet normal -0.989821 0.142315 0
    outer loop
      vertex -6.71645 1.97213 3.28355
      vertex -7 0 5
      vertex -6.71645 1.97213 5
    endloop
  endfacet
  facet normal -0.989821 -0.142315 0
    outer loop
      vertex -6.71645 -1.97213 3.28355
      vertex -7 0 5
      vertex -7 0 3
    endloop
  endfacet
  facet normal -0.989821 -0.142315 0
    outer loop
      vertex -7 0 5
      vertex -6.71645 -1.97213 3.28355
      vertex -6.71645 -1.97213 5
    endloop
  endfacet
  facet normal 0.989821 -0.142315 0
    outer loop
      vertex 6.71645 -1.97213 3.28355
      vertex 7 0 5
      vertex 6.71645 -1.97213 5
    endloop
  endfacet
  facet normal 0.989821 -0.142315 0
    outer loop
      vertex 7 0 5
      vertex 6.71645 -1.97213 3.28355
      vertex 7 0 3
    endloop
  endfacet
  facet normal 0.909632 0.415415 0
    outer loop
      vertex 6.71645 1.97213 5
      vertex 6.5 2.44609 3.5
      vertex 6.5 2.44609 5
    endloop
  endfacet
  facet normal 0.909632 0.415415 0
    outer loop
      vertex 6.5 2.44609 3.5
      vertex 6.71645 1.97213 5
      vertex 6.71645 1.97213 3.28355
    endloop
  endfacet
  facet normal -0.909632 0.415415 0
    outer loop
      vertex -6.71645 1.97213 5
      vertex -6.5 2.44609 3.5
      vertex -6.71645 1.97213 3.28355
    endloop
  endfacet
  facet normal -0.909632 0.415415 0
    outer loop
      vertex -6.5 2.44609 3.5
      vertex -6.71645 1.97213 5
      vertex -6.5 2.44609 5
    endloop
  endfacet
  facet normal 0.989821 0.142315 0
    outer loop
      vertex 7 0 5
      vertex 6.71645 1.97213 3.28355
      vertex 6.71645 1.97213 5
    endloop
  endfacet
  facet normal 0.989821 0.142315 0
    outer loop
      vertex 6.71645 1.97213 3.28355
      vertex 7 0 5
      vertex 7 0 3
    endloop
  endfacet
  facet normal -0.909632 -0.415415 0
    outer loop
      vertex -6.5 -2.44609 3.5
      vertex -6.71645 -1.97213 5
      vertex -6.71645 -1.97213 3.28355
    endloop
  endfacet
  facet normal -0.909632 -0.415415 0
    outer loop
      vertex -6.71645 -1.97213 5
      vertex -6.5 -2.44609 3.5
      vertex -6.5 -2.44609 5
    endloop
  endfacet
  facet normal 0.909632 -0.415415 0
    outer loop
      vertex 6.5 -2.44609 3.5
      vertex 6.71645 -1.97213 5
      vertex 6.5 -2.44609 5
    endloop
  endfacet
  facet normal 0.909632 -0.415415 0
    outer loop
      vertex 6.71645 -1.97213 5
      vertex 6.5 -2.44609 3.5
      vertex 6.71645 -1.97213 3.28355
    endloop
  endfacet
endsolid OpenSCAD_Model
