solid OpenSCAD_Model
  facet normal 0 0 -1
    outer loop
      vertex 10 10 0
      vertex 10 -10 0
      vertex -10 10 0
    endloop
  endfacet
  facet normal 0 0 -1
    outer loop
      vertex -10 10 0
      vertex 10 -10 0
      vertex -10 -10 0
    endloop
  endfacet
  facet normal -0.707107 0 0.707107
    outer loop
      vertex -10 -10 0
      vertex -6.5 -4.725 3.5
      vertex -10 10 0
    endloop
  endfacet
  facet normal -0.707107 0 0.707107
    outer loop
      vertex -10 -10 0
      vertex -5.63415 -5.63415 4.36585
      vertex -6.5 -4.725 3.5
    endloop
  endfacet
  facet normal -0.707107 0 0.707107
    outer loop
      vertex -7 0 3
      vertex -10 10 0
      vertex -6.71645 -1.97213 3.28355
    endloop
  endfacet
  facet normal -0.707107 0 0.707107
    outer loop
      vertex -6.5 -4.725 3.5
      vertex -6.71645 -1.97213 3.28355
      vertex -10 10 0
    endloop
  endfacet
  facet normal -0.707107 0 0.707107
    outer loop
      vertex -7 0 3
      vertex -6.71645 1.97213 3.28355
      vertex -10 10 0
    endloop
  endfacet
  facet normal -0.707107 0 0.707107
    outer loop
      vertex -6.71645 1.97213 3.28355
      vertex -6.5 2.44609 3.5
      vertex -10 10 0
    endloop
  endfacet
  facet normal -0.707107 0 0.707107
    outer loop
      vertex -10 10 0
      vertex -6.5 2.44609 3.5
      vertex -6.5 4.725 3.5
    endloop
  endfacet
  facet normal -0.707107 0 0.707107
    outer loop
      vertex -6.5 4.725 3.5
      vertex -5.63415 5.63415 4.36585
      vertex -10 10 0
    endloop
  endfacet
  facet normal -0.707107 0 0.707107
    outer loop
      vertex -6.5 -2.44609 3.5
      vertex -6.71645 -1.97213 3.28355
      vertex -6.5 -4.725 3.5
    endloop
  endfacet
  facet normal 0 -0.707107 0.707107
    outer loop
      vertex -5.63415 -5.63415 4.36585
      vertex -10 -10 0
      vertex 10 -10 0
    endloop
  endfacet
  facet normal 0 -0.707107 0.707107
    outer loop
      vertex -0.996204 -6.92875 3.07125
      vertex -5.63415 -5.63415 4.36585
      vertex 10 -10 0
    endloop
  endfacet
  facet normal 0 -0.707107 0.707107
    outer loop
      vertex 5.63415 -5.63415 4.36585
      vertex 4.04891 -5.63415 4.36585
      vertex 10 -10 0
    endloop
  endfacet
  facet normal 0 -0.707107 0.707107
    outer loop
      vertex 4.04891 -5.63415 4.36585
      vertex 2.9079 -6.36742 3.63258
      vertex 10 -10 0
    endloop
  endfacet
  facet normal 0 -0.707107 0.707107
    outer loop
      vertex 2.9079 -6.36742 3.63258
      vertex 0.996204 -6.92875 3.07125
      vertex 10 -10 0
    endloop
  endfacet
  facet normal 0 -0.707107 0.707107
    outer loop
      vertex 0.996204 -6.92875 3.07125
      vertex -0.996204 -6.92875 3.07125
      vertex 10 -10 0
    endloop
  endfacet
  facet normal 0 -0.707107 0.707107
    outer loop
      vertex -2.9079 -6.36742 3.63258
      vertex -5.63415 -5.63415 4.36585
      vertex -0.996204 -6.92875 3.07125
    endloop
  endfacet
  facet normal 0 -0.707107 0.707107
    outer loop
      vertex -2.9079 -6.36742 3.63258
      vertex -4.04891 -5.63415 4.36585
      vertex -5.63415 -5.63415 4.36585
    endloop
  endfacet
  facet normal 0 0.707107 0.707107
    outer loop
      vertex -10 10 0
      vertex -5.63415 5.63415 4.36585
      vertex 10 10 0
    endloop
  endfacet
  facet normal 0 0.707107 0.707107
    outer loop
      vertex -2.9079 6.36742 3.63258
      vertex -5.63415 5.63415 4.36585
      vertex -4.04891 5.63415 4.36585
    endloop
  endfacet
  facet normal 0 0.707107 0.707107
    outer loop
      vertex -0.996204 6.92875 3.07125
      vertex -5.63415 5.63415 4.36585
      vertex -2.9079 6.36742 3.63258
    endloop
  endfacet
  facet normal 0 0.707107 0.707107
    outer loop
      vertex 10 10 0
      vertex -5.63415 5.63415 4.36585
      vertex -0.996204 6.92875 3.07125
    endloop
  endfacet
  facet normal 0 0.707107 0.707107
    outer loop
      vertex 10 10 0
      vertex 0.996204 6.92875 3.07125
      vertex 2.9079 6.36742 3.63258
    endloop
  endfacet
  facet normal 0 0.707107 0.707107
    outer loop
      vertex 2.9079 6.36742 3.63258
      vertex 4.04891 5.63415 4.36585
      vertex 10 10 0
    endloop
  endfacet
  facet normal 0 0.707107 0.707107
    outer loop
      vertex 10 10 0
      vertex 4.04891 5.63415 4.36585
      vertex 5.63415 5.63415 4.36585
    endloop
  endfacet
  facet normal 0 0.707107 0.707107
    outer loop
      vertex 0.996204 6.92875 3.07125
      vertex 10 10 0
      vertex -0.996204 6.92875 3.07125
    endloop
  endfacet
  facet normal 0.707107 0 0.707107
    outer loop
      vertex 6.5 -4.725 3.5
      vertex 5.63415 -5.63415 4.36585
      vertex 10 -10 0
    endloop
  endfacet
  facet normal 0.707107 0 0.707107
    outer loop
      vertex 6.71645 -1.97213 3.28355
      vertex 6.5 -4.725 3.5
      vertex 10 10 0
    endloop
  endfacet
  facet normal 0.707107 0 0.707107
    outer loop
      vertex 10 10 0
      vertex 6.5 -4.725 3.5
      vertex 10 -10 0
    endloop
  endfacet
  facet normal 0.707107 0 0.707107
    outer loop
      vertex 6.5 4.725 3.5
      vertex 10 10 0
      vertex 5.63415 5.63415 4.36585
    endloop
  endfacet
  facet normal 0.707107 0 0.707107
    outer loop
      vertex 6.5 2.44609 3.5
      vertex 10 10 0
      vertex 6.5 4.725 3.5
    endloop
  endfacet
  facet normal 0.707107 0 0.707107
    outer loop
      vertex 6.71645 1.97213 3.28355
      vertex 10 10 0
      vertex 6.5 2.44609 3.5
    endloop
  endfacet
  facet normal 0.707107 0 0.707107
    outer loop
      vertex 7 0 3
      vertex 10 10 0
      vertex 6.71645 1.97213 3.28355
    endloop
  endfacet
  facet normal 0.707107 0 0.707107
    outer loop
      vertex 7 0 3
      vertex 6.71645 -1.97213 3.28355
      vertex 10 10 0
    endloop
  endfacet
  facet normal 0.707107 0 0.707107
    outer loop
      vertex 6.5 -2.44609 3.5
      vertex 6.5 -4.725 3.5
      vertex 6.71645 -1.97213 3.28355
    endloop
  endfacet
  facet normal 0 0.689655 -0.724138
    outer loop
      vertex 6.5 10.5 9
      vertex 5.63415 5.63415 4.36585
      vertex -6.5 10.5 9
    endloop
  endfacet
  facet normal 0 0.689655 -0.724138
    outer loop
      vertex 6.5 10.5 9
      vertex 6.5 4.725 3.5
      vertex 5.63415 5.63415 4.36585
    endloop
  endfacet
  facet normal 0 0.689655 -0.724138
    outer loop
      vertex 0.996204 6.92875 5.59881
      vertex -6.5 10.5 9
      vertex 2.9079 6.36742 5.06421
    endloop
  endfacet
  facet normal 0 0.689655 -0.724138
    outer loop
      vertex 5.63415 5.63415 4.36585
      vertex 2.9079 6.36742 5.06421
      vertex -6.5 10.5 9
    endloop
  endfacet
  facet normal 0 0.689655 -0.724138
    outer loop
      vertex -6.5 10.5 9
      vertex 0.996204 6.92875 5.59881
      vertex -0.996204 6.92875 5.59881
    endloop
  endfacet
  facet normal 0 0.689655 -0.724138
    outer loop
      vertex -0.996204 6.92875 5.59881
      vertex -2.9079 6.36742 5.06421
      vertex -6.5 10.5 9
    endloop
  endfacet
  facet normal 0 0.689655 -0.724138
    outer loop
      vertex -2.9079 6.36742 5.06421
      vertex -4.04891 5.63415 4.36585
      vertex -6.5 10.5 9
    endloop
  endfacet
  facet normal 0 0.689655 -0.724138
    outer loop
      vertex -6.5 10.5 9
      vertex -4.04891 5.63415 4.36585
      vertex -5.63415 5.63415 4.36585
    endloop
  endfacet
  facet normal 0 0.689655 -0.724138
    outer loop
      vertex -5.63415 5.63415 4.36585
      vertex -6.5 4.725 3.5
      vertex -6.5 10.5 9
    endloop
  endfacet
  facet normal 0 0.689655 -0.724138
    outer loop
      vertex 4.04891 5.63415 4.36585
      vertex 2.9079 6.36742 5.06421
      vertex 5.63415 5.63415 4.36585
    endloop
  endfacet
  facet normal -1 0 0
    outer loop
      vertex -6.5 8.5 9
      vertex -6.5 8.5 11
      vertex -6.5 10.5 11
    endloop
  endfacet
  facet normal -1 0 0
    outer loop
      vertex -6.5 8.5 9
      vertex -6.5 10.5 11
      vertex -6.5 10.5 9
    endloop
  endfacet
  facet normal -1 0 0
    outer loop
      vertex -6.5 8.5 9
      vertex -6.5 10.5 9
      vertex -6.5 4.725 3.5
    endloop
  endfacet
  facet normal -1 0 0
    outer loop
      vertex -6.5 8.5 9
      vertex -6.5 4.725 3.5
      vertex -6.5 2.44609 9
    endloop
  endfacet
  facet normal -1 0 0
    outer loop
      vertex -6.5 4.725 3.5
      vertex -6.5 2.44609 3.5
      vertex -6.5 2.44609 9
    endloop
  endfacet
  facet normal -0.909632 0.415415 0
    outer loop
      vertex -6.71645 1.97213 3.28355
      vertex -6.71645 1.97213 9
      vertex -6.5 2.44609 3.5
    endloop
  endfacet
  facet normal -0.909632 0.415415 0
    outer loop
      vertex -6.5 2.44609 3.5
      vertex -6.71645 1.97213 9
      vertex -6.5 2.44609 9
    endloop
  endfacet
  facet normal -0.989821 0.142315 0
    outer loop
      vertex -7 0 3
      vertex -7 0 9
      vertex -6.71645 1.97213 3.28355
    endloop
  endfacet
  facet normal -0.989821 0.142315 0
    outer loop
      vertex -6.71645 1.97213 3.28355
      vertex -7 0 9
      vertex -6.71645 1.97213 9
    endloop
  endfacet
  facet normal -0.989821 -0.142315 0
    outer loop
      vertex -7 0 3
      vertex -6.71645 -1.97213 3.28355
      vertex -7 0 9
    endloop
  endfacet
  facet normal -0.989821 -0.142315 0
    outer loop
      vertex -7 0 9
      vertex -6.71645 -1.97213 3.28355
      vertex -6.71645 -1.97213 9
    endloop
  endfacet
  facet normal -0.909632 -0.415415 0
    outer loop
      vertex -6.71645 -1.97213 3.28355
      vertex -6.5 -2.44609 3.5
      vertex -6.71645 -1.97213 9
    endloop
  endfacet
  facet normal -0.909632 -0.415415 0
    outer loop
      vertex -6.71645 -1.97213 9
      vertex -6.5 -2.44609 3.5
      vertex -6.5 -2.44609 9
    endloop
  endfacet
  facet normal -1 0 0
    outer loop
      vertex -6.5 -8.5 11
      vertex -6.5 -8.5 9
      vertex -6.5 -10.5 11
    endloop
  endfacet
  facet normal -1 0 0
    outer loop
      vertex -6.5 -2.44609 3.5
      vertex -6.5 -8.5 9
      vertex -6.5 -2.44609 9
    endloop
  endfacet
  facet normal -1 0 0
    outer loop
      vertex -6.5 -4.725 3.5
      vertex -6.5 -8.5 9
      vertex -6.5 -2.44609 3.5
    endloop
  endfacet
  facet normal -1 0 0
    outer loop
      vertex -6.5 -10.5 11
      vertex -6.5 -8.5 9
      vertex -6.5 -4.725 3.5
    endloop
  endfacet
  facet normal -1 0 0
    outer loop
      vertex -6.5 -10.5 11
      vertex -6.5 -4.725 3.5
      vertex -6.5 -10.5 9
    endloop
  endfacet
  facet normal 0 -0.689655 -0.724138
    outer loop
      vertex -5.63415 -5.63415 4.36585
      vertex -4.04891 -5.63415 4.36585
      vertex -2.9079 -6.36742 5.06421
    endloop
  endfacet
  facet normal 0 -0.689655 -0.724138
    outer loop
      vertex -5.63415 -5.63415 4.36585
      vertex -2.9079 -6.36742 5.06421
      vertex -0.996204 -6.92875 5.59881
    endloop
  endfacet
  facet normal 0 -0.689655 -0.724138
    outer loop
      vertex -0.996204 -6.92875 5.59881
      vertex 6.5 -10.5 9
      vertex -5.63415 -5.63415 4.36585
    endloop
  endfacet
  facet normal 0 -0.689655 -0.724138
    outer loop
      vertex 0.996204 -6.92875 5.59881
      vertex 6.5 -10.5 9
      vertex -0.996204 -6.92875 5.59881
    endloop
  endfacet
  facet normal 0 -0.689655 -0.724138
    outer loop
      vertex 2.9079 -6.36742 5.06421
      vertex 4.04891 -5.63415 4.36585
      vertex 5.63415 -5.63415 4.36585
    endloop
  endfacet
  facet normal 0 -0.689655 -0.724138
    outer loop
      vertex 2.9079 -6.36742 5.06421
      vertex 5.63415 -5.63415 4.36585
      vertex 0.996204 -6.92875 5.59881
    endloop
  endfacet
  facet normal 0 -0.689655 -0.724138
    outer loop
      vertex 5.63415 -5.63415 4.36585
      vertex 6.5 -4.725 3.5
      vertex 6.5 -10.5 9
    endloop
  endfacet
  facet normal 0 -0.689655 -0.724138
    outer loop
      vertex 5.63415 -5.63415 4.36585
      vertex 6.5 -10.5 9
      vertex 0.996204 -6.92875 5.59881
    endloop
  endfacet
  facet normal 0 -0.689655 -0.724138
    outer loop
      vertex -5.63415 -5.63415 4.36585
      vertex 6.5 -10.5 9
      vertex -6.5 -10.5 9
    endloop
  endfacet
  facet normal 0 -0.689655 -0.724138
    outer loop
      vertex -5.63415 -5.63415 4.36585
      vertex -6.5 -10.5 9
      vertex -6.5 -4.725 3.5
    endloop
  endfacet
  facet normal -0.540641 -0.841254 0
    outer loop
      vertex -2.9079 -6.36742 5.06421
      vertex -4.04891 -5.63415 4.36585
      vertex -2.9079 -6.36742 3.63258
    endloop
  endfacet
  facet normal -0.281733 -0.959493 0
    outer loop
      vertex -2.9079 -6.36742 5.06421
      vertex -2.9079 -6.36742 3.63258
      vertex -0.996204 -6.92875 3.07125
    endloop
  endfacet
  facet normal -0.281733 -0.959493 0
    outer loop
      vertex -0.996204 -6.92875 5.59881
      vertex -2.9079 -6.36742 5.06421
      vertex -0.996204 -6.92875 3.07125
    endloop
  endfacet
  facet normal 0 -1 0
    outer loop
      vertex -0.996204 -6.92875 5.59881
      vertex -0.996204 -6.92875 3.07125
      vertex 0.996204 -6.92875 3.07125
    endloop
  endfacet
  facet normal 0 -1 0
    outer loop
      vertex 0.996204 -6.92875 5.59881
      vertex -0.996204 -6.92875 5.59881
      vertex 0.996204 -6.92875 3.07125
    endloop
  endfacet
  facet normal 0.281733 -0.959493 0
    outer loop
      vertex 0.996204 -6.92875 5.59881
      vertex 0.996204 -6.92875 3.07125
      vertex 2.9079 -6.36742 3.63258
    endloop
  endfacet
  facet normal 0.281733 -0.959493 0
    outer loop
      vertex 2.9079 -6.36742 5.06421
      vertex 0.996204 -6.92875 5.59881
      vertex 2.9079 -6.36742 3.63258
    endloop
  endfacet
  facet normal 0.540641 -0.841254 0
    outer loop
      vertex 2.9079 -6.36742 5.06421
      vertex 2.9079 -6.36742 3.63258
      vertex 4.04891 -5.63415 4.36585
    endloop
  endfacet
  facet normal 0.540641 0.841254 0
    outer loop
      vertex 4.04891 5.63415 4.36585
      vertex 2.9079 6.36742 3.63258
      vertex 2.9079 6.36742 5.06421
    endloop
  endfacet
  facet normal 0.281733 0.959493 0
    outer loop
      vertex 0.996204 6.92875 3.07125
      vertex 0.996204 6.92875 5.59881
      vertex 2.9079 6.36742 3.63258
    endloop
  endfacet
  facet normal 0.281733 0.959493 0
    outer loop
      vertex 2.9079 6.36742 3.63258
      vertex 0.996204 6.92875 5.59881
      vertex 2.9079 6.36742 5.06421
    endloop
  endfacet
  facet normal 0 1 0
    outer loop
      vertex -0.996204 6.92875 3.07125
      vertex -0.996204 6.92875 5.59881
      vertex 0.996204 6.92875 3.07125
    endloop
  endfacet
  facet normal 0 1 0
    outer loop
      vertex 0.996204 6.92875 3.07125
      vertex -0.996204 6.92875 5.59881
      vertex 0.996204 6.92875 5.59881
    endloop
  endfacet
  facet normal -0.281733 0.959493 0
    outer loop
      vertex -2.9079 6.36742 3.63258
      vertex -2.9079 6.36742 5.06421
      vertex -0.996204 6.92875 3.07125
    endloop
  endfacet
  facet normal -0.281733 0.959493 0
    outer loop
      vertex -0.996204 6.92875 3.07125
      vertex -2.9079 6.36742 5.06421
      vertex -0.996204 6.92875 5.59881
    endloop
  endfacet
  facet normal -0.540641 0.841254 0
    outer loop
      vertex -2.9079 6.36742 3.63258
      vertex -4.04891 5.63415 4.36585
      vertex -2.9079 6.36742 5.06421
    endloop
  endfacet
  facet normal 1 0 0
    outer loop
      vertex 6.5 -4.725 3.5
      vertex 6.5 -2.44609 3.5
      vertex 6.5 -2.44609 9
    endloop
  endfacet
  facet normal 1 0 0
    outer loop
      vertex 6.5 -10.5 11
      vertex 6.5 -4.725 3.5
      vertex 6.5 -8.5 9
    endloop
  endfacet
  facet normal 1 0 0
    outer loop
      vertex 6.5 -8.5 9
      vertex 6.5 -4.725 3.5
      vertex 6.5 -2.44609 9
    endloop
  endfacet
  facet normal 1 0 0
    outer loop
      vertex 6.5 -10.5 11
      vertex 6.5 -8.5 9
      vertex 6.5 -8.5 11
    endloop
  endfacet
  facet normal 1 0 0
    outer loop
      vertex 6.5 -10.5 9
      vertex 6.5 -4.725 3.5
      vertex 6.5 -10.5 11
    endloop
  endfacet
  facet normal 0.909632 -0.415415 0
    outer loop
      vertex 6.5 -2.44609 9
      vertex 6.5 -2.44609 3.5
      vertex 6.71645 -1.97213 3.28355
    endloop
  endfacet
  facet normal 0.909632 -0.415415 0
    outer loop
      vertex 6.71645 -1.97213 9
      vertex 6.5 -2.44609 9
      vertex 6.71645 -1.97213 3.28355
    endloop
  endfacet
  facet normal 0.989821 -0.142315 0
    outer loop
      vertex 6.71645 -1.97213 9
      vertex 6.71645 -1.97213 3.28355
      vertex 7 0 3
    endloop
  endfacet
  facet normal 0.989821 -0.142315 0
    outer loop
      vertex 7 0 9
      vertex 6.71645 -1.97213 9
      vertex 7 0 3
    endloop
  endfacet
  facet normal 0.989821 0.142315 0
    outer loop
      vertex 7 0 3
      vertex 6.71645 1.97213 3.28355
      vertex 6.71645 1.97213 9
    endloop
  endfacet
  facet normal 0.989821 0.142315 0
    outer loop
      vertex 7 0 9
      vertex 7 0 3
      vertex 6.71645 1.97213 9
    endloop
  endfacet
  facet normal 0.909632 0.415415 0
    outer loop
      vertex 6.71645 1.97213 3.28355
      vertex 6.5 2.44609 3.5
      vertex 6.5 2.44609 9
    endloop
  endfacet
  facet normal 0.909632 0.415415 0
    outer loop
      vertex 6.71645 1.97213 9
      vertex 6.71645 1.97213 3.28355
      vertex 6.5 2.44609 9
    endloop
  endfacet
  facet normal 1 0 0
    outer loop
      vertex 6.5 4.725 3.5
      vertex 6.5 10.5 9
      vertex 6.5 10.5 11
    endloop
  endfacet
  facet normal 1 0 0
    outer loop
      vertex 6.5 8.5 9
      vertex 6.5 4.725 3.5
      vertex 6.5 10.5 11
    endloop
  endfacet
  facet normal 1 0 0
    outer loop
      vertex 6.5 8.5 11
      vertex 6.5 8.5 9
      vertex 6.5 10.5 11
    endloop
  endfacet
  facet normal 1 0 0
    outer loop
      vertex 6.5 2.44609 3.5
      vertex 6.5 4.725 3.5
      vertex 6.5 2.44609 9
    endloop
  endfacet
  facet normal 1 0 0
    outer loop
      vertex 6.5 8.5 9
      vertex 6.5 2.44609 9
      vertex 6.5 4.725 3.5
    endloop
  endfacet
  facet normal 0 1 0
    outer loop
      vertex -6.5 10.5 9
      vertex -6.5 10.5 11
      vertex 6.5 10.5 9
    endloop
  endfacet
  facet normal 0 1 0
    outer loop
      vertex 6.5 10.5 9
      vertex -6.5 10.5 11
      vertex 6.5 10.5 11
    endloop
  endfacet
  facet normal 0 0 1
    outer loop
      vertex -6.71645 -1.97213 9
      vertex -6.5 -2.44609 9
      vertex 6.5 -8.5 9
    endloop
  endfacet
  facet normal 0 0 1
    outer loop
      vertex 6.5 -8.5 9
      vertex -6.5 -2.44609 9
      vertex -6.5 -8.5 9
    endloop
  endfacet
  facet normal 0 0 1
    outer loop
      vertex -6.71645 -1.97213 9
      vertex 6.5 -2.44609 9
      vertex 6.71645 -1.97213 9
    endloop
  endfacet
  facet normal 0 0 1
    outer loop
      vertex -6.71645 -1.97213 9
      vertex 6.5 -8.5 9
      vertex 6.5 -2.44609 9
    endloop
  endfacet
  facet normal 0 0 1
    outer loop
      vertex -6.71645 -1.97213 9
      vertex 6.71645 -1.97213 9
      vertex 7 0 9
    endloop
  endfacet
  facet normal 0 0 1
    outer loop
      vertex -6.71645 -1.97213 9
      vertex 7 0 9
      vertex 6.71645 1.97213 9
    endloop
  endfacet
  facet normal 0 0 1
    outer loop
      vertex -6.71645 -1.97213 9
      vertex 6.5 2.44609 9
      vertex 6.5 8.5 9
    endloop
  endfacet
  facet normal 0 0 1
    outer loop
      vertex -6.71645 -1.97213 9
      vertex 6.71645 1.97213 9
      vertex 6.5 2.44609 9
    endloop
  endfacet
  facet normal 0 0 1
    outer loop
      vertex -6.5 2.44609 9
      vertex 6.5 8.5 9
      vertex -6.5 8.5 9
    endloop
  endfacet
  facet normal 0 0 1
    outer loop
      vertex -6.71645 -1.97213 9
      vertex 6.5 8.5 9
      vertex -6.5 2.44609 9
    endloop
  endfacet
  facet normal 0 0 1
    outer loop
      vertex -6.71645 -1.97213 9
      vertex -6.71645 1.97213 9
      vertex -7 0 9
    endloop
  endfacet
  facet normal 0 0 1
    outer loop
      vertex -6.5 2.44609 9
      vertex -6.71645 1.97213 9
      vertex -6.71645 -1.97213 9
    endloop
  endfacet
  facet normal 0 0 1
    outer loop
      vertex -6.5 10.5 11
      vertex -6.5 8.5 11
      vertex 6.5 8.5 11
    endloop
  endfacet
  facet normal 0 0 1
    outer loop
      vertex 6.5 10.5 11
      vertex -6.5 10.5 11
      vertex 6.5 8.5 11
    endloop
  endfacet
  facet normal 0 -1 0
    outer loop
      vertex -6.5 8.5 11
      vertex -6.5 8.5 9
      vertex 6.5 8.5 9
    endloop
  endfacet
  facet normal 0 -1 0
    outer loop
      vertex 6.5 8.5 11
      vertex -6.5 8.5 11
      vertex 6.5 8.5 9
    endloop
  endfacet
  facet normal 0 0 1
    outer loop
      vertex -6.5 -8.5 11
      vertex -6.5 -10.5 11
      vertex 6.5 -10.5 11
    endloop
  endfacet
  facet normal 0 0 1
    outer loop
      vertex 6.5 -8.5 11
      vertex -6.5 -8.5 11
      vertex 6.5 -10.5 11
    endloop
  endfacet
  facet normal 0 -1 0
    outer loop
      vertex -6.5 -10.5 11
      vertex -6.5 -10.5 9
      vertex 6.5 -10.5 9
    endloop
  endfacet
  facet normal 0 -1 0
    outer loop
      vertex 6.5 -10.5 11
      vertex -6.5 -10.5 11
      vertex 6.5 -10.5 9
    endloop
  endfacet
  facet normal 0 1 0
    outer loop
      vertex -6.5 -8.5 9
      vertex -6.5 -8.5 11
      vertex 6.5 -8.5 9
    endloop
  endfacet
  facet normal 0 1 0
    outer loop
      vertex 6.5 -8.5 9
      vertex -6.5 -8.5 11
      vertex 6.5 -8.5 11
    endloop
  endfacet
endsolid OpenSCAD_Model
