solid OpenSCAD_Model
  facet normal 0 0 -1
    outer loop
      vertex -10 -10 0
      vertex -10 10 0
      vertex 10 -10 0
    endloop
  endfacet
  facet normal 0 0 -1
    outer loop
      vertex 10 -10 0
      vertex -10 10 0
      vertex 10 10 0
    endloop
  endfacet
  facet normal -0.707107 0 0.707107
    outer loop
      vertex -10 -10 0
      vertex -4.91188 -4.91188 5.08812
      vertex -5.88877 -3.78449 4.11123
    endloop
  endfacet
  facet normal -0.707107 0 0.707107
    outer loop
      vertex -10 -10 0
      vertex -5.88877 -3.78449 4.11123
      vertex -6.71645 -1.97213 3.28355
    endloop
  endfacet
  facet normal -0.707107 0 0.707107
    outer loop
      vertex -10 -10 0
      vertex -6.71645 -1.97213 3.28355
      vertex -10 10 0
    endloop
  endfacet
  facet normal -0.707107 0 0.707107
    outer loop
      vertex -6.71645 1.97213 3.28355
      vertex -10 10 0
      vertex -7 0 3
    endloop
  endfacet
  facet normal -0.707107 0 0.707107
    outer loop
      vertex -10 10 0
      vertex -6.71645 1.97213 3.28355
      vertex -5.88877 3.78449 4.11123
    endloop
  endfacet
  facet normal -0.707107 0 0.707107
    outer loop
      vertex -5.88877 3.78449 4.11123
      vertex -4.91188 4.91188 5.08812
      vertex -10 10 0
    endloop
  endfacet
  facet normal -0.707107 0 0.707107
    outer loop
      vertex -7 0 3
      vertex -10 10 0
      vertex -6.71645 -1.97213 3.28355
    endloop
  endfacet
  facet normal 0 -0.707107 0.707107
    outer loop
      vertex 0.996204 -6.92875 3.07125
      vertex -10 -10 0
      vertex 10 -10 0
    endloop
  endfacet
  facet normal 0 -0.707107 0.707107
    outer loop
      vertex 4.91188 -4.91188 5.08812
      vertex 4.58402 -5.29025 4.70975
      vertex 10 -10 0
    endloop
  endfacet
  facet normal 0 -0.707107 0.707107
    outer loop
      vertex 4.58402 -5.29025 4.70975
      vertex 2.9079 -6.36742 3.63258
      vertex 10 -10 0
    endloop
  endfacet
  facet normal 0 -0.707107 0.707107
    outer loop
      vertex -0.996204 -6.92875 3.07125
      vertex -10 -10 0
      vertex 0.996204 -6.92875 3.07125
    endloop
  endfacet
  facet normal 0 -0.707107 0.707107
    outer loop
      vertex -2.9079 -6.36742 3.63258
      vertex -10 -10 0
      vertex -0.996204 -6.92875 3.07125
    endloop
  endfacet
  facet normal 0 -0.707107 0.707107
    outer loop
      vertex -4.58402 -5.29025 4.70975
      vertex -10 -10 0
      vertex -2.9079 -6.36742 3.63258
    endloop
  endfacet
  facet normal 0 -0.707107 0.707107
    outer loop
      vertex -4.91188 -4.91188 5.08812
      vertex -10 -10 0
      vertex -4.58402 -5.29025 4.70975
    endloop
  endfacet
  facet normal 0 -0.707107 0.707107
    outer loop
      vertex 2.9079 -6.36742 3.63258
      vertex 0.996204 -6.92875 3.07125
      vertex 10 -10 0
    endloop
  endfacet
  facet normal 0.707107 0 0.707107
    outer loop
      vertex 5.88877 -3.78449 4.11123
      vertex 4.91188 -4.91188 5.08812
      vertex 10 -10 0
    endloop
  endfacet
  facet normal 0.707107 0 0.707107
    outer loop
      vertex 6.71645 -1.97213 3.28355
      vertex 5.88877 -3.78449 4.11123
      vertex 10 -10 0
    endloop
  endfacet
  facet normal 0.707107 0 0.707107
    outer loop
      vertex 5.88877 3.78449 4.11123
      vertex 10 10 0
      vertex 4.91188 4.91188 5.08812
    endloop
  endfacet
  facet normal 0.707107 0 0.707107
    outer loop
      vertex 6.71645 1.97213 3.28355
      vertex 10 10 0
      vertex 5.88877 3.78449 4.11123
    endloop
  endfacet
  facet normal 0.707107 0 0.707107
    outer loop
      vertex 7 0 3
      vertex 6.71645 -1.97213 3.28355
      vertex 10 10 0
    endloop
  endfacet
  facet normal 0.707107 0 0.707107
    outer loop
      vertex 10 10 0
      vertex 6.71645 -1.97213 3.28355
      vertex 10 -10 0
    endloop
  endfacet
  facet normal 0.707107 0 0.707107
    outer loop
      vertex 6.71645 1.97213 3.28355
      vertex 7 0 3
      vertex 10 10 0
    endloop
  endfacet
  facet normal 0 0.707107 0.707107
    outer loop
      vertex -10 10 0
      vertex -4.91188 4.91188 5.08812
      vertex -4.58402 5.29025 4.70975
    endloop
  endfacet
  facet normal 0 0.707107 0.707107
    outer loop
      vertex -10 10 0
      vertex -4.58402 5.29025 4.70975
      vertex -2.9079 6.36742 3.63258
    endloop
  endfacet
  facet normal 0 0.707107 0.707107
    outer loop
      vertex -10 10 0
      vertex -2.9079 6.36742 3.63258
      vertex -0.996204 6.92875 3.07125
    endloop
  endfacet
  facet normal 0 0.707107 0.707107
    outer loop
      vertex -10 10 0
      vertex -0.996204 6.92875 3.07125
      vertex 10 10 0
    endloop
  endfacet
  facet normal 0 0.707107 0.707107
    outer loop
      vertex 2.9079 6.36742 3.63258
      vertex 10 10 0
      vertex 0.996204 6.92875 3.07125
    endloop
  endfacet
  facet normal 0 0.707107 0.707107
    outer loop
      vertex 10 10 0
      vertex 2.9079 6.36742 3.63258
      vertex 4.58402 5.29025 4.70975
    endloop
  endfacet
  facet normal 0 0.707107 0.707107
    outer loop
      vertex 4.58402 5.29025 4.70975
      vertex 4.91188 4.91188 5.08812
      vertex 10 10 0
    endloop
  endfacet
  facet normal 0 0.707107 0.707107
    outer loop
      vertex 0.996204 6.92875 3.07125
      vertex 10 10 0
      vertex -0.996204 6.92875 3.07125
    endloop
  endfacet
  facet normal -0.755749 0.654861 0
    outer loop
      vertex -5.88877 3.78449 4.11123
      vertex -5.88877 3.78449 8.60427
      vertex -4.91188 4.91188 5.08812
    endloop
  endfacet
  facet normal -0.755749 0.654861 0
    outer loop
      vertex -4.91188 4.91188 5.08812
      vertex -5.88877 3.78449 8.60427
      vertex -4.58402 5.29025 10.0383
    endloop
  endfacet
  facet normal -0.755749 0.654861 0
    outer loop
      vertex -4.91188 4.91188 5.08812
      vertex -4.58402 5.29025 10.0383
      vertex -4.58402 5.29025 4.70975
    endloop
  endfacet
  facet normal -0.909632 0.415415 0
    outer loop
      vertex -5.88877 3.78449 8.60427
      vertex -5.88877 3.78449 4.11123
      vertex -6.5 2.44609 7.32961
    endloop
  endfacet
  facet normal -0.909632 0.415415 0
    outer loop
      vertex -6.71645 1.97213 3.28355
      vertex -6.71645 1.97213 15
      vertex -6.5 2.44609 7.32961
    endloop
  endfacet
  facet normal -0.909632 0.415415 0
    outer loop
      vertex -6.71645 1.97213 3.28355
      vertex -6.5 2.44609 7.32961
      vertex -5.88877 3.78449 4.11123
    endloop
  endfacet
  facet normal -0.909632 0.415415 0
    outer loop
      vertex -6.5 2.44609 7.32961
      vertex -6.71645 1.97213 15
      vertex -6.5 2.44609 15
    endloop
  endfacet
  facet normal -0.989821 0.142315 0
    outer loop
      vertex -7 0 3
      vertex -7 0 15
      vertex -6.71645 1.97213 3.28355
    endloop
  endfacet
  facet normal -0.989821 0.142315 0
    outer loop
      vertex -6.71645 1.97213 3.28355
      vertex -7 0 15
      vertex -6.71645 1.97213 15
    endloop
  endfacet
  facet normal -0.989821 -0.142315 0
    outer loop
      vertex -7 0 3
      vertex -6.71645 -1.97213 3.28355
      vertex -7 0 15
    endloop
  endfacet
  facet normal -0.989821 -0.142315 0
    outer loop
      vertex -7 0 15
      vertex -6.71645 -1.97213 3.28355
      vertex -6.71645 -1.97213 15
    endloop
  endfacet
  facet normal -0.909632 -0.415415 0
    outer loop
      vertex -6.5 -2.44609 15
      vertex -6.71645 -1.97213 15
      vertex -6.5 -2.44609 7.32961
    endloop
  endfacet
  facet normal -0.909632 -0.415415 0
    outer loop
      vertex -6.71645 -1.97213 3.28355
      vertex -5.88877 -3.78449 4.11123
      vertex -6.5 -2.44609 7.32961
    endloop
  endfacet
  facet normal -0.909632 -0.415415 0
    outer loop
      vertex -6.71645 -1.97213 3.28355
      vertex -6.5 -2.44609 7.32961
      vertex -6.71645 -1.97213 15
    endloop
  endfacet
  facet normal -0.909632 -0.415415 0
    outer loop
      vertex -6.5 -2.44609 7.32961
      vertex -5.88877 -3.78449 4.11123
      vertex -5.88877 -3.78449 8.60427
    endloop
  endfacet
  facet normal -0.755749 -0.654861 0
    outer loop
      vertex -5.88877 -3.78449 4.11123
      vertex -4.91188 -4.91188 5.08812
      vertex -5.88877 -3.78449 8.60427
    endloop
  endfacet
  facet normal -0.755749 -0.654861 0
    outer loop
      vertex -5.88877 -3.78449 8.60427
      vertex -4.91188 -4.91188 5.08812
      vertex -4.58402 -5.29025 4.70975
    endloop
  endfacet
  facet normal -0.755749 -0.654861 0
    outer loop
      vertex -5.88877 -3.78449 8.60427
      vertex -4.58402 -5.29025 4.70975
      vertex -4.58402 -5.29025 10.0383
    endloop
  endfacet
  facet normal -0.540641 -0.841254 0
    outer loop
      vertex -4.58402 -5.29025 10.0383
      vertex -4.58402 -5.29025 4.70975
      vertex -2.9079 -6.36742 3.63258
    endloop
  endfacet
  facet normal -0.540641 -0.841254 0
    outer loop
      vertex -2.9079 -6.36742 11.0642
      vertex -4.58402 -5.29025 10.0383
      vertex -2.9079 -6.36742 3.63258
    endloop
  endfacet
  facet normal -0.281733 -0.959493 0
    outer loop
      vertex -2.9079 -6.36742 11.0642
      vertex -2.9079 -6.36742 3.63258
      vertex -0.996204 -6.92875 3.07125
    endloop
  endfacet
  facet normal -0.281733 -0.959493 0
    outer loop
      vertex -0.996204 -6.92875 11.5988
      vertex -2.9079 -6.36742 11.0642
      vertex -0.996204 -6.92875 3.07125
    endloop
  endfacet
  facet normal 0 -1 0
    outer loop
      vertex -0.996204 -6.92875 11.5988
      vertex -0.996204 -6.92875 3.07125
      vertex 0.996204 -6.92875 3.07125
    endloop
  endfacet
  facet normal 0 -1 0
    outer loop
      vertex 0.996204 -6.92875 11.5988
      vertex -0.996204 -6.92875 11.5988
      vertex 0.996204 -6.92875 3.07125
    endloop
  endfacet
  facet normal 0.281733 -0.959493 0
    outer loop
      vertex 0.996204 -6.92875 11.5988
      vertex 0.996204 -6.92875 3.07125
      vertex 2.9079 -6.36742 3.63258
    endloop
  endfacet
  facet normal 0.281733 -0.959493 0
    outer loop
      vertex 2.9079 -6.36742 11.0642
      vertex 0.996204 -6.92875 11.5988
      vertex 2.9079 -6.36742 3.63258
    endloop
  endfacet
  facet normal 0.540641 -0.841254 0
    outer loop
      vertex 2.9079 -6.36742 11.0642
      vertex 2.9079 -6.36742 3.63258
      vertex 4.58402 -5.29025 4.70975
    endloop
  endfacet
  facet normal 0.540641 -0.841254 0
    outer loop
      vertex 4.58402 -5.29025 10.0383
      vertex 2.9079 -6.36742 11.0642
      vertex 4.58402 -5.29025 4.70975
    endloop
  endfacet
  facet normal 0.755749 -0.654861 0
    outer loop
      vertex 4.58402 -5.29025 10.0383
      vertex 4.58402 -5.29025 4.70975
      vertex 4.91188 -4.91188 5.08812
    endloop
  endfacet
  facet normal 0.755749 -0.654861 0
    outer loop
      vertex 5.88877 -3.78449 4.11123
      vertex 4.58402 -5.29025 10.0383
      vertex 4.91188 -4.91188 5.08812
    endloop
  endfacet
  facet normal 0.755749 -0.654861 0
    outer loop
      vertex 5.88877 -3.78449 4.11123
      vertex 5.88877 -3.78449 8.60427
      vertex 4.58402 -5.29025 10.0383
    endloop
  endfacet
  facet normal 0.909632 -0.415415 0
    outer loop
      vertex 5.88877 -3.78449 8.60427
      vertex 5.88877 -3.78449 4.11123
      vertex 6.71645 -1.97213 3.28355
    endloop
  endfacet
  facet normal 0.909632 -0.415415 0
    outer loop
      vertex 6.5 -2.44609 7.32961
      vertex 5.88877 -3.78449 8.60427
      vertex 6.71645 -1.97213 3.28355
    endloop
  endfacet
  facet normal 0.909632 -0.415415 0
    outer loop
      vertex 6.71645 -1.97213 15
      vertex 6.5 -2.44609 7.32961
      vertex 6.71645 -1.97213 3.28355
    endloop
  endfacet
  facet normal 0.909632 -0.415415 0
    outer loop
      vertex 6.5 -2.44609 15
      vertex 6.5 -2.44609 7.32961
      vertex 6.71645 -1.97213 15
    endloop
  endfacet
  facet normal 0.989821 -0.142315 0
    outer loop
      vertex 6.71645 -1.97213 15
      vertex 6.71645 -1.97213 3.28355
      vertex 7 0 3
    endloop
  endfacet
  facet normal 0.989821 -0.142315 0
    outer loop
      vertex 7 0 15
      vertex 6.71645 -1.97213 15
      vertex 7 0 3
    endloop
  endfacet
  facet normal 0.989821 0.142315 0
    outer loop
      vertex 7 0 3
      vertex 6.71645 1.97213 3.28355
      vertex 6.71645 1.97213 15
    endloop
  endfacet
  facet normal 0.989821 0.142315 0
    outer loop
      vertex 7 0 15
      vertex 7 0 3
      vertex 6.71645 1.97213 15
    endloop
  endfacet
  facet normal 0.909632 0.415415 0
    outer loop
      vertex 6.71645 1.97213 3.28355
      vertex 5.88877 3.78449 4.11123
      vertex 5.88877 3.78449 8.60427
    endloop
  endfacet
  facet normal 0.909632 0.415415 0
    outer loop
      vertex 6.5 2.44609 15
      vertex 6.71645 1.97213 3.28355
      vertex 6.5 2.44609 7.32961
    endloop
  endfacet
  facet normal 0.909632 0.415415 0
    outer loop
      vertex 6.5 2.44609 7.32961
      vertex 6.71645 1.97213 3.28355
      vertex 5.88877 3.78449 8.60427
    endloop
  endfacet
  facet normal 0.909632 0.415415 0
    outer loop
      vertex 6.71645 1.97213 15
      vertex 6.71645 1.97213 3.28355
      vertex 6.5 2.44609 15
    endloop
  endfacet
  facet normal 0.755749 0.654861 0
    outer loop
      vertex 4.91188 4.91188 5.08812
      vertex 4.58402 5.29025 4.70975
      vertex 4.58402 5.29025 10.0383
    endloop
  endfacet
  facet normal 0.755749 0.654861 0
    outer loop
      vertex 5.88877 3.78449 4.11123
      vertex 4.91188 4.91188 5.08812
      vertex 5.88877 3.78449 8.60427
    endloop
  endfacet
  facet normal 0.755749 0.654861 0
    outer loop
      vertex 5.88877 3.78449 8.60427
      vertex 4.91188 4.91188 5.08812
      vertex 4.58402 5.29025 10.0383
    endloop
  endfacet
  facet normal 0.540641 0.841254 0
    outer loop
      vertex 2.9079 6.36742 3.63258
      vertex 2.9079 6.36742 11.0642
      vertex 4.58402 5.29025 4.70975
    endloop
  endfacet
  facet normal 0.540641 0.841254 0
    outer loop
      vertex 4.58402 5.29025 4.70975
      vertex 2.9079 6.36742 11.0642
      vertex 4.58402 5.29025 10.0383
    endloop
  endfacet
  facet normal 0.281733 0.959493 0
    outer loop
      vertex 0.996204 6.92875 3.07125
      vertex 0.996204 6.92875 11.5988
      vertex 2.9079 6.36742 3.63258
    endloop
  endfacet
  facet normal 0.281733 0.959493 0
    outer loop
      vertex 2.9079 6.36742 3.63258
      vertex 0.996204 6.92875 11.5988
      vertex 2.9079 6.36742 11.0642
    endloop
  endfacet
  facet normal 0 1 0
    outer loop
      vertex -0.996204 6.92875 3.07125
      vertex -0.996204 6.92875 11.5988
      vertex 0.996204 6.92875 3.07125
    endloop
  endfacet
  facet normal 0 1 0
    outer loop
      vertex 0.996204 6.92875 3.07125
      vertex -0.996204 6.92875 11.5988
      vertex 0.996204 6.92875 11.5988
    endloop
  endfacet
  facet normal -0.281733 0.959493 0
    outer loop
      vertex -2.9079 6.36742 3.63258
      vertex -2.9079 6.36742 11.0642
      vertex -0.996204 6.92875 3.07125
    endloop
  endfacet
  facet normal -0.281733 0.959493 0
    outer loop
      vertex -0.996204 6.92875 3.07125
      vertex -2.9079 6.36742 11.0642
      vertex -0.996204 6.92875 11.5988
    endloop
  endfacet
  facet normal -0.540641 0.841254 0
    outer loop
      vertex -4.58402 5.29025 4.70975
      vertex -4.58402 5.29025 10.0383
      vertex -2.9079 6.36742 3.63258
    endloop
  endfacet
  facet normal -0.540641 0.841254 0
    outer loop
      vertex -2.9079 6.36742 3.63258
      vertex -4.58402 5.29025 10.0383
      vertex -2.9079 6.36742 11.0642
    endloop
  endfacet
  facet normal 0 0.689655 -0.724138
    outer loop
      vertex 6.5 10.5 15
      vertex 6.5 2.44609 7.32961
      vertex 5.88877 3.78449 8.60427
    endloop
  endfacet
  facet normal 0 0.689655 -0.724138
    outer loop
      vertex 6.5 10.5 15
      vertex 5.88877 3.78449 8.60427
      vertex 4.58402 5.29025 10.0383
    endloop
  endfacet
  facet normal 0 0.689655 -0.724138
    outer loop
      vertex 6.5 10.5 15
      vertex 4.58402 5.29025 10.0383
      vertex 2.9079 6.36742 11.0642
    endloop
  endfacet
  facet normal 0 0.689655 -0.724138
    outer loop
      vertex 6.5 10.5 15
      vertex 2.9079 6.36742 11.0642
      vertex -6.5 10.5 15
    endloop
  endfacet
  facet normal 0 0.689655 -0.724138
    outer loop
      vertex -0.996204 6.92875 11.5988
      vertex -6.5 10.5 15
      vertex 0.996204 6.92875 11.5988
    endloop
  endfacet
  facet normal 0 0.689655 -0.724138
    outer loop
      vertex -6.5 10.5 15
      vertex -0.996204 6.92875 11.5988
      vertex -2.9079 6.36742 11.0642
    endloop
  endfacet
  facet normal 0 0.689655 -0.724138
    outer loop
      vertex -2.9079 6.36742 11.0642
      vertex -4.58402 5.29025 10.0383
      vertex -6.5 10.5 15
    endloop
  endfacet
  facet normal 0 0.689655 -0.724138
    outer loop
      vertex -4.58402 5.29025 10.0383
      vertex -5.88877 3.78449 8.60427
      vertex -6.5 10.5 15
    endloop
  endfacet
  facet normal 0 0.689655 -0.724138
    outer loop
      vertex -5.88877 3.78449 8.60427
      vertex -6.5 2.44609 7.32961
      vertex -6.5 10.5 15
    endloop
  endfacet
  facet normal 0 0.689655 -0.724138
    outer loop
      vertex 0.996204 6.92875 11.5988
      vertex -6.5 10.5 15
      vertex 2.9079 6.36742 11.0642
    endloop
  endfacet
  facet normal -1 0 0
    outer loop
      vertex -6.5 8.5 15
      vertex -6.5 8.5 17
      vertex -6.5 10.5 17
    endloop
  endfacet
  facet normal -1 0 0
    outer loop
      vertex -6.5 8.5 15
      vertex -6.5 10.5 17
      vertex -6.5 10.5 15
    endloop
  endfacet
  facet normal -1 0 0
    outer loop
      vertex -6.5 8.5 15
      vertex -6.5 10.5 15
      vertex -6.5 2.44609 7.32961
    endloop
  endfacet
  facet normal -1 0 0
    outer loop
      vertex -6.5 8.5 15
      vertex -6.5 2.44609 7.32961
      vertex -6.5 2.44609 15
    endloop
  endfacet
  facet normal 0 0 1
    outer loop
      vertex -6.71645 1.97213 15
      vertex -7 0 15
      vertex -6.71645 -1.97213 15
    endloop
  endfacet
  facet normal 0 0 1
    outer loop
      vertex 6.5 -8.5 15
      vertex -6.71645 1.97213 15
      vertex -6.5 -2.44609 15
    endloop
  endfacet
  facet normal 0 0 1
    outer loop
      vertex -6.5 -2.44609 15
      vertex -6.71645 1.97213 15
      vertex -6.71645 -1.97213 15
    endloop
  endfacet
  facet normal 0 0 1
    outer loop
      vertex -6.5 -8.5 15
      vertex 6.5 -8.5 15
      vertex -6.5 -2.44609 15
    endloop
  endfacet
  facet normal 0 0 1
    outer loop
      vertex 6.5 -2.44609 15
      vertex -6.71645 1.97213 15
      vertex 6.5 -8.5 15
    endloop
  endfacet
  facet normal 0 0 1
    outer loop
      vertex 6.71645 -1.97213 15
      vertex -6.71645 1.97213 15
      vertex 6.5 -2.44609 15
    endloop
  endfacet
  facet normal 0 0 1
    outer loop
      vertex 7 0 15
      vertex -6.71645 1.97213 15
      vertex 6.71645 -1.97213 15
    endloop
  endfacet
  facet normal 0 0 1
    outer loop
      vertex 6.71645 1.97213 15
      vertex -6.71645 1.97213 15
      vertex 7 0 15
    endloop
  endfacet
  facet normal 0 0 1
    outer loop
      vertex 6.5 2.44609 15
      vertex -6.71645 1.97213 15
      vertex 6.71645 1.97213 15
    endloop
  endfacet
  facet normal 0 0 1
    outer loop
      vertex 6.5 8.5 15
      vertex -6.71645 1.97213 15
      vertex 6.5 2.44609 15
    endloop
  endfacet
  facet normal 0 0 1
    outer loop
      vertex -6.5 2.44609 15
      vertex -6.71645 1.97213 15
      vertex 6.5 8.5 15
    endloop
  endfacet
  facet normal 0 0 1
    outer loop
      vertex -6.5 8.5 15
      vertex -6.5 2.44609 15
      vertex 6.5 8.5 15
    endloop
  endfacet
  facet normal -1 0 0
    outer loop
      vertex -6.5 -8.5 17
      vertex -6.5 -8.5 15
      vertex -6.5 -10.5 17
    endloop
  endfacet
  facet normal -1 0 0
    outer loop
      vertex -6.5 -2.44609 7.32961
      vertex -6.5 -8.5 15
      vertex -6.5 -2.44609 15
    endloop
  endfacet
  facet normal -1 0 0
    outer loop
      vertex -6.5 -10.5 17
      vertex -6.5 -8.5 15
      vertex -6.5 -2.44609 7.32961
    endloop
  endfacet
  facet normal -1 0 0
    outer loop
      vertex -6.5 -10.5 17
      vertex -6.5 -2.44609 7.32961
      vertex -6.5 -10.5 15
    endloop
  endfacet
  facet normal 0 -0.689655 -0.724138
    outer loop
      vertex -5.88877 -3.78449 8.60427
      vertex -6.5 -10.5 15
      vertex -6.5 -2.44609 7.32961
    endloop
  endfacet
  facet normal 0 -0.689655 -0.724138
    outer loop
      vertex -5.88877 -3.78449 8.60427
      vertex -4.58402 -5.29025 10.0383
      vertex -6.5 -10.5 15
    endloop
  endfacet
  facet normal 0 -0.689655 -0.724138
    outer loop
      vertex -6.5 -10.5 15
      vertex -2.9079 -6.36742 11.0642
      vertex 6.5 -10.5 15
    endloop
  endfacet
  facet normal 0 -0.689655 -0.724138
    outer loop
      vertex -2.9079 -6.36742 11.0642
      vertex -0.996204 -6.92875 11.5988
      vertex 6.5 -10.5 15
    endloop
  endfacet
  facet normal 0 -0.689655 -0.724138
    outer loop
      vertex -0.996204 -6.92875 11.5988
      vertex 0.996204 -6.92875 11.5988
      vertex 6.5 -10.5 15
    endloop
  endfacet
  facet normal 0 -0.689655 -0.724138
    outer loop
      vertex 0.996204 -6.92875 11.5988
      vertex 2.9079 -6.36742 11.0642
      vertex 6.5 -10.5 15
    endloop
  endfacet
  facet normal 0 -0.689655 -0.724138
    outer loop
      vertex 6.5 -10.5 15
      vertex 4.58402 -5.29025 10.0383
      vertex 5.88877 -3.78449 8.60427
    endloop
  endfacet
  facet normal 0 -0.689655 -0.724138
    outer loop
      vertex 6.5 -10.5 15
      vertex 5.88877 -3.78449 8.60427
      vertex 6.5 -2.44609 7.32961
    endloop
  endfacet
  facet normal 0 -0.689655 -0.724138
    outer loop
      vertex 2.9079 -6.36742 11.0642
      vertex 4.58402 -5.29025 10.0383
      vertex 6.5 -10.5 15
    endloop
  endfacet
  facet normal 0 -0.689655 -0.724138
    outer loop
      vertex -4.58402 -5.29025 10.0383
      vertex -2.9079 -6.36742 11.0642
      vertex -6.5 -10.5 15
    endloop
  endfacet
  facet normal 1 0 0
    outer loop
      vertex 6.5 -2.44609 7.32961
      vertex 6.5 -2.44609 15
      vertex 6.5 -8.5 15
    endloop
  endfacet
  facet normal 1 0 0
    outer loop
      vertex 6.5 -10.5 17
      vertex 6.5 -2.44609 7.32961
      vertex 6.5 -8.5 15
    endloop
  endfacet
  facet normal 1 0 0
    outer loop
      vertex 6.5 -8.5 17
      vertex 6.5 -10.5 17
      vertex 6.5 -8.5 15
    endloop
  endfacet
  facet normal 1 0 0
    outer loop
      vertex 6.5 -10.5 17
      vertex 6.5 -10.5 15
      vertex 6.5 -2.44609 7.32961
    endloop
  endfacet
  facet normal 1 0 0
    outer loop
      vertex 6.5 10.5 15
      vertex 6.5 10.5 17
      vertex 6.5 8.5 17
    endloop
  endfacet
  facet normal 1 0 0
    outer loop
      vertex 6.5 2.44609 7.32961
      vertex 6.5 10.5 15
      vertex 6.5 8.5 15
    endloop
  endfacet
  facet normal 1 0 0
    outer loop
      vertex 6.5 8.5 15
      vertex 6.5 10.5 15
      vertex 6.5 8.5 17
    endloop
  endfacet
  facet normal 1 0 0
    outer loop
      vertex 6.5 2.44609 7.32961
      vertex 6.5 8.5 15
      vertex 6.5 2.44609 15
    endloop
  endfacet
  facet normal 0 1 0
    outer loop
      vertex -6.5 10.5 15
      vertex -6.5 10.5 17
      vertex 6.5 10.5 15
    endloop
  endfacet
  facet normal 0 1 0
    outer loop
      vertex 6.5 10.5 15
      vertex -6.5 10.5 17
      vertex 6.5 10.5 17
    endloop
  endfacet
  facet normal 0 0 1
    outer loop
      vertex -6.5 10.5 17
      vertex -6.5 8.5 17
      vertex 6.5 8.5 17
    endloop
  endfacet
  facet normal 0 0 1
    outer loop
      vertex 6.5 10.5 17
      vertex -6.5 10.5 17
      vertex 6.5 8.5 17
    endloop
  endfacet
  facet normal 0 -1 0
    outer loop
      vertex -6.5 8.5 17
      vertex -6.5 8.5 15
      vertex 6.5 8.5 15
    endloop
  endfacet
  facet normal 0 -1 0
    outer loop
      vertex 6.5 8.5 17
      vertex -6.5 8.5 17
      vertex 6.5 8.5 15
    endloop
  endfacet
  facet normal 0 1 0
    outer loop
      vertex -6.5 -8.5 15
      vertex -6.5 -8.5 17
      vertex 6.5 -8.5 15
    endloop
  endfacet
  facet normal 0 1 0
    outer loop
      vertex 6.5 -8.5 15
      vertex -6.5 -8.5 17
      vertex 6.5 -8.5 17
    endloop
  endfacet
  facet normal 0 0 1
    outer loop
      vertex -6.5 -8.5 17
      vertex -6.5 -10.5 17
      vertex 6.5 -10.5 17
    endloop
  endfacet
  facet normal 0 0 1
    outer loop
      vertex 6.5 -8.5 17
      vertex -6.5 -8.5 17
      vertex 6.5 -10.5 17
    endloop
  endfacet
  facet normal 0 -1 0
    outer loop
      vertex -6.5 -10.5 17
      vertex -6.5 -10.5 15
      vertex 6.5 -10.5 15
    endloop
  endfacet
  facet normal 0 -1 0
    outer loop
      vertex 6.5 -10.5 17
      vertex -6.5 -10.5 17
      vertex 6.5 -10.5 15
    endloop
  endfacet
endsolid OpenSCAD_Model
