solid OpenSCAD_Model
  facet normal -0 0 -1
    outer loop
      vertex -50.0503 -50.0503 0
      vertex 50.0503 -50.0503 0
      vertex 55 -55 0
    endloop
  endfacet
  facet normal 0 -0 -1
    outer loop
      vertex 50.0503 50.0503 0
      vertex -55 55 0
      vertex 55 55 0
    endloop
  endfacet
  facet normal 0 -0 -1
    outer loop
      vertex -55 -55 0
      vertex -55 55 0
      vertex -50.0503 -50.0503 0
    endloop
  endfacet
  facet normal 0 0 -1
    outer loop
      vertex -55 -55 0
      vertex -50.0503 -50.0503 0
      vertex 55 -55 0
    endloop
  endfacet
  facet normal 0 0 -1
    outer loop
      vertex 55 -55 0
      vertex 50.0503 -50.0503 0
      vertex 55 55 0
    endloop
  endfacet
  facet normal 0 -0 -1
    outer loop
      vertex -50.0503 50.0503 0
      vertex -55 55 0
      vertex 50.0503 50.0503 0
    endloop
  endfacet
  facet normal 0 -0 -1
    outer loop
      vertex 50.0503 -50.0503 0
      vertex 50.0503 50.0503 0
      vertex 55 55 0
    endloop
  endfacet
  facet normal 0 0 -1
    outer loop
      vertex -50.0503 -50.0503 0
      vertex -55 55 0
      vertex -50.0503 50.0503 0
    endloop
  endfacet
  facet normal -0.229416 -1.48191e-017 0.973329
    outer loop
      vertex -55 55 0
      vertex -55 -55 0
      vertex -50.7574 -50.7574 1
    endloop
  endfacet
  facet normal -0.229416 -1.60577e-017 0.973329
    outer loop
      vertex -50.7574 50.7574 1
      vertex -55 55 0
      vertex -50.7574 -50.7574 1
    endloop
  endfacet
  facet normal 1.39321e-017 -0.229416 0.973329
    outer loop
      vertex -50.7574 -50.7574 1
      vertex -55 -55 0
      vertex 55 -55 0
    endloop
  endfacet
  facet normal 1.60577e-017 -0.229416 0.973329
    outer loop
      vertex 50.7574 -50.7574 1
      vertex -50.7574 -50.7574 1
      vertex 55 -55 0
    endloop
  endfacet
  facet normal 0.229416 1.37747e-017 0.973329
    outer loop
      vertex 50.7574 -50.7574 1
      vertex 55 -55 0
      vertex 55 55 0
    endloop
  endfacet
  facet normal 0.229416 1.60577e-017 0.973329
    outer loop
      vertex 50.7574 50.7574 1
      vertex 50.7574 -50.7574 1
      vertex 55 55 0
    endloop
  endfacet
  facet normal -1.50967e-017 0.229416 0.973329
    outer loop
      vertex -55 55 0
      vertex -50.7574 50.7574 1
      vertex 50.7574 50.7574 1
    endloop
  endfacet
  facet normal -1.48191e-017 0.229416 0.973329
    outer loop
      vertex 55 55 0
      vertex -55 55 0
      vertex 50.7574 50.7574 1
    endloop
  endfacet
  facet normal -7.09829e-017 1 0
    outer loop
      vertex 50.0503 -50.0503 1
      vertex 50.0503 -50.0503 0
      vertex -50.0503 -50.0503 1
    endloop
  endfacet
  facet normal -7.09829e-017 1 0
    outer loop
      vertex -50.0503 -50.0503 1
      vertex 50.0503 -50.0503 0
      vertex -50.0503 -50.0503 0
    endloop
  endfacet
  facet normal 1 7.09829e-017 0
    outer loop
      vertex -50.0503 50.0503 0
      vertex -50.0503 50.0503 1
      vertex -50.0503 -50.0503 1
    endloop
  endfacet
  facet normal 1 7.09829e-017 0
    outer loop
      vertex -50.0503 -50.0503 0
      vertex -50.0503 50.0503 0
      vertex -50.0503 -50.0503 1
    endloop
  endfacet
  facet normal 7.09829e-017 -1 0
    outer loop
      vertex 50.0503 50.0503 0
      vertex 50.0503 50.0503 1
      vertex -50.0503 50.0503 1
    endloop
  endfacet
  facet normal 7.09829e-017 -1 0
    outer loop
      vertex -50.0503 50.0503 0
      vertex 50.0503 50.0503 0
      vertex -50.0503 50.0503 1
    endloop
  endfacet
  facet normal -1 -7.09829e-017 0
    outer loop
      vertex 50.0503 50.0503 1
      vertex 50.0503 50.0503 0
      vertex 50.0503 -50.0503 1
    endloop
  endfacet
  facet normal -1 -7.09829e-017 0
    outer loop
      vertex 50.0503 -50.0503 1
      vertex 50.0503 50.0503 0
      vertex 50.0503 -50.0503 0
    endloop
  endfacet
  facet normal 0 -0 1
    outer loop
      vertex 50.0503 -50.0503 1
      vertex -50.7574 -50.7574 1
      vertex 50.7574 -50.7574 1
    endloop
  endfacet
  facet normal -0 0 1
    outer loop
      vertex -50.0503 -50.0503 1
      vertex -50.7574 50.7574 1
      vertex -50.7574 -50.7574 1
    endloop
  endfacet
  facet normal 0 -0 1
    outer loop
      vertex 50.7574 50.7574 1
      vertex 50.0503 -50.0503 1
      vertex 50.7574 -50.7574 1
    endloop
  endfacet
  facet normal -0 -0 1
    outer loop
      vertex -50.0503 50.0503 1
      vertex -50.7574 50.7574 1
      vertex -50.0503 -50.0503 1
    endloop
  endfacet
  facet normal 0 0 1
    outer loop
      vertex 50.0503 -50.0503 1
      vertex -50.0503 -50.0503 1
      vertex -50.7574 -50.7574 1
    endloop
  endfacet
  facet normal 0 0 1
    outer loop
      vertex 50.7574 50.7574 1
      vertex -50.7574 50.7574 1
      vertex -50.0503 50.0503 1
    endloop
  endfacet
  facet normal 0 0 1
    outer loop
      vertex 50.7574 50.7574 1
      vertex 50.0503 50.0503 1
      vertex 50.0503 -50.0503 1
    endloop
  endfacet
  facet normal 0 0 1
    outer loop
      vertex 50.7574 50.7574 1
      vertex -50.0503 50.0503 1
      vertex 50.0503 50.0503 1
    endloop
  endfacet
endsolid OpenSCAD_Model
