solid OpenSCAD_Model
  facet normal -1 0 0
    outer loop
      vertex 0 0 0
      vertex 0 5.1 2.5
      vertex 0 5.1 0
    endloop
  endfacet
  facet normal -1 -0 0
    outer loop
      vertex 0 5.1 2.5
      vertex 0 0 0
      vertex 0 0 2.5
    endloop
  endfacet
  facet normal 0 0 -1
    outer loop
      vertex 0 5.1 2.5
      vertex 125 8.7 2.5
      vertex 125 5.1 2.5
    endloop
  endfacet
  facet normal -0 0 -1
    outer loop
      vertex 125 8.7 2.5
      vertex 0 5.1 2.5
      vertex 0 8.7 2.5
    endloop
  endfacet
  facet normal 1 -0 0
    outer loop
      vertex 125 0 2.5
      vertex 125 5.1 0
      vertex 125 5.1 2.5
    endloop
  endfacet
  facet normal 1 0 0
    outer loop
      vertex 125 5.1 0
      vertex 125 0 2.5
      vertex 125 0 0
    endloop
  endfacet
  facet normal 0 1 -0
    outer loop
      vertex 125 5.1 0
      vertex 0 5.1 2.5
      vertex 125 5.1 2.5
    endloop
  endfacet
  facet normal 0 1 0
    outer loop
      vertex 0 5.1 2.5
      vertex 125 5.1 0
      vertex 0 5.1 0
    endloop
  endfacet
  facet normal 0 0 -1
    outer loop
      vertex 0 0 0
      vertex 125 5.1 0
      vertex 125 0 0
    endloop
  endfacet
  facet normal -0 0 -1
    outer loop
      vertex 125 5.1 0
      vertex 0 0 0
      vertex 0 5.1 0
    endloop
  endfacet
  facet normal 0 -1 0
    outer loop
      vertex 125 0 0
      vertex 53 0 28.1
      vertex 0 0 0
    endloop
  endfacet
  facet normal 0 -1 0
    outer loop
      vertex 53.9271 0 28.2468
      vertex 125 0 2.5
      vertex 125.592 0 16.8
    endloop
  endfacet
  facet normal 0 -1 0
    outer loop
      vertex 53 0 28.1
      vertex 125 0 0
      vertex 53.9271 0 28.2468
    endloop
  endfacet
  facet normal 0 -1 0
    outer loop
      vertex 53.9271 0 28.2468
      vertex 125 0 0
      vertex 125 0 2.5
    endloop
  endfacet
  facet normal 0 -1 0
    outer loop
      vertex 23.043 0 51.8723
      vertex 52.0729 0 33.9532
      vertex 53 0 34.1
    endloop
  endfacet
  facet normal 0 -1 0
    outer loop
      vertex 37.15 0 34.1
      vertex 51.2366 0 33.5271
      vertex 52.0729 0 33.9532
    endloop
  endfacet
  facet normal 0 -1 0
    outer loop
      vertex 39 0 32.7
      vertex 51.2366 0 33.5271
      vertex 37.15 0 34.1
    endloop
  endfacet
  facet normal 0 -1 0
    outer loop
      vertex 51.2366 0 33.5271
      vertex 39 0 32.7
      vertex 50.5729 0 32.8634
    endloop
  endfacet
  facet normal 0 -1 0
    outer loop
      vertex 39 0 32.7
      vertex 50.1468 0 32.0271
      vertex 50.5729 0 32.8634
    endloop
  endfacet
  facet normal 0 -1 0
    outer loop
      vertex 39 0 32.7
      vertex 50.1335 0 31.9428
      vertex 50.1468 0 32.0271
    endloop
  endfacet
  facet normal 0 -1 0
    outer loop
      vertex 39 0 32.7
      vertex 50 0 31.1
      vertex 50.1335 0 31.9428
    endloop
  endfacet
  facet normal 0 -1 0
    outer loop
      vertex 39 0 28.5
      vertex 50 0 31.1
      vertex 39 0 32.7
    endloop
  endfacet
  facet normal 0 -1 -0
    outer loop
      vertex 50 0 31.1
      vertex 39 0 28.5
      vertex 50.0133 0 31.0157
    endloop
  endfacet
  facet normal 0 -1 -0
    outer loop
      vertex 50.0133 0 31.0157
      vertex 39 0 28.5
      vertex 50.1468 0 30.1729
    endloop
  endfacet
  facet normal 0 -1 -0
    outer loop
      vertex 50.1468 0 30.1729
      vertex 39 0 28.5
      vertex 50.5729 0 29.3366
    endloop
  endfacet
  facet normal 0 -1 -0
    outer loop
      vertex 50.5729 0 29.3366
      vertex 39 0 28.5
      vertex 51.2366 0 28.6729
    endloop
  endfacet
  facet normal 0 -1 -0
    outer loop
      vertex 51.2366 0 28.6729
      vertex 39 0 28.5
      vertex 52.0729 0 28.2468
    endloop
  endfacet
  facet normal 0 -1 0
    outer loop
      vertex 8.7 0 55.5
      vertex 18.55 0 62.8
      vertex -2 0 62.8
    endloop
  endfacet
  facet normal 0 -1 0
    outer loop
      vertex 21.1359 0 54.4973
      vertex 18.55 0 62.8
      vertex 19.6723 0 55.243
    endloop
  endfacet
  facet normal 0 -1 0
    outer loop
      vertex 18.55 0 62.8
      vertex 8.7 0 55.5
      vertex 18.05 0 55.5
    endloop
  endfacet
  facet normal 0 -1 0
    outer loop
      vertex -2 0 62.8
      vertex 8.7 0 45
      vertex 8.7 0 55.5
    endloop
  endfacet
  facet normal 0 -1 0
    outer loop
      vertex 24 0 32.7
      vertex 18.05 0 45
      vertex 8.7 0 45
    endloop
  endfacet
  facet normal 0 -1 0
    outer loop
      vertex 18.05 0 45
      vertex 24 0 32.7
      vertex 25.85 0 34.1
    endloop
  endfacet
  facet normal 0 -1 0
    outer loop
      vertex 8.7 0 45
      vertex 24 0 28.5
      vertex 24 0 32.7
    endloop
  endfacet
  facet normal 0 -1 0
    outer loop
      vertex 0 0 2.5
      vertex 24 0 28.5
      vertex -0.591724 0 16.8
    endloop
  endfacet
  facet normal 0 -1 0
    outer loop
      vertex 0 0 0
      vertex 24 0 28.5
      vertex 0 0 2.5
    endloop
  endfacet
  facet normal 0 -1 -0
    outer loop
      vertex 8.7 0 45
      vertex -0.591724 0 16.8
      vertex 24 0 28.5
    endloop
  endfacet
  facet normal 0 -1 0
    outer loop
      vertex -0.591724 0 16.8
      vertex 8.7 0 45
      vertex -3.95 0 16.9
    endloop
  endfacet
  facet normal 0 -1 0
    outer loop
      vertex -3.95 0 16.9
      vertex 8.7 0 45
      vertex -2 0 62.8
    endloop
  endfacet
  facet normal 0 -1 0
    outer loop
      vertex 18.55 0 62.8
      vertex 106.45 0 65.3
      vertex 18.55 0 65.3
    endloop
  endfacet
  facet normal 0 -1 -0
    outer loop
      vertex 106.45 0 65.3
      vertex 18.55 0 62.8
      vertex 106.45 0 62.8
    endloop
  endfacet
  facet normal 0 -1 -0
    outer loop
      vertex 18.55 0 62.8
      vertex 18.05 0 55.5
      vertex 19.6723 0 55.243
    endloop
  endfacet
  facet normal 0 -1 0
    outer loop
      vertex 22.2973 0 53.3359
      vertex 18.55 0 62.8
      vertex 21.1359 0 54.4973
    endloop
  endfacet
  facet normal 0 -1 0
    outer loop
      vertex 53 0 34.1
      vertex 18.55 0 62.8
      vertex 22.2973 0 53.3359
    endloop
  endfacet
  facet normal 0 -1 0
    outer loop
      vertex 18.55 0 62.8
      vertex 53.9271 0 33.9532
      vertex 106.45 0 62.8
    endloop
  endfacet
  facet normal 0 -1 0
    outer loop
      vertex 53 0 34.1
      vertex 22.2973 0 53.3359
      vertex 23.043 0 51.8723
    endloop
  endfacet
  facet normal 0 -1 0
    outer loop
      vertex 37.15 0 34.1
      vertex 23.043 0 51.8723
      vertex 23.3 0 50.25
    endloop
  endfacet
  facet normal 0 -1 0
    outer loop
      vertex 37.15 0 34.1
      vertex 23.3 0 50.25
      vertex 23.043 0 48.6277
    endloop
  endfacet
  facet normal 0 -1 0
    outer loop
      vertex 37.15 0 34.1
      vertex 23.043 0 48.6277
      vertex 22.2973 0 47.1641
    endloop
  endfacet
  facet normal 0 -1 0
    outer loop
      vertex 25.85 0 34.1
      vertex 22.2973 0 47.1641
      vertex 21.1359 0 46.0027
    endloop
  endfacet
  facet normal 0 -1 0
    outer loop
      vertex 25.85 0 34.1
      vertex 21.1359 0 46.0027
      vertex 19.6723 0 45.257
    endloop
  endfacet
  facet normal 0 -1 0
    outer loop
      vertex 25.85 0 34.1
      vertex 19.6723 0 45.257
      vertex 18.05 0 45
    endloop
  endfacet
  facet normal 0 -1 0
    outer loop
      vertex 22.2973 0 47.1641
      vertex 25.85 0 34.1
      vertex 37.15 0 34.1
    endloop
  endfacet
  facet normal 0 -1 0
    outer loop
      vertex 52.0729 0 33.9532
      vertex 23.043 0 51.8723
      vertex 37.15 0 34.1
    endloop
  endfacet
  facet normal 0 -1 0
    outer loop
      vertex 18.55 0 62.8
      vertex 53 0 34.1
      vertex 53.9271 0 33.9532
    endloop
  endfacet
  facet normal 0 -1 0
    outer loop
      vertex 54.7634 0 33.5271
      vertex 106.45 0 62.8
      vertex 53.9271 0 33.9532
    endloop
  endfacet
  facet normal 0 -1 0
    outer loop
      vertex 55.4271 0 32.8634
      vertex 106.45 0 62.8
      vertex 54.7634 0 33.5271
    endloop
  endfacet
  facet normal 0 -1 0
    outer loop
      vertex 55.8532 0 32.0271
      vertex 106.45 0 62.8
      vertex 55.4271 0 32.8634
    endloop
  endfacet
  facet normal 0 -1 0
    outer loop
      vertex 56 0 31.1
      vertex 106.45 0 62.8
      vertex 55.8532 0 32.0271
    endloop
  endfacet
  facet normal 0 -1 -0
    outer loop
      vertex 106.45 0 62.8
      vertex 56 0 31.1
      vertex 125.592 0 16.8
    endloop
  endfacet
  facet normal 0 -1 0
    outer loop
      vertex 125.592 0 16.8
      vertex 56 0 31.1
      vertex 55.8532 0 30.1729
    endloop
  endfacet
  facet normal 0 -1 0
    outer loop
      vertex 125.592 0 16.8
      vertex 55.8532 0 30.1729
      vertex 55.4271 0 29.3366
    endloop
  endfacet
  facet normal 0 -1 0
    outer loop
      vertex 125.592 0 16.8
      vertex 55.4271 0 29.3366
      vertex 54.7634 0 28.6729
    endloop
  endfacet
  facet normal 0 -1 0
    outer loop
      vertex 125.592 0 16.8
      vertex 54.7634 0 28.6729
      vertex 53.9271 0 28.2468
    endloop
  endfacet
  facet normal 0 -1 0
    outer loop
      vertex 39 0 28.5
      vertex 53 0 28.1
      vertex 52.0729 0 28.2468
    endloop
  endfacet
  facet normal 0 -1 0
    outer loop
      vertex 106.45 0 62.8
      vertex 125.592 0 16.8
      vertex 127 0 62.8
    endloop
  endfacet
  facet normal 0 -1 -0
    outer loop
      vertex 24 0 28.5
      vertex 0 0 0
      vertex 39 0 28.5
    endloop
  endfacet
  facet normal 0 -1 0
    outer loop
      vertex -0.591724 0 16.8
      vertex -3.95 0 16.9
      vertex -3.95 0 16.8
    endloop
  endfacet
  facet normal 0 -1 -0
    outer loop
      vertex 39 0 28.5
      vertex 0 0 0
      vertex 53 0 28.1
    endloop
  endfacet
  facet normal 0 -1 -0
    outer loop
      vertex 127 0 62.8
      vertex 125.592 0 16.8
      vertex 128.95 0 16.9
    endloop
  endfacet
  facet normal 0 -1 -0
    outer loop
      vertex 128.95 0 16.9
      vertex 125.592 0 16.8
      vertex 128.95 0 16.8
    endloop
  endfacet
  facet normal 0 0.999406 -0.0344623
    outer loop
      vertex 125.6 9.2 17
      vertex 112.4 8.83793 6.5
      vertex 112.4 9.2 17
    endloop
  endfacet
  facet normal -1.28729e-008 0.999406 -0.0344623
    outer loop
      vertex 125 8.7 2.5
      vertex 112.4 8.83793 6.5
      vertex 125.6 9.2 17
    endloop
  endfacet
  facet normal 3.41204e-007 0.999406 -0.0344612
    outer loop
      vertex 112.4 8.83793 6.5
      vertex 125 8.7 2.5
      vertex 112.351 8.82728 6.19098
    endloop
  endfacet
  facet normal -2.85921e-007 0.999406 -0.0344633
    outer loop
      vertex 112.351 8.82728 6.19098
      vertex 125 8.7 2.5
      vertex 112.209 8.81766 5.91221
    endloop
  endfacet
  facet normal 0 0.999406 -0.0344622
    outer loop
      vertex 111.4 8.80345 5.5
      vertex 125 8.7 2.5
      vertex 13.6 8.80345 5.5
    endloop
  endfacet
  facet normal -6.30184e-007 0.999406 -0.034465
    outer loop
      vertex 111.709 8.80514 5.54894
      vertex 125 8.7 2.5
      vertex 111.4 8.80345 5.5
    endloop
  endfacet
  facet normal -1.48108e-007 0.999406 -0.0344629
    outer loop
      vertex 111.988 8.81003 5.69098
      vertex 125 8.7 2.5
      vertex 111.709 8.80514 5.54894
    endloop
  endfacet
  facet normal 2.1088e-007 0.999406 -0.0344614
    outer loop
      vertex 112.209 8.81766 5.91221
      vertex 125 8.7 2.5
      vertex 111.988 8.81003 5.69098
    endloop
  endfacet
  facet normal 0 0.999406 -0.0344623
    outer loop
      vertex 12.6 8.83793 6.5
      vertex -0.599999 9.2 17
      vertex 12.6 9.2 17
    endloop
  endfacet
  facet normal -2.51964e-007 0.999406 -0.0344614
    outer loop
      vertex 0 8.7 2.5
      vertex 12.6 8.83793 6.5
      vertex 12.6359 8.83012 6.27349
    endloop
  endfacet
  facet normal -5.14877e-007 0.999406 -0.0344606
    outer loop
      vertex 0 8.7 2.5
      vertex 12.6359 8.83012 6.27349
      vertex 12.6489 8.82728 6.19098
    endloop
  endfacet
  facet normal 2.85922e-007 0.999406 -0.0344633
    outer loop
      vertex 0 8.7 2.5
      vertex 12.6489 8.82728 6.19098
      vertex 12.791 8.81766 5.91221
    endloop
  endfacet
  facet normal -2.1088e-007 0.999406 -0.0344614
    outer loop
      vertex 0 8.7 2.5
      vertex 12.791 8.81766 5.91221
      vertex 13.0122 8.81003 5.69098
    endloop
  endfacet
  facet normal 1.15856e-008 0.999406 -0.0344623
    outer loop
      vertex 12.6 8.83793 6.5
      vertex 0 8.7 2.5
      vertex -0.599999 9.2 17
    endloop
  endfacet
  facet normal 1.48108e-007 0.999406 -0.0344629
    outer loop
      vertex 13.291 8.80514 5.54894
      vertex 0 8.7 2.5
      vertex 13.0122 8.81003 5.69098
    endloop
  endfacet
  facet normal 6.30179e-007 0.999406 -0.034465
    outer loop
      vertex 13.6 8.80345 5.5
      vertex 0 8.7 2.5
      vertex 13.291 8.80514 5.54894
    endloop
  endfacet
  facet normal 0 0.999406 -0.0344622
    outer loop
      vertex 0 8.7 2.5
      vertex 13.6 8.80345 5.5
      vertex 125 8.7 2.5
    endloop
  endfacet
  facet normal 1 0 0
    outer loop
      vertex 125.6 9.2 17.1
      vertex 125.6 5.09564 17
      vertex 125.6 9.2 17
    endloop
  endfacet
  facet normal 1 0 -0
    outer loop
      vertex 125.6 5.09564 17
      vertex 125.6 9.2 17.1
      vertex 125.6 5.09128 17.1
    endloop
  endfacet
  facet normal -0.999145 0 -0.0413439
    outer loop
      vertex 0 0 2.5
      vertex -0.591724 5.1 16.8
      vertex 0 5.1 2.5
    endloop
  endfacet
  facet normal -0.999145 -0 -0.0413439
    outer loop
      vertex -0.591724 5.1 16.8
      vertex 0 0 2.5
      vertex -0.591724 0 16.8
    endloop
  endfacet
  facet normal -0.999145 0 -0.0413439
    outer loop
      vertex -0.591724 5.1 16.8
      vertex 0 8.7 2.5
      vertex 0 5.1 2.5
    endloop
  endfacet
  facet normal -0.999145 4.69605e-009 -0.0413439
    outer loop
      vertex 0 8.7 2.5
      vertex -0.591724 5.1 16.8
      vertex -0.599999 9.2 17
    endloop
  endfacet
  facet normal -0.999145 0 -0.0413438
    outer loop
      vertex -0.595861 5.1 16.9
      vertex -0.599999 9.2 17
      vertex -0.591724 5.1 16.8
    endloop
  endfacet
  facet normal -0.999145 -0 -0.0413438
    outer loop
      vertex -0.599999 9.2 17
      vertex -0.595861 5.1 16.9
      vertex -0.599999 5.09564 17
    endloop
  endfacet
  facet normal -1 0 0
    outer loop
      vertex -0.599999 5.09564 17
      vertex -0.599999 9.2 17.1
      vertex -0.599999 9.2 17
    endloop
  endfacet
  facet normal -1 -0 0
    outer loop
      vertex -0.599999 9.2 17.1
      vertex -0.599999 5.09564 17
      vertex -0.599999 5.09128 17.1
    endloop
  endfacet
  facet normal 0.999143 1.85923e-006 -0.041392
    outer loop
      vertex 125.592 5.1 16.8
      vertex 125.6 9.2 17
      vertex 125.596 5.1 16.9
    endloop
  endfacet
  facet normal 0.999146 0 -0.0413159
    outer loop
      vertex 125.596 5.1 16.9
      vertex 125.6 9.2 17
      vertex 125.6 5.09564 17
    endloop
  endfacet
  facet normal 0.999145 -4.93207e-007 -0.0413438
    outer loop
      vertex 125.6 9.2 17
      vertex 125.592 5.1 16.8
      vertex 125 8.7 2.5
    endloop
  endfacet
  facet normal 0.999145 0 -0.0413437
    outer loop
      vertex 125.592 5.1 16.8
      vertex 125 5.1 2.5
      vertex 125 8.7 2.5
    endloop
  endfacet
  facet normal 0.999145 0 -0.0413437
    outer loop
      vertex 125.592 0 16.8
      vertex 125 5.1 2.5
      vertex 125.592 5.1 16.8
    endloop
  endfacet
  facet normal 0.999145 0 -0.0413437
    outer loop
      vertex 125 5.1 2.5
      vertex 125.592 0 16.8
      vertex 125 0 2.5
    endloop
  endfacet
  facet normal 0 1 -0
    outer loop
      vertex 12.6 9.2 17
      vertex -0.599999 9.2 17.1
      vertex 12.6 9.2 17.1
    endloop
  endfacet
  facet normal 0 1 0
    outer loop
      vertex -0.599999 9.2 17.1
      vertex 12.6 9.2 17
      vertex -0.599999 9.2 17
    endloop
  endfacet
  facet normal 0 1 -0
    outer loop
      vertex 125.6 9.2 17
      vertex 112.4 9.2 17.1
      vertex 125.6 9.2 17.1
    endloop
  endfacet
  facet normal 0 1 0
    outer loop
      vertex 112.4 9.2 17.1
      vertex 125.6 9.2 17
      vertex 112.4 9.2 17
    endloop
  endfacet
  facet normal 0 0 1
    outer loop
      vertex 123.4 6.1 62.8
      vertex 106.45 3.8 62.8
      vertex 123.4 3.1 62.8
    endloop
  endfacet
  facet normal 0 0 1
    outer loop
      vertex 123.4 6.1 62.8
      vertex 18.55 3.8 62.8
      vertex 106.45 3.8 62.8
    endloop
  endfacet
  facet normal -0 0 1
    outer loop
      vertex 1.6 6.1 62.8
      vertex 18.55 3.8 62.8
      vertex 123.4 6.1 62.8
    endloop
  endfacet
  facet normal 0 0 1
    outer loop
      vertex 1.6 3.1 62.8
      vertex 18.55 3.8 62.8
      vertex 1.6 6.1 62.8
    endloop
  endfacet
  facet normal 0 0 1
    outer loop
      vertex 18.55 3.8 62.8
      vertex 1.6 3.1 62.8
      vertex 18.55 0 62.8
    endloop
  endfacet
  facet normal 0 0 1
    outer loop
      vertex -2 0 62.8
      vertex 1.6 3.1 62.8
      vertex -2 3.1 62.8
    endloop
  endfacet
  facet normal 0 0 1
    outer loop
      vertex 1.6 3.1 62.8
      vertex -2 0 62.8
      vertex 18.55 0 62.8
    endloop
  endfacet
  facet normal -0 0 1
    outer loop
      vertex 123.4 3.1 62.8
      vertex 127 0 62.8
      vertex 127 3.1 62.8
    endloop
  endfacet
  facet normal 0 0 1
    outer loop
      vertex 106.45 0 62.8
      vertex 123.4 3.1 62.8
      vertex 106.45 3.8 62.8
    endloop
  endfacet
  facet normal 0 0 1
    outer loop
      vertex 123.4 3.1 62.8
      vertex 106.45 0 62.8
      vertex 127 0 62.8
    endloop
  endfacet
  facet normal 0.998843 0 0.0480843
    outer loop
      vertex 123.4 6.1 62.8
      vertex 125.6 5.09128 17.1
      vertex 125.6 9.2 17.1
    endloop
  endfacet
  facet normal 0.998843 0 0.0480843
    outer loop
      vertex 125.6 5.09128 17.1
      vertex 123.4 6.1 62.8
      vertex 123.4 3.1 62.8
    endloop
  endfacet
  facet normal -0.998843 0 0.0480843
    outer loop
      vertex -0.599999 5.09128 17.1
      vertex 1.6 6.1 62.8
      vertex -0.599999 9.2 17.1
    endloop
  endfacet
  facet normal -0.998843 0 0.0480843
    outer loop
      vertex 1.6 6.1 62.8
      vertex -0.599999 5.09128 17.1
      vertex 1.6 3.1 62.8
    endloop
  endfacet
  facet normal 0 0.997707 0.0676782
    outer loop
      vertex 19.6723 6.61262 55.243
      vertex 1.6 6.1 62.8
      vertex 123.4 6.1 62.8
    endloop
  endfacet
  facet normal -1.48769e-007 0.997707 0.0676778
    outer loop
      vertex 1.6 6.1 62.8
      vertex 19.6723 6.61262 55.243
      vertex 18.05 6.59519 55.5
    endloop
  endfacet
  facet normal -1.2571e-008 0.997707 0.0676783
    outer loop
      vertex 123.4 6.1 62.8
      vertex 21.1359 6.6632 54.4973
      vertex 19.6723 6.61262 55.243
    endloop
  endfacet
  facet normal 6.57413e-009 0.997707 0.0676781
    outer loop
      vertex 123.4 6.1 62.8
      vertex 22.2973 6.74199 53.3359
      vertex 21.1359 6.6632 54.4973
    endloop
  endfacet
  facet normal 6.44925e-010 0.997707 0.0676782
    outer loop
      vertex 111.4 7.53129 41.7
      vertex 22.2973 6.74199 53.3359
      vertex 123.4 6.1 62.8
    endloop
  endfacet
  facet normal 2.58504e-010 0.997707 0.0676782
    outer loop
      vertex 22.2973 6.74199 53.3359
      vertex 111.4 7.53129 41.7
      vertex 23.043 6.84126 51.8723
    endloop
  endfacet
  facet normal 7.33915e-009 0.997707 0.0676782
    outer loop
      vertex 23.043 6.84126 51.8723
      vertex 111.4 7.53129 41.7
      vertex 23.3 6.95131 50.25
    endloop
  endfacet
  facet normal 7.11695e-009 0.997707 0.0676782
    outer loop
      vertex 23.3 6.95131 50.25
      vertex 111.4 7.53129 41.7
      vertex 23.043 7.06136 48.6277
    endloop
  endfacet
  facet normal 2.36935e-009 0.997707 0.0676782
    outer loop
      vertex 23.043 7.06136 48.6277
      vertex 111.4 7.53129 41.7
      vertex 22.2973 7.16064 47.1641
    endloop
  endfacet
  facet normal -1.55889e-009 0.997707 0.0676781
    outer loop
      vertex 22.2973 7.16064 47.1641
      vertex 111.4 7.53129 41.7
      vertex 21.1359 7.23943 46.0027
    endloop
  endfacet
  facet normal -2.56935e-007 0.997707 0.0676785
    outer loop
      vertex 19.6723 7.29001 45.257
      vertex 13.6 7.53129 41.7
      vertex 18.05 7.30744 45
    endloop
  endfacet
  facet normal 1.10244e-006 0.997707 0.0676762
    outer loop
      vertex 21.1359 7.23943 46.0027
      vertex 13.6 7.53129 41.7
      vertex 19.6723 7.29001 45.257
    endloop
  endfacet
  facet normal -0 0.997707 0.0676781
    outer loop
      vertex 13.6 7.53129 41.7
      vertex 21.1359 7.23943 46.0027
      vertex 111.4 7.53129 41.7
    endloop
  endfacet
  facet normal -8.04542e-009 0.997707 0.0676782
    outer loop
      vertex 123.4 6.1 62.8
      vertex 111.709 7.53461 41.6511
      vertex 111.4 7.53129 41.7
    endloop
  endfacet
  facet normal -3.17098e-007 0.997707 0.0676784
    outer loop
      vertex 123.4 6.1 62.8
      vertex 111.988 7.54425 41.509
      vertex 111.709 7.53461 41.6511
    endloop
  endfacet
  facet normal 1.80596e-007 0.997707 0.0676781
    outer loop
      vertex 123.4 6.1 62.8
      vertex 112.209 7.55925 41.2878
      vertex 111.988 7.54425 41.509
    endloop
  endfacet
  facet normal -5.4413e-007 0.997707 0.0676785
    outer loop
      vertex 123.4 6.1 62.8
      vertex 112.351 7.57816 41.009
      vertex 112.209 7.55925 41.2878
    endloop
  endfacet
  facet normal 1.08355e-007 0.997707 0.0676781
    outer loop
      vertex 123.4 6.1 62.8
      vertex 112.4 7.59912 40.7
      vertex 112.351 7.57816 41.009
    endloop
  endfacet
  facet normal 1.83099e-008 0.997707 0.0676782
    outer loop
      vertex 125.6 9.2 17.1
      vertex 112.4 7.59912 40.7
      vertex 123.4 6.1 62.8
    endloop
  endfacet
  facet normal 0 0.997707 0.0676782
    outer loop
      vertex 112.4 7.59912 40.7
      vertex 125.6 9.2 17.1
      vertex 112.4 9.2 17.1
    endloop
  endfacet
  facet normal -0 0.997707 0.0676782
    outer loop
      vertex 8.7 6.59519 55.5
      vertex 1.6 6.1 62.8
      vertex 18.05 6.59519 55.5
    endloop
  endfacet
  facet normal 3.42076e-008 0.997707 0.0676782
    outer loop
      vertex 8.7 7.30744 45
      vertex 1.6 6.1 62.8
      vertex 8.7 6.59519 55.5
    endloop
  endfacet
  facet normal 0 0.997707 0.0676782
    outer loop
      vertex 18.05 7.30744 45
      vertex 13.6 7.53129 41.7
      vertex 8.7 7.30744 45
    endloop
  endfacet
  facet normal 6.15942e-009 0.997707 0.0676782
    outer loop
      vertex 13.291 7.53461 41.6511
      vertex 8.7 7.30744 45
      vertex 13.6 7.53129 41.7
    endloop
  endfacet
  facet normal 2.36908e-007 0.997707 0.0676785
    outer loop
      vertex 13.0122 7.54425 41.509
      vertex 8.7 7.30744 45
      vertex 13.291 7.53461 41.6511
    endloop
  endfacet
  facet normal -1.39634e-007 0.997707 0.067678
    outer loop
      vertex 12.791 7.55925 41.2878
      vertex 8.7 7.30744 45
      vertex 13.0122 7.54425 41.509
    endloop
  endfacet
  facet normal 3.35917e-007 0.997707 0.0676786
    outer loop
      vertex 12.6489 7.57816 41.009
      vertex 8.7 7.30744 45
      vertex 12.791 7.55925 41.2878
    endloop
  endfacet
  facet normal -1.06042e-007 0.997707 0.0676781
    outer loop
      vertex 12.6 7.59912 40.7
      vertex 8.7 7.30744 45
      vertex 12.6489 7.57816 41.009
    endloop
  endfacet
  facet normal -0 0.997707 0.0676782
    outer loop
      vertex -0.599999 9.2 17.1
      vertex 12.6 7.59912 40.7
      vertex 12.6 9.2 17.1
    endloop
  endfacet
  facet normal -4.17602e-008 0.997707 0.0676782
    outer loop
      vertex 12.6 7.59912 40.7
      vertex -0.599999 9.2 17.1
      vertex 8.7 7.30744 45
    endloop
  endfacet
  facet normal 2.72255e-010 0.997707 0.0676782
    outer loop
      vertex 8.7 7.30744 45
      vertex -0.599999 9.2 17.1
      vertex 1.6 6.1 62.8
    endloop
  endfacet
  facet normal -1 0 0
    outer loop
      vertex 18.55 0 62.8
      vertex 18.55 3.8 65.3
      vertex 18.55 3.8 62.8
    endloop
  endfacet
  facet normal -1 -0 0
    outer loop
      vertex 18.55 3.8 65.3
      vertex 18.55 0 62.8
      vertex 18.55 0 65.3
    endloop
  endfacet
  facet normal -0 0 1
    outer loop
      vertex 18.55 3.8 65.3
      vertex 106.45 0 65.3
      vertex 106.45 3.8 65.3
    endloop
  endfacet
  facet normal 0 0 1
    outer loop
      vertex 106.45 0 65.3
      vertex 18.55 3.8 65.3
      vertex 18.55 0 65.3
    endloop
  endfacet
  facet normal 1 -0 0
    outer loop
      vertex 106.45 0 65.3
      vertex 106.45 3.8 62.8
      vertex 106.45 3.8 65.3
    endloop
  endfacet
  facet normal 1 0 0
    outer loop
      vertex 106.45 3.8 62.8
      vertex 106.45 0 65.3
      vertex 106.45 0 62.8
    endloop
  endfacet
  facet normal 0 1 -0
    outer loop
      vertex 106.45 3.8 62.8
      vertex 18.55 3.8 65.3
      vertex 106.45 3.8 65.3
    endloop
  endfacet
  facet normal 0 1 0
    outer loop
      vertex 18.55 3.8 65.3
      vertex 106.45 3.8 62.8
      vertex 18.55 3.8 62.8
    endloop
  endfacet
  facet normal -1 0 0
    outer loop
      vertex -3.95 0 16.8
      vertex -3.95 5.1 16.9
      vertex -3.95 5.1 16.8
    endloop
  endfacet
  facet normal -1 -0 0
    outer loop
      vertex -3.95 5.1 16.9
      vertex -3.95 0 16.8
      vertex -3.95 0 16.9
    endloop
  endfacet
  facet normal 0 0 -1
    outer loop
      vertex -3.95 0 16.8
      vertex -0.591724 5.1 16.8
      vertex -0.591724 0 16.8
    endloop
  endfacet
  facet normal -0 0 -1
    outer loop
      vertex -0.591724 5.1 16.8
      vertex -3.95 0 16.8
      vertex -3.95 5.1 16.8
    endloop
  endfacet
  facet normal 0 0 -1
    outer loop
      vertex 125.592 0 16.8
      vertex 128.95 5.1 16.8
      vertex 128.95 0 16.8
    endloop
  endfacet
  facet normal -0 0 -1
    outer loop
      vertex 128.95 5.1 16.8
      vertex 125.592 0 16.8
      vertex 125.592 5.1 16.8
    endloop
  endfacet
  facet normal 0.999099 0 0.0424453
    outer loop
      vertex 128.95 0 16.9
      vertex 127 3.1 62.8
      vertex 127 0 62.8
    endloop
  endfacet
  facet normal 0.999099 0 0.0424453
    outer loop
      vertex 127 3.1 62.8
      vertex 128.95 0 16.9
      vertex 128.95 5.1 16.9
    endloop
  endfacet
  facet normal 1 -0 0
    outer loop
      vertex 128.95 0 16.9
      vertex 128.95 5.1 16.8
      vertex 128.95 5.1 16.9
    endloop
  endfacet
  facet normal 1 0 0
    outer loop
      vertex 128.95 5.1 16.8
      vertex 128.95 0 16.9
      vertex 128.95 0 16.8
    endloop
  endfacet
  facet normal -0.999099 0 0.0424454
    outer loop
      vertex -3.95 0 16.9
      vertex -2 3.1 62.8
      vertex -3.95 5.1 16.9
    endloop
  endfacet
  facet normal -0.999099 0 0.0424454
    outer loop
      vertex -2 3.1 62.8
      vertex -3.95 0 16.9
      vertex -2 0 62.8
    endloop
  endfacet
  facet normal 0 1 0
    outer loop
      vertex -3.95 5.1 16.8
      vertex -0.595861 5.1 16.9
      vertex -0.591724 5.1 16.8
    endloop
  endfacet
  facet normal 0 1 0
    outer loop
      vertex -0.595861 5.1 16.9
      vertex -3.95 5.1 16.8
      vertex -3.95 5.1 16.9
    endloop
  endfacet
  facet normal 0 1 -0
    outer loop
      vertex 128.95 5.1 16.8
      vertex 125.596 5.1 16.9
      vertex 128.95 5.1 16.9
    endloop
  endfacet
  facet normal 0 1 0
    outer loop
      vertex 125.596 5.1 16.9
      vertex 128.95 5.1 16.8
      vertex 125.592 5.1 16.8
    endloop
  endfacet
  facet normal 0 0.999052 0.0435317
    outer loop
      vertex 127 3.1 62.8
      vertex 125.6 5.09128 17.1
      vertex 123.4 3.1 62.8
    endloop
  endfacet
  facet normal -3.8493e-008 0.999052 0.0435317
    outer loop
      vertex 128.95 5.1 16.9
      vertex 125.6 5.09128 17.1
      vertex 127 3.1 62.8
    endloop
  endfacet
  facet normal 2.47857e-008 0.999052 0.0435327
    outer loop
      vertex 125.6 5.09128 17.1
      vertex 128.95 5.1 16.9
      vertex 125.6 5.09564 17
    endloop
  endfacet
  facet normal 0 0.999052 0.0435319
    outer loop
      vertex 125.6 5.09564 17
      vertex 128.95 5.1 16.9
      vertex 125.596 5.1 16.9
    endloop
  endfacet
  facet normal 0 0.999052 0.0435317
    outer loop
      vertex -0.599999 5.09128 17.1
      vertex -2 3.1 62.8
      vertex 1.6 3.1 62.8
    endloop
  endfacet
  facet normal -2.47857e-008 0.999052 0.0435327
    outer loop
      vertex -3.95 5.1 16.9
      vertex -0.599999 5.09128 17.1
      vertex -0.599999 5.09564 17
    endloop
  endfacet
  facet normal 3.84929e-008 0.999052 0.0435317
    outer loop
      vertex -0.599999 5.09128 17.1
      vertex -3.95 5.1 16.9
      vertex -2 3.1 62.8
    endloop
  endfacet
  facet normal -0 0.999052 0.0435319
    outer loop
      vertex -3.95 5.1 16.9
      vertex -0.599999 5.09564 17
      vertex -0.595861 5.1 16.9
    endloop
  endfacet
  facet normal -0.603442 0 -0.797407
    outer loop
      vertex 37.15 0 34.1
      vertex 39 1.5 32.7
      vertex 39 0 32.7
    endloop
  endfacet
  facet normal -0.603442 0 -0.797407
    outer loop
      vertex 39 1.5 32.7
      vertex 37.15 0 34.1
      vertex 37.15 1.5 34.1
    endloop
  endfacet
  facet normal -0 0 1
    outer loop
      vertex 24 1.5 28.5
      vertex 39 0 28.5
      vertex 39 1.5 28.5
    endloop
  endfacet
  facet normal 0 0 1
    outer loop
      vertex 39 0 28.5
      vertex 24 1.5 28.5
      vertex 24 0 28.5
    endloop
  endfacet
  facet normal 0 0 -1
    outer loop
      vertex 25.85 0 34.1
      vertex 37.15 1.5 34.1
      vertex 37.15 0 34.1
    endloop
  endfacet
  facet normal -0 0 -1
    outer loop
      vertex 37.15 1.5 34.1
      vertex 25.85 0 34.1
      vertex 25.85 1.5 34.1
    endloop
  endfacet
  facet normal -1 0 0
    outer loop
      vertex 39 0 28.5
      vertex 39 1.5 32.7
      vertex 39 1.5 28.5
    endloop
  endfacet
  facet normal -1 -0 0
    outer loop
      vertex 39 1.5 32.7
      vertex 39 0 28.5
      vertex 39 0 32.7
    endloop
  endfacet
  facet normal 1 -0 0
    outer loop
      vertex 24 0 32.7
      vertex 24 1.5 28.5
      vertex 24 1.5 32.7
    endloop
  endfacet
  facet normal 1 0 0
    outer loop
      vertex 24 1.5 28.5
      vertex 24 0 32.7
      vertex 24 0 28.5
    endloop
  endfacet
  facet normal 0.603442 0 -0.797407
    outer loop
      vertex 24 0 32.7
      vertex 25.85 1.5 34.1
      vertex 25.85 0 34.1
    endloop
  endfacet
  facet normal 0.603442 0 -0.797407
    outer loop
      vertex 25.85 1.5 34.1
      vertex 24 0 32.7
      vertex 24 1.5 32.7
    endloop
  endfacet
  facet normal -0.987688 0 -0.156436
    outer loop
      vertex 56 0 31.1
      vertex 55.8532 1.5 32.0271
      vertex 56 1.5 31.1
    endloop
  endfacet
  facet normal -0.987688 -0 -0.156436
    outer loop
      vertex 55.8532 1.5 32.0271
      vertex 56 0 31.1
      vertex 55.8532 0 32.0271
    endloop
  endfacet
  facet normal 0.987689 -9.58703e-007 0.156432
    outer loop
      vertex 50.1468 0 30.1729
      vertex 50.0334 1.5 30.8893
      vertex 50.0133 0 31.0157
    endloop
  endfacet
  facet normal 0.987689 0 0.15643
    outer loop
      vertex 50.0334 1.5 30.8893
      vertex 50.1468 0 30.1729
      vertex 50.1468 1.5 30.1729
    endloop
  endfacet
  facet normal 0.156432 0 -0.987689
    outer loop
      vertex 52.0729 0 33.9532
      vertex 53 1.5 34.1
      vertex 53 0 34.1
    endloop
  endfacet
  facet normal 0.156432 0 -0.987689
    outer loop
      vertex 53 1.5 34.1
      vertex 52.0729 0 33.9532
      vertex 52.0729 1.5 33.9532
    endloop
  endfacet
  facet normal -0.156433 0 0.987688
    outer loop
      vertex 53 1.5 28.1
      vertex 53.9271 0 28.2468
      vertex 53.9271 1.5 28.2468
    endloop
  endfacet
  facet normal -0.156433 0 0.987688
    outer loop
      vertex 53.9271 0 28.2468
      vertex 53 1.5 28.1
      vertex 53 0 28.1
    endloop
  endfacet
  facet normal -0.891007 0 0.45399
    outer loop
      vertex 55.4271 0 29.3366
      vertex 55.8532 1.5 30.1729
      vertex 55.4271 1.5 29.3366
    endloop
  endfacet
  facet normal -0.891007 0 0.45399
    outer loop
      vertex 55.8532 1.5 30.1729
      vertex 55.4271 0 29.3366
      vertex 55.8532 0 30.1729
    endloop
  endfacet
  facet normal -0.453993 0 -0.891005
    outer loop
      vertex 53.9271 0 33.9532
      vertex 54.7634 1.5 33.5271
      vertex 54.7634 0 33.5271
    endloop
  endfacet
  facet normal -0.453993 0 -0.891005
    outer loop
      vertex 54.7634 1.5 33.5271
      vertex 53.9271 0 33.9532
      vertex 53.9271 1.5 33.9532
    endloop
  endfacet
  facet normal -0.891008 0 -0.453988
    outer loop
      vertex 55.8532 0 32.0271
      vertex 55.4271 1.5 32.8634
      vertex 55.8532 1.5 32.0271
    endloop
  endfacet
  facet normal -0.891008 -0 -0.453988
    outer loop
      vertex 55.4271 1.5 32.8634
      vertex 55.8532 0 32.0271
      vertex 55.4271 0 32.8634
    endloop
  endfacet
  facet normal -0.156432 0 -0.987689
    outer loop
      vertex 53 0 34.1
      vertex 53.9271 1.5 33.9532
      vertex 53.9271 0 33.9532
    endloop
  endfacet
  facet normal -0.156432 0 -0.987689
    outer loop
      vertex 53.9271 1.5 33.9532
      vertex 53 0 34.1
      vertex 53 1.5 34.1
    endloop
  endfacet
  facet normal 0.891006 0 -0.453991
    outer loop
      vertex 50.5729 0 32.8634
      vertex 50.1468 1.5 32.0271
      vertex 50.5729 1.5 32.8634
    endloop
  endfacet
  facet normal 0.891006 0 -0.453991
    outer loop
      vertex 50.1468 1.5 32.0271
      vertex 50.5729 0 32.8634
      vertex 50.1468 0 32.0271
    endloop
  endfacet
  facet normal 0.987689 0 -0.15643
    outer loop
      vertex 50.1335 0 31.9428
      vertex 50.1468 1.5 32.0271
      vertex 50.1468 0 32.0271
    endloop
  endfacet
  facet normal 0.987691 -5.42145e-007 -0.15642
    outer loop
      vertex 50.1468 1.5 32.0271
      vertex 50.1335 0 31.9428
      vertex 50.1135 1.5 31.8164
    endloop
  endfacet
  facet normal 0.453993 0 -0.891005
    outer loop
      vertex 51.2366 0 33.5271
      vertex 52.0729 1.5 33.9532
      vertex 52.0729 0 33.9532
    endloop
  endfacet
  facet normal 0.453993 0 -0.891005
    outer loop
      vertex 52.0729 1.5 33.9532
      vertex 51.2366 0 33.5271
      vertex 51.2366 1.5 33.5271
    endloop
  endfacet
  facet normal -0.987688 0 0.156435
    outer loop
      vertex 55.8532 0 30.1729
      vertex 56 1.5 31.1
      vertex 55.8532 1.5 30.1729
    endloop
  endfacet
  facet normal -0.987688 0 0.156435
    outer loop
      vertex 56 1.5 31.1
      vertex 55.8532 0 30.1729
      vertex 56 0 31.1
    endloop
  endfacet
  facet normal -0.707105 0 -0.707109
    outer loop
      vertex 54.7634 0 33.5271
      vertex 55.4271 1.5 32.8634
      vertex 55.4271 0 32.8634
    endloop
  endfacet
  facet normal -0.707105 0 -0.707109
    outer loop
      vertex 55.4271 1.5 32.8634
      vertex 54.7634 0 33.5271
      vertex 54.7634 1.5 33.5271
    endloop
  endfacet
  facet normal 0.987689 -1.55312e-006 -0.156432
    outer loop
      vertex 50 0 31.1
      vertex 50.1135 1.5 31.8164
      vertex 50.1335 0 31.9428
    endloop
  endfacet
  facet normal 0.987688 0 -0.156435
    outer loop
      vertex 50.1135 1.5 31.8164
      vertex 50 0 31.1
      vertex 50 1.5 31.1
    endloop
  endfacet
  facet normal 0.98769 0 0.156426
    outer loop
      vertex 50.0133 0 31.0157
      vertex 50 1.5 31.1
      vertex 50 0 31.1
    endloop
  endfacet
  facet normal 0.987688 -5.81932e-007 0.156436
    outer loop
      vertex 50 1.5 31.1
      vertex 50.0133 0 31.0157
      vertex 50.0334 1.5 30.8893
    endloop
  endfacet
  facet normal 0.707105 0 -0.707109
    outer loop
      vertex 50.5729 0 32.8634
      vertex 51.2366 1.5 33.5271
      vertex 51.2366 0 33.5271
    endloop
  endfacet
  facet normal 0.707105 0 -0.707109
    outer loop
      vertex 51.2366 1.5 33.5271
      vertex 50.5729 0 32.8634
      vertex 50.5729 1.5 32.8634
    endloop
  endfacet
  facet normal -0.453991 0 0.891006
    outer loop
      vertex 53.9271 1.5 28.2468
      vertex 54.7634 0 28.6729
      vertex 54.7634 1.5 28.6729
    endloop
  endfacet
  facet normal -0.453991 0 0.891006
    outer loop
      vertex 54.7634 0 28.6729
      vertex 53.9271 1.5 28.2468
      vertex 53.9271 0 28.2468
    endloop
  endfacet
  facet normal -0.707107 0 0.707107
    outer loop
      vertex 54.7634 0 28.6729
      vertex 55.4271 1.5 29.3366
      vertex 54.7634 1.5 28.6729
    endloop
  endfacet
  facet normal -0.707107 0 0.707107
    outer loop
      vertex 55.4271 1.5 29.3366
      vertex 54.7634 0 28.6729
      vertex 55.4271 0 29.3366
    endloop
  endfacet
  facet normal 0.156433 0 0.987688
    outer loop
      vertex 52.0729 1.5 28.2468
      vertex 53 0 28.1
      vertex 53 1.5 28.1
    endloop
  endfacet
  facet normal 0.156433 0 0.987688
    outer loop
      vertex 53 0 28.1
      vertex 52.0729 1.5 28.2468
      vertex 52.0729 0 28.2468
    endloop
  endfacet
  facet normal 0.707107 -0 0.707107
    outer loop
      vertex 50.5729 0 29.3366
      vertex 51.2366 1.5 28.6729
      vertex 50.5729 1.5 29.3366
    endloop
  endfacet
  facet normal 0.707107 0 0.707107
    outer loop
      vertex 51.2366 1.5 28.6729
      vertex 50.5729 0 29.3366
      vertex 51.2366 0 28.6729
    endloop
  endfacet
  facet normal 0.891005 -0 0.453993
    outer loop
      vertex 50.1468 0 30.1729
      vertex 50.5729 1.5 29.3366
      vertex 50.1468 1.5 30.1729
    endloop
  endfacet
  facet normal 0.891005 0 0.453993
    outer loop
      vertex 50.5729 1.5 29.3366
      vertex 50.1468 0 30.1729
      vertex 50.5729 0 29.3366
    endloop
  endfacet
  facet normal 0.453991 0 0.891006
    outer loop
      vertex 51.2366 1.5 28.6729
      vertex 52.0729 0 28.2468
      vertex 52.0729 1.5 28.2468
    endloop
  endfacet
  facet normal 0.453991 0 0.891006
    outer loop
      vertex 52.0729 0 28.2468
      vertex 51.2366 1.5 28.6729
      vertex 51.2366 0 28.6729
    endloop
  endfacet
  facet normal -0.453991 0 0.891006
    outer loop
      vertex 19.6723 0 45.257
      vertex 21.1359 7.23943 46.0027
      vertex 19.6723 7.29001 45.257
    endloop
  endfacet
  facet normal -0.453991 0 0.891006
    outer loop
      vertex 21.1359 7.23943 46.0027
      vertex 19.6723 0 45.257
      vertex 21.1359 0 46.0027
    endloop
  endfacet
  facet normal 1 0 0
    outer loop
      vertex 8.7 0 45
      vertex 8.7 6.59519 55.5
      vertex 8.7 0 55.5
    endloop
  endfacet
  facet normal 1 0 0
    outer loop
      vertex 8.7 6.59519 55.5
      vertex 8.7 0 45
      vertex 8.7 7.30744 45
    endloop
  endfacet
  facet normal -0.156435 0 0.987688
    outer loop
      vertex 18.05 0 45
      vertex 19.6723 7.29001 45.257
      vertex 18.05 7.30744 45
    endloop
  endfacet
  facet normal -0.156435 0 0.987688
    outer loop
      vertex 19.6723 7.29001 45.257
      vertex 18.05 0 45
      vertex 19.6723 0 45.257
    endloop
  endfacet
  facet normal -0.891007 0 0.45399
    outer loop
      vertex 22.2973 0 47.1641
      vertex 23.043 7.06136 48.6277
      vertex 22.2973 7.16064 47.1641
    endloop
  endfacet
  facet normal -0.891007 0 0.45399
    outer loop
      vertex 23.043 7.06136 48.6277
      vertex 22.2973 0 47.1641
      vertex 23.043 0 48.6277
    endloop
  endfacet
  facet normal 0 0 -1
    outer loop
      vertex 8.7 0 55.5
      vertex 18.05 6.59519 55.5
      vertex 18.05 0 55.5
    endloop
  endfacet
  facet normal -0 0 -1
    outer loop
      vertex 18.05 6.59519 55.5
      vertex 8.7 0 55.5
      vertex 8.7 6.59519 55.5
    endloop
  endfacet
  facet normal -0.891007 0 -0.45399
    outer loop
      vertex 23.043 0 51.8723
      vertex 22.2973 6.74199 53.3359
      vertex 23.043 6.84126 51.8723
    endloop
  endfacet
  facet normal -0.891007 -0 -0.45399
    outer loop
      vertex 22.2973 6.74199 53.3359
      vertex 23.043 0 51.8723
      vertex 22.2973 0 53.3359
    endloop
  endfacet
  facet normal -0 0 1
    outer loop
      vertex 8.7 7.30744 45
      vertex 18.05 0 45
      vertex 18.05 7.30744 45
    endloop
  endfacet
  facet normal 0 0 1
    outer loop
      vertex 18.05 0 45
      vertex 8.7 7.30744 45
      vertex 8.7 0 45
    endloop
  endfacet
  facet normal -0.707106 0 0.707107
    outer loop
      vertex 21.1359 0 46.0027
      vertex 22.2973 7.16064 47.1641
      vertex 21.1359 7.23943 46.0027
    endloop
  endfacet
  facet normal -0.707106 0 0.707107
    outer loop
      vertex 22.2973 7.16064 47.1641
      vertex 21.1359 0 46.0027
      vertex 22.2973 0 47.1641
    endloop
  endfacet
  facet normal -0.987688 0 0.156435
    outer loop
      vertex 23.043 0 48.6277
      vertex 23.3 6.95131 50.25
      vertex 23.043 7.06136 48.6277
    endloop
  endfacet
  facet normal -0.987688 0 0.156435
    outer loop
      vertex 23.3 6.95131 50.25
      vertex 23.043 0 48.6277
      vertex 23.3 0 50.25
    endloop
  endfacet
  facet normal -0.156435 -0 -0.987688
    outer loop
      vertex 18.05 6.59519 55.5
      vertex 19.6723 0 55.243
      vertex 18.05 0 55.5
    endloop
  endfacet
  facet normal -0.156435 0 -0.987688
    outer loop
      vertex 19.6723 0 55.243
      vertex 18.05 6.59519 55.5
      vertex 19.6723 6.61262 55.243
    endloop
  endfacet
  facet normal -0.987688 0 -0.156435
    outer loop
      vertex 23.3 0 50.25
      vertex 23.043 6.84126 51.8723
      vertex 23.3 6.95131 50.25
    endloop
  endfacet
  facet normal -0.987688 -0 -0.156435
    outer loop
      vertex 23.043 6.84126 51.8723
      vertex 23.3 0 50.25
      vertex 23.043 0 51.8723
    endloop
  endfacet
  facet normal -0.707106 -0 -0.707107
    outer loop
      vertex 21.1359 6.6632 54.4973
      vertex 22.2973 0 53.3359
      vertex 21.1359 0 54.4973
    endloop
  endfacet
  facet normal -0.707106 0 -0.707107
    outer loop
      vertex 22.2973 0 53.3359
      vertex 21.1359 6.6632 54.4973
      vertex 22.2973 6.74199 53.3359
    endloop
  endfacet
  facet normal -0.453991 -0 -0.891006
    outer loop
      vertex 19.6723 6.61262 55.243
      vertex 21.1359 0 54.4973
      vertex 19.6723 0 55.243
    endloop
  endfacet
  facet normal -0.453991 0 -0.891006
    outer loop
      vertex 21.1359 0 54.4973
      vertex 19.6723 6.61262 55.243
      vertex 21.1359 6.6632 54.4973
    endloop
  endfacet
  facet normal 0.707107 -0 0.707107
    outer loop
      vertex 12.791 1.5 5.91221
      vertex 13.0122 8.81003 5.69098
      vertex 12.791 8.81766 5.91221
    endloop
  endfacet
  facet normal 0.707107 0 0.707107
    outer loop
      vertex 13.0122 8.81003 5.69098
      vertex 12.791 1.5 5.91221
      vertex 13.0122 1.5 5.69098
    endloop
  endfacet
  facet normal 0 0 -1
    outer loop
      vertex 13.6 1.5 41.7
      vertex 111.4 7.53129 41.7
      vertex 111.4 1.5 41.7
    endloop
  endfacet
  facet normal -0 0 -1
    outer loop
      vertex 111.4 7.53129 41.7
      vertex 13.6 1.5 41.7
      vertex 13.6 7.53129 41.7
    endloop
  endfacet
  facet normal 0 1 -0
    outer loop
      vertex 52.0729 1.5 33.9532
      vertex 37.15 1.5 34.1
      vertex 53 1.5 34.1
    endloop
  endfacet
  facet normal 0 1 -0
    outer loop
      vertex 51.2366 1.5 33.5271
      vertex 37.15 1.5 34.1
      vertex 52.0729 1.5 33.9532
    endloop
  endfacet
  facet normal 0 1 0
    outer loop
      vertex 39 1.5 32.7
      vertex 51.2366 1.5 33.5271
      vertex 50.5729 1.5 32.8634
    endloop
  endfacet
  facet normal 0 1 0
    outer loop
      vertex 51.2366 1.5 33.5271
      vertex 39 1.5 32.7
      vertex 37.15 1.5 34.1
    endloop
  endfacet
  facet normal 0 1 -0
    outer loop
      vertex 50.1468 1.5 32.0271
      vertex 39 1.5 32.7
      vertex 50.5729 1.5 32.8634
    endloop
  endfacet
  facet normal 0 1 -0
    outer loop
      vertex 50.1135 1.5 31.8164
      vertex 39 1.5 32.7
      vertex 50.1468 1.5 32.0271
    endloop
  endfacet
  facet normal 0 1 -0
    outer loop
      vertex 50 1.5 31.1
      vertex 39 1.5 32.7
      vertex 50.1135 1.5 31.8164
    endloop
  endfacet
  facet normal 0 1 0
    outer loop
      vertex 39 1.5 28.5
      vertex 50 1.5 31.1
      vertex 50.0334 1.5 30.8893
    endloop
  endfacet
  facet normal 0 1 0
    outer loop
      vertex 39 1.5 28.5
      vertex 50.0334 1.5 30.8893
      vertex 50.1468 1.5 30.1729
    endloop
  endfacet
  facet normal 0 1 0
    outer loop
      vertex 39 1.5 28.5
      vertex 50.1468 1.5 30.1729
      vertex 50.5729 1.5 29.3366
    endloop
  endfacet
  facet normal 0 1 0
    outer loop
      vertex 39 1.5 28.5
      vertex 50.5729 1.5 29.3366
      vertex 51.2366 1.5 28.6729
    endloop
  endfacet
  facet normal 0 1 0
    outer loop
      vertex 50 1.5 31.1
      vertex 39 1.5 28.5
      vertex 39 1.5 32.7
    endloop
  endfacet
  facet normal 0 1 0
    outer loop
      vertex 13.6 1.5 5.5
      vertex 39 1.5 28.5
      vertex 52.0729 1.5 28.2468
    endloop
  endfacet
  facet normal 0 1 0
    outer loop
      vertex 52.0729 1.5 28.2468
      vertex 39 1.5 28.5
      vertex 51.2366 1.5 28.6729
    endloop
  endfacet
  facet normal 0 1 0
    outer loop
      vertex 112.4 1.5 40.7
      vertex 111.4 1.5 41.7
      vertex 111.709 1.5 41.6511
    endloop
  endfacet
  facet normal 0 1 0
    outer loop
      vertex 111.4 1.5 41.7
      vertex 53 1.5 34.1
      vertex 13.6 1.5 41.7
    endloop
  endfacet
  facet normal 0 1 0
    outer loop
      vertex 112.4 1.5 40.7
      vertex 111.709 1.5 41.6511
      vertex 111.988 1.5 41.509
    endloop
  endfacet
  facet normal 0 1 -0
    outer loop
      vertex 37.15 1.5 34.1
      vertex 13.6 1.5 41.7
      vertex 53 1.5 34.1
    endloop
  endfacet
  facet normal 0 1 0
    outer loop
      vertex 112.4 1.5 40.7
      vertex 111.988 1.5 41.509
      vertex 112.209 1.5 41.2878
    endloop
  endfacet
  facet normal 0 1 -0
    outer loop
      vertex 25.85 1.5 34.1
      vertex 13.6 1.5 41.7
      vertex 37.15 1.5 34.1
    endloop
  endfacet
  facet normal 0 1 0
    outer loop
      vertex 112.4 1.5 40.7
      vertex 112.209 1.5 41.2878
      vertex 112.351 1.5 41.009
    endloop
  endfacet
  facet normal 0 1 -0
    outer loop
      vertex 24 1.5 32.7
      vertex 13.6 1.5 41.7
      vertex 25.85 1.5 34.1
    endloop
  endfacet
  facet normal 0 1 0
    outer loop
      vertex 111.4 1.5 41.7
      vertex 112.4 1.5 40.7
      vertex 111.4 1.5 5.5
    endloop
  endfacet
  facet normal -0 1 0
    outer loop
      vertex 12.6 1.5 40.7
      vertex 13.6 1.5 41.7
      vertex 24 1.5 32.7
    endloop
  endfacet
  facet normal 0 1 0
    outer loop
      vertex 13.6 1.5 41.7
      vertex 12.6 1.5 40.7
      vertex 13.291 1.5 41.6511
    endloop
  endfacet
  facet normal 0 1 0
    outer loop
      vertex 111.4 1.5 41.7
      vertex 53.9271 1.5 33.9532
      vertex 53 1.5 34.1
    endloop
  endfacet
  facet normal 0 1 0
    outer loop
      vertex 111.4 1.5 41.7
      vertex 54.7634 1.5 33.5271
      vertex 53.9271 1.5 33.9532
    endloop
  endfacet
  facet normal 0 1 0
    outer loop
      vertex 111.4 1.5 41.7
      vertex 55.4271 1.5 32.8634
      vertex 54.7634 1.5 33.5271
    endloop
  endfacet
  facet normal 0 1 0
    outer loop
      vertex 111.4 1.5 41.7
      vertex 55.8532 1.5 32.0271
      vertex 55.4271 1.5 32.8634
    endloop
  endfacet
  facet normal 0 1 0
    outer loop
      vertex 111.4 1.5 41.7
      vertex 56 1.5 31.1
      vertex 55.8532 1.5 32.0271
    endloop
  endfacet
  facet normal 0 1 0
    outer loop
      vertex 111.4 1.5 41.7
      vertex 55.8532 1.5 30.1729
      vertex 56 1.5 31.1
    endloop
  endfacet
  facet normal 0 1 0
    outer loop
      vertex 111.4 1.5 41.7
      vertex 111.4 1.5 5.5
      vertex 55.8532 1.5 30.1729
    endloop
  endfacet
  facet normal 0 1 0
    outer loop
      vertex 55.8532 1.5 30.1729
      vertex 111.4 1.5 5.5
      vertex 55.4271 1.5 29.3366
    endloop
  endfacet
  facet normal 0 1 0
    outer loop
      vertex 55.4271 1.5 29.3366
      vertex 111.4 1.5 5.5
      vertex 54.7634 1.5 28.6729
    endloop
  endfacet
  facet normal 0 1 0
    outer loop
      vertex 54.7634 1.5 28.6729
      vertex 111.4 1.5 5.5
      vertex 53.9271 1.5 28.2468
    endloop
  endfacet
  facet normal 0 1 0
    outer loop
      vertex 111.4 1.5 5.5
      vertex 112.4 1.5 40.7
      vertex 112.4 1.5 6.5
    endloop
  endfacet
  facet normal 0 1 0
    outer loop
      vertex 13.291 1.5 41.6511
      vertex 12.6 1.5 40.7
      vertex 13.0122 1.5 41.509
    endloop
  endfacet
  facet normal 0 1 0
    outer loop
      vertex 12.791 1.5 41.2878
      vertex 12.6 1.5 40.7
      vertex 12.6489 1.5 41.009
    endloop
  endfacet
  facet normal 0 1 0
    outer loop
      vertex 13.0122 1.5 41.509
      vertex 12.6 1.5 40.7
      vertex 12.791 1.5 41.2878
    endloop
  endfacet
  facet normal 0 1 -0
    outer loop
      vertex 24 1.5 28.5
      vertex 12.6 1.5 40.7
      vertex 24 1.5 32.7
    endloop
  endfacet
  facet normal 0 1 0
    outer loop
      vertex 13.6 1.5 5.5
      vertex 52.0729 1.5 28.2468
      vertex 53 1.5 28.1
    endloop
  endfacet
  facet normal 0 1 0
    outer loop
      vertex 53.9271 1.5 28.2468
      vertex 111.4 1.5 5.5
      vertex 53 1.5 28.1
    endloop
  endfacet
  facet normal 0 1 0
    outer loop
      vertex 24 1.5 28.5
      vertex 12.6 1.5 6.5
      vertex 12.6 1.5 40.7
    endloop
  endfacet
  facet normal 0 1 0
    outer loop
      vertex 13.6 1.5 5.5
      vertex 53 1.5 28.1
      vertex 111.4 1.5 5.5
    endloop
  endfacet
  facet normal 0 1 0
    outer loop
      vertex 111.4 1.5 5.5
      vertex 112.4 1.5 6.5
      vertex 112.351 1.5 6.19098
    endloop
  endfacet
  facet normal 0 1 0
    outer loop
      vertex 39 1.5 28.5
      vertex 13.6 1.5 5.5
      vertex 24 1.5 28.5
    endloop
  endfacet
  facet normal 0 1 0
    outer loop
      vertex 111.4 1.5 5.5
      vertex 112.351 1.5 6.19098
      vertex 112.209 1.5 5.91221
    endloop
  endfacet
  facet normal 0 1 0
    outer loop
      vertex 24 1.5 28.5
      vertex 13.6 1.5 5.5
      vertex 12.6 1.5 6.5
    endloop
  endfacet
  facet normal 0 1 0
    outer loop
      vertex 111.4 1.5 5.5
      vertex 112.209 1.5 5.91221
      vertex 111.988 1.5 5.69098
    endloop
  endfacet
  facet normal 0 1 0
    outer loop
      vertex 12.6 1.5 6.5
      vertex 13.6 1.5 5.5
      vertex 12.6489 1.5 6.19098
    endloop
  endfacet
  facet normal 0 1 0
    outer loop
      vertex 111.4 1.5 5.5
      vertex 111.988 1.5 5.69098
      vertex 111.709 1.5 5.54894
    endloop
  endfacet
  facet normal 0 1 0
    outer loop
      vertex 12.6489 1.5 6.19098
      vertex 13.6 1.5 5.5
      vertex 12.791 1.5 5.91221
    endloop
  endfacet
  facet normal 0 1 0
    outer loop
      vertex 12.791 1.5 5.91221
      vertex 13.6 1.5 5.5
      vertex 13.0122 1.5 5.69098
    endloop
  endfacet
  facet normal 0 1 0
    outer loop
      vertex 13.0122 1.5 5.69098
      vertex 13.6 1.5 5.5
      vertex 13.291 1.5 5.54894
    endloop
  endfacet
  facet normal 1 0 0
    outer loop
      vertex 12.6 1.5 6.5
      vertex 12.6 9.2 17
      vertex 12.6 9.2 17.1
    endloop
  endfacet
  facet normal 1 -0 0
    outer loop
      vertex 12.6 1.5 40.7
      vertex 12.6 9.2 17.1
      vertex 12.6 7.59912 40.7
    endloop
  endfacet
  facet normal 1 0 0
    outer loop
      vertex 12.6 9.2 17.1
      vertex 12.6 1.5 40.7
      vertex 12.6 1.5 6.5
    endloop
  endfacet
  facet normal 1 0 0
    outer loop
      vertex 12.6 9.2 17
      vertex 12.6 1.5 6.5
      vertex 12.6 8.83793 6.5
    endloop
  endfacet
  facet normal -1 0 0
    outer loop
      vertex 112.4 1.5 6.5
      vertex 112.4 9.2 17
      vertex 112.4 8.83793 6.5
    endloop
  endfacet
  facet normal -1 -0 0
    outer loop
      vertex 112.4 9.2 17
      vertex 112.4 1.5 6.5
      vertex 112.4 9.2 17.1
    endloop
  endfacet
  facet normal -1 0 0
    outer loop
      vertex 112.4 1.5 40.7
      vertex 112.4 9.2 17.1
      vertex 112.4 1.5 6.5
    endloop
  endfacet
  facet normal -1 0 0
    outer loop
      vertex 112.4 9.2 17.1
      vertex 112.4 1.5 40.7
      vertex 112.4 7.59912 40.7
    endloop
  endfacet
  facet normal -0.987689 0 -0.156432
    outer loop
      vertex 112.4 1.5 40.7
      vertex 112.351 7.57816 41.009
      vertex 112.4 7.59912 40.7
    endloop
  endfacet
  facet normal -0.987689 -0 -0.156432
    outer loop
      vertex 112.351 7.57816 41.009
      vertex 112.4 1.5 40.7
      vertex 112.351 1.5 41.009
    endloop
  endfacet
  facet normal -0.156445 -0 -0.987687
    outer loop
      vertex 111.4 7.53129 41.7
      vertex 111.709 1.5 41.6511
      vertex 111.4 1.5 41.7
    endloop
  endfacet
  facet normal -0.156445 0 -0.987687
    outer loop
      vertex 111.709 1.5 41.6511
      vertex 111.4 7.53129 41.7
      vertex 111.709 7.53461 41.6511
    endloop
  endfacet
  facet normal 0.453982 0 -0.891011
    outer loop
      vertex 13.0122 1.5 41.509
      vertex 13.291 7.53461 41.6511
      vertex 13.291 1.5 41.6511
    endloop
  endfacet
  facet normal 0.453982 0 -0.891011
    outer loop
      vertex 13.291 7.53461 41.6511
      vertex 13.0122 1.5 41.509
      vertex 13.0122 7.54425 41.509
    endloop
  endfacet
  facet normal 0.891005 0 -0.453994
    outer loop
      vertex 12.6489 1.5 41.009
      vertex 12.791 7.55925 41.2878
      vertex 12.791 1.5 41.2878
    endloop
  endfacet
  facet normal 0.891005 0 -0.453994
    outer loop
      vertex 12.791 7.55925 41.2878
      vertex 12.6489 1.5 41.009
      vertex 12.6489 7.57816 41.009
    endloop
  endfacet
  facet normal 0.987689 0 -0.156432
    outer loop
      vertex 12.6 1.5 40.7
      vertex 12.6489 7.57816 41.009
      vertex 12.6489 1.5 41.009
    endloop
  endfacet
  facet normal 0.987689 0 -0.156432
    outer loop
      vertex 12.6489 7.57816 41.009
      vertex 12.6 1.5 40.7
      vertex 12.6 7.59912 40.7
    endloop
  endfacet
  facet normal 0.156432 0 0.987689
    outer loop
      vertex 13.291 8.80514 5.54894
      vertex 13.6 1.5 5.5
      vertex 13.6 8.80345 5.5
    endloop
  endfacet
  facet normal 0.156432 0 0.987689
    outer loop
      vertex 13.6 1.5 5.5
      vertex 13.291 8.80514 5.54894
      vertex 13.291 1.5 5.54894
    endloop
  endfacet
  facet normal 0.987689 -1.01653e-008 0.156431
    outer loop
      vertex 12.6359 8.83012 6.27349
      vertex 12.6 8.83793 6.5
      vertex 12.6 1.5 6.5
    endloop
  endfacet
  facet normal -0.987689 0 0.156432
    outer loop
      vertex 112.4 1.5 6.5
      vertex 112.351 8.82728 6.19098
      vertex 112.351 1.5 6.19098
    endloop
  endfacet
  facet normal -0.987689 0 0.156432
    outer loop
      vertex 112.351 8.82728 6.19098
      vertex 112.4 1.5 6.5
      vertex 112.4 8.83793 6.5
    endloop
  endfacet
  facet normal 0.156444 0 -0.987687
    outer loop
      vertex 13.291 1.5 41.6511
      vertex 13.6 7.53129 41.7
      vertex 13.6 1.5 41.7
    endloop
  endfacet
  facet normal 0.156444 0 -0.987687
    outer loop
      vertex 13.6 7.53129 41.7
      vertex 13.291 1.5 41.6511
      vertex 13.291 7.53461 41.6511
    endloop
  endfacet
  facet normal 0.70711 0 -0.707104
    outer loop
      vertex 12.791 1.5 41.2878
      vertex 13.0122 7.54425 41.509
      vertex 13.0122 1.5 41.509
    endloop
  endfacet
  facet normal 0.70711 0 -0.707104
    outer loop
      vertex 13.0122 7.54425 41.509
      vertex 12.791 1.5 41.2878
      vertex 12.791 7.55925 41.2878
    endloop
  endfacet
  facet normal -0 0 1
    outer loop
      vertex 13.6 8.80345 5.5
      vertex 111.4 1.5 5.5
      vertex 111.4 8.80345 5.5
    endloop
  endfacet
  facet normal 0 0 1
    outer loop
      vertex 111.4 1.5 5.5
      vertex 13.6 8.80345 5.5
      vertex 13.6 1.5 5.5
    endloop
  endfacet
  facet normal 0.891006 -0 0.453992
    outer loop
      vertex 12.6489 1.5 6.19098
      vertex 12.791 8.81766 5.91221
      vertex 12.6489 8.82728 6.19098
    endloop
  endfacet
  facet normal 0.891006 0 0.453992
    outer loop
      vertex 12.791 8.81766 5.91221
      vertex 12.6489 1.5 6.19098
      vertex 12.791 1.5 5.91221
    endloop
  endfacet
  facet normal 0.453992 -0 0.891006
    outer loop
      vertex 13.0122 1.5 5.69098
      vertex 13.291 8.80514 5.54894
      vertex 13.0122 8.81003 5.69098
    endloop
  endfacet
  facet normal 0.453992 0 0.891006
    outer loop
      vertex 13.291 8.80514 5.54894
      vertex 13.0122 1.5 5.69098
      vertex 13.291 1.5 5.54894
    endloop
  endfacet
  facet normal -0.45398 -0 -0.891012
    outer loop
      vertex 111.709 7.53461 41.6511
      vertex 111.988 1.5 41.509
      vertex 111.709 1.5 41.6511
    endloop
  endfacet
  facet normal -0.45398 0 -0.891012
    outer loop
      vertex 111.988 1.5 41.509
      vertex 111.709 7.53461 41.6511
      vertex 111.988 7.54425 41.509
    endloop
  endfacet
  facet normal -0.156433 0 0.987689
    outer loop
      vertex 111.4 8.80345 5.5
      vertex 111.709 1.5 5.54894
      vertex 111.709 8.80514 5.54894
    endloop
  endfacet
  facet normal -0.156433 0 0.987689
    outer loop
      vertex 111.709 1.5 5.54894
      vertex 111.4 8.80345 5.5
      vertex 111.4 1.5 5.5
    endloop
  endfacet
  facet normal 0.987688 7.08866e-008 0.156434
    outer loop
      vertex 12.6 1.5 6.5
      vertex 12.6489 8.82728 6.19098
      vertex 12.6359 8.83012 6.27349
    endloop
  endfacet
  facet normal 0.987689 0 0.156432
    outer loop
      vertex 12.6489 8.82728 6.19098
      vertex 12.6 1.5 6.5
      vertex 12.6489 1.5 6.19098
    endloop
  endfacet
  facet normal -0.891 0 -0.454004
    outer loop
      vertex 112.351 1.5 41.009
      vertex 112.209 7.55925 41.2878
      vertex 112.351 7.57816 41.009
    endloop
  endfacet
  facet normal -0.891 -0 -0.454004
    outer loop
      vertex 112.209 7.55925 41.2878
      vertex 112.351 1.5 41.009
      vertex 112.209 1.5 41.2878
    endloop
  endfacet
  facet normal -0.707113 0 -0.707101
    outer loop
      vertex 112.209 1.5 41.2878
      vertex 111.988 7.54425 41.509
      vertex 112.209 7.55925 41.2878
    endloop
  endfacet
  facet normal -0.707113 -0 -0.707101
    outer loop
      vertex 111.988 7.54425 41.509
      vertex 112.209 1.5 41.2878
      vertex 111.988 1.5 41.509
    endloop
  endfacet
  facet normal -0.70711 0 0.707104
    outer loop
      vertex 112.209 1.5 5.91221
      vertex 111.988 8.81003 5.69098
      vertex 111.988 1.5 5.69098
    endloop
  endfacet
  facet normal -0.70711 0 0.707104
    outer loop
      vertex 111.988 8.81003 5.69098
      vertex 112.209 1.5 5.91221
      vertex 112.209 8.81766 5.91221
    endloop
  endfacet
  facet normal -0.891001 0 0.454002
    outer loop
      vertex 112.351 1.5 6.19098
      vertex 112.209 8.81766 5.91221
      vertex 112.209 1.5 5.91221
    endloop
  endfacet
  facet normal -0.891001 0 0.454002
    outer loop
      vertex 112.209 8.81766 5.91221
      vertex 112.351 1.5 6.19098
      vertex 112.351 8.82728 6.19098
    endloop
  endfacet
  facet normal -0.45399 0 0.891007
    outer loop
      vertex 111.709 8.80514 5.54894
      vertex 111.988 1.5 5.69098
      vertex 111.988 8.81003 5.69098
    endloop
  endfacet
  facet normal -0.45399 0 0.891007
    outer loop
      vertex 111.988 1.5 5.69098
      vertex 111.709 8.80514 5.54894
      vertex 111.709 1.5 5.54894
    endloop
  endfacet
endsolid OpenSCAD_Model
