solid OpenSCAD_Model
  facet normal 0.951057 0.309017 0
    outer loop
      vertex 4.75 0 11
      vertex 3.84283 2.79198 0
      vertex 3.84283 2.79198 11
    endloop
  endfacet
  facet normal 0.951057 0.309017 0
    outer loop
      vertex 3.84283 2.79198 0
      vertex 4.75 0 11
      vertex 4.75 0 0
    endloop
  endfacet
  facet normal -0.951057 0.309017 0
    outer loop
      vertex -4.75 0 0
      vertex -3.84283 2.79198 11
      vertex -3.84283 2.79198 0
    endloop
  endfacet
  facet normal -0.951057 0.309017 0
    outer loop
      vertex -3.84283 2.79198 11
      vertex -4.75 0 0
      vertex -4.75 0 11
    endloop
  endfacet
  facet normal 0 0 -1
    outer loop
      vertex 3.75 -1.75 0
      vertex 4.75 0 0
      vertex 3.84283 -2.79198 0
    endloop
  endfacet
  facet normal 0 0 -1
    outer loop
      vertex 3.75 1.75 0
      vertex 4.75 0 0
      vertex 3.75 -1.75 0
    endloop
  endfacet
  facet normal 0 0 -1
    outer loop
      vertex 1.46783 -4.51752 0
      vertex 3.75 -1.75 0
      vertex 3.84283 -2.79198 0
    endloop
  endfacet
  facet normal 0 0 -1
    outer loop
      vertex -1.46783 -4.51752 0
      vertex 3.75 -1.75 0
      vertex 1.46783 -4.51752 0
    endloop
  endfacet
  facet normal 0 0 -1
    outer loop
      vertex -1.46783 -4.51752 0
      vertex -3.75 -1.75 0
      vertex 3.75 -1.75 0
    endloop
  endfacet
  facet normal 0 0 -1
    outer loop
      vertex -4.75 0 0
      vertex -3.75 -1.75 0
      vertex -3.84283 -2.79198 0
    endloop
  endfacet
  facet normal 0 0 -1
    outer loop
      vertex -3.84283 -2.79198 0
      vertex -3.75 -1.75 0
      vertex -1.46783 -4.51752 0
    endloop
  endfacet
  facet normal 0 0 -1
    outer loop
      vertex 4.75 0 0
      vertex 3.75 1.75 0
      vertex 3.84283 2.79198 0
    endloop
  endfacet
  facet normal 0 0 -1
    outer loop
      vertex 3.75 1.75 0
      vertex 2.18013 4 0
      vertex 3.84283 2.79198 0
    endloop
  endfacet
  facet normal 0 0 -1
    outer loop
      vertex 3.75 1.75 0
      vertex -2.18013 4 0
      vertex 2.18013 4 0
    endloop
  endfacet
  facet normal 0 0 -1
    outer loop
      vertex -3.75 1.75 0
      vertex -2.18013 4 0
      vertex 3.75 1.75 0
    endloop
  endfacet
  facet normal 0 0 -1
    outer loop
      vertex -3.75 1.75 0
      vertex -3.84283 2.79198 0
      vertex -2.18013 4 0
    endloop
  endfacet
  facet normal 0 0 -1
    outer loop
      vertex -3.75 -1.75 0
      vertex -4.75 0 0
      vertex -3.75 1.75 0
    endloop
  endfacet
  facet normal -0 0 -1
    outer loop
      vertex -3.75 1.75 0
      vertex -4.75 0 0
      vertex -3.84283 2.79198 0
    endloop
  endfacet
  facet normal 0.587785 0.809017 -0
    outer loop
      vertex 3.84283 2.79198 0
      vertex 2.18013 4 11
      vertex 3.84283 2.79198 11
    endloop
  endfacet
  facet normal 0.587785 0.809017 0
    outer loop
      vertex 2.18013 4 11
      vertex 3.84283 2.79198 0
      vertex 2.18013 4 0
    endloop
  endfacet
  facet normal -0 0 1
    outer loop
      vertex 2.75 2.75 11
      vertex 4.75 0 11
      vertex 3.84283 2.79198 11
    endloop
  endfacet
  facet normal 0 0 1
    outer loop
      vertex 2.75 -2.75 11
      vertex 4.75 0 11
      vertex 2.75 2.75 11
    endloop
  endfacet
  facet normal 0 0 1
    outer loop
      vertex 2.18013 4 11
      vertex 2.75 2.75 11
      vertex 3.84283 2.79198 11
    endloop
  endfacet
  facet normal -0 0 1
    outer loop
      vertex -2.18013 4 11
      vertex 2.75 2.75 11
      vertex 2.18013 4 11
    endloop
  endfacet
  facet normal 0 0 1
    outer loop
      vertex -2.18013 4 11
      vertex -2.75 2.75 11
      vertex 2.75 2.75 11
    endloop
  endfacet
  facet normal 0 0 1
    outer loop
      vertex -4.75 0 11
      vertex -2.75 2.75 11
      vertex -3.84283 2.79198 11
    endloop
  endfacet
  facet normal -0 0 1
    outer loop
      vertex -3.84283 2.79198 11
      vertex -2.75 2.75 11
      vertex -2.18013 4 11
    endloop
  endfacet
  facet normal 0 0 1
    outer loop
      vertex 4.75 0 11
      vertex 2.75 -2.75 11
      vertex 3.84283 -2.79198 11
    endloop
  endfacet
  facet normal 0 0 1
    outer loop
      vertex 2.75 -2.75 11
      vertex 1.46783 -4.51752 11
      vertex 3.84283 -2.79198 11
    endloop
  endfacet
  facet normal 0 0 1
    outer loop
      vertex 2.75 -2.75 11
      vertex -1.46783 -4.51752 11
      vertex 1.46783 -4.51752 11
    endloop
  endfacet
  facet normal -0 0 1
    outer loop
      vertex -2.75 -2.75 11
      vertex -1.46783 -4.51752 11
      vertex 2.75 -2.75 11
    endloop
  endfacet
  facet normal 0 0 1
    outer loop
      vertex -2.75 -2.75 11
      vertex -3.84283 -2.79198 11
      vertex -1.46783 -4.51752 11
    endloop
  endfacet
  facet normal 0 0 1
    outer loop
      vertex -2.75 2.75 11
      vertex -4.75 0 11
      vertex -2.75 -2.75 11
    endloop
  endfacet
  facet normal 0 0 1
    outer loop
      vertex -2.75 -2.75 11
      vertex -4.75 0 11
      vertex -3.84283 -2.79198 11
    endloop
  endfacet
  facet normal -0.587785 0.809017 0
    outer loop
      vertex -2.18013 4 0
      vertex -3.84283 2.79198 11
      vertex -2.18013 4 11
    endloop
  endfacet
  facet normal -0.587785 0.809017 0
    outer loop
      vertex -3.84283 2.79198 11
      vertex -2.18013 4 0
      vertex -3.84283 2.79198 0
    endloop
  endfacet
  facet normal 0 -1 0
    outer loop
      vertex -1.46783 -4.51752 0
      vertex 1.46783 -4.51752 11
      vertex -1.46783 -4.51752 11
    endloop
  endfacet
  facet normal 0 -1 -0
    outer loop
      vertex 1.46783 -4.51752 11
      vertex -1.46783 -4.51752 0
      vertex 1.46783 -4.51752 0
    endloop
  endfacet
  facet normal 0.587785 -0.809017 0
    outer loop
      vertex 1.46783 -4.51752 0
      vertex 3.84283 -2.79198 11
      vertex 1.46783 -4.51752 11
    endloop
  endfacet
  facet normal 0.587785 -0.809017 0
    outer loop
      vertex 3.84283 -2.79198 11
      vertex 1.46783 -4.51752 0
      vertex 3.84283 -2.79198 0
    endloop
  endfacet
  facet normal 0.951057 -0.309017 0
    outer loop
      vertex 3.84283 -2.79198 11
      vertex 4.75 0 0
      vertex 4.75 0 11
    endloop
  endfacet
  facet normal 0.951057 -0.309017 0
    outer loop
      vertex 4.75 0 0
      vertex 3.84283 -2.79198 11
      vertex 3.84283 -2.79198 0
    endloop
  endfacet
  facet normal -0.587785 -0.809017 0
    outer loop
      vertex -3.84283 -2.79198 0
      vertex -1.46783 -4.51752 11
      vertex -3.84283 -2.79198 11
    endloop
  endfacet
  facet normal -0.587785 -0.809017 -0
    outer loop
      vertex -1.46783 -4.51752 11
      vertex -3.84283 -2.79198 0
      vertex -1.46783 -4.51752 0
    endloop
  endfacet
  facet normal -0.951057 -0.309017 0
    outer loop
      vertex -3.84283 -2.79198 0
      vertex -4.75 0 11
      vertex -4.75 0 0
    endloop
  endfacet
  facet normal -0.951057 -0.309017 0
    outer loop
      vertex -4.75 0 11
      vertex -3.84283 -2.79198 0
      vertex -3.84283 -2.79198 11
    endloop
  endfacet
  facet normal 0 1 -0
    outer loop
      vertex 2.18013 4 0
      vertex -2.18013 4 11
      vertex 2.18013 4 11
    endloop
  endfacet
  facet normal 0 1 0
    outer loop
      vertex -2.18013 4 11
      vertex 2.18013 4 0
      vertex -2.18013 4 0
    endloop
  endfacet
  facet normal 1 -0 0
    outer loop
      vertex -3.75 -1.75 7
      vertex -3.75 1.75 0
      vertex -3.75 1.75 7
    endloop
  endfacet
  facet normal 1 0 0
    outer loop
      vertex -3.75 1.75 0
      vertex -3.75 -1.75 7
      vertex -3.75 -1.75 0
    endloop
  endfacet
  facet normal 0 0 -1
    outer loop
      vertex -3.75 -1.75 7
      vertex 3.75 1.75 7
      vertex 3.75 -1.75 7
    endloop
  endfacet
  facet normal -0 0 -1
    outer loop
      vertex 3.75 1.75 7
      vertex -3.75 -1.75 7
      vertex -3.75 1.75 7
    endloop
  endfacet
  facet normal -1 0 0
    outer loop
      vertex 3.75 -1.75 0
      vertex 3.75 1.75 7
      vertex 3.75 1.75 0
    endloop
  endfacet
  facet normal -1 -0 0
    outer loop
      vertex 3.75 1.75 7
      vertex 3.75 -1.75 0
      vertex 3.75 -1.75 7
    endloop
  endfacet
  facet normal 0 1 -0
    outer loop
      vertex 3.75 -1.75 0
      vertex -3.75 -1.75 7
      vertex 3.75 -1.75 7
    endloop
  endfacet
  facet normal 0 1 0
    outer loop
      vertex -3.75 -1.75 7
      vertex 3.75 -1.75 0
      vertex -3.75 -1.75 0
    endloop
  endfacet
  facet normal 0 -1 0
    outer loop
      vertex -3.75 1.75 0
      vertex 3.75 1.75 7
      vertex -3.75 1.75 7
    endloop
  endfacet
  facet normal 0 -1 -0
    outer loop
      vertex 3.75 1.75 7
      vertex -3.75 1.75 0
      vertex 3.75 1.75 0
    endloop
  endfacet
  facet normal -1 0 0
    outer loop
      vertex -2.75 -2.75 11
      vertex -2.75 2.75 19
      vertex -2.75 2.75 11
    endloop
  endfacet
  facet normal -1 -0 0
    outer loop
      vertex -2.75 2.75 19
      vertex -2.75 -2.75 11
      vertex -2.75 -2.75 19
    endloop
  endfacet
  facet normal -0 0 1
    outer loop
      vertex -2.75 2.75 19
      vertex 2.75 -2.75 19
      vertex 2.75 2.75 19
    endloop
  endfacet
  facet normal 0 0 1
    outer loop
      vertex 2.75 -2.75 19
      vertex -2.75 2.75 19
      vertex -2.75 -2.75 19
    endloop
  endfacet
  facet normal 1 -0 0
    outer loop
      vertex 2.75 -2.75 19
      vertex 2.75 2.75 11
      vertex 2.75 2.75 19
    endloop
  endfacet
  facet normal 1 0 0
    outer loop
      vertex 2.75 2.75 11
      vertex 2.75 -2.75 19
      vertex 2.75 -2.75 11
    endloop
  endfacet
  facet normal 0 1 -0
    outer loop
      vertex 2.75 2.75 11
      vertex -2.75 2.75 19
      vertex 2.75 2.75 19
    endloop
  endfacet
  facet normal 0 1 0
    outer loop
      vertex -2.75 2.75 19
      vertex 2.75 2.75 11
      vertex -2.75 2.75 11
    endloop
  endfacet
  facet normal 0 -1 0
    outer loop
      vertex -2.75 -2.75 11
      vertex 2.75 -2.75 19
      vertex -2.75 -2.75 19
    endloop
  endfacet
  facet normal 0 -1 -0
    outer loop
      vertex 2.75 -2.75 19
      vertex -2.75 -2.75 11
      vertex 2.75 -2.75 11
    endloop
  endfacet
endsolid OpenSCAD_Model
