solid OpenSCAD_Model
  facet normal -1 0 0
    outer loop
      vertex 0 -0.2 10.8
      vertex 0 39.09 11.8
      vertex 0 39.09 10.8
    endloop
  endfacet
  facet normal -1 -0 0
    outer loop
      vertex 0 39.09 11.8
      vertex 0 -0.2 10.8
      vertex 0 -0.2 11.8
    endloop
  endfacet
  facet normal -1 0 0
    outer loop
      vertex 0 39.09 10.8
      vertex 0 41.09 6.1
      vertex 0 39.09 6.1
    endloop
  endfacet
  facet normal -1 0 0
    outer loop
      vertex 0 41.09 6.1
      vertex 0 39.09 10.8
      vertex 0 41.09 13.3
    endloop
  endfacet
  facet normal -1 0 0
    outer loop
      vertex 0 39.09 11.8
      vertex 0 41.09 13.3
      vertex 0 39.09 10.8
    endloop
  endfacet
  facet normal -1 0 0
    outer loop
      vertex 0 39.09 12.3
      vertex 0 41.09 13.3
      vertex 0 39.09 11.8
    endloop
  endfacet
  facet normal -1 0 0
    outer loop
      vertex 0 39.09 12.3
      vertex 0 39.09 13.3
      vertex 0 41.09 13.3
    endloop
  endfacet
  facet normal -1 0 0
    outer loop
      vertex 0 -0.2 12.3
      vertex 0 39.09 13.3
      vertex 0 39.09 12.3
    endloop
  endfacet
  facet normal -1 -0 0
    outer loop
      vertex 0 39.09 13.3
      vertex 0 -0.2 12.3
      vertex 0 -0.2 13.3
    endloop
  endfacet
  facet normal -0 0 1
    outer loop
      vertex 0 39.09 11.8
      vertex 3.5 -0.2 11.8
      vertex 3.5 39.09 11.8
    endloop
  endfacet
  facet normal 0 0 1
    outer loop
      vertex 3.5 -0.2 11.8
      vertex 0 39.09 11.8
      vertex 0 -0.2 11.8
    endloop
  endfacet
  facet normal 1 -0 0
    outer loop
      vertex 3.5 -0.2 11.8
      vertex 3.5 39.09 10.8
      vertex 3.5 39.09 11.8
    endloop
  endfacet
  facet normal 1 0 0
    outer loop
      vertex 3.5 39.09 10.8
      vertex 3.5 -0.2 11.8
      vertex 3.5 -0.2 10.8
    endloop
  endfacet
  facet normal 1 -0 0
    outer loop
      vertex 3.5 -0.2 13.3
      vertex 3.5 39.09 12.3
      vertex 3.5 39.09 13.3
    endloop
  endfacet
  facet normal 1 0 0
    outer loop
      vertex 3.5 39.09 12.3
      vertex 3.5 -0.2 13.3
      vertex 3.5 -0.2 12.3
    endloop
  endfacet
  facet normal 1 0 0
    outer loop
      vertex 3.5 39.09 12.3
      vertex 3.5 41.09 13.3
      vertex 3.5 39.09 13.3
    endloop
  endfacet
  facet normal 1 0 0
    outer loop
      vertex 3.5 39.09 11.8
      vertex 3.5 41.09 13.3
      vertex 3.5 39.09 12.3
    endloop
  endfacet
  facet normal 1 0 0
    outer loop
      vertex 3.5 39.09 10.8
      vertex 3.5 41.09 13.3
      vertex 3.5 39.09 11.8
    endloop
  endfacet
  facet normal 1 0 0
    outer loop
      vertex 3.5 41.09 13.3
      vertex 3.5 39.09 10.8
      vertex 3.5 41.09 6.1
    endloop
  endfacet
  facet normal 1 0 0
    outer loop
      vertex 3.5 41.09 6.1
      vertex 3.5 39.09 10.8
      vertex 3.5 39.09 6.1
    endloop
  endfacet
  facet normal 0 0 -1
    outer loop
      vertex 0 -0.2 10.8
      vertex 3.5 39.09 10.8
      vertex 3.5 -0.2 10.8
    endloop
  endfacet
  facet normal -0 0 -1
    outer loop
      vertex 3.5 39.09 10.8
      vertex 0 -0.2 10.8
      vertex 0 39.09 10.8
    endloop
  endfacet
  facet normal 0 -1 0
    outer loop
      vertex 0 -0.2 10.8
      vertex 3.5 -0.2 11.8
      vertex 0 -0.2 11.8
    endloop
  endfacet
  facet normal 0 -1 -0
    outer loop
      vertex 3.5 -0.2 11.8
      vertex 0 -0.2 10.8
      vertex 3.5 -0.2 10.8
    endloop
  endfacet
  facet normal -0 0 1
    outer loop
      vertex 0 39.09 13.3
      vertex 3.5 -0.2 13.3
      vertex 3.5 39.09 13.3
    endloop
  endfacet
  facet normal 0 0 1
    outer loop
      vertex 3.5 -0.2 13.3
      vertex 0 39.09 13.3
      vertex 0 -0.2 13.3
    endloop
  endfacet
  facet normal 0 0 -1
    outer loop
      vertex 0 -0.2 12.3
      vertex 3.5 39.09 12.3
      vertex 3.5 -0.2 12.3
    endloop
  endfacet
  facet normal -0 0 -1
    outer loop
      vertex 3.5 39.09 12.3
      vertex 0 -0.2 12.3
      vertex 0 39.09 12.3
    endloop
  endfacet
  facet normal 0 -1 0
    outer loop
      vertex 0 -0.2 12.3
      vertex 3.5 -0.2 13.3
      vertex 0 -0.2 13.3
    endloop
  endfacet
  facet normal 0 -1 -0
    outer loop
      vertex 3.5 -0.2 13.3
      vertex 0 -0.2 12.3
      vertex 3.5 -0.2 12.3
    endloop
  endfacet
  facet normal -1 0 0
    outer loop
      vertex 0 -0.279536 6.1
      vertex 0 -0.2 6.14053
      vertex 0 -0.2 6.1
    endloop
  endfacet
  facet normal -1 0 0
    outer loop
      vertex 0 -0.299999 6.1
      vertex 0 -0.2 6.14053
      vertex 0 -0.279536 6.1
    endloop
  endfacet
  facet normal -1 -0 0
    outer loop
      vertex 0 -0.2 6.14053
      vertex 0 -0.299999 6.1
      vertex 0 -0.2 9.85947
    endloop
  endfacet
  facet normal -1 0 0
    outer loop
      vertex 0 -0.299999 6.1
      vertex 0 -0.279536 6.1
      vertex 0 -0.299999 6.08957
    endloop
  endfacet
  facet normal -1 0 0
    outer loop
      vertex 0 -2.2 6.1
      vertex 0 -0.2 9.85947
      vertex 0 -0.299999 6.1
    endloop
  endfacet
  facet normal -1 -0 0
    outer loop
      vertex 0 -0.2 9.85947
      vertex 0 -2.2 6.1
      vertex 0 -2.2 13.3
    endloop
  endfacet
  facet normal -1 0 0
    outer loop
      vertex 0 -0.2 9.85947
      vertex 0 -2.2 13.3
      vertex 0 -0.2 13.3
    endloop
  endfacet
  facet normal -1 0 0
    outer loop
      vertex 0 0.663653 7.29699
      vertex 0 0.663653 8.70301
      vertex 0 0.775 8
    endloop
  endfacet
  facet normal -1 0 0
    outer loop
      vertex 0 0.340513 6.66279
      vertex 0 0.663653 8.70301
      vertex 0 0.663653 7.29699
    endloop
  endfacet
  facet normal -1 0 0
    outer loop
      vertex 0 0.340513 6.66279
      vertex 0 0.340513 9.33721
      vertex 0 0.663653 8.70301
    endloop
  endfacet
  facet normal -1 0 0
    outer loop
      vertex 0 -0.2 6.14053
      vertex 0 0.340513 6.66279
      vertex 0 -0.162788 6.15949
    endloop
  endfacet
  facet normal -1 -0 0
    outer loop
      vertex 0 0.340513 6.66279
      vertex 0 -0.2 6.14053
      vertex 0 0.340513 9.33721
    endloop
  endfacet
  facet normal -1 0 0
    outer loop
      vertex 0 -0.2 9.85947
      vertex 0 0.340513 9.33721
      vertex 0 -0.2 6.14053
    endloop
  endfacet
  facet normal -1 0 0
    outer loop
      vertex 0 0.340513 9.33721
      vertex 0 -0.2 9.85947
      vertex 0 -0.162788 9.84051
    endloop
  endfacet
  facet normal -0 0 1
    outer loop
      vertex 0 -0.2 13.3
      vertex 3.5 -2.2 13.3
      vertex 3.5 -0.2 13.3
    endloop
  endfacet
  facet normal 0 0 1
    outer loop
      vertex 3.5 -2.2 13.3
      vertex 0 -0.2 13.3
      vertex 0 -2.2 13.3
    endloop
  endfacet
  facet normal 1 -0 0
    outer loop
      vertex 3.5 -2.2 13.3
      vertex 3.5 -0.2 8.70301
      vertex 3.5 -0.2 13.3
    endloop
  endfacet
  facet normal 1 0 0
    outer loop
      vertex 3.5 -2.2 6.1
      vertex 3.5 -0.2 8.70301
      vertex 3.5 -2.2 13.3
    endloop
  endfacet
  facet normal 1 0 0
    outer loop
      vertex 3.5 -0.2 6.14053
      vertex 3.5 -0.279536 6.1
      vertex 3.5 -0.2 6.1
    endloop
  endfacet
  facet normal 1 0 0
    outer loop
      vertex 3.5 -0.2 6.14053
      vertex 3.5 -0.299999 6.1
      vertex 3.5 -0.279536 6.1
    endloop
  endfacet
  facet normal 1 0 -0
    outer loop
      vertex 3.5 -0.299999 6.1
      vertex 3.5 -0.2 8.70301
      vertex 3.5 -2.2 6.1
    endloop
  endfacet
  facet normal 1 0 0
    outer loop
      vertex 3.5 -0.2 8.70301
      vertex 3.5 -0.299999 6.1
      vertex 3.5 -0.2 6.14053
    endloop
  endfacet
  facet normal 1 -0 0
    outer loop
      vertex 3.5 -0.2 8.70301
      vertex 3.5 0.775 8
      vertex 3.5 0.663653 8.70301
    endloop
  endfacet
  facet normal 1 0 0
    outer loop
      vertex 3.5 0.775 8
      vertex 3.5 -0.2 8.70301
      vertex 3.5 0.663653 7.29699
    endloop
  endfacet
  facet normal 1 0 0
    outer loop
      vertex 3.5 0.663653 7.29699
      vertex 3.5 -0.2 8.70301
      vertex 3.5 0.340513 6.66279
    endloop
  endfacet
  facet normal 1 0 0
    outer loop
      vertex 3.5 -0.2 6.14053
      vertex 3.5 0.340513 6.66279
      vertex 3.5 -0.2 8.70301
    endloop
  endfacet
  facet normal 1 0 0
    outer loop
      vertex 3.5 0.340513 6.66279
      vertex 3.5 -0.2 6.14053
      vertex 3.5 -0.162788 6.15949
    endloop
  endfacet
  facet normal 1 0 0
    outer loop
      vertex 3.5 -0.279536 6.1
      vertex 3.5 -0.299999 6.1
      vertex 3.5 -0.299999 6.08957
    endloop
  endfacet
  facet normal 0 0 -1
    outer loop
      vertex 0 -0.279536 6.1
      vertex 3.5 -0.2 6.1
      vertex 3.5 -0.279536 6.1
    endloop
  endfacet
  facet normal -0 0 -1
    outer loop
      vertex 3.5 -0.2 6.1
      vertex 0 -0.279536 6.1
      vertex 0 -0.2 6.1
    endloop
  endfacet
  facet normal 0 0 -1
    outer loop
      vertex 0 -2.2 6.1
      vertex 3.5 -0.299999 6.1
      vertex 3.5 -2.2 6.1
    endloop
  endfacet
  facet normal -0 0 -1
    outer loop
      vertex 3.5 -0.299999 6.1
      vertex 0 -2.2 6.1
      vertex 0 -0.299999 6.1
    endloop
  endfacet
  facet normal 0 -1 0
    outer loop
      vertex 0 -2.2 6.1
      vertex 3.5 -2.2 13.3
      vertex 0 -2.2 13.3
    endloop
  endfacet
  facet normal 0 -1 -0
    outer loop
      vertex 3.5 -2.2 13.3
      vertex 0 -2.2 6.1
      vertex 3.5 -2.2 6.1
    endloop
  endfacet
  facet normal 0 1 0
    outer loop
      vertex 3.5 -0.2 13.3
      vertex 3.5 -0.2 9.85947
      vertex 0 -0.2 13.3
    endloop
  endfacet
  facet normal 0 1 0
    outer loop
      vertex 3.5 -0.2 13.3
      vertex 3.5 -0.2 9.56667
      vertex 3.5 -0.2 9.85947
    endloop
  endfacet
  facet normal 0 1 0
    outer loop
      vertex 3.5 -0.2 13.3
      vertex 3.5 -0.2 9.33049
      vertex 3.5 -0.2 9.56667
    endloop
  endfacet
  facet normal -0 1 0
    outer loop
      vertex 3.5 -0.2 9.33049
      vertex 3.5 -0.2 13.3
      vertex 3.5 -0.2 8.70301
    endloop
  endfacet
  facet normal 0 1 0
    outer loop
      vertex 0 -0.2 13.3
      vertex 3.5 -0.2 9.85947
      vertex 0 -0.2 9.85947
    endloop
  endfacet
  facet normal 0 1 -0
    outer loop
      vertex 3.5 -0.2 6.1
      vertex 0 -0.2 6.14053
      vertex 3.5 -0.2 6.14053
    endloop
  endfacet
  facet normal 0 1 0
    outer loop
      vertex 0 -0.2 6.14053
      vertex 3.5 -0.2 6.1
      vertex 0 -0.2 6.1
    endloop
  endfacet
  facet normal -0 0 1
    outer loop
      vertex 0 41.09 13.3
      vertex 3.5 39.09 13.3
      vertex 3.5 41.09 13.3
    endloop
  endfacet
  facet normal 0 0 1
    outer loop
      vertex 3.5 39.09 13.3
      vertex 0 41.09 13.3
      vertex 0 39.09 13.3
    endloop
  endfacet
  facet normal 0 1 -0
    outer loop
      vertex 3.5 41.09 6.1
      vertex 0 41.09 13.3
      vertex 3.5 41.09 13.3
    endloop
  endfacet
  facet normal 0 1 0
    outer loop
      vertex 0 41.09 13.3
      vertex 3.5 41.09 6.1
      vertex 0 41.09 6.1
    endloop
  endfacet
  facet normal 0 0 -1
    outer loop
      vertex 0 39.09 6.1
      vertex 3.5 41.09 6.1
      vertex 3.5 39.09 6.1
    endloop
  endfacet
  facet normal -0 0 -1
    outer loop
      vertex 3.5 41.09 6.1
      vertex 0 39.09 6.1
      vertex 0 41.09 6.1
    endloop
  endfacet
  facet normal 0 -1 0
    outer loop
      vertex 0 39.09 6.1
      vertex 3.5 39.09 10.8
      vertex 0 39.09 10.8
    endloop
  endfacet
  facet normal 0 -1 -0
    outer loop
      vertex 3.5 39.09 10.8
      vertex 0 39.09 6.1
      vertex 3.5 39.09 6.1
    endloop
  endfacet
  facet normal 0 -1 0
    outer loop
      vertex 0 39.09 11.8
      vertex 3.5 39.09 12.3
      vertex 0 39.09 12.3
    endloop
  endfacet
  facet normal 0 -1 -0
    outer loop
      vertex 3.5 39.09 12.3
      vertex 0 39.09 11.8
      vertex 3.5 39.09 11.8
    endloop
  endfacet
  facet normal 0 0.987688 0.156434
    outer loop
      vertex 3.5 0.775 8
      vertex 0 0.663653 8.70301
      vertex 3.5 0.663653 8.70301
    endloop
  endfacet
  facet normal 0 0.987688 0.156434
    outer loop
      vertex 0 0.663653 8.70301
      vertex 3.5 0.775 8
      vertex 0 0.775 8
    endloop
  endfacet
  facet normal 1 -5.52116e-07 0
    outer loop
      vertex 3.5 0.663653 8.70301
      vertex 3.5 -0.2 9.56667
      vertex 3.5 -0.2 9.33049
    endloop
  endfacet
  facet normal 0 0.891006 -0.453991
    outer loop
      vertex 3.5 0.340513 6.66279
      vertex 0 0.663653 7.29699
      vertex 3.5 0.663653 7.29699
    endloop
  endfacet
  facet normal 0 0.891006 -0.453991
    outer loop
      vertex 0 0.663653 7.29699
      vertex 3.5 0.340513 6.66279
      vertex 0 0.340513 6.66279
    endloop
  endfacet
  facet normal 0 0.453995 -0.891004
    outer loop
      vertex 0 -0.2 6.14053
      vertex 3.5 -0.162788 6.15949
      vertex 3.5 -0.2 6.14053
    endloop
  endfacet
  facet normal 0 0.453995 -0.891004
    outer loop
      vertex 3.5 -0.162788 6.15949
      vertex 0 -0.2 6.14053
      vertex 0 -0.162788 6.15949
    endloop
  endfacet
  facet normal 0 0.453984 -0.89101
    outer loop
      vertex 0 -0.299999 6.08957
      vertex 3.5 -0.279536 6.1
      vertex 3.5 -0.299999 6.08957
    endloop
  endfacet
  facet normal 0 0.453984 -0.89101
    outer loop
      vertex 3.5 -0.279536 6.1
      vertex 0 -0.299999 6.08957
      vertex 0 -0.279536 6.1
    endloop
  endfacet
  facet normal 0 0.987688 -0.156434
    outer loop
      vertex 3.5 0.663653 7.29699
      vertex 0 0.775 8
      vertex 3.5 0.775 8
    endloop
  endfacet
  facet normal 0 0.987688 -0.156434
    outer loop
      vertex 0 0.775 8
      vertex 3.5 0.663653 7.29699
      vertex 0 0.663653 7.29699
    endloop
  endfacet
  facet normal 0 0.707107 0.707106
    outer loop
      vertex 3.5 0.340513 9.33721
      vertex 0 -0.162788 9.84051
      vertex 3.5 -0.162788 9.84051
    endloop
  endfacet
  facet normal 0 0.707107 0.707106
    outer loop
      vertex 0 -0.162788 9.84051
      vertex 3.5 0.340513 9.33721
      vertex 0 0.340513 9.33721
    endloop
  endfacet
  facet normal -0 0.453985 0.891009
    outer loop
      vertex 0 -0.162788 9.84051
      vertex 3.5 -0.2 9.85947
      vertex 3.5 -0.162788 9.84051
    endloop
  endfacet
  facet normal 0 0.453985 0.891009
    outer loop
      vertex 3.5 -0.2 9.85947
      vertex 0 -0.162788 9.84051
      vertex 0 -0.2 9.85947
    endloop
  endfacet
  facet normal 1 8.29756e-07 1.62851e-06
    outer loop
      vertex 3.5 -0.2 9.56667
      vertex 3.5 -0.162788 9.84051
      vertex 3.5 -0.2 9.85947
    endloop
  endfacet
  facet normal 1 1.04689e-06 1.59901e-06
    outer loop
      vertex 3.5 -0.162788 9.84051
      vertex 3.5 -0.2 9.56667
      vertex 3.5 0.663653 8.70301
    endloop
  endfacet
  facet normal 0 0.891006 0.453991
    outer loop
      vertex 3.5 0.663653 8.70301
      vertex 0 0.340513 9.33721
      vertex 3.5 0.340513 9.33721
    endloop
  endfacet
  facet normal 0 0.891006 0.453991
    outer loop
      vertex 0 0.340513 9.33721
      vertex 3.5 0.663653 8.70301
      vertex 0 0.663653 8.70301
    endloop
  endfacet
  facet normal 1 0 7.59922e-07
    outer loop
      vertex 3.5 0.663653 8.70301
      vertex 3.5 -0.2 9.33049
      vertex 3.5 -0.2 8.70301
    endloop
  endfacet
  facet normal 0 0.707107 -0.707106
    outer loop
      vertex 3.5 -0.162788 6.15949
      vertex 0 0.340513 6.66279
      vertex 3.5 0.340513 6.66279
    endloop
  endfacet
  facet normal 0 0.707107 -0.707106
    outer loop
      vertex 0 0.340513 6.66279
      vertex 3.5 -0.162788 6.15949
      vertex 0 -0.162788 6.15949
    endloop
  endfacet
  facet normal 1 3.06593e-06 3.06592e-06
    outer loop
      vertex 3.5 0.340513 9.33721
      vertex 3.5 -0.162788 9.84051
      vertex 3.5 0.663653 8.70301
    endloop
  endfacet
  facet normal 0 -1 0
    outer loop
      vertex 0 -0.299999 6.08957
      vertex 3.5 -0.299999 6.1
      vertex 0 -0.299999 6.1
    endloop
  endfacet
  facet normal 0 -1 -0
    outer loop
      vertex 3.5 -0.299999 6.1
      vertex 0 -0.299999 6.08957
      vertex 3.5 -0.299999 6.08957
    endloop
  endfacet
  facet normal 1 -1.62518e-07 9.04751e-07
    outer loop
      vertex 3.5 39.09 9.40315
      vertex 3.5 39.09 9.66667
      vertex 3.5 38.1263 8.70301
    endloop
  endfacet
  facet normal 0 -0.891007 0.45399
    outer loop
      vertex 0 38.1263 8.70301
      vertex 3.5 38.4495 9.33721
      vertex 0 38.4495 9.33721
    endloop
  endfacet
  facet normal 0 -0.891007 0.45399
    outer loop
      vertex 3.5 38.4495 9.33721
      vertex 0 38.1263 8.70301
      vertex 3.5 38.1263 8.70301
    endloop
  endfacet
  facet normal 1 0 0
    outer loop
      vertex 3.5 39.09 8.70301
      vertex 3.5 38.9528 6.15949
      vertex 3.5 39.09 6.08957
    endloop
  endfacet
  facet normal 1 0 0
    outer loop
      vertex 3.5 39.09 8.70301
      vertex 3.5 38.4495 6.66279
      vertex 3.5 38.9528 6.15949
    endloop
  endfacet
  facet normal 1 0 0
    outer loop
      vertex 3.5 38.015 8
      vertex 3.5 39.09 8.70301
      vertex 3.5 38.1263 8.70301
    endloop
  endfacet
  facet normal 1 0 0
    outer loop
      vertex 3.5 39.09 8.70301
      vertex 3.5 38.1263 7.29699
      vertex 3.5 38.4495 6.66279
    endloop
  endfacet
  facet normal 1 0 0
    outer loop
      vertex 3.5 39.09 8.70301
      vertex 3.5 38.015 8
      vertex 3.5 38.1263 7.29699
    endloop
  endfacet
  facet normal 1 0 6.81064e-07
    outer loop
      vertex 3.5 39.09 8.70301
      vertex 3.5 39.09 9.40315
      vertex 3.5 38.1263 8.70301
    endloop
  endfacet
  facet normal 0 -0.987688 0.156436
    outer loop
      vertex 0 38.015 8
      vertex 3.5 38.1263 8.70301
      vertex 0 38.1263 8.70301
    endloop
  endfacet
  facet normal 0 -0.987688 0.156436
    outer loop
      vertex 3.5 38.1263 8.70301
      vertex 0 38.015 8
      vertex 3.5 38.015 8
    endloop
  endfacet
  facet normal -1 0 0
    outer loop
      vertex 0 38.4495 6.66279
      vertex 0 39.09 6.08957
      vertex 0 38.9528 6.15949
    endloop
  endfacet
  facet normal -1 0 0
    outer loop
      vertex 0 38.1263 7.29699
      vertex 0 39.09 6.08957
      vertex 0 38.4495 6.66279
    endloop
  endfacet
  facet normal -1 0 0
    outer loop
      vertex 0 39.09 6.08957
      vertex 0 38.1263 7.29699
      vertex 0 39.09 9.91043
    endloop
  endfacet
  facet normal -1 0 0
    outer loop
      vertex 0 39.09 9.91043
      vertex 0 38.4495 9.33721
      vertex 0 38.9528 9.84051
    endloop
  endfacet
  facet normal -1 0 0
    outer loop
      vertex 0 38.1263 8.70301
      vertex 0 39.09 9.91043
      vertex 0 38.1263 7.29699
    endloop
  endfacet
  facet normal -1 0 0
    outer loop
      vertex 0 39.09 9.91043
      vertex 0 38.1263 8.70301
      vertex 0 38.4495 9.33721
    endloop
  endfacet
  facet normal -1 0 -0
    outer loop
      vertex 0 38.1263 8.70301
      vertex 0 38.1263 7.29699
      vertex 0 38.015 8
    endloop
  endfacet
  facet normal 0 -0.453993 0.891005
    outer loop
      vertex 0 39.09 9.91043
      vertex 3.5 38.9528 9.84051
      vertex 3.5 39.09 9.91043
    endloop
  endfacet
  facet normal 0 -0.453993 0.891005
    outer loop
      vertex 3.5 38.9528 9.84051
      vertex 0 39.09 9.91043
      vertex 0 38.9528 9.84051
    endloop
  endfacet
  facet normal 0 -0.891007 -0.45399
    outer loop
      vertex 0 38.4495 6.66279
      vertex 3.5 38.1263 7.29699
      vertex 0 38.1263 7.29699
    endloop
  endfacet
  facet normal 0 -0.891007 -0.45399
    outer loop
      vertex 3.5 38.1263 7.29699
      vertex 0 38.4495 6.66279
      vertex 3.5 38.4495 6.66279
    endloop
  endfacet
  facet normal 0 -0.987688 -0.156435
    outer loop
      vertex 0 38.1263 7.29699
      vertex 3.5 38.015 8
      vertex 0 38.015 8
    endloop
  endfacet
  facet normal 0 -0.987688 -0.156435
    outer loop
      vertex 3.5 38.015 8
      vertex 0 38.1263 7.29699
      vertex 3.5 38.1263 7.29699
    endloop
  endfacet
  facet normal 0 -0.707106 0.707107
    outer loop
      vertex 0 38.9528 9.84051
      vertex 3.5 38.4495 9.33721
      vertex 3.5 38.9528 9.84051
    endloop
  endfacet
  facet normal 0 -0.707106 0.707107
    outer loop
      vertex 3.5 38.4495 9.33721
      vertex 0 38.9528 9.84051
      vertex 0 38.4495 9.33721
    endloop
  endfacet
  facet normal 1 -3.06589e-06 3.0659e-06
    outer loop
      vertex 3.5 38.9528 9.84051
      vertex 3.5 38.4495 9.33721
      vertex 3.5 38.1263 8.70301
    endloop
  endfacet
  facet normal 1 -4.98366e-07 9.78091e-07
    outer loop
      vertex 3.5 38.9528 9.84051
      vertex 3.5 39.09 9.66667
      vertex 3.5 39.09 9.91043
    endloop
  endfacet
  facet normal 1 -3.51653e-07 1.09389e-06
    outer loop
      vertex 3.5 39.09 9.66667
      vertex 3.5 38.9528 9.84051
      vertex 3.5 38.1263 8.70301
    endloop
  endfacet
  facet normal 0 -0.707106 -0.707107
    outer loop
      vertex 0 38.4495 6.66279
      vertex 3.5 38.9528 6.15949
      vertex 3.5 38.4495 6.66279
    endloop
  endfacet
  facet normal -0 -0.707106 -0.707107
    outer loop
      vertex 3.5 38.9528 6.15949
      vertex 0 38.4495 6.66279
      vertex 0 38.9528 6.15949
    endloop
  endfacet
  facet normal 0 -0.453991 -0.891006
    outer loop
      vertex 0 38.9528 6.15949
      vertex 3.5 39.09 6.08957
      vertex 3.5 38.9528 6.15949
    endloop
  endfacet
  facet normal -0 -0.453991 -0.891006
    outer loop
      vertex 3.5 39.09 6.08957
      vertex 0 38.9528 6.15949
      vertex 0 39.09 6.08957
    endloop
  endfacet
  facet normal 0 1 0
    outer loop
      vertex 3.5 39.09 9.66667
      vertex 0 39.09 9.91043
      vertex 3.5 39.09 9.91043
    endloop
  endfacet
  facet normal 0 1 0
    outer loop
      vertex 3.5 39.09 9.40315
      vertex 0 39.09 9.91043
      vertex 3.5 39.09 9.66667
    endloop
  endfacet
  facet normal 0 1 0
    outer loop
      vertex 3.5 39.09 8.70301
      vertex 0 39.09 9.91043
      vertex 3.5 39.09 9.40315
    endloop
  endfacet
  facet normal 0 1 0
    outer loop
      vertex 0 39.09 6.08957
      vertex 3.5 39.09 8.70301
      vertex 3.5 39.09 6.08957
    endloop
  endfacet
  facet normal 0 1 0
    outer loop
      vertex 3.5 39.09 8.70301
      vertex 0 39.09 6.08957
      vertex 0 39.09 9.91043
    endloop
  endfacet
endsolid OpenSCAD_Model
