solid OpenSCAD_Model
  facet normal -1 0 0
    outer loop
      vertex 0 3 0
      vertex 0 0 0
      vertex 0 3 2.64
    endloop
  endfacet
  facet normal -1 0 0
    outer loop
      vertex 0 33.89 0
      vertex 0 22.76 6.96
      vertex 0 33.89 2.64
    endloop
  endfacet
  facet normal -1 0 0
    outer loop
      vertex 0 22.76 6.96
      vertex 0 16.89 6.96
      vertex 0 22.76 12.7
    endloop
  endfacet
  facet normal -1 0 0
    outer loop
      vertex 0 7 0
      vertex 0 22.76 6.96
      vertex 0 33.89 0
    endloop
  endfacet
  facet normal -1 -0 0
    outer loop
      vertex 0 22.76 6.96
      vertex 0 7 0
      vertex 0 16.89 6.96
    endloop
  endfacet
  facet normal -1 0 0
    outer loop
      vertex 0 7 2.64
      vertex 0 16.89 6.96
      vertex 0 7 0
    endloop
  endfacet
  facet normal -1 0 0
    outer loop
      vertex 0 7 2.64
      vertex 0 3.64 6.96
      vertex 0 16.89 6.96
    endloop
  endfacet
  facet normal -1 0 0
    outer loop
      vertex 0 3 2.64
      vertex 0 3.64 6.96
      vertex 0 7 2.64
    endloop
  endfacet
  facet normal -1 0 0
    outer loop
      vertex 0 0 0
      vertex 0 3.64 6.96
      vertex 0 3 2.64
    endloop
  endfacet
  facet normal -1 -0 0
    outer loop
      vertex 0 3.64 6.96
      vertex 0 0 0
      vertex 0 0 12.7
    endloop
  endfacet
  facet normal -1 0 0
    outer loop
      vertex 0 3.64 6.96
      vertex 0 0 12.7
      vertex 0 3.64 12.7
    endloop
  endfacet
  facet normal -1 0 0
    outer loop
      vertex 0 33.89 2.64
      vertex 0 36.01 6.96
      vertex 0 37.89 2.64
    endloop
  endfacet
  facet normal -1 -0 0
    outer loop
      vertex 0 36.01 6.96
      vertex 0 33.89 2.64
      vertex 0 22.76 6.96
    endloop
  endfacet
  facet normal -1 0 0
    outer loop
      vertex 0 37.89 2.64
      vertex 0 38.89 0
      vertex 0 37.89 0
    endloop
  endfacet
  facet normal -1 0 0
    outer loop
      vertex 0 38.89 0
      vertex 0 37.89 2.64
      vertex 0 38.89 12.7
    endloop
  endfacet
  facet normal -1 0 0
    outer loop
      vertex 0 36.01 6.96
      vertex 0 38.89 12.7
      vertex 0 37.89 2.64
    endloop
  endfacet
  facet normal -1 -0 0
    outer loop
      vertex 0 38.89 12.7
      vertex 0 36.01 6.96
      vertex 0 36.01 12.7
    endloop
  endfacet
  facet normal -1 -0 0
    outer loop
      vertex 0 22.76 12.7
      vertex 0 16.89 6.96
      vertex 0 16.89 12.7
    endloop
  endfacet
  facet normal 1 0 0
    outer loop
      vertex 4.65 3.64 12.7
      vertex 4.65 1.32 12.7
      vertex 4.65 3.64 6.96
    endloop
  endfacet
  facet normal 1 0 0
    outer loop
      vertex 4.65 16.89 6.96
      vertex 4.65 18.65 12.7
      vertex 4.65 16.89 12.7
    endloop
  endfacet
  facet normal 1 0 0
    outer loop
      vertex 4.65 18.65 12.7
      vertex 4.65 16.89 6.96
      vertex 4.65 18.65 4.96
    endloop
  endfacet
  facet normal 1 -0 0
    outer loop
      vertex 4.65 3.64 6.96
      vertex 4.65 18.65 4.96
      vertex 4.65 16.89 6.96
    endloop
  endfacet
  facet normal 1 0 0
    outer loop
      vertex 4.65 3.64 6.96
      vertex 4.65 1.32 4.96
      vertex 4.65 18.65 4.96
    endloop
  endfacet
  facet normal 1 0 0
    outer loop
      vertex 4.65 1.32 4.96
      vertex 4.65 3.64 6.96
      vertex 4.65 1.32 12.7
    endloop
  endfacet
  facet normal 0 -1 0
    outer loop
      vertex 0 16.89 6.96
      vertex 4.65 16.89 12.7
      vertex 0 16.89 12.7
    endloop
  endfacet
  facet normal 0 -1 -0
    outer loop
      vertex 4.65 16.89 12.7
      vertex 0 16.89 6.96
      vertex 4.65 16.89 6.96
    endloop
  endfacet
  facet normal -0 0 1
    outer loop
      vertex 0 16.89 6.96
      vertex 4.65 3.64 6.96
      vertex 4.65 16.89 6.96
    endloop
  endfacet
  facet normal 0 0 1
    outer loop
      vertex 4.65 3.64 6.96
      vertex 0 16.89 6.96
      vertex 0 3.64 6.96
    endloop
  endfacet
  facet normal 0 1 -0
    outer loop
      vertex 4.65 3.64 6.96
      vertex 0 3.64 12.7
      vertex 4.65 3.64 12.7
    endloop
  endfacet
  facet normal 0 1 0
    outer loop
      vertex 0 3.64 12.7
      vertex 4.65 3.64 6.96
      vertex 0 3.64 6.96
    endloop
  endfacet
  facet normal 0 -1 0
    outer loop
      vertex 4.65 18.65 4.96
      vertex 12.32 18.65 12.7
      vertex 4.65 18.65 12.7
    endloop
  endfacet
  facet normal 0 -1 -0
    outer loop
      vertex 12.32 18.65 12.7
      vertex 4.65 18.65 4.96
      vertex 12.32 18.65 4.96
    endloop
  endfacet
  facet normal -0 0 1
    outer loop
      vertex 4.65 18.65 4.96
      vertex 12.32 1.32 4.96
      vertex 12.32 18.65 4.96
    endloop
  endfacet
  facet normal 0 0 1
    outer loop
      vertex 12.32 1.32 4.96
      vertex 4.65 18.65 4.96
      vertex 4.65 1.32 4.96
    endloop
  endfacet
  facet normal 0 1 -0
    outer loop
      vertex 12.32 1.32 4.96
      vertex 4.65 1.32 12.7
      vertex 12.32 1.32 12.7
    endloop
  endfacet
  facet normal 0 1 0
    outer loop
      vertex 4.65 1.32 12.7
      vertex 12.32 1.32 4.96
      vertex 4.65 1.32 4.96
    endloop
  endfacet
  facet normal 1 0 0
    outer loop
      vertex 4.65 22.76 12.7
      vertex 4.65 20.44 12.7
      vertex 4.65 22.76 6.96
    endloop
  endfacet
  facet normal 1 0 0
    outer loop
      vertex 4.65 36.01 6.96
      vertex 4.65 37.77 12.7
      vertex 4.65 36.01 12.7
    endloop
  endfacet
  facet normal 1 0 0
    outer loop
      vertex 4.65 37.77 12.7
      vertex 4.65 36.01 6.96
      vertex 4.65 37.77 4.96
    endloop
  endfacet
  facet normal 1 -0 0
    outer loop
      vertex 4.65 22.76 6.96
      vertex 4.65 37.77 4.96
      vertex 4.65 36.01 6.96
    endloop
  endfacet
  facet normal 1 0 0
    outer loop
      vertex 4.65 22.76 6.96
      vertex 4.65 20.44 4.96
      vertex 4.65 37.77 4.96
    endloop
  endfacet
  facet normal 1 0 0
    outer loop
      vertex 4.65 20.44 4.96
      vertex 4.65 22.76 6.96
      vertex 4.65 20.44 12.7
    endloop
  endfacet
  facet normal 0 -1 0
    outer loop
      vertex 0 36.01 6.96
      vertex 4.65 36.01 12.7
      vertex 0 36.01 12.7
    endloop
  endfacet
  facet normal 0 -1 -0
    outer loop
      vertex 4.65 36.01 12.7
      vertex 0 36.01 6.96
      vertex 4.65 36.01 6.96
    endloop
  endfacet
  facet normal -0 0 1
    outer loop
      vertex 0 36.01 6.96
      vertex 4.65 22.76 6.96
      vertex 4.65 36.01 6.96
    endloop
  endfacet
  facet normal 0 0 1
    outer loop
      vertex 4.65 22.76 6.96
      vertex 0 36.01 6.96
      vertex 0 22.76 6.96
    endloop
  endfacet
  facet normal 0 1 -0
    outer loop
      vertex 4.65 22.76 6.96
      vertex 0 22.76 12.7
      vertex 4.65 22.76 12.7
    endloop
  endfacet
  facet normal 0 1 0
    outer loop
      vertex 0 22.76 12.7
      vertex 4.65 22.76 6.96
      vertex 0 22.76 6.96
    endloop
  endfacet
  facet normal 0 -1 0
    outer loop
      vertex 4.65 37.77 4.96
      vertex 12.32 37.77 12.7
      vertex 4.65 37.77 12.7
    endloop
  endfacet
  facet normal 0 -1 -0
    outer loop
      vertex 12.32 37.77 12.7
      vertex 4.65 37.77 4.96
      vertex 12.32 37.77 4.96
    endloop
  endfacet
  facet normal -0 0 1
    outer loop
      vertex 4.65 37.77 4.96
      vertex 12.32 20.44 4.96
      vertex 12.32 37.77 4.96
    endloop
  endfacet
  facet normal 0 0 1
    outer loop
      vertex 12.32 20.44 4.96
      vertex 4.65 37.77 4.96
      vertex 4.65 20.44 4.96
    endloop
  endfacet
  facet normal 0 1 -0
    outer loop
      vertex 12.32 20.44 4.96
      vertex 4.65 20.44 12.7
      vertex 12.32 20.44 12.7
    endloop
  endfacet
  facet normal 0 1 0
    outer loop
      vertex 4.65 20.44 12.7
      vertex 12.32 20.44 4.96
      vertex 4.65 20.44 4.96
    endloop
  endfacet
  facet normal 0 0 1
    outer loop
      vertex 4.65 3.64 12.7
      vertex 0 3.64 12.7
      vertex 4.65 1.32 12.7
    endloop
  endfacet
  facet normal -0 0 1
    outer loop
      vertex 4.65 1.32 12.7
      vertex 12.32 0 12.7
      vertex 12.32 1.32 12.7
    endloop
  endfacet
  facet normal 0 0 1
    outer loop
      vertex 4.65 1.32 12.7
      vertex 0 0 12.7
      vertex 12.32 0 12.7
    endloop
  endfacet
  facet normal 0 0 1
    outer loop
      vertex 0 0 12.7
      vertex 4.65 1.32 12.7
      vertex 0 3.64 12.7
    endloop
  endfacet
  facet normal 0 0 1
    outer loop
      vertex 12.32 38.89 12.7
      vertex 4.65 37.77 12.7
      vertex 12.32 37.77 12.7
    endloop
  endfacet
  facet normal -0 0 1
    outer loop
      vertex 0 38.89 12.7
      vertex 4.65 37.77 12.7
      vertex 12.32 38.89 12.7
    endloop
  endfacet
  facet normal 0 0 1
    outer loop
      vertex 0 36.01 12.7
      vertex 4.65 37.77 12.7
      vertex 0 38.89 12.7
    endloop
  endfacet
  facet normal 0 0 1
    outer loop
      vertex 4.65 37.77 12.7
      vertex 0 36.01 12.7
      vertex 4.65 36.01 12.7
    endloop
  endfacet
  facet normal -0 0 1
    outer loop
      vertex 0 22.76 12.7
      vertex 4.65 20.44 12.7
      vertex 4.65 22.76 12.7
    endloop
  endfacet
  facet normal 0 0 1
    outer loop
      vertex 0 16.89 12.7
      vertex 4.65 20.44 12.7
      vertex 0 22.76 12.7
    endloop
  endfacet
  facet normal 0 0 1
    outer loop
      vertex 4.65 20.44 12.7
      vertex 0 16.89 12.7
      vertex 4.65 18.65 12.7
    endloop
  endfacet
  facet normal 0 0 1
    outer loop
      vertex 4.65 18.65 12.7
      vertex 0 16.89 12.7
      vertex 4.65 16.89 12.7
    endloop
  endfacet
  facet normal -0 0 1
    outer loop
      vertex 4.65 20.44 12.7
      vertex 12.32 18.65 12.7
      vertex 12.32 20.44 12.7
    endloop
  endfacet
  facet normal 0 0 1
    outer loop
      vertex 12.32 18.65 12.7
      vertex 4.65 20.44 12.7
      vertex 4.65 18.65 12.7
    endloop
  endfacet
  facet normal 1 0 0
    outer loop
      vertex 12.32 1.32 12.7
      vertex 12.32 0 12.7
      vertex 12.32 1.32 4.96
    endloop
  endfacet
  facet normal 1 0 0
    outer loop
      vertex 12.32 20.44 12.7
      vertex 12.32 18.65 12.7
      vertex 12.32 20.44 4.96
    endloop
  endfacet
  facet normal 1 -0 0
    outer loop
      vertex 12.32 37.77 12.7
      vertex 12.32 38.89 4.96
      vertex 12.32 38.89 12.7
    endloop
  endfacet
  facet normal 1 -0 0
    outer loop
      vertex 12.32 37.77 4.96
      vertex 12.32 38.89 4.96
      vertex 12.32 37.77 12.7
    endloop
  endfacet
  facet normal 1 -0 0
    outer loop
      vertex 12.32 20.44 4.96
      vertex 12.32 38.89 4.96
      vertex 12.32 37.77 4.96
    endloop
  endfacet
  facet normal 1 0 0
    outer loop
      vertex 12.32 18.65 4.96
      vertex 12.32 20.44 4.96
      vertex 12.32 18.65 12.7
    endloop
  endfacet
  facet normal 1 -0 0
    outer loop
      vertex 12.32 18.65 4.96
      vertex 12.32 38.89 4.96
      vertex 12.32 20.44 4.96
    endloop
  endfacet
  facet normal 1 -0 0
    outer loop
      vertex 12.32 1.32 4.96
      vertex 12.32 38.89 4.96
      vertex 12.32 18.65 4.96
    endloop
  endfacet
  facet normal 1 0 0
    outer loop
      vertex 12.32 1.32 4.96
      vertex 12.32 0 4.96
      vertex 12.32 38.89 4.96
    endloop
  endfacet
  facet normal 1 0 0
    outer loop
      vertex 12.32 0 4.96
      vertex 12.32 1.32 4.96
      vertex 12.32 0 12.7
    endloop
  endfacet
  facet normal 0 1 0
    outer loop
      vertex 27.58 38.89 4.96
      vertex 27.58 38.89 0
      vertex 12.32 38.89 4.96
    endloop
  endfacet
  facet normal 0 1 -0
    outer loop
      vertex 12.32 38.89 4.96
      vertex 0 38.89 12.7
      vertex 12.32 38.89 12.7
    endloop
  endfacet
  facet normal 0 1 0
    outer loop
      vertex 12.32 38.89 4.96
      vertex 0 38.89 0
      vertex 0 38.89 12.7
    endloop
  endfacet
  facet normal 0 1 0
    outer loop
      vertex 0 38.89 0
      vertex 12.32 38.89 4.96
      vertex 27.58 38.89 0
    endloop
  endfacet
  facet normal -0 0 1
    outer loop
      vertex 23.0435 33.4634 4.96
      vertex 24.08 6 4.96
      vertex 24.08 34.89 4.96
    endloop
  endfacet
  facet normal 0 0 1
    outer loop
      vertex 23.0435 33.4634 4.96
      vertex 23.0435 7.42658 4.96
      vertex 24.08 6 4.96
    endloop
  endfacet
  facet normal 0 0 1
    outer loop
      vertex 21.3665 34.0083 4.96
      vertex 23.0435 7.42658 4.96
      vertex 23.0435 33.4634 4.96
    endloop
  endfacet
  facet normal 0 0 1
    outer loop
      vertex 23.0435 7.42658 4.96
      vertex 21.3665 34.0083 4.96
      vertex 21.3665 6.88168 4.96
    endloop
  endfacet
  facet normal 0 0 1
    outer loop
      vertex 24.08 6 4.96
      vertex 27.58 38.89 4.96
      vertex 24.08 34.89 4.96
    endloop
  endfacet
  facet normal 0 0 1
    outer loop
      vertex 27.58 38.89 4.96
      vertex 23.0435 36.3166 4.96
      vertex 24.08 34.89 4.96
    endloop
  endfacet
  facet normal -0 0 1
    outer loop
      vertex 12.32 38.89 4.96
      vertex 23.0435 36.3166 4.96
      vertex 27.58 38.89 4.96
    endloop
  endfacet
  facet normal 0 0 1
    outer loop
      vertex 12.32 38.89 4.96
      vertex 21.3665 34.0083 4.96
      vertex 21.3665 35.7717 4.96
    endloop
  endfacet
  facet normal 0 0 1
    outer loop
      vertex 21.3665 34.0083 4.96
      vertex 12.32 38.89 4.96
      vertex 21.3665 6.88168 4.96
    endloop
  endfacet
  facet normal 0 0 1
    outer loop
      vertex 12.32 0 4.96
      vertex 21.3665 6.88168 4.96
      vertex 12.32 38.89 4.96
    endloop
  endfacet
  facet normal 0 0 1
    outer loop
      vertex 23.0435 36.3166 4.96
      vertex 12.32 38.89 4.96
      vertex 21.3665 35.7717 4.96
    endloop
  endfacet
  facet normal 0 0 1
    outer loop
      vertex 27.58 38.89 4.96
      vertex 24.08 6 4.96
      vertex 27.58 0 4.96
    endloop
  endfacet
  facet normal -0 0 1
    outer loop
      vertex 23.0435 4.57342 4.96
      vertex 27.58 0 4.96
      vertex 24.08 6 4.96
    endloop
  endfacet
  facet normal 0 0 1
    outer loop
      vertex 12.32 0 4.96
      vertex 23.0435 4.57342 4.96
      vertex 21.3665 5.11832 4.96
    endloop
  endfacet
  facet normal 0 0 1
    outer loop
      vertex 23.0435 4.57342 4.96
      vertex 12.32 0 4.96
      vertex 27.58 0 4.96
    endloop
  endfacet
  facet normal 0 0 1
    outer loop
      vertex 21.3665 6.88168 4.96
      vertex 12.32 0 4.96
      vertex 21.3665 5.11832 4.96
    endloop
  endfacet
  facet normal 0 -1 0
    outer loop
      vertex 0 0 12.7
      vertex 12.32 0 4.96
      vertex 12.32 0 12.7
    endloop
  endfacet
  facet normal 0 -1 0
    outer loop
      vertex 0 0 0
      vertex 12.32 0 4.96
      vertex 0 0 12.7
    endloop
  endfacet
  facet normal 0 -1 0
    outer loop
      vertex 27.58 0 0
      vertex 12.32 0 4.96
      vertex 0 0 0
    endloop
  endfacet
  facet normal 0 -1 0
    outer loop
      vertex 12.32 0 4.96
      vertex 27.58 0 0
      vertex 27.58 0 4.96
    endloop
  endfacet
  facet normal -0.809017 -0.587785 0
    outer loop
      vertex 24.08 6 0
      vertex 23.0435 7.42658 4.96
      vertex 23.0435 7.42658 0
    endloop
  endfacet
  facet normal -0.809017 -0.587785 0
    outer loop
      vertex 23.0435 7.42658 4.96
      vertex 24.08 6 0
      vertex 24.08 6 4.96
    endloop
  endfacet
  facet normal 1 -0 0
    outer loop
      vertex 21.3665 5.11832 4.96
      vertex 21.3665 6.88168 0
      vertex 21.3665 6.88168 4.96
    endloop
  endfacet
  facet normal 1 0 0
    outer loop
      vertex 21.3665 6.88168 0
      vertex 21.3665 5.11832 4.96
      vertex 21.3665 5.11832 0
    endloop
  endfacet
  facet normal 0.309017 -0.951057 0
    outer loop
      vertex 21.3665 6.88168 0
      vertex 23.0435 7.42658 4.96
      vertex 21.3665 6.88168 4.96
    endloop
  endfacet
  facet normal 0.309017 -0.951057 0
    outer loop
      vertex 23.0435 7.42658 4.96
      vertex 21.3665 6.88168 0
      vertex 23.0435 7.42658 0
    endloop
  endfacet
  facet normal 0 0 -1
    outer loop
      vertex 0 7 0
      vertex 14.8 33.89 0
      vertex 14.8 7 0
    endloop
  endfacet
  facet normal -0 0 -1
    outer loop
      vertex 14.8 33.89 0
      vertex 0 7 0
      vertex 0 33.89 0
    endloop
  endfacet
  facet normal 0 0 -1
    outer loop
      vertex 23.0435 7.42658 0
      vertex 24.08 34.89 0
      vertex 24.08 6 0
    endloop
  endfacet
  facet normal 0 0 -1
    outer loop
      vertex 23.0435 7.42658 0
      vertex 23.0435 33.4634 0
      vertex 24.08 34.89 0
    endloop
  endfacet
  facet normal 0 0 -1
    outer loop
      vertex 14.8 7 0
      vertex 23.0435 7.42658 0
      vertex 21.3665 6.88168 0
    endloop
  endfacet
  facet normal -0 0 -1
    outer loop
      vertex 23.0435 7.42658 0
      vertex 14.8 7 0
      vertex 23.0435 33.4634 0
    endloop
  endfacet
  facet normal 0 0 -1
    outer loop
      vertex 27.58 0 0
      vertex 24.08 6 0
      vertex 27.58 38.89 0
    endloop
  endfacet
  facet normal 0 0 -1
    outer loop
      vertex 27.58 0 0
      vertex 23.0435 4.57342 0
      vertex 24.08 6 0
    endloop
  endfacet
  facet normal 0 0 -1
    outer loop
      vertex 27.58 0 0
      vertex 21.3665 5.11832 0
      vertex 23.0435 4.57342 0
    endloop
  endfacet
  facet normal 0 0 -1
    outer loop
      vertex 14.8 7 0
      vertex 21.3665 6.88168 0
      vertex 21.3665 5.11832 0
    endloop
  endfacet
  facet normal 0 0 -1
    outer loop
      vertex 14.8 33.89 0
      vertex 23.0435 33.4634 0
      vertex 14.8 7 0
    endloop
  endfacet
  facet normal 0 0 -1
    outer loop
      vertex 14.8 7 0
      vertex 21.3665 5.11832 0
      vertex 14.8 5 0
    endloop
  endfacet
  facet normal 0 0 -1
    outer loop
      vertex 27.58 0 0
      vertex 14.8 5 0
      vertex 21.3665 5.11832 0
    endloop
  endfacet
  facet normal 0 0 -1
    outer loop
      vertex 27.58 0 0
      vertex 5 3 0
      vertex 14.8 5 0
    endloop
  endfacet
  facet normal 0 0 -1
    outer loop
      vertex 0 0 0
      vertex 5 3 0
      vertex 27.58 0 0
    endloop
  endfacet
  facet normal -0 0 -1
    outer loop
      vertex 5 3 0
      vertex 0 0 0
      vertex 0 3 0
    endloop
  endfacet
  facet normal 0 0 -1
    outer loop
      vertex 24.08 34.89 0
      vertex 27.58 38.89 0
      vertex 24.08 6 0
    endloop
  endfacet
  facet normal 0 0 -1
    outer loop
      vertex 23.0435 36.3166 0
      vertex 27.58 38.89 0
      vertex 24.08 34.89 0
    endloop
  endfacet
  facet normal 0 0 -1
    outer loop
      vertex 14.8 35.89 0
      vertex 23.0435 36.3166 0
      vertex 21.3665 35.7717 0
    endloop
  endfacet
  facet normal 0 0 -1
    outer loop
      vertex 23.0435 33.4634 0
      vertex 14.8 33.89 0
      vertex 21.3665 34.0083 0
    endloop
  endfacet
  facet normal -0 0 -1
    outer loop
      vertex 21.3665 34.0083 0
      vertex 14.8 33.89 0
      vertex 21.3665 35.7717 0
    endloop
  endfacet
  facet normal 0 0 -1
    outer loop
      vertex 14.8 35.89 0
      vertex 21.3665 35.7717 0
      vertex 14.8 33.89 0
    endloop
  endfacet
  facet normal -0 0 -1
    outer loop
      vertex 23.0435 36.3166 0
      vertex 14.8 35.89 0
      vertex 27.58 38.89 0
    endloop
  endfacet
  facet normal 0 0 -1
    outer loop
      vertex 5 37.89 0
      vertex 27.58 38.89 0
      vertex 14.8 35.89 0
    endloop
  endfacet
  facet normal 0 0 -1
    outer loop
      vertex 0 38.89 0
      vertex 5 37.89 0
      vertex 0 37.89 0
    endloop
  endfacet
  facet normal 0 0 -1
    outer loop
      vertex 5 37.89 0
      vertex 0 38.89 0
      vertex 27.58 38.89 0
    endloop
  endfacet
  facet normal -0.809017 0.587785 0
    outer loop
      vertex 23.0435 4.57342 0
      vertex 24.08 6 4.96
      vertex 24.08 6 0
    endloop
  endfacet
  facet normal -0.809017 0.587785 0
    outer loop
      vertex 24.08 6 4.96
      vertex 23.0435 4.57342 0
      vertex 23.0435 4.57342 4.96
    endloop
  endfacet
  facet normal 0.309016 0.951057 -0
    outer loop
      vertex 23.0435 4.57342 0
      vertex 21.3665 5.11832 4.96
      vertex 23.0435 4.57342 4.96
    endloop
  endfacet
  facet normal 0.309016 0.951057 0
    outer loop
      vertex 21.3665 5.11832 4.96
      vertex 23.0435 4.57342 0
      vertex 21.3665 5.11832 0
    endloop
  endfacet
  facet normal 0 1 -0
    outer loop
      vertex 5 3 0
      vertex 0 3 2.64
      vertex 5 3 2.64
    endloop
  endfacet
  facet normal 0 1 0
    outer loop
      vertex 0 3 2.64
      vertex 5 3 0
      vertex 0 3 0
    endloop
  endfacet
  facet normal 0 -1 0
    outer loop
      vertex 0 7 0
      vertex 14.8 7 2.64
      vertex 0 7 2.64
    endloop
  endfacet
  facet normal 0 -1 -0
    outer loop
      vertex 14.8 7 2.64
      vertex 0 7 0
      vertex 14.8 7 0
    endloop
  endfacet
  facet normal 0 0 -1
    outer loop
      vertex 5 3 2.64
      vertex 14.8 7 2.64
      vertex 14.8 5 2.64
    endloop
  endfacet
  facet normal 0 0 -1
    outer loop
      vertex 0 7 2.64
      vertex 5 3 2.64
      vertex 0 3 2.64
    endloop
  endfacet
  facet normal 0 0 -1
    outer loop
      vertex 5 3 2.64
      vertex 0 7 2.64
      vertex 14.8 7 2.64
    endloop
  endfacet
  facet normal -1 0 0
    outer loop
      vertex 14.8 5 0
      vertex 14.8 7 2.64
      vertex 14.8 7 0
    endloop
  endfacet
  facet normal -1 -0 0
    outer loop
      vertex 14.8 7 2.64
      vertex 14.8 5 0
      vertex 14.8 5 2.64
    endloop
  endfacet
  facet normal -0.19996 0.979804 0
    outer loop
      vertex 14.8 5 0
      vertex 5 3 2.64
      vertex 14.8 5 2.64
    endloop
  endfacet
  facet normal -0.19996 0.979804 0
    outer loop
      vertex 5 3 2.64
      vertex 14.8 5 0
      vertex 5 3 0
    endloop
  endfacet
  facet normal -0.809017 -0.587785 0
    outer loop
      vertex 24.08 34.89 0
      vertex 23.0435 36.3166 4.96
      vertex 23.0435 36.3166 0
    endloop
  endfacet
  facet normal -0.809017 -0.587785 0
    outer loop
      vertex 23.0435 36.3166 4.96
      vertex 24.08 34.89 0
      vertex 24.08 34.89 4.96
    endloop
  endfacet
  facet normal 1 -0 0
    outer loop
      vertex 21.3665 34.0083 4.96
      vertex 21.3665 35.7717 0
      vertex 21.3665 35.7717 4.96
    endloop
  endfacet
  facet normal 1 0 0
    outer loop
      vertex 21.3665 35.7717 0
      vertex 21.3665 34.0083 4.96
      vertex 21.3665 34.0083 0
    endloop
  endfacet
  facet normal 0.309017 -0.951057 0
    outer loop
      vertex 21.3665 35.7717 0
      vertex 23.0435 36.3166 4.96
      vertex 21.3665 35.7717 4.96
    endloop
  endfacet
  facet normal 0.309017 -0.951057 0
    outer loop
      vertex 23.0435 36.3166 4.96
      vertex 21.3665 35.7717 0
      vertex 23.0435 36.3166 0
    endloop
  endfacet
  facet normal 0.309015 0.951057 -0
    outer loop
      vertex 23.0435 33.4634 0
      vertex 21.3665 34.0083 4.96
      vertex 23.0435 33.4634 4.96
    endloop
  endfacet
  facet normal 0.309015 0.951057 0
    outer loop
      vertex 21.3665 34.0083 4.96
      vertex 23.0435 33.4634 0
      vertex 21.3665 34.0083 0
    endloop
  endfacet
  facet normal -0.809017 0.587786 0
    outer loop
      vertex 23.0435 33.4634 0
      vertex 24.08 34.89 4.96
      vertex 24.08 34.89 0
    endloop
  endfacet
  facet normal -0.809017 0.587786 0
    outer loop
      vertex 24.08 34.89 4.96
      vertex 23.0435 33.4634 0
      vertex 23.0435 33.4634 4.96
    endloop
  endfacet
  facet normal 0 0 -1
    outer loop
      vertex 14.8 33.89 2.64
      vertex 5 37.89 2.64
      vertex 14.8 35.89 2.64
    endloop
  endfacet
  facet normal 0 0 -1
    outer loop
      vertex 0 33.89 2.64
      vertex 5 37.89 2.64
      vertex 14.8 33.89 2.64
    endloop
  endfacet
  facet normal -0 0 -1
    outer loop
      vertex 5 37.89 2.64
      vertex 0 33.89 2.64
      vertex 0 37.89 2.64
    endloop
  endfacet
  facet normal 0 1 -0
    outer loop
      vertex 14.8 33.89 0
      vertex 0 33.89 2.64
      vertex 14.8 33.89 2.64
    endloop
  endfacet
  facet normal 0 1 0
    outer loop
      vertex 0 33.89 2.64
      vertex 14.8 33.89 0
      vertex 0 33.89 0
    endloop
  endfacet
  facet normal -1 0 0
    outer loop
      vertex 14.8 33.89 0
      vertex 14.8 35.89 2.64
      vertex 14.8 35.89 0
    endloop
  endfacet
  facet normal -1 -0 0
    outer loop
      vertex 14.8 35.89 2.64
      vertex 14.8 33.89 0
      vertex 14.8 33.89 2.64
    endloop
  endfacet
  facet normal 0 -1 0
    outer loop
      vertex 0 37.89 0
      vertex 5 37.89 2.64
      vertex 0 37.89 2.64
    endloop
  endfacet
  facet normal 0 -1 -0
    outer loop
      vertex 5 37.89 2.64
      vertex 0 37.89 0
      vertex 5 37.89 0
    endloop
  endfacet
  facet normal -0.19996 -0.979804 0
    outer loop
      vertex 5 37.89 0
      vertex 14.8 35.89 2.64
      vertex 5 37.89 2.64
    endloop
  endfacet
  facet normal -0.19996 -0.979804 -0
    outer loop
      vertex 14.8 35.89 2.64
      vertex 5 37.89 0
      vertex 14.8 35.89 0
    endloop
  endfacet
  facet normal 1 -0 0
    outer loop
      vertex 27.58 0 4.96
      vertex 27.58 38.89 0
      vertex 27.58 38.89 4.96
    endloop
  endfacet
  facet normal 1 0 0
    outer loop
      vertex 27.58 38.89 0
      vertex 27.58 0 4.96
      vertex 27.58 0 0
    endloop
  endfacet
endsolid OpenSCAD_Model
