solid OpenSCAD_Model
  facet normal 0.000000 -0.000000 -1.000000
    outer loop
      vertex -35.647803 -3.987599 0.000000
      vertex -35.647803 3.987599 0.000000
      vertex -28.405779 -0.657153 0.000000
    endloop
  endfacet
  facet normal 0.000000 0.000000 -1.000000
    outer loop
      vertex -28.405779 -0.657153 0.000000
      vertex -35.647803 3.987599 0.000000
      vertex -28.405779 0.657153 0.000000
    endloop
  endfacet
  facet normal 0.000000 -0.000000 -1.000000
    outer loop
      vertex -28.405779 -0.657153 0.000000
      vertex -28.405779 0.657153 0.000000
      vertex -27.791647 5.911384 0.000000
    endloop
  endfacet
  facet normal 0.000000 0.000000 -1.000000
    outer loop
      vertex -27.791647 5.911384 0.000000
      vertex -35.606516 4.340836 0.000000
      vertex -33.767308 12.101062 0.000000
    endloop
  endfacet
  facet normal 0.000000 -0.000000 -1.000000
    outer loop
      vertex -27.791647 5.911384 0.000000
      vertex -33.767308 12.101062 0.000000
      vertex -27.488548 7.190263 0.000000
    endloop
  endfacet
  facet normal -0.000000 0.000000 -1.000000
    outer loop
      vertex -27.791647 5.911384 0.000000
      vertex -27.488548 7.190263 0.000000
      vertex -28.405779 -0.657153 0.000000
    endloop
  endfacet
  facet normal 0.000000 0.000000 -1.000000
    outer loop
      vertex -28.405779 -0.657153 0.000000
      vertex -27.488548 7.190263 0.000000
      vertex -25.679261 12.161237 0.000000
    endloop
  endfacet
  facet normal 0.000000 0.000000 -1.000000
    outer loop
      vertex -25.679261 12.161237 0.000000
      vertex -33.645671 12.435256 0.000000
      vertex -30.066409 19.562154 0.000000
    endloop
  endfacet
  facet normal 0.000000 -0.000000 -1.000000
    outer loop
      vertex -25.679261 12.161237 0.000000
      vertex -30.066409 19.562154 0.000000
      vertex -25.089401 13.335744 0.000000
    endloop
  endfacet
  facet normal -0.000000 0.000000 -1.000000
    outer loop
      vertex -25.679261 12.161237 0.000000
      vertex -25.089401 13.335744 0.000000
      vertex -28.405779 -0.657153 0.000000
    endloop
  endfacet
  facet normal 0.000000 0.000000 -1.000000
    outer loop
      vertex -28.405779 -0.657153 0.000000
      vertex -25.089401 13.335744 0.000000
      vertex -22.182499 17.755474 0.000000
    endloop
  endfacet
  facet normal 0.000000 0.000000 -1.000000
    outer loop
      vertex -22.182499 17.755474 0.000000
      vertex -29.870981 19.859288 0.000000
      vertex -24.744622 25.968644 0.000000
    endloop
  endfacet
  facet normal 0.000000 -0.000000 -1.000000
    outer loop
      vertex -22.182499 17.755474 0.000000
      vertex -24.744622 25.968644 0.000000
      vertex -21.337679 18.762291 0.000000
    endloop
  endfacet
  facet normal -0.000000 0.000000 -1.000000
    outer loop
      vertex -22.182499 17.755474 0.000000
      vertex -21.337679 18.762291 0.000000
      vertex -28.405779 -0.657153 0.000000
    endloop
  endfacet
  facet normal 0.000000 0.000000 -1.000000
    outer loop
      vertex -28.405779 -0.657153 0.000000
      vertex -21.337679 18.762291 0.000000
      vertex -17.489873 22.392509 0.000000
    endloop
  endfacet
  facet normal 0.000000 0.000000 -1.000000
    outer loop
      vertex -17.489873 22.392509 0.000000
      vertex -24.485938 26.212700 0.000000
      vertex -18.088846 30.975159 0.000000
    endloop
  endfacet
  facet normal 0.000000 -0.000000 -1.000000
    outer loop
      vertex -17.489873 22.392509 0.000000
      vertex -18.088846 30.975159 0.000000
      vertex -16.435637 23.177359 0.000000
    endloop
  endfacet
  facet normal -0.000000 0.000000 -1.000000
    outer loop
      vertex -17.489873 22.392509 0.000000
      vertex -16.435637 23.177359 0.000000
      vertex -28.405779 -0.657153 0.000000
    endloop
  endfacet
  facet normal 0.000000 0.000000 -1.000000
    outer loop
      vertex -28.405779 -0.657153 0.000000
      vertex -16.435637 23.177359 0.000000
      vertex -11.854363 25.822359 0.000000
    endloop
  endfacet
  facet normal 0.000000 -0.000000 -1.000000
    outer loop
      vertex -11.854363 25.822359 0.000000
      vertex -17.780852 31.152980 0.000000
      vertex -10.457895 34.311794 0.000000
    endloop
  endfacet
  facet normal 0.000000 0.000000 -1.000000
    outer loop
      vertex -11.854363 25.822359 0.000000
      vertex -10.457895 34.311794 0.000000
      vertex -10.647546 26.342929 0.000000
    endloop
  endfacet
  facet normal -0.000000 0.000000 -1.000000
    outer loop
      vertex -11.854363 25.822359 0.000000
      vertex -10.647546 26.342929 0.000000
      vertex -28.405779 -0.657153 0.000000
    endloop
  endfacet
  facet normal 0.000000 0.000000 -1.000000
    outer loop
      vertex -28.405779 -0.657153 0.000000
      vertex -10.647546 26.342929 0.000000
      vertex -5.579781 27.860118 0.000000
    endloop
  endfacet
  facet normal 0.000000 -0.000000 -1.000000
    outer loop
      vertex -5.579781 27.860118 0.000000
      vertex -10.117195 34.413793 0.000000
      vertex -2.263157 35.798672 0.000000
    endloop
  endfacet
  facet normal 0.000000 0.000000 -1.000000
    outer loop
      vertex -5.579781 27.860118 0.000000
      vertex -2.263157 35.798672 0.000000
      vertex -4.285442 28.088345 0.000000
    endloop
  endfacet
  facet normal -0.000000 0.000000 -1.000000
    outer loop
      vertex -5.579781 27.860118 0.000000
      vertex -4.285442 28.088345 0.000000
      vertex -28.405779 -0.657153 0.000000
    endloop
  endfacet
  facet normal 0.000000 0.000000 -1.000000
    outer loop
      vertex -28.405779 -0.657153 0.000000
      vertex -4.285442 28.088345 0.000000
      vertex 0.995608 28.395931 0.000000
    endloop
  endfacet
  facet normal 0.000000 -0.000000 -1.000000
    outer loop
      vertex 0.995608 28.395931 0.000000
      vertex -1.908117 35.819350 0.000000
      vertex 6.053588 35.355634 0.000000
    endloop
  endfacet
  facet normal -0.000000 0.000000 -1.000000
    outer loop
      vertex 0.995608 28.395931 0.000000
      vertex 6.053588 35.355634 0.000000
      vertex 2.307690 28.319511 0.000000
    endloop
  endfacet
  facet normal 0.000000 0.000000 -1.000000
    outer loop
      vertex 0.995608 28.395931 0.000000
      vertex 2.307690 28.319511 0.000000
      vertex -28.405779 -0.657153 0.000000
    endloop
  endfacet
  facet normal 0.000000 0.000000 -1.000000
    outer loop
      vertex -28.405779 -0.657153 0.000000
      vertex 2.307690 28.319511 0.000000
      vertex 7.517323 27.400912 0.000000
    endloop
  endfacet
  facet normal 0.000000 -0.000000 -1.000000
    outer loop
      vertex 7.517323 27.400912 0.000000
      vertex 6.403827 35.293877 0.000000
      vertex 14.043983 33.006565 0.000000
    endloop
  endfacet
  facet normal -0.000000 0.000000 -1.000000
    outer loop
      vertex 7.517323 27.400912 0.000000
      vertex 14.043983 33.006565 0.000000
      vertex 8.776415 27.023965 0.000000
    endloop
  endfacet
  facet normal 0.000000 0.000000 -1.000000
    outer loop
      vertex 7.517323 27.400912 0.000000
      vertex 8.776415 27.023965 0.000000
      vertex -28.405779 -0.657153 0.000000
    endloop
  endfacet
  facet normal 0.000000 0.000000 -1.000000
    outer loop
      vertex -28.405779 -0.657153 0.000000
      vertex 8.776415 27.023965 0.000000
      vertex 13.633778 24.928703 0.000000
    endloop
  endfacet
  facet normal 0.000000 0.000000 -1.000000
    outer loop
      vertex 13.633778 24.928703 0.000000
      vertex 14.370539 32.865702 0.000000
      vertex 21.277263 28.878103 0.000000
    endloop
  endfacet
  facet normal -0.000000 0.000000 -1.000000
    outer loop
      vertex 13.633778 24.928703 0.000000
      vertex 21.277263 28.878103 0.000000
      vertex -28.405779 -0.657153 0.000000
    endloop
  endfacet
  facet normal 0.000000 0.000000 -1.000000
    outer loop
      vertex -28.405779 -0.657153 0.000000
      vertex 21.277263 28.878103 0.000000
      vertex 14.772001 24.271550 0.000000
    endloop
  endfacet
  facet normal 0.000000 0.000000 -1.000000
    outer loop
      vertex -28.405779 -0.657153 0.000000
      vertex 14.772001 24.271550 0.000000
      vertex 19.015232 21.112581 0.000000
    endloop
  endfacet
  facet normal 0.000000 0.000000 -1.000000
    outer loop
      vertex 23.371571 16.158274 0.000000
      vertex -28.405779 -0.657153 0.000000
      vertex 19.971224 20.210649 0.000000
    endloop
  endfacet
  facet normal 0.000000 0.000000 -1.000000
    outer loop
      vertex 19.015232 21.112581 0.000000
      vertex 21.562532 28.665728 0.000000
      vertex 27.363482 23.192816 0.000000
    endloop
  endfacet
  facet normal -0.000000 0.000000 -1.000000
    outer loop
      vertex 19.015232 21.112581 0.000000
      vertex 27.363482 23.192816 0.000000
      vertex 19.971224 20.210649 0.000000
    endloop
  endfacet
  facet normal 0.000000 0.000000 -1.000000
    outer loop
      vertex -2.263157 -35.798672 0.000000
      vertex -5.579781 -27.860118 0.000000
      vertex -4.285442 -28.088345 0.000000
    endloop
  endfacet
  facet normal 0.000000 0.000000 -1.000000
    outer loop
      vertex 27.592083 22.920379 0.000000
      vertex 31.974527 16.257197 0.000000
      vertex 23.371571 16.158274 0.000000
    endloop
  endfacet
  facet normal 0.000000 0.000000 -1.000000
    outer loop
      vertex 31.974527 16.257197 0.000000
      vertex 24.093794 15.060187 0.000000
      vertex 23.371571 16.158274 0.000000
    endloop
  endfacet
  facet normal 0.000000 0.000000 -1.000000
    outer loop
      vertex -27.488548 -7.190263 0.000000
      vertex -5.579781 -27.860118 0.000000
      vertex -25.679261 -12.161237 0.000000
    endloop
  endfacet
  facet normal 0.000000 0.000000 -1.000000
    outer loop
      vertex -27.488548 -7.190263 0.000000
      vertex -4.285442 -28.088345 0.000000
      vertex -5.579781 -27.860118 0.000000
    endloop
  endfacet
  facet normal 0.000000 0.000000 -1.000000
    outer loop
      vertex 32.134138 15.939385 0.000000
      vertex 34.861817 8.445149 0.000000
      vertex 26.467941 10.332870 0.000000
    endloop
  endfacet
  facet normal 0.000000 0.000000 -1.000000
    outer loop
      vertex -27.791647 -5.911384 0.000000
      vertex 19.015232 -21.112581 0.000000
      vertex -27.488548 -7.190263 0.000000
    endloop
  endfacet
  facet normal 0.000000 0.000000 -1.000000
    outer loop
      vertex 34.861817 8.445149 0.000000
      vertex 26.917460 9.097827 0.000000
      vertex 26.467941 10.332870 0.000000
    endloop
  endfacet
  facet normal 0.000000 0.000000 -1.000000
    outer loop
      vertex 34.943833 8.099094 0.000000
      vertex 35.869697 0.177821 0.000000
      vertex 28.137418 3.950419 0.000000
    endloop
  endfacet
  facet normal 0.000000 0.000000 -1.000000
    outer loop
      vertex 35.869697 0.177821 0.000000
      vertex 28.290000 2.645000 0.000000
      vertex 28.137418 3.950419 0.000000
    endloop
  endfacet
  facet normal 0.000000 0.000000 -1.000000
    outer loop
      vertex 35.869697 -0.177821 0.000000
      vertex 34.943833 -8.099094 0.000000
      vertex 28.290000 -2.645000 0.000000
    endloop
  endfacet
  facet normal 0.000000 0.000000 -1.000000
    outer loop
      vertex 34.943833 -8.099094 0.000000
      vertex 28.137418 -3.950419 0.000000
      vertex 28.290000 -2.645000 0.000000
    endloop
  endfacet
  facet normal 0.000000 0.000000 -1.000000
    outer loop
      vertex 34.861817 -8.445149 0.000000
      vertex 32.134138 -15.939385 0.000000
      vertex 26.917460 -9.097827 0.000000
    endloop
  endfacet
  facet normal 0.000000 0.000000 -1.000000
    outer loop
      vertex 32.134138 -15.939385 0.000000
      vertex 26.467941 -10.332870 0.000000
      vertex 26.917460 -9.097827 0.000000
    endloop
  endfacet
  facet normal 0.000000 0.000000 -1.000000
    outer loop
      vertex 31.974527 -16.257197 0.000000
      vertex 27.592083 -22.920379 0.000000
      vertex 24.093794 -15.060187 0.000000
    endloop
  endfacet
  facet normal 0.000000 0.000000 -1.000000
    outer loop
      vertex 27.592083 -22.920379 0.000000
      vertex 23.371571 -16.158274 0.000000
      vertex 24.093794 -15.060187 0.000000
    endloop
  endfacet
  facet normal 0.000000 0.000000 -1.000000
    outer loop
      vertex 21.277263 -28.878103 0.000000
      vertex 13.633778 -24.928703 0.000000
      vertex 14.772001 -24.271550 0.000000
    endloop
  endfacet
  facet normal 0.000000 0.000000 -1.000000
    outer loop
      vertex -25.089401 -13.335744 0.000000
      vertex -11.854363 -25.822359 0.000000
      vertex -16.435637 -23.177359 0.000000
    endloop
  endfacet
  facet normal 0.000000 0.000000 -1.000000
    outer loop
      vertex 27.363482 -23.192816 0.000000
      vertex 21.562532 -28.665728 0.000000
      vertex 19.015232 -21.112581 0.000000
    endloop
  endfacet
  facet normal 0.000000 0.000000 -1.000000
    outer loop
      vertex 13.633778 -24.928703 0.000000
      vertex 21.277263 -28.878103 0.000000
      vertex 14.370539 -32.865702 0.000000
    endloop
  endfacet
  facet normal 0.000000 0.000000 -1.000000
    outer loop
      vertex -27.791647 -5.911384 0.000000
      vertex -33.767308 -12.101062 0.000000
      vertex -35.606516 -4.340836 0.000000
    endloop
  endfacet
  facet normal 0.000000 0.000000 -1.000000
    outer loop
      vertex 14.043983 -33.006565 0.000000
      vertex 7.517323 -27.400912 0.000000
      vertex 8.776415 -27.023965 0.000000
    endloop
  endfacet
  facet normal 0.000000 0.000000 -1.000000
    outer loop
      vertex 7.517323 -27.400912 0.000000
      vertex 14.043983 -33.006565 0.000000
      vertex 6.403827 -35.293877 0.000000
    endloop
  endfacet
  facet normal 0.000000 0.000000 -1.000000
    outer loop
      vertex -27.791647 -5.911384 0.000000
      vertex -27.488548 -7.190263 0.000000
      vertex -33.767308 -12.101062 0.000000
    endloop
  endfacet
  facet normal 0.000000 0.000000 -1.000000
    outer loop
      vertex 6.053588 -35.355634 0.000000
      vertex 0.995608 -28.395931 0.000000
      vertex 2.307690 -28.319511 0.000000
    endloop
  endfacet
  facet normal 0.000000 0.000000 -1.000000
    outer loop
      vertex 0.995608 -28.395931 0.000000
      vertex 6.053588 -35.355634 0.000000
      vertex -1.908117 -35.819350 0.000000
    endloop
  endfacet
  facet normal 0.000000 0.000000 -1.000000
    outer loop
      vertex -18.088846 -30.975159 0.000000
      vertex -17.489873 -22.392509 0.000000
      vertex -16.435637 -23.177359 0.000000
    endloop
  endfacet
  facet normal 0.000000 0.000000 -1.000000
    outer loop
      vertex -5.579781 -27.860118 0.000000
      vertex -2.263157 -35.798672 0.000000
      vertex -10.117195 -34.413793 0.000000
    endloop
  endfacet
  facet normal 0.000000 0.000000 -1.000000
    outer loop
      vertex -22.182499 -17.755474 0.000000
      vertex -24.744622 -25.968644 0.000000
      vertex -29.870981 -19.859288 0.000000
    endloop
  endfacet
  facet normal 0.000000 0.000000 -1.000000
    outer loop
      vertex -27.488548 -7.190263 0.000000
      vertex 0.995608 -28.395931 0.000000
      vertex -4.285442 -28.088345 0.000000
    endloop
  endfacet
  facet normal 0.000000 0.000000 -1.000000
    outer loop
      vertex -27.488548 -7.190263 0.000000
      vertex 13.633778 -24.928703 0.000000
      vertex 8.776415 -27.023965 0.000000
    endloop
  endfacet
  facet normal 0.000000 0.000000 -1.000000
    outer loop
      vertex -11.854363 -25.822359 0.000000
      vertex -10.457895 -34.311794 0.000000
      vertex -17.780852 -31.152980 0.000000
    endloop
  endfacet
  facet normal 0.000000 0.000000 -1.000000
    outer loop
      vertex -27.791647 -5.911384 0.000000
      vertex 27.363482 -23.192816 0.000000
      vertex 19.015232 -21.112581 0.000000
    endloop
  endfacet
  facet normal 0.000000 0.000000 -1.000000
    outer loop
      vertex -10.457895 -34.311794 0.000000
      vertex -11.854363 -25.822359 0.000000
      vertex -10.647546 -26.342929 0.000000
    endloop
  endfacet
  facet normal 0.000000 0.000000 -1.000000
    outer loop
      vertex -17.489873 -22.392509 0.000000
      vertex -18.088846 -30.975159 0.000000
      vertex -24.485938 -26.212700 0.000000
    endloop
  endfacet
  facet normal 0.000000 0.000000 -1.000000
    outer loop
      vertex -25.679261 -12.161237 0.000000
      vertex -30.066409 -19.562154 0.000000
      vertex -33.645671 -12.435256 0.000000
    endloop
  endfacet
  facet normal 0.000000 0.000000 -1.000000
    outer loop
      vertex -25.089401 -13.335744 0.000000
      vertex -17.489873 -22.392509 0.000000
      vertex -22.182499 -17.755474 0.000000
    endloop
  endfacet
  facet normal 0.000000 0.000000 -1.000000
    outer loop
      vertex -27.488548 -7.190263 0.000000
      vertex 7.517323 -27.400912 0.000000
      vertex 2.307690 -28.319511 0.000000
    endloop
  endfacet
  facet normal 0.000000 0.000000 -1.000000
    outer loop
      vertex -25.089401 -13.335744 0.000000
      vertex -10.647546 -26.342929 0.000000
      vertex -11.854363 -25.822359 0.000000
    endloop
  endfacet
  facet normal 0.000000 0.000000 -1.000000
    outer loop
      vertex -22.182499 -17.755474 0.000000
      vertex -21.337679 -18.762291 0.000000
      vertex -24.744622 -25.968644 0.000000
    endloop
  endfacet
  facet normal 0.000000 0.000000 -1.000000
    outer loop
      vertex -25.089401 -13.335744 0.000000
      vertex -16.435637 -23.177359 0.000000
      vertex -17.489873 -22.392509 0.000000
    endloop
  endfacet
  facet normal 0.000000 0.000000 -1.000000
    outer loop
      vertex -17.489873 -22.392509 0.000000
      vertex -21.337679 -18.762291 0.000000
      vertex -22.182499 -17.755474 0.000000
    endloop
  endfacet
  facet normal 0.000000 0.000000 -1.000000
    outer loop
      vertex -27.488548 -7.190263 0.000000
      vertex 2.307690 -28.319511 0.000000
      vertex 0.995608 -28.395931 0.000000
    endloop
  endfacet
  facet normal 0.000000 0.000000 -1.000000
    outer loop
      vertex -5.579781 -27.860118 0.000000
      vertex -10.647546 -26.342929 0.000000
      vertex -25.089401 -13.335744 0.000000
    endloop
  endfacet
  facet normal 0.000000 0.000000 -1.000000
    outer loop
      vertex -27.488548 -7.190263 0.000000
      vertex 14.772001 -24.271550 0.000000
      vertex 13.633778 -24.928703 0.000000
    endloop
  endfacet
  facet normal 0.000000 0.000000 -1.000000
    outer loop
      vertex -25.679261 -12.161237 0.000000
      vertex -25.089401 -13.335744 0.000000
      vertex -30.066409 -19.562154 0.000000
    endloop
  endfacet
  facet normal 0.000000 0.000000 -1.000000
    outer loop
      vertex -27.488548 -7.190263 0.000000
      vertex 8.776415 -27.023965 0.000000
      vertex 7.517323 -27.400912 0.000000
    endloop
  endfacet
  facet normal 0.000000 0.000000 -1.000000
    outer loop
      vertex -5.579781 -27.860118 0.000000
      vertex -25.089401 -13.335744 0.000000
      vertex -25.679261 -12.161237 0.000000
    endloop
  endfacet
  facet normal 0.000000 0.000000 -1.000000
    outer loop
      vertex 19.015232 -21.112581 0.000000
      vertex 14.772001 -24.271550 0.000000
      vertex -27.488548 -7.190263 0.000000
    endloop
  endfacet
  facet normal 0.000000 0.000000 -1.000000
    outer loop
      vertex -27.791647 -5.911384 0.000000
      vertex 19.971224 -20.210649 0.000000
      vertex 27.363482 -23.192816 0.000000
    endloop
  endfacet
  facet normal 0.000000 -0.000000 -1.000000
    outer loop
      vertex 19.971224 -20.210649 0.000000
      vertex -27.791647 -5.911384 0.000000
      vertex 23.371571 -16.158274 0.000000
    endloop
  endfacet
  facet normal 0.000000 0.000000 -1.000000
    outer loop
      vertex -28.405779 -0.657153 0.000000
      vertex 19.015232 21.112581 0.000000
      vertex 19.971224 20.210649 0.000000
    endloop
  endfacet
  facet normal 0.000000 0.000000 -1.000000
    outer loop
      vertex 26.467941 10.332870 0.000000
      vertex -28.405779 -0.657153 0.000000
      vertex 24.093794 15.060187 0.000000
    endloop
  endfacet
  facet normal 0.000000 0.000000 -1.000000
    outer loop
      vertex -28.405779 -0.657153 0.000000
      vertex 23.371571 16.158274 0.000000
      vertex 24.093794 15.060187 0.000000
    endloop
  endfacet
  facet normal 0.000000 0.000000 -1.000000
    outer loop
      vertex 28.137418 3.950419 0.000000
      vertex -28.405779 -0.657153 0.000000
      vertex 26.917460 9.097827 0.000000
    endloop
  endfacet
  facet normal 0.000000 0.000000 -1.000000
    outer loop
      vertex -28.405779 -0.657153 0.000000
      vertex 26.467941 10.332870 0.000000
      vertex 26.917460 9.097827 0.000000
    endloop
  endfacet
  facet normal 0.000000 -0.000000 -1.000000
    outer loop
      vertex 28.290000 -2.645000 0.000000
      vertex -28.405779 -0.657153 0.000000
      vertex 28.290000 2.645000 0.000000
    endloop
  endfacet
  facet normal 0.000000 0.000000 -1.000000
    outer loop
      vertex -28.405779 -0.657153 0.000000
      vertex 28.137418 3.950419 0.000000
      vertex 28.290000 2.645000 0.000000
    endloop
  endfacet
  facet normal 0.000000 -0.000000 -1.000000
    outer loop
      vertex 26.917460 -9.097827 0.000000
      vertex -28.405779 -0.657153 0.000000
      vertex 28.137418 -3.950419 0.000000
    endloop
  endfacet
  facet normal 0.000000 0.000000 -1.000000
    outer loop
      vertex -28.405779 -0.657153 0.000000
      vertex 28.290000 -2.645000 0.000000
      vertex 28.137418 -3.950419 0.000000
    endloop
  endfacet
  facet normal 0.000000 -0.000000 -1.000000
    outer loop
      vertex 24.093794 -15.060187 0.000000
      vertex -28.405779 -0.657153 0.000000
      vertex 26.467941 -10.332870 0.000000
    endloop
  endfacet
  facet normal 0.000000 0.000000 -1.000000
    outer loop
      vertex -28.405779 -0.657153 0.000000
      vertex 26.917460 -9.097827 0.000000
      vertex 26.467941 -10.332870 0.000000
    endloop
  endfacet
  facet normal 0.000000 0.000000 -1.000000
    outer loop
      vertex -28.405779 -0.657153 0.000000
      vertex 24.093794 -15.060187 0.000000
      vertex 23.371571 -16.158274 0.000000
    endloop
  endfacet
  facet normal 0.000000 0.000000 -1.000000
    outer loop
      vertex -28.405779 -0.657153 0.000000
      vertex 23.371571 -16.158274 0.000000
      vertex -27.791647 -5.911384 0.000000
    endloop
  endfacet
  facet normal -1.000000 -0.000000 -0.000000
    outer loop
      vertex -35.647803 -3.987599 0.000000
      vertex -35.647803 -3.987599 15.000000
      vertex -35.647803 3.987599 0.000000
    endloop
  endfacet
  facet normal -1.000000 0.000000 0.000000
    outer loop
      vertex -35.647803 3.987599 0.000000
      vertex -35.647803 -3.987599 15.000000
      vertex -35.647803 3.987599 15.000000
    endloop
  endfacet
  facet normal 0.417814 -0.908533 0.000000
    outer loop
      vertex -28.405779 -0.657153 0.000000
      vertex -28.405779 -0.657153 15.000000
      vertex -35.647803 -3.987599 15.000000
    endloop
  endfacet
  facet normal 0.417814 -0.908533 0.000000
    outer loop
      vertex -35.647803 -3.987599 0.000000
      vertex -28.405779 -0.657153 0.000000
      vertex -35.647803 -3.987599 15.000000
    endloop
  endfacet
  facet normal -0.993238 -0.116093 0.000000
    outer loop
      vertex -27.791647 -5.911384 15.000000
      vertex -28.405779 -0.657153 15.000000
      vertex -27.791647 -5.911384 0.000000
    endloop
  endfacet
  facet normal -0.993238 -0.116093 0.000000
    outer loop
      vertex -27.791647 -5.911384 0.000000
      vertex -28.405779 -0.657153 15.000000
      vertex -28.405779 -0.657153 0.000000
    endloop
  endfacet
  facet normal 0.197030 0.980398 -0.000000
    outer loop
      vertex -27.791647 -5.911384 15.000000
      vertex -27.791647 -5.911384 0.000000
      vertex -35.606516 -4.340836 15.000000
    endloop
  endfacet
  facet normal 0.197030 0.980398 -0.000000
    outer loop
      vertex -35.606516 -4.340836 15.000000
      vertex -27.791647 -5.911384 0.000000
      vertex -35.606516 -4.340836 0.000000
    endloop
  endfacet
  facet normal -0.973045 -0.230616 -0.000000
    outer loop
      vertex -35.606516 -4.340836 0.000000
      vertex -33.767308 -12.101062 0.000000
      vertex -35.606516 -4.340836 15.000000
    endloop
  endfacet
  facet normal -0.973045 -0.230616 0.000000
    outer loop
      vertex -35.606516 -4.340836 15.000000
      vertex -33.767308 -12.101062 0.000000
      vertex -33.767308 -12.101062 15.000000
    endloop
  endfacet
  facet normal 0.616074 -0.787688 0.000000
    outer loop
      vertex -27.488548 -7.190263 0.000000
      vertex -27.488548 -7.190263 15.000000
      vertex -33.767308 -12.101062 15.000000
    endloop
  endfacet
  facet normal 0.616074 -0.787688 0.000000
    outer loop
      vertex -33.767308 -12.101062 0.000000
      vertex -27.488548 -7.190263 0.000000
      vertex -33.767308 -12.101062 15.000000
    endloop
  endfacet
  facet normal -0.939693 -0.342020 0.000000
    outer loop
      vertex -25.679261 -12.161237 15.000000
      vertex -27.488548 -7.190263 15.000000
      vertex -25.679261 -12.161237 0.000000
    endloop
  endfacet
  facet normal -0.939693 -0.342020 0.000000
    outer loop
      vertex -25.679261 -12.161237 0.000000
      vertex -27.488548 -7.190263 15.000000
      vertex -27.488548 -7.190263 0.000000
    endloop
  endfacet
  facet normal -0.034376 0.999409 0.000000
    outer loop
      vertex -25.679261 -12.161237 15.000000
      vertex -25.679261 -12.161237 0.000000
      vertex -33.645671 -12.435256 15.000000
    endloop
  endfacet
  facet normal -0.034376 0.999409 0.000000
    outer loop
      vertex -33.645671 -12.435256 15.000000
      vertex -25.679261 -12.161237 0.000000
      vertex -33.645671 -12.435256 0.000000
    endloop
  endfacet
  facet normal -0.893633 -0.448799 -0.000000
    outer loop
      vertex -33.645671 -12.435256 0.000000
      vertex -30.066409 -19.562154 0.000000
      vertex -33.645671 -12.435256 15.000000
    endloop
  endfacet
  facet normal -0.893633 -0.448799 0.000000
    outer loop
      vertex -33.645671 -12.435256 15.000000
      vertex -30.066409 -19.562154 0.000000
      vertex -30.066409 -19.562154 15.000000
    endloop
  endfacet
  facet normal 0.781121 -0.624380 0.000000
    outer loop
      vertex -25.089401 -13.335744 0.000000
      vertex -25.089401 -13.335744 15.000000
      vertex -30.066409 -19.562154 15.000000
    endloop
  endfacet
  facet normal 0.781121 -0.624380 0.000000
    outer loop
      vertex -30.066409 -19.562154 0.000000
      vertex -25.089401 -13.335744 0.000000
      vertex -30.066409 -19.562154 15.000000
    endloop
  endfacet
  facet normal -0.835488 -0.549509 0.000000
    outer loop
      vertex -22.182499 -17.755474 15.000000
      vertex -25.089401 -13.335744 15.000000
      vertex -22.182499 -17.755474 0.000000
    endloop
  endfacet
  facet normal -0.835488 -0.549509 0.000000
    outer loop
      vertex -22.182499 -17.755474 0.000000
      vertex -25.089401 -13.335744 15.000000
      vertex -25.089401 -13.335744 0.000000
    endloop
  endfacet
  facet normal -0.263929 0.964542 0.000000
    outer loop
      vertex -22.182499 -17.755474 15.000000
      vertex -22.182499 -17.755474 0.000000
      vertex -29.870981 -19.859288 15.000000
    endloop
  endfacet
  facet normal -0.263929 0.964542 0.000000
    outer loop
      vertex -29.870981 -19.859288 15.000000
      vertex -22.182499 -17.755474 0.000000
      vertex -29.870981 -19.859288 0.000000
    endloop
  endfacet
  facet normal -0.766044 -0.642788 -0.000000
    outer loop
      vertex -29.870981 -19.859288 0.000000
      vertex -24.744622 -25.968644 0.000000
      vertex -29.870981 -19.859288 15.000000
    endloop
  endfacet
  facet normal -0.766044 -0.642788 0.000000
    outer loop
      vertex -29.870981 -19.859288 15.000000
      vertex -24.744622 -25.968644 0.000000
      vertex -24.744622 -25.968644 15.000000
    endloop
  endfacet
  facet normal 0.904058 -0.427411 0.000000
    outer loop
      vertex -21.337679 -18.762291 0.000000
      vertex -21.337679 -18.762291 15.000000
      vertex -24.744622 -25.968644 15.000000
    endloop
  endfacet
  facet normal 0.904058 -0.427411 0.000000
    outer loop
      vertex -24.744622 -25.968644 0.000000
      vertex -21.337679 -18.762291 0.000000
      vertex -24.744622 -25.968644 15.000000
    endloop
  endfacet
  facet normal -0.686242 -0.727374 -0.000000
    outer loop
      vertex -17.489873 -22.392509 0.000000
      vertex -17.489873 -22.392509 15.000000
      vertex -21.337679 -18.762291 15.000000
    endloop
  endfacet
  facet normal -0.686242 -0.727374 -0.000000
    outer loop
      vertex -21.337679 -18.762291 0.000000
      vertex -17.489873 -22.392509 0.000000
      vertex -21.337679 -18.762291 15.000000
    endloop
  endfacet
  facet normal -0.479254 0.877676 0.000000
    outer loop
      vertex -17.489873 -22.392509 15.000000
      vertex -17.489873 -22.392509 0.000000
      vertex -24.485938 -26.212700 15.000000
    endloop
  endfacet
  facet normal -0.479254 0.877676 0.000000
    outer loop
      vertex -24.485938 -26.212700 15.000000
      vertex -17.489873 -22.392509 0.000000
      vertex -24.485938 -26.212700 0.000000
    endloop
  endfacet
  facet normal -0.597159 -0.802123 0.000000
    outer loop
      vertex -24.485938 -26.212700 15.000000
      vertex -24.485938 -26.212700 0.000000
      vertex -18.088846 -30.975159 0.000000
    endloop
  endfacet
  facet normal -0.597159 -0.802123 0.000000
    outer loop
      vertex -18.088846 -30.975159 15.000000
      vertex -24.485938 -26.212700 15.000000
      vertex -18.088846 -30.975159 0.000000
    endloop
  endfacet
  facet normal 0.978256 -0.207400 0.000000
    outer loop
      vertex -16.435637 -23.177359 0.000000
      vertex -16.435637 -23.177359 15.000000
      vertex -18.088846 -30.975159 15.000000
    endloop
  endfacet
  facet normal 0.978256 -0.207400 0.000000
    outer loop
      vertex -18.088846 -30.975159 0.000000
      vertex -16.435637 -23.177359 0.000000
      vertex -18.088846 -30.975159 15.000000
    endloop
  endfacet
  facet normal -0.500000 -0.866025 -0.000000
    outer loop
      vertex -11.854363 -25.822359 0.000000
      vertex -11.854363 -25.822359 15.000000
      vertex -16.435637 -23.177359 15.000000
    endloop
  endfacet
  facet normal -0.500000 -0.866025 -0.000000
    outer loop
      vertex -16.435637 -23.177359 0.000000
      vertex -11.854363 -25.822359 0.000000
      vertex -16.435637 -23.177359 15.000000
    endloop
  endfacet
  facet normal -0.668742 0.743495 0.000000
    outer loop
      vertex -11.854363 -25.822359 15.000000
      vertex -11.854363 -25.822359 0.000000
      vertex -17.780852 -31.152980 15.000000
    endloop
  endfacet
  facet normal -0.668742 0.743495 0.000000
    outer loop
      vertex -17.780852 -31.152980 15.000000
      vertex -11.854363 -25.822359 0.000000
      vertex -17.780852 -31.152980 0.000000
    endloop
  endfacet
  facet normal -0.396080 -0.918216 0.000000
    outer loop
      vertex -17.780852 -31.152980 15.000000
      vertex -17.780852 -31.152980 0.000000
      vertex -10.457895 -34.311794 0.000000
    endloop
  endfacet
  facet normal -0.396080 -0.918216 0.000000
    outer loop
      vertex -10.457895 -34.311794 15.000000
      vertex -17.780852 -31.152980 15.000000
      vertex -10.457895 -34.311794 0.000000
    endloop
  endfacet
  facet normal 0.999717 0.023792 0.000000
    outer loop
      vertex -10.647546 -26.342929 15.000000
      vertex -10.457895 -34.311794 15.000000
      vertex -10.457895 -34.311794 0.000000
    endloop
  endfacet
  facet normal 0.999717 0.023792 0.000000
    outer loop
      vertex -10.647546 -26.342929 0.000000
      vertex -10.647546 -26.342929 15.000000
      vertex -10.457895 -34.311794 0.000000
    endloop
  endfacet
  facet normal -0.286803 -0.957990 -0.000000
    outer loop
      vertex -5.579781 -27.860118 0.000000
      vertex -5.579781 -27.860118 15.000000
      vertex -10.647546 -26.342929 15.000000
    endloop
  endfacet
  facet normal -0.286803 -0.957990 -0.000000
    outer loop
      vertex -10.647546 -26.342929 0.000000
      vertex -5.579781 -27.860118 0.000000
      vertex -10.647546 -26.342929 15.000000
    endloop
  endfacet
  facet normal -0.822177 0.569231 0.000000
    outer loop
      vertex -5.579781 -27.860118 15.000000
      vertex -5.579781 -27.860118 0.000000
      vertex -10.117195 -34.413793 15.000000
    endloop
  endfacet
  facet normal -0.822177 0.569231 0.000000
    outer loop
      vertex -10.117195 -34.413793 15.000000
      vertex -5.579781 -27.860118 0.000000
      vertex -10.117195 -34.413793 0.000000
    endloop
  endfacet
  facet normal -0.173648 -0.984808 0.000000
    outer loop
      vertex -10.117195 -34.413793 15.000000
      vertex -10.117195 -34.413793 0.000000
      vertex -2.263157 -35.798672 0.000000
    endloop
  endfacet
  facet normal -0.173648 -0.984808 0.000000
    outer loop
      vertex -2.263157 -35.798672 15.000000
      vertex -10.117195 -34.413793 15.000000
      vertex -2.263157 -35.798672 0.000000
    endloop
  endfacet
  facet normal 0.967283 0.253701 0.000000
    outer loop
      vertex -4.285442 -28.088345 15.000000
      vertex -2.263157 -35.798672 15.000000
      vertex -2.263157 -35.798672 0.000000
    endloop
  endfacet
  facet normal 0.967283 0.253701 0.000000
    outer loop
      vertex -4.285442 -28.088345 0.000000
      vertex -4.285442 -28.088345 15.000000
      vertex -2.263157 -35.798672 0.000000
    endloop
  endfacet
  facet normal -0.058145 -0.998308 -0.000000
    outer loop
      vertex 0.995608 -28.395931 0.000000
      vertex 0.995608 -28.395931 15.000000
      vertex -4.285442 -28.088345 15.000000
    endloop
  endfacet
  facet normal -0.058145 -0.998308 -0.000000
    outer loop
      vertex -4.285442 -28.088345 0.000000
      vertex 0.995608 -28.395931 0.000000
      vertex -4.285442 -28.088345 15.000000
    endloop
  endfacet
  facet normal -0.931289 0.364281 0.000000
    outer loop
      vertex 0.995608 -28.395931 15.000000
      vertex 0.995608 -28.395931 0.000000
      vertex -1.908117 -35.819350 15.000000
    endloop
  endfacet
  facet normal -0.931289 0.364281 0.000000
    outer loop
      vertex -1.908117 -35.819350 15.000000
      vertex 0.995608 -28.395931 0.000000
      vertex -1.908117 -35.819350 0.000000
    endloop
  endfacet
  facet normal 0.058145 -0.998308 0.000000
    outer loop
      vertex -1.908117 -35.819350 15.000000
      vertex -1.908117 -35.819350 0.000000
      vertex 6.053588 -35.355634 0.000000
    endloop
  endfacet
  facet normal 0.058145 -0.998308 0.000000
    outer loop
      vertex 6.053588 -35.355634 15.000000
      vertex -1.908117 -35.819350 15.000000
      vertex 6.053588 -35.355634 0.000000
    endloop
  endfacet
  facet normal 0.882702 0.469934 0.000000
    outer loop
      vertex 2.307690 -28.319511 15.000000
      vertex 6.053588 -35.355634 15.000000
      vertex 6.053588 -35.355634 0.000000
    endloop
  endfacet
  facet normal 0.882702 0.469934 0.000000
    outer loop
      vertex 2.307690 -28.319511 0.000000
      vertex 2.307690 -28.319511 15.000000
      vertex 6.053588 -35.355634 0.000000
    endloop
  endfacet
  facet normal 0.173648 -0.984808 0.000000
    outer loop
      vertex 7.517323 -27.400912 0.000000
      vertex 7.517323 -27.400912 15.000000
      vertex 2.307690 -28.319511 15.000000
    endloop
  endfacet
  facet normal 0.173648 -0.984808 0.000000
    outer loop
      vertex 2.307690 -28.319511 0.000000
      vertex 7.517323 -27.400912 0.000000
      vertex 2.307690 -28.319511 15.000000
    endloop
  endfacet
  facet normal -0.990195 0.139691 0.000000
    outer loop
      vertex 7.517323 -27.400912 15.000000
      vertex 7.517323 -27.400912 0.000000
      vertex 6.403827 -35.293877 15.000000
    endloop
  endfacet
  facet normal -0.990195 0.139691 0.000000
    outer loop
      vertex 6.403827 -35.293877 15.000000
      vertex 7.517323 -27.400912 0.000000
      vertex 6.403827 -35.293877 0.000000
    endloop
  endfacet
  facet normal 0.286803 -0.957990 0.000000
    outer loop
      vertex 6.403827 -35.293877 15.000000
      vertex 6.403827 -35.293877 0.000000
      vertex 14.043983 -33.006565 0.000000
    endloop
  endfacet
  facet normal 0.286803 -0.957990 0.000000
    outer loop
      vertex 14.043983 -33.006565 15.000000
      vertex 6.403827 -35.293877 15.000000
      vertex 14.043983 -33.006565 0.000000
    endloop
  endfacet
  facet normal 0.750534 0.660832 0.000000
    outer loop
      vertex 8.776415 -27.023965 15.000000
      vertex 14.043983 -33.006565 15.000000
      vertex 14.043983 -33.006565 0.000000
    endloop
  endfacet
  facet normal 0.750534 0.660832 0.000000
    outer loop
      vertex 8.776415 -27.023965 0.000000
      vertex 8.776415 -27.023965 15.000000
      vertex 14.043983 -33.006565 0.000000
    endloop
  endfacet
  facet normal 0.396080 -0.918216 0.000000
    outer loop
      vertex 13.633778 -24.928703 0.000000
      vertex 13.633778 -24.928703 15.000000
      vertex 8.776415 -27.023965 15.000000
    endloop
  endfacet
  facet normal 0.396080 -0.918216 0.000000
    outer loop
      vertex 8.776415 -27.023965 0.000000
      vertex 13.633778 -24.928703 0.000000
      vertex 8.776415 -27.023965 15.000000
    endloop
  endfacet
  facet normal -0.995719 -0.092429 0.000000
    outer loop
      vertex 14.370539 -32.865702 15.000000
      vertex 13.633778 -24.928703 15.000000
      vertex 14.370539 -32.865702 0.000000
    endloop
  endfacet
  facet normal -0.995719 -0.092429 0.000000
    outer loop
      vertex 14.370539 -32.865702 0.000000
      vertex 13.633778 -24.928703 15.000000
      vertex 13.633778 -24.928703 0.000000
    endloop
  endfacet
  facet normal 0.500000 -0.866025 0.000000
    outer loop
      vertex 14.370539 -32.865702 15.000000
      vertex 14.370539 -32.865702 0.000000
      vertex 21.277263 -28.878103 0.000000
    endloop
  endfacet
  facet normal 0.500000 -0.866025 0.000000
    outer loop
      vertex 21.277263 -28.878103 15.000000
      vertex 14.370539 -32.865702 15.000000
      vertex 21.277263 -28.878103 0.000000
    endloop
  endfacet
  facet normal 0.577905 0.816104 -0.000000
    outer loop
      vertex 21.277263 -28.878103 15.000000
      vertex 21.277263 -28.878103 0.000000
      vertex 14.772001 -24.271550 15.000000
    endloop
  endfacet
  facet normal 0.577905 0.816104 -0.000000
    outer loop
      vertex 14.772001 -24.271550 15.000000
      vertex 21.277263 -28.878103 0.000000
      vertex 14.772001 -24.271550 0.000000
    endloop
  endfacet
  facet normal 0.597159 -0.802123 0.000000
    outer loop
      vertex 19.015232 -21.112581 0.000000
      vertex 19.015232 -21.112581 15.000000
      vertex 14.772001 -24.271550 15.000000
    endloop
  endfacet
  facet normal 0.597159 -0.802123 0.000000
    outer loop
      vertex 14.772001 -24.271550 0.000000
      vertex 19.015232 -21.112581 0.000000
      vertex 14.772001 -24.271550 15.000000
    endloop
  endfacet
  facet normal -0.947564 -0.319566 0.000000
    outer loop
      vertex 21.562532 -28.665728 15.000000
      vertex 19.015232 -21.112581 15.000000
      vertex 21.562532 -28.665728 0.000000
    endloop
  endfacet
  facet normal -0.947564 -0.319566 0.000000
    outer loop
      vertex 21.562532 -28.665728 0.000000
      vertex 19.015232 -21.112581 15.000000
      vertex 19.015232 -21.112581 0.000000
    endloop
  endfacet
  facet normal 0.686242 -0.727374 0.000000
    outer loop
      vertex 21.562532 -28.665728 15.000000
      vertex 21.562532 -28.665728 0.000000
      vertex 27.363482 -23.192816 0.000000
    endloop
  endfacet
  facet normal 0.686242 -0.727374 0.000000
    outer loop
      vertex 27.363482 -23.192816 15.000000
      vertex 21.562532 -28.665728 15.000000
      vertex 27.363482 -23.192816 0.000000
    endloop
  endfacet
  facet normal 0.374121 0.927380 -0.000000
    outer loop
      vertex 27.363482 -23.192816 15.000000
      vertex 27.363482 -23.192816 0.000000
      vertex 19.971224 -20.210649 15.000000
    endloop
  endfacet
  facet normal 0.374121 0.927380 -0.000000
    outer loop
      vertex 19.971224 -20.210649 15.000000
      vertex 27.363482 -23.192816 0.000000
      vertex 19.971224 -20.210649 0.000000
    endloop
  endfacet
  facet normal 0.766044 -0.642788 0.000000
    outer loop
      vertex 23.371571 -16.158274 0.000000
      vertex 23.371571 -16.158274 15.000000
      vertex 19.971224 -20.210649 15.000000
    endloop
  endfacet
  facet normal 0.766044 -0.642788 0.000000
    outer loop
      vertex 19.971224 -20.210649 0.000000
      vertex 23.371571 -16.158274 0.000000
      vertex 19.971224 -20.210649 15.000000
    endloop
  endfacet
  facet normal -0.848325 -0.529475 0.000000
    outer loop
      vertex 27.592083 -22.920379 15.000000
      vertex 23.371571 -16.158274 15.000000
      vertex 27.592083 -22.920379 0.000000
    endloop
  endfacet
  facet normal -0.848325 -0.529475 0.000000
    outer loop
      vertex 27.592083 -22.920379 0.000000
      vertex 23.371571 -16.158274 15.000000
      vertex 23.371571 -16.158274 0.000000
    endloop
  endfacet
  facet normal 0.835488 -0.549509 0.000000
    outer loop
      vertex 27.592083 -22.920379 15.000000
      vertex 27.592083 -22.920379 0.000000
      vertex 31.974527 -16.257197 0.000000
    endloop
  endfacet
  facet normal 0.835488 -0.549509 0.000000
    outer loop
      vertex 31.974527 -16.257197 15.000000
      vertex 27.592083 -22.920379 15.000000
      vertex 31.974527 -16.257197 0.000000
    endloop
  endfacet
  facet normal 0.150168 0.988660 -0.000000
    outer loop
      vertex 31.974527 -16.257197 15.000000
      vertex 31.974527 -16.257197 0.000000
      vertex 24.093794 -15.060187 15.000000
    endloop
  endfacet
  facet normal 0.150168 0.988660 -0.000000
    outer loop
      vertex 24.093794 -15.060187 15.000000
      vertex 31.974527 -16.257197 0.000000
      vertex 24.093794 -15.060187 0.000000
    endloop
  endfacet
  facet normal 0.893633 -0.448799 0.000000
    outer loop
      vertex 26.467941 -10.332870 0.000000
      vertex 26.467941 -10.332870 15.000000
      vertex 24.093794 -15.060187 15.000000
    endloop
  endfacet
  facet normal 0.893633 -0.448799 0.000000
    outer loop
      vertex 24.093794 -15.060187 0.000000
      vertex 26.467941 -10.332870 0.000000
      vertex 24.093794 -15.060187 15.000000
    endloop
  endfacet
  facet normal -0.703353 -0.710841 -0.000000
    outer loop
      vertex 32.134138 -15.939385 0.000000
      vertex 32.134138 -15.939385 15.000000
      vertex 26.467941 -10.332870 15.000000
    endloop
  endfacet
  facet normal -0.703353 -0.710841 -0.000000
    outer loop
      vertex 26.467941 -10.332870 0.000000
      vertex 32.134138 -15.939385 0.000000
      vertex 26.467941 -10.332870 15.000000
    endloop
  endfacet
  facet normal 0.939693 -0.342020 0.000000
    outer loop
      vertex 32.134138 -15.939385 15.000000
      vertex 32.134138 -15.939385 0.000000
      vertex 34.861817 -8.445149 0.000000
    endloop
  endfacet
  facet normal 0.939693 -0.342020 0.000000
    outer loop
      vertex 34.861817 -8.445149 15.000000
      vertex 32.134138 -15.939385 15.000000
      vertex 34.861817 -8.445149 0.000000
    endloop
  endfacet
  facet normal -0.081880 0.996642 0.000000
    outer loop
      vertex 34.861817 -8.445149 15.000000
      vertex 34.861817 -8.445149 0.000000
      vertex 26.917460 -9.097827 15.000000
    endloop
  endfacet
  facet normal -0.081880 0.996642 0.000000
    outer loop
      vertex 26.917460 -9.097827 15.000000
      vertex 34.861817 -8.445149 0.000000
      vertex 26.917460 -9.097827 0.000000
    endloop
  endfacet
  facet normal 0.973045 -0.230616 0.000000
    outer loop
      vertex 28.137418 -3.950419 0.000000
      vertex 28.137418 -3.950419 15.000000
      vertex 26.917460 -9.097827 15.000000
    endloop
  endfacet
  facet normal 0.973045 -0.230616 0.000000
    outer loop
      vertex 26.917460 -9.097827 0.000000
      vertex 28.137418 -3.950419 0.000000
      vertex 26.917460 -9.097827 15.000000
    endloop
  endfacet
  facet normal -0.520463 -0.853884 -0.000000
    outer loop
      vertex 34.943833 -8.099094 0.000000
      vertex 34.943833 -8.099094 15.000000
      vertex 28.137418 -3.950419 15.000000
    endloop
  endfacet
  facet normal -0.520463 -0.853884 -0.000000
    outer loop
      vertex 28.137418 -3.950419 0.000000
      vertex 34.943833 -8.099094 0.000000
      vertex 28.137418 -3.950419 15.000000
    endloop
  endfacet
  facet normal 0.993238 -0.116093 0.000000
    outer loop
      vertex 34.943833 -8.099094 15.000000
      vertex 34.943833 -8.099094 0.000000
      vertex 35.869697 -0.177821 0.000000
    endloop
  endfacet
  facet normal 0.993238 -0.116093 0.000000
    outer loop
      vertex 35.869697 -0.177821 15.000000
      vertex 34.943833 -8.099094 15.000000
      vertex 35.869697 -0.177821 0.000000
    endloop
  endfacet
  facet normal -0.309515 0.950895 0.000000
    outer loop
      vertex 35.869697 -0.177821 15.000000
      vertex 35.869697 -0.177821 0.000000
      vertex 28.290000 -2.645000 15.000000
    endloop
  endfacet
  facet normal -0.309515 0.950895 0.000000
    outer loop
      vertex 28.290000 -2.645000 15.000000
      vertex 35.869697 -0.177821 0.000000
      vertex 28.290000 -2.645000 0.000000
    endloop
  endfacet
  facet normal 1.000000 -0.000000 0.000000
    outer loop
      vertex 28.290000 2.645000 0.000000
      vertex 28.290000 2.645000 15.000000
      vertex 28.290000 -2.645000 15.000000
    endloop
  endfacet
  facet normal 1.000000 -0.000000 0.000000
    outer loop
      vertex 28.290000 -2.645000 0.000000
      vertex 28.290000 2.645000 0.000000
      vertex 28.290000 -2.645000 15.000000
    endloop
  endfacet
  facet normal -0.309515 -0.950895 -0.000000
    outer loop
      vertex 35.869697 0.177821 0.000000
      vertex 35.869697 0.177821 15.000000
      vertex 28.290000 2.645000 15.000000
    endloop
  endfacet
  facet normal -0.309515 -0.950895 -0.000000
    outer loop
      vertex 28.290000 2.645000 0.000000
      vertex 35.869697 0.177821 0.000000
      vertex 28.290000 2.645000 15.000000
    endloop
  endfacet
  facet normal 0.993238 0.116093 0.000000
    outer loop
      vertex 35.869697 0.177821 0.000000
      vertex 34.943833 8.099094 0.000000
      vertex 34.943833 8.099094 15.000000
    endloop
  endfacet
  facet normal 0.993238 0.116093 -0.000000
    outer loop
      vertex 35.869697 0.177821 15.000000
      vertex 35.869697 0.177821 0.000000
      vertex 34.943833 8.099094 15.000000
    endloop
  endfacet
  facet normal -0.520463 0.853884 0.000000
    outer loop
      vertex 34.943833 8.099094 15.000000
      vertex 34.943833 8.099094 0.000000
      vertex 28.137418 3.950419 15.000000
    endloop
  endfacet
  facet normal -0.520463 0.853884 0.000000
    outer loop
      vertex 28.137418 3.950419 15.000000
      vertex 34.943833 8.099094 0.000000
      vertex 28.137418 3.950419 0.000000
    endloop
  endfacet
  facet normal 0.973045 0.230616 0.000000
    outer loop
      vertex 26.917460 9.097827 15.000000
      vertex 28.137418 3.950419 15.000000
      vertex 28.137418 3.950419 0.000000
    endloop
  endfacet
  facet normal 0.973045 0.230616 0.000000
    outer loop
      vertex 26.917460 9.097827 0.000000
      vertex 26.917460 9.097827 15.000000
      vertex 28.137418 3.950419 0.000000
    endloop
  endfacet
  facet normal -0.081880 -0.996642 -0.000000
    outer loop
      vertex 34.861817 8.445149 0.000000
      vertex 34.861817 8.445149 15.000000
      vertex 26.917460 9.097827 15.000000
    endloop
  endfacet
  facet normal -0.081880 -0.996642 -0.000000
    outer loop
      vertex 26.917460 9.097827 0.000000
      vertex 34.861817 8.445149 0.000000
      vertex 26.917460 9.097827 15.000000
    endloop
  endfacet
  facet normal 0.939693 0.342020 0.000000
    outer loop
      vertex 34.861817 8.445149 0.000000
      vertex 32.134138 15.939385 0.000000
      vertex 32.134138 15.939385 15.000000
    endloop
  endfacet
  facet normal 0.939693 0.342020 -0.000000
    outer loop
      vertex 34.861817 8.445149 15.000000
      vertex 34.861817 8.445149 0.000000
      vertex 32.134138 15.939385 15.000000
    endloop
  endfacet
  facet normal -0.703353 0.710841 0.000000
    outer loop
      vertex 32.134138 15.939385 15.000000
      vertex 32.134138 15.939385 0.000000
      vertex 26.467941 10.332870 15.000000
    endloop
  endfacet
  facet normal -0.703353 0.710841 0.000000
    outer loop
      vertex 26.467941 10.332870 15.000000
      vertex 32.134138 15.939385 0.000000
      vertex 26.467941 10.332870 0.000000
    endloop
  endfacet
  facet normal 0.893633 0.448799 0.000000
    outer loop
      vertex 24.093794 15.060187 15.000000
      vertex 26.467941 10.332870 15.000000
      vertex 26.467941 10.332870 0.000000
    endloop
  endfacet
  facet normal 0.893633 0.448799 0.000000
    outer loop
      vertex 24.093794 15.060187 0.000000
      vertex 24.093794 15.060187 15.000000
      vertex 26.467941 10.332870 0.000000
    endloop
  endfacet
  facet normal 0.150168 -0.988660 0.000000
    outer loop
      vertex 31.974527 16.257197 0.000000
      vertex 31.974527 16.257197 15.000000
      vertex 24.093794 15.060187 15.000000
    endloop
  endfacet
  facet normal 0.150168 -0.988660 0.000000
    outer loop
      vertex 24.093794 15.060187 0.000000
      vertex 31.974527 16.257197 0.000000
      vertex 24.093794 15.060187 15.000000
    endloop
  endfacet
  facet normal 0.835488 0.549509 0.000000
    outer loop
      vertex 31.974527 16.257197 0.000000
      vertex 27.592083 22.920379 0.000000
      vertex 27.592083 22.920379 15.000000
    endloop
  endfacet
  facet normal 0.835488 0.549509 -0.000000
    outer loop
      vertex 31.974527 16.257197 15.000000
      vertex 31.974527 16.257197 0.000000
      vertex 27.592083 22.920379 15.000000
    endloop
  endfacet
  facet normal -0.848325 0.529475 0.000000
    outer loop
      vertex 27.592083 22.920379 15.000000
      vertex 27.592083 22.920379 0.000000
      vertex 23.371571 16.158274 15.000000
    endloop
  endfacet
  facet normal -0.848325 0.529475 0.000000
    outer loop
      vertex 23.371571 16.158274 15.000000
      vertex 27.592083 22.920379 0.000000
      vertex 23.371571 16.158274 0.000000
    endloop
  endfacet
  facet normal 0.766044 0.642788 0.000000
    outer loop
      vertex 19.971224 20.210649 15.000000
      vertex 23.371571 16.158274 15.000000
      vertex 23.371571 16.158274 0.000000
    endloop
  endfacet
  facet normal 0.766044 0.642788 0.000000
    outer loop
      vertex 19.971224 20.210649 0.000000
      vertex 19.971224 20.210649 15.000000
      vertex 23.371571 16.158274 0.000000
    endloop
  endfacet
  facet normal 0.374121 -0.927380 0.000000
    outer loop
      vertex 27.363482 23.192816 0.000000
      vertex 27.363482 23.192816 15.000000
      vertex 19.971224 20.210649 15.000000
    endloop
  endfacet
  facet normal 0.374121 -0.927380 0.000000
    outer loop
      vertex 19.971224 20.210649 0.000000
      vertex 27.363482 23.192816 0.000000
      vertex 19.971224 20.210649 15.000000
    endloop
  endfacet
  facet normal 0.686242 0.727374 0.000000
    outer loop
      vertex 21.562532 28.665728 0.000000
      vertex 21.562532 28.665728 15.000000
      vertex 27.363482 23.192816 0.000000
    endloop
  endfacet
  facet normal 0.686242 0.727374 0.000000
    outer loop
      vertex 27.363482 23.192816 0.000000
      vertex 21.562532 28.665728 15.000000
      vertex 27.363482 23.192816 15.000000
    endloop
  endfacet
  facet normal -0.947564 0.319566 0.000000
    outer loop
      vertex 21.562532 28.665728 15.000000
      vertex 21.562532 28.665728 0.000000
      vertex 19.015232 21.112581 15.000000
    endloop
  endfacet
  facet normal -0.947564 0.319566 0.000000
    outer loop
      vertex 19.015232 21.112581 15.000000
      vertex 21.562532 28.665728 0.000000
      vertex 19.015232 21.112581 0.000000
    endloop
  endfacet
  facet normal 0.597159 0.802123 -0.000000
    outer loop
      vertex 19.015232 21.112581 15.000000
      vertex 19.015232 21.112581 0.000000
      vertex 14.772001 24.271550 15.000000
    endloop
  endfacet
  facet normal 0.597159 0.802123 -0.000000
    outer loop
      vertex 14.772001 24.271550 15.000000
      vertex 19.015232 21.112581 0.000000
      vertex 14.772001 24.271550 0.000000
    endloop
  endfacet
  facet normal 0.577905 -0.816104 0.000000
    outer loop
      vertex 21.277263 28.878103 0.000000
      vertex 21.277263 28.878103 15.000000
      vertex 14.772001 24.271550 15.000000
    endloop
  endfacet
  facet normal 0.577905 -0.816104 0.000000
    outer loop
      vertex 14.772001 24.271550 0.000000
      vertex 21.277263 28.878103 0.000000
      vertex 14.772001 24.271550 15.000000
    endloop
  endfacet
  facet normal 0.500000 0.866025 0.000000
    outer loop
      vertex 14.370539 32.865702 0.000000
      vertex 14.370539 32.865702 15.000000
      vertex 21.277263 28.878103 0.000000
    endloop
  endfacet
  facet normal 0.500000 0.866025 0.000000
    outer loop
      vertex 21.277263 28.878103 0.000000
      vertex 14.370539 32.865702 15.000000
      vertex 21.277263 28.878103 15.000000
    endloop
  endfacet
  facet normal -0.995719 0.092429 0.000000
    outer loop
      vertex 14.370539 32.865702 15.000000
      vertex 14.370539 32.865702 0.000000
      vertex 13.633778 24.928703 15.000000
    endloop
  endfacet
  facet normal -0.995719 0.092429 0.000000
    outer loop
      vertex 13.633778 24.928703 15.000000
      vertex 14.370539 32.865702 0.000000
      vertex 13.633778 24.928703 0.000000
    endloop
  endfacet
  facet normal 0.396080 0.918216 -0.000000
    outer loop
      vertex 13.633778 24.928703 15.000000
      vertex 13.633778 24.928703 0.000000
      vertex 8.776415 27.023965 15.000000
    endloop
  endfacet
  facet normal 0.396080 0.918216 -0.000000
    outer loop
      vertex 8.776415 27.023965 15.000000
      vertex 13.633778 24.928703 0.000000
      vertex 8.776415 27.023965 0.000000
    endloop
  endfacet
  facet normal 0.750534 -0.660832 0.000000
    outer loop
      vertex 14.043983 33.006565 0.000000
      vertex 14.043983 33.006565 15.000000
      vertex 8.776415 27.023965 15.000000
    endloop
  endfacet
  facet normal 0.750534 -0.660832 0.000000
    outer loop
      vertex 8.776415 27.023965 0.000000
      vertex 14.043983 33.006565 0.000000
      vertex 8.776415 27.023965 15.000000
    endloop
  endfacet
  facet normal 0.286803 0.957990 0.000000
    outer loop
      vertex 6.403827 35.293877 0.000000
      vertex 6.403827 35.293877 15.000000
      vertex 14.043983 33.006565 0.000000
    endloop
  endfacet
  facet normal 0.286803 0.957990 0.000000
    outer loop
      vertex 14.043983 33.006565 0.000000
      vertex 6.403827 35.293877 15.000000
      vertex 14.043983 33.006565 15.000000
    endloop
  endfacet
  facet normal -0.990195 -0.139691 0.000000
    outer loop
      vertex 7.517323 27.400912 15.000000
      vertex 6.403827 35.293877 15.000000
      vertex 7.517323 27.400912 0.000000
    endloop
  endfacet
  facet normal -0.990195 -0.139691 0.000000
    outer loop
      vertex 7.517323 27.400912 0.000000
      vertex 6.403827 35.293877 15.000000
      vertex 6.403827 35.293877 0.000000
    endloop
  endfacet
  facet normal 0.173648 0.984808 -0.000000
    outer loop
      vertex 7.517323 27.400912 15.000000
      vertex 7.517323 27.400912 0.000000
      vertex 2.307690 28.319511 15.000000
    endloop
  endfacet
  facet normal 0.173648 0.984808 -0.000000
    outer loop
      vertex 2.307690 28.319511 15.000000
      vertex 7.517323 27.400912 0.000000
      vertex 2.307690 28.319511 0.000000
    endloop
  endfacet
  facet normal 0.882702 -0.469934 0.000000
    outer loop
      vertex 6.053588 35.355634 0.000000
      vertex 6.053588 35.355634 15.000000
      vertex 2.307690 28.319511 15.000000
    endloop
  endfacet
  facet normal 0.882702 -0.469934 0.000000
    outer loop
      vertex 2.307690 28.319511 0.000000
      vertex 6.053588 35.355634 0.000000
      vertex 2.307690 28.319511 15.000000
    endloop
  endfacet
  facet normal 0.058145 0.998308 0.000000
    outer loop
      vertex -1.908117 35.819350 0.000000
      vertex -1.908117 35.819350 15.000000
      vertex 6.053588 35.355634 0.000000
    endloop
  endfacet
  facet normal 0.058145 0.998308 0.000000
    outer loop
      vertex 6.053588 35.355634 0.000000
      vertex -1.908117 35.819350 15.000000
      vertex 6.053588 35.355634 15.000000
    endloop
  endfacet
  facet normal -0.931289 -0.364281 0.000000
    outer loop
      vertex 0.995608 28.395931 15.000000
      vertex -1.908117 35.819350 15.000000
      vertex 0.995608 28.395931 0.000000
    endloop
  endfacet
  facet normal -0.931289 -0.364281 0.000000
    outer loop
      vertex 0.995608 28.395931 0.000000
      vertex -1.908117 35.819350 15.000000
      vertex -1.908117 35.819350 0.000000
    endloop
  endfacet
  facet normal -0.058145 0.998308 0.000000
    outer loop
      vertex 0.995608 28.395931 15.000000
      vertex 0.995608 28.395931 0.000000
      vertex -4.285442 28.088345 15.000000
    endloop
  endfacet
  facet normal -0.058145 0.998308 0.000000
    outer loop
      vertex -4.285442 28.088345 15.000000
      vertex 0.995608 28.395931 0.000000
      vertex -4.285442 28.088345 0.000000
    endloop
  endfacet
  facet normal 0.967283 -0.253701 0.000000
    outer loop
      vertex -2.263157 35.798672 0.000000
      vertex -2.263157 35.798672 15.000000
      vertex -4.285442 28.088345 15.000000
    endloop
  endfacet
  facet normal 0.967283 -0.253701 0.000000
    outer loop
      vertex -4.285442 28.088345 0.000000
      vertex -2.263157 35.798672 0.000000
      vertex -4.285442 28.088345 15.000000
    endloop
  endfacet
  facet normal -0.173648 0.984808 0.000000
    outer loop
      vertex -10.117195 34.413793 0.000000
      vertex -10.117195 34.413793 15.000000
      vertex -2.263157 35.798672 0.000000
    endloop
  endfacet
  facet normal -0.173648 0.984808 0.000000
    outer loop
      vertex -2.263157 35.798672 0.000000
      vertex -10.117195 34.413793 15.000000
      vertex -2.263157 35.798672 15.000000
    endloop
  endfacet
  facet normal -0.822177 -0.569231 0.000000
    outer loop
      vertex -5.579781 27.860118 15.000000
      vertex -10.117195 34.413793 15.000000
      vertex -5.579781 27.860118 0.000000
    endloop
  endfacet
  facet normal -0.822177 -0.569231 0.000000
    outer loop
      vertex -5.579781 27.860118 0.000000
      vertex -10.117195 34.413793 15.000000
      vertex -10.117195 34.413793 0.000000
    endloop
  endfacet
  facet normal -0.286803 0.957990 0.000000
    outer loop
      vertex -5.579781 27.860118 15.000000
      vertex -5.579781 27.860118 0.000000
      vertex -10.647546 26.342929 15.000000
    endloop
  endfacet
  facet normal -0.286803 0.957990 0.000000
    outer loop
      vertex -10.647546 26.342929 15.000000
      vertex -5.579781 27.860118 0.000000
      vertex -10.647546 26.342929 0.000000
    endloop
  endfacet
  facet normal 0.999717 -0.023792 0.000000
    outer loop
      vertex -10.457895 34.311794 0.000000
      vertex -10.457895 34.311794 15.000000
      vertex -10.647546 26.342929 15.000000
    endloop
  endfacet
  facet normal 0.999717 -0.023792 0.000000
    outer loop
      vertex -10.647546 26.342929 0.000000
      vertex -10.457895 34.311794 0.000000
      vertex -10.647546 26.342929 15.000000
    endloop
  endfacet
  facet normal -0.396080 0.918216 0.000000
    outer loop
      vertex -17.780852 31.152980 0.000000
      vertex -17.780852 31.152980 15.000000
      vertex -10.457895 34.311794 0.000000
    endloop
  endfacet
  facet normal -0.396080 0.918216 0.000000
    outer loop
      vertex -10.457895 34.311794 0.000000
      vertex -17.780852 31.152980 15.000000
      vertex -10.457895 34.311794 15.000000
    endloop
  endfacet
  facet normal -0.668742 -0.743495 -0.000000
    outer loop
      vertex -11.854363 25.822359 0.000000
      vertex -11.854363 25.822359 15.000000
      vertex -17.780852 31.152980 15.000000
    endloop
  endfacet
  facet normal -0.668742 -0.743495 -0.000000
    outer loop
      vertex -17.780852 31.152980 0.000000
      vertex -11.854363 25.822359 0.000000
      vertex -17.780852 31.152980 15.000000
    endloop
  endfacet
  facet normal -0.500000 0.866025 0.000000
    outer loop
      vertex -11.854363 25.822359 15.000000
      vertex -11.854363 25.822359 0.000000
      vertex -16.435637 23.177359 15.000000
    endloop
  endfacet
  facet normal -0.500000 0.866025 0.000000
    outer loop
      vertex -16.435637 23.177359 15.000000
      vertex -11.854363 25.822359 0.000000
      vertex -16.435637 23.177359 0.000000
    endloop
  endfacet
  facet normal 0.978256 0.207400 0.000000
    outer loop
      vertex -18.088846 30.975159 15.000000
      vertex -16.435637 23.177359 15.000000
      vertex -16.435637 23.177359 0.000000
    endloop
  endfacet
  facet normal 0.978256 0.207400 0.000000
    outer loop
      vertex -18.088846 30.975159 0.000000
      vertex -18.088846 30.975159 15.000000
      vertex -16.435637 23.177359 0.000000
    endloop
  endfacet
  facet normal -0.597159 0.802123 0.000000
    outer loop
      vertex -24.485938 26.212700 0.000000
      vertex -24.485938 26.212700 15.000000
      vertex -18.088846 30.975159 0.000000
    endloop
  endfacet
  facet normal -0.597159 0.802123 0.000000
    outer loop
      vertex -18.088846 30.975159 0.000000
      vertex -24.485938 26.212700 15.000000
      vertex -18.088846 30.975159 15.000000
    endloop
  endfacet
  facet normal -0.479254 -0.877676 -0.000000
    outer loop
      vertex -17.489873 22.392509 0.000000
      vertex -17.489873 22.392509 15.000000
      vertex -24.485938 26.212700 15.000000
    endloop
  endfacet
  facet normal -0.479254 -0.877676 -0.000000
    outer loop
      vertex -24.485938 26.212700 0.000000
      vertex -17.489873 22.392509 0.000000
      vertex -24.485938 26.212700 15.000000
    endloop
  endfacet
  facet normal -0.686242 0.727374 0.000000
    outer loop
      vertex -17.489873 22.392509 15.000000
      vertex -17.489873 22.392509 0.000000
      vertex -21.337679 18.762291 15.000000
    endloop
  endfacet
  facet normal -0.686242 0.727374 0.000000
    outer loop
      vertex -21.337679 18.762291 15.000000
      vertex -17.489873 22.392509 0.000000
      vertex -21.337679 18.762291 0.000000
    endloop
  endfacet
  facet normal 0.904058 0.427411 0.000000
    outer loop
      vertex -24.744622 25.968644 15.000000
      vertex -21.337679 18.762291 15.000000
      vertex -21.337679 18.762291 0.000000
    endloop
  endfacet
  facet normal 0.904058 0.427411 0.000000
    outer loop
      vertex -24.744622 25.968644 0.000000
      vertex -24.744622 25.968644 15.000000
      vertex -21.337679 18.762291 0.000000
    endloop
  endfacet
  facet normal -0.766044 0.642788 0.000000
    outer loop
      vertex -29.870981 19.859288 0.000000
      vertex -29.870981 19.859288 15.000000
      vertex -24.744622 25.968644 0.000000
    endloop
  endfacet
  facet normal -0.766044 0.642788 0.000000
    outer loop
      vertex -24.744622 25.968644 0.000000
      vertex -29.870981 19.859288 15.000000
      vertex -24.744622 25.968644 15.000000
    endloop
  endfacet
  facet normal -0.263929 -0.964542 -0.000000
    outer loop
      vertex -22.182499 17.755474 0.000000
      vertex -22.182499 17.755474 15.000000
      vertex -29.870981 19.859288 15.000000
    endloop
  endfacet
  facet normal -0.263929 -0.964542 -0.000000
    outer loop
      vertex -29.870981 19.859288 0.000000
      vertex -22.182499 17.755474 0.000000
      vertex -29.870981 19.859288 15.000000
    endloop
  endfacet
  facet normal -0.835488 0.549509 0.000000
    outer loop
      vertex -22.182499 17.755474 15.000000
      vertex -22.182499 17.755474 0.000000
      vertex -25.089401 13.335744 15.000000
    endloop
  endfacet
  facet normal -0.835488 0.549509 0.000000
    outer loop
      vertex -25.089401 13.335744 15.000000
      vertex -22.182499 17.755474 0.000000
      vertex -25.089401 13.335744 0.000000
    endloop
  endfacet
  facet normal 0.781121 0.624380 0.000000
    outer loop
      vertex -30.066409 19.562154 15.000000
      vertex -25.089401 13.335744 15.000000
      vertex -25.089401 13.335744 0.000000
    endloop
  endfacet
  facet normal 0.781121 0.624380 0.000000
    outer loop
      vertex -30.066409 19.562154 0.000000
      vertex -30.066409 19.562154 15.000000
      vertex -25.089401 13.335744 0.000000
    endloop
  endfacet
  facet normal -0.893633 0.448799 0.000000
    outer loop
      vertex -33.645671 12.435256 0.000000
      vertex -33.645671 12.435256 15.000000
      vertex -30.066409 19.562154 0.000000
    endloop
  endfacet
  facet normal -0.893633 0.448799 0.000000
    outer loop
      vertex -30.066409 19.562154 0.000000
      vertex -33.645671 12.435256 15.000000
      vertex -30.066409 19.562154 15.000000
    endloop
  endfacet
  facet normal -0.034376 -0.999409 -0.000000
    outer loop
      vertex -25.679261 12.161237 0.000000
      vertex -25.679261 12.161237 15.000000
      vertex -33.645671 12.435256 15.000000
    endloop
  endfacet
  facet normal -0.034376 -0.999409 -0.000000
    outer loop
      vertex -33.645671 12.435256 0.000000
      vertex -25.679261 12.161237 0.000000
      vertex -33.645671 12.435256 15.000000
    endloop
  endfacet
  facet normal -0.939693 0.342020 0.000000
    outer loop
      vertex -25.679261 12.161237 15.000000
      vertex -25.679261 12.161237 0.000000
      vertex -27.488548 7.190263 15.000000
    endloop
  endfacet
  facet normal -0.939693 0.342020 0.000000
    outer loop
      vertex -27.488548 7.190263 15.000000
      vertex -25.679261 12.161237 0.000000
      vertex -27.488548 7.190263 0.000000
    endloop
  endfacet
  facet normal 0.616074 0.787688 -0.000000
    outer loop
      vertex -27.488548 7.190263 15.000000
      vertex -27.488548 7.190263 0.000000
      vertex -33.767308 12.101062 15.000000
    endloop
  endfacet
  facet normal 0.616074 0.787688 -0.000000
    outer loop
      vertex -33.767308 12.101062 15.000000
      vertex -27.488548 7.190263 0.000000
      vertex -33.767308 12.101062 0.000000
    endloop
  endfacet
  facet normal -0.973045 0.230616 0.000000
    outer loop
      vertex -35.606516 4.340836 0.000000
      vertex -35.606516 4.340836 15.000000
      vertex -33.767308 12.101062 0.000000
    endloop
  endfacet
  facet normal -0.973045 0.230616 0.000000
    outer loop
      vertex -33.767308 12.101062 0.000000
      vertex -35.606516 4.340836 15.000000
      vertex -33.767308 12.101062 15.000000
    endloop
  endfacet
  facet normal 0.197030 -0.980398 0.000000
    outer loop
      vertex -27.791647 5.911384 0.000000
      vertex -27.791647 5.911384 15.000000
      vertex -35.606516 4.340836 15.000000
    endloop
  endfacet
  facet normal 0.197030 -0.980398 0.000000
    outer loop
      vertex -35.606516 4.340836 0.000000
      vertex -27.791647 5.911384 0.000000
      vertex -35.606516 4.340836 15.000000
    endloop
  endfacet
  facet normal -0.993238 0.116093 0.000000
    outer loop
      vertex -27.791647 5.911384 15.000000
      vertex -27.791647 5.911384 0.000000
      vertex -28.405779 0.657153 15.000000
    endloop
  endfacet
  facet normal -0.993238 0.116093 0.000000
    outer loop
      vertex -28.405779 0.657153 15.000000
      vertex -27.791647 5.911384 0.000000
      vertex -28.405779 0.657153 0.000000
    endloop
  endfacet
  facet normal 0.417814 0.908533 -0.000000
    outer loop
      vertex -28.405779 0.657153 15.000000
      vertex -28.405779 0.657153 0.000000
      vertex -35.647803 3.987599 15.000000
    endloop
  endfacet
  facet normal 0.417814 0.908533 -0.000000
    outer loop
      vertex -35.647803 3.987599 15.000000
      vertex -28.405779 0.657153 0.000000
      vertex -35.647803 3.987599 0.000000
    endloop
  endfacet
  facet normal 0.000000 0.000000 1.000000
    outer loop
      vertex -27.791647 -5.911384 15.000000
      vertex -27.488548 -7.190263 15.000000
      vertex -28.405779 -0.657153 15.000000
    endloop
  endfacet
  facet normal 0.000000 -0.000000 1.000000
    outer loop
      vertex -35.647803 3.987599 15.000000
      vertex -35.647803 -3.987599 15.000000
      vertex -28.405779 -0.657153 15.000000
    endloop
  endfacet
  facet normal 0.000000 0.000000 1.000000
    outer loop
      vertex -25.679261 -12.161237 15.000000
      vertex -25.089401 -13.335744 15.000000
      vertex -28.405779 -0.657153 15.000000
    endloop
  endfacet
  facet normal 0.000000 0.000000 1.000000
    outer loop
      vertex 13.633778 -24.928703 15.000000
      vertex -35.647803 3.987599 15.000000
      vertex -28.405779 -0.657153 15.000000
    endloop
  endfacet
  facet normal 0.000000 0.000000 1.000000
    outer loop
      vertex -35.606516 -4.340836 15.000000
      vertex -33.767308 -12.101062 15.000000
      vertex -27.791647 -5.911384 15.000000
    endloop
  endfacet
  facet normal 0.000000 0.000000 1.000000
    outer loop
      vertex -33.767308 -12.101062 15.000000
      vertex -27.488548 -7.190263 15.000000
      vertex -27.791647 -5.911384 15.000000
    endloop
  endfacet
  facet normal 0.000000 0.000000 1.000000
    outer loop
      vertex -22.182499 -17.755474 15.000000
      vertex -21.337679 -18.762291 15.000000
      vertex -28.405779 -0.657153 15.000000
    endloop
  endfacet
  facet normal 0.000000 0.000000 1.000000
    outer loop
      vertex -27.488548 -7.190263 15.000000
      vertex -25.679261 -12.161237 15.000000
      vertex -28.405779 -0.657153 15.000000
    endloop
  endfacet
  facet normal 0.000000 0.000000 1.000000
    outer loop
      vertex -33.645671 -12.435256 15.000000
      vertex -30.066409 -19.562154 15.000000
      vertex -25.679261 -12.161237 15.000000
    endloop
  endfacet
  facet normal 0.000000 0.000000 1.000000
    outer loop
      vertex -30.066409 -19.562154 15.000000
      vertex -25.089401 -13.335744 15.000000
      vertex -25.679261 -12.161237 15.000000
    endloop
  endfacet
  facet normal 0.000000 0.000000 1.000000
    outer loop
      vertex -17.489873 -22.392509 15.000000
      vertex -16.435637 -23.177359 15.000000
      vertex -28.405779 -0.657153 15.000000
    endloop
  endfacet
  facet normal 0.000000 0.000000 1.000000
    outer loop
      vertex -25.089401 -13.335744 15.000000
      vertex -22.182499 -17.755474 15.000000
      vertex -28.405779 -0.657153 15.000000
    endloop
  endfacet
  facet normal 0.000000 0.000000 1.000000
    outer loop
      vertex -29.870981 -19.859288 15.000000
      vertex -24.744622 -25.968644 15.000000
      vertex -22.182499 -17.755474 15.000000
    endloop
  endfacet
  facet normal 0.000000 0.000000 1.000000
    outer loop
      vertex -24.744622 -25.968644 15.000000
      vertex -21.337679 -18.762291 15.000000
      vertex -22.182499 -17.755474 15.000000
    endloop
  endfacet
  facet normal 0.000000 0.000000 1.000000
    outer loop
      vertex -11.854363 -25.822359 15.000000
      vertex -10.647546 -26.342929 15.000000
      vertex -28.405779 -0.657153 15.000000
    endloop
  endfacet
  facet normal 0.000000 0.000000 1.000000
    outer loop
      vertex -21.337679 -18.762291 15.000000
      vertex -17.489873 -22.392509 15.000000
      vertex -28.405779 -0.657153 15.000000
    endloop
  endfacet
  facet normal 0.000000 0.000000 1.000000
    outer loop
      vertex -24.485938 -26.212700 15.000000
      vertex -18.088846 -30.975159 15.000000
      vertex -17.489873 -22.392509 15.000000
    endloop
  endfacet
  facet normal 0.000000 0.000000 1.000000
    outer loop
      vertex -18.088846 -30.975159 15.000000
      vertex -16.435637 -23.177359 15.000000
      vertex -17.489873 -22.392509 15.000000
    endloop
  endfacet
  facet normal 0.000000 0.000000 1.000000
    outer loop
      vertex -5.579781 -27.860118 15.000000
      vertex -4.285442 -28.088345 15.000000
      vertex -28.405779 -0.657153 15.000000
    endloop
  endfacet
  facet normal 0.000000 0.000000 1.000000
    outer loop
      vertex -16.435637 -23.177359 15.000000
      vertex -11.854363 -25.822359 15.000000
      vertex -28.405779 -0.657153 15.000000
    endloop
  endfacet
  facet normal 0.000000 0.000000 1.000000
    outer loop
      vertex -17.780852 -31.152980 15.000000
      vertex -10.457895 -34.311794 15.000000
      vertex -11.854363 -25.822359 15.000000
    endloop
  endfacet
  facet normal 0.000000 0.000000 1.000000
    outer loop
      vertex -10.457895 -34.311794 15.000000
      vertex -10.647546 -26.342929 15.000000
      vertex -11.854363 -25.822359 15.000000
    endloop
  endfacet
  facet normal 0.000000 0.000000 1.000000
    outer loop
      vertex 0.995608 -28.395931 15.000000
      vertex 2.307690 -28.319511 15.000000
      vertex -28.405779 -0.657153 15.000000
    endloop
  endfacet
  facet normal 0.000000 0.000000 1.000000
    outer loop
      vertex -10.647546 -26.342929 15.000000
      vertex -5.579781 -27.860118 15.000000
      vertex -28.405779 -0.657153 15.000000
    endloop
  endfacet
  facet normal 0.000000 0.000000 1.000000
    outer loop
      vertex -10.117195 -34.413793 15.000000
      vertex -2.263157 -35.798672 15.000000
      vertex -5.579781 -27.860118 15.000000
    endloop
  endfacet
  facet normal 0.000000 0.000000 1.000000
    outer loop
      vertex -2.263157 -35.798672 15.000000
      vertex -4.285442 -28.088345 15.000000
      vertex -5.579781 -27.860118 15.000000
    endloop
  endfacet
  facet normal 0.000000 0.000000 1.000000
    outer loop
      vertex 7.517323 -27.400912 15.000000
      vertex 8.776415 -27.023965 15.000000
      vertex -28.405779 -0.657153 15.000000
    endloop
  endfacet
  facet normal 0.000000 0.000000 1.000000
    outer loop
      vertex -4.285442 -28.088345 15.000000
      vertex 0.995608 -28.395931 15.000000
      vertex -28.405779 -0.657153 15.000000
    endloop
  endfacet
  facet normal 0.000000 0.000000 1.000000
    outer loop
      vertex -1.908117 -35.819350 15.000000
      vertex 6.053588 -35.355634 15.000000
      vertex 0.995608 -28.395931 15.000000
    endloop
  endfacet
  facet normal 0.000000 0.000000 1.000000
    outer loop
      vertex 6.053588 -35.355634 15.000000
      vertex 2.307690 -28.319511 15.000000
      vertex 0.995608 -28.395931 15.000000
    endloop
  endfacet
  facet normal 0.000000 0.000000 1.000000
    outer loop
      vertex 13.633778 -24.928703 15.000000
      vertex 21.277263 -28.878103 15.000000
      vertex -35.647803 3.987599 15.000000
    endloop
  endfacet
  facet normal 0.000000 0.000000 1.000000
    outer loop
      vertex 2.307690 -28.319511 15.000000
      vertex 7.517323 -27.400912 15.000000
      vertex -28.405779 -0.657153 15.000000
    endloop
  endfacet
  facet normal 0.000000 0.000000 1.000000
    outer loop
      vertex 6.403827 -35.293877 15.000000
      vertex 14.043983 -33.006565 15.000000
      vertex 7.517323 -27.400912 15.000000
    endloop
  endfacet
  facet normal 0.000000 0.000000 1.000000
    outer loop
      vertex 14.043983 -33.006565 15.000000
      vertex 8.776415 -27.023965 15.000000
      vertex 7.517323 -27.400912 15.000000
    endloop
  endfacet
  facet normal 0.000000 0.000000 1.000000
    outer loop
      vertex 8.776415 -27.023965 15.000000
      vertex 13.633778 -24.928703 15.000000
      vertex -28.405779 -0.657153 15.000000
    endloop
  endfacet
  facet normal 0.000000 0.000000 1.000000
    outer loop
      vertex 14.370539 -32.865702 15.000000
      vertex 21.277263 -28.878103 15.000000
      vertex 13.633778 -24.928703 15.000000
    endloop
  endfacet
  facet normal 0.000000 0.000000 1.000000
    outer loop
      vertex 21.277263 -28.878103 15.000000
      vertex 14.772001 -24.271550 15.000000
      vertex -35.647803 3.987599 15.000000
    endloop
  endfacet
  facet normal 0.000000 0.000000 1.000000
    outer loop
      vertex 21.562532 -28.665728 15.000000
      vertex 27.363482 -23.192816 15.000000
      vertex 19.015232 -21.112581 15.000000
    endloop
  endfacet
  facet normal 0.000000 0.000000 1.000000
    outer loop
      vertex 19.015232 -21.112581 15.000000
      vertex 27.363482 -23.192816 15.000000
      vertex 19.971224 -20.210649 15.000000
    endloop
  endfacet
  facet normal 0.000000 0.000000 1.000000
    outer loop
      vertex 27.592083 -22.920379 15.000000
      vertex 31.974527 -16.257197 15.000000
      vertex 23.371571 -16.158274 15.000000
    endloop
  endfacet
  facet normal 0.000000 0.000000 1.000000
    outer loop
      vertex 23.371571 -16.158274 15.000000
      vertex 31.974527 -16.257197 15.000000
      vertex 24.093794 -15.060187 15.000000
    endloop
  endfacet
  facet normal 0.000000 0.000000 1.000000
    outer loop
      vertex 32.134138 -15.939385 15.000000
      vertex 34.861817 -8.445149 15.000000
      vertex 26.467941 -10.332870 15.000000
    endloop
  endfacet
  facet normal 0.000000 0.000000 1.000000
    outer loop
      vertex 26.467941 -10.332870 15.000000
      vertex 34.861817 -8.445149 15.000000
      vertex 26.917460 -9.097827 15.000000
    endloop
  endfacet
  facet normal 0.000000 0.000000 1.000000
    outer loop
      vertex 34.943833 -8.099094 15.000000
      vertex 35.869697 -0.177821 15.000000
      vertex 28.137418 -3.950419 15.000000
    endloop
  endfacet
  facet normal 0.000000 0.000000 1.000000
    outer loop
      vertex 28.137418 -3.950419 15.000000
      vertex 35.869697 -0.177821 15.000000
      vertex 28.290000 -2.645000 15.000000
    endloop
  endfacet
  facet normal 0.000000 0.000000 1.000000
    outer loop
      vertex -27.791647 5.911384 15.000000
      vertex 24.093794 15.060187 15.000000
      vertex 23.371571 16.158274 15.000000
    endloop
  endfacet
  facet normal 0.000000 0.000000 1.000000
    outer loop
      vertex 35.869697 0.177821 15.000000
      vertex 34.943833 8.099094 15.000000
      vertex 28.290000 2.645000 15.000000
    endloop
  endfacet
  facet normal 0.000000 0.000000 1.000000
    outer loop
      vertex 28.290000 2.645000 15.000000
      vertex 34.943833 8.099094 15.000000
      vertex 28.137418 3.950419 15.000000
    endloop
  endfacet
  facet normal 0.000000 0.000000 1.000000
    outer loop
      vertex 34.861817 8.445149 15.000000
      vertex 32.134138 15.939385 15.000000
      vertex 26.917460 9.097827 15.000000
    endloop
  endfacet
  facet normal 0.000000 0.000000 1.000000
    outer loop
      vertex 26.917460 9.097827 15.000000
      vertex 32.134138 15.939385 15.000000
      vertex 26.467941 10.332870 15.000000
    endloop
  endfacet
  facet normal -0.000000 0.000000 1.000000
    outer loop
      vertex 31.974527 16.257197 15.000000
      vertex 27.592083 22.920379 15.000000
      vertex 24.093794 15.060187 15.000000
    endloop
  endfacet
  facet normal 0.000000 0.000000 1.000000
    outer loop
      vertex 24.093794 15.060187 15.000000
      vertex 27.592083 22.920379 15.000000
      vertex 23.371571 16.158274 15.000000
    endloop
  endfacet
  facet normal 0.000000 0.000000 1.000000
    outer loop
      vertex -27.791647 5.911384 15.000000
      vertex 26.467941 10.332870 15.000000
      vertex 24.093794 15.060187 15.000000
    endloop
  endfacet
  facet normal -0.000000 0.000000 1.000000
    outer loop
      vertex 27.363482 23.192816 15.000000
      vertex 21.562532 28.665728 15.000000
      vertex 19.015232 21.112581 15.000000
    endloop
  endfacet
  facet normal 0.000000 0.000000 1.000000
    outer loop
      vertex -27.791647 5.911384 15.000000
      vertex 28.137418 3.950419 15.000000
      vertex 26.917460 9.097827 15.000000
    endloop
  endfacet
  facet normal 0.000000 -0.000000 1.000000
    outer loop
      vertex 14.370539 32.865702 15.000000
      vertex 13.633778 24.928703 15.000000
      vertex 21.277263 28.878103 15.000000
    endloop
  endfacet
  facet normal 0.000000 0.000000 1.000000
    outer loop
      vertex 8.776415 27.023965 15.000000
      vertex 14.043983 33.006565 15.000000
      vertex 7.517323 27.400912 15.000000
    endloop
  endfacet
  facet normal 0.000000 0.000000 1.000000
    outer loop
      vertex -35.606516 4.340836 15.000000
      vertex 19.971224 20.210649 15.000000
      vertex 27.363482 23.192816 15.000000
    endloop
  endfacet
  facet normal 0.000000 0.000000 1.000000
    outer loop
      vertex -35.606516 4.340836 15.000000
      vertex 27.363482 23.192816 15.000000
      vertex 19.015232 21.112581 15.000000
    endloop
  endfacet
  facet normal 0.000000 0.000000 1.000000
    outer loop
      vertex 6.403827 35.293877 15.000000
      vertex 7.517323 27.400912 15.000000
      vertex 14.043983 33.006565 15.000000
    endloop
  endfacet
  facet normal 0.000000 0.000000 1.000000
    outer loop
      vertex 2.307690 28.319511 15.000000
      vertex 6.053588 35.355634 15.000000
      vertex 0.995608 28.395931 15.000000
    endloop
  endfacet
  facet normal 0.000000 0.000000 1.000000
    outer loop
      vertex -27.791647 5.911384 15.000000
      vertex 28.290000 -2.645000 15.000000
      vertex 28.290000 2.645000 15.000000
    endloop
  endfacet
  facet normal 0.000000 0.000000 1.000000
    outer loop
      vertex -17.780852 31.152980 15.000000
      vertex -11.854363 25.822359 15.000000
      vertex -10.457895 34.311794 15.000000
    endloop
  endfacet
  facet normal 0.000000 0.000000 1.000000
    outer loop
      vertex -35.606516 4.340836 15.000000
      vertex -27.791647 5.911384 15.000000
      vertex 19.971224 20.210649 15.000000
    endloop
  endfacet
  facet normal 0.000000 0.000000 1.000000
    outer loop
      vertex -1.908117 35.819350 15.000000
      vertex 0.995608 28.395931 15.000000
      vertex 6.053588 35.355634 15.000000
    endloop
  endfacet
  facet normal -0.000000 0.000000 1.000000
    outer loop
      vertex -16.435637 23.177359 15.000000
      vertex -18.088846 30.975159 15.000000
      vertex -17.489873 22.392509 15.000000
    endloop
  endfacet
  facet normal 0.000000 0.000000 1.000000
    outer loop
      vertex -25.679261 12.161237 15.000000
      vertex -4.285442 28.088345 15.000000
      vertex -5.579781 27.860118 15.000000
    endloop
  endfacet
  facet normal 0.000000 0.000000 1.000000
    outer loop
      vertex -24.485938 26.212700 15.000000
      vertex -17.489873 22.392509 15.000000
      vertex -18.088846 30.975159 15.000000
    endloop
  endfacet
  facet normal 0.000000 0.000000 1.000000
    outer loop
      vertex -27.791647 5.911384 15.000000
      vertex 28.137418 -3.950419 15.000000
      vertex 28.290000 -2.645000 15.000000
    endloop
  endfacet
  facet normal 0.000000 0.000000 1.000000
    outer loop
      vertex -10.117195 34.413793 15.000000
      vertex -5.579781 27.860118 15.000000
      vertex -2.263157 35.798672 15.000000
    endloop
  endfacet
  facet normal 0.000000 -0.000000 1.000000
    outer loop
      vertex -22.182499 17.755474 15.000000
      vertex -25.089401 13.335744 15.000000
      vertex -10.647546 26.342929 15.000000
    endloop
  endfacet
  facet normal 0.000000 0.000000 1.000000
    outer loop
      vertex -25.679261 12.161237 15.000000
      vertex 8.776415 27.023965 15.000000
      vertex 7.517323 27.400912 15.000000
    endloop
  endfacet
  facet normal 0.000000 0.000000 1.000000
    outer loop
      vertex -22.182499 17.755474 15.000000
      vertex -16.435637 23.177359 15.000000
      vertex -17.489873 22.392509 15.000000
    endloop
  endfacet
  facet normal 0.000000 0.000000 1.000000
    outer loop
      vertex -29.870981 19.859288 15.000000
      vertex -21.337679 18.762291 15.000000
      vertex -24.744622 25.968644 15.000000
    endloop
  endfacet
  facet normal 0.000000 0.000000 1.000000
    outer loop
      vertex -29.870981 19.859288 15.000000
      vertex -22.182499 17.755474 15.000000
      vertex -21.337679 18.762291 15.000000
    endloop
  endfacet
  facet normal 0.000000 0.000000 1.000000
    outer loop
      vertex -25.679261 12.161237 15.000000
      vertex 2.307690 28.319511 15.000000
      vertex 0.995608 28.395931 15.000000
    endloop
  endfacet
  facet normal 0.000000 0.000000 1.000000
    outer loop
      vertex -33.645671 12.435256 15.000000
      vertex -25.679261 12.161237 15.000000
      vertex -25.089401 13.335744 15.000000
    endloop
  endfacet
  facet normal 0.000000 0.000000 1.000000
    outer loop
      vertex -22.182499 17.755474 15.000000
      vertex -10.647546 26.342929 15.000000
      vertex -11.854363 25.822359 15.000000
    endloop
  endfacet
  facet normal 0.000000 0.000000 1.000000
    outer loop
      vertex -33.645671 12.435256 15.000000
      vertex -25.089401 13.335744 15.000000
      vertex -30.066409 19.562154 15.000000
    endloop
  endfacet
  facet normal 0.000000 0.000000 1.000000
    outer loop
      vertex -22.182499 17.755474 15.000000
      vertex -11.854363 25.822359 15.000000
      vertex -16.435637 23.177359 15.000000
    endloop
  endfacet
  facet normal 0.000000 0.000000 1.000000
    outer loop
      vertex -25.679261 12.161237 15.000000
      vertex 7.517323 27.400912 15.000000
      vertex 2.307690 28.319511 15.000000
    endloop
  endfacet
  facet normal 0.000000 0.000000 1.000000
    outer loop
      vertex -17.489873 22.392509 15.000000
      vertex -21.337679 18.762291 15.000000
      vertex -22.182499 17.755474 15.000000
    endloop
  endfacet
  facet normal 0.000000 0.000000 1.000000
    outer loop
      vertex -35.606516 4.340836 15.000000
      vertex 19.015232 21.112581 15.000000
      vertex -27.488548 7.190263 15.000000
    endloop
  endfacet
  facet normal 0.000000 0.000000 1.000000
    outer loop
      vertex -5.579781 27.860118 15.000000
      vertex -10.647546 26.342929 15.000000
      vertex -25.089401 13.335744 15.000000
    endloop
  endfacet
  facet normal 0.000000 0.000000 1.000000
    outer loop
      vertex -35.606516 4.340836 15.000000
      vertex -27.488548 7.190263 15.000000
      vertex -33.767308 12.101062 15.000000
    endloop
  endfacet
  facet normal 0.000000 0.000000 1.000000
    outer loop
      vertex -25.679261 12.161237 15.000000
      vertex 0.995608 28.395931 15.000000
      vertex -4.285442 28.088345 15.000000
    endloop
  endfacet
  facet normal 0.000000 0.000000 1.000000
    outer loop
      vertex -27.791647 5.911384 15.000000
      vertex 26.917460 -9.097827 15.000000
      vertex 28.137418 -3.950419 15.000000
    endloop
  endfacet
  facet normal 0.000000 0.000000 1.000000
    outer loop
      vertex -5.579781 27.860118 15.000000
      vertex -25.089401 13.335744 15.000000
      vertex -25.679261 12.161237 15.000000
    endloop
  endfacet
  facet normal 0.000000 0.000000 1.000000
    outer loop
      vertex -27.791647 5.911384 15.000000
      vertex 26.917460 9.097827 15.000000
      vertex 26.467941 10.332870 15.000000
    endloop
  endfacet
  facet normal -0.000000 0.000000 1.000000
    outer loop
      vertex 19.015232 21.112581 15.000000
      vertex 14.772001 24.271550 15.000000
      vertex -27.488548 7.190263 15.000000
    endloop
  endfacet
  facet normal 0.000000 0.000000 1.000000
    outer loop
      vertex -27.791647 5.911384 15.000000
      vertex 28.290000 2.645000 15.000000
      vertex 28.137418 3.950419 15.000000
    endloop
  endfacet
  facet normal -0.000000 0.000000 1.000000
    outer loop
      vertex 23.371571 16.158274 15.000000
      vertex 19.971224 20.210649 15.000000
      vertex -27.791647 5.911384 15.000000
    endloop
  endfacet
  facet normal 0.000000 0.000000 1.000000
    outer loop
      vertex 14.772001 -24.271550 15.000000
      vertex -28.405779 0.657153 15.000000
      vertex -35.647803 3.987599 15.000000
    endloop
  endfacet
  facet normal 0.000000 0.000000 1.000000
    outer loop
      vertex 14.772001 -24.271550 15.000000
      vertex 19.015232 -21.112581 15.000000
      vertex -28.405779 0.657153 15.000000
    endloop
  endfacet
  facet normal 0.000000 0.000000 1.000000
    outer loop
      vertex 14.772001 24.271550 15.000000
      vertex 21.277263 28.878103 15.000000
      vertex 13.633778 24.928703 15.000000
    endloop
  endfacet
  facet normal -0.000000 0.000000 1.000000
    outer loop
      vertex -4.285442 28.088345 15.000000
      vertex -2.263157 35.798672 15.000000
      vertex -5.579781 27.860118 15.000000
    endloop
  endfacet
  facet normal -0.000000 0.000000 1.000000
    outer loop
      vertex -10.647546 26.342929 15.000000
      vertex -10.457895 34.311794 15.000000
      vertex -11.854363 25.822359 15.000000
    endloop
  endfacet
  facet normal 0.000000 0.000000 1.000000
    outer loop
      vertex -25.679261 12.161237 15.000000
      vertex 13.633778 24.928703 15.000000
      vertex 8.776415 27.023965 15.000000
    endloop
  endfacet
  facet normal 0.000000 0.000000 1.000000
    outer loop
      vertex -25.679261 12.161237 15.000000
      vertex 14.772001 24.271550 15.000000
      vertex 13.633778 24.928703 15.000000
    endloop
  endfacet
  facet normal 0.000000 -0.000000 1.000000
    outer loop
      vertex -25.679261 12.161237 15.000000
      vertex -27.488548 7.190263 15.000000
      vertex 14.772001 24.271550 15.000000
    endloop
  endfacet
  facet normal 0.000000 0.000000 1.000000
    outer loop
      vertex -27.791647 5.911384 15.000000
      vertex 26.467941 -10.332870 15.000000
      vertex 26.917460 -9.097827 15.000000
    endloop
  endfacet
  facet normal 0.000000 0.000000 1.000000
    outer loop
      vertex -27.791647 5.911384 15.000000
      vertex 24.093794 -15.060187 15.000000
      vertex 26.467941 -10.332870 15.000000
    endloop
  endfacet
  facet normal 0.000000 0.000000 1.000000
    outer loop
      vertex -27.791647 5.911384 15.000000
      vertex 23.371571 -16.158274 15.000000
      vertex 24.093794 -15.060187 15.000000
    endloop
  endfacet
  facet normal 0.000000 0.000000 1.000000
    outer loop
      vertex -27.791647 5.911384 15.000000
      vertex 19.971224 -20.210649 15.000000
      vertex 23.371571 -16.158274 15.000000
    endloop
  endfacet
  facet normal 0.000000 0.000000 1.000000
    outer loop
      vertex -27.791647 5.911384 15.000000
      vertex 19.015232 -21.112581 15.000000
      vertex 19.971224 -20.210649 15.000000
    endloop
  endfacet
  facet normal 0.000000 -0.000000 1.000000
    outer loop
      vertex -27.791647 5.911384 15.000000
      vertex -28.405779 0.657153 15.000000
      vertex 19.015232 -21.112581 15.000000
    endloop
  endfacet
endsolid OpenSCAD_Model
