solid OpenSCAD_Model
  facet normal -1 0 0
    outer loop
      vertex 1 5 0
      vertex 1 47 38
      vertex 1 47 0
    endloop
  endfacet
  facet normal -1 -0 0
    outer loop
      vertex 1 47 38
      vertex 1 5 0
      vertex 1 5 38
    endloop
  endfacet
  facet normal -0.987688 -0.156434 0
    outer loop
      vertex 1.19577 3.76393 0
      vertex 1 5 38
      vertex 1 5 0
    endloop
  endfacet
  facet normal -0.987688 -0.156434 0
    outer loop
      vertex 1 5 38
      vertex 1.19577 3.76393 0
      vertex 1.19577 3.76393 38
    endloop
  endfacet
  facet normal -0.891007 -0.45399 0
    outer loop
      vertex 1.76393 2.64886 0
      vertex 1.19577 3.76393 38
      vertex 1.19577 3.76393 0
    endloop
  endfacet
  facet normal -0.891007 -0.45399 0
    outer loop
      vertex 1.19577 3.76393 38
      vertex 1.76393 2.64886 0
      vertex 1.76393 2.64886 38
    endloop
  endfacet
  facet normal 0 1 -0
    outer loop
      vertex 47 51 0
      vertex 5 51 38
      vertex 47 51 38
    endloop
  endfacet
  facet normal 0 1 0
    outer loop
      vertex 5 51 38
      vertex 47 51 0
      vertex 5 51 0
    endloop
  endfacet
  facet normal -0 0 1
    outer loop
      vertex 50.0787 47.8316 44
      vertex 52 47 44
      vertex 51.7553 48.5451 44
    endloop
  endfacet
  facet normal 0 0 1
    outer loop
      vertex 52 47 44
      vertex 50.25 46.75 44
      vertex 52 5 44
    endloop
  endfacet
  facet normal -0 0 1
    outer loop
      vertex 49.5816 48.8072 44
      vertex 51.7553 48.5451 44
      vertex 51.0451 49.9389 44
    endloop
  endfacet
  facet normal -0 0 1
    outer loop
      vertex 50.25 5.25 44
      vertex 52 5 44
      vertex 50.25 46.75 44
    endloop
  endfacet
  facet normal 0 0 1
    outer loop
      vertex 50.0787 4.16844 44
      vertex 52 5 44
      vertex 50.25 5.25 44
    endloop
  endfacet
  facet normal 0 0 1
    outer loop
      vertex 52 47 44
      vertex 50.0787 47.8316 44
      vertex 50.25 46.75 44
    endloop
  endfacet
  facet normal 0 0 1
    outer loop
      vertex 49.5816 48.8072 44
      vertex 51.0451 49.9389 44
      vertex 49.9389 51.0451 44
    endloop
  endfacet
  facet normal 0 0 1
    outer loop
      vertex 51.7553 48.5451 44
      vertex 49.5816 48.8072 44
      vertex 50.0787 47.8316 44
    endloop
  endfacet
  facet normal 0 0 1
    outer loop
      vertex 49.9389 51.0451 44
      vertex 48.8072 49.5816 44
      vertex 49.5816 48.8072 44
    endloop
  endfacet
  facet normal 0 0 1
    outer loop
      vertex 48.5451 51.7553 44
      vertex 48.8072 49.5816 44
      vertex 49.9389 51.0451 44
    endloop
  endfacet
  facet normal 0 0 1
    outer loop
      vertex 48.5451 51.7553 44
      vertex 47.8316 50.0787 44
      vertex 48.8072 49.5816 44
    endloop
  endfacet
  facet normal 0 0 1
    outer loop
      vertex 47 52 44
      vertex 47.8316 50.0787 44
      vertex 48.5451 51.7553 44
    endloop
  endfacet
  facet normal 0 0 1
    outer loop
      vertex 47 52 44
      vertex 46.75 50.25 44
      vertex 47.8316 50.0787 44
    endloop
  endfacet
  facet normal 0 0 1
    outer loop
      vertex 47 52 44
      vertex 5.25 50.25 44
      vertex 46.75 50.25 44
    endloop
  endfacet
  facet normal -0 0 1
    outer loop
      vertex 5 52 44
      vertex 5.25 50.25 44
      vertex 47 52 44
    endloop
  endfacet
  facet normal 0 0 1
    outer loop
      vertex 5 52 44
      vertex 4.16844 50.0787 44
      vertex 5.25 50.25 44
    endloop
  endfacet
  facet normal -0 0 1
    outer loop
      vertex 3.45491 51.7553 44
      vertex 4.16844 50.0787 44
      vertex 5 52 44
    endloop
  endfacet
  facet normal 0 0 1
    outer loop
      vertex 3.45491 51.7553 44
      vertex 3.19275 49.5816 44
      vertex 4.16844 50.0787 44
    endloop
  endfacet
  facet normal -0 0 1
    outer loop
      vertex 2.06107 51.0451 44
      vertex 3.19275 49.5816 44
      vertex 3.45491 51.7553 44
    endloop
  endfacet
  facet normal 0 0 1
    outer loop
      vertex 3.19275 49.5816 44
      vertex 2.06107 51.0451 44
      vertex 2.41844 48.8072 44
    endloop
  endfacet
  facet normal -0 0 1
    outer loop
      vertex 0.954914 49.9389 44
      vertex 2.41844 48.8072 44
      vertex 2.06107 51.0451 44
    endloop
  endfacet
  facet normal 0 0 1
    outer loop
      vertex 0.244717 48.5451 44
      vertex 2.41844 48.8072 44
      vertex 0.954914 49.9389 44
    endloop
  endfacet
  facet normal 0 0 1
    outer loop
      vertex 2.41844 48.8072 44
      vertex 0.244717 48.5451 44
      vertex 1.9213 47.8316 44
    endloop
  endfacet
  facet normal 0 0 1
    outer loop
      vertex 52 5 44
      vertex 50.0787 4.16844 44
      vertex 51.7553 3.45491 44
    endloop
  endfacet
  facet normal 0 0 1
    outer loop
      vertex 49.5816 3.19275 44
      vertex 51.7553 3.45491 44
      vertex 50.0787 4.16844 44
    endloop
  endfacet
  facet normal 0 0 1
    outer loop
      vertex 51.7553 3.45491 44
      vertex 49.5816 3.19275 44
      vertex 51.0451 2.06107 44
    endloop
  endfacet
  facet normal 0 0 1
    outer loop
      vertex 51.0451 2.06107 44
      vertex 49.5816 3.19275 44
      vertex 49.9389 0.954914 44
    endloop
  endfacet
  facet normal -0 0 1
    outer loop
      vertex 48.8072 2.41844 44
      vertex 49.9389 0.954914 44
      vertex 49.5816 3.19275 44
    endloop
  endfacet
  facet normal 0 0 1
    outer loop
      vertex 48.8072 2.41844 44
      vertex 48.5451 0.244717 44
      vertex 49.9389 0.954914 44
    endloop
  endfacet
  facet normal -0 0 1
    outer loop
      vertex 47.8316 1.9213 44
      vertex 48.5451 0.244717 44
      vertex 48.8072 2.41844 44
    endloop
  endfacet
  facet normal 0 0 1
    outer loop
      vertex 47.8316 1.9213 44
      vertex 47 0 44
      vertex 48.5451 0.244717 44
    endloop
  endfacet
  facet normal -0 0 1
    outer loop
      vertex 46.75 1.75 44
      vertex 47 0 44
      vertex 47.8316 1.9213 44
    endloop
  endfacet
  facet normal 0 0 1
    outer loop
      vertex 16.0857 1.94358 44
      vertex 47 0 44
      vertex 46.75 1.75 44
    endloop
  endfacet
  facet normal 0 0 1
    outer loop
      vertex 16.0857 1.94358 44
      vertex 5 0 44
      vertex 47 0 44
    endloop
  endfacet
  facet normal 0 0 1
    outer loop
      vertex 0 5 44
      vertex 5 0 44
      vertex 16.0857 1.94358 44
    endloop
  endfacet
  facet normal 0 0 1
    outer loop
      vertex 5 0 44
      vertex 0 5 44
      vertex 3.45491 0.244717 44
    endloop
  endfacet
  facet normal -0 0 1
    outer loop
      vertex 0 5 44
      vertex 16.0857 1.94358 44
      vertex 1.94358 16.0857 44
    endloop
  endfacet
  facet normal 0 0 1
    outer loop
      vertex 0 47 44
      vertex 1.9213 47.8316 44
      vertex 0.244717 48.5451 44
    endloop
  endfacet
  facet normal 0 0 1
    outer loop
      vertex 1.75 46.75 44
      vertex 0 47 44
      vertex 1.94358 16.0857 44
    endloop
  endfacet
  facet normal 0 0 1
    outer loop
      vertex 0 5 44
      vertex 1.94358 16.0857 44
      vertex 0 47 44
    endloop
  endfacet
  facet normal 0 0 1
    outer loop
      vertex 1.9213 47.8316 44
      vertex 0 47 44
      vertex 1.75 46.75 44
    endloop
  endfacet
  facet normal 0 0 1
    outer loop
      vertex 3.45491 0.244717 44
      vertex 0 5 44
      vertex 2.06107 0.954914 44
    endloop
  endfacet
  facet normal 0 0 1
    outer loop
      vertex 2.06107 0.954914 44
      vertex 0 5 44
      vertex 0.954914 2.06107 44
    endloop
  endfacet
  facet normal 0 0 1
    outer loop
      vertex 0.954914 2.06107 44
      vertex 0 5 44
      vertex 0.244717 3.45491 44
    endloop
  endfacet
  facet normal -0.156434 -0.987688 0
    outer loop
      vertex 3.76393 1.19577 0
      vertex 5 1 38
      vertex 3.76393 1.19577 38
    endloop
  endfacet
  facet normal -0.156434 -0.987688 -0
    outer loop
      vertex 5 1 38
      vertex 3.76393 1.19577 0
      vertex 5 1 0
    endloop
  endfacet
  facet normal -0.45399 0.891007 0
    outer loop
      vertex 3.76393 50.8042 0
      vertex 2.64886 50.2361 38
      vertex 3.76393 50.8042 38
    endloop
  endfacet
  facet normal -0.45399 0.891007 0
    outer loop
      vertex 2.64886 50.2361 38
      vertex 3.76393 50.8042 0
      vertex 2.64886 50.2361 0
    endloop
  endfacet
  facet normal -0.156434 0.987688 0
    outer loop
      vertex 5 51 0
      vertex 3.76393 50.8042 38
      vertex 5 51 38
    endloop
  endfacet
  facet normal -0.156434 0.987688 0
    outer loop
      vertex 3.76393 50.8042 38
      vertex 5 51 0
      vertex 3.76393 50.8042 0
    endloop
  endfacet
  facet normal -0.987688 0.156434 0
    outer loop
      vertex 1 47 0
      vertex 1.19577 48.2361 38
      vertex 1.19577 48.2361 0
    endloop
  endfacet
  facet normal -0.987688 0.156434 0
    outer loop
      vertex 1.19577 48.2361 38
      vertex 1 47 0
      vertex 1 47 38
    endloop
  endfacet
  facet normal 0.707107 0.707107 0
    outer loop
      vertex 50.2361 49.3511 38
      vertex 49.3511 50.2361 0
      vertex 49.3511 50.2361 38
    endloop
  endfacet
  facet normal 0.707107 0.707107 0
    outer loop
      vertex 49.3511 50.2361 0
      vertex 50.2361 49.3511 38
      vertex 50.2361 49.3511 0
    endloop
  endfacet
  facet normal 0.156434 0.987688 -0
    outer loop
      vertex 48.2361 50.8042 0
      vertex 47 51 38
      vertex 48.2361 50.8042 38
    endloop
  endfacet
  facet normal 0.156434 0.987688 0
    outer loop
      vertex 47 51 38
      vertex 48.2361 50.8042 0
      vertex 47 51 0
    endloop
  endfacet
  facet normal 1 -0 0
    outer loop
      vertex 51 5 38
      vertex 51 47 0
      vertex 51 47 38
    endloop
  endfacet
  facet normal 1 0 0
    outer loop
      vertex 51 47 0
      vertex 51 5 38
      vertex 51 5 0
    endloop
  endfacet
  facet normal 0.891007 0.45399 0
    outer loop
      vertex 50.8042 48.2361 38
      vertex 50.2361 49.3511 0
      vertex 50.2361 49.3511 38
    endloop
  endfacet
  facet normal 0.891007 0.45399 0
    outer loop
      vertex 50.2361 49.3511 0
      vertex 50.8042 48.2361 38
      vertex 50.8042 48.2361 0
    endloop
  endfacet
  facet normal 0 0 -1
    outer loop
      vertex 47 1 0
      vertex 51 5 0
      vertex 50.8042 3.76393 0
    endloop
  endfacet
  facet normal -0 0 -1
    outer loop
      vertex 51 5 0
      vertex 47 1 0
      vertex 51 47 0
    endloop
  endfacet
  facet normal 0 0 -1
    outer loop
      vertex 47 1 0
      vertex 50.8042 3.76393 0
      vertex 50.2361 2.64886 0
    endloop
  endfacet
  facet normal 0 0 -1
    outer loop
      vertex 47 51 0
      vertex 51 47 0
      vertex 47 1 0
    endloop
  endfacet
  facet normal 0 0 -1
    outer loop
      vertex 47 1 0
      vertex 50.2361 2.64886 0
      vertex 49.3511 1.76393 0
    endloop
  endfacet
  facet normal 0 0 -1
    outer loop
      vertex 51 47 0
      vertex 47 51 0
      vertex 50.8042 48.2361 0
    endloop
  endfacet
  facet normal 0 0 -1
    outer loop
      vertex 47 1 0
      vertex 49.3511 1.76393 0
      vertex 48.2361 1.19577 0
    endloop
  endfacet
  facet normal 0 0 -1
    outer loop
      vertex 50.8042 48.2361 0
      vertex 47 51 0
      vertex 50.2361 49.3511 0
    endloop
  endfacet
  facet normal 0 0 -1
    outer loop
      vertex 50.2361 49.3511 0
      vertex 47 51 0
      vertex 49.3511 50.2361 0
    endloop
  endfacet
  facet normal 0 0 -1
    outer loop
      vertex 49.3511 50.2361 0
      vertex 47 51 0
      vertex 48.2361 50.8042 0
    endloop
  endfacet
  facet normal 0 0 -1
    outer loop
      vertex 47 1 0
      vertex 5 51 0
      vertex 47 51 0
    endloop
  endfacet
  facet normal 0 0 -1
    outer loop
      vertex 5 1 0
      vertex 5 51 0
      vertex 47 1 0
    endloop
  endfacet
  facet normal 0 0 -1
    outer loop
      vertex 1 5 0
      vertex 5 1 0
      vertex 3.76393 1.19577 0
    endloop
  endfacet
  facet normal 0 0 -1
    outer loop
      vertex 5 1 0
      vertex 1 5 0
      vertex 5 51 0
    endloop
  endfacet
  facet normal 0 0 -1
    outer loop
      vertex 1 5 0
      vertex 3.76393 1.19577 0
      vertex 2.64886 1.76393 0
    endloop
  endfacet
  facet normal 0 0 -1
    outer loop
      vertex 1 47 0
      vertex 5 51 0
      vertex 1 5 0
    endloop
  endfacet
  facet normal 0 0 -1
    outer loop
      vertex 1 5 0
      vertex 2.64886 1.76393 0
      vertex 1.76393 2.64886 0
    endloop
  endfacet
  facet normal 0 0 -1
    outer loop
      vertex 5 51 0
      vertex 1 47 0
      vertex 3.76393 50.8042 0
    endloop
  endfacet
  facet normal 0 0 -1
    outer loop
      vertex 1 5 0
      vertex 1.76393 2.64886 0
      vertex 1.19577 3.76393 0
    endloop
  endfacet
  facet normal 0 0 -1
    outer loop
      vertex 3.76393 50.8042 0
      vertex 1 47 0
      vertex 2.64886 50.2361 0
    endloop
  endfacet
  facet normal 0 0 -1
    outer loop
      vertex 2.64886 50.2361 0
      vertex 1 47 0
      vertex 1.76393 49.3511 0
    endloop
  endfacet
  facet normal 0 0 -1
    outer loop
      vertex 1.76393 49.3511 0
      vertex 1 47 0
      vertex 1.19577 48.2361 0
    endloop
  endfacet
  facet normal -0.45399 -0.891007 0
    outer loop
      vertex 2.64886 1.76393 0
      vertex 3.76393 1.19577 38
      vertex 2.64886 1.76393 38
    endloop
  endfacet
  facet normal -0.45399 -0.891007 -0
    outer loop
      vertex 3.76393 1.19577 38
      vertex 2.64886 1.76393 0
      vertex 3.76393 1.19577 0
    endloop
  endfacet
  facet normal -0.707107 -0.707107 0
    outer loop
      vertex 2.64886 1.76393 0
      vertex 1.76393 2.64886 38
      vertex 1.76393 2.64886 0
    endloop
  endfacet
  facet normal -0.707107 -0.707107 0
    outer loop
      vertex 1.76393 2.64886 38
      vertex 2.64886 1.76393 0
      vertex 2.64886 1.76393 38
    endloop
  endfacet
  facet normal 0.156434 -0.987688 0
    outer loop
      vertex 47 1 0
      vertex 48.2361 1.19577 38
      vertex 47 1 38
    endloop
  endfacet
  facet normal 0.156434 -0.987688 0
    outer loop
      vertex 48.2361 1.19577 38
      vertex 47 1 0
      vertex 48.2361 1.19577 0
    endloop
  endfacet
  facet normal 0.45399 0.891007 -0
    outer loop
      vertex 49.3511 50.2361 0
      vertex 48.2361 50.8042 38
      vertex 49.3511 50.2361 38
    endloop
  endfacet
  facet normal 0.45399 0.891007 0
    outer loop
      vertex 48.2361 50.8042 38
      vertex 49.3511 50.2361 0
      vertex 48.2361 50.8042 0
    endloop
  endfacet
  facet normal 0.987688 -0.156434 0
    outer loop
      vertex 50.8042 3.76393 38
      vertex 51 5 0
      vertex 51 5 38
    endloop
  endfacet
  facet normal 0.987688 -0.156434 0
    outer loop
      vertex 51 5 0
      vertex 50.8042 3.76393 38
      vertex 50.8042 3.76393 0
    endloop
  endfacet
  facet normal 0.707107 -0.707106 0
    outer loop
      vertex 49.3511 1.76393 38
      vertex 50.2361 2.64886 0
      vertex 50.2361 2.64886 38
    endloop
  endfacet
  facet normal 0.707107 -0.707106 0
    outer loop
      vertex 50.2361 2.64886 0
      vertex 49.3511 1.76393 38
      vertex 49.3511 1.76393 0
    endloop
  endfacet
  facet normal 0 -1 0
    outer loop
      vertex 5 1 0
      vertex 47 1 38
      vertex 5 1 38
    endloop
  endfacet
  facet normal 0 -1 -0
    outer loop
      vertex 47 1 38
      vertex 5 1 0
      vertex 47 1 0
    endloop
  endfacet
  facet normal 0.45399 -0.891007 0
    outer loop
      vertex 48.2361 1.19577 0
      vertex 49.3511 1.76393 38
      vertex 48.2361 1.19577 38
    endloop
  endfacet
  facet normal 0.45399 -0.891007 0
    outer loop
      vertex 49.3511 1.76393 38
      vertex 48.2361 1.19577 0
      vertex 49.3511 1.76393 0
    endloop
  endfacet
  facet normal -0.891007 0.45399 0
    outer loop
      vertex 1.19577 48.2361 0
      vertex 1.76393 49.3511 38
      vertex 1.76393 49.3511 0
    endloop
  endfacet
  facet normal -0.891007 0.45399 0
    outer loop
      vertex 1.76393 49.3511 38
      vertex 1.19577 48.2361 0
      vertex 1.19577 48.2361 38
    endloop
  endfacet
  facet normal -0.707106 0.707107 0
    outer loop
      vertex 2.64886 50.2361 0
      vertex 1.76393 49.3511 38
      vertex 2.64886 50.2361 38
    endloop
  endfacet
  facet normal -0.707106 0.707107 0
    outer loop
      vertex 1.76393 49.3511 38
      vertex 2.64886 50.2361 0
      vertex 1.76393 49.3511 0
    endloop
  endfacet
  facet normal 0.987688 0.156434 0
    outer loop
      vertex 51 47 38
      vertex 50.8042 48.2361 0
      vertex 50.8042 48.2361 38
    endloop
  endfacet
  facet normal 0.987688 0.156434 0
    outer loop
      vertex 50.8042 48.2361 0
      vertex 51 47 38
      vertex 51 47 0
    endloop
  endfacet
  facet normal 0.891007 -0.45399 0
    outer loop
      vertex 50.2361 2.64886 38
      vertex 50.8042 3.76393 0
      vertex 50.8042 3.76393 38
    endloop
  endfacet
  facet normal 0.891007 -0.45399 0
    outer loop
      vertex 50.8042 3.76393 0
      vertex 50.2361 2.64886 38
      vertex 50.2361 2.64886 0
    endloop
  endfacet
  facet normal -1 0 0
    outer loop
      vertex 0 5 40
      vertex 0 47 44
      vertex 0 47 40
    endloop
  endfacet
  facet normal -1 -0 0
    outer loop
      vertex 0 47 44
      vertex 0 5 40
      vertex 0 5 44
    endloop
  endfacet
  facet normal -0.885585 0.140262 -0.442793
    outer loop
      vertex 1 47 38
      vertex 0 47 40
      vertex 1.19577 48.2361 38
    endloop
  endfacet
  facet normal -0.891006 0.453991 0
    outer loop
      vertex 0.244717 48.5451 40
      vertex 0.954914 49.9389 44
      vertex 0.954914 49.9389 40
    endloop
  endfacet
  facet normal -0.891006 0.453991 0
    outer loop
      vertex 0.954914 49.9389 44
      vertex 0.244717 48.5451 40
      vertex 0.244717 48.5451 44
    endloop
  endfacet
  facet normal -0.885585 0.140262 -0.442793
    outer loop
      vertex 1.19577 48.2361 38
      vertex 0 47 40
      vertex 0.244717 48.5451 40
    endloop
  endfacet
  facet normal -0.987688 0.156434 0
    outer loop
      vertex 0 47 40
      vertex 0.244717 48.5451 44
      vertex 0.244717 48.5451 40
    endloop
  endfacet
  facet normal -0.987688 0.156434 0
    outer loop
      vertex 0.244717 48.5451 44
      vertex 0 47 40
      vertex 0 47 44
    endloop
  endfacet
  facet normal -0.987688 -0.156434 0
    outer loop
      vertex 0.244717 3.45491 40
      vertex 0 5 44
      vertex 0 5 40
    endloop
  endfacet
  facet normal -0.987688 -0.156434 0
    outer loop
      vertex 0 5 44
      vertex 0.244717 3.45491 40
      vertex 0.244717 3.45491 44
    endloop
  endfacet
  facet normal -0.798898 -0.407059 -0.442793
    outer loop
      vertex 0.954914 2.06107 40
      vertex 0.244717 3.45491 40
      vertex 1.76393 2.64886 38
    endloop
  endfacet
  facet normal -0.891006 -0.453991 0
    outer loop
      vertex 0.954914 2.06107 40
      vertex 0.244717 3.45491 44
      vertex 0.244717 3.45491 40
    endloop
  endfacet
  facet normal -0.891006 -0.453991 0
    outer loop
      vertex 0.244717 3.45491 44
      vertex 0.954914 2.06107 40
      vertex 0.954914 2.06107 44
    endloop
  endfacet
  facet normal -0.156434 -0.987688 0
    outer loop
      vertex 3.45491 0.244717 40
      vertex 5 0 44
      vertex 3.45491 0.244717 44
    endloop
  endfacet
  facet normal -0.156434 -0.987688 -0
    outer loop
      vertex 5 0 44
      vertex 3.45491 0.244717 40
      vertex 5 0 40
    endloop
  endfacet
  facet normal 0 -1 0
    outer loop
      vertex 5 0 40
      vertex 47 0 44
      vertex 5 0 44
    endloop
  endfacet
  facet normal 0 -1 -0
    outer loop
      vertex 47 0 44
      vertex 5 0 40
      vertex 47 0 40
    endloop
  endfacet
  facet normal 0 0.894427 -0.447214
    outer loop
      vertex 47 51 38
      vertex 5 52 40
      vertex 47 52 40
    endloop
  endfacet
  facet normal 0 0.894427 -0.447214
    outer loop
      vertex 5 52 40
      vertex 47 51 38
      vertex 5 51 38
    endloop
  endfacet
  facet normal -0.634009 -0.634009 -0.442792
    outer loop
      vertex 2.64886 1.76393 38
      vertex 0.954914 2.06107 40
      vertex 1.76393 2.64886 38
    endloop
  endfacet
  facet normal -0.634009 -0.634009 -0.442792
    outer loop
      vertex 0.954914 2.06107 40
      vertex 2.64886 1.76393 38
      vertex 2.06107 0.954914 40
    endloop
  endfacet
  facet normal -0.894427 0 -0.447214
    outer loop
      vertex 1 5 38
      vertex 0 47 40
      vertex 1 47 38
    endloop
  endfacet
  facet normal -0.894427 -0 -0.447214
    outer loop
      vertex 0 47 40
      vertex 1 5 38
      vertex 0 5 40
    endloop
  endfacet
  facet normal -0.798898 -0.407059 -0.442793
    outer loop
      vertex 1.76393 2.64886 38
      vertex 0.244717 3.45491 40
      vertex 1.19577 3.76393 38
    endloop
  endfacet
  facet normal -0.885585 -0.140262 -0.442793
    outer loop
      vertex 0.244717 3.45491 40
      vertex 0 5 40
      vertex 1.19577 3.76393 38
    endloop
  endfacet
  facet normal -0.407059 -0.798898 -0.442793
    outer loop
      vertex 3.45491 0.244717 40
      vertex 2.06107 0.954914 40
      vertex 2.64886 1.76393 38
    endloop
  endfacet
  facet normal -0.407059 -0.798898 -0.442793
    outer loop
      vertex 3.45491 0.244717 40
      vertex 2.64886 1.76393 38
      vertex 3.76393 1.19577 38
    endloop
  endfacet
  facet normal 0.707107 0.707107 0
    outer loop
      vertex 51.0451 49.9389 44
      vertex 49.9389 51.0451 40
      vertex 49.9389 51.0451 44
    endloop
  endfacet
  facet normal 0.707107 0.707107 0
    outer loop
      vertex 49.9389 51.0451 40
      vertex 51.0451 49.9389 44
      vertex 51.0451 49.9389 40
    endloop
  endfacet
  facet normal 0.798898 0.407059 -0.442792
    outer loop
      vertex 51.7553 48.5451 40
      vertex 50.2361 49.3511 38
      vertex 51.0451 49.9389 40
    endloop
  endfacet
  facet normal -0.453991 -0.891006 0
    outer loop
      vertex 2.06107 0.954914 40
      vertex 3.45491 0.244717 44
      vertex 2.06107 0.954914 44
    endloop
  endfacet
  facet normal -0.453991 -0.891006 -0
    outer loop
      vertex 3.45491 0.244717 44
      vertex 2.06107 0.954914 40
      vertex 3.45491 0.244717 40
    endloop
  endfacet
  facet normal -0.707107 -0.707107 0
    outer loop
      vertex 2.06107 0.954914 40
      vertex 0.954914 2.06107 44
      vertex 0.954914 2.06107 40
    endloop
  endfacet
  facet normal -0.707107 -0.707107 0
    outer loop
      vertex 0.954914 2.06107 44
      vertex 2.06107 0.954914 40
      vertex 2.06107 0.954914 44
    endloop
  endfacet
  facet normal -0.885585 -0.140262 -0.442793
    outer loop
      vertex 1.19577 3.76393 38
      vertex 0 5 40
      vertex 1 5 38
    endloop
  endfacet
  facet normal 0.894427 0 -0.447214
    outer loop
      vertex 52 5 40
      vertex 51 47 38
      vertex 52 47 40
    endloop
  endfacet
  facet normal 0.894427 0 -0.447214
    outer loop
      vertex 51 47 38
      vertex 52 5 40
      vertex 51 5 38
    endloop
  endfacet
  facet normal 0 1 -0
    outer loop
      vertex 47 52 40
      vertex 5 52 44
      vertex 47 52 44
    endloop
  endfacet
  facet normal 0 1 0
    outer loop
      vertex 5 52 44
      vertex 47 52 40
      vertex 5 52 40
    endloop
  endfacet
  facet normal 0.140262 0.885585 -0.442793
    outer loop
      vertex 48.5451 51.7553 40
      vertex 47 51 38
      vertex 47 52 40
    endloop
  endfacet
  facet normal 0.156434 0.987688 -0
    outer loop
      vertex 48.5451 51.7553 40
      vertex 47 52 44
      vertex 48.5451 51.7553 44
    endloop
  endfacet
  facet normal 0.156434 0.987688 0
    outer loop
      vertex 47 52 44
      vertex 48.5451 51.7553 40
      vertex 47 52 40
    endloop
  endfacet
  facet normal 0.987688 0.156434 0
    outer loop
      vertex 52 47 44
      vertex 51.7553 48.5451 40
      vertex 51.7553 48.5451 44
    endloop
  endfacet
  facet normal 0.987688 0.156434 0
    outer loop
      vertex 51.7553 48.5451 40
      vertex 52 47 44
      vertex 52 47 40
    endloop
  endfacet
  facet normal 0.885585 0.140262 -0.442793
    outer loop
      vertex 52 47 40
      vertex 51 47 38
      vertex 51.7553 48.5451 40
    endloop
  endfacet
  facet normal 0.987688 -0.156434 0
    outer loop
      vertex 51.7553 3.45491 44
      vertex 52 5 40
      vertex 52 5 44
    endloop
  endfacet
  facet normal 0.987688 -0.156434 0
    outer loop
      vertex 52 5 40
      vertex 51.7553 3.45491 44
      vertex 51.7553 3.45491 40
    endloop
  endfacet
  facet normal -0.798898 0.407059 -0.442793
    outer loop
      vertex 1.19577 48.2361 38
      vertex 0.244717 48.5451 40
      vertex 1.76393 49.3511 38
    endloop
  endfacet
  facet normal -0.140263 0.885585 -0.442793
    outer loop
      vertex 3.76393 50.8042 38
      vertex 5 52 40
      vertex 5 51 38
    endloop
  endfacet
  facet normal -0.140262 0.885585 -0.442793
    outer loop
      vertex 5 52 40
      vertex 3.76393 50.8042 38
      vertex 3.45491 51.7553 40
    endloop
  endfacet
  facet normal -0.707107 0.707107 0
    outer loop
      vertex 0.954914 49.9389 40
      vertex 2.06107 51.0451 44
      vertex 2.06107 51.0451 40
    endloop
  endfacet
  facet normal -0.707107 0.707107 0
    outer loop
      vertex 2.06107 51.0451 44
      vertex 0.954914 49.9389 40
      vertex 0.954914 49.9389 44
    endloop
  endfacet
  facet normal 0.453991 0.891006 -0
    outer loop
      vertex 49.9389 51.0451 40
      vertex 48.5451 51.7553 44
      vertex 49.9389 51.0451 44
    endloop
  endfacet
  facet normal 0.453991 0.891006 0
    outer loop
      vertex 48.5451 51.7553 44
      vertex 49.9389 51.0451 40
      vertex 48.5451 51.7553 40
    endloop
  endfacet
  facet normal 0.407059 0.798898 -0.442792
    outer loop
      vertex 49.3511 50.2361 38
      vertex 48.5451 51.7553 40
      vertex 49.9389 51.0451 40
    endloop
  endfacet
  facet normal 0.891006 0.453991 0
    outer loop
      vertex 51.7553 48.5451 44
      vertex 51.0451 49.9389 40
      vertex 51.0451 49.9389 44
    endloop
  endfacet
  facet normal 0.891006 0.453991 0
    outer loop
      vertex 51.0451 49.9389 40
      vertex 51.7553 48.5451 44
      vertex 51.7553 48.5451 40
    endloop
  endfacet
  facet normal 0.634009 0.634009 -0.442792
    outer loop
      vertex 51.0451 49.9389 40
      vertex 49.3511 50.2361 38
      vertex 49.9389 51.0451 40
    endloop
  endfacet
  facet normal 0.634009 0.634009 -0.442792
    outer loop
      vertex 49.3511 50.2361 38
      vertex 51.0451 49.9389 40
      vertex 50.2361 49.3511 38
    endloop
  endfacet
  facet normal 0.407059 -0.798898 -0.442792
    outer loop
      vertex 49.9389 0.954914 40
      vertex 48.5451 0.244717 40
      vertex 49.3511 1.76393 38
    endloop
  endfacet
  facet normal 1 -0 0
    outer loop
      vertex 52 5 44
      vertex 52 47 40
      vertex 52 47 44
    endloop
  endfacet
  facet normal 1 0 0
    outer loop
      vertex 52 47 40
      vertex 52 5 44
      vertex 52 5 40
    endloop
  endfacet
  facet normal -0.140262 -0.885585 -0.442793
    outer loop
      vertex 5 0 40
      vertex 3.45491 0.244717 40
      vertex 3.76393 1.19577 38
    endloop
  endfacet
  facet normal -0.634009 0.634009 -0.442792
    outer loop
      vertex 2.64886 50.2361 38
      vertex 0.954914 49.9389 40
      vertex 2.06107 51.0451 40
    endloop
  endfacet
  facet normal -0.634009 0.634009 -0.442792
    outer loop
      vertex 0.954914 49.9389 40
      vertex 2.64886 50.2361 38
      vertex 1.76393 49.3511 38
    endloop
  endfacet
  facet normal -0.798898 0.407059 -0.442792
    outer loop
      vertex 1.76393 49.3511 38
      vertex 0.244717 48.5451 40
      vertex 0.954914 49.9389 40
    endloop
  endfacet
  facet normal -0.453991 0.891006 0
    outer loop
      vertex 3.45491 51.7553 40
      vertex 2.06107 51.0451 44
      vertex 3.45491 51.7553 44
    endloop
  endfacet
  facet normal -0.453991 0.891006 0
    outer loop
      vertex 2.06107 51.0451 44
      vertex 3.45491 51.7553 40
      vertex 2.06107 51.0451 40
    endloop
  endfacet
  facet normal -0.156434 0.987688 0
    outer loop
      vertex 5 52 40
      vertex 3.45491 51.7553 44
      vertex 5 52 44
    endloop
  endfacet
  facet normal -0.156434 0.987688 0
    outer loop
      vertex 3.45491 51.7553 44
      vertex 5 52 40
      vertex 3.45491 51.7553 40
    endloop
  endfacet
  facet normal 0.798898 0.407058 -0.442793
    outer loop
      vertex 50.8042 48.2361 38
      vertex 50.2361 49.3511 38
      vertex 51.7553 48.5451 40
    endloop
  endfacet
  facet normal 0.885585 0.140263 -0.442793
    outer loop
      vertex 51 47 38
      vertex 50.8042 48.2361 38
      vertex 51.7553 48.5451 40
    endloop
  endfacet
  facet normal 0.140263 0.885585 -0.442793
    outer loop
      vertex 48.2361 50.8042 38
      vertex 47 51 38
      vertex 48.5451 51.7553 40
    endloop
  endfacet
  facet normal 0.407058 0.798898 -0.442793
    outer loop
      vertex 49.3511 50.2361 38
      vertex 48.2361 50.8042 38
      vertex 48.5451 51.7553 40
    endloop
  endfacet
  facet normal -0.140262 -0.885585 -0.442793
    outer loop
      vertex 5 0 40
      vertex 3.76393 1.19577 38
      vertex 5 1 38
    endloop
  endfacet
  facet normal 0 -0.894427 -0.447214
    outer loop
      vertex 5 1 38
      vertex 47 0 40
      vertex 5 0 40
    endloop
  endfacet
  facet normal 0 -0.894427 -0.447214
    outer loop
      vertex 47 0 40
      vertex 5 1 38
      vertex 47 1 38
    endloop
  endfacet
  facet normal 0.140262 -0.885585 -0.442793
    outer loop
      vertex 48.2361 1.19577 38
      vertex 47 0 40
      vertex 47 1 38
    endloop
  endfacet
  facet normal 0.798898 -0.407059 -0.442793
    outer loop
      vertex 51.0451 2.06107 40
      vertex 50.2361 2.64886 38
      vertex 51.7553 3.45491 40
    endloop
  endfacet
  facet normal 0.634009 -0.634009 -0.442793
    outer loop
      vertex 51.0451 2.06107 40
      vertex 49.3511 1.76393 38
      vertex 50.2361 2.64886 38
    endloop
  endfacet
  facet normal 0.634009 -0.634009 -0.442792
    outer loop
      vertex 49.3511 1.76393 38
      vertex 51.0451 2.06107 40
      vertex 49.9389 0.954914 40
    endloop
  endfacet
  facet normal -0.407058 0.798898 -0.442793
    outer loop
      vertex 3.76393 50.8042 38
      vertex 2.64886 50.2361 38
      vertex 3.45491 51.7553 40
    endloop
  endfacet
  facet normal 0.140262 -0.885585 -0.442793
    outer loop
      vertex 48.5451 0.244717 40
      vertex 47 0 40
      vertex 48.2361 1.19577 38
    endloop
  endfacet
  facet normal 0.407059 -0.798898 -0.442793
    outer loop
      vertex 48.5451 0.244717 40
      vertex 48.2361 1.19577 38
      vertex 49.3511 1.76393 38
    endloop
  endfacet
  facet normal 0.885585 -0.140263 -0.442793
    outer loop
      vertex 52 5 40
      vertex 50.8042 3.76393 38
      vertex 51 5 38
    endloop
  endfacet
  facet normal 0.885585 -0.140262 -0.442793
    outer loop
      vertex 50.8042 3.76393 38
      vertex 52 5 40
      vertex 51.7553 3.45491 40
    endloop
  endfacet
  facet normal -0.407059 0.798898 -0.442793
    outer loop
      vertex 2.64886 50.2361 38
      vertex 2.06107 51.0451 40
      vertex 3.45491 51.7553 40
    endloop
  endfacet
  facet normal 0.453991 -0.891006 0
    outer loop
      vertex 48.5451 0.244717 40
      vertex 49.9389 0.954914 44
      vertex 48.5451 0.244717 44
    endloop
  endfacet
  facet normal 0.453991 -0.891006 0
    outer loop
      vertex 49.9389 0.954914 44
      vertex 48.5451 0.244717 40
      vertex 49.9389 0.954914 40
    endloop
  endfacet
  facet normal 0.156434 -0.987688 0
    outer loop
      vertex 47 0 40
      vertex 48.5451 0.244717 44
      vertex 47 0 44
    endloop
  endfacet
  facet normal 0.156434 -0.987688 0
    outer loop
      vertex 48.5451 0.244717 44
      vertex 47 0 40
      vertex 48.5451 0.244717 40
    endloop
  endfacet
  facet normal 0.891006 -0.453991 0
    outer loop
      vertex 51.0451 2.06107 44
      vertex 51.7553 3.45491 40
      vertex 51.7553 3.45491 44
    endloop
  endfacet
  facet normal 0.891006 -0.453991 0
    outer loop
      vertex 51.7553 3.45491 40
      vertex 51.0451 2.06107 44
      vertex 51.0451 2.06107 40
    endloop
  endfacet
  facet normal 0.707107 -0.707107 0
    outer loop
      vertex 49.9389 0.954914 44
      vertex 51.0451 2.06107 40
      vertex 51.0451 2.06107 44
    endloop
  endfacet
  facet normal 0.707107 -0.707107 0
    outer loop
      vertex 51.0451 2.06107 40
      vertex 49.9389 0.954914 44
      vertex 49.9389 0.954914 40
    endloop
  endfacet
  facet normal 0.798898 -0.407058 -0.442793
    outer loop
      vertex 51.7553 3.45491 40
      vertex 50.2361 2.64886 38
      vertex 50.8042 3.76393 38
    endloop
  endfacet
  facet normal -0.987688 -0.156435 0
    outer loop
      vertex 50.25 46.75 5
      vertex 50.0787 47.8316 44
      vertex 50.0787 47.8316 5
    endloop
  endfacet
  facet normal -0.987688 -0.156435 0
    outer loop
      vertex 50.0787 47.8316 44
      vertex 50.25 46.75 5
      vertex 50.25 46.75 44
    endloop
  endfacet
  facet normal -0.984718 -0.155965 0.0774975
    outer loop
      vertex 50.25 46.75 5
      vertex 50.0787 47.8316 5
      vertex 50.0377 47.8182 4.45248
    endloop
  endfacet
  facet normal 0.707107 0.707107 0
    outer loop
      vertex 16.0857 1.94358 44
      vertex 1.94358 16.0857 1.5
      vertex 1.94358 16.0857 44
    endloop
  endfacet
  facet normal 0.707107 0.707107 0
    outer loop
      vertex 1.94358 16.0857 1.5
      vertex 16.0857 1.94358 44
      vertex 16.0857 1.94358 1.5
    endloop
  endfacet
  facet normal -0.809017 0 0.587786
    outer loop
      vertex 49.2249 5.25 2.52513
      vertex 49.8685 46.75 3.41103
      vertex 49.2249 46.75 2.52513
    endloop
  endfacet
  facet normal -0.809017 0 0.587786
    outer loop
      vertex 49.8685 46.75 3.41103
      vertex 49.2249 5.25 2.52513
      vertex 49.8685 5.25 3.41103
    endloop
  endfacet
  facet normal 0 -0.587786 0.809017
    outer loop
      vertex 5.25 49.2249 2.52513
      vertex 46.75 48.339 1.88148
      vertex 46.75 49.2249 2.52513
    endloop
  endfacet
  facet normal 0 -0.587786 0.809017
    outer loop
      vertex 46.75 48.339 1.88148
      vertex 5.25 49.2249 2.52513
      vertex 5.25 48.339 1.88148
    endloop
  endfacet
  facet normal -1 0 0
    outer loop
      vertex 50.25 5.25 5
      vertex 50.25 46.75 44
      vertex 50.25 46.75 5
    endloop
  endfacet
  facet normal -1 -0 0
    outer loop
      vertex 50.25 46.75 44
      vertex 50.25 5.25 5
      vertex 50.25 5.25 44
    endloop
  endfacet
  facet normal 0.996914 -0.00266176 0.0784572
    outer loop
      vertex 1.94358 16.0857 1.5
      vertex 1.79309 46.75 4.45248
      vertex 1.75 46.75 5
    endloop
  endfacet
  facet normal -0.888327 -0.452626 0.0774962
    outer loop
      vertex 50.0377 47.8182 4.45248
      vertex 50.0787 47.8316 5
      vertex 49.5816 48.8072 5
    endloop
  endfacet
  facet normal -0.888327 0.452624 0.0774955
    outer loop
      vertex 49.5816 3.19275 5
      vertex 50.0377 4.18176 4.45248
      vertex 49.5467 3.21808 4.45248
    endloop
  endfacet
  facet normal 0.156435 -0.987688 0
    outer loop
      vertex 4.16844 50.0787 5
      vertex 5.25 50.25 44
      vertex 4.16844 50.0787 44
    endloop
  endfacet
  facet normal 0.156435 -0.987688 0
    outer loop
      vertex 5.25 50.25 44
      vertex 4.16844 50.0787 5
      vertex 5.25 50.25 5
    endloop
  endfacet
  facet normal 0 -0.996917 0.0784593
    outer loop
      vertex 5.25 50.2069 4.45248
      vertex 46.75 50.25 5
      vertex 5.25 50.25 5
    endloop
  endfacet
  facet normal 0 -0.996917 0.0784593
    outer loop
      vertex 46.75 50.25 5
      vertex 5.25 50.2069 4.45248
      vertex 46.75 50.2069 4.45248
    endloop
  endfacet
  facet normal 0.155964 -0.984718 0.0774991
    outer loop
      vertex 5.25 50.2069 4.45248
      vertex 5.25 50.25 5
      vertex 4.18176 50.0377 4.45248
    endloop
  endfacet
  facet normal 0.278435 -0.14187 0.949919
    outer loop
      vertex 4.80705 47.0718 1.54309
      vertex 3.9645 47.684 1.88148
      vertex 3.7388 47.241 1.88148
    endloop
  endfacet
  facet normal -0.127099 -0.802457 0.583017
    outer loop
      vertex 47.5148 49.1037 2.52513
      vertex 47.7137 49.7159 3.41103
      vertex 46.75 49.8685 3.41103
    endloop
  endfacet
  facet normal -0.148952 0.940447 0.30557
    outer loop
      vertex 47.8182 1.96228 4.45248
      vertex 46.75 2.13148 3.41103
      vertex 46.75 1.79309 4.45248
    endloop
  endfacet
  facet normal -0.984718 0.155964 0.0774983
    outer loop
      vertex 50.0787 4.16844 5
      vertex 50.25 5.25 5
      vertex 50.0377 4.18176 4.45248
    endloop
  endfacet
  facet normal -0.888328 -0.452624 0.0774931
    outer loop
      vertex 50.0377 47.8182 4.45248
      vertex 49.5816 48.8072 5
      vertex 49.5467 48.7819 4.45248
    endloop
  endfacet
  facet normal -0.278436 0.14187 0.949919
    outer loop
      vertex 48.0355 4.31603 1.88148
      vertex 48.2612 4.75898 1.88148
      vertex 47.193 4.92817 1.54309
    endloop
  endfacet
  facet normal 0.0205366 -0.00325264 0.999784
    outer loop
      vertex 4.72928 46.9192 1.54309
      vertex 4.70248 46.75 1.54309
      vertex 1.94358 16.0857 1.5
    endloop
  endfacet
  facet normal 0.587243 -0.0429457 0.808271
    outer loop
      vertex 3.66103 46.75 1.88148
      vertex 2.77513 46.75 2.52513
      vertex 1.94358 16.0857 1.5
    endloop
  endfacet
  facet normal 0.99998 0.00631265 0
    outer loop
      vertex 1.94358 16.0857 44
      vertex 1.75 46.75 5
      vertex 1.75 46.75 44
    endloop
  endfacet
  facet normal 0.99998 0.00631265 0
    outer loop
      vertex 1.75 46.75 5
      vertex 1.94358 16.0857 44
      vertex 1.94358 16.0857 1.5
    endloop
  endfacet
  facet normal 0.891007 -0.45399 0
    outer loop
      vertex 1.9213 47.8316 44
      vertex 2.41844 48.8072 5
      vertex 2.41844 48.8072 44
    endloop
  endfacet
  facet normal 0.891007 -0.45399 0
    outer loop
      vertex 2.41844 48.8072 5
      vertex 1.9213 47.8316 44
      vertex 1.9213 47.8316 5
    endloop
  endfacet
  facet normal 0.940447 -0.148952 0.30557
    outer loop
      vertex 2.13148 46.75 3.41103
      vertex 1.96228 47.8182 4.45248
      vertex 1.79309 46.75 4.45248
    endloop
  endfacet
  facet normal -0.996917 0 0.0784593
    outer loop
      vertex 50.2069 5.25 4.45248
      vertex 50.25 46.75 5
      vertex 50.2069 46.75 4.45248
    endloop
  endfacet
  facet normal -0.996917 0 0.0784593
    outer loop
      vertex 50.25 46.75 5
      vertex 50.2069 5.25 4.45248
      vertex 50.25 5.25 5
    endloop
  endfacet
  facet normal -0.984718 0.155964 0.0774991
    outer loop
      vertex 50.25 5.25 5
      vertex 50.2069 5.25 4.45248
      vertex 50.0377 4.18176 4.45248
    endloop
  endfacet
  facet normal -0.987688 0.156435 0
    outer loop
      vertex 50.0787 4.16844 5
      vertex 50.25 5.25 44
      vertex 50.25 5.25 5
    endloop
  endfacet
  facet normal -0.987688 0.156435 0
    outer loop
      vertex 50.25 5.25 44
      vertex 50.0787 4.16844 5
      vertex 50.0787 4.16844 44
    endloop
  endfacet
  facet normal -0.891006 0.453991 0
    outer loop
      vertex 49.5816 3.19275 5
      vertex 50.0787 4.16844 44
      vertex 50.0787 4.16844 5
    endloop
  endfacet
  facet normal -0.891006 0.453991 0
    outer loop
      vertex 50.0787 4.16844 44
      vertex 49.5816 3.19275 5
      vertex 49.5816 3.19275 44
    endloop
  endfacet
  facet normal -0.951057 0 0.309017
    outer loop
      vertex 49.8685 5.25 3.41103
      vertex 50.2069 46.75 4.45248
      vertex 49.8685 46.75 3.41103
    endloop
  endfacet
  facet normal -0.951057 0 0.309017
    outer loop
      vertex 50.2069 46.75 4.45248
      vertex 49.8685 5.25 3.41103
      vertex 50.2069 5.25 4.45248
    endloop
  endfacet
  facet normal -0.308648 -0.0488862 0.949919
    outer loop
      vertex 47.2975 46.75 1.54309
      vertex 48.339 46.75 1.88148
      vertex 47.2707 46.9192 1.54309
    endloop
  endfacet
  facet normal 0.148954 -0.940446 0.305572
    outer loop
      vertex 4.28632 49.7159 3.41103
      vertex 5.25 49.8685 3.41103
      vertex 4.18176 50.0377 4.45248
    endloop
  endfacet
  facet normal 0 -1 0
    outer loop
      vertex 5.25 50.25 5
      vertex 46.75 50.25 44
      vertex 5.25 50.25 44
    endloop
  endfacet
  facet normal 0 -1 -0
    outer loop
      vertex 46.75 50.25 44
      vertex 5.25 50.25 5
      vertex 46.75 50.25 5
    endloop
  endfacet
  facet normal 0.36885 -0.723905 0.58302
    outer loop
      vertex 3.79531 48.7522 2.52513
      vertex 4.48522 49.1037 2.52513
      vertex 3.41698 49.2729 3.41103
    endloop
  endfacet
  facet normal 0.269013 -0.527965 0.805534
    outer loop
      vertex 4.75898 48.2612 1.88148
      vertex 4.48522 49.1037 2.52513
      vertex 3.79531 48.7522 2.52513
    endloop
  endfacet
  facet normal 0 -0.00138373 0.999999
    outer loop
      vertex 46.75 47.2975 1.54309
      vertex 5.25 47.2975 1.54309
      vertex 2.01429 16.1564 1.5
    endloop
  endfacet
  facet normal -0.70498 -0.70498 0.0774929
    outer loop
      vertex 48.7819 49.5467 4.45248
      vertex 49.5816 48.8072 5
      vertex 48.8072 49.5816 5
    endloop
  endfacet
  facet normal -0.70498 -0.70498 0.0774929
    outer loop
      vertex 49.5816 48.8072 5
      vertex 48.7819 49.5467 4.45248
      vertex 49.5467 48.7819 4.45248
    endloop
  endfacet
  facet normal 0.0926945 -0.585254 0.805534
    outer loop
      vertex 4.75898 48.2612 1.88148
      vertex 5.25 49.2249 2.52513
      vertex 4.48522 49.1037 2.52513
    endloop
  endfacet
  facet normal 0.707107 -0.707107 0
    outer loop
      vertex 2.41844 48.8072 44
      vertex 3.19275 49.5816 5
      vertex 3.19275 49.5816 44
    endloop
  endfacet
  facet normal 0.707107 -0.707107 0
    outer loop
      vertex 3.19275 49.5816 5
      vertex 2.41844 48.8072 44
      vertex 2.41844 48.8072 5
    endloop
  endfacet
  facet normal -0.802457 0.127098 0.583017
    outer loop
      vertex 49.7159 4.28632 3.41103
      vertex 49.8685 5.25 3.41103
      vertex 49.1037 4.48522 2.52513
    endloop
  endfacet
  facet normal -0.940447 0.148952 0.30557
    outer loop
      vertex 50.0377 4.18176 4.45248
      vertex 50.2069 5.25 4.45248
      vertex 49.8685 5.25 3.41103
    endloop
  endfacet
  facet normal -0.673286 0.673285 0.30557
    outer loop
      vertex 48.583 2.72706 3.41103
      vertex 49.5467 3.21808 4.45248
      vertex 49.2729 3.41698 3.41103
    endloop
  endfacet
  facet normal -0.673286 0.673286 0.305569
    outer loop
      vertex 49.5467 3.21808 4.45248
      vertex 48.583 2.72706 3.41103
      vertex 48.7819 2.4533 4.45248
    endloop
  endfacet
  facet normal -0.888327 0.452626 0.0774986
    outer loop
      vertex 50.0787 4.16844 5
      vertex 50.0377 4.18176 4.45248
      vertex 49.5816 3.19275 5
    endloop
  endfacet
  facet normal -0.723904 -0.36885 0.583021
    outer loop
      vertex 49.1037 47.5148 2.52513
      vertex 49.2729 48.583 3.41103
      vertex 48.7522 48.2047 2.52513
    endloop
  endfacet
  facet normal -0.156434 0.987688 0
    outer loop
      vertex 47.8316 1.9213 5
      vertex 46.75 1.75 44
      vertex 47.8316 1.9213 44
    endloop
  endfacet
  facet normal -0.156434 0.987688 0
    outer loop
      vertex 46.75 1.75 44
      vertex 47.8316 1.9213 5
      vertex 46.75 1.75 5
    endloop
  endfacet
  facet normal -0.527965 0.269013 0.805534
    outer loop
      vertex 48.7522 3.79531 2.52513
      vertex 49.1037 4.48522 2.52513
      vertex 48.2612 4.75898 1.88148
    endloop
  endfacet
  facet normal -0.309017 0 0.951057
    outer loop
      vertex 47.2975 46.75 1.54309
      vertex 48.339 5.25 1.88148
      vertex 48.339 46.75 1.88148
    endloop
  endfacet
  facet normal -0.309017 0 0.951057
    outer loop
      vertex 48.339 5.25 1.88148
      vertex 47.2975 46.75 1.54309
      vertex 47.2975 5.25 1.54309
    endloop
  endfacet
  facet normal -0.802457 -0.127099 0.583017
    outer loop
      vertex 49.8685 46.75 3.41103
      vertex 49.7159 47.7137 3.41103
      vertex 49.1037 47.5148 2.52513
    endloop
  endfacet
  facet normal -0.984718 -0.155964 0.0774991
    outer loop
      vertex 50.2069 46.75 4.45248
      vertex 50.25 46.75 5
      vertex 50.0377 47.8182 4.45248
    endloop
  endfacet
  facet normal 0.984718 -0.155964 0.0774974
    outer loop
      vertex 1.79309 46.75 4.45248
      vertex 1.9213 47.8316 5
      vertex 1.75 46.75 5
    endloop
  endfacet
  facet normal 0.808318 -0.0415529 0.587278
    outer loop
      vertex 2.77513 46.75 2.52513
      vertex 2.13148 46.75 3.41103
      vertex 1.94358 16.0857 1.5
    endloop
  endfacet
  facet normal 0.0926959 -0.585255 0.805533
    outer loop
      vertex 5.25 48.339 1.88148
      vertex 5.25 49.2249 2.52513
      vertex 4.75898 48.2612 1.88148
    endloop
  endfacet
  facet normal -0.453991 -0.891006 0
    outer loop
      vertex 47.8316 50.0787 5
      vertex 48.8072 49.5816 44
      vertex 47.8316 50.0787 44
    endloop
  endfacet
  facet normal -0.453991 -0.891006 -0
    outer loop
      vertex 48.8072 49.5816 44
      vertex 47.8316 50.0787 5
      vertex 48.8072 49.5816 5
    endloop
  endfacet
  facet normal -0.452624 -0.888328 0.0774931
    outer loop
      vertex 48.7819 49.5467 4.45248
      vertex 48.8072 49.5816 5
      vertex 47.8182 50.0377 4.45248
    endloop
  endfacet
  facet normal -0.723908 -0.368847 0.583017
    outer loop
      vertex 49.7159 47.7137 3.41103
      vertex 49.2729 48.583 3.41103
      vertex 49.1037 47.5148 2.52513
    endloop
  endfacet
  facet normal -0.155964 -0.984718 0.0774991
    outer loop
      vertex 47.8182 50.0377 4.45248
      vertex 46.75 50.25 5
      vertex 46.75 50.2069 4.45248
    endloop
  endfacet
  facet normal 0.308648 -0.0488844 0.949919
    outer loop
      vertex 4.70248 46.75 1.54309
      vertex 4.72928 46.9192 1.54309
      vertex 3.66103 46.75 1.88148
    endloop
  endfacet
  facet normal 0.987688 -0.156434 0
    outer loop
      vertex 1.75 46.75 44
      vertex 1.9213 47.8316 5
      vertex 1.9213 47.8316 44
    endloop
  endfacet
  facet normal 0.987688 -0.156434 0
    outer loop
      vertex 1.9213 47.8316 5
      vertex 1.75 46.75 44
      vertex 1.75 46.75 5
    endloop
  endfacet
  facet normal -0.587786 0 0.809017
    outer loop
      vertex 48.339 46.75 1.88148
      vertex 49.2249 5.25 2.52513
      vertex 49.2249 46.75 2.52513
    endloop
  endfacet
  facet normal -0.587786 0 0.809017
    outer loop
      vertex 49.2249 5.25 2.52513
      vertex 48.339 46.75 1.88148
      vertex 48.339 5.25 1.88148
    endloop
  endfacet
  facet normal -0.527965 -0.269014 0.805534
    outer loop
      vertex 49.1037 47.5148 2.52513
      vertex 48.7522 48.2047 2.52513
      vertex 48.2612 47.241 1.88148
    endloop
  endfacet
  facet normal -0.45399 0.891007 0
    outer loop
      vertex 48.8072 2.41844 5
      vertex 47.8316 1.9213 44
      vertex 48.8072 2.41844 44
    endloop
  endfacet
  facet normal -0.45399 0.891007 0
    outer loop
      vertex 47.8316 1.9213 44
      vertex 48.8072 2.41844 5
      vertex 47.8316 1.9213 5
    endloop
  endfacet
  facet normal -0.308648 0.0488862 0.949919
    outer loop
      vertex 48.339 5.25 1.88148
      vertex 47.2975 5.25 1.54309
      vertex 47.2707 5.08081 1.54309
    endloop
  endfacet
  facet normal -0.00153225 0.00153228 0.999998
    outer loop
      vertex 16.1564 2.01429 1.5
      vertex 47.0718 4.80705 1.54309
      vertex 47.193 4.92817 1.54309
    endloop
  endfacet
  facet normal -0.00153224 0.00153222 0.999998
    outer loop
      vertex 47.0718 4.80705 1.54309
      vertex 16.1564 2.01429 1.5
      vertex 16.0857 1.94358 1.5
    endloop
  endfacet
  facet normal -0.585254 0.0926945 0.805534
    outer loop
      vertex 49.1037 4.48522 2.52513
      vertex 49.2249 5.25 2.52513
      vertex 48.2612 4.75898 1.88148
    endloop
  endfacet
  facet normal -0.00266176 0.996914 0.0784572
    outer loop
      vertex 46.75 1.75 5
      vertex 46.75 1.79309 4.45248
      vertex 16.0857 1.94358 1.5
    endloop
  endfacet
  facet normal -0.00112724 -0.000178542 0.999999
    outer loop
      vertex 47.2975 46.75 1.54309
      vertex 47.2707 46.9192 1.54309
      vertex 16.1564 2.01429 1.5
    endloop
  endfacet
  facet normal 0.432275 -0.84839 0.305571
    outer loop
      vertex 3.41698 49.2729 3.41103
      vertex 4.18176 50.0377 4.45248
      vertex 3.21808 49.5467 4.45248
    endloop
  endfacet
  facet normal 0.950757 -0.0250781 0.30892
    outer loop
      vertex 1.94358 16.0857 1.5
      vertex 2.13148 46.75 3.41103
      vertex 1.79309 46.75 4.45248
    endloop
  endfacet
  facet normal 0.418995 -0.418997 0.805534
    outer loop
      vertex 3.79531 48.7522 2.52513
      vertex 3.9645 47.684 1.88148
      vertex 4.31603 48.0355 1.88148
    endloop
  endfacet
  facet normal 0.418996 -0.418997 0.805533
    outer loop
      vertex 3.9645 47.684 1.88148
      vertex 3.79531 48.7522 2.52513
      vertex 3.24778 48.2047 2.52513
    endloop
  endfacet
  facet normal 0.84839 -0.432275 0.30557
    outer loop
      vertex 2.28411 47.7137 3.41103
      vertex 2.72706 48.583 3.41103
      vertex 1.96228 47.8182 4.45248
    endloop
  endfacet
  facet normal 0.308648 -0.0488849 0.949919
    outer loop
      vertex 4.72928 46.9192 1.54309
      vertex 3.7388 47.241 1.88148
      vertex 3.66103 46.75 1.88148
    endloop
  endfacet
  facet normal 0.585254 -0.0926951 0.805534
    outer loop
      vertex 3.66103 46.75 1.88148
      vertex 3.7388 47.241 1.88148
      vertex 2.77513 46.75 2.52513
    endloop
  endfacet
  facet normal -0.707107 -0.707107 0
    outer loop
      vertex 49.5816 48.8072 5
      vertex 48.8072 49.5816 44
      vertex 48.8072 49.5816 5
    endloop
  endfacet
  facet normal -0.707107 -0.707107 0
    outer loop
      vertex 48.8072 49.5816 44
      vertex 49.5816 48.8072 5
      vertex 49.5816 48.8072 44
    endloop
  endfacet
  facet normal -0.891006 -0.453991 0
    outer loop
      vertex 50.0787 47.8316 5
      vertex 49.5816 48.8072 44
      vertex 49.5816 48.8072 5
    endloop
  endfacet
  facet normal -0.891006 -0.453991 0
    outer loop
      vertex 49.5816 48.8072 44
      vertex 50.0787 47.8316 5
      vertex 50.0787 47.8316 44
    endloop
  endfacet
  facet normal -0.00079807 -0.000406624 1
    outer loop
      vertex 47.2707 46.9192 1.54309
      vertex 47.193 47.0718 1.54309
      vertex 16.1564 2.01429 1.5
    endloop
  endfacet
  facet normal -0.0488862 -0.308648 0.949919
    outer loop
      vertex 46.9192 47.2707 1.54309
      vertex 46.75 48.339 1.88148
      vertex 46.75 47.2975 1.54309
    endloop
  endfacet
  facet normal -0.14187 -0.278436 0.949919
    outer loop
      vertex 47.684 48.0355 1.88148
      vertex 47.241 48.2612 1.88148
      vertex 47.0718 47.193 1.54309
    endloop
  endfacet
  facet normal -0.156435 -0.987688 0
    outer loop
      vertex 46.75 50.25 5
      vertex 47.8316 50.0787 44
      vertex 46.75 50.25 44
    endloop
  endfacet
  facet normal -0.156435 -0.987688 -0
    outer loop
      vertex 47.8316 50.0787 44
      vertex 46.75 50.25 5
      vertex 47.8316 50.0787 5
    endloop
  endfacet
  facet normal -0.269014 -0.527965 0.805534
    outer loop
      vertex 48.2047 48.7522 2.52513
      vertex 47.5148 49.1037 2.52513
      vertex 47.241 48.2612 1.88148
    endloop
  endfacet
  facet normal -0.0926963 -0.585255 0.805533
    outer loop
      vertex 47.241 48.2612 1.88148
      vertex 46.75 49.2249 2.52513
      vertex 46.75 48.339 1.88148
    endloop
  endfacet
  facet normal 0 -0.951057 0.309017
    outer loop
      vertex 5.25 49.8685 3.41103
      vertex 46.75 50.2069 4.45248
      vertex 5.25 50.2069 4.45248
    endloop
  endfacet
  facet normal 0 -0.951057 0.309017
    outer loop
      vertex 46.75 50.2069 4.45248
      vertex 5.25 49.8685 3.41103
      vertex 46.75 49.8685 3.41103
    endloop
  endfacet
  facet normal 0.453991 -0.891006 0
    outer loop
      vertex 3.19275 49.5816 5
      vertex 4.16844 50.0787 44
      vertex 3.19275 49.5816 44
    endloop
  endfacet
  facet normal 0.453991 -0.891006 0
    outer loop
      vertex 4.16844 50.0787 44
      vertex 3.19275 49.5816 5
      vertex 4.16844 50.0787 5
    endloop
  endfacet
  facet normal 0.155964 -0.984718 0.0774983
    outer loop
      vertex 4.18176 50.0377 4.45248
      vertex 5.25 50.25 5
      vertex 4.16844 50.0787 5
    endloop
  endfacet
  facet normal 0.802456 -0.127097 0.583018
    outer loop
      vertex 2.89625 47.5148 2.52513
      vertex 2.28411 47.7137 3.41103
      vertex 2.13148 46.75 3.41103
    endloop
  endfacet
  facet normal 0.308886 -0.0291267 0.950653
    outer loop
      vertex 4.70248 46.75 1.54309
      vertex 3.66103 46.75 1.88148
      vertex 1.94358 16.0857 1.5
    endloop
  endfacet
  facet normal -0.940446 -0.148954 0.305572
    outer loop
      vertex 49.8685 46.75 3.41103
      vertex 50.0377 47.8182 4.45248
      vertex 49.7159 47.7137 3.41103
    endloop
  endfacet
  facet normal -0.940447 -0.148952 0.30557
    outer loop
      vertex 50.2069 46.75 4.45248
      vertex 50.0377 47.8182 4.45248
      vertex 49.8685 46.75 3.41103
    endloop
  endfacet
  facet normal -0.0250781 0.950757 0.30892
    outer loop
      vertex 46.75 1.79309 4.45248
      vertex 46.75 2.13148 3.41103
      vertex 16.0857 1.94358 1.5
    endloop
  endfacet
  facet normal -0.00169873 0.00333393 0.999993
    outer loop
      vertex 46.9192 4.72928 1.54309
      vertex 47.0718 4.80705 1.54309
      vertex 16.0857 1.94358 1.5
    endloop
  endfacet
  facet normal -0.00138373 0 0.999999
    outer loop
      vertex 47.2975 5.25 1.54309
      vertex 47.2975 46.75 1.54309
      vertex 16.1564 2.01429 1.5
    endloop
  endfacet
  facet normal 0.00631265 0.99998 -0
    outer loop
      vertex 46.75 1.75 5
      vertex 16.0857 1.94358 44
      vertex 46.75 1.75 44
    endloop
  endfacet
  facet normal 0.00631265 0.99998 0
    outer loop
      vertex 16.0857 1.94358 44
      vertex 46.75 1.75 5
      vertex 16.0857 1.94358 1.5
    endloop
  endfacet
  facet normal -0.220968 0.220967 0.949919
    outer loop
      vertex 47.193 4.92817 1.54309
      vertex 47.684 3.9645 1.88148
      vertex 48.0355 4.31603 1.88148
    endloop
  endfacet
  facet normal -0.220964 0.220969 0.94992
    outer loop
      vertex 47.684 3.9645 1.88148
      vertex 47.193 4.92817 1.54309
      vertex 47.0718 4.80705 1.54309
    endloop
  endfacet
  facet normal -0.308647 0.0488853 0.949919
    outer loop
      vertex 48.2612 4.75898 1.88148
      vertex 48.339 5.25 1.88148
      vertex 47.2707 5.08081 1.54309
    endloop
  endfacet
  facet normal -0.940446 0.148954 0.305572
    outer loop
      vertex 50.0377 4.18176 4.45248
      vertex 49.8685 5.25 3.41103
      vertex 49.7159 4.28632 3.41103
    endloop
  endfacet
  facet normal -0.148953 0.940447 0.30557
    outer loop
      vertex 47.8182 1.96228 4.45248
      vertex 47.7137 2.28411 3.41103
      vertex 46.75 2.13148 3.41103
    endloop
  endfacet
  facet normal -0.155964 0.984718 0.0774974
    outer loop
      vertex 47.8316 1.9213 5
      vertex 46.75 1.79309 4.45248
      vertex 46.75 1.75 5
    endloop
  endfacet
  facet normal 0.888327 -0.452625 0.0774962
    outer loop
      vertex 1.96228 47.8182 4.45248
      vertex 2.41844 48.8072 5
      vertex 1.9213 47.8316 5
    endloop
  endfacet
  facet normal 0.984718 -0.155964 0.0774975
    outer loop
      vertex 1.96228 47.8182 4.45248
      vertex 1.9213 47.8316 5
      vertex 1.79309 46.75 4.45248
    endloop
  endfacet
  facet normal 0.527965 -0.269013 0.805534
    outer loop
      vertex 3.7388 47.241 1.88148
      vertex 3.24778 48.2047 2.52513
      vertex 2.89625 47.5148 2.52513
    endloop
  endfacet
  facet normal 0.574494 -0.574495 0.583019
    outer loop
      vertex 3.41698 49.2729 3.41103
      vertex 3.24778 48.2047 2.52513
      vertex 3.79531 48.7522 2.52513
    endloop
  endfacet
  facet normal 0.574494 -0.574495 0.58302
    outer loop
      vertex 3.24778 48.2047 2.52513
      vertex 3.41698 49.2729 3.41103
      vertex 2.72706 48.583 3.41103
    endloop
  endfacet
  facet normal 0.0488853 -0.308647 0.949919
    outer loop
      vertex 5.08081 47.2707 1.54309
      vertex 5.25 48.339 1.88148
      vertex 4.75898 48.2612 1.88148
    endloop
  endfacet
  facet normal 0.269013 -0.527966 0.805534
    outer loop
      vertex 4.31603 48.0355 1.88148
      vertex 4.75898 48.2612 1.88148
      vertex 3.79531 48.7522 2.52513
    endloop
  endfacet
  facet normal -0.84839 -0.432275 0.305571
    outer loop
      vertex 50.0377 47.8182 4.45248
      vertex 49.5467 48.7819 4.45248
      vertex 49.2729 48.583 3.41103
    endloop
  endfacet
  facet normal -0.84839 -0.432273 0.305572
    outer loop
      vertex 49.7159 47.7137 3.41103
      vertex 50.0377 47.8182 4.45248
      vertex 49.2729 48.583 3.41103
    endloop
  endfacet
  facet normal -0.220968 -0.220968 0.949919
    outer loop
      vertex 47.684 48.0355 1.88148
      vertex 47.193 47.0718 1.54309
      vertex 48.0355 47.684 1.88148
    endloop
  endfacet
  facet normal -0.220968 -0.220968 0.949919
    outer loop
      vertex 47.193 47.0718 1.54309
      vertex 47.684 48.0355 1.88148
      vertex 47.0718 47.193 1.54309
    endloop
  endfacet
  facet normal -0.418997 -0.418997 0.805533
    outer loop
      vertex 48.2047 48.7522 2.52513
      vertex 48.0355 47.684 1.88148
      vertex 48.7522 48.2047 2.52513
    endloop
  endfacet
  facet normal -0.418997 -0.418997 0.805533
    outer loop
      vertex 48.0355 47.684 1.88148
      vertex 48.2047 48.7522 2.52513
      vertex 47.684 48.0355 1.88148
    endloop
  endfacet
  facet normal -0.36885 -0.723904 0.583021
    outer loop
      vertex 48.2047 48.7522 2.52513
      vertex 48.583 49.2729 3.41103
      vertex 47.5148 49.1037 2.52513
    endloop
  endfacet
  facet normal -0.673286 -0.673286 0.30557
    outer loop
      vertex 48.583 49.2729 3.41103
      vertex 49.5467 48.7819 4.45248
      vertex 48.7819 49.5467 4.45248
    endloop
  endfacet
  facet normal -0.673286 -0.673286 0.30557
    outer loop
      vertex 49.5467 48.7819 4.45248
      vertex 48.583 49.2729 3.41103
      vertex 49.2729 48.583 3.41103
    endloop
  endfacet
  facet normal 0 -0.309017 0.951057
    outer loop
      vertex 5.25 48.339 1.88148
      vertex 46.75 47.2975 1.54309
      vertex 46.75 48.339 1.88148
    endloop
  endfacet
  facet normal 0 -0.309017 0.951057
    outer loop
      vertex 46.75 47.2975 1.54309
      vertex 5.25 48.339 1.88148
      vertex 5.25 47.2975 1.54309
    endloop
  endfacet
  facet normal 0.000222834 -0.00140688 0.999999
    outer loop
      vertex 5.25 47.2975 1.54309
      vertex 5.08081 47.2707 1.54309
      vertex 2.01429 16.1564 1.5
    endloop
  endfacet
  facet normal 0 -0.809017 0.587786
    outer loop
      vertex 5.25 49.2249 2.52513
      vertex 46.75 49.8685 3.41103
      vertex 5.25 49.8685 3.41103
    endloop
  endfacet
  facet normal 0 -0.809017 0.587786
    outer loop
      vertex 46.75 49.8685 3.41103
      vertex 5.25 49.2249 2.52513
      vertex 46.75 49.2249 2.52513
    endloop
  endfacet
  facet normal 0.127096 -0.802456 0.583019
    outer loop
      vertex 5.25 49.2249 2.52513
      vertex 5.25 49.8685 3.41103
      vertex 4.48522 49.1037 2.52513
    endloop
  endfacet
  facet normal 0.452626 -0.888327 0.0774986
    outer loop
      vertex 4.18176 50.0377 4.45248
      vertex 4.16844 50.0787 5
      vertex 3.19275 49.5816 5
    endloop
  endfacet
  facet normal 0.127098 -0.802457 0.583017
    outer loop
      vertex 4.48522 49.1037 2.52513
      vertex 5.25 49.8685 3.41103
      vertex 4.28632 49.7159 3.41103
    endloop
  endfacet
  facet normal 0.148952 -0.940447 0.30557
    outer loop
      vertex 5.25 49.8685 3.41103
      vertex 5.25 50.2069 4.45248
      vertex 4.18176 50.0377 4.45248
    endloop
  endfacet
  facet normal 0.888327 -0.452626 0.0774978
    outer loop
      vertex 2.4533 48.7819 4.45248
      vertex 2.41844 48.8072 5
      vertex 1.96228 47.8182 4.45248
    endloop
  endfacet
  facet normal 0.452624 -0.888327 0.0774955
    outer loop
      vertex 3.21808 49.5467 4.45248
      vertex 4.18176 50.0377 4.45248
      vertex 3.19275 49.5816 5
    endloop
  endfacet
  facet normal -0.84839 0.432275 0.305571
    outer loop
      vertex 49.5467 3.21808 4.45248
      vertex 50.0377 4.18176 4.45248
      vertex 49.2729 3.41698 3.41103
    endloop
  endfacet
  facet normal -0.802456 0.127096 0.583019
    outer loop
      vertex 49.8685 5.25 3.41103
      vertex 49.2249 5.25 2.52513
      vertex 49.1037 4.48522 2.52513
    endloop
  endfacet
  facet normal -0.802456 -0.127096 0.583019
    outer loop
      vertex 49.2249 46.75 2.52513
      vertex 49.8685 46.75 3.41103
      vertex 49.1037 47.5148 2.52513
    endloop
  endfacet
  facet normal -0.278437 0.141864 0.94992
    outer loop
      vertex 48.2612 4.75898 1.88148
      vertex 47.2707 5.08081 1.54309
      vertex 47.193 4.92817 1.54309
    endloop
  endfacet
  facet normal -0.585255 0.0926959 0.805533
    outer loop
      vertex 49.2249 5.25 2.52513
      vertex 48.339 5.25 1.88148
      vertex 48.2612 4.75898 1.88148
    endloop
  endfacet
  facet normal -0.127097 0.802456 0.583018
    outer loop
      vertex 47.7137 2.28411 3.41103
      vertex 47.5148 2.89625 2.52513
      vertex 46.75 2.13148 3.41103
    endloop
  endfacet
  facet normal -0.0926951 0.585254 0.805534
    outer loop
      vertex 47.241 3.7388 1.88148
      vertex 46.75 3.66103 1.88148
      vertex 46.75 2.77513 2.52513
    endloop
  endfacet
  facet normal -0.574496 0.574494 0.583019
    outer loop
      vertex 48.7522 3.79531 2.52513
      vertex 48.583 2.72706 3.41103
      vertex 49.2729 3.41698 3.41103
    endloop
  endfacet
  facet normal -0.574495 0.574494 0.58302
    outer loop
      vertex 48.583 2.72706 3.41103
      vertex 48.7522 3.79531 2.52513
      vertex 48.2047 3.24778 2.52513
    endloop
  endfacet
  facet normal -0.70498 0.70498 0.0774965
    outer loop
      vertex 48.7819 2.4533 4.45248
      vertex 49.5816 3.19275 5
      vertex 49.5467 3.21808 4.45248
    endloop
  endfacet
  facet normal -0.70498 0.70498 0.0774965
    outer loop
      vertex 49.5816 3.19275 5
      vertex 48.7819 2.4533 4.45248
      vertex 48.8072 2.41844 5
    endloop
  endfacet
  facet normal -0.707107 0.707107 0
    outer loop
      vertex 48.8072 2.41844 5
      vertex 49.5816 3.19275 44
      vertex 49.5816 3.19275 5
    endloop
  endfacet
  facet normal -0.707107 0.707107 0
    outer loop
      vertex 49.5816 3.19275 44
      vertex 48.8072 2.41844 5
      vertex 48.8072 2.41844 44
    endloop
  endfacet
  facet normal -0.368849 0.723905 0.583019
    outer loop
      vertex 48.583 2.72706 3.41103
      vertex 48.2047 3.24778 2.52513
      vertex 47.5148 2.89625 2.52513
    endloop
  endfacet
  facet normal -0.368848 0.723907 0.583018
    outer loop
      vertex 47.7137 2.28411 3.41103
      vertex 48.583 2.72706 3.41103
      vertex 47.5148 2.89625 2.52513
    endloop
  endfacet
  facet normal 0.848389 -0.432277 0.305569
    outer loop
      vertex 2.72706 48.583 3.41103
      vertex 2.4533 48.7819 4.45248
      vertex 1.96228 47.8182 4.45248
    endloop
  endfacet
  facet normal 0.940447 -0.148953 0.30557
    outer loop
      vertex 2.13148 46.75 3.41103
      vertex 2.28411 47.7137 3.41103
      vertex 1.96228 47.8182 4.45248
    endloop
  endfacet
  facet normal 0.14187 -0.278436 0.949919
    outer loop
      vertex 4.92817 47.193 1.54309
      vertex 4.75898 48.2612 1.88148
      vertex 4.31603 48.0355 1.88148
    endloop
  endfacet
  facet normal -0.574494 -0.574494 0.583021
    outer loop
      vertex 48.583 49.2729 3.41103
      vertex 48.7522 48.2047 2.52513
      vertex 49.2729 48.583 3.41103
    endloop
  endfacet
  facet normal -0.574494 -0.574494 0.583021
    outer loop
      vertex 48.7522 48.2047 2.52513
      vertex 48.583 49.2729 3.41103
      vertex 48.2047 48.7522 2.52513
    endloop
  endfacet
  facet normal -0.000406624 -0.00079807 1
    outer loop
      vertex 47.0718 47.193 1.54309
      vertex 46.9192 47.2707 1.54309
      vertex 2.01429 16.1564 1.5
    endloop
  endfacet
  facet normal -0.278436 -0.141866 0.94992
    outer loop
      vertex 47.2707 46.9192 1.54309
      vertex 48.2612 47.241 1.88148
      vertex 47.193 47.0718 1.54309
    endloop
  endfacet
  facet normal -0.278436 -0.14187 0.949919
    outer loop
      vertex 48.2612 47.241 1.88148
      vertex 48.0355 47.684 1.88148
      vertex 47.193 47.0718 1.54309
    endloop
  endfacet
  facet normal -0.432275 -0.84839 0.305571
    outer loop
      vertex 48.583 49.2729 3.41103
      vertex 48.7819 49.5467 4.45248
      vertex 47.8182 50.0377 4.45248
    endloop
  endfacet
  facet normal -0.127096 -0.802456 0.583019
    outer loop
      vertex 47.5148 49.1037 2.52513
      vertex 46.75 49.8685 3.41103
      vertex 46.75 49.2249 2.52513
    endloop
  endfacet
  facet normal -0.269012 -0.527967 0.805533
    outer loop
      vertex 47.684 48.0355 1.88148
      vertex 48.2047 48.7522 2.52513
      vertex 47.241 48.2612 1.88148
    endloop
  endfacet
  facet normal 0.00153228 -0.00153225 0.999998
    outer loop
      vertex 4.80705 47.0718 1.54309
      vertex 2.01429 16.1564 1.5
      vertex 4.92817 47.193 1.54309
    endloop
  endfacet
  facet normal 0.00153222 -0.00153224 0.999998
    outer loop
      vertex 2.01429 16.1564 1.5
      vertex 4.80705 47.0718 1.54309
      vertex 1.94358 16.0857 1.5
    endloop
  endfacet
  facet normal 0.141864 -0.278437 0.94992
    outer loop
      vertex 4.92817 47.193 1.54309
      vertex 5.08081 47.2707 1.54309
      vertex 4.75898 48.2612 1.88148
    endloop
  endfacet
  facet normal 0.368848 -0.723907 0.583018
    outer loop
      vertex 4.48522 49.1037 2.52513
      vertex 4.28632 49.7159 3.41103
      vertex 3.41698 49.2729 3.41103
    endloop
  endfacet
  facet normal 0.432274 -0.84839 0.305571
    outer loop
      vertex 4.28632 49.7159 3.41103
      vertex 4.18176 50.0377 4.45248
      vertex 3.41698 49.2729 3.41103
    endloop
  endfacet
  facet normal -0.723905 0.36885 0.58302
    outer loop
      vertex 49.2729 3.41698 3.41103
      vertex 49.1037 4.48522 2.52513
      vertex 48.7522 3.79531 2.52513
    endloop
  endfacet
  facet normal -0.00145814 0.000742927 0.999999
    outer loop
      vertex 47.193 4.92817 1.54309
      vertex 47.2707 5.08081 1.54309
      vertex 16.1564 2.01429 1.5
    endloop
  endfacet
  facet normal -0.00140688 0.000222834 0.999999
    outer loop
      vertex 47.2707 5.08081 1.54309
      vertex 47.2975 5.25 1.54309
      vertex 16.1564 2.01429 1.5
    endloop
  endfacet
  facet normal -0.141871 0.278435 0.949919
    outer loop
      vertex 47.241 3.7388 1.88148
      vertex 47.0718 4.80705 1.54309
      vertex 46.9192 4.72928 1.54309
    endloop
  endfacet
  facet normal -0.0291267 0.308886 0.950653
    outer loop
      vertex 46.75 3.66103 1.88148
      vertex 46.75 4.70248 1.54309
      vertex 16.0857 1.94358 1.5
    endloop
  endfacet
  facet normal -0.527966 0.269013 0.805534
    outer loop
      vertex 48.7522 3.79531 2.52513
      vertex 48.2612 4.75898 1.88148
      vertex 48.0355 4.31603 1.88148
    endloop
  endfacet
  facet normal -0.418996 0.418996 0.805534
    outer loop
      vertex 48.0355 4.31603 1.88148
      vertex 48.2047 3.24778 2.52513
      vertex 48.7522 3.79531 2.52513
    endloop
  endfacet
  facet normal -0.418998 0.418995 0.805533
    outer loop
      vertex 48.2047 3.24778 2.52513
      vertex 48.0355 4.31603 1.88148
      vertex 47.684 3.9645 1.88148
    endloop
  endfacet
  facet normal -0.84839 0.432274 0.305571
    outer loop
      vertex 50.0377 4.18176 4.45248
      vertex 49.7159 4.28632 3.41103
      vertex 49.2729 3.41698 3.41103
    endloop
  endfacet
  facet normal -0.723907 0.368848 0.583018
    outer loop
      vertex 49.2729 3.41698 3.41103
      vertex 49.7159 4.28632 3.41103
      vertex 49.1037 4.48522 2.52513
    endloop
  endfacet
  facet normal -0.452626 0.888327 0.0774978
    outer loop
      vertex 48.8072 2.41844 5
      vertex 48.7819 2.4533 4.45248
      vertex 47.8182 1.96228 4.45248
    endloop
  endfacet
  facet normal -0.0415529 0.808318 0.587278
    outer loop
      vertex 46.75 2.13148 3.41103
      vertex 46.75 2.77513 2.52513
      vertex 16.0857 1.94358 1.5
    endloop
  endfacet
  facet normal -0.0429457 0.587243 0.808271
    outer loop
      vertex 46.75 2.77513 2.52513
      vertex 46.75 3.66103 1.88148
      vertex 16.0857 1.94358 1.5
    endloop
  endfacet
  facet normal -0.0488849 0.308648 0.949919
    outer loop
      vertex 47.241 3.7388 1.88148
      vertex 46.9192 4.72928 1.54309
      vertex 46.75 3.66103 1.88148
    endloop
  endfacet
  facet normal 0.70498 -0.70498 0.0774965
    outer loop
      vertex 2.41844 48.8072 5
      vertex 3.21808 49.5467 4.45248
      vertex 3.19275 49.5816 5
    endloop
  endfacet
  facet normal 0.70498 -0.70498 0.0774965
    outer loop
      vertex 3.21808 49.5467 4.45248
      vertex 2.41844 48.8072 5
      vertex 2.4533 48.7819 4.45248
    endloop
  endfacet
  facet normal 0.673286 -0.673286 0.30557
    outer loop
      vertex 2.4533 48.7819 4.45248
      vertex 3.41698 49.2729 3.41103
      vertex 3.21808 49.5467 4.45248
    endloop
  endfacet
  facet normal 0.673285 -0.673287 0.305569
    outer loop
      vertex 3.41698 49.2729 3.41103
      vertex 2.4533 48.7819 4.45248
      vertex 2.72706 48.583 3.41103
    endloop
  endfacet
  facet normal 0.723907 -0.368848 0.583018
    outer loop
      vertex 2.89625 47.5148 2.52513
      vertex 2.72706 48.583 3.41103
      vertex 2.28411 47.7137 3.41103
    endloop
  endfacet
  facet normal 0.723905 -0.368849 0.583019
    outer loop
      vertex 2.89625 47.5148 2.52513
      vertex 3.24778 48.2047 2.52513
      vertex 2.72706 48.583 3.41103
    endloop
  endfacet
  facet normal 0.585255 -0.0926953 0.805534
    outer loop
      vertex 3.7388 47.241 1.88148
      vertex 2.89625 47.5148 2.52513
      vertex 2.77513 46.75 2.52513
    endloop
  endfacet
  facet normal 0.802456 -0.127097 0.583018
    outer loop
      vertex 2.77513 46.75 2.52513
      vertex 2.89625 47.5148 2.52513
      vertex 2.13148 46.75 3.41103
    endloop
  endfacet
  facet normal 0.527966 -0.269012 0.805534
    outer loop
      vertex 3.7388 47.241 1.88148
      vertex 3.9645 47.684 1.88148
      vertex 3.24778 48.2047 2.52513
    endloop
  endfacet
  facet normal -0.527967 -0.269012 0.805533
    outer loop
      vertex 48.2612 47.241 1.88148
      vertex 48.7522 48.2047 2.52513
      vertex 48.0355 47.684 1.88148
    endloop
  endfacet
  facet normal -0.0926945 -0.585254 0.805534
    outer loop
      vertex 47.241 48.2612 1.88148
      vertex 47.5148 49.1037 2.52513
      vertex 46.75 49.2249 2.52513
    endloop
  endfacet
  facet normal -0.000178542 -0.00112724 0.999999
    outer loop
      vertex 46.9192 47.2707 1.54309
      vertex 46.75 47.2975 1.54309
      vertex 2.01429 16.1564 1.5
    endloop
  endfacet
  facet normal -0.585254 -0.0926945 0.805534
    outer loop
      vertex 49.2249 46.75 2.52513
      vertex 49.1037 47.5148 2.52513
      vertex 48.2612 47.241 1.88148
    endloop
  endfacet
  facet normal -0.585255 -0.0926963 0.805533
    outer loop
      vertex 48.339 46.75 1.88148
      vertex 49.2249 46.75 2.52513
      vertex 48.2612 47.241 1.88148
    endloop
  endfacet
  facet normal -0.308647 -0.0488855 0.949919
    outer loop
      vertex 48.339 46.75 1.88148
      vertex 48.2612 47.241 1.88148
      vertex 47.2707 46.9192 1.54309
    endloop
  endfacet
  facet normal -0.368847 -0.723908 0.583017
    outer loop
      vertex 48.583 49.2729 3.41103
      vertex 47.7137 49.7159 3.41103
      vertex 47.5148 49.1037 2.52513
    endloop
  endfacet
  facet normal -0.148954 -0.940446 0.305572
    outer loop
      vertex 47.7137 49.7159 3.41103
      vertex 47.8182 50.0377 4.45248
      vertex 46.75 49.8685 3.41103
    endloop
  endfacet
  facet normal -0.148952 -0.940447 0.30557
    outer loop
      vertex 47.8182 50.0377 4.45248
      vertex 46.75 50.2069 4.45248
      vertex 46.75 49.8685 3.41103
    endloop
  endfacet
  facet normal -0.432273 -0.84839 0.305572
    outer loop
      vertex 48.583 49.2729 3.41103
      vertex 47.8182 50.0377 4.45248
      vertex 47.7137 49.7159 3.41103
    endloop
  endfacet
  facet normal 0.220971 -0.220966 0.949919
    outer loop
      vertex 4.31603 48.0355 1.88148
      vertex 4.80705 47.0718 1.54309
      vertex 4.92817 47.193 1.54309
    endloop
  endfacet
  facet normal 0.220967 -0.220968 0.949919
    outer loop
      vertex 4.80705 47.0718 1.54309
      vertex 4.31603 48.0355 1.88148
      vertex 3.9645 47.684 1.88148
    endloop
  endfacet
  facet normal 0.0488862 -0.308648 0.949919
    outer loop
      vertex 5.25 47.2975 1.54309
      vertex 5.25 48.339 1.88148
      vertex 5.08081 47.2707 1.54309
    endloop
  endfacet
  facet normal 0.000742927 -0.00145814 0.999999
    outer loop
      vertex 5.08081 47.2707 1.54309
      vertex 4.92817 47.193 1.54309
      vertex 2.01429 16.1564 1.5
    endloop
  endfacet
  facet normal -0.0488844 0.308648 0.949919
    outer loop
      vertex 46.9192 4.72928 1.54309
      vertex 46.75 4.70248 1.54309
      vertex 46.75 3.66103 1.88148
    endloop
  endfacet
  facet normal -0.00325264 0.0205366 0.999784
    outer loop
      vertex 46.75 4.70248 1.54309
      vertex 46.9192 4.72928 1.54309
      vertex 16.0857 1.94358 1.5
    endloop
  endfacet
  facet normal -0.14187 0.278435 0.949919
    outer loop
      vertex 47.241 3.7388 1.88148
      vertex 47.684 3.9645 1.88148
      vertex 47.0718 4.80705 1.54309
    endloop
  endfacet
  facet normal -0.269012 0.527966 0.805534
    outer loop
      vertex 48.2047 3.24778 2.52513
      vertex 47.684 3.9645 1.88148
      vertex 47.241 3.7388 1.88148
    endloop
  endfacet
  facet normal -0.432275 0.84839 0.30557
    outer loop
      vertex 47.8182 1.96228 4.45248
      vertex 48.583 2.72706 3.41103
      vertex 47.7137 2.28411 3.41103
    endloop
  endfacet
  facet normal -0.127097 0.802456 0.583018
    outer loop
      vertex 47.5148 2.89625 2.52513
      vertex 46.75 2.77513 2.52513
      vertex 46.75 2.13148 3.41103
    endloop
  endfacet
  facet normal -0.452625 0.888327 0.0774962
    outer loop
      vertex 47.8316 1.9213 5
      vertex 48.8072 2.41844 5
      vertex 47.8182 1.96228 4.45248
    endloop
  endfacet
  facet normal -0.155964 0.984718 0.0774975
    outer loop
      vertex 47.8316 1.9213 5
      vertex 47.8182 1.96228 4.45248
      vertex 46.75 1.79309 4.45248
    endloop
  endfacet
  facet normal -0.0926953 0.585255 0.805534
    outer loop
      vertex 47.5148 2.89625 2.52513
      vertex 47.241 3.7388 1.88148
      vertex 46.75 2.77513 2.52513
    endloop
  endfacet
  facet normal -0.269013 0.527965 0.805534
    outer loop
      vertex 47.5148 2.89625 2.52513
      vertex 48.2047 3.24778 2.52513
      vertex 47.241 3.7388 1.88148
    endloop
  endfacet
  facet normal -0.141866 -0.278436 0.94992
    outer loop
      vertex 47.0718 47.193 1.54309
      vertex 47.241 48.2612 1.88148
      vertex 46.9192 47.2707 1.54309
    endloop
  endfacet
  facet normal -0.0488855 -0.308647 0.949919
    outer loop
      vertex 46.9192 47.2707 1.54309
      vertex 47.241 48.2612 1.88148
      vertex 46.75 48.339 1.88148
    endloop
  endfacet
  facet normal -0.155965 -0.984718 0.0774975
    outer loop
      vertex 47.8182 50.0377 4.45248
      vertex 47.8316 50.0787 5
      vertex 46.75 50.25 5
    endloop
  endfacet
  facet normal -0.452626 -0.888327 0.0774962
    outer loop
      vertex 48.8072 49.5816 5
      vertex 47.8316 50.0787 5
      vertex 47.8182 50.0377 4.45248
    endloop
  endfacet
  facet normal 0.278435 -0.141871 0.949919
    outer loop
      vertex 4.72928 46.9192 1.54309
      vertex 4.80705 47.0718 1.54309
      vertex 3.7388 47.241 1.88148
    endloop
  endfacet
  facet normal 0.00333393 -0.00169873 0.999993
    outer loop
      vertex 4.80705 47.0718 1.54309
      vertex 4.72928 46.9192 1.54309
      vertex 1.94358 16.0857 1.5
    endloop
  endfacet
  facet normal -0.000566283 -0.000566283 1
    outer loop
      vertex 47.0718 47.193 1.54309
      vertex 16.1564 2.01429 1.5
      vertex 47.193 47.0718 1.54309
    endloop
  endfacet
  facet normal -0.000566283 -0.000566283 1
    outer loop
      vertex 16.1564 2.01429 1.5
      vertex 47.0718 47.193 1.54309
      vertex 2.01429 16.1564 1.5
    endloop
  endfacet
  facet normal 0 0 1
    outer loop
      vertex 2.01429 16.1564 1.5
      vertex 16.0857 1.94358 1.5
      vertex 16.1564 2.01429 1.5
    endloop
  endfacet
  facet normal 0 0 1
    outer loop
      vertex 16.0857 1.94358 1.5
      vertex 2.01429 16.1564 1.5
      vertex 1.94358 16.0857 1.5
    endloop
  endfacet
  facet normal -0.432277 0.848389 0.305569
    outer loop
      vertex 48.7819 2.4533 4.45248
      vertex 48.583 2.72706 3.41103
      vertex 47.8182 1.96228 4.45248
    endloop
  endfacet
  facet normal -0.951056 -0.309017 0
    outer loop
      vertex 8 5 3
      vertex 7.42705 6.76336 41
      vertex 7.42705 6.76336 3
    endloop
  endfacet
  facet normal -0.951056 -0.309017 0
    outer loop
      vertex 7.42705 6.76336 41
      vertex 8 5 3
      vertex 8 5 41
    endloop
  endfacet
  facet normal 0.951057 0.309017 0
    outer loop
      vertex 2.57295 3.23664 41
      vertex 2 5 3
      vertex 2 5 41
    endloop
  endfacet
  facet normal 0.951057 0.309017 0
    outer loop
      vertex 2 5 3
      vertex 2.57295 3.23664 41
      vertex 2.57295 3.23664 3
    endloop
  endfacet
  facet normal 0 -1 0
    outer loop
      vertex 4.07295 7.85317 3
      vertex 5.92705 7.85317 41
      vertex 4.07295 7.85317 41
    endloop
  endfacet
  facet normal 0 -1 -0
    outer loop
      vertex 5.92705 7.85317 41
      vertex 4.07295 7.85317 3
      vertex 5.92705 7.85317 3
    endloop
  endfacet
  facet normal -0.587785 -0.809017 0
    outer loop
      vertex 5.92705 7.85317 3
      vertex 7.42705 6.76336 41
      vertex 5.92705 7.85317 41
    endloop
  endfacet
  facet normal -0.587785 -0.809017 -0
    outer loop
      vertex 7.42705 6.76336 41
      vertex 5.92705 7.85317 3
      vertex 7.42705 6.76336 3
    endloop
  endfacet
  facet normal 0.587785 -0.809017 0
    outer loop
      vertex 2.57295 6.76336 3
      vertex 4.07295 7.85317 41
      vertex 2.57295 6.76336 41
    endloop
  endfacet
  facet normal 0.587785 -0.809017 0
    outer loop
      vertex 4.07295 7.85317 41
      vertex 2.57295 6.76336 3
      vertex 4.07295 7.85317 3
    endloop
  endfacet
  facet normal -0.587785 0.809017 0
    outer loop
      vertex 7.42705 3.23664 3
      vertex 5.92705 2.14683 41
      vertex 7.42705 3.23664 41
    endloop
  endfacet
  facet normal -0.587785 0.809017 0
    outer loop
      vertex 5.92705 2.14683 41
      vertex 7.42705 3.23664 3
      vertex 5.92705 2.14683 3
    endloop
  endfacet
  facet normal 0.587785 0.809017 -0
    outer loop
      vertex 4.07295 2.14683 3
      vertex 2.57295 3.23664 41
      vertex 4.07295 2.14683 41
    endloop
  endfacet
  facet normal 0.587785 0.809017 0
    outer loop
      vertex 2.57295 3.23664 41
      vertex 4.07295 2.14683 3
      vertex 2.57295 3.23664 3
    endloop
  endfacet
  facet normal 0 0 1
    outer loop
      vertex 7.42705 6.76336 3
      vertex 7.42705 3.23664 3
      vertex 8 5 3
    endloop
  endfacet
  facet normal 0 0 1
    outer loop
      vertex 5.92705 7.85317 3
      vertex 7.42705 3.23664 3
      vertex 7.42705 6.76336 3
    endloop
  endfacet
  facet normal 0 0 1
    outer loop
      vertex 5.92705 7.85317 3
      vertex 5.92705 2.14683 3
      vertex 7.42705 3.23664 3
    endloop
  endfacet
  facet normal -0 0 1
    outer loop
      vertex 4.07295 7.85317 3
      vertex 5.92705 2.14683 3
      vertex 5.92705 7.85317 3
    endloop
  endfacet
  facet normal 0 0 1
    outer loop
      vertex 4.07295 7.85317 3
      vertex 4.07295 2.14683 3
      vertex 5.92705 2.14683 3
    endloop
  endfacet
  facet normal -0 0 1
    outer loop
      vertex 2.57295 6.76336 3
      vertex 4.07295 2.14683 3
      vertex 4.07295 7.85317 3
    endloop
  endfacet
  facet normal 0 0 1
    outer loop
      vertex 2.57295 6.76336 3
      vertex 2.57295 3.23664 3
      vertex 4.07295 2.14683 3
    endloop
  endfacet
  facet normal 0 -0 1
    outer loop
      vertex 2.57295 3.23664 3
      vertex 2.57295 6.76336 3
      vertex 2 5 3
    endloop
  endfacet
  facet normal 0.951057 -0.309017 0
    outer loop
      vertex 2 5 41
      vertex 2.57295 6.76336 3
      vertex 2.57295 6.76336 41
    endloop
  endfacet
  facet normal 0.951057 -0.309017 0
    outer loop
      vertex 2.57295 6.76336 3
      vertex 2 5 41
      vertex 2 5 3
    endloop
  endfacet
  facet normal 0 0 -1
    outer loop
      vertex 7.42705 3.23664 41
      vertex 7.42705 6.76336 41
      vertex 8 5 41
    endloop
  endfacet
  facet normal 0 0 -1
    outer loop
      vertex 5.92705 2.14683 41
      vertex 7.42705 6.76336 41
      vertex 7.42705 3.23664 41
    endloop
  endfacet
  facet normal 0 0 -1
    outer loop
      vertex 5.92705 2.14683 41
      vertex 5.92705 7.85317 41
      vertex 7.42705 6.76336 41
    endloop
  endfacet
  facet normal 0 0 -1
    outer loop
      vertex 4.07295 2.14683 41
      vertex 5.92705 7.85317 41
      vertex 5.92705 2.14683 41
    endloop
  endfacet
  facet normal 0 0 -1
    outer loop
      vertex 4.07295 2.14683 41
      vertex 4.07295 7.85317 41
      vertex 5.92705 7.85317 41
    endloop
  endfacet
  facet normal 0 0 -1
    outer loop
      vertex 2.57295 3.23664 41
      vertex 4.07295 7.85317 41
      vertex 4.07295 2.14683 41
    endloop
  endfacet
  facet normal 0 0 -1
    outer loop
      vertex 2.57295 3.23664 41
      vertex 2.57295 6.76336 41
      vertex 4.07295 7.85317 41
    endloop
  endfacet
  facet normal 0 -0 -1
    outer loop
      vertex 2.57295 6.76336 41
      vertex 2.57295 3.23664 41
      vertex 2 5 41
    endloop
  endfacet
  facet normal 0 1 -0
    outer loop
      vertex 5.92705 2.14683 3
      vertex 4.07295 2.14683 41
      vertex 5.92705 2.14683 41
    endloop
  endfacet
  facet normal 0 1 0
    outer loop
      vertex 4.07295 2.14683 41
      vertex 5.92705 2.14683 3
      vertex 4.07295 2.14683 3
    endloop
  endfacet
  facet normal -0.951056 0.309017 0
    outer loop
      vertex 7.42705 3.23664 3
      vertex 8 5 41
      vertex 8 5 3
    endloop
  endfacet
  facet normal -0.951056 0.309017 0
    outer loop
      vertex 8 5 41
      vertex 7.42705 3.23664 3
      vertex 7.42705 3.23664 41
    endloop
  endfacet
endsolid OpenSCAD_Model
