solid OpenSCAD_Model
  facet normal 0.649448 0.760406 -0
    outer loop
      vertex 28.2843 28.2843 0
      vertex 23.5114 32.3607 5
      vertex 28.2843 28.2843 5
    endloop
  endfacet
  facet normal 0.649448 0.760406 0
    outer loop
      vertex 23.5114 32.3607 5
      vertex 28.2843 28.2843 0
      vertex 23.5114 32.3607 0
    endloop
  endfacet
  facet normal 0.97237 -0.233446 0
    outer loop
      vertex 38.0423 -12.3607 5
      vertex 39.5075 -6.25738 0
      vertex 39.5075 -6.25738 5
    endloop
  endfacet
  facet normal 0.97237 -0.233446 0
    outer loop
      vertex 39.5075 -6.25738 0
      vertex 38.0423 -12.3607 5
      vertex 38.0423 -12.3607 0
    endloop
  endfacet
  facet normal -0.382684 -0.923879 0
    outer loop
      vertex -18.1596 -35.6403 0
      vertex -12.3607 -38.0423 5
      vertex -18.1596 -35.6403 5
    endloop
  endfacet
  facet normal -0.382684 -0.923879 -0
    outer loop
      vertex -12.3607 -38.0423 5
      vertex -18.1596 -35.6403 0
      vertex -12.3607 -38.0423 0
    endloop
  endfacet
  facet normal -0.382684 0.923879 0
    outer loop
      vertex -12.3607 38.0423 0
      vertex -18.1596 35.6403 5
      vertex -12.3607 38.0423 5
    endloop
  endfacet
  facet normal -0.382684 0.923879 0
    outer loop
      vertex -18.1596 35.6403 5
      vertex -12.3607 38.0423 0
      vertex -18.1596 35.6403 0
    endloop
  endfacet
  facet normal -0.85264 0.522498 0
    outer loop
      vertex -35.6403 18.1596 0
      vertex -32.3607 23.5114 5
      vertex -32.3607 23.5114 0
    endloop
  endfacet
  facet normal -0.85264 0.522498 0
    outer loop
      vertex -32.3607 23.5114 5
      vertex -35.6403 18.1596 0
      vertex -35.6403 18.1596 5
    endloop
  endfacet
  facet normal 0.649448 -0.760406 0
    outer loop
      vertex 23.5114 -32.3607 0
      vertex 28.2843 -28.2843 5
      vertex 23.5114 -32.3607 5
    endloop
  endfacet
  facet normal 0.649448 -0.760406 0
    outer loop
      vertex 28.2843 -28.2843 5
      vertex 23.5114 -32.3607 0
      vertex 28.2843 -28.2843 0
    endloop
  endfacet
  facet normal 0.923879 0.382684 0
    outer loop
      vertex 38.0423 12.3607 5
      vertex 35.6403 18.1596 0
      vertex 35.6403 18.1596 5
    endloop
  endfacet
  facet normal 0.923879 0.382684 0
    outer loop
      vertex 35.6403 18.1596 0
      vertex 38.0423 12.3607 5
      vertex 38.0423 12.3607 0
    endloop
  endfacet
  facet normal 0.85264 0.522498 0
    outer loop
      vertex 35.6403 18.1596 5
      vertex 32.3607 23.5114 0
      vertex 32.3607 23.5114 5
    endloop
  endfacet
  facet normal 0.85264 0.522498 0
    outer loop
      vertex 32.3607 23.5114 0
      vertex 35.6403 18.1596 5
      vertex 35.6403 18.1596 0
    endloop
  endfacet
  facet normal 0.760406 0.649448 0
    outer loop
      vertex 32.3607 23.5114 5
      vertex 28.2843 28.2843 0
      vertex 28.2843 28.2843 5
    endloop
  endfacet
  facet normal 0.760406 0.649448 0
    outer loop
      vertex 28.2843 28.2843 0
      vertex 32.3607 23.5114 5
      vertex 32.3607 23.5114 0
    endloop
  endfacet
  facet normal 0.522498 0.85264 -0
    outer loop
      vertex 23.5114 32.3607 0
      vertex 18.1596 35.6403 5
      vertex 23.5114 32.3607 5
    endloop
  endfacet
  facet normal 0.522498 0.85264 0
    outer loop
      vertex 18.1596 35.6403 5
      vertex 23.5114 32.3607 0
      vertex 18.1596 35.6403 0
    endloop
  endfacet
  facet normal -0.97237 0.233446 0
    outer loop
      vertex -39.5075 6.25738 0
      vertex -38.0423 12.3607 5
      vertex -38.0423 12.3607 0
    endloop
  endfacet
  facet normal -0.97237 0.233446 0
    outer loop
      vertex -38.0423 12.3607 5
      vertex -39.5075 6.25738 0
      vertex -39.5075 6.25738 5
    endloop
  endfacet
  facet normal -0.760406 0.649448 0
    outer loop
      vertex -32.3607 23.5114 0
      vertex -28.2843 28.2843 5
      vertex -28.2843 28.2843 0
    endloop
  endfacet
  facet normal -0.760406 0.649448 0
    outer loop
      vertex -28.2843 28.2843 5
      vertex -32.3607 23.5114 0
      vertex -32.3607 23.5114 5
    endloop
  endfacet
  facet normal -0.522498 0.85264 0
    outer loop
      vertex -18.1596 35.6403 0
      vertex -23.5114 32.3607 5
      vertex -18.1596 35.6403 5
    endloop
  endfacet
  facet normal -0.522498 0.85264 0
    outer loop
      vertex -23.5114 32.3607 5
      vertex -18.1596 35.6403 0
      vertex -23.5114 32.3607 0
    endloop
  endfacet
  facet normal -0.233446 0.97237 0
    outer loop
      vertex -6.25738 39.5075 0
      vertex -12.3607 38.0423 5
      vertex -6.25738 39.5075 5
    endloop
  endfacet
  facet normal -0.233446 0.97237 0
    outer loop
      vertex -12.3607 38.0423 5
      vertex -6.25738 39.5075 0
      vertex -12.3607 38.0423 0
    endloop
  endfacet
  facet normal -0.649448 0.760406 0
    outer loop
      vertex -23.5114 32.3607 0
      vertex -28.2843 28.2843 5
      vertex -23.5114 32.3607 5
    endloop
  endfacet
  facet normal -0.649448 0.760406 0
    outer loop
      vertex -28.2843 28.2843 5
      vertex -23.5114 32.3607 0
      vertex -28.2843 28.2843 0
    endloop
  endfacet
  facet normal 0.996917 0.078459 0
    outer loop
      vertex 40 0 5
      vertex 39.5075 6.25738 0
      vertex 39.5075 6.25738 5
    endloop
  endfacet
  facet normal 0.996917 0.078459 0
    outer loop
      vertex 39.5075 6.25738 0
      vertex 40 0 5
      vertex 40 0 0
    endloop
  endfacet
  facet normal 0.923879 -0.382684 0
    outer loop
      vertex 35.6403 -18.1596 5
      vertex 38.0423 -12.3607 0
      vertex 38.0423 -12.3607 5
    endloop
  endfacet
  facet normal 0.923879 -0.382684 0
    outer loop
      vertex 38.0423 -12.3607 0
      vertex 35.6403 -18.1596 5
      vertex 35.6403 -18.1596 0
    endloop
  endfacet
  facet normal 0.382684 -0.923879 0
    outer loop
      vertex 12.3607 -38.0423 0
      vertex 18.1596 -35.6403 5
      vertex 12.3607 -38.0423 5
    endloop
  endfacet
  facet normal 0.382684 -0.923879 0
    outer loop
      vertex 18.1596 -35.6403 5
      vertex 12.3607 -38.0423 0
      vertex 18.1596 -35.6403 0
    endloop
  endfacet
  facet normal 0.522498 -0.85264 0
    outer loop
      vertex 18.1596 -35.6403 0
      vertex 23.5114 -32.3607 5
      vertex 18.1596 -35.6403 5
    endloop
  endfacet
  facet normal 0.522498 -0.85264 0
    outer loop
      vertex 23.5114 -32.3607 5
      vertex 18.1596 -35.6403 0
      vertex 23.5114 -32.3607 0
    endloop
  endfacet
  facet normal -0.233446 -0.97237 0
    outer loop
      vertex -12.3607 -38.0423 0
      vertex -6.25738 -39.5075 5
      vertex -12.3607 -38.0423 5
    endloop
  endfacet
  facet normal -0.233446 -0.97237 -0
    outer loop
      vertex -6.25738 -39.5075 5
      vertex -12.3607 -38.0423 0
      vertex -6.25738 -39.5075 0
    endloop
  endfacet
  facet normal -0.649448 -0.760406 0
    outer loop
      vertex -28.2843 -28.2843 0
      vertex -23.5114 -32.3607 5
      vertex -28.2843 -28.2843 5
    endloop
  endfacet
  facet normal -0.649448 -0.760406 -0
    outer loop
      vertex -23.5114 -32.3607 5
      vertex -28.2843 -28.2843 0
      vertex -23.5114 -32.3607 0
    endloop
  endfacet
  facet normal -0.85264 -0.522498 0
    outer loop
      vertex -32.3607 -23.5114 0
      vertex -35.6403 -18.1596 5
      vertex -35.6403 -18.1596 0
    endloop
  endfacet
  facet normal -0.85264 -0.522498 0
    outer loop
      vertex -35.6403 -18.1596 5
      vertex -32.3607 -23.5114 0
      vertex -32.3607 -23.5114 5
    endloop
  endfacet
  facet normal -0.97237 -0.233446 0
    outer loop
      vertex -38.0423 -12.3607 0
      vertex -39.5075 -6.25738 5
      vertex -39.5075 -6.25738 0
    endloop
  endfacet
  facet normal -0.97237 -0.233446 0
    outer loop
      vertex -39.5075 -6.25738 5
      vertex -38.0423 -12.3607 0
      vertex -38.0423 -12.3607 5
    endloop
  endfacet
  facet normal 0 0 -1
    outer loop
      vertex 26 0 0
      vertex 40 0 0
      vertex 39.5075 -6.25738 0
    endloop
  endfacet
  facet normal 0 0 -1
    outer loop
      vertex 25.6799 -4.0673 0
      vertex 39.5075 -6.25738 0
      vertex 38.0423 -12.3607 0
    endloop
  endfacet
  facet normal 0 0 -1
    outer loop
      vertex 40 0 0
      vertex 26 0 0
      vertex 39.5075 6.25738 0
    endloop
  endfacet
  facet normal 0 0 -1
    outer loop
      vertex 24.7275 -8.03444 0
      vertex 38.0423 -12.3607 0
      vertex 35.6403 -18.1596 0
    endloop
  endfacet
  facet normal 0 0 -1
    outer loop
      vertex 25.6799 4.0673 0
      vertex 39.5075 6.25738 0
      vertex 26 0 0
    endloop
  endfacet
  facet normal 0 0 -1
    outer loop
      vertex 23.1662 -11.8038 0
      vertex 35.6403 -18.1596 0
      vertex 32.3607 -23.5114 0
    endloop
  endfacet
  facet normal -0 0 -1
    outer loop
      vertex 39.5075 6.25738 0
      vertex 25.6799 4.0673 0
      vertex 38.0423 12.3607 0
    endloop
  endfacet
  facet normal 0 0 -1
    outer loop
      vertex 21.0344 -15.2824 0
      vertex 32.3607 -23.5114 0
      vertex 28.2843 -28.2843 0
    endloop
  endfacet
  facet normal 0 0 -1
    outer loop
      vertex 24.7275 8.03444 0
      vertex 38.0423 12.3607 0
      vertex 25.6799 4.0673 0
    endloop
  endfacet
  facet normal -0 0 -1
    outer loop
      vertex 38.0423 12.3607 0
      vertex 24.7275 8.03444 0
      vertex 35.6403 18.1596 0
    endloop
  endfacet
  facet normal 0 0 -1
    outer loop
      vertex 39.5075 -6.25738 0
      vertex 25.6799 -4.0673 0
      vertex 26 0 0
    endloop
  endfacet
  facet normal 0 0 -1
    outer loop
      vertex 38.0423 -12.3607 0
      vertex 24.7275 -8.03444 0
      vertex 25.6799 -4.0673 0
    endloop
  endfacet
  facet normal 0 0 -1
    outer loop
      vertex 18.3848 -18.3848 0
      vertex 28.2843 -28.2843 0
      vertex 23.5114 -32.3607 0
    endloop
  endfacet
  facet normal 0 0 -1
    outer loop
      vertex 35.6403 -18.1596 0
      vertex 23.1662 -11.8038 0
      vertex 24.7275 -8.03444 0
    endloop
  endfacet
  facet normal 0 0 -1
    outer loop
      vertex 32.3607 -23.5114 0
      vertex 21.0344 -15.2824 0
      vertex 23.1662 -11.8038 0
    endloop
  endfacet
  facet normal 0 0 -1
    outer loop
      vertex 28.2843 -28.2843 0
      vertex 18.3848 -18.3848 0
      vertex 21.0344 -15.2824 0
    endloop
  endfacet
  facet normal 0 0 -1
    outer loop
      vertex 15.2824 -21.0344 0
      vertex 23.5114 -32.3607 0
      vertex 18.1596 -35.6403 0
    endloop
  endfacet
  facet normal 0 0 -1
    outer loop
      vertex 23.5114 -32.3607 0
      vertex 15.2824 -21.0344 0
      vertex 18.3848 -18.3848 0
    endloop
  endfacet
  facet normal 0 0 -1
    outer loop
      vertex 11.8038 -23.1662 0
      vertex 18.1596 -35.6403 0
      vertex 12.3607 -38.0423 0
    endloop
  endfacet
  facet normal 0 0 -1
    outer loop
      vertex 18.1596 -35.6403 0
      vertex 11.8038 -23.1662 0
      vertex 15.2824 -21.0344 0
    endloop
  endfacet
  facet normal 0 0 -1
    outer loop
      vertex 12.3607 -38.0423 0
      vertex 8.03444 -24.7275 0
      vertex 11.8038 -23.1662 0
    endloop
  endfacet
  facet normal 0 0 -1
    outer loop
      vertex 6.25738 -39.5075 0
      vertex 8.03444 -24.7275 0
      vertex 12.3607 -38.0423 0
    endloop
  endfacet
  facet normal 0 0 -1
    outer loop
      vertex 6.25738 -39.5075 0
      vertex 4.0673 -25.6799 0
      vertex 8.03444 -24.7275 0
    endloop
  endfacet
  facet normal 0 0 -1
    outer loop
      vertex 0 -40 0
      vertex 4.0673 -25.6799 0
      vertex 6.25738 -39.5075 0
    endloop
  endfacet
  facet normal 0 0 -1
    outer loop
      vertex 0 -40 0
      vertex 0 -26 0
      vertex 4.0673 -25.6799 0
    endloop
  endfacet
  facet normal 0 0 -1
    outer loop
      vertex 0 -40 0
      vertex -4.0673 -25.6799 0
      vertex 0 -26 0
    endloop
  endfacet
  facet normal 0 0 -1
    outer loop
      vertex -6.25738 -39.5075 0
      vertex -4.0673 -25.6799 0
      vertex 0 -40 0
    endloop
  endfacet
  facet normal 0 0 -1
    outer loop
      vertex -6.25738 -39.5075 0
      vertex -8.03444 -24.7275 0
      vertex -4.0673 -25.6799 0
    endloop
  endfacet
  facet normal 0 0 -1
    outer loop
      vertex -12.3607 -38.0423 0
      vertex -8.03444 -24.7275 0
      vertex -6.25738 -39.5075 0
    endloop
  endfacet
  facet normal -0 0 -1
    outer loop
      vertex -8.03444 -24.7275 0
      vertex -12.3607 -38.0423 0
      vertex -11.8038 -23.1662 0
    endloop
  endfacet
  facet normal 0 0 -1
    outer loop
      vertex -18.1596 -35.6403 0
      vertex -11.8038 -23.1662 0
      vertex -12.3607 -38.0423 0
    endloop
  endfacet
  facet normal -0 0 -1
    outer loop
      vertex -11.8038 -23.1662 0
      vertex -18.1596 -35.6403 0
      vertex -15.2824 -21.0344 0
    endloop
  endfacet
  facet normal 0 0 -1
    outer loop
      vertex -23.5114 -32.3607 0
      vertex -15.2824 -21.0344 0
      vertex -18.1596 -35.6403 0
    endloop
  endfacet
  facet normal -0 0 -1
    outer loop
      vertex -15.2824 -21.0344 0
      vertex -23.5114 -32.3607 0
      vertex -18.3848 -18.3848 0
    endloop
  endfacet
  facet normal 0 0 -1
    outer loop
      vertex -28.2843 -28.2843 0
      vertex -18.3848 -18.3848 0
      vertex -23.5114 -32.3607 0
    endloop
  endfacet
  facet normal -0 0 -1
    outer loop
      vertex -18.3848 -18.3848 0
      vertex -28.2843 -28.2843 0
      vertex -21.0344 -15.2824 0
    endloop
  endfacet
  facet normal 0 0 -1
    outer loop
      vertex -32.3607 -23.5114 0
      vertex -21.0344 -15.2824 0
      vertex -28.2843 -28.2843 0
    endloop
  endfacet
  facet normal -0 0 -1
    outer loop
      vertex -21.0344 -15.2824 0
      vertex -32.3607 -23.5114 0
      vertex -23.1662 -11.8038 0
    endloop
  endfacet
  facet normal 0 0 -1
    outer loop
      vertex -35.6403 -18.1596 0
      vertex -23.1662 -11.8038 0
      vertex -32.3607 -23.5114 0
    endloop
  endfacet
  facet normal -0 0 -1
    outer loop
      vertex -23.1662 -11.8038 0
      vertex -35.6403 -18.1596 0
      vertex -24.7275 -8.03444 0
    endloop
  endfacet
  facet normal 0 0 -1
    outer loop
      vertex 23.1662 11.8038 0
      vertex 35.6403 18.1596 0
      vertex 24.7275 8.03444 0
    endloop
  endfacet
  facet normal -0 0 -1
    outer loop
      vertex 35.6403 18.1596 0
      vertex 23.1662 11.8038 0
      vertex 32.3607 23.5114 0
    endloop
  endfacet
  facet normal 0 0 -1
    outer loop
      vertex 21.0344 15.2824 0
      vertex 32.3607 23.5114 0
      vertex 23.1662 11.8038 0
    endloop
  endfacet
  facet normal -0 0 -1
    outer loop
      vertex 32.3607 23.5114 0
      vertex 21.0344 15.2824 0
      vertex 28.2843 28.2843 0
    endloop
  endfacet
  facet normal 0 0 -1
    outer loop
      vertex 18.3848 18.3848 0
      vertex 28.2843 28.2843 0
      vertex 21.0344 15.2824 0
    endloop
  endfacet
  facet normal -0 0 -1
    outer loop
      vertex 28.2843 28.2843 0
      vertex 18.3848 18.3848 0
      vertex 23.5114 32.3607 0
    endloop
  endfacet
  facet normal 0 0 -1
    outer loop
      vertex 15.2824 21.0344 0
      vertex 23.5114 32.3607 0
      vertex 18.3848 18.3848 0
    endloop
  endfacet
  facet normal -0 0 -1
    outer loop
      vertex 23.5114 32.3607 0
      vertex 15.2824 21.0344 0
      vertex 18.1596 35.6403 0
    endloop
  endfacet
  facet normal 0 0 -1
    outer loop
      vertex 11.8038 23.1662 0
      vertex 18.1596 35.6403 0
      vertex 15.2824 21.0344 0
    endloop
  endfacet
  facet normal -0 0 -1
    outer loop
      vertex 18.1596 35.6403 0
      vertex 11.8038 23.1662 0
      vertex 12.3607 38.0423 0
    endloop
  endfacet
  facet normal 0 0 -1
    outer loop
      vertex 8.03444 24.7275 0
      vertex 12.3607 38.0423 0
      vertex 11.8038 23.1662 0
    endloop
  endfacet
  facet normal 0 0 -1
    outer loop
      vertex 8.03444 24.7275 0
      vertex 6.25738 39.5075 0
      vertex 12.3607 38.0423 0
    endloop
  endfacet
  facet normal 0 0 -1
    outer loop
      vertex 4.0673 25.6799 0
      vertex 6.25738 39.5075 0
      vertex 8.03444 24.7275 0
    endloop
  endfacet
  facet normal 0 0 -1
    outer loop
      vertex 0 26 0
      vertex 6.25738 39.5075 0
      vertex 4.0673 25.6799 0
    endloop
  endfacet
  facet normal 0 0 -1
    outer loop
      vertex 0 26 0
      vertex 0 40 0
      vertex 6.25738 39.5075 0
    endloop
  endfacet
  facet normal 0 0 -1
    outer loop
      vertex -4.0673 25.6799 0
      vertex 0 40 0
      vertex 0 26 0
    endloop
  endfacet
  facet normal 0 0 -1
    outer loop
      vertex -4.0673 25.6799 0
      vertex -6.25738 39.5075 0
      vertex 0 40 0
    endloop
  endfacet
  facet normal 0 0 -1
    outer loop
      vertex -8.03444 24.7275 0
      vertex -6.25738 39.5075 0
      vertex -4.0673 25.6799 0
    endloop
  endfacet
  facet normal 0 0 -1
    outer loop
      vertex -12.3607 38.0423 0
      vertex -8.03444 24.7275 0
      vertex -11.8038 23.1662 0
    endloop
  endfacet
  facet normal 0 0 -1
    outer loop
      vertex -8.03444 24.7275 0
      vertex -12.3607 38.0423 0
      vertex -6.25738 39.5075 0
    endloop
  endfacet
  facet normal 0 0 -1
    outer loop
      vertex -18.1596 35.6403 0
      vertex -11.8038 23.1662 0
      vertex -15.2824 21.0344 0
    endloop
  endfacet
  facet normal 0 0 -1
    outer loop
      vertex -11.8038 23.1662 0
      vertex -18.1596 35.6403 0
      vertex -12.3607 38.0423 0
    endloop
  endfacet
  facet normal 0 0 -1
    outer loop
      vertex -23.5114 32.3607 0
      vertex -15.2824 21.0344 0
      vertex -18.3848 18.3848 0
    endloop
  endfacet
  facet normal 0 0 -1
    outer loop
      vertex -28.2843 28.2843 0
      vertex -18.3848 18.3848 0
      vertex -21.0344 15.2824 0
    endloop
  endfacet
  facet normal 0 0 -1
    outer loop
      vertex -32.3607 23.5114 0
      vertex -21.0344 15.2824 0
      vertex -23.1662 11.8038 0
    endloop
  endfacet
  facet normal 0 0 -1
    outer loop
      vertex -15.2824 21.0344 0
      vertex -23.5114 32.3607 0
      vertex -18.1596 35.6403 0
    endloop
  endfacet
  facet normal 0 0 -1
    outer loop
      vertex -35.6403 18.1596 0
      vertex -23.1662 11.8038 0
      vertex -24.7275 8.03444 0
    endloop
  endfacet
  facet normal 0 0 -1
    outer loop
      vertex -38.0423 12.3607 0
      vertex -24.7275 8.03444 0
      vertex -25.6799 4.0673 0
    endloop
  endfacet
  facet normal 0 0 -1
    outer loop
      vertex -39.5075 6.25738 0
      vertex -25.6799 4.0673 0
      vertex -26 0 0
    endloop
  endfacet
  facet normal 0 0 -1
    outer loop
      vertex -38.0423 -12.3607 0
      vertex -24.7275 -8.03444 0
      vertex -35.6403 -18.1596 0
    endloop
  endfacet
  facet normal 0 0 -1
    outer loop
      vertex -18.3848 18.3848 0
      vertex -28.2843 28.2843 0
      vertex -23.5114 32.3607 0
    endloop
  endfacet
  facet normal -0 0 -1
    outer loop
      vertex -24.7275 -8.03444 0
      vertex -38.0423 -12.3607 0
      vertex -25.6799 -4.0673 0
    endloop
  endfacet
  facet normal 0 0 -1
    outer loop
      vertex -21.0344 15.2824 0
      vertex -32.3607 23.5114 0
      vertex -28.2843 28.2843 0
    endloop
  endfacet
  facet normal 0 0 -1
    outer loop
      vertex -39.5075 -6.25738 0
      vertex -25.6799 -4.0673 0
      vertex -38.0423 -12.3607 0
    endloop
  endfacet
  facet normal 0 0 -1
    outer loop
      vertex -23.1662 11.8038 0
      vertex -35.6403 18.1596 0
      vertex -32.3607 23.5114 0
    endloop
  endfacet
  facet normal -0 0 -1
    outer loop
      vertex -25.6799 -4.0673 0
      vertex -39.5075 -6.25738 0
      vertex -26 0 0
    endloop
  endfacet
  facet normal 0 0 -1
    outer loop
      vertex -24.7275 8.03444 0
      vertex -38.0423 12.3607 0
      vertex -35.6403 18.1596 0
    endloop
  endfacet
  facet normal 0 0 -1
    outer loop
      vertex -40 0 0
      vertex -26 0 0
      vertex -39.5075 -6.25738 0
    endloop
  endfacet
  facet normal 0 0 -1
    outer loop
      vertex -25.6799 4.0673 0
      vertex -39.5075 6.25738 0
      vertex -38.0423 12.3607 0
    endloop
  endfacet
  facet normal 0 0 -1
    outer loop
      vertex -26 0 0
      vertex -40 0 0
      vertex -39.5075 6.25738 0
    endloop
  endfacet
  facet normal -0.760406 -0.649448 0
    outer loop
      vertex -28.2843 -28.2843 0
      vertex -32.3607 -23.5114 5
      vertex -32.3607 -23.5114 0
    endloop
  endfacet
  facet normal -0.760406 -0.649448 0
    outer loop
      vertex -32.3607 -23.5114 5
      vertex -28.2843 -28.2843 0
      vertex -28.2843 -28.2843 5
    endloop
  endfacet
  facet normal 0.97237 0.233446 0
    outer loop
      vertex 39.5075 6.25738 5
      vertex 38.0423 12.3607 0
      vertex 38.0423 12.3607 5
    endloop
  endfacet
  facet normal 0.97237 0.233446 0
    outer loop
      vertex 38.0423 12.3607 0
      vertex 39.5075 6.25738 5
      vertex 39.5075 6.25738 0
    endloop
  endfacet
  facet normal 0.078459 0.996917 -0
    outer loop
      vertex 6.25738 39.5075 0
      vertex 0 40 5
      vertex 6.25738 39.5075 5
    endloop
  endfacet
  facet normal 0.078459 0.996917 0
    outer loop
      vertex 0 40 5
      vertex 6.25738 39.5075 0
      vertex 0 40 0
    endloop
  endfacet
  facet normal 0.382684 0.923879 -0
    outer loop
      vertex 18.1596 35.6403 0
      vertex 12.3607 38.0423 5
      vertex 18.1596 35.6403 5
    endloop
  endfacet
  facet normal 0.382684 0.923879 0
    outer loop
      vertex 12.3607 38.0423 5
      vertex 18.1596 35.6403 0
      vertex 12.3607 38.0423 0
    endloop
  endfacet
  facet normal -0.996917 0.078459 0
    outer loop
      vertex -40 0 0
      vertex -39.5075 6.25738 5
      vertex -39.5075 6.25738 0
    endloop
  endfacet
  facet normal -0.996917 0.078459 0
    outer loop
      vertex -39.5075 6.25738 5
      vertex -40 0 0
      vertex -40 0 5
    endloop
  endfacet
  facet normal -0.923879 0.382684 0
    outer loop
      vertex -38.0423 12.3607 0
      vertex -35.6403 18.1596 5
      vertex -35.6403 18.1596 0
    endloop
  endfacet
  facet normal -0.923879 0.382684 0
    outer loop
      vertex -35.6403 18.1596 5
      vertex -38.0423 12.3607 0
      vertex -38.0423 12.3607 5
    endloop
  endfacet
  facet normal -0.078459 0.996917 0
    outer loop
      vertex 0 40 0
      vertex -6.25738 39.5075 5
      vertex 0 40 5
    endloop
  endfacet
  facet normal -0.078459 0.996917 0
    outer loop
      vertex -6.25738 39.5075 5
      vertex 0 40 0
      vertex -6.25738 39.5075 0
    endloop
  endfacet
  facet normal 0.996917 -0.078459 0
    outer loop
      vertex 39.5075 -6.25738 5
      vertex 40 0 0
      vertex 40 0 5
    endloop
  endfacet
  facet normal 0.996917 -0.078459 0
    outer loop
      vertex 40 0 0
      vertex 39.5075 -6.25738 5
      vertex 39.5075 -6.25738 0
    endloop
  endfacet
  facet normal 0.078459 -0.996917 0
    outer loop
      vertex 0 -40 0
      vertex 6.25738 -39.5075 5
      vertex 0 -40 5
    endloop
  endfacet
  facet normal 0.078459 -0.996917 0
    outer loop
      vertex 6.25738 -39.5075 5
      vertex 0 -40 0
      vertex 6.25738 -39.5075 0
    endloop
  endfacet
  facet normal 0.760406 -0.649448 0
    outer loop
      vertex 28.2843 -28.2843 5
      vertex 32.3607 -23.5114 0
      vertex 32.3607 -23.5114 5
    endloop
  endfacet
  facet normal 0.760406 -0.649448 0
    outer loop
      vertex 32.3607 -23.5114 0
      vertex 28.2843 -28.2843 5
      vertex 28.2843 -28.2843 0
    endloop
  endfacet
  facet normal 0.85264 -0.522498 0
    outer loop
      vertex 32.3607 -23.5114 5
      vertex 35.6403 -18.1596 0
      vertex 35.6403 -18.1596 5
    endloop
  endfacet
  facet normal 0.85264 -0.522498 0
    outer loop
      vertex 35.6403 -18.1596 0
      vertex 32.3607 -23.5114 5
      vertex 32.3607 -23.5114 0
    endloop
  endfacet
  facet normal 0.233446 -0.97237 0
    outer loop
      vertex 6.25738 -39.5075 0
      vertex 12.3607 -38.0423 5
      vertex 6.25738 -39.5075 5
    endloop
  endfacet
  facet normal 0.233446 -0.97237 0
    outer loop
      vertex 12.3607 -38.0423 5
      vertex 6.25738 -39.5075 0
      vertex 12.3607 -38.0423 0
    endloop
  endfacet
  facet normal -0.078459 -0.996917 0
    outer loop
      vertex -6.25738 -39.5075 0
      vertex 0 -40 5
      vertex -6.25738 -39.5075 5
    endloop
  endfacet
  facet normal -0.078459 -0.996917 -0
    outer loop
      vertex 0 -40 5
      vertex -6.25738 -39.5075 0
      vertex 0 -40 0
    endloop
  endfacet
  facet normal -0.522498 -0.85264 0
    outer loop
      vertex -23.5114 -32.3607 0
      vertex -18.1596 -35.6403 5
      vertex -23.5114 -32.3607 5
    endloop
  endfacet
  facet normal -0.522498 -0.85264 -0
    outer loop
      vertex -18.1596 -35.6403 5
      vertex -23.5114 -32.3607 0
      vertex -18.1596 -35.6403 0
    endloop
  endfacet
  facet normal -0.923879 -0.382684 0
    outer loop
      vertex -35.6403 -18.1596 0
      vertex -38.0423 -12.3607 5
      vertex -38.0423 -12.3607 0
    endloop
  endfacet
  facet normal -0.923879 -0.382684 0
    outer loop
      vertex -38.0423 -12.3607 5
      vertex -35.6403 -18.1596 0
      vertex -35.6403 -18.1596 5
    endloop
  endfacet
  facet normal -0.996917 -0.078459 0
    outer loop
      vertex -39.5075 -6.25738 0
      vertex -40 0 5
      vertex -40 0 0
    endloop
  endfacet
  facet normal -0.996917 -0.078459 0
    outer loop
      vertex -40 0 5
      vertex -39.5075 -6.25738 0
      vertex -39.5075 -6.25738 5
    endloop
  endfacet
  facet normal 0.233446 0.97237 -0
    outer loop
      vertex 12.3607 38.0423 0
      vertex 6.25738 39.5075 5
      vertex 12.3607 38.0423 5
    endloop
  endfacet
  facet normal 0.233446 0.97237 0
    outer loop
      vertex 6.25738 39.5075 5
      vertex 12.3607 38.0423 0
      vertex 6.25738 39.5075 0
    endloop
  endfacet
  facet normal 0 0 1
    outer loop
      vertex 31 0 5
      vertex 40 0 5
      vertex 39.5075 6.25738 5
    endloop
  endfacet
  facet normal 0 0 1
    outer loop
      vertex 30.6183 4.84947 5
      vertex 39.5075 6.25738 5
      vertex 38.0423 12.3607 5
    endloop
  endfacet
  facet normal 0 0 1
    outer loop
      vertex 40 0 5
      vertex 31 0 5
      vertex 39.5075 -6.25738 5
    endloop
  endfacet
  facet normal 0 0 1
    outer loop
      vertex 29.4828 9.57953 5
      vertex 38.0423 12.3607 5
      vertex 35.6403 18.1596 5
    endloop
  endfacet
  facet normal -0 0 1
    outer loop
      vertex 30.6183 -4.84947 5
      vertex 39.5075 -6.25738 5
      vertex 31 0 5
    endloop
  endfacet
  facet normal 0 0 1
    outer loop
      vertex 27.6212 14.0737 5
      vertex 35.6403 18.1596 5
      vertex 32.3607 23.5114 5
    endloop
  endfacet
  facet normal 0 0 1
    outer loop
      vertex 39.5075 -6.25738 5
      vertex 30.6183 -4.84947 5
      vertex 38.0423 -12.3607 5
    endloop
  endfacet
  facet normal -0 0 1
    outer loop
      vertex 29.4828 -9.57953 5
      vertex 38.0423 -12.3607 5
      vertex 30.6183 -4.84947 5
    endloop
  endfacet
  facet normal 0 0 1
    outer loop
      vertex 39.5075 6.25738 5
      vertex 30.6183 4.84947 5
      vertex 31 0 5
    endloop
  endfacet
  facet normal 0 0 1
    outer loop
      vertex 38.0423 12.3607 5
      vertex 29.4828 9.57953 5
      vertex 30.6183 4.84947 5
    endloop
  endfacet
  facet normal 0 0 1
    outer loop
      vertex 25.0795 18.2213 5
      vertex 32.3607 23.5114 5
      vertex 28.2843 28.2843 5
    endloop
  endfacet
  facet normal 0 0 1
    outer loop
      vertex 35.6403 18.1596 5
      vertex 27.6212 14.0737 5
      vertex 29.4828 9.57953 5
    endloop
  endfacet
  facet normal 0 0 1
    outer loop
      vertex 32.3607 23.5114 5
      vertex 25.0795 18.2213 5
      vertex 27.6212 14.0737 5
    endloop
  endfacet
  facet normal 0 0 1
    outer loop
      vertex 21.9203 21.9203 5
      vertex 28.2843 28.2843 5
      vertex 23.5114 32.3607 5
    endloop
  endfacet
  facet normal 0 0 1
    outer loop
      vertex 28.2843 28.2843 5
      vertex 21.9203 21.9203 5
      vertex 25.0795 18.2213 5
    endloop
  endfacet
  facet normal 0 0 1
    outer loop
      vertex 23.5114 32.3607 5
      vertex 18.2213 25.0795 5
      vertex 21.9203 21.9203 5
    endloop
  endfacet
  facet normal 0 0 1
    outer loop
      vertex 18.1596 35.6403 5
      vertex 18.2213 25.0795 5
      vertex 23.5114 32.3607 5
    endloop
  endfacet
  facet normal 0 0 1
    outer loop
      vertex 18.1596 35.6403 5
      vertex 14.0737 27.6212 5
      vertex 18.2213 25.0795 5
    endloop
  endfacet
  facet normal 0 0 1
    outer loop
      vertex 12.3607 38.0423 5
      vertex 14.0737 27.6212 5
      vertex 18.1596 35.6403 5
    endloop
  endfacet
  facet normal 0 0 1
    outer loop
      vertex 12.3607 38.0423 5
      vertex 9.57953 29.4828 5
      vertex 14.0737 27.6212 5
    endloop
  endfacet
  facet normal 0 0 1
    outer loop
      vertex 6.25738 39.5075 5
      vertex 9.57953 29.4828 5
      vertex 12.3607 38.0423 5
    endloop
  endfacet
  facet normal 0 0 1
    outer loop
      vertex 6.25738 39.5075 5
      vertex 4.84947 30.6183 5
      vertex 9.57953 29.4828 5
    endloop
  endfacet
  facet normal 0 0 1
    outer loop
      vertex 0 40 5
      vertex 4.84947 30.6183 5
      vertex 6.25738 39.5075 5
    endloop
  endfacet
  facet normal 0 0 1
    outer loop
      vertex 0 40 5
      vertex 0 31 5
      vertex 4.84947 30.6183 5
    endloop
  endfacet
  facet normal 0 0 1
    outer loop
      vertex 0 40 5
      vertex -4.84947 30.6183 5
      vertex 0 31 5
    endloop
  endfacet
  facet normal -0 0 1
    outer loop
      vertex -6.25738 39.5075 5
      vertex -4.84947 30.6183 5
      vertex 0 40 5
    endloop
  endfacet
  facet normal 0 0 1
    outer loop
      vertex -6.25738 39.5075 5
      vertex -9.57953 29.4828 5
      vertex -4.84947 30.6183 5
    endloop
  endfacet
  facet normal -0 0 1
    outer loop
      vertex -12.3607 38.0423 5
      vertex -9.57953 29.4828 5
      vertex -6.25738 39.5075 5
    endloop
  endfacet
  facet normal 0 0 1
    outer loop
      vertex -12.3607 38.0423 5
      vertex -14.0737 27.6212 5
      vertex -9.57953 29.4828 5
    endloop
  endfacet
  facet normal -0 0 1
    outer loop
      vertex -18.1596 35.6403 5
      vertex -14.0737 27.6212 5
      vertex -12.3607 38.0423 5
    endloop
  endfacet
  facet normal 0 0 1
    outer loop
      vertex -18.1596 35.6403 5
      vertex -18.2213 25.0795 5
      vertex -14.0737 27.6212 5
    endloop
  endfacet
  facet normal -0 0 1
    outer loop
      vertex -23.5114 32.3607 5
      vertex -18.2213 25.0795 5
      vertex -18.1596 35.6403 5
    endloop
  endfacet
  facet normal 0 0 1
    outer loop
      vertex -18.2213 25.0795 5
      vertex -23.5114 32.3607 5
      vertex -21.9203 21.9203 5
    endloop
  endfacet
  facet normal -0 0 1
    outer loop
      vertex -28.2843 28.2843 5
      vertex -21.9203 21.9203 5
      vertex -23.5114 32.3607 5
    endloop
  endfacet
  facet normal 0 0 1
    outer loop
      vertex -21.9203 21.9203 5
      vertex -28.2843 28.2843 5
      vertex -25.0795 18.2213 5
    endloop
  endfacet
  facet normal -0 0 1
    outer loop
      vertex -32.3607 23.5114 5
      vertex -25.0795 18.2213 5
      vertex -28.2843 28.2843 5
    endloop
  endfacet
  facet normal 0 0 1
    outer loop
      vertex -25.0795 18.2213 5
      vertex -32.3607 23.5114 5
      vertex -27.6212 14.0737 5
    endloop
  endfacet
  facet normal -0 0 1
    outer loop
      vertex -35.6403 18.1596 5
      vertex -27.6212 14.0737 5
      vertex -32.3607 23.5114 5
    endloop
  endfacet
  facet normal -0 0 1
    outer loop
      vertex -38.0423 12.3607 5
      vertex -29.4828 9.57953 5
      vertex -35.6403 18.1596 5
    endloop
  endfacet
  facet normal 0 0 1
    outer loop
      vertex -27.6212 14.0737 5
      vertex -35.6403 18.1596 5
      vertex -29.4828 9.57953 5
    endloop
  endfacet
  facet normal 0 0 1
    outer loop
      vertex 38.0423 -12.3607 5
      vertex 29.4828 -9.57953 5
      vertex 35.6403 -18.1596 5
    endloop
  endfacet
  facet normal -0 0 1
    outer loop
      vertex 27.6212 -14.0737 5
      vertex 35.6403 -18.1596 5
      vertex 29.4828 -9.57953 5
    endloop
  endfacet
  facet normal 0 0 1
    outer loop
      vertex 35.6403 -18.1596 5
      vertex 27.6212 -14.0737 5
      vertex 32.3607 -23.5114 5
    endloop
  endfacet
  facet normal -0 0 1
    outer loop
      vertex 25.0795 -18.2213 5
      vertex 32.3607 -23.5114 5
      vertex 27.6212 -14.0737 5
    endloop
  endfacet
  facet normal 0 0 1
    outer loop
      vertex 32.3607 -23.5114 5
      vertex 25.0795 -18.2213 5
      vertex 28.2843 -28.2843 5
    endloop
  endfacet
  facet normal -0 0 1
    outer loop
      vertex 21.9203 -21.9203 5
      vertex 28.2843 -28.2843 5
      vertex 25.0795 -18.2213 5
    endloop
  endfacet
  facet normal 0 0 1
    outer loop
      vertex 28.2843 -28.2843 5
      vertex 21.9203 -21.9203 5
      vertex 23.5114 -32.3607 5
    endloop
  endfacet
  facet normal -0 0 1
    outer loop
      vertex 18.2213 -25.0795 5
      vertex 23.5114 -32.3607 5
      vertex 21.9203 -21.9203 5
    endloop
  endfacet
  facet normal 0 0 1
    outer loop
      vertex 18.2213 -25.0795 5
      vertex 18.1596 -35.6403 5
      vertex 23.5114 -32.3607 5
    endloop
  endfacet
  facet normal -0 0 1
    outer loop
      vertex 14.0737 -27.6212 5
      vertex 18.1596 -35.6403 5
      vertex 18.2213 -25.0795 5
    endloop
  endfacet
  facet normal 0 0 1
    outer loop
      vertex 14.0737 -27.6212 5
      vertex 12.3607 -38.0423 5
      vertex 18.1596 -35.6403 5
    endloop
  endfacet
  facet normal -0 0 1
    outer loop
      vertex 9.57953 -29.4828 5
      vertex 12.3607 -38.0423 5
      vertex 14.0737 -27.6212 5
    endloop
  endfacet
  facet normal 0 0 1
    outer loop
      vertex 9.57953 -29.4828 5
      vertex 6.25738 -39.5075 5
      vertex 12.3607 -38.0423 5
    endloop
  endfacet
  facet normal -0 0 1
    outer loop
      vertex 4.84947 -30.6183 5
      vertex 6.25738 -39.5075 5
      vertex 9.57953 -29.4828 5
    endloop
  endfacet
  facet normal -0 0 1
    outer loop
      vertex 0 -31 5
      vertex 6.25738 -39.5075 5
      vertex 4.84947 -30.6183 5
    endloop
  endfacet
  facet normal 0 0 1
    outer loop
      vertex 0 -31 5
      vertex 0 -40 5
      vertex 6.25738 -39.5075 5
    endloop
  endfacet
  facet normal 0 0 1
    outer loop
      vertex -4.84947 -30.6183 5
      vertex 0 -40 5
      vertex 0 -31 5
    endloop
  endfacet
  facet normal 0 0 1
    outer loop
      vertex -4.84947 -30.6183 5
      vertex -6.25738 -39.5075 5
      vertex 0 -40 5
    endloop
  endfacet
  facet normal 0 0 1
    outer loop
      vertex -9.57953 -29.4828 5
      vertex -6.25738 -39.5075 5
      vertex -4.84947 -30.6183 5
    endloop
  endfacet
  facet normal 0 0 1
    outer loop
      vertex -9.57953 -29.4828 5
      vertex -12.3607 -38.0423 5
      vertex -6.25738 -39.5075 5
    endloop
  endfacet
  facet normal 0 0 1
    outer loop
      vertex -14.0737 -27.6212 5
      vertex -12.3607 -38.0423 5
      vertex -9.57953 -29.4828 5
    endloop
  endfacet
  facet normal 0 0 1
    outer loop
      vertex -14.0737 -27.6212 5
      vertex -18.1596 -35.6403 5
      vertex -12.3607 -38.0423 5
    endloop
  endfacet
  facet normal 0 0 1
    outer loop
      vertex -18.2213 -25.0795 5
      vertex -18.1596 -35.6403 5
      vertex -14.0737 -27.6212 5
    endloop
  endfacet
  facet normal 0 0 1
    outer loop
      vertex -23.5114 -32.3607 5
      vertex -18.2213 -25.0795 5
      vertex -21.9203 -21.9203 5
    endloop
  endfacet
  facet normal 0 0 1
    outer loop
      vertex -18.2213 -25.0795 5
      vertex -23.5114 -32.3607 5
      vertex -18.1596 -35.6403 5
    endloop
  endfacet
  facet normal 0 0 1
    outer loop
      vertex -28.2843 -28.2843 5
      vertex -21.9203 -21.9203 5
      vertex -25.0795 -18.2213 5
    endloop
  endfacet
  facet normal 0 0 1
    outer loop
      vertex -32.3607 -23.5114 5
      vertex -25.0795 -18.2213 5
      vertex -27.6212 -14.0737 5
    endloop
  endfacet
  facet normal 0 0 1
    outer loop
      vertex -21.9203 -21.9203 5
      vertex -28.2843 -28.2843 5
      vertex -23.5114 -32.3607 5
    endloop
  endfacet
  facet normal 0 0 1
    outer loop
      vertex -35.6403 -18.1596 5
      vertex -27.6212 -14.0737 5
      vertex -29.4828 -9.57953 5
    endloop
  endfacet
  facet normal 0 0 1
    outer loop
      vertex -38.0423 -12.3607 5
      vertex -29.4828 -9.57953 5
      vertex -30.6183 -4.84947 5
    endloop
  endfacet
  facet normal 0 0 1
    outer loop
      vertex -25.0795 -18.2213 5
      vertex -32.3607 -23.5114 5
      vertex -28.2843 -28.2843 5
    endloop
  endfacet
  facet normal 0 0 1
    outer loop
      vertex -39.5075 -6.25738 5
      vertex -30.6183 -4.84947 5
      vertex -31 0 5
    endloop
  endfacet
  facet normal 0 0 1
    outer loop
      vertex -29.4828 9.57953 5
      vertex -38.0423 12.3607 5
      vertex -30.6183 4.84947 5
    endloop
  endfacet
  facet normal -0 0 1
    outer loop
      vertex -39.5075 6.25738 5
      vertex -30.6183 4.84947 5
      vertex -38.0423 12.3607 5
    endloop
  endfacet
  facet normal 0 0 1
    outer loop
      vertex -27.6212 -14.0737 5
      vertex -35.6403 -18.1596 5
      vertex -32.3607 -23.5114 5
    endloop
  endfacet
  facet normal 0 0 1
    outer loop
      vertex -30.6183 4.84947 5
      vertex -39.5075 6.25738 5
      vertex -31 0 5
    endloop
  endfacet
  facet normal 0 0 1
    outer loop
      vertex -29.4828 -9.57953 5
      vertex -38.0423 -12.3607 5
      vertex -35.6403 -18.1596 5
    endloop
  endfacet
  facet normal 0 0 1
    outer loop
      vertex -40 0 5
      vertex -31 0 5
      vertex -39.5075 6.25738 5
    endloop
  endfacet
  facet normal 0 0 1
    outer loop
      vertex -30.6183 -4.84947 5
      vertex -39.5075 -6.25738 5
      vertex -38.0423 -12.3607 5
    endloop
  endfacet
  facet normal 0 0 1
    outer loop
      vertex -31 0 5
      vertex -40 0 5
      vertex -39.5075 -6.25738 5
    endloop
  endfacet
  facet normal 0.996917 0.0784593 0
    outer loop
      vertex 31 0 45
      vertex 30.6183 4.84947 5
      vertex 30.6183 4.84947 45
    endloop
  endfacet
  facet normal 0.996917 0.0784593 0
    outer loop
      vertex 30.6183 4.84947 5
      vertex 31 0 45
      vertex 31 0 5
    endloop
  endfacet
  facet normal 0.923879 0.382684 0
    outer loop
      vertex 29.4828 9.57953 45
      vertex 27.6212 14.0737 5
      vertex 27.6212 14.0737 45
    endloop
  endfacet
  facet normal 0.923879 0.382684 0
    outer loop
      vertex 27.6212 14.0737 5
      vertex 29.4828 9.57953 45
      vertex 29.4828 9.57953 5
    endloop
  endfacet
  facet normal 0.85264 0.522499 0
    outer loop
      vertex 27.6212 14.0737 45
      vertex 25.0795 18.2213 5
      vertex 25.0795 18.2213 45
    endloop
  endfacet
  facet normal 0.85264 0.522499 0
    outer loop
      vertex 25.0795 18.2213 5
      vertex 27.6212 14.0737 45
      vertex 27.6212 14.0737 5
    endloop
  endfacet
  facet normal 0.699218 0.428481 0.572274
    outer loop
      vertex 25.0795 18.2213 45
      vertex 22.248 16.1641 50
      vertex 27.6212 14.0737 45
    endloop
  endfacet
  facet normal -0.623581 -0.532588 0.572274
    outer loop
      vertex -22.248 -16.1641 50
      vertex -25.0795 -18.2213 45
      vertex -21.9203 -21.9203 45
    endloop
  endfacet
  facet normal 0.817534 0.0643415 0.572274
    outer loop
      vertex 30.6183 4.84947 45
      vertex 27.5 0 50
      vertex 31 0 45
    endloop
  endfacet
  facet normal 0.532588 -0.623581 0.572274
    outer loop
      vertex 21.9203 -21.9203 45
      vertex 16.1641 -22.248 50
      vertex 18.2213 -25.0795 45
    endloop
  endfacet
  facet normal -0.0643415 -0.817534 0.572274
    outer loop
      vertex 0 -27.5 50
      vertex -4.84947 -30.6183 45
      vertex 0 -31 45
    endloop
  endfacet
  facet normal 0.233445 0.97237 -0
    outer loop
      vertex 9.57953 29.4828 5
      vertex 4.84947 30.6183 45
      vertex 9.57953 29.4828 45
    endloop
  endfacet
  facet normal 0.233445 0.97237 0
    outer loop
      vertex 4.84947 30.6183 45
      vertex 9.57953 29.4828 5
      vertex 4.84947 30.6183 5
    endloop
  endfacet
  facet normal -0.797404 0.19144 0.572274
    outer loop
      vertex -29.4828 9.57953 45
      vertex -30.6183 4.84947 45
      vertex -27.1614 4.30195 50
    endloop
  endfacet
  facet normal 0.382684 0.923879 -0
    outer loop
      vertex 14.0737 27.6212 5
      vertex 9.57953 29.4828 45
      vertex 14.0737 27.6212 45
    endloop
  endfacet
  facet normal 0.382684 0.923879 0
    outer loop
      vertex 9.57953 29.4828 45
      vertex 14.0737 27.6212 5
      vertex 9.57953 29.4828 5
    endloop
  endfacet
  facet normal -0.0643415 0.817534 0.572274
    outer loop
      vertex 0 27.5 50
      vertex -4.84947 30.6183 45
      vertex -4.30195 27.1614 50
    endloop
  endfacet
  facet normal 0.0784593 -0.996917 0
    outer loop
      vertex 0 -31 5
      vertex 4.84947 -30.6183 45
      vertex 0 -31 45
    endloop
  endfacet
  facet normal 0.0784593 -0.996917 0
    outer loop
      vertex 4.84947 -30.6183 45
      vertex 0 -31 5
      vertex 4.84947 -30.6183 5
    endloop
  endfacet
  facet normal 0.996917 -0.0784593 0
    outer loop
      vertex 30.6183 -4.84947 45
      vertex 31 0 5
      vertex 31 0 45
    endloop
  endfacet
  facet normal 0.996917 -0.0784593 0
    outer loop
      vertex 31 0 5
      vertex 30.6183 -4.84947 45
      vertex 30.6183 -4.84947 5
    endloop
  endfacet
  facet normal -0.923879 -0.382684 0
    outer loop
      vertex -27.6212 -14.0737 5
      vertex -29.4828 -9.57953 45
      vertex -29.4828 -9.57953 5
    endloop
  endfacet
  facet normal -0.923879 -0.382684 0
    outer loop
      vertex -29.4828 -9.57953 45
      vertex -27.6212 -14.0737 5
      vertex -27.6212 -14.0737 45
    endloop
  endfacet
  facet normal 0.97237 0.233445 0
    outer loop
      vertex 30.6183 4.84947 45
      vertex 29.4828 9.57953 5
      vertex 29.4828 9.57953 45
    endloop
  endfacet
  facet normal 0.97237 0.233445 0
    outer loop
      vertex 29.4828 9.57953 5
      vertex 30.6183 4.84947 45
      vertex 30.6183 4.84947 5
    endloop
  endfacet
  facet normal 0.760406 0.649448 0
    outer loop
      vertex 25.0795 18.2213 45
      vertex 21.9203 21.9203 5
      vertex 21.9203 21.9203 45
    endloop
  endfacet
  facet normal 0.760406 0.649448 0
    outer loop
      vertex 21.9203 21.9203 5
      vertex 25.0795 18.2213 45
      vertex 25.0795 18.2213 5
    endloop
  endfacet
  facet normal 0.0784593 0.996917 -0
    outer loop
      vertex 4.84947 30.6183 5
      vertex 0 31 45
      vertex 4.84947 30.6183 45
    endloop
  endfacet
  facet normal 0.0784593 0.996917 0
    outer loop
      vertex 0 31 45
      vertex 4.84947 30.6183 5
      vertex 0 31 5
    endloop
  endfacet
  facet normal 0.0643415 0.817534 0.572274
    outer loop
      vertex 0 31 45
      vertex 0 27.5 50
      vertex 4.84947 30.6183 45
    endloop
  endfacet
  facet normal 0.62358 0.532588 0.572274
    outer loop
      vertex 21.9203 21.9203 45
      vertex 19.4454 19.4454 50
      vertex 22.248 16.1641 50
    endloop
  endfacet
  facet normal 0.522499 0.85264 -0
    outer loop
      vertex 18.2213 25.0795 5
      vertex 14.0737 27.6212 45
      vertex 18.2213 25.0795 45
    endloop
  endfacet
  facet normal 0.522499 0.85264 0
    outer loop
      vertex 14.0737 27.6212 45
      vertex 18.2213 25.0795 5
      vertex 14.0737 27.6212 5
    endloop
  endfacet
  facet normal 0.817534 -0.0643415 0.572274
    outer loop
      vertex 31 0 45
      vertex 27.5 0 50
      vertex 30.6183 -4.84947 45
    endloop
  endfacet
  facet normal -0.649448 -0.760406 0
    outer loop
      vertex -21.9203 -21.9203 5
      vertex -18.2213 -25.0795 45
      vertex -21.9203 -21.9203 45
    endloop
  endfacet
  facet normal -0.649448 -0.760406 -0
    outer loop
      vertex -18.2213 -25.0795 45
      vertex -21.9203 -21.9203 5
      vertex -18.2213 -25.0795 5
    endloop
  endfacet
  facet normal 0.382684 -0.923879 0
    outer loop
      vertex 9.57953 -29.4828 5
      vertex 14.0737 -27.6212 45
      vertex 9.57953 -29.4828 45
    endloop
  endfacet
  facet normal 0.382684 -0.923879 0
    outer loop
      vertex 14.0737 -27.6212 45
      vertex 9.57953 -29.4828 5
      vertex 14.0737 -27.6212 5
    endloop
  endfacet
  facet normal 0.797404 0.19144 0.572274
    outer loop
      vertex 29.4828 9.57953 45
      vertex 26.1541 8.49797 50
      vertex 27.1614 4.30195 50
    endloop
  endfacet
  facet normal 0.623581 0.532588 0.572274
    outer loop
      vertex 25.0795 18.2213 45
      vertex 21.9203 21.9203 45
      vertex 22.248 16.1641 50
    endloop
  endfacet
  facet normal 0.313824 0.757639 0.572274
    outer loop
      vertex 9.57953 29.4828 45
      vertex 8.49797 26.1541 50
      vertex 12.4847 24.5027 50
    endloop
  endfacet
  facet normal 0.19144 0.797404 0.572274
    outer loop
      vertex 4.84947 30.6183 45
      vertex 4.30195 27.1614 50
      vertex 9.57953 29.4828 45
    endloop
  endfacet
  facet normal 0.313825 0.757639 0.572274
    outer loop
      vertex 14.0737 27.6212 45
      vertex 9.57953 29.4828 45
      vertex 12.4847 24.5027 50
    endloop
  endfacet
  facet normal 0.649448 0.760406 -0
    outer loop
      vertex 21.9203 21.9203 5
      vertex 18.2213 25.0795 45
      vertex 21.9203 21.9203 45
    endloop
  endfacet
  facet normal 0.649448 0.760406 0
    outer loop
      vertex 18.2213 25.0795 45
      vertex 21.9203 21.9203 5
      vertex 18.2213 25.0795 5
    endloop
  endfacet
  facet normal -0.923879 0.382684 0
    outer loop
      vertex -29.4828 9.57953 5
      vertex -27.6212 14.0737 45
      vertex -27.6212 14.0737 5
    endloop
  endfacet
  facet normal -0.923879 0.382684 0
    outer loop
      vertex -27.6212 14.0737 45
      vertex -29.4828 9.57953 5
      vertex -29.4828 9.57953 45
    endloop
  endfacet
  facet normal -0.0784593 0.996917 0
    outer loop
      vertex 0 31 5
      vertex -4.84947 30.6183 45
      vertex 0 31 45
    endloop
  endfacet
  facet normal -0.0784593 0.996917 0
    outer loop
      vertex -4.84947 30.6183 45
      vertex 0 31 5
      vertex -4.84947 30.6183 5
    endloop
  endfacet
  facet normal 0.760406 -0.649448 0
    outer loop
      vertex 21.9203 -21.9203 45
      vertex 25.0795 -18.2213 5
      vertex 25.0795 -18.2213 45
    endloop
  endfacet
  facet normal 0.760406 -0.649448 0
    outer loop
      vertex 25.0795 -18.2213 5
      vertex 21.9203 -21.9203 45
      vertex 21.9203 -21.9203 5
    endloop
  endfacet
  facet normal 0.62358 -0.532588 0.572274
    outer loop
      vertex 22.248 -16.1641 50
      vertex 19.4454 -19.4454 50
      vertex 21.9203 -21.9203 45
    endloop
  endfacet
  facet normal 0.313825 -0.757639 0.572274
    outer loop
      vertex 12.4847 -24.5027 50
      vertex 9.57953 -29.4828 45
      vertex 14.0737 -27.6212 45
    endloop
  endfacet
  facet normal -0.233445 -0.97237 0
    outer loop
      vertex -9.57953 -29.4828 5
      vertex -4.84947 -30.6183 45
      vertex -9.57953 -29.4828 45
    endloop
  endfacet
  facet normal -0.233445 -0.97237 -0
    outer loop
      vertex -4.84947 -30.6183 45
      vertex -9.57953 -29.4828 5
      vertex -4.84947 -30.6183 5
    endloop
  endfacet
  facet normal -0.532588 -0.62358 0.572274
    outer loop
      vertex -19.4454 -19.4454 50
      vertex -21.9203 -21.9203 45
      vertex -16.1641 -22.248 50
    endloop
  endfacet
  facet normal -0.797404 -0.19144 0.572274
    outer loop
      vertex -27.1614 -4.30195 50
      vertex -29.4828 -9.57953 45
      vertex -26.1541 -8.49797 50
    endloop
  endfacet
  facet normal -0.522499 -0.85264 0
    outer loop
      vertex -18.2213 -25.0795 5
      vertex -14.0737 -27.6212 45
      vertex -18.2213 -25.0795 45
    endloop
  endfacet
  facet normal -0.522499 -0.85264 -0
    outer loop
      vertex -14.0737 -27.6212 45
      vertex -18.2213 -25.0795 5
      vertex -14.0737 -27.6212 5
    endloop
  endfacet
  facet normal 0.0643415 -0.817534 0.572274
    outer loop
      vertex 4.30195 -27.1614 50
      vertex 0 -27.5 50
      vertex 4.84947 -30.6183 45
    endloop
  endfacet
  facet normal 0.233445 -0.97237 0
    outer loop
      vertex 4.84947 -30.6183 5
      vertex 9.57953 -29.4828 45
      vertex 4.84947 -30.6183 45
    endloop
  endfacet
  facet normal 0.233445 -0.97237 0
    outer loop
      vertex 9.57953 -29.4828 45
      vertex 4.84947 -30.6183 5
      vertex 9.57953 -29.4828 5
    endloop
  endfacet
  facet normal 0.97237 -0.233445 0
    outer loop
      vertex 29.4828 -9.57953 45
      vertex 30.6183 -4.84947 5
      vertex 30.6183 -4.84947 45
    endloop
  endfacet
  facet normal 0.97237 -0.233445 0
    outer loop
      vertex 30.6183 -4.84947 5
      vertex 29.4828 -9.57953 45
      vertex 29.4828 -9.57953 5
    endloop
  endfacet
  facet normal 0.699218 0.428481 0.572274
    outer loop
      vertex 27.6212 14.0737 45
      vertex 22.248 16.1641 50
      vertex 24.5027 12.4847 50
    endloop
  endfacet
  facet normal -0.233445 0.97237 0
    outer loop
      vertex -4.84947 30.6183 5
      vertex -9.57953 29.4828 45
      vertex -4.84947 30.6183 45
    endloop
  endfacet
  facet normal -0.233445 0.97237 0
    outer loop
      vertex -9.57953 29.4828 45
      vertex -4.84947 30.6183 5
      vertex -9.57953 29.4828 5
    endloop
  endfacet
  facet normal -0.313825 0.757639 0.572274
    outer loop
      vertex -9.57953 29.4828 45
      vertex -14.0737 27.6212 45
      vertex -12.4847 24.5027 50
    endloop
  endfacet
  facet normal 0.532588 0.623581 0.572274
    outer loop
      vertex 18.2213 25.0795 45
      vertex 16.1641 22.248 50
      vertex 21.9203 21.9203 45
    endloop
  endfacet
  facet normal -0.760406 0.649448 0
    outer loop
      vertex -25.0795 18.2213 5
      vertex -21.9203 21.9203 45
      vertex -21.9203 21.9203 5
    endloop
  endfacet
  facet normal -0.760406 0.649448 0
    outer loop
      vertex -21.9203 21.9203 45
      vertex -25.0795 18.2213 5
      vertex -25.0795 18.2213 45
    endloop
  endfacet
  facet normal -0.757639 0.313825 0.572274
    outer loop
      vertex -27.6212 14.0737 45
      vertex -29.4828 9.57953 45
      vertex -24.5027 12.4847 50
    endloop
  endfacet
  facet normal -0.699218 0.428481 0.572274
    outer loop
      vertex -22.248 16.1641 50
      vertex -27.6212 14.0737 45
      vertex -24.5027 12.4847 50
    endloop
  endfacet
  facet normal -0.97237 -0.233445 0
    outer loop
      vertex -29.4828 -9.57953 5
      vertex -30.6183 -4.84947 45
      vertex -30.6183 -4.84947 5
    endloop
  endfacet
  facet normal -0.97237 -0.233445 0
    outer loop
      vertex -30.6183 -4.84947 45
      vertex -29.4828 -9.57953 5
      vertex -29.4828 -9.57953 45
    endloop
  endfacet
  facet normal -0.817534 0.0643415 0.572274
    outer loop
      vertex -30.6183 4.84947 45
      vertex -31 0 45
      vertex -27.5 0 50
    endloop
  endfacet
  facet normal -0.817534 0.0643415 0.572274
    outer loop
      vertex -27.1614 4.30195 50
      vertex -30.6183 4.84947 45
      vertex -27.5 0 50
    endloop
  endfacet
  facet normal -0.996917 -0.0784593 0
    outer loop
      vertex -30.6183 -4.84947 5
      vertex -31 0 45
      vertex -31 0 5
    endloop
  endfacet
  facet normal -0.996917 -0.0784593 0
    outer loop
      vertex -31 0 45
      vertex -30.6183 -4.84947 5
      vertex -30.6183 -4.84947 45
    endloop
  endfacet
  facet normal -0.757639 0.313824 0.572274
    outer loop
      vertex -24.5027 12.4847 50
      vertex -29.4828 9.57953 45
      vertex -26.1541 8.49797 50
    endloop
  endfacet
  facet normal -0.532588 0.62358 0.572274
    outer loop
      vertex -16.1641 22.248 50
      vertex -21.9203 21.9203 45
      vertex -19.4454 19.4454 50
    endloop
  endfacet
  facet normal 0.757639 -0.313824 0.572274
    outer loop
      vertex 26.1541 -8.49797 50
      vertex 24.5027 -12.4847 50
      vertex 29.4828 -9.57953 45
    endloop
  endfacet
  facet normal -0.0784593 -0.996917 0
    outer loop
      vertex -4.84947 -30.6183 5
      vertex 0 -31 45
      vertex -4.84947 -30.6183 45
    endloop
  endfacet
  facet normal -0.0784593 -0.996917 -0
    outer loop
      vertex 0 -31 45
      vertex -4.84947 -30.6183 5
      vertex 0 -31 5
    endloop
  endfacet
  facet normal -0.428481 -0.699218 0.572274
    outer loop
      vertex -16.1641 -22.248 50
      vertex -18.2213 -25.0795 45
      vertex -14.0737 -27.6212 45
    endloop
  endfacet
  facet normal -0.382684 -0.923879 0
    outer loop
      vertex -14.0737 -27.6212 5
      vertex -9.57953 -29.4828 45
      vertex -14.0737 -27.6212 45
    endloop
  endfacet
  facet normal -0.382684 -0.923879 -0
    outer loop
      vertex -9.57953 -29.4828 45
      vertex -14.0737 -27.6212 5
      vertex -9.57953 -29.4828 5
    endloop
  endfacet
  facet normal 0.19144 -0.797404 0.572274
    outer loop
      vertex 9.57953 -29.4828 45
      vertex 4.30195 -27.1614 50
      vertex 4.84947 -30.6183 45
    endloop
  endfacet
  facet normal 0.0643415 -0.817534 0.572274
    outer loop
      vertex 0 -27.5 50
      vertex 0 -31 45
      vertex 4.84947 -30.6183 45
    endloop
  endfacet
  facet normal 0.522499 -0.85264 0
    outer loop
      vertex 14.0737 -27.6212 5
      vertex 18.2213 -25.0795 45
      vertex 14.0737 -27.6212 45
    endloop
  endfacet
  facet normal 0.522499 -0.85264 0
    outer loop
      vertex 18.2213 -25.0795 45
      vertex 14.0737 -27.6212 5
      vertex 18.2213 -25.0795 5
    endloop
  endfacet
  facet normal 0.313824 -0.757639 0.572274
    outer loop
      vertex 12.4847 -24.5027 50
      vertex 8.49797 -26.1541 50
      vertex 9.57953 -29.4828 45
    endloop
  endfacet
  facet normal 0.817534 -0.0643415 0.572274
    outer loop
      vertex 27.5 0 50
      vertex 27.1614 -4.30195 50
      vertex 30.6183 -4.84947 45
    endloop
  endfacet
  facet normal 0.797404 -0.19144 0.572274
    outer loop
      vertex 30.6183 -4.84947 45
      vertex 27.1614 -4.30195 50
      vertex 29.4828 -9.57953 45
    endloop
  endfacet
  facet normal 0.532588 0.62358 0.572274
    outer loop
      vertex 21.9203 21.9203 45
      vertex 16.1641 22.248 50
      vertex 19.4454 19.4454 50
    endloop
  endfacet
  facet normal 0.0643415 0.817534 0.572274
    outer loop
      vertex 4.84947 30.6183 45
      vertex 0 27.5 50
      vertex 4.30195 27.1614 50
    endloop
  endfacet
  facet normal -0.19144 0.797404 0.572274
    outer loop
      vertex -4.84947 30.6183 45
      vertex -9.57953 29.4828 45
      vertex -4.30195 27.1614 50
    endloop
  endfacet
  facet normal -0.313824 0.757639 0.572274
    outer loop
      vertex -9.57953 29.4828 45
      vertex -12.4847 24.5027 50
      vertex -8.49797 26.1541 50
    endloop
  endfacet
  facet normal -0.0643415 0.817534 0.572274
    outer loop
      vertex 0 31 45
      vertex -4.84947 30.6183 45
      vertex 0 27.5 50
    endloop
  endfacet
  facet normal -0.85264 0.522499 0
    outer loop
      vertex -27.6212 14.0737 5
      vertex -25.0795 18.2213 45
      vertex -25.0795 18.2213 5
    endloop
  endfacet
  facet normal -0.85264 0.522499 0
    outer loop
      vertex -25.0795 18.2213 45
      vertex -27.6212 14.0737 5
      vertex -27.6212 14.0737 45
    endloop
  endfacet
  facet normal -0.623581 0.532588 0.572274
    outer loop
      vertex -21.9203 21.9203 45
      vertex -25.0795 18.2213 45
      vertex -22.248 16.1641 50
    endloop
  endfacet
  facet normal -0.85264 -0.522499 0
    outer loop
      vertex -25.0795 -18.2213 5
      vertex -27.6212 -14.0737 45
      vertex -27.6212 -14.0737 5
    endloop
  endfacet
  facet normal -0.85264 -0.522499 0
    outer loop
      vertex -27.6212 -14.0737 45
      vertex -25.0795 -18.2213 5
      vertex -25.0795 -18.2213 45
    endloop
  endfacet
  facet normal -0.699218 -0.428481 0.572274
    outer loop
      vertex -22.248 -16.1641 50
      vertex -27.6212 -14.0737 45
      vertex -25.0795 -18.2213 45
    endloop
  endfacet
  facet normal -0.757639 -0.313824 0.572274
    outer loop
      vertex -26.1541 -8.49797 50
      vertex -29.4828 -9.57953 45
      vertex -24.5027 -12.4847 50
    endloop
  endfacet
  facet normal -0.817534 -0.0643415 0.572274
    outer loop
      vertex -27.5 0 50
      vertex -31 0 45
      vertex -30.6183 -4.84947 45
    endloop
  endfacet
  facet normal -0.996917 0.0784593 0
    outer loop
      vertex -31 0 5
      vertex -30.6183 4.84947 45
      vertex -30.6183 4.84947 5
    endloop
  endfacet
  facet normal -0.996917 0.0784593 0
    outer loop
      vertex -30.6183 4.84947 45
      vertex -31 0 5
      vertex -31 0 45
    endloop
  endfacet
  facet normal -0.97237 0.233445 0
    outer loop
      vertex -30.6183 4.84947 5
      vertex -29.4828 9.57953 45
      vertex -29.4828 9.57953 5
    endloop
  endfacet
  facet normal -0.97237 0.233445 0
    outer loop
      vertex -29.4828 9.57953 45
      vertex -30.6183 4.84947 5
      vertex -30.6183 4.84947 45
    endloop
  endfacet
  facet normal 0 0 1
    outer loop
      vertex 26 0 50
      vertex 27.5 0 50
      vertex 27.1614 4.30195 50
    endloop
  endfacet
  facet normal 0 0 1
    outer loop
      vertex 25.6799 4.0673 50
      vertex 27.1614 4.30195 50
      vertex 26.1541 8.49797 50
    endloop
  endfacet
  facet normal 0 0 1
    outer loop
      vertex 27.5 0 50
      vertex 26 0 50
      vertex 27.1614 -4.30195 50
    endloop
  endfacet
  facet normal -0 0 1
    outer loop
      vertex 25.6799 -4.0673 50
      vertex 27.1614 -4.30195 50
      vertex 26 0 50
    endloop
  endfacet
  facet normal 0 0 1
    outer loop
      vertex 27.1614 4.30195 50
      vertex 25.6799 4.0673 50
      vertex 26 0 50
    endloop
  endfacet
  facet normal 0 0 1
    outer loop
      vertex 26.1541 8.49797 50
      vertex 24.7275 8.03444 50
      vertex 25.6799 4.0673 50
    endloop
  endfacet
  facet normal 0 0 1
    outer loop
      vertex 24.5027 12.4847 50
      vertex 24.7275 8.03444 50
      vertex 26.1541 8.49797 50
    endloop
  endfacet
  facet normal 0 0 1
    outer loop
      vertex 24.5027 12.4847 50
      vertex 23.1662 11.8038 50
      vertex 24.7275 8.03444 50
    endloop
  endfacet
  facet normal 0 0 1
    outer loop
      vertex 22.248 16.1641 50
      vertex 23.1662 11.8038 50
      vertex 24.5027 12.4847 50
    endloop
  endfacet
  facet normal 0 0 1
    outer loop
      vertex 22.248 16.1641 50
      vertex 21.0344 15.2824 50
      vertex 23.1662 11.8038 50
    endloop
  endfacet
  facet normal 0 0 1
    outer loop
      vertex 19.4454 19.4454 50
      vertex 21.0344 15.2824 50
      vertex 22.248 16.1641 50
    endloop
  endfacet
  facet normal 0 0 1
    outer loop
      vertex 19.4454 19.4454 50
      vertex 18.3848 18.3848 50
      vertex 21.0344 15.2824 50
    endloop
  endfacet
  facet normal 0 0 1
    outer loop
      vertex 16.1641 22.248 50
      vertex 18.3848 18.3848 50
      vertex 19.4454 19.4454 50
    endloop
  endfacet
  facet normal 0 0 1
    outer loop
      vertex 16.1641 22.248 50
      vertex 15.2824 21.0344 50
      vertex 18.3848 18.3848 50
    endloop
  endfacet
  facet normal 0 0 1
    outer loop
      vertex 12.4847 24.5027 50
      vertex 15.2824 21.0344 50
      vertex 16.1641 22.248 50
    endloop
  endfacet
  facet normal 0 0 1
    outer loop
      vertex 12.4847 24.5027 50
      vertex 11.8038 23.1662 50
      vertex 15.2824 21.0344 50
    endloop
  endfacet
  facet normal 0 0 1
    outer loop
      vertex 8.49797 26.1541 50
      vertex 11.8038 23.1662 50
      vertex 12.4847 24.5027 50
    endloop
  endfacet
  facet normal 0 0 1
    outer loop
      vertex 8.49797 26.1541 50
      vertex 8.03444 24.7275 50
      vertex 11.8038 23.1662 50
    endloop
  endfacet
  facet normal 0 0 1
    outer loop
      vertex 4.30195 27.1614 50
      vertex 8.03444 24.7275 50
      vertex 8.49797 26.1541 50
    endloop
  endfacet
  facet normal 0 0 1
    outer loop
      vertex 4.30195 27.1614 50
      vertex 4.0673 25.6799 50
      vertex 8.03444 24.7275 50
    endloop
  endfacet
  facet normal 0 0 1
    outer loop
      vertex 0 27.5 50
      vertex 4.0673 25.6799 50
      vertex 4.30195 27.1614 50
    endloop
  endfacet
  facet normal 0 0 1
    outer loop
      vertex 0 27.5 50
      vertex 0 26 50
      vertex 4.0673 25.6799 50
    endloop
  endfacet
  facet normal 0 0 1
    outer loop
      vertex 0 27.5 50
      vertex -4.0673 25.6799 50
      vertex 0 26 50
    endloop
  endfacet
  facet normal -0 0 1
    outer loop
      vertex -4.30195 27.1614 50
      vertex -4.0673 25.6799 50
      vertex 0 27.5 50
    endloop
  endfacet
  facet normal 0 0 1
    outer loop
      vertex -4.30195 27.1614 50
      vertex -8.03444 24.7275 50
      vertex -4.0673 25.6799 50
    endloop
  endfacet
  facet normal -0 0 1
    outer loop
      vertex -8.49797 26.1541 50
      vertex -8.03444 24.7275 50
      vertex -4.30195 27.1614 50
    endloop
  endfacet
  facet normal 0 0 1
    outer loop
      vertex -8.49797 26.1541 50
      vertex -11.8038 23.1662 50
      vertex -8.03444 24.7275 50
    endloop
  endfacet
  facet normal -0 0 1
    outer loop
      vertex -12.4847 24.5027 50
      vertex -11.8038 23.1662 50
      vertex -8.49797 26.1541 50
    endloop
  endfacet
  facet normal 0 0 1
    outer loop
      vertex -12.4847 24.5027 50
      vertex -15.2824 21.0344 50
      vertex -11.8038 23.1662 50
    endloop
  endfacet
  facet normal -0 0 1
    outer loop
      vertex -16.1641 22.248 50
      vertex -15.2824 21.0344 50
      vertex -12.4847 24.5027 50
    endloop
  endfacet
  facet normal 0 0 1
    outer loop
      vertex -16.1641 22.248 50
      vertex -18.3848 18.3848 50
      vertex -15.2824 21.0344 50
    endloop
  endfacet
  facet normal -0 0 1
    outer loop
      vertex -19.4454 19.4454 50
      vertex -18.3848 18.3848 50
      vertex -16.1641 22.248 50
    endloop
  endfacet
  facet normal 0 0 1
    outer loop
      vertex -19.4454 19.4454 50
      vertex -21.0344 15.2824 50
      vertex -18.3848 18.3848 50
    endloop
  endfacet
  facet normal -0 0 1
    outer loop
      vertex -22.248 16.1641 50
      vertex -21.0344 15.2824 50
      vertex -19.4454 19.4454 50
    endloop
  endfacet
  facet normal 0 0 1
    outer loop
      vertex -22.248 16.1641 50
      vertex -23.1662 11.8038 50
      vertex -21.0344 15.2824 50
    endloop
  endfacet
  facet normal -0 0 1
    outer loop
      vertex -24.5027 12.4847 50
      vertex -23.1662 11.8038 50
      vertex -22.248 16.1641 50
    endloop
  endfacet
  facet normal 0 0 1
    outer loop
      vertex -24.5027 12.4847 50
      vertex -24.7275 8.03444 50
      vertex -23.1662 11.8038 50
    endloop
  endfacet
  facet normal -0 0 1
    outer loop
      vertex -26.1541 8.49797 50
      vertex -24.7275 8.03444 50
      vertex -24.5027 12.4847 50
    endloop
  endfacet
  facet normal -0 0 1
    outer loop
      vertex -27.1614 4.30195 50
      vertex -25.6799 4.0673 50
      vertex -26.1541 8.49797 50
    endloop
  endfacet
  facet normal 0 0 1
    outer loop
      vertex -24.7275 8.03444 50
      vertex -26.1541 8.49797 50
      vertex -25.6799 4.0673 50
    endloop
  endfacet
  facet normal 0 0 1
    outer loop
      vertex 27.1614 -4.30195 50
      vertex 25.6799 -4.0673 50
      vertex 26.1541 -8.49797 50
    endloop
  endfacet
  facet normal -0 0 1
    outer loop
      vertex 24.7275 -8.03444 50
      vertex 26.1541 -8.49797 50
      vertex 25.6799 -4.0673 50
    endloop
  endfacet
  facet normal 0 0 1
    outer loop
      vertex 24.7275 -8.03444 50
      vertex 24.5027 -12.4847 50
      vertex 26.1541 -8.49797 50
    endloop
  endfacet
  facet normal -0 0 1
    outer loop
      vertex 23.1662 -11.8038 50
      vertex 24.5027 -12.4847 50
      vertex 24.7275 -8.03444 50
    endloop
  endfacet
  facet normal 0 0 1
    outer loop
      vertex 23.1662 -11.8038 50
      vertex 22.248 -16.1641 50
      vertex 24.5027 -12.4847 50
    endloop
  endfacet
  facet normal -0 0 1
    outer loop
      vertex 21.0344 -15.2824 50
      vertex 22.248 -16.1641 50
      vertex 23.1662 -11.8038 50
    endloop
  endfacet
  facet normal 0 0 1
    outer loop
      vertex 21.0344 -15.2824 50
      vertex 19.4454 -19.4454 50
      vertex 22.248 -16.1641 50
    endloop
  endfacet
  facet normal -0 0 1
    outer loop
      vertex 18.3848 -18.3848 50
      vertex 19.4454 -19.4454 50
      vertex 21.0344 -15.2824 50
    endloop
  endfacet
  facet normal 0 0 1
    outer loop
      vertex 18.3848 -18.3848 50
      vertex 16.1641 -22.248 50
      vertex 19.4454 -19.4454 50
    endloop
  endfacet
  facet normal -0 0 1
    outer loop
      vertex 15.2824 -21.0344 50
      vertex 16.1641 -22.248 50
      vertex 18.3848 -18.3848 50
    endloop
  endfacet
  facet normal 0 0 1
    outer loop
      vertex 15.2824 -21.0344 50
      vertex 12.4847 -24.5027 50
      vertex 16.1641 -22.248 50
    endloop
  endfacet
  facet normal -0 0 1
    outer loop
      vertex 11.8038 -23.1662 50
      vertex 12.4847 -24.5027 50
      vertex 15.2824 -21.0344 50
    endloop
  endfacet
  facet normal 0 0 1
    outer loop
      vertex 11.8038 -23.1662 50
      vertex 8.49797 -26.1541 50
      vertex 12.4847 -24.5027 50
    endloop
  endfacet
  facet normal -0 0 1
    outer loop
      vertex 8.03444 -24.7275 50
      vertex 8.49797 -26.1541 50
      vertex 11.8038 -23.1662 50
    endloop
  endfacet
  facet normal 0 0 1
    outer loop
      vertex 8.03444 -24.7275 50
      vertex 4.30195 -27.1614 50
      vertex 8.49797 -26.1541 50
    endloop
  endfacet
  facet normal -0 0 1
    outer loop
      vertex 4.0673 -25.6799 50
      vertex 4.30195 -27.1614 50
      vertex 8.03444 -24.7275 50
    endloop
  endfacet
  facet normal -0 0 1
    outer loop
      vertex 0 -26 50
      vertex 4.30195 -27.1614 50
      vertex 4.0673 -25.6799 50
    endloop
  endfacet
  facet normal 0 0 1
    outer loop
      vertex 0 -26 50
      vertex 0 -27.5 50
      vertex 4.30195 -27.1614 50
    endloop
  endfacet
  facet normal 0 0 1
    outer loop
      vertex -4.0673 -25.6799 50
      vertex 0 -27.5 50
      vertex 0 -26 50
    endloop
  endfacet
  facet normal 0 0 1
    outer loop
      vertex -4.0673 -25.6799 50
      vertex -4.30195 -27.1614 50
      vertex 0 -27.5 50
    endloop
  endfacet
  facet normal 0 0 1
    outer loop
      vertex -8.03444 -24.7275 50
      vertex -4.30195 -27.1614 50
      vertex -4.0673 -25.6799 50
    endloop
  endfacet
  facet normal 0 0 1
    outer loop
      vertex -8.03444 -24.7275 50
      vertex -8.49797 -26.1541 50
      vertex -4.30195 -27.1614 50
    endloop
  endfacet
  facet normal 0 0 1
    outer loop
      vertex -11.8038 -23.1662 50
      vertex -8.49797 -26.1541 50
      vertex -8.03444 -24.7275 50
    endloop
  endfacet
  facet normal 0 0 1
    outer loop
      vertex -11.8038 -23.1662 50
      vertex -12.4847 -24.5027 50
      vertex -8.49797 -26.1541 50
    endloop
  endfacet
  facet normal 0 0 1
    outer loop
      vertex -15.2824 -21.0344 50
      vertex -12.4847 -24.5027 50
      vertex -11.8038 -23.1662 50
    endloop
  endfacet
  facet normal 0 0 1
    outer loop
      vertex -15.2824 -21.0344 50
      vertex -16.1641 -22.248 50
      vertex -12.4847 -24.5027 50
    endloop
  endfacet
  facet normal 0 0 1
    outer loop
      vertex -18.3848 -18.3848 50
      vertex -16.1641 -22.248 50
      vertex -15.2824 -21.0344 50
    endloop
  endfacet
  facet normal 0 0 1
    outer loop
      vertex -18.3848 -18.3848 50
      vertex -19.4454 -19.4454 50
      vertex -16.1641 -22.248 50
    endloop
  endfacet
  facet normal 0 0 1
    outer loop
      vertex -21.0344 -15.2824 50
      vertex -19.4454 -19.4454 50
      vertex -18.3848 -18.3848 50
    endloop
  endfacet
  facet normal 0 0 1
    outer loop
      vertex -21.0344 -15.2824 50
      vertex -22.248 -16.1641 50
      vertex -19.4454 -19.4454 50
    endloop
  endfacet
  facet normal 0 0 1
    outer loop
      vertex -23.1662 -11.8038 50
      vertex -22.248 -16.1641 50
      vertex -21.0344 -15.2824 50
    endloop
  endfacet
  facet normal 0 0 1
    outer loop
      vertex -23.1662 -11.8038 50
      vertex -24.5027 -12.4847 50
      vertex -22.248 -16.1641 50
    endloop
  endfacet
  facet normal 0 0 1
    outer loop
      vertex -24.7275 -8.03444 50
      vertex -24.5027 -12.4847 50
      vertex -23.1662 -11.8038 50
    endloop
  endfacet
  facet normal 0 0 1
    outer loop
      vertex -26.1541 -8.49797 50
      vertex -24.7275 -8.03444 50
      vertex -25.6799 -4.0673 50
    endloop
  endfacet
  facet normal 0 0 1
    outer loop
      vertex -24.7275 -8.03444 50
      vertex -26.1541 -8.49797 50
      vertex -24.5027 -12.4847 50
    endloop
  endfacet
  facet normal 0 0 1
    outer loop
      vertex -27.1614 -4.30195 50
      vertex -25.6799 -4.0673 50
      vertex -26 0 50
    endloop
  endfacet
  facet normal 0 0 1
    outer loop
      vertex -25.6799 4.0673 50
      vertex -27.1614 4.30195 50
      vertex -26 0 50
    endloop
  endfacet
  facet normal 0 0 1
    outer loop
      vertex -27.5 0 50
      vertex -26 0 50
      vertex -27.1614 4.30195 50
    endloop
  endfacet
  facet normal 0 0 1
    outer loop
      vertex -25.6799 -4.0673 50
      vertex -27.1614 -4.30195 50
      vertex -26.1541 -8.49797 50
    endloop
  endfacet
  facet normal 0 0 1
    outer loop
      vertex -26 0 50
      vertex -27.5 0 50
      vertex -27.1614 -4.30195 50
    endloop
  endfacet
  facet normal -0.797404 0.19144 0.572274
    outer loop
      vertex -26.1541 8.49797 50
      vertex -29.4828 9.57953 45
      vertex -27.1614 4.30195 50
    endloop
  endfacet
  facet normal -0.62358 0.532588 0.572274
    outer loop
      vertex -21.9203 21.9203 45
      vertex -22.248 16.1641 50
      vertex -19.4454 19.4454 50
    endloop
  endfacet
  facet normal -0.428481 0.699218 0.572274
    outer loop
      vertex -14.0737 27.6212 45
      vertex -16.1641 22.248 50
      vertex -12.4847 24.5027 50
    endloop
  endfacet
  facet normal -0.428481 0.699218 0.572274
    outer loop
      vertex -14.0737 27.6212 45
      vertex -18.2213 25.0795 45
      vertex -16.1641 22.248 50
    endloop
  endfacet
  facet normal -0.19144 -0.797404 0.572274
    outer loop
      vertex -4.30195 -27.1614 50
      vertex -9.57953 -29.4828 45
      vertex -4.84947 -30.6183 45
    endloop
  endfacet
  facet normal -0.0643415 -0.817534 0.572274
    outer loop
      vertex -4.30195 -27.1614 50
      vertex -4.84947 -30.6183 45
      vertex 0 -27.5 50
    endloop
  endfacet
  facet normal -0.62358 -0.532588 0.572274
    outer loop
      vertex -19.4454 -19.4454 50
      vertex -22.248 -16.1641 50
      vertex -21.9203 -21.9203 45
    endloop
  endfacet
  facet normal -0.313825 -0.757639 0.572274
    outer loop
      vertex -12.4847 -24.5027 50
      vertex -14.0737 -27.6212 45
      vertex -9.57953 -29.4828 45
    endloop
  endfacet
  facet normal -0.532588 -0.623581 0.572274
    outer loop
      vertex -16.1641 -22.248 50
      vertex -21.9203 -21.9203 45
      vertex -18.2213 -25.0795 45
    endloop
  endfacet
  facet normal 0.649448 -0.760406 0
    outer loop
      vertex 18.2213 -25.0795 5
      vertex 21.9203 -21.9203 45
      vertex 18.2213 -25.0795 45
    endloop
  endfacet
  facet normal 0.649448 -0.760406 0
    outer loop
      vertex 21.9203 -21.9203 45
      vertex 18.2213 -25.0795 5
      vertex 21.9203 -21.9203 5
    endloop
  endfacet
  facet normal 0.19144 -0.797404 0.572274
    outer loop
      vertex 8.49797 -26.1541 50
      vertex 4.30195 -27.1614 50
      vertex 9.57953 -29.4828 45
    endloop
  endfacet
  facet normal 0.428481 0.699218 0.572274
    outer loop
      vertex 18.2213 25.0795 45
      vertex 14.0737 27.6212 45
      vertex 16.1641 22.248 50
    endloop
  endfacet
  facet normal 0.428481 0.699218 0.572274
    outer loop
      vertex 14.0737 27.6212 45
      vertex 12.4847 24.5027 50
      vertex 16.1641 22.248 50
    endloop
  endfacet
  facet normal 0.757639 0.313824 0.572274
    outer loop
      vertex 29.4828 9.57953 45
      vertex 24.5027 12.4847 50
      vertex 26.1541 8.49797 50
    endloop
  endfacet
  facet normal 0.757639 0.313825 0.572274
    outer loop
      vertex 27.6212 14.0737 45
      vertex 24.5027 12.4847 50
      vertex 29.4828 9.57953 45
    endloop
  endfacet
  facet normal 0.817534 0.0643415 0.572274
    outer loop
      vertex 30.6183 4.84947 45
      vertex 27.1614 4.30195 50
      vertex 27.5 0 50
    endloop
  endfacet
  facet normal 0.797404 0.19144 0.572274
    outer loop
      vertex 29.4828 9.57953 45
      vertex 27.1614 4.30195 50
      vertex 30.6183 4.84947 45
    endloop
  endfacet
  facet normal 0.19144 0.797404 0.572274
    outer loop
      vertex 9.57953 29.4828 45
      vertex 4.30195 27.1614 50
      vertex 8.49797 26.1541 50
    endloop
  endfacet
  facet normal -0.382684 0.923879 0
    outer loop
      vertex -9.57953 29.4828 5
      vertex -14.0737 27.6212 45
      vertex -9.57953 29.4828 45
    endloop
  endfacet
  facet normal -0.382684 0.923879 0
    outer loop
      vertex -14.0737 27.6212 45
      vertex -9.57953 29.4828 5
      vertex -14.0737 27.6212 5
    endloop
  endfacet
  facet normal -0.19144 0.797404 0.572274
    outer loop
      vertex -4.30195 27.1614 50
      vertex -9.57953 29.4828 45
      vertex -8.49797 26.1541 50
    endloop
  endfacet
  facet normal -0.699218 0.428481 0.572274
    outer loop
      vertex -25.0795 18.2213 45
      vertex -27.6212 14.0737 45
      vertex -22.248 16.1641 50
    endloop
  endfacet
  facet normal -0.760406 -0.649448 0
    outer loop
      vertex -21.9203 -21.9203 5
      vertex -25.0795 -18.2213 45
      vertex -25.0795 -18.2213 5
    endloop
  endfacet
  facet normal -0.760406 -0.649448 0
    outer loop
      vertex -25.0795 -18.2213 45
      vertex -21.9203 -21.9203 5
      vertex -21.9203 -21.9203 45
    endloop
  endfacet
  facet normal -0.757639 -0.313825 0.572274
    outer loop
      vertex -24.5027 -12.4847 50
      vertex -29.4828 -9.57953 45
      vertex -27.6212 -14.0737 45
    endloop
  endfacet
  facet normal -0.699218 -0.428481 0.572274
    outer loop
      vertex -24.5027 -12.4847 50
      vertex -27.6212 -14.0737 45
      vertex -22.248 -16.1641 50
    endloop
  endfacet
  facet normal -0.817534 -0.0643415 0.572274
    outer loop
      vertex -27.5 0 50
      vertex -30.6183 -4.84947 45
      vertex -27.1614 -4.30195 50
    endloop
  endfacet
  facet normal -0.797404 -0.19144 0.572274
    outer loop
      vertex -27.1614 -4.30195 50
      vertex -30.6183 -4.84947 45
      vertex -29.4828 -9.57953 45
    endloop
  endfacet
  facet normal -0.532588 0.623581 0.572274
    outer loop
      vertex -18.2213 25.0795 45
      vertex -21.9203 21.9203 45
      vertex -16.1641 22.248 50
    endloop
  endfacet
  facet normal 0.923879 -0.382684 0
    outer loop
      vertex 27.6212 -14.0737 45
      vertex 29.4828 -9.57953 5
      vertex 29.4828 -9.57953 45
    endloop
  endfacet
  facet normal 0.923879 -0.382684 0
    outer loop
      vertex 29.4828 -9.57953 5
      vertex 27.6212 -14.0737 45
      vertex 27.6212 -14.0737 5
    endloop
  endfacet
  facet normal 0.757639 -0.313825 0.572274
    outer loop
      vertex 29.4828 -9.57953 45
      vertex 24.5027 -12.4847 50
      vertex 27.6212 -14.0737 45
    endloop
  endfacet
  facet normal 0.797404 -0.19144 0.572274
    outer loop
      vertex 27.1614 -4.30195 50
      vertex 26.1541 -8.49797 50
      vertex 29.4828 -9.57953 45
    endloop
  endfacet
  facet normal 0.532588 -0.62358 0.572274
    outer loop
      vertex 19.4454 -19.4454 50
      vertex 16.1641 -22.248 50
      vertex 21.9203 -21.9203 45
    endloop
  endfacet
  facet normal -0.313824 -0.757639 0.572274
    outer loop
      vertex -8.49797 -26.1541 50
      vertex -12.4847 -24.5027 50
      vertex -9.57953 -29.4828 45
    endloop
  endfacet
  facet normal -0.19144 -0.797404 0.572274
    outer loop
      vertex -8.49797 -26.1541 50
      vertex -9.57953 -29.4828 45
      vertex -4.30195 -27.1614 50
    endloop
  endfacet
  facet normal -0.428481 -0.699218 0.572274
    outer loop
      vertex -12.4847 -24.5027 50
      vertex -16.1641 -22.248 50
      vertex -14.0737 -27.6212 45
    endloop
  endfacet
  facet normal -0.649448 0.760406 0
    outer loop
      vertex -18.2213 25.0795 5
      vertex -21.9203 21.9203 45
      vertex -18.2213 25.0795 45
    endloop
  endfacet
  facet normal -0.649448 0.760406 0
    outer loop
      vertex -21.9203 21.9203 45
      vertex -18.2213 25.0795 5
      vertex -21.9203 21.9203 5
    endloop
  endfacet
  facet normal -0.522499 0.85264 0
    outer loop
      vertex -14.0737 27.6212 5
      vertex -18.2213 25.0795 45
      vertex -14.0737 27.6212 45
    endloop
  endfacet
  facet normal -0.522499 0.85264 0
    outer loop
      vertex -18.2213 25.0795 45
      vertex -14.0737 27.6212 5
      vertex -18.2213 25.0795 5
    endloop
  endfacet
  facet normal 0.85264 -0.522499 0
    outer loop
      vertex 25.0795 -18.2213 45
      vertex 27.6212 -14.0737 5
      vertex 27.6212 -14.0737 45
    endloop
  endfacet
  facet normal 0.85264 -0.522499 0
    outer loop
      vertex 27.6212 -14.0737 5
      vertex 25.0795 -18.2213 45
      vertex 25.0795 -18.2213 5
    endloop
  endfacet
  facet normal 0.623581 -0.532588 0.572274
    outer loop
      vertex 22.248 -16.1641 50
      vertex 21.9203 -21.9203 45
      vertex 25.0795 -18.2213 45
    endloop
  endfacet
  facet normal 0.428481 -0.699218 0.572274
    outer loop
      vertex 16.1641 -22.248 50
      vertex 12.4847 -24.5027 50
      vertex 14.0737 -27.6212 45
    endloop
  endfacet
  facet normal 0.428481 -0.699218 0.572274
    outer loop
      vertex 16.1641 -22.248 50
      vertex 14.0737 -27.6212 45
      vertex 18.2213 -25.0795 45
    endloop
  endfacet
  facet normal 0.699218 -0.428481 0.572274
    outer loop
      vertex 27.6212 -14.0737 45
      vertex 22.248 -16.1641 50
      vertex 25.0795 -18.2213 45
    endloop
  endfacet
  facet normal 0.699218 -0.428481 0.572274
    outer loop
      vertex 24.5027 -12.4847 50
      vertex 22.248 -16.1641 50
      vertex 27.6212 -14.0737 45
    endloop
  endfacet
  facet normal -0.649448 -0.760406 0
    outer loop
      vertex 15.2824 21.0344 0
      vertex 18.3848 18.3848 50
      vertex 15.2824 21.0344 50
    endloop
  endfacet
  facet normal -0.649448 -0.760406 -0
    outer loop
      vertex 18.3848 18.3848 50
      vertex 15.2824 21.0344 0
      vertex 18.3848 18.3848 0
    endloop
  endfacet
  facet normal 0.382683 -0.92388 0
    outer loop
      vertex -11.8038 23.1662 0
      vertex -8.03444 24.7275 50
      vertex -11.8038 23.1662 50
    endloop
  endfacet
  facet normal 0.382683 -0.92388 0
    outer loop
      vertex -8.03444 24.7275 50
      vertex -11.8038 23.1662 0
      vertex -8.03444 24.7275 0
    endloop
  endfacet
  facet normal 0.85264 -0.522498 0
    outer loop
      vertex -23.1662 11.8038 50
      vertex -21.0344 15.2824 0
      vertex -21.0344 15.2824 50
    endloop
  endfacet
  facet normal 0.85264 -0.522498 0
    outer loop
      vertex -21.0344 15.2824 0
      vertex -23.1662 11.8038 50
      vertex -23.1662 11.8038 0
    endloop
  endfacet
  facet normal -0.649448 0.760406 0
    outer loop
      vertex 18.3848 -18.3848 0
      vertex 15.2824 -21.0344 50
      vertex 18.3848 -18.3848 50
    endloop
  endfacet
  facet normal -0.649448 0.760406 0
    outer loop
      vertex 15.2824 -21.0344 50
      vertex 18.3848 -18.3848 0
      vertex 15.2824 -21.0344 0
    endloop
  endfacet
  facet normal 0.92388 0.382683 0
    outer loop
      vertex -23.1662 -11.8038 50
      vertex -24.7275 -8.03444 0
      vertex -24.7275 -8.03444 50
    endloop
  endfacet
  facet normal 0.92388 0.382683 0
    outer loop
      vertex -24.7275 -8.03444 0
      vertex -23.1662 -11.8038 50
      vertex -23.1662 -11.8038 0
    endloop
  endfacet
  facet normal -0.92388 -0.382683 0
    outer loop
      vertex 24.7275 8.03444 0
      vertex 23.1662 11.8038 50
      vertex 23.1662 11.8038 0
    endloop
  endfacet
  facet normal -0.92388 -0.382683 0
    outer loop
      vertex 23.1662 11.8038 50
      vertex 24.7275 8.03444 0
      vertex 24.7275 8.03444 50
    endloop
  endfacet
  facet normal -0.85264 -0.522498 0
    outer loop
      vertex 23.1662 11.8038 0
      vertex 21.0344 15.2824 50
      vertex 21.0344 15.2824 0
    endloop
  endfacet
  facet normal -0.85264 -0.522498 0
    outer loop
      vertex 21.0344 15.2824 50
      vertex 23.1662 11.8038 0
      vertex 23.1662 11.8038 50
    endloop
  endfacet
  facet normal -0.760406 -0.649448 0
    outer loop
      vertex 21.0344 15.2824 0
      vertex 18.3848 18.3848 50
      vertex 18.3848 18.3848 0
    endloop
  endfacet
  facet normal -0.760406 -0.649448 0
    outer loop
      vertex 18.3848 18.3848 50
      vertex 21.0344 15.2824 0
      vertex 21.0344 15.2824 50
    endloop
  endfacet
  facet normal -0.522498 -0.85264 0
    outer loop
      vertex 11.8038 23.1662 0
      vertex 15.2824 21.0344 50
      vertex 11.8038 23.1662 50
    endloop
  endfacet
  facet normal -0.522498 -0.85264 -0
    outer loop
      vertex 15.2824 21.0344 50
      vertex 11.8038 23.1662 0
      vertex 15.2824 21.0344 0
    endloop
  endfacet
  facet normal -0.078459 -0.996917 0
    outer loop
      vertex 0 26 0
      vertex 4.0673 25.6799 50
      vertex 0 26 50
    endloop
  endfacet
  facet normal -0.078459 -0.996917 -0
    outer loop
      vertex 4.0673 25.6799 50
      vertex 0 26 0
      vertex 4.0673 25.6799 0
    endloop
  endfacet
  facet normal 0.996917 -0.078459 0
    outer loop
      vertex -26 0 50
      vertex -25.6799 4.0673 0
      vertex -25.6799 4.0673 50
    endloop
  endfacet
  facet normal 0.996917 -0.078459 0
    outer loop
      vertex -25.6799 4.0673 0
      vertex -26 0 50
      vertex -26 0 0
    endloop
  endfacet
  facet normal 0.760406 -0.649448 0
    outer loop
      vertex -21.0344 15.2824 50
      vertex -18.3848 18.3848 0
      vertex -18.3848 18.3848 50
    endloop
  endfacet
  facet normal 0.760406 -0.649448 0
    outer loop
      vertex -18.3848 18.3848 0
      vertex -21.0344 15.2824 50
      vertex -21.0344 15.2824 0
    endloop
  endfacet
  facet normal 0.522498 -0.85264 0
    outer loop
      vertex -15.2824 21.0344 0
      vertex -11.8038 23.1662 50
      vertex -15.2824 21.0344 50
    endloop
  endfacet
  facet normal 0.522498 -0.85264 0
    outer loop
      vertex -11.8038 23.1662 50
      vertex -15.2824 21.0344 0
      vertex -11.8038 23.1662 0
    endloop
  endfacet
  facet normal 0.078459 -0.996917 0
    outer loop
      vertex -4.0673 25.6799 0
      vertex 0 26 50
      vertex -4.0673 25.6799 50
    endloop
  endfacet
  facet normal 0.078459 -0.996917 0
    outer loop
      vertex 0 26 50
      vertex -4.0673 25.6799 0
      vertex 0 26 0
    endloop
  endfacet
  facet normal 0.649448 -0.760406 0
    outer loop
      vertex -18.3848 18.3848 0
      vertex -15.2824 21.0344 50
      vertex -18.3848 18.3848 50
    endloop
  endfacet
  facet normal 0.649448 -0.760406 0
    outer loop
      vertex -15.2824 21.0344 50
      vertex -18.3848 18.3848 0
      vertex -15.2824 21.0344 0
    endloop
  endfacet
  facet normal -0.996917 -0.078459 0
    outer loop
      vertex 26 0 0
      vertex 25.6799 4.0673 50
      vertex 25.6799 4.0673 0
    endloop
  endfacet
  facet normal -0.996917 -0.078459 0
    outer loop
      vertex 25.6799 4.0673 50
      vertex 26 0 0
      vertex 26 0 50
    endloop
  endfacet
  facet normal -0.078459 0.996917 0
    outer loop
      vertex 4.0673 -25.6799 0
      vertex 0 -26 50
      vertex 4.0673 -25.6799 50
    endloop
  endfacet
  facet normal -0.078459 0.996917 0
    outer loop
      vertex 0 -26 50
      vertex 4.0673 -25.6799 0
      vertex 0 -26 0
    endloop
  endfacet
  facet normal -0.760406 0.649448 0
    outer loop
      vertex 18.3848 -18.3848 0
      vertex 21.0344 -15.2824 50
      vertex 21.0344 -15.2824 0
    endloop
  endfacet
  facet normal -0.760406 0.649448 0
    outer loop
      vertex 21.0344 -15.2824 50
      vertex 18.3848 -18.3848 0
      vertex 18.3848 -18.3848 50
    endloop
  endfacet
  facet normal -0.92388 0.382683 0
    outer loop
      vertex 23.1662 -11.8038 0
      vertex 24.7275 -8.03444 50
      vertex 24.7275 -8.03444 0
    endloop
  endfacet
  facet normal -0.92388 0.382683 0
    outer loop
      vertex 24.7275 -8.03444 50
      vertex 23.1662 -11.8038 0
      vertex 23.1662 -11.8038 50
    endloop
  endfacet
  facet normal -0.382683 0.92388 0
    outer loop
      vertex 11.8038 -23.1662 0
      vertex 8.03444 -24.7275 50
      vertex 11.8038 -23.1662 50
    endloop
  endfacet
  facet normal -0.382683 0.92388 0
    outer loop
      vertex 8.03444 -24.7275 50
      vertex 11.8038 -23.1662 0
      vertex 8.03444 -24.7275 0
    endloop
  endfacet
  facet normal -0.522498 0.85264 0
    outer loop
      vertex 15.2824 -21.0344 0
      vertex 11.8038 -23.1662 50
      vertex 15.2824 -21.0344 50
    endloop
  endfacet
  facet normal -0.522498 0.85264 0
    outer loop
      vertex 11.8038 -23.1662 50
      vertex 15.2824 -21.0344 0
      vertex 11.8038 -23.1662 0
    endloop
  endfacet
  facet normal 0.078459 0.996917 -0
    outer loop
      vertex 0 -26 0
      vertex -4.0673 -25.6799 50
      vertex 0 -26 50
    endloop
  endfacet
  facet normal 0.078459 0.996917 0
    outer loop
      vertex -4.0673 -25.6799 50
      vertex 0 -26 0
      vertex -4.0673 -25.6799 0
    endloop
  endfacet
  facet normal 0.649448 0.760406 -0
    outer loop
      vertex -15.2824 -21.0344 0
      vertex -18.3848 -18.3848 50
      vertex -15.2824 -21.0344 50
    endloop
  endfacet
  facet normal 0.649448 0.760406 0
    outer loop
      vertex -18.3848 -18.3848 50
      vertex -15.2824 -21.0344 0
      vertex -18.3848 -18.3848 0
    endloop
  endfacet
  facet normal 0.85264 0.522498 0
    outer loop
      vertex -21.0344 -15.2824 50
      vertex -23.1662 -11.8038 0
      vertex -23.1662 -11.8038 50
    endloop
  endfacet
  facet normal 0.85264 0.522498 0
    outer loop
      vertex -23.1662 -11.8038 0
      vertex -21.0344 -15.2824 50
      vertex -21.0344 -15.2824 0
    endloop
  endfacet
  facet normal 0.996917 0.078459 0
    outer loop
      vertex -25.6799 -4.0673 50
      vertex -26 0 0
      vertex -26 0 50
    endloop
  endfacet
  facet normal 0.996917 0.078459 0
    outer loop
      vertex -26 0 0
      vertex -25.6799 -4.0673 50
      vertex -25.6799 -4.0673 0
    endloop
  endfacet
  facet normal 0.760406 0.649448 0
    outer loop
      vertex -18.3848 -18.3848 50
      vertex -21.0344 -15.2824 0
      vertex -21.0344 -15.2824 50
    endloop
  endfacet
  facet normal 0.760406 0.649448 0
    outer loop
      vertex -21.0344 -15.2824 0
      vertex -18.3848 -18.3848 50
      vertex -18.3848 -18.3848 0
    endloop
  endfacet
  facet normal -0.97237 -0.233446 0
    outer loop
      vertex 25.6799 4.0673 0
      vertex 24.7275 8.03444 50
      vertex 24.7275 8.03444 0
    endloop
  endfacet
  facet normal -0.97237 -0.233446 0
    outer loop
      vertex 24.7275 8.03444 50
      vertex 25.6799 4.0673 0
      vertex 25.6799 4.0673 50
    endloop
  endfacet
  facet normal -0.382683 -0.92388 0
    outer loop
      vertex 8.03444 24.7275 0
      vertex 11.8038 23.1662 50
      vertex 8.03444 24.7275 50
    endloop
  endfacet
  facet normal -0.382683 -0.92388 -0
    outer loop
      vertex 11.8038 23.1662 50
      vertex 8.03444 24.7275 0
      vertex 11.8038 23.1662 0
    endloop
  endfacet
  facet normal -0.233446 -0.97237 0
    outer loop
      vertex 4.0673 25.6799 0
      vertex 8.03444 24.7275 50
      vertex 4.0673 25.6799 50
    endloop
  endfacet
  facet normal -0.233446 -0.97237 -0
    outer loop
      vertex 8.03444 24.7275 50
      vertex 4.0673 25.6799 0
      vertex 8.03444 24.7275 0
    endloop
  endfacet
  facet normal 0.92388 -0.382683 0
    outer loop
      vertex -24.7275 8.03444 50
      vertex -23.1662 11.8038 0
      vertex -23.1662 11.8038 50
    endloop
  endfacet
  facet normal 0.92388 -0.382683 0
    outer loop
      vertex -23.1662 11.8038 0
      vertex -24.7275 8.03444 50
      vertex -24.7275 8.03444 0
    endloop
  endfacet
  facet normal 0.97237 -0.233446 0
    outer loop
      vertex -25.6799 4.0673 50
      vertex -24.7275 8.03444 0
      vertex -24.7275 8.03444 50
    endloop
  endfacet
  facet normal 0.97237 -0.233446 0
    outer loop
      vertex -24.7275 8.03444 0
      vertex -25.6799 4.0673 50
      vertex -25.6799 4.0673 0
    endloop
  endfacet
  facet normal 0.233446 -0.97237 0
    outer loop
      vertex -8.03444 24.7275 0
      vertex -4.0673 25.6799 50
      vertex -8.03444 24.7275 50
    endloop
  endfacet
  facet normal 0.233446 -0.97237 0
    outer loop
      vertex -4.0673 25.6799 50
      vertex -8.03444 24.7275 0
      vertex -4.0673 25.6799 0
    endloop
  endfacet
  facet normal -0.996917 0.078459 0
    outer loop
      vertex 25.6799 -4.0673 0
      vertex 26 0 50
      vertex 26 0 0
    endloop
  endfacet
  facet normal -0.996917 0.078459 0
    outer loop
      vertex 26 0 50
      vertex 25.6799 -4.0673 0
      vertex 25.6799 -4.0673 50
    endloop
  endfacet
  facet normal -0.233446 0.97237 0
    outer loop
      vertex 8.03444 -24.7275 0
      vertex 4.0673 -25.6799 50
      vertex 8.03444 -24.7275 50
    endloop
  endfacet
  facet normal -0.233446 0.97237 0
    outer loop
      vertex 4.0673 -25.6799 50
      vertex 8.03444 -24.7275 0
      vertex 4.0673 -25.6799 0
    endloop
  endfacet
  facet normal 0.382683 0.92388 -0
    outer loop
      vertex -8.03444 -24.7275 0
      vertex -11.8038 -23.1662 50
      vertex -8.03444 -24.7275 50
    endloop
  endfacet
  facet normal 0.382683 0.92388 0
    outer loop
      vertex -11.8038 -23.1662 50
      vertex -8.03444 -24.7275 0
      vertex -11.8038 -23.1662 0
    endloop
  endfacet
  facet normal 0.522498 0.85264 -0
    outer loop
      vertex -11.8038 -23.1662 0
      vertex -15.2824 -21.0344 50
      vertex -11.8038 -23.1662 50
    endloop
  endfacet
  facet normal 0.522498 0.85264 0
    outer loop
      vertex -15.2824 -21.0344 50
      vertex -11.8038 -23.1662 0
      vertex -15.2824 -21.0344 0
    endloop
  endfacet
  facet normal 0.97237 0.233446 0
    outer loop
      vertex -24.7275 -8.03444 50
      vertex -25.6799 -4.0673 0
      vertex -25.6799 -4.0673 50
    endloop
  endfacet
  facet normal 0.97237 0.233446 0
    outer loop
      vertex -25.6799 -4.0673 0
      vertex -24.7275 -8.03444 50
      vertex -24.7275 -8.03444 0
    endloop
  endfacet
  facet normal -0.97237 0.233446 0
    outer loop
      vertex 24.7275 -8.03444 0
      vertex 25.6799 -4.0673 50
      vertex 25.6799 -4.0673 0
    endloop
  endfacet
  facet normal -0.97237 0.233446 0
    outer loop
      vertex 25.6799 -4.0673 50
      vertex 24.7275 -8.03444 0
      vertex 24.7275 -8.03444 50
    endloop
  endfacet
  facet normal -0.85264 0.522498 0
    outer loop
      vertex 21.0344 -15.2824 0
      vertex 23.1662 -11.8038 50
      vertex 23.1662 -11.8038 0
    endloop
  endfacet
  facet normal -0.85264 0.522498 0
    outer loop
      vertex 23.1662 -11.8038 50
      vertex 21.0344 -15.2824 0
      vertex 21.0344 -15.2824 50
    endloop
  endfacet
  facet normal 0.233446 0.97237 -0
    outer loop
      vertex -4.0673 -25.6799 0
      vertex -8.03444 -24.7275 50
      vertex -4.0673 -25.6799 50
    endloop
  endfacet
  facet normal 0.233446 0.97237 0
    outer loop
      vertex -8.03444 -24.7275 50
      vertex -4.0673 -25.6799 0
      vertex -8.03444 -24.7275 0
    endloop
  endfacet
endsolid OpenSCAD_Model
