solid OpenSCAD_Model
  facet normal 1 0 0
    outer loop
      vertex 0.5 0.875 28.25
      vertex 0.5 14.9178 0
      vertex 0.5 15 0
    endloop
  endfacet
  facet normal 1 0 0
    outer loop
      vertex 0.5 0.866025 0
      vertex 0.5 0.875 28.25
      vertex 0.5 0.866025 28.25
    endloop
  endfacet
  facet normal 1 0 0
    outer loop
      vertex 0.5 0.875 28.25
      vertex 0.5 0.866025 0
      vertex 0.5 14.9178 0
    endloop
  endfacet
  facet normal 1 -0 0
    outer loop
      vertex 0.5 -0.875 28.25
      vertex 0.5 -0.866025 0
      vertex 0.5 -0.866024 28.25
    endloop
  endfacet
  facet normal 1 0 0
    outer loop
      vertex 0.5 -0.875 28.25
      vertex 0.5 -14.9178 0
      vertex 0.5 -0.866025 0
    endloop
  endfacet
  facet normal 1 0 -0
    outer loop
      vertex 0.5 -14.9178 0
      vertex 0.5 -0.875 28.25
      vertex 0.5 -15 0
    endloop
  endfacet
  facet normal 0 -0.894427 0.447214
    outer loop
      vertex -0.5 -15 0
      vertex 0.5 -0.875 28.25
      vertex -0.499999 -0.875 28.25
    endloop
  endfacet
  facet normal 0 -0.894427 0.447214
    outer loop
      vertex 0.5 -0.875 28.25
      vertex -0.5 -15 0
      vertex 0.5 -15 0
    endloop
  endfacet
  facet normal 0 0 1
    outer loop
      vertex 1 -2.0717e-016 0
      vertex 15 0 0
      vertex 14.6722 3.11868 0
    endloop
  endfacet
  facet normal 0 0 1
    outer loop
      vertex 1 -2.0717e-016 0
      vertex 14.6722 3.11868 0
      vertex 13.7032 6.10105 0
    endloop
  endfacet
  facet normal 0 0 1
    outer loop
      vertex 15 0 0
      vertex 1 -2.0717e-016 0
      vertex 14.6722 -3.11868 0
    endloop
  endfacet
  facet normal 0 0 1
    outer loop
      vertex 1 -2.0717e-016 0
      vertex 13.7032 6.10105 0
      vertex 13.1692 7.0259 0
    endloop
  endfacet
  facet normal 0 0 1
    outer loop
      vertex 14.6722 -3.11868 0
      vertex 1 -2.0717e-016 0
      vertex 13.7032 -6.10105 0
    endloop
  endfacet
  facet normal 0 0 1
    outer loop
      vertex 13.7032 -6.10105 0
      vertex 1 -2.0717e-016 0
      vertex 13.1692 -7.0259 0
    endloop
  endfacet
  facet normal 0 0 1
    outer loop
      vertex 0.5 0.866025 0
      vertex 12.1353 8.81678 0
      vertex 10.037 11.1472 0
    endloop
  endfacet
  facet normal 0 0 1
    outer loop
      vertex 0.5 0.866025 0
      vertex 10.037 11.1472 0
      vertex 7.5 12.9904 0
    endloop
  endfacet
  facet normal 0 0 1
    outer loop
      vertex 0.5 0.866025 0
      vertex 7.5 12.9904 0
      vertex 4.63525 14.2658 0
    endloop
  endfacet
  facet normal 0 0 1
    outer loop
      vertex 0.5 0.866025 0
      vertex 4.63525 14.2658 0
      vertex 1.56793 14.9178 0
    endloop
  endfacet
  facet normal 0 0 1
    outer loop
      vertex 0.5 0.866025 0
      vertex 1.56793 14.9178 0
      vertex 0.5 14.9178 0
    endloop
  endfacet
  facet normal 0 0 1
    outer loop
      vertex 12.1353 8.81678 0
      vertex 0.5 0.866025 0
      vertex 12.6692 7.89193 0
    endloop
  endfacet
  facet normal -0 0 1
    outer loop
      vertex -13.7032 6.10105 0
      vertex -1 2.0717e-016 0
      vertex -13.1692 7.0259 0
    endloop
  endfacet
  facet normal 0 0 1
    outer loop
      vertex -1 2.0717e-016 0
      vertex -13.7032 6.10105 0
      vertex -14.6722 3.11868 0
    endloop
  endfacet
  facet normal 0 0 1
    outer loop
      vertex -15 0 0
      vertex -1 2.0717e-016 0
      vertex -14.6722 3.11868 0
    endloop
  endfacet
  facet normal 0 -0 1
    outer loop
      vertex -14.6722 -3.11868 0
      vertex -1 2.0717e-016 0
      vertex -15 0 0
    endloop
  endfacet
  facet normal 0 0 1
    outer loop
      vertex -1 2.0717e-016 0
      vertex -13.7032 -6.10105 0
      vertex -13.1692 -7.0259 0
    endloop
  endfacet
  facet normal 0 -0 1
    outer loop
      vertex -13.7032 -6.10105 0
      vertex -1 2.0717e-016 0
      vertex -14.6722 -3.11868 0
    endloop
  endfacet
  facet normal 0 0 1
    outer loop
      vertex -0.5 -0.866025 0
      vertex -1.56793 -14.9178 0
      vertex -0.5 -14.9178 0
    endloop
  endfacet
  facet normal 0 0 1
    outer loop
      vertex -0.5 -0.866025 0
      vertex -4.63525 -14.2658 0
      vertex -1.56793 -14.9178 0
    endloop
  endfacet
  facet normal 0 0 1
    outer loop
      vertex -0.5 -0.866025 0
      vertex -7.5 -12.9904 0
      vertex -4.63525 -14.2658 0
    endloop
  endfacet
  facet normal 0 0 1
    outer loop
      vertex -0.5 -0.866025 0
      vertex -10.037 -11.1472 0
      vertex -7.5 -12.9904 0
    endloop
  endfacet
  facet normal 0 0 1
    outer loop
      vertex -0.5 -0.866025 0
      vertex -12.1353 -8.81678 0
      vertex -10.037 -11.1472 0
    endloop
  endfacet
  facet normal 0 -0 1
    outer loop
      vertex -12.1353 -8.81678 0
      vertex -0.5 -0.866025 0
      vertex -12.6692 -7.89193 0
    endloop
  endfacet
  facet normal -0 0 1
    outer loop
      vertex -1.56793 14.9178 0
      vertex -0.5 0.866025 0
      vertex -0.5 14.9178 0
    endloop
  endfacet
  facet normal -0 0 1
    outer loop
      vertex -4.63525 14.2658 0
      vertex -0.5 0.866025 0
      vertex -1.56793 14.9178 0
    endloop
  endfacet
  facet normal -0 0 1
    outer loop
      vertex -7.5 12.9904 0
      vertex -0.5 0.866025 0
      vertex -4.63525 14.2658 0
    endloop
  endfacet
  facet normal -0 0 1
    outer loop
      vertex -10.037 11.1472 0
      vertex -0.5 0.866025 0
      vertex -7.5 12.9904 0
    endloop
  endfacet
  facet normal -0 0 1
    outer loop
      vertex -12.1353 8.81678 0
      vertex -0.5 0.866025 0
      vertex -10.037 11.1472 0
    endloop
  endfacet
  facet normal 0 0 1
    outer loop
      vertex -0.5 0.866025 0
      vertex -12.1353 8.81678 0
      vertex -12.6692 7.89193 0
    endloop
  endfacet
  facet normal 0 0 1
    outer loop
      vertex 0.5 -0.866025 0
      vertex 12.1353 -8.81678 0
      vertex 12.6692 -7.89193 0
    endloop
  endfacet
  facet normal 0 0 1
    outer loop
      vertex 12.1353 -8.81678 0
      vertex 0.5 -0.866025 0
      vertex 10.037 -11.1472 0
    endloop
  endfacet
  facet normal 0 0 1
    outer loop
      vertex 10.037 -11.1472 0
      vertex 0.5 -0.866025 0
      vertex 7.5 -12.9904 0
    endloop
  endfacet
  facet normal 0 0 1
    outer loop
      vertex 7.5 -12.9904 0
      vertex 0.5 -0.866025 0
      vertex 4.63525 -14.2658 0
    endloop
  endfacet
  facet normal 0 0 1
    outer loop
      vertex 4.63525 -14.2658 0
      vertex 0.5 -0.866025 0
      vertex 1.56793 -14.9178 0
    endloop
  endfacet
  facet normal 0 0 1
    outer loop
      vertex 1.56793 -14.9178 0
      vertex 0.5 -0.866025 0
      vertex 0.5 -14.9178 0
    endloop
  endfacet
  facet normal 0 0 -1
    outer loop
      vertex -12.7404 -7.93301 0
      vertex -13.1692 -7.0259 0
      vertex -12.6692 -7.89193 0
    endloop
  endfacet
  facet normal 0 -0 -1
    outer loop
      vertex -13.1692 -7.0259 0
      vertex -12.7404 -7.93301 0
      vertex -13.2404 -7.06699 0
    endloop
  endfacet
  facet normal 0 0 -1
    outer loop
      vertex 13.1692 7.0259 0
      vertex 12.7404 7.93301 0
      vertex 13.2404 7.06699 0
    endloop
  endfacet
  facet normal 0 -0 -1
    outer loop
      vertex 12.7404 7.93301 0
      vertex 13.1692 7.0259 0
      vertex 12.6692 7.89193 0
    endloop
  endfacet
  facet normal 0 0 -1
    outer loop
      vertex -13.1692 7.0259 0
      vertex -12.7404 7.93301 0
      vertex -12.6692 7.89193 0
    endloop
  endfacet
  facet normal 0 0 -1
    outer loop
      vertex -12.7404 7.93301 0
      vertex -13.1692 7.0259 0
      vertex -13.2404 7.06699 0
    endloop
  endfacet
  facet normal 0 0 -1
    outer loop
      vertex 12.7404 -7.93301 0
      vertex 13.1692 -7.0259 0
      vertex 13.2404 -7.06699 0
    endloop
  endfacet
  facet normal 0 0 -1
    outer loop
      vertex 13.1692 -7.0259 0
      vertex 12.7404 -7.93301 0
      vertex 12.6692 -7.89193 0
    endloop
  endfacet
  facet normal 0 0 -1
    outer loop
      vertex -0.5 14.9178 0
      vertex 0.5 15 0
      vertex 0.5 14.9178 0
    endloop
  endfacet
  facet normal -0 0 -1
    outer loop
      vertex 0.5 15 0
      vertex -0.5 14.9178 0
      vertex -0.5 15 0
    endloop
  endfacet
  facet normal 0 0 -1
    outer loop
      vertex -0.5 -15 0
      vertex 0.5 -14.9178 0
      vertex 0.5 -15 0
    endloop
  endfacet
  facet normal -0 0 -1
    outer loop
      vertex 0.5 -14.9178 0
      vertex -0.5 -15 0
      vertex -0.5 -14.9178 0
    endloop
  endfacet
  facet normal 0 0.894427 0.447214
    outer loop
      vertex 0.5 15 0
      vertex -0.499999 0.875 28.25
      vertex 0.5 0.875 28.25
    endloop
  endfacet
  facet normal 0 0.894427 0.447214
    outer loop
      vertex -0.499999 0.875 28.25
      vertex 0.5 15 0
      vertex -0.5 15 0
    endloop
  endfacet
  facet normal -1 0 3.16485e-008
    outer loop
      vertex -0.5 -0.866025 0
      vertex -0.499999 -0.875 28.25
      vertex -0.499999 -0.866024 28.25
    endloop
  endfacet
  facet normal -1 0 3.16485e-008
    outer loop
      vertex -0.5 -14.9178 0
      vertex -0.499999 -0.875 28.25
      vertex -0.5 -0.866025 0
    endloop
  endfacet
  facet normal -1 0 3.16485e-008
    outer loop
      vertex -0.499999 -0.875 28.25
      vertex -0.5 -14.9178 0
      vertex -0.5 -15 0
    endloop
  endfacet
  facet normal -1 0 3.16485e-008
    outer loop
      vertex -0.5 14.9178 0
      vertex -0.499999 0.875 28.25
      vertex -0.5 15 0
    endloop
  endfacet
  facet normal -1 0 3.16485e-008
    outer loop
      vertex -0.5 0.866025 0
      vertex -0.499999 0.875 28.25
      vertex -0.5 14.9178 0
    endloop
  endfacet
  facet normal -1 0 3.16485e-008
    outer loop
      vertex -0.499999 0.875 28.25
      vertex -0.5 0.866025 0
      vertex -0.499999 0.866025 28.25
    endloop
  endfacet
  facet normal 0 0 1
    outer loop
      vertex -0.999999 5.18486e-007 28.25
      vertex -0.499999 0.866025 28.25
      vertex -0.507772 0.870513 28.25
    endloop
  endfacet
  facet normal 0 0 1
    outer loop
      vertex -0.499999 0.866025 28.25
      vertex -0.999999 5.18486e-007 28.25
      vertex -0.499999 -0.866024 28.25
    endloop
  endfacet
  facet normal 0 0 1
    outer loop
      vertex -0.499999 -0.866024 28.25
      vertex -0.999999 5.18486e-007 28.25
      vertex -0.507773 -0.870512 28.25
    endloop
  endfacet
  facet normal 0 -0 1
    outer loop
      vertex -0.999999 5.18486e-007 28.25
      vertex -0.507772 0.870513 28.25
      vertex -1.00777 0.00448808 28.25
    endloop
  endfacet
  facet normal 0 0 1
    outer loop
      vertex -0.499999 0.866025 28.25
      vertex 0.5 0.866025 28.25
      vertex 0.5 0.875 28.25
    endloop
  endfacet
  facet normal 0 0 1
    outer loop
      vertex 0.5 0.866025 28.25
      vertex -0.499999 0.866025 28.25
      vertex 0.5 -0.866024 28.25
    endloop
  endfacet
  facet normal 0 0 1
    outer loop
      vertex -0.499999 0.866025 28.25
      vertex 0.5 0.875 28.25
      vertex -0.499999 0.875 28.25
    endloop
  endfacet
  facet normal -0 0 1
    outer loop
      vertex -0.499999 -0.866024 28.25
      vertex 0.5 -0.866024 28.25
      vertex -0.499999 0.866025 28.25
    endloop
  endfacet
  facet normal 0 0 1
    outer loop
      vertex 0.5 -0.866024 28.25
      vertex -0.499999 -0.866024 28.25
      vertex 0.5 -0.875 28.25
    endloop
  endfacet
  facet normal 0 0 1
    outer loop
      vertex 0.5 -0.875 28.25
      vertex -0.499999 -0.866024 28.25
      vertex -0.499999 -0.875 28.25
    endloop
  endfacet
  facet normal 0 0 1
    outer loop
      vertex 0.507772 0.870513 28.25
      vertex 0.999999 5.18486e-007 28.25
      vertex 1.00777 0.00448808 28.25
    endloop
  endfacet
  facet normal -0 0 1
    outer loop
      vertex 0.5 0.866025 28.25
      vertex 0.999999 5.18486e-007 28.25
      vertex 0.507772 0.870513 28.25
    endloop
  endfacet
  facet normal 0 0 1
    outer loop
      vertex 0.5 -0.866024 28.25
      vertex 0.999999 5.18486e-007 28.25
      vertex 0.5 0.866025 28.25
    endloop
  endfacet
  facet normal 0 0 1
    outer loop
      vertex 0.999999 5.18486e-007 28.25
      vertex 0.5 -0.866024 28.25
      vertex 0.507773 -0.870512 28.25
    endloop
  endfacet
  facet normal 0 0 1
    outer loop
      vertex 1.00777 -0.0044873 28.25
      vertex 0.999999 5.18486e-007 28.25
      vertex 0.507773 -0.870512 28.25
    endloop
  endfacet
  facet normal 0 0 1
    outer loop
      vertex -0.507773 -0.870512 28.25
      vertex -0.999999 5.18486e-007 28.25
      vertex -1.00777 -0.0044873 28.25
    endloop
  endfacet
  facet normal 0.500001 0.866025 -1.20647e-009
    outer loop
      vertex -0.5 0.866025 0
      vertex -0.507772 0.870513 28.25
      vertex -0.499999 0.866025 28.25
    endloop
  endfacet
  facet normal 0.5 0.866025 -1.52342e-009
    outer loop
      vertex -12.6692 7.89193 0
      vertex -0.507772 0.870513 28.25
      vertex -0.5 0.866025 0
    endloop
  endfacet
  facet normal 0.499997 0.866027 1.8841e-006
    outer loop
      vertex -0.507772 0.870513 28.25
      vertex -12.6692 7.89193 0
      vertex -12.7404 7.93301 0
    endloop
  endfacet
  facet normal 0.500001 0.866025 6.14687e-007
    outer loop
      vertex 13.1692 -7.0259 0
      vertex 1.00777 -0.0044873 28.25
      vertex 13.2404 -7.06699 0
    endloop
  endfacet
  facet normal 0.5 0.866025 3.683e-010
    outer loop
      vertex 1 -2.0717e-016 0
      vertex 1.00777 -0.0044873 28.25
      vertex 13.1692 -7.0259 0
    endloop
  endfacet
  facet normal 0.500001 0.866025 -7.0279e-011
    outer loop
      vertex 1.00777 -0.0044873 28.25
      vertex 1 -2.0717e-016 0
      vertex 0.999999 5.18486e-007 28.25
    endloop
  endfacet
  facet normal 0.774597 -0.447214 0.447214
    outer loop
      vertex 0.507773 -0.870512 28.25
      vertex 13.2404 -7.06699 0
      vertex 1.00777 -0.0044873 28.25
    endloop
  endfacet
  facet normal 0.774597 -0.447214 0.447214
    outer loop
      vertex 13.2404 -7.06699 0
      vertex 0.507773 -0.870512 28.25
      vertex 12.7404 -7.93301 0
    endloop
  endfacet
  facet normal -0.774597 0.447214 0.447214
    outer loop
      vertex -13.2404 7.06699 0
      vertex -0.507772 0.870513 28.25
      vertex -12.7404 7.93301 0
    endloop
  endfacet
  facet normal -0.774597 0.447214 0.447214
    outer loop
      vertex -0.507772 0.870513 28.25
      vertex -13.2404 7.06699 0
      vertex -1.00777 0.00448808 28.25
    endloop
  endfacet
  facet normal -0.500001 -0.866025 3.10628e-008
    outer loop
      vertex 0.5 -0.866025 0
      vertex 0.507773 -0.870512 28.25
      vertex 0.5 -0.866024 28.25
    endloop
  endfacet
  facet normal -0.5 -0.866025 3.06701e-008
    outer loop
      vertex 12.6692 -7.89193 0
      vertex 0.507773 -0.870512 28.25
      vertex 0.5 -0.866025 0
    endloop
  endfacet
  facet normal -0.499997 -0.866027 1.91629e-006
    outer loop
      vertex 0.507773 -0.870512 28.25
      vertex 12.6692 -7.89193 0
      vertex 12.7404 -7.93301 0
    endloop
  endfacet
  facet normal -0.500001 -0.866025 6.46966e-007
    outer loop
      vertex -13.1692 7.0259 0
      vertex -1.00777 0.00448808 28.25
      vertex -13.2404 7.06699 0
    endloop
  endfacet
  facet normal -0.5 -0.866025 3.26475e-008
    outer loop
      vertex -1 2.0717e-016 0
      vertex -1.00777 0.00448808 28.25
      vertex -13.1692 7.0259 0
    endloop
  endfacet
  facet normal -0.500003 -0.866024 3.17189e-008
    outer loop
      vertex -1.00777 0.00448808 28.25
      vertex -1 2.0717e-016 0
      vertex -0.999999 5.18486e-007 28.25
    endloop
  endfacet
  facet normal -0.500001 0.866025 -7.0279e-011
    outer loop
      vertex -1 2.0717e-016 0
      vertex -1.00777 -0.0044873 28.25
      vertex -0.999999 5.18486e-007 28.25
    endloop
  endfacet
  facet normal -0.5 0.866025 3.683e-010
    outer loop
      vertex -13.1692 -7.0259 0
      vertex -1.00777 -0.0044873 28.25
      vertex -1 2.0717e-016 0
    endloop
  endfacet
  facet normal -0.500001 0.866025 6.14687e-007
    outer loop
      vertex -1.00777 -0.0044873 28.25
      vertex -13.1692 -7.0259 0
      vertex -13.2404 -7.06699 0
    endloop
  endfacet
  facet normal -0.499997 0.866027 1.8841e-006
    outer loop
      vertex 12.6692 7.89193 0
      vertex 0.507772 0.870513 28.25
      vertex 12.7404 7.93301 0
    endloop
  endfacet
  facet normal -0.5 0.866025 -1.52342e-009
    outer loop
      vertex 0.5 0.866025 0
      vertex 0.507772 0.870513 28.25
      vertex 12.6692 7.89193 0
    endloop
  endfacet
  facet normal -0.500004 0.866023 0
    outer loop
      vertex 0.507772 0.870513 28.25
      vertex 0.5 0.866025 0
      vertex 0.5 0.866025 28.25
    endloop
  endfacet
  facet normal 0.774597 0.447214 0.447214
    outer loop
      vertex 0.507772 0.870513 28.25
      vertex 13.2404 7.06699 0
      vertex 12.7404 7.93301 0
    endloop
  endfacet
  facet normal 0.774597 0.447214 0.447214
    outer loop
      vertex 13.2404 7.06699 0
      vertex 0.507772 0.870513 28.25
      vertex 1.00777 0.00448808 28.25
    endloop
  endfacet
  facet normal -0.774597 -0.447214 0.447214
    outer loop
      vertex -13.2404 -7.06699 0
      vertex -0.507773 -0.870512 28.25
      vertex -1.00777 -0.0044873 28.25
    endloop
  endfacet
  facet normal -0.774597 -0.447214 0.447214
    outer loop
      vertex -0.507773 -0.870512 28.25
      vertex -13.2404 -7.06699 0
      vertex -12.7404 -7.93301 0
    endloop
  endfacet
  facet normal 0.500003 -0.866024 3.17189e-008
    outer loop
      vertex 1 -2.0717e-016 0
      vertex 1.00777 0.00448808 28.25
      vertex 0.999999 5.18486e-007 28.25
    endloop
  endfacet
  facet normal 0.5 -0.866025 3.26475e-008
    outer loop
      vertex 13.1692 7.0259 0
      vertex 1.00777 0.00448808 28.25
      vertex 1 -2.0717e-016 0
    endloop
  endfacet
  facet normal 0.500001 -0.866025 6.46966e-007
    outer loop
      vertex 1.00777 0.00448808 28.25
      vertex 13.1692 7.0259 0
      vertex 13.2404 7.06699 0
    endloop
  endfacet
  facet normal 0.499997 -0.866027 1.91629e-006
    outer loop
      vertex -12.6692 -7.89193 0
      vertex -0.507773 -0.870512 28.25
      vertex -12.7404 -7.93301 0
    endloop
  endfacet
  facet normal 0.5 -0.866025 3.06701e-008
    outer loop
      vertex -0.5 -0.866025 0
      vertex -0.507773 -0.870512 28.25
      vertex -12.6692 -7.89193 0
    endloop
  endfacet
  facet normal 0.500003 -0.866024 3.16835e-008
    outer loop
      vertex -0.507773 -0.870512 28.25
      vertex -0.5 -0.866025 0
      vertex -0.499999 -0.866024 28.25
    endloop
  endfacet
  facet normal 0.866025 0.5 0
    outer loop
      vertex 12.6692 7.89193 0
      vertex 12.1353 8.81678 -1
      vertex 12.1353 8.81678 0
    endloop
  endfacet
  facet normal 0.866025 0.5 -1.36129e-008
    outer loop
      vertex 13.1692 7.0259 0
      vertex 12.1353 8.81678 -1
      vertex 12.6692 7.89193 0
    endloop
  endfacet
  facet normal 0.866026 0.5 -0
    outer loop
      vertex 13.7032 6.10105 -1
      vertex 13.1692 7.0259 0
      vertex 13.7032 6.10105 0
    endloop
  endfacet
  facet normal 0.866025 0.5 -1.52883e-007
    outer loop
      vertex 13.1692 7.0259 0
      vertex 13.7032 6.10105 -1
      vertex 12.1353 8.81678 -1
    endloop
  endfacet
  facet normal 0.743145 0.669131 0
    outer loop
      vertex 12.1353 8.81678 0
      vertex 10.037 11.1472 -1
      vertex 10.037 11.1472 0
    endloop
  endfacet
  facet normal 0.743145 0.669131 0
    outer loop
      vertex 10.037 11.1472 -1
      vertex 12.1353 8.81678 0
      vertex 12.1353 8.81678 -1
    endloop
  endfacet
  facet normal 0.207912 0.978148 -0
    outer loop
      vertex 4.63525 14.2658 -1
      vertex 1.56793 14.9178 0
      vertex 4.63525 14.2658 0
    endloop
  endfacet
  facet normal 0.207912 0.978148 0
    outer loop
      vertex 1.56793 14.9178 0
      vertex 4.63525 14.2658 -1
      vertex 1.56793 14.9178 -1
    endloop
  endfacet
  facet normal 0.406737 0.913545 -0
    outer loop
      vertex 7.5 12.9904 -1
      vertex 4.63525 14.2658 0
      vertex 7.5 12.9904 0
    endloop
  endfacet
  facet normal 0.406737 0.913545 0
    outer loop
      vertex 4.63525 14.2658 0
      vertex 7.5 12.9904 -1
      vertex 4.63525 14.2658 -1
    endloop
  endfacet
  facet normal -0.207912 0.978148 0
    outer loop
      vertex -1.56793 14.9178 -1
      vertex -4.63525 14.2658 0
      vertex -1.56793 14.9178 0
    endloop
  endfacet
  facet normal -0.207912 0.978148 0
    outer loop
      vertex -4.63525 14.2658 0
      vertex -1.56793 14.9178 -1
      vertex -4.63525 14.2658 -1
    endloop
  endfacet
  facet normal -0.866025 0.5 0
    outer loop
      vertex -12.1353 8.81678 -1
      vertex -12.6692 7.89193 0
      vertex -12.1353 8.81678 0
    endloop
  endfacet
  facet normal -0.866025 0.5 -1.36129e-008
    outer loop
      vertex -12.1353 8.81678 -1
      vertex -13.1692 7.0259 0
      vertex -12.6692 7.89193 0
    endloop
  endfacet
  facet normal -0.866025 0.5 -1.52883e-007
    outer loop
      vertex -13.7032 6.10105 -1
      vertex -13.1692 7.0259 0
      vertex -12.1353 8.81678 -1
    endloop
  endfacet
  facet normal -0.866026 0.5 0
    outer loop
      vertex -13.1692 7.0259 0
      vertex -13.7032 6.10105 -1
      vertex -13.7032 6.10105 0
    endloop
  endfacet
  facet normal 0.994522 -0.104529 0
    outer loop
      vertex 14.6722 -3.11868 0
      vertex 15 0 -1
      vertex 15 0 0
    endloop
  endfacet
  facet normal 0.994522 -0.104529 0
    outer loop
      vertex 15 0 -1
      vertex 14.6722 -3.11868 0
      vertex 14.6722 -3.11868 -1
    endloop
  endfacet
  facet normal 0.951057 0.309017 0
    outer loop
      vertex 14.6722 3.11868 0
      vertex 13.7032 6.10105 -1
      vertex 13.7032 6.10105 0
    endloop
  endfacet
  facet normal 0.951057 0.309017 0
    outer loop
      vertex 13.7032 6.10105 -1
      vertex 14.6722 3.11868 0
      vertex 14.6722 3.11868 -1
    endloop
  endfacet
  facet normal 0 1 -0
    outer loop
      vertex 1.56793 14.9178 -1
      vertex 0.5 14.9178 0
      vertex 1.56793 14.9178 0
    endloop
  endfacet
  facet normal 0 1 0
    outer loop
      vertex 0.5 14.9178 0
      vertex 1.56793 14.9178 -1
      vertex -0.5 14.9178 0
    endloop
  endfacet
  facet normal 0 1 0
    outer loop
      vertex -1.56793 14.9178 -1
      vertex -0.5 14.9178 0
      vertex 1.56793 14.9178 -1
    endloop
  endfacet
  facet normal 0 1 0
    outer loop
      vertex -0.5 14.9178 0
      vertex -1.56793 14.9178 -1
      vertex -1.56793 14.9178 0
    endloop
  endfacet
  facet normal 0.587785 0.809017 -0
    outer loop
      vertex 10.037 11.1472 -1
      vertex 7.5 12.9904 0
      vertex 10.037 11.1472 0
    endloop
  endfacet
  facet normal 0.587785 0.809017 0
    outer loop
      vertex 7.5 12.9904 0
      vertex 10.037 11.1472 -1
      vertex 7.5 12.9904 -1
    endloop
  endfacet
  facet normal -0.994522 0.104529 0
    outer loop
      vertex -15 0 -1
      vertex -14.6722 3.11868 0
      vertex -14.6722 3.11868 -1
    endloop
  endfacet
  facet normal -0.994522 0.104529 0
    outer loop
      vertex -14.6722 3.11868 0
      vertex -15 0 -1
      vertex -15 0 0
    endloop
  endfacet
  facet normal -0.743145 0.669131 0
    outer loop
      vertex -12.1353 8.81678 -1
      vertex -10.037 11.1472 0
      vertex -10.037 11.1472 -1
    endloop
  endfacet
  facet normal -0.743145 0.669131 0
    outer loop
      vertex -10.037 11.1472 0
      vertex -12.1353 8.81678 -1
      vertex -12.1353 8.81678 0
    endloop
  endfacet
  facet normal -0.406737 0.913545 0
    outer loop
      vertex -4.63525 14.2658 -1
      vertex -7.5 12.9904 0
      vertex -4.63525 14.2658 0
    endloop
  endfacet
  facet normal -0.406737 0.913545 0
    outer loop
      vertex -7.5 12.9904 0
      vertex -4.63525 14.2658 -1
      vertex -7.5 12.9904 -1
    endloop
  endfacet
  facet normal -0.587785 0.809017 0
    outer loop
      vertex -7.5 12.9904 -1
      vertex -10.037 11.1472 0
      vertex -7.5 12.9904 0
    endloop
  endfacet
  facet normal -0.587785 0.809017 0
    outer loop
      vertex -10.037 11.1472 0
      vertex -7.5 12.9904 -1
      vertex -10.037 11.1472 -1
    endloop
  endfacet
  facet normal 0.994522 0.104529 0
    outer loop
      vertex 15 0 0
      vertex 14.6722 3.11868 -1
      vertex 14.6722 3.11868 0
    endloop
  endfacet
  facet normal 0.994522 0.104529 0
    outer loop
      vertex 14.6722 3.11868 -1
      vertex 15 0 0
      vertex 15 0 -1
    endloop
  endfacet
  facet normal 0.951057 -0.309017 0
    outer loop
      vertex 13.7032 -6.10105 0
      vertex 14.6722 -3.11868 -1
      vertex 14.6722 -3.11868 0
    endloop
  endfacet
  facet normal 0.951057 -0.309017 0
    outer loop
      vertex 14.6722 -3.11868 -1
      vertex 13.7032 -6.10105 0
      vertex 13.7032 -6.10105 -1
    endloop
  endfacet
  facet normal -0.587785 -0.809017 0
    outer loop
      vertex -10.037 -11.1472 -1
      vertex -7.5 -12.9904 0
      vertex -10.037 -11.1472 0
    endloop
  endfacet
  facet normal -0.587785 -0.809017 -0
    outer loop
      vertex -7.5 -12.9904 0
      vertex -10.037 -11.1472 -1
      vertex -7.5 -12.9904 -1
    endloop
  endfacet
  facet normal -0.866026 -0.5 0
    outer loop
      vertex -13.7032 -6.10105 -1
      vertex -13.1692 -7.0259 0
      vertex -13.7032 -6.10105 0
    endloop
  endfacet
  facet normal -0.866025 -0.5 -2.24806e-007
    outer loop
      vertex -13.7032 -6.10105 -1
      vertex -12.6692 -7.89193 0
      vertex -13.1692 -7.0259 0
    endloop
  endfacet
  facet normal -0.866025 -0.5 -8.55354e-008
    outer loop
      vertex -12.1353 -8.81678 -1
      vertex -12.6692 -7.89193 0
      vertex -13.7032 -6.10105 -1
    endloop
  endfacet
  facet normal -0.866025 -0.5 0
    outer loop
      vertex -12.6692 -7.89193 0
      vertex -12.1353 -8.81678 -1
      vertex -12.1353 -8.81678 0
    endloop
  endfacet
  facet normal 0.587785 -0.809017 0
    outer loop
      vertex 7.5 -12.9904 -1
      vertex 10.037 -11.1472 0
      vertex 7.5 -12.9904 0
    endloop
  endfacet
  facet normal 0.587785 -0.809017 0
    outer loop
      vertex 10.037 -11.1472 0
      vertex 7.5 -12.9904 -1
      vertex 10.037 -11.1472 -1
    endloop
  endfacet
  facet normal -0.951057 0.309017 0
    outer loop
      vertex -14.6722 3.11868 -1
      vertex -13.7032 6.10105 0
      vertex -13.7032 6.10105 -1
    endloop
  endfacet
  facet normal -0.951057 0.309017 0
    outer loop
      vertex -13.7032 6.10105 0
      vertex -14.6722 3.11868 -1
      vertex -14.6722 3.11868 0
    endloop
  endfacet
  facet normal 0.866026 -0.5 0
    outer loop
      vertex 13.1692 -7.0259 0
      vertex 13.7032 -6.10105 -1
      vertex 13.7032 -6.10105 0
    endloop
  endfacet
  facet normal 0.866025 -0.5 -2.24806e-007
    outer loop
      vertex 12.6692 -7.89193 0
      vertex 13.7032 -6.10105 -1
      vertex 13.1692 -7.0259 0
    endloop
  endfacet
  facet normal 0.866025 -0.5 0
    outer loop
      vertex 12.1353 -8.81678 -1
      vertex 12.6692 -7.89193 0
      vertex 12.1353 -8.81678 0
    endloop
  endfacet
  facet normal 0.866025 -0.5 -8.55354e-008
    outer loop
      vertex 12.6692 -7.89193 0
      vertex 12.1353 -8.81678 -1
      vertex 13.7032 -6.10105 -1
    endloop
  endfacet
  facet normal 0 -1 0
    outer loop
      vertex -1.56793 -14.9178 -1
      vertex -0.5 -14.9178 0
      vertex -1.56793 -14.9178 0
    endloop
  endfacet
  facet normal 0 -1 -0
    outer loop
      vertex -0.5 -14.9178 0
      vertex -1.56793 -14.9178 -1
      vertex 0.5 -14.9178 0
    endloop
  endfacet
  facet normal 0 -1 0
    outer loop
      vertex 1.56793 -14.9178 -1
      vertex 0.5 -14.9178 0
      vertex -1.56793 -14.9178 -1
    endloop
  endfacet
  facet normal 0 -1 0
    outer loop
      vertex 0.5 -14.9178 0
      vertex 1.56793 -14.9178 -1
      vertex 1.56793 -14.9178 0
    endloop
  endfacet
  facet normal 0 0 -1
    outer loop
      vertex 14.6722 -3.11868 -1
      vertex 14.6722 3.11868 -1
      vertex 15 0 -1
    endloop
  endfacet
  facet normal 0 0 -1
    outer loop
      vertex 13.7032 -6.10105 -1
      vertex 14.6722 3.11868 -1
      vertex 14.6722 -3.11868 -1
    endloop
  endfacet
  facet normal 0 0 -1
    outer loop
      vertex 13.7032 -6.10105 -1
      vertex 13.7032 6.10105 -1
      vertex 14.6722 3.11868 -1
    endloop
  endfacet
  facet normal 0 0 -1
    outer loop
      vertex 12.1353 -8.81678 -1
      vertex 13.7032 6.10105 -1
      vertex 13.7032 -6.10105 -1
    endloop
  endfacet
  facet normal 0 0 -1
    outer loop
      vertex 12.1353 -8.81678 -1
      vertex 12.1353 8.81678 -1
      vertex 13.7032 6.10105 -1
    endloop
  endfacet
  facet normal 0 0 -1
    outer loop
      vertex 10.037 -11.1472 -1
      vertex 12.1353 8.81678 -1
      vertex 12.1353 -8.81678 -1
    endloop
  endfacet
  facet normal 0 0 -1
    outer loop
      vertex 10.037 -11.1472 -1
      vertex 10.037 11.1472 -1
      vertex 12.1353 8.81678 -1
    endloop
  endfacet
  facet normal 0 0 -1
    outer loop
      vertex 7.5 -12.9904 -1
      vertex 10.037 11.1472 -1
      vertex 10.037 -11.1472 -1
    endloop
  endfacet
  facet normal 0 0 -1
    outer loop
      vertex 7.5 -12.9904 -1
      vertex 7.5 12.9904 -1
      vertex 10.037 11.1472 -1
    endloop
  endfacet
  facet normal 0 0 -1
    outer loop
      vertex 4.63525 -14.2658 -1
      vertex 7.5 12.9904 -1
      vertex 7.5 -12.9904 -1
    endloop
  endfacet
  facet normal 0 0 -1
    outer loop
      vertex 4.63525 -14.2658 -1
      vertex 4.63525 14.2658 -1
      vertex 7.5 12.9904 -1
    endloop
  endfacet
  facet normal 0 0 -1
    outer loop
      vertex 1.56793 -14.9178 -1
      vertex 4.63525 14.2658 -1
      vertex 4.63525 -14.2658 -1
    endloop
  endfacet
  facet normal 0 0 -1
    outer loop
      vertex 1.56793 -14.9178 -1
      vertex 1.56793 14.9178 -1
      vertex 4.63525 14.2658 -1
    endloop
  endfacet
  facet normal 0 0 -1
    outer loop
      vertex -1.56793 -14.9178 -1
      vertex 1.56793 14.9178 -1
      vertex 1.56793 -14.9178 -1
    endloop
  endfacet
  facet normal 0 0 -1
    outer loop
      vertex -1.56793 -14.9178 -1
      vertex -1.56793 14.9178 -1
      vertex 1.56793 14.9178 -1
    endloop
  endfacet
  facet normal 0 0 -1
    outer loop
      vertex -4.63525 -14.2658 -1
      vertex -1.56793 14.9178 -1
      vertex -1.56793 -14.9178 -1
    endloop
  endfacet
  facet normal 0 0 -1
    outer loop
      vertex -4.63525 -14.2658 -1
      vertex -4.63525 14.2658 -1
      vertex -1.56793 14.9178 -1
    endloop
  endfacet
  facet normal 0 0 -1
    outer loop
      vertex -4.63525 -14.2658 -1
      vertex -7.5 12.9904 -1
      vertex -4.63525 14.2658 -1
    endloop
  endfacet
  facet normal 0 0 -1
    outer loop
      vertex -7.5 -12.9904 -1
      vertex -7.5 12.9904 -1
      vertex -4.63525 -14.2658 -1
    endloop
  endfacet
  facet normal 0 0 -1
    outer loop
      vertex -10.037 -11.1472 -1
      vertex -7.5 12.9904 -1
      vertex -7.5 -12.9904 -1
    endloop
  endfacet
  facet normal 0 0 -1
    outer loop
      vertex -10.037 -11.1472 -1
      vertex -10.037 11.1472 -1
      vertex -7.5 12.9904 -1
    endloop
  endfacet
  facet normal 0 0 -1
    outer loop
      vertex -12.1353 -8.81678 -1
      vertex -10.037 11.1472 -1
      vertex -10.037 -11.1472 -1
    endloop
  endfacet
  facet normal 0 0 -1
    outer loop
      vertex -12.1353 -8.81678 -1
      vertex -12.1353 8.81678 -1
      vertex -10.037 11.1472 -1
    endloop
  endfacet
  facet normal 0 0 -1
    outer loop
      vertex -13.7032 -6.10105 -1
      vertex -12.1353 8.81678 -1
      vertex -12.1353 -8.81678 -1
    endloop
  endfacet
  facet normal 0 0 -1
    outer loop
      vertex -13.7032 -6.10105 -1
      vertex -13.7032 6.10105 -1
      vertex -12.1353 8.81678 -1
    endloop
  endfacet
  facet normal 0 0 -1
    outer loop
      vertex -14.6722 -3.11868 -1
      vertex -13.7032 6.10105 -1
      vertex -13.7032 -6.10105 -1
    endloop
  endfacet
  facet normal 0 0 -1
    outer loop
      vertex -14.6722 -3.11868 -1
      vertex -14.6722 3.11868 -1
      vertex -13.7032 6.10105 -1
    endloop
  endfacet
  facet normal 0 -0 -1
    outer loop
      vertex -14.6722 3.11868 -1
      vertex -14.6722 -3.11868 -1
      vertex -15 0 -1
    endloop
  endfacet
  facet normal -0.743145 -0.669131 0
    outer loop
      vertex -10.037 -11.1472 -1
      vertex -12.1353 -8.81678 0
      vertex -12.1353 -8.81678 -1
    endloop
  endfacet
  facet normal -0.743145 -0.669131 0
    outer loop
      vertex -12.1353 -8.81678 0
      vertex -10.037 -11.1472 -1
      vertex -10.037 -11.1472 0
    endloop
  endfacet
  facet normal 0.207912 -0.978148 0
    outer loop
      vertex 1.56793 -14.9178 -1
      vertex 4.63525 -14.2658 0
      vertex 1.56793 -14.9178 0
    endloop
  endfacet
  facet normal 0.207912 -0.978148 0
    outer loop
      vertex 4.63525 -14.2658 0
      vertex 1.56793 -14.9178 -1
      vertex 4.63525 -14.2658 -1
    endloop
  endfacet
  facet normal 0.406737 -0.913545 0
    outer loop
      vertex 4.63525 -14.2658 -1
      vertex 7.5 -12.9904 0
      vertex 4.63525 -14.2658 0
    endloop
  endfacet
  facet normal 0.406737 -0.913545 0
    outer loop
      vertex 7.5 -12.9904 0
      vertex 4.63525 -14.2658 -1
      vertex 7.5 -12.9904 -1
    endloop
  endfacet
  facet normal -0.207912 -0.978148 0
    outer loop
      vertex -4.63525 -14.2658 -1
      vertex -1.56793 -14.9178 0
      vertex -4.63525 -14.2658 0
    endloop
  endfacet
  facet normal -0.207912 -0.978148 -0
    outer loop
      vertex -1.56793 -14.9178 0
      vertex -4.63525 -14.2658 -1
      vertex -1.56793 -14.9178 -1
    endloop
  endfacet
  facet normal -0.951057 -0.309017 0
    outer loop
      vertex -13.7032 -6.10105 -1
      vertex -14.6722 -3.11868 0
      vertex -14.6722 -3.11868 -1
    endloop
  endfacet
  facet normal -0.951057 -0.309017 0
    outer loop
      vertex -14.6722 -3.11868 0
      vertex -13.7032 -6.10105 -1
      vertex -13.7032 -6.10105 0
    endloop
  endfacet
  facet normal -0.994522 -0.104529 0
    outer loop
      vertex -14.6722 -3.11868 -1
      vertex -15 0 0
      vertex -15 0 -1
    endloop
  endfacet
  facet normal -0.994522 -0.104529 0
    outer loop
      vertex -15 0 0
      vertex -14.6722 -3.11868 -1
      vertex -14.6722 -3.11868 0
    endloop
  endfacet
  facet normal 0.743145 -0.669131 0
    outer loop
      vertex 10.037 -11.1472 0
      vertex 12.1353 -8.81678 -1
      vertex 12.1353 -8.81678 0
    endloop
  endfacet
  facet normal 0.743145 -0.669131 0
    outer loop
      vertex 12.1353 -8.81678 -1
      vertex 10.037 -11.1472 0
      vertex 10.037 -11.1472 -1
    endloop
  endfacet
  facet normal -0.406737 -0.913545 0
    outer loop
      vertex -7.5 -12.9904 -1
      vertex -4.63525 -14.2658 0
      vertex -7.5 -12.9904 0
    endloop
  endfacet
  facet normal -0.406737 -0.913545 -0
    outer loop
      vertex -4.63525 -14.2658 0
      vertex -7.5 -12.9904 -1
      vertex -4.63525 -14.2658 -1
    endloop
  endfacet
endsolid OpenSCAD_Model
