solid OpenSCAD_Model
  facet normal -1 0 0
    outer loop
      vertex -2 -3 0
      vertex -2 0 20
      vertex -2 0 0
    endloop
  endfacet
  facet normal -1 -0 0
    outer loop
      vertex -2 0 20
      vertex -2 -3 0
      vertex -2 -3 20
    endloop
  endfacet
  facet normal -1 0 0
    outer loop
      vertex -2 19 0
      vertex -2 22 20
      vertex -2 22 0
    endloop
  endfacet
  facet normal -1 -0 0
    outer loop
      vertex -2 22 20
      vertex -2 19 0
      vertex -2 19 20
    endloop
  endfacet
  facet normal 0 0 1
    outer loop
      vertex 32.4193 14.5842 20
      vertex 32.5129 13.4015 20
      vertex 32.9677 12.8964 20
    endloop
  endfacet
  facet normal 0 0 1
    outer loop
      vertex 32.4193 14.5842 20
      vertex 31.625 14.0466 20
      vertex 32.5129 13.4015 20
    endloop
  endfacet
  facet normal 0 0 1
    outer loop
      vertex 30.6223 14.493 20
      vertex 32.4193 14.5842 20
      vertex 31.1127 16.8473 20
    endloop
  endfacet
  facet normal 0 0 1
    outer loop
      vertex 32.4193 14.5842 20
      vertex 30.6223 14.493 20
      vertex 31.625 14.0466 20
    endloop
  endfacet
  facet normal 0 0 1
    outer loop
      vertex 31.1127 16.8473 20
      vertex 29.5488 14.7212 20
      vertex 30.6223 14.493 20
    endloop
  endfacet
  facet normal 0 0 1
    outer loop
      vertex 29.3641 18.7893 20
      vertex 29.5488 14.7212 20
      vertex 31.1127 16.8473 20
    endloop
  endfacet
  facet normal 0 0 1
    outer loop
      vertex 29.3641 18.7893 20
      vertex 28.4512 14.7212 20
      vertex 29.5488 14.7212 20
    endloop
  endfacet
  facet normal 0 0 1
    outer loop
      vertex 29.3641 18.7893 20
      vertex 27.3777 14.493 20
      vertex 28.4512 14.7212 20
    endloop
  endfacet
  facet normal 0 0 1
    outer loop
      vertex 27.25 20.3253 20
      vertex 27.3777 14.493 20
      vertex 29.3641 18.7893 20
    endloop
  endfacet
  facet normal 0 0 1
    outer loop
      vertex 27.25 20.3253 20
      vertex 26.375 14.0466 20
      vertex 27.3777 14.493 20
    endloop
  endfacet
  facet normal -0 0 1
    outer loop
      vertex 21 19 20
      vertex 26.375 14.0466 20
      vertex 27.25 20.3253 20
    endloop
  endfacet
  facet normal 0 0 1
    outer loop
      vertex 21 19 20
      vertex 27.25 20.3253 20
      vertex 24.8627 21.3882 20
    endloop
  endfacet
  facet normal 0 0 1
    outer loop
      vertex 26.375 14.0466 20
      vertex 21 19 20
      vertex 25.4871 13.4015 20
    endloop
  endfacet
  facet normal 0 0 1
    outer loop
      vertex 25.4871 13.4015 20
      vertex 21 19 20
      vertex 24.7527 12.5859 20
    endloop
  endfacet
  facet normal 0 0 1
    outer loop
      vertex 24.7527 12.5859 20
      vertex 21 19 20
      vertex 24.2039 11.6354 20
    endloop
  endfacet
  facet normal 0 0 1
    outer loop
      vertex 24.2039 11.6354 20
      vertex 21 19 20
      vertex 23.8647 10.5915 20
    endloop
  endfacet
  facet normal 0 0 1
    outer loop
      vertex 21 19 20
      vertex 24.8627 21.3882 20
      vertex 23 21.7841 20
    endloop
  endfacet
  facet normal -0 0 1
    outer loop
      vertex 32.5129 5.59849 20
      vertex 32.4193 4.41579 20
      vertex 32.9677 6.10357 20
    endloop
  endfacet
  facet normal -0 0 1
    outer loop
      vertex 31.625 4.95337 20
      vertex 32.4193 4.41579 20
      vertex 32.5129 5.59849 20
    endloop
  endfacet
  facet normal -0 0 1
    outer loop
      vertex 30.6223 4.50695 20
      vertex 32.4193 4.41579 20
      vertex 31.625 4.95337 20
    endloop
  endfacet
  facet normal 0 0 1
    outer loop
      vertex 32.4193 4.41579 20
      vertex 30.6223 4.50695 20
      vertex 31.1127 2.15269 20
    endloop
  endfacet
  facet normal -0 0 1
    outer loop
      vertex 29.5488 4.27876 20
      vertex 31.1127 2.15269 20
      vertex 30.6223 4.50695 20
    endloop
  endfacet
  facet normal 0 0 1
    outer loop
      vertex 29.5488 4.27876 20
      vertex 29.3641 0.21069 20
      vertex 31.1127 2.15269 20
    endloop
  endfacet
  facet normal -0 0 1
    outer loop
      vertex 28.4512 4.27876 20
      vertex 29.3641 0.21069 20
      vertex 29.5488 4.27876 20
    endloop
  endfacet
  facet normal 0 0 1
    outer loop
      vertex 27.3777 4.50695 20
      vertex 29.3641 0.21069 20
      vertex 28.4512 4.27876 20
    endloop
  endfacet
  facet normal 0 0 1
    outer loop
      vertex 27.3777 4.50695 20
      vertex 27.25 -1.32532 20
      vertex 29.3641 0.21069 20
    endloop
  endfacet
  facet normal 0 0 1
    outer loop
      vertex 26.375 4.95337 20
      vertex 27.25 -1.32532 20
      vertex 27.3777 4.50695 20
    endloop
  endfacet
  facet normal 0 0 1
    outer loop
      vertex 21 0 20
      vertex 26.375 4.95337 20
      vertex 25.4871 5.59849 20
    endloop
  endfacet
  facet normal 0 0 1
    outer loop
      vertex 26.375 4.95337 20
      vertex 21 0 20
      vertex 27.25 -1.32532 20
    endloop
  endfacet
  facet normal 0 0 1
    outer loop
      vertex 21 0 20
      vertex 25.4871 5.59849 20
      vertex 24.7527 6.41413 20
    endloop
  endfacet
  facet normal 0 0 1
    outer loop
      vertex 21 0 20
      vertex 24.7527 6.41413 20
      vertex 24.2039 7.36463 20
    endloop
  endfacet
  facet normal 0 0 1
    outer loop
      vertex 21 0 20
      vertex 24.2039 7.36463 20
      vertex 23.8647 8.40846 20
    endloop
  endfacet
  facet normal 0 0 1
    outer loop
      vertex 21 0 20
      vertex 23.8647 8.40846 20
      vertex 23.75 9.5 20
    endloop
  endfacet
  facet normal 0 0 1
    outer loop
      vertex 27.25 -1.32532 20
      vertex 21 0 20
      vertex 24.8627 -2.38821 20
    endloop
  endfacet
  facet normal 0 0 1
    outer loop
      vertex 23.8647 10.5915 20
      vertex 21 19 20
      vertex 23.75 9.5 20
    endloop
  endfacet
  facet normal 0 0 1
    outer loop
      vertex 21 19 20
      vertex 23 21.7841 20
      vertex 23 22 20
    endloop
  endfacet
  facet normal 0 0 1
    outer loop
      vertex 21 0 20
      vertex 23.75 9.5 20
      vertex 21 19 20
    endloop
  endfacet
  facet normal 0 0 1
    outer loop
      vertex 24.8627 -2.38821 20
      vertex 21 0 20
      vertex 23 -2.78414 20
    endloop
  endfacet
  facet normal -0 0 1
    outer loop
      vertex -2 22 20
      vertex 21 19 20
      vertex 23 22 20
    endloop
  endfacet
  facet normal 0 0 1
    outer loop
      vertex -0.546953 19 20
      vertex -0.643237 18.8092 20
      vertex -0.56484 18.9449 20
    endloop
  endfacet
  facet normal 0 0 1
    outer loop
      vertex -0.546953 19 20
      vertex -0.748152 18.6926 20
      vertex -0.643237 18.8092 20
    endloop
  endfacet
  facet normal 0 0 1
    outer loop
      vertex -0.546953 19 20
      vertex -0.875 18.6005 20
      vertex -0.748152 18.6926 20
    endloop
  endfacet
  facet normal 0 0 1
    outer loop
      vertex -0.546953 19 20
      vertex -1.01824 18.5367 20
      vertex -0.875 18.6005 20
    endloop
  endfacet
  facet normal 0 0 1
    outer loop
      vertex -0.546953 19 20
      vertex -1.1716 18.5041 20
      vertex -1.01824 18.5367 20
    endloop
  endfacet
  facet normal 0 0 1
    outer loop
      vertex -0.546953 19 20
      vertex -1.3284 18.5041 20
      vertex -1.1716 18.5041 20
    endloop
  endfacet
  facet normal 0 0 1
    outer loop
      vertex -0.546953 19 20
      vertex -1.48176 18.5367 20
      vertex -1.3284 18.5041 20
    endloop
  endfacet
  facet normal 0 0 1
    outer loop
      vertex -0.546953 19 20
      vertex -1.625 18.6005 20
      vertex -1.48176 18.5367 20
    endloop
  endfacet
  facet normal 0 0 1
    outer loop
      vertex -0.546953 19 20
      vertex -1.75185 18.6926 20
      vertex -1.625 18.6005 20
    endloop
  endfacet
  facet normal -0 0 1
    outer loop
      vertex -1.95305 19 20
      vertex -1.75185 18.6926 20
      vertex -0.546953 19 20
    endloop
  endfacet
  facet normal 0 0 1
    outer loop
      vertex -1.75185 18.6926 20
      vertex -1.95305 19 20
      vertex -1.85676 18.8092 20
    endloop
  endfacet
  facet normal 0 0 1
    outer loop
      vertex 21 19 20
      vertex -2 22 20
      vertex -0.546953 19 20
    endloop
  endfacet
  facet normal 0 -0 1
    outer loop
      vertex -1.95305 19 20
      vertex -0.546953 19 20
      vertex -2 22 20
    endloop
  endfacet
  facet normal 0 0 1
    outer loop
      vertex -1.85676 18.8092 20
      vertex -1.95305 19 20
      vertex -1.93516 18.9449 20
    endloop
  endfacet
  facet normal 0 0 1
    outer loop
      vertex -1.95305 19 20
      vertex -2 22 20
      vertex -2 19 20
    endloop
  endfacet
  facet normal 0 0 1
    outer loop
      vertex 23 -2.78414 20
      vertex 21 0 20
      vertex 23 -3 20
    endloop
  endfacet
  facet normal 0 0 1
    outer loop
      vertex -2 -3 20
      vertex 21 0 20
      vertex -0.546953 0 20
    endloop
  endfacet
  facet normal 0 0 1
    outer loop
      vertex -0.643237 0.190839 20
      vertex -0.546953 0 20
      vertex -0.56484 0.0550518 20
    endloop
  endfacet
  facet normal 0 0 1
    outer loop
      vertex -0.748152 0.307358 20
      vertex -0.546953 0 20
      vertex -0.643237 0.190839 20
    endloop
  endfacet
  facet normal 0 0 1
    outer loop
      vertex -0.874999 0.399519 20
      vertex -0.546953 0 20
      vertex -0.748152 0.307358 20
    endloop
  endfacet
  facet normal 0 0 1
    outer loop
      vertex -1.01824 0.463292 20
      vertex -0.546953 0 20
      vertex -0.874999 0.399519 20
    endloop
  endfacet
  facet normal 0 0 1
    outer loop
      vertex -1.1716 0.495891 20
      vertex -0.546953 0 20
      vertex -1.01824 0.463292 20
    endloop
  endfacet
  facet normal -0 0 1
    outer loop
      vertex -1.3284 0.495891 20
      vertex -0.546953 0 20
      vertex -1.1716 0.495891 20
    endloop
  endfacet
  facet normal -0 0 1
    outer loop
      vertex -1.48176 0.463292 20
      vertex -0.546953 0 20
      vertex -1.3284 0.495891 20
    endloop
  endfacet
  facet normal -0 0 1
    outer loop
      vertex -1.625 0.399519 20
      vertex -0.546953 0 20
      vertex -1.48176 0.463292 20
    endloop
  endfacet
  facet normal -0 0 1
    outer loop
      vertex -1.75185 0.307358 20
      vertex -0.546953 0 20
      vertex -1.625 0.399519 20
    endloop
  endfacet
  facet normal 0 0 1
    outer loop
      vertex -1.95305 0 20
      vertex -1.75185 0.307358 20
      vertex -1.85676 0.190839 20
    endloop
  endfacet
  facet normal 0 0 1
    outer loop
      vertex -1.95305 0 20
      vertex -1.85676 0.190839 20
      vertex -1.93516 0.0550518 20
    endloop
  endfacet
  facet normal 0 0 1
    outer loop
      vertex -1.75185 0.307358 20
      vertex -1.95305 0 20
      vertex -0.546953 0 20
    endloop
  endfacet
  facet normal 0 0 1
    outer loop
      vertex -0.546953 0 20
      vertex -1.95305 0 20
      vertex -2 -3 20
    endloop
  endfacet
  facet normal 0 0 1
    outer loop
      vertex -2 -3 20
      vertex -1.95305 0 20
      vertex -2 0 20
    endloop
  endfacet
  facet normal 0 0 1
    outer loop
      vertex 21 0 20
      vertex -2 -3 20
      vertex 23 -3 20
    endloop
  endfacet
  facet normal 1 -0 0
    outer loop
      vertex 23 -3 20
      vertex 23 -2.78414 0
      vertex 23 -2.78414 20
    endloop
  endfacet
  facet normal 1 0 0
    outer loop
      vertex 23 -2.78414 0
      vertex 23 -3 20
      vertex 23 -3 0
    endloop
  endfacet
  facet normal 1 -0 0
    outer loop
      vertex 23 21.7841 20
      vertex 23 22 0
      vertex 23 22 20
    endloop
  endfacet
  facet normal 1 0 0
    outer loop
      vertex 23 22 0
      vertex 23 21.7841 20
      vertex 23 21.7841 0
    endloop
  endfacet
  facet normal 0 0 -1
    outer loop
      vertex 32.4193 4.41579 0
      vertex 32.5129 5.59849 0
      vertex 32.9677 6.10357 0
    endloop
  endfacet
  facet normal 0 0 -1
    outer loop
      vertex 32.4193 4.41579 0
      vertex 31.625 4.95337 0
      vertex 32.5129 5.59849 0
    endloop
  endfacet
  facet normal 0 0 -1
    outer loop
      vertex 30.6223 4.50695 0
      vertex 32.4193 4.41579 0
      vertex 31.1127 2.15269 0
    endloop
  endfacet
  facet normal 0 0 -1
    outer loop
      vertex 32.4193 4.41579 0
      vertex 30.6223 4.50695 0
      vertex 31.625 4.95337 0
    endloop
  endfacet
  facet normal 0 0 -1
    outer loop
      vertex 31.1127 2.15269 0
      vertex 29.5488 4.27876 0
      vertex 30.6223 4.50695 0
    endloop
  endfacet
  facet normal 0 0 -1
    outer loop
      vertex 29.3641 0.21069 0
      vertex 29.5488 4.27876 0
      vertex 31.1127 2.15269 0
    endloop
  endfacet
  facet normal 0 0 -1
    outer loop
      vertex 29.3641 0.21069 0
      vertex 28.4512 4.27876 0
      vertex 29.5488 4.27876 0
    endloop
  endfacet
  facet normal 0 0 -1
    outer loop
      vertex 29.3641 0.21069 0
      vertex 27.3777 4.50695 0
      vertex 28.4512 4.27876 0
    endloop
  endfacet
  facet normal 0 0 -1
    outer loop
      vertex 27.25 -1.32532 0
      vertex 27.3777 4.50695 0
      vertex 29.3641 0.21069 0
    endloop
  endfacet
  facet normal 0 0 -1
    outer loop
      vertex 27.25 -1.32532 0
      vertex 26.375 4.95337 0
      vertex 27.3777 4.50695 0
    endloop
  endfacet
  facet normal 0 0 -1
    outer loop
      vertex 21 0 0
      vertex 26.375 4.95337 0
      vertex 27.25 -1.32532 0
    endloop
  endfacet
  facet normal 0 0 -1
    outer loop
      vertex 21 0 0
      vertex 27.25 -1.32532 0
      vertex 24.8627 -2.38821 0
    endloop
  endfacet
  facet normal -0 0 -1
    outer loop
      vertex 26.375 4.95337 0
      vertex 21 0 0
      vertex 25.4871 5.59849 0
    endloop
  endfacet
  facet normal -0 0 -1
    outer loop
      vertex 25.4871 5.59849 0
      vertex 21 0 0
      vertex 24.7527 6.41413 0
    endloop
  endfacet
  facet normal -0 0 -1
    outer loop
      vertex 24.7527 6.41413 0
      vertex 21 0 0
      vertex 24.2039 7.36463 0
    endloop
  endfacet
  facet normal -0 0 -1
    outer loop
      vertex 24.2039 7.36463 0
      vertex 21 0 0
      vertex 23.8647 8.40846 0
    endloop
  endfacet
  facet normal 0 0 -1
    outer loop
      vertex 21 0 0
      vertex 24.8627 -2.38821 0
      vertex 23 -2.78414 0
    endloop
  endfacet
  facet normal 0 0 -1
    outer loop
      vertex 32.5129 13.4015 0
      vertex 32.4193 14.5842 0
      vertex 32.9677 12.8964 0
    endloop
  endfacet
  facet normal 0 0 -1
    outer loop
      vertex 31.625 14.0466 0
      vertex 32.4193 14.5842 0
      vertex 32.5129 13.4015 0
    endloop
  endfacet
  facet normal 0 0 -1
    outer loop
      vertex 30.6223 14.493 0
      vertex 32.4193 14.5842 0
      vertex 31.625 14.0466 0
    endloop
  endfacet
  facet normal -0 0 -1
    outer loop
      vertex 32.4193 14.5842 0
      vertex 30.6223 14.493 0
      vertex 31.1127 16.8473 0
    endloop
  endfacet
  facet normal 0 0 -1
    outer loop
      vertex 29.5488 14.7212 0
      vertex 31.1127 16.8473 0
      vertex 30.6223 14.493 0
    endloop
  endfacet
  facet normal 0 0 -1
    outer loop
      vertex 29.5488 14.7212 0
      vertex 29.3641 18.7893 0
      vertex 31.1127 16.8473 0
    endloop
  endfacet
  facet normal 0 0 -1
    outer loop
      vertex 28.4512 14.7212 0
      vertex 29.3641 18.7893 0
      vertex 29.5488 14.7212 0
    endloop
  endfacet
  facet normal 0 0 -1
    outer loop
      vertex 27.3777 14.493 0
      vertex 29.3641 18.7893 0
      vertex 28.4512 14.7212 0
    endloop
  endfacet
  facet normal 0 0 -1
    outer loop
      vertex 27.3777 14.493 0
      vertex 27.25 20.3253 0
      vertex 29.3641 18.7893 0
    endloop
  endfacet
  facet normal 0 0 -1
    outer loop
      vertex 26.375 14.0466 0
      vertex 27.25 20.3253 0
      vertex 27.3777 14.493 0
    endloop
  endfacet
  facet normal 0 0 -1
    outer loop
      vertex 21 19 0
      vertex 26.375 14.0466 0
      vertex 25.4871 13.4015 0
    endloop
  endfacet
  facet normal 0 0 -1
    outer loop
      vertex 26.375 14.0466 0
      vertex 21 19 0
      vertex 27.25 20.3253 0
    endloop
  endfacet
  facet normal 0 0 -1
    outer loop
      vertex 21 19 0
      vertex 25.4871 13.4015 0
      vertex 24.7527 12.5859 0
    endloop
  endfacet
  facet normal 0 0 -1
    outer loop
      vertex 21 19 0
      vertex 24.7527 12.5859 0
      vertex 24.2039 11.6354 0
    endloop
  endfacet
  facet normal 0 0 -1
    outer loop
      vertex 21 19 0
      vertex 24.2039 11.6354 0
      vertex 23.8647 10.5915 0
    endloop
  endfacet
  facet normal 0 0 -1
    outer loop
      vertex 21 19 0
      vertex 23.8647 10.5915 0
      vertex 23.75 9.5 0
    endloop
  endfacet
  facet normal -0 0 -1
    outer loop
      vertex 27.25 20.3253 0
      vertex 21 19 0
      vertex 24.8627 21.3882 0
    endloop
  endfacet
  facet normal -0 0 -1
    outer loop
      vertex 23.8647 8.40846 0
      vertex 21 0 0
      vertex 23.75 9.5 0
    endloop
  endfacet
  facet normal 0 0 -1
    outer loop
      vertex 21 0 0
      vertex 23 -2.78414 0
      vertex 23 -3 0
    endloop
  endfacet
  facet normal 0 0 -1
    outer loop
      vertex 21 19 0
      vertex 23.75 9.5 0
      vertex 21 0 0
    endloop
  endfacet
  facet normal -0 0 -1
    outer loop
      vertex 24.8627 21.3882 0
      vertex 21 19 0
      vertex 23 21.7841 0
    endloop
  endfacet
  facet normal 0 0 -1
    outer loop
      vertex -2 -3 0
      vertex 21 0 0
      vertex 23 -3 0
    endloop
  endfacet
  facet normal 0 0 -1
    outer loop
      vertex -0.546953 0 0
      vertex -0.643237 0.190839 0
      vertex -0.56484 0.0550518 0
    endloop
  endfacet
  facet normal 0 0 -1
    outer loop
      vertex -0.546953 0 0
      vertex -0.748152 0.307358 0
      vertex -0.643237 0.190839 0
    endloop
  endfacet
  facet normal 0 0 -1
    outer loop
      vertex -0.546953 0 0
      vertex -0.874999 0.399519 0
      vertex -0.748152 0.307358 0
    endloop
  endfacet
  facet normal 0 0 -1
    outer loop
      vertex -0.546953 0 0
      vertex -1.01824 0.463292 0
      vertex -0.874999 0.399519 0
    endloop
  endfacet
  facet normal 0 0 -1
    outer loop
      vertex -0.546953 0 0
      vertex -1.1716 0.495891 0
      vertex -1.01824 0.463292 0
    endloop
  endfacet
  facet normal 0 0 -1
    outer loop
      vertex -0.546953 0 0
      vertex -1.3284 0.495891 0
      vertex -1.1716 0.495891 0
    endloop
  endfacet
  facet normal 0 0 -1
    outer loop
      vertex -0.546953 0 0
      vertex -1.48176 0.463292 0
      vertex -1.3284 0.495891 0
    endloop
  endfacet
  facet normal 0 0 -1
    outer loop
      vertex -0.546953 0 0
      vertex -1.625 0.399519 0
      vertex -1.48176 0.463292 0
    endloop
  endfacet
  facet normal 0 0 -1
    outer loop
      vertex -0.546953 0 0
      vertex -1.75185 0.307358 0
      vertex -1.625 0.399519 0
    endloop
  endfacet
  facet normal 0 0 -1
    outer loop
      vertex -1.95305 0 0
      vertex -1.75185 0.307358 0
      vertex -0.546953 0 0
    endloop
  endfacet
  facet normal 0 0 -1
    outer loop
      vertex -1.75185 0.307358 0
      vertex -1.95305 0 0
      vertex -1.85676 0.190839 0
    endloop
  endfacet
  facet normal -0 0 -1
    outer loop
      vertex 21 0 0
      vertex -2 -3 0
      vertex -0.546953 0 0
    endloop
  endfacet
  facet normal 0 -0 -1
    outer loop
      vertex -1.95305 0 0
      vertex -0.546953 0 0
      vertex -2 -3 0
    endloop
  endfacet
  facet normal 0 0 -1
    outer loop
      vertex -1.85676 0.190839 0
      vertex -1.95305 0 0
      vertex -1.93516 0.0550518 0
    endloop
  endfacet
  facet normal -0 0 -1
    outer loop
      vertex -1.95305 0 0
      vertex -2 -3 0
      vertex -2 0 0
    endloop
  endfacet
  facet normal -0 0 -1
    outer loop
      vertex 23 21.7841 0
      vertex 21 19 0
      vertex 23 22 0
    endloop
  endfacet
  facet normal 0 0 -1
    outer loop
      vertex -2 22 0
      vertex 21 19 0
      vertex -0.546953 19 0
    endloop
  endfacet
  facet normal 0 0 -1
    outer loop
      vertex -0.643237 18.8092 0
      vertex -0.546953 19 0
      vertex -0.56484 18.9449 0
    endloop
  endfacet
  facet normal 0 0 -1
    outer loop
      vertex -0.748152 18.6926 0
      vertex -0.546953 19 0
      vertex -0.643237 18.8092 0
    endloop
  endfacet
  facet normal 0 0 -1
    outer loop
      vertex -0.875 18.6005 0
      vertex -0.546953 19 0
      vertex -0.748152 18.6926 0
    endloop
  endfacet
  facet normal 0 0 -1
    outer loop
      vertex -1.01824 18.5367 0
      vertex -0.546953 19 0
      vertex -0.875 18.6005 0
    endloop
  endfacet
  facet normal 0 0 -1
    outer loop
      vertex -1.1716 18.5041 0
      vertex -0.546953 19 0
      vertex -1.01824 18.5367 0
    endloop
  endfacet
  facet normal 0 0 -1
    outer loop
      vertex -1.3284 18.5041 0
      vertex -0.546953 19 0
      vertex -1.1716 18.5041 0
    endloop
  endfacet
  facet normal 0 0 -1
    outer loop
      vertex -1.48176 18.5367 0
      vertex -0.546953 19 0
      vertex -1.3284 18.5041 0
    endloop
  endfacet
  facet normal 0 0 -1
    outer loop
      vertex -1.625 18.6005 0
      vertex -0.546953 19 0
      vertex -1.48176 18.5367 0
    endloop
  endfacet
  facet normal 0 0 -1
    outer loop
      vertex -1.75185 18.6926 0
      vertex -0.546953 19 0
      vertex -1.625 18.6005 0
    endloop
  endfacet
  facet normal 0 0 -1
    outer loop
      vertex -1.95305 19 0
      vertex -1.75185 18.6926 0
      vertex -1.85676 18.8092 0
    endloop
  endfacet
  facet normal 0 0 -1
    outer loop
      vertex -1.95305 19 0
      vertex -1.85676 18.8092 0
      vertex -1.93516 18.9449 0
    endloop
  endfacet
  facet normal 0 0 -1
    outer loop
      vertex -1.75185 18.6926 0
      vertex -1.95305 19 0
      vertex -0.546953 19 0
    endloop
  endfacet
  facet normal 0 0 -1
    outer loop
      vertex -0.546953 19 0
      vertex -1.95305 19 0
      vertex -2 22 0
    endloop
  endfacet
  facet normal 0 0 -1
    outer loop
      vertex -2 22 0
      vertex -1.95305 19 0
      vertex -2 19 0
    endloop
  endfacet
  facet normal 0 0 -1
    outer loop
      vertex 21 19 0
      vertex -2 22 0
      vertex 23 22 0
    endloop
  endfacet
  facet normal 0 -1 0
    outer loop
      vertex -2 -3 0
      vertex 23 -3 20
      vertex -2 -3 20
    endloop
  endfacet
  facet normal 0 -1 -0
    outer loop
      vertex 23 -3 20
      vertex -2 -3 0
      vertex 23 -3 0
    endloop
  endfacet
  facet normal 0 1 -0
    outer loop
      vertex 23 22 0
      vertex -2 22 20
      vertex 23 22 20
    endloop
  endfacet
  facet normal 0 1 0
    outer loop
      vertex -2 22 20
      vertex 23 22 0
      vertex -2 22 0
    endloop
  endfacet
  facet normal -1 0 0
    outer loop
      vertex 21 0 0
      vertex 21 19 20
      vertex 21 19 0
    endloop
  endfacet
  facet normal -1 -0 0
    outer loop
      vertex 21 19 20
      vertex 21 0 0
      vertex 21 0 20
    endloop
  endfacet
  facet normal 0 1 -0
    outer loop
      vertex -1.95305 0 0
      vertex -2 0 20
      vertex -1.95305 0 20
    endloop
  endfacet
  facet normal 0 1 0
    outer loop
      vertex -2 0 20
      vertex -1.95305 0 0
      vertex -2 0 0
    endloop
  endfacet
  facet normal 0 1 -0
    outer loop
      vertex 21 0 0
      vertex -0.546953 0 20
      vertex 21 0 20
    endloop
  endfacet
  facet normal 0 1 0
    outer loop
      vertex -0.546953 0 20
      vertex 21 0 0
      vertex -0.546953 0 0
    endloop
  endfacet
  facet normal 0 -1 0
    outer loop
      vertex -2 19 0
      vertex -1.95305 19 20
      vertex -2 19 20
    endloop
  endfacet
  facet normal 0 -1 -0
    outer loop
      vertex -1.95305 19 20
      vertex -2 19 0
      vertex -1.95305 19 0
    endloop
  endfacet
  facet normal 0 -1 0
    outer loop
      vertex -0.546953 19 0
      vertex 21 19 20
      vertex -0.546953 19 20
    endloop
  endfacet
  facet normal 0 -1 -0
    outer loop
      vertex 21 19 20
      vertex -0.546953 19 0
      vertex 21 19 0
    endloop
  endfacet
  facet normal 0.587785 0.809017 -0
    outer loop
      vertex 29.3641 18.7893 0
      vertex 27.25 20.3253 20
      vertex 29.3641 18.7893 20
    endloop
  endfacet
  facet normal 0.587785 0.809017 0
    outer loop
      vertex 27.25 20.3253 20
      vertex 29.3641 18.7893 0
      vertex 27.25 20.3253 0
    endloop
  endfacet
  facet normal 0.866025 -0.5 0
    outer loop
      vertex 31.1127 2.15269 20
      vertex 32.4193 4.41579 0
      vertex 32.4193 4.41579 20
    endloop
  endfacet
  facet normal 0.866025 -0.5 0
    outer loop
      vertex 32.4193 4.41579 0
      vertex 31.1127 2.15269 20
      vertex 31.1127 2.15269 0
    endloop
  endfacet
  facet normal 0.866025 0.5 0
    outer loop
      vertex 32.4193 14.5842 20
      vertex 31.1127 16.8473 0
      vertex 31.1127 16.8473 20
    endloop
  endfacet
  facet normal 0.866025 0.5 0
    outer loop
      vertex 31.1127 16.8473 0
      vertex 32.4193 14.5842 20
      vertex 32.4193 14.5842 0
    endloop
  endfacet
  facet normal 0.951057 0.309016 0
    outer loop
      vertex 32.9677 12.8964 20
      vertex 32.4193 14.5842 0
      vertex 32.4193 14.5842 20
    endloop
  endfacet
  facet normal 0.951057 0.309016 0
    outer loop
      vertex 32.4193 14.5842 0
      vertex 32.9677 12.8964 20
      vertex 32.9677 12.8964 0
    endloop
  endfacet
  facet normal 0.743145 0.669131 0
    outer loop
      vertex 31.1127 16.8473 20
      vertex 29.3641 18.7893 0
      vertex 29.3641 18.7893 20
    endloop
  endfacet
  facet normal 0.743145 0.669131 0
    outer loop
      vertex 29.3641 18.7893 0
      vertex 31.1127 16.8473 20
      vertex 31.1127 16.8473 0
    endloop
  endfacet
  facet normal 0.207911 0.978148 -0
    outer loop
      vertex 24.8627 21.3882 0
      vertex 23 21.7841 20
      vertex 24.8627 21.3882 20
    endloop
  endfacet
  facet normal 0.207911 0.978148 0
    outer loop
      vertex 23 21.7841 20
      vertex 24.8627 21.3882 0
      vertex 23 21.7841 0
    endloop
  endfacet
  facet normal 0.406737 0.913545 -0
    outer loop
      vertex 27.25 20.3253 0
      vertex 24.8627 21.3882 20
      vertex 27.25 20.3253 20
    endloop
  endfacet
  facet normal 0.406737 0.913545 0
    outer loop
      vertex 24.8627 21.3882 20
      vertex 27.25 20.3253 0
      vertex 24.8627 21.3882 0
    endloop
  endfacet
  facet normal 0.951057 -0.309016 0
    outer loop
      vertex 32.4193 4.41579 20
      vertex 32.9677 6.10357 0
      vertex 32.9677 6.10357 20
    endloop
  endfacet
  facet normal 0.951057 -0.309016 0
    outer loop
      vertex 32.9677 6.10357 0
      vertex 32.4193 4.41579 20
      vertex 32.4193 4.41579 0
    endloop
  endfacet
  facet normal 0.587786 -0.809017 0
    outer loop
      vertex 27.25 -1.32532 0
      vertex 29.3641 0.21069 20
      vertex 27.25 -1.32532 20
    endloop
  endfacet
  facet normal 0.587786 -0.809017 0
    outer loop
      vertex 29.3641 0.21069 20
      vertex 27.25 -1.32532 0
      vertex 29.3641 0.21069 0
    endloop
  endfacet
  facet normal 0.406736 -0.913546 0
    outer loop
      vertex 24.8627 -2.38821 0
      vertex 27.25 -1.32532 20
      vertex 24.8627 -2.38821 20
    endloop
  endfacet
  facet normal 0.406736 -0.913546 0
    outer loop
      vertex 27.25 -1.32532 20
      vertex 24.8627 -2.38821 0
      vertex 27.25 -1.32532 0
    endloop
  endfacet
  facet normal 0.207912 -0.978148 0
    outer loop
      vertex 23 -2.78414 0
      vertex 24.8627 -2.38821 20
      vertex 23 -2.78414 20
    endloop
  endfacet
  facet normal 0.207912 -0.978148 0
    outer loop
      vertex 24.8627 -2.38821 20
      vertex 23 -2.78414 0
      vertex 24.8627 -2.38821 0
    endloop
  endfacet
  facet normal 0.743145 -0.669131 0
    outer loop
      vertex 29.3641 0.21069 20
      vertex 31.1127 2.15269 0
      vertex 31.1127 2.15269 20
    endloop
  endfacet
  facet normal 0.743145 -0.669131 0
    outer loop
      vertex 31.1127 2.15269 0
      vertex 29.3641 0.21069 20
      vertex 29.3641 0.21069 0
    endloop
  endfacet
  facet normal -0.587785 -0.809017 0
    outer loop
      vertex 31.625 14.0466 0
      vertex 32.5129 13.4015 20
      vertex 31.625 14.0466 20
    endloop
  endfacet
  facet normal -0.587785 -0.809017 -0
    outer loop
      vertex 32.5129 13.4015 20
      vertex 31.625 14.0466 0
      vertex 32.5129 13.4015 0
    endloop
  endfacet
  facet normal 0.207912 0.978148 -0
    outer loop
      vertex 28.4512 4.27876 0
      vertex 27.3777 4.50695 20
      vertex 28.4512 4.27876 20
    endloop
  endfacet
  facet normal 0.207912 0.978148 0
    outer loop
      vertex 27.3777 4.50695 20
      vertex 28.4512 4.27876 0
      vertex 27.3777 4.50695 0
    endloop
  endfacet
  facet normal 0.406736 -0.913546 0
    outer loop
      vertex 26.375 14.0466 0
      vertex 27.3777 14.493 20
      vertex 26.375 14.0466 20
    endloop
  endfacet
  facet normal 0.406736 -0.913546 0
    outer loop
      vertex 27.3777 14.493 20
      vertex 26.375 14.0466 0
      vertex 27.3777 14.493 0
    endloop
  endfacet
  facet normal 0.951056 -0.309018 0
    outer loop
      vertex 23.8647 10.5915 20
      vertex 24.2039 11.6354 0
      vertex 24.2039 11.6354 20
    endloop
  endfacet
  facet normal 0.951056 -0.309018 0
    outer loop
      vertex 24.2039 11.6354 0
      vertex 23.8647 10.5915 20
      vertex 23.8647 10.5915 0
    endloop
  endfacet
  facet normal 0.951056 0.309018 0
    outer loop
      vertex 24.2039 7.36463 20
      vertex 23.8647 8.40846 0
      vertex 23.8647 8.40846 20
    endloop
  endfacet
  facet normal 0.951056 0.309018 0
    outer loop
      vertex 23.8647 8.40846 0
      vertex 24.2039 7.36463 20
      vertex 24.2039 7.36463 0
    endloop
  endfacet
  facet normal 0.866025 0.5 0
    outer loop
      vertex 24.7527 6.41413 20
      vertex 24.2039 7.36463 0
      vertex 24.2039 7.36463 20
    endloop
  endfacet
  facet normal 0.866025 0.5 0
    outer loop
      vertex 24.2039 7.36463 0
      vertex 24.7527 6.41413 20
      vertex 24.7527 6.41413 0
    endloop
  endfacet
  facet normal -0.743147 -0.669129 0
    outer loop
      vertex 32.9677 12.8964 0
      vertex 32.5129 13.4015 20
      vertex 32.5129 13.4015 0
    endloop
  endfacet
  facet normal -0.743147 -0.669129 0
    outer loop
      vertex 32.5129 13.4015 20
      vertex 32.9677 12.8964 0
      vertex 32.9677 12.8964 20
    endloop
  endfacet
  facet normal -0.406736 -0.913546 0
    outer loop
      vertex 30.6223 14.493 0
      vertex 31.625 14.0466 20
      vertex 30.6223 14.493 20
    endloop
  endfacet
  facet normal -0.406736 -0.913546 -0
    outer loop
      vertex 31.625 14.0466 20
      vertex 30.6223 14.493 0
      vertex 31.625 14.0466 0
    endloop
  endfacet
  facet normal 0 -1 0
    outer loop
      vertex 28.4512 14.7212 0
      vertex 29.5488 14.7212 20
      vertex 28.4512 14.7212 20
    endloop
  endfacet
  facet normal 0 -1 -0
    outer loop
      vertex 29.5488 14.7212 20
      vertex 28.4512 14.7212 0
      vertex 29.5488 14.7212 0
    endloop
  endfacet
  facet normal -0.207912 -0.978148 0
    outer loop
      vertex 29.5488 14.7212 0
      vertex 30.6223 14.493 20
      vertex 29.5488 14.7212 20
    endloop
  endfacet
  facet normal -0.207912 -0.978148 -0
    outer loop
      vertex 30.6223 14.493 20
      vertex 29.5488 14.7212 0
      vertex 30.6223 14.493 0
    endloop
  endfacet
  facet normal 0.994522 0.104527 0
    outer loop
      vertex 23.8647 8.40846 20
      vertex 23.75 9.5 0
      vertex 23.75 9.5 20
    endloop
  endfacet
  facet normal 0.994522 0.104527 0
    outer loop
      vertex 23.75 9.5 0
      vertex 23.8647 8.40846 20
      vertex 23.8647 8.40846 0
    endloop
  endfacet
  facet normal 0.866025 -0.5 0
    outer loop
      vertex 24.2039 11.6354 20
      vertex 24.7527 12.5859 0
      vertex 24.7527 12.5859 20
    endloop
  endfacet
  facet normal 0.866025 -0.5 0
    outer loop
      vertex 24.7527 12.5859 0
      vertex 24.2039 11.6354 20
      vertex 24.2039 11.6354 0
    endloop
  endfacet
  facet normal 0.587785 -0.809017 0
    outer loop
      vertex 25.4871 13.4015 0
      vertex 26.375 14.0466 20
      vertex 25.4871 13.4015 20
    endloop
  endfacet
  facet normal 0.587785 -0.809017 0
    outer loop
      vertex 26.375 14.0466 20
      vertex 25.4871 13.4015 0
      vertex 26.375 14.0466 0
    endloop
  endfacet
  facet normal 0.207912 -0.978148 0
    outer loop
      vertex 27.3777 14.493 0
      vertex 28.4512 14.7212 20
      vertex 27.3777 14.493 20
    endloop
  endfacet
  facet normal 0.207912 -0.978148 0
    outer loop
      vertex 28.4512 14.7212 20
      vertex 27.3777 14.493 0
      vertex 28.4512 14.7212 0
    endloop
  endfacet
  facet normal 0.743145 -0.66913 0
    outer loop
      vertex 24.7527 12.5859 20
      vertex 25.4871 13.4015 0
      vertex 25.4871 13.4015 20
    endloop
  endfacet
  facet normal 0.743145 -0.66913 0
    outer loop
      vertex 25.4871 13.4015 0
      vertex 24.7527 12.5859 20
      vertex 24.7527 12.5859 0
    endloop
  endfacet
  facet normal -0.207912 0.978148 0
    outer loop
      vertex 30.6223 4.50695 0
      vertex 29.5488 4.27876 20
      vertex 30.6223 4.50695 20
    endloop
  endfacet
  facet normal -0.207912 0.978148 0
    outer loop
      vertex 29.5488 4.27876 20
      vertex 30.6223 4.50695 0
      vertex 29.5488 4.27876 0
    endloop
  endfacet
  facet normal -0.406736 0.913546 0
    outer loop
      vertex 31.625 4.95337 0
      vertex 30.6223 4.50695 20
      vertex 31.625 4.95337 20
    endloop
  endfacet
  facet normal -0.406736 0.913546 0
    outer loop
      vertex 30.6223 4.50695 20
      vertex 31.625 4.95337 0
      vertex 30.6223 4.50695 0
    endloop
  endfacet
  facet normal -0.587785 0.809017 0
    outer loop
      vertex 32.5129 5.59849 0
      vertex 31.625 4.95337 20
      vertex 32.5129 5.59849 20
    endloop
  endfacet
  facet normal -0.587785 0.809017 0
    outer loop
      vertex 31.625 4.95337 20
      vertex 32.5129 5.59849 0
      vertex 31.625 4.95337 0
    endloop
  endfacet
  facet normal 0 1 -0
    outer loop
      vertex 29.5488 4.27876 0
      vertex 28.4512 4.27876 20
      vertex 29.5488 4.27876 20
    endloop
  endfacet
  facet normal 0 1 0
    outer loop
      vertex 28.4512 4.27876 20
      vertex 29.5488 4.27876 0
      vertex 28.4512 4.27876 0
    endloop
  endfacet
  facet normal 0.406736 0.913546 -0
    outer loop
      vertex 27.3777 4.50695 0
      vertex 26.375 4.95337 20
      vertex 27.3777 4.50695 20
    endloop
  endfacet
  facet normal 0.406736 0.913546 0
    outer loop
      vertex 26.375 4.95337 20
      vertex 27.3777 4.50695 0
      vertex 26.375 4.95337 0
    endloop
  endfacet
  facet normal 0.587785 0.809017 -0
    outer loop
      vertex 26.375 4.95337 0
      vertex 25.4871 5.59849 20
      vertex 26.375 4.95337 20
    endloop
  endfacet
  facet normal 0.587785 0.809017 0
    outer loop
      vertex 25.4871 5.59849 20
      vertex 26.375 4.95337 0
      vertex 25.4871 5.59849 0
    endloop
  endfacet
  facet normal 0.994522 -0.104527 0
    outer loop
      vertex 23.75 9.5 20
      vertex 23.8647 10.5915 0
      vertex 23.8647 10.5915 20
    endloop
  endfacet
  facet normal 0.994522 -0.104527 0
    outer loop
      vertex 23.8647 10.5915 0
      vertex 23.75 9.5 20
      vertex 23.75 9.5 0
    endloop
  endfacet
  facet normal -0.743147 0.669129 0
    outer loop
      vertex 32.5129 5.59849 0
      vertex 32.9677 6.10357 20
      vertex 32.9677 6.10357 0
    endloop
  endfacet
  facet normal -0.743147 0.669129 0
    outer loop
      vertex 32.9677 6.10357 20
      vertex 32.5129 5.59849 0
      vertex 32.5129 5.59849 20
    endloop
  endfacet
  facet normal 0.743145 0.66913 0
    outer loop
      vertex 25.4871 5.59849 20
      vertex 24.7527 6.41413 0
      vertex 24.7527 6.41413 20
    endloop
  endfacet
  facet normal 0.743145 0.66913 0
    outer loop
      vertex 24.7527 6.41413 0
      vertex 25.4871 5.59849 20
      vertex 25.4871 5.59849 0
    endloop
  endfacet
  facet normal 0 1 -0
    outer loop
      vertex -1.1716 0.495891 0
      vertex -1.3284 0.495891 20
      vertex -1.1716 0.495891 20
    endloop
  endfacet
  facet normal 0 1 0
    outer loop
      vertex -1.3284 0.495891 20
      vertex -1.1716 0.495891 0
      vertex -1.3284 0.495891 0
    endloop
  endfacet
  facet normal 0.58779 0.809013 -0
    outer loop
      vertex -0.748152 0.307358 0
      vertex -0.874999 0.399519 20
      vertex -0.748152 0.307358 20
    endloop
  endfacet
  facet normal 0.58779 0.809013 0
    outer loop
      vertex -0.874999 0.399519 20
      vertex -0.748152 0.307358 0
      vertex -0.874999 0.399519 0
    endloop
  endfacet
  facet normal 0.406734 0.913547 -0
    outer loop
      vertex -0.874999 0.399519 0
      vertex -1.01824 0.463292 20
      vertex -0.874999 0.399519 20
    endloop
  endfacet
  facet normal 0.406734 0.913547 0
    outer loop
      vertex -1.01824 0.463292 20
      vertex -0.874999 0.399519 0
      vertex -1.01824 0.463292 0
    endloop
  endfacet
  facet normal -0.743143 0.669132 0
    outer loop
      vertex -1.85676 0.190839 0
      vertex -1.75185 0.307358 20
      vertex -1.75185 0.307358 0
    endloop
  endfacet
  facet normal -0.743143 0.669132 0
    outer loop
      vertex -1.75185 0.307358 20
      vertex -1.85676 0.190839 0
      vertex -1.85676 0.190839 20
    endloop
  endfacet
  facet normal -0.866025 0.500001 0
    outer loop
      vertex -1.93516 0.0550518 0
      vertex -1.85676 0.190839 20
      vertex -1.85676 0.190839 0
    endloop
  endfacet
  facet normal -0.866025 0.500001 0
    outer loop
      vertex -1.85676 0.190839 20
      vertex -1.93516 0.0550518 0
      vertex -1.93516 0.0550518 20
    endloop
  endfacet
  facet normal -0.406736 0.913546 0
    outer loop
      vertex -1.48176 0.463292 0
      vertex -1.625 0.399519 20
      vertex -1.48176 0.463292 20
    endloop
  endfacet
  facet normal -0.406736 0.913546 0
    outer loop
      vertex -1.625 0.399519 20
      vertex -1.48176 0.463292 0
      vertex -1.625 0.399519 0
    endloop
  endfacet
  facet normal 0.866025 0.500001 0
    outer loop
      vertex -0.56484 0.0550518 20
      vertex -0.643237 0.190839 0
      vertex -0.643237 0.190839 20
    endloop
  endfacet
  facet normal 0.866025 0.500001 0
    outer loop
      vertex -0.643237 0.190839 0
      vertex -0.56484 0.0550518 20
      vertex -0.56484 0.0550518 0
    endloop
  endfacet
  facet normal 0.951056 0.309018 0
    outer loop
      vertex -0.546953 0 20
      vertex -0.56484 0.0550518 0
      vertex -0.56484 0.0550518 20
    endloop
  endfacet
  facet normal 0.951056 0.309018 0
    outer loop
      vertex -0.56484 0.0550518 0
      vertex -0.546953 0 20
      vertex -0.546953 0 0
    endloop
  endfacet
  facet normal 0.743143 0.669132 0
    outer loop
      vertex -0.643237 0.190839 20
      vertex -0.748152 0.307358 0
      vertex -0.748152 0.307358 20
    endloop
  endfacet
  facet normal 0.743143 0.669132 0
    outer loop
      vertex -0.748152 0.307358 0
      vertex -0.643237 0.190839 20
      vertex -0.643237 0.190839 0
    endloop
  endfacet
  facet normal 0.207909 0.978148 -0
    outer loop
      vertex -1.01824 0.463292 0
      vertex -1.1716 0.495891 20
      vertex -1.01824 0.463292 20
    endloop
  endfacet
  facet normal 0.207909 0.978148 0
    outer loop
      vertex -1.1716 0.495891 20
      vertex -1.01824 0.463292 0
      vertex -1.1716 0.495891 0
    endloop
  endfacet
  facet normal -0.951056 0.309018 0
    outer loop
      vertex -1.95305 0 0
      vertex -1.93516 0.0550518 20
      vertex -1.93516 0.0550518 0
    endloop
  endfacet
  facet normal -0.951056 0.309018 0
    outer loop
      vertex -1.93516 0.0550518 20
      vertex -1.95305 0 0
      vertex -1.95305 0 20
    endloop
  endfacet
  facet normal -0.587788 0.809015 0
    outer loop
      vertex -1.625 0.399519 0
      vertex -1.75185 0.307358 20
      vertex -1.625 0.399519 20
    endloop
  endfacet
  facet normal -0.587788 0.809015 0
    outer loop
      vertex -1.75185 0.307358 20
      vertex -1.625 0.399519 0
      vertex -1.75185 0.307358 0
    endloop
  endfacet
  facet normal -0.207909 0.978148 0
    outer loop
      vertex -1.3284 0.495891 0
      vertex -1.48176 0.463292 20
      vertex -1.3284 0.495891 20
    endloop
  endfacet
  facet normal -0.207909 0.978148 0
    outer loop
      vertex -1.48176 0.463292 20
      vertex -1.3284 0.495891 0
      vertex -1.48176 0.463292 0
    endloop
  endfacet
  facet normal 0 -1 0
    outer loop
      vertex -1.3284 18.5041 0
      vertex -1.1716 18.5041 20
      vertex -1.3284 18.5041 20
    endloop
  endfacet
  facet normal 0 -1 -0
    outer loop
      vertex -1.1716 18.5041 20
      vertex -1.3284 18.5041 0
      vertex -1.1716 18.5041 0
    endloop
  endfacet
  facet normal 0.866024 -0.500003 0
    outer loop
      vertex -0.643237 18.8092 20
      vertex -0.56484 18.9449 0
      vertex -0.56484 18.9449 20
    endloop
  endfacet
  facet normal 0.866024 -0.500003 0
    outer loop
      vertex -0.56484 18.9449 0
      vertex -0.643237 18.8092 20
      vertex -0.643237 18.8092 0
    endloop
  endfacet
  facet normal 0.207909 -0.978148 0
    outer loop
      vertex -1.1716 18.5041 0
      vertex -1.01824 18.5367 20
      vertex -1.1716 18.5041 20
    endloop
  endfacet
  facet normal 0.207909 -0.978148 0
    outer loop
      vertex -1.01824 18.5367 20
      vertex -1.1716 18.5041 0
      vertex -1.01824 18.5367 0
    endloop
  endfacet
  facet normal 0.74314 -0.669135 0
    outer loop
      vertex -0.748152 18.6926 20
      vertex -0.643237 18.8092 0
      vertex -0.643237 18.8092 20
    endloop
  endfacet
  facet normal 0.74314 -0.669135 0
    outer loop
      vertex -0.643237 18.8092 0
      vertex -0.748152 18.6926 20
      vertex -0.748152 18.6926 0
    endloop
  endfacet
  facet normal 0.951058 -0.309012 0
    outer loop
      vertex -0.56484 18.9449 20
      vertex -0.546953 19 0
      vertex -0.546953 19 20
    endloop
  endfacet
  facet normal 0.951058 -0.309012 0
    outer loop
      vertex -0.546953 19 0
      vertex -0.56484 18.9449 20
      vertex -0.56484 18.9449 0
    endloop
  endfacet
  facet normal -0.866024 -0.500003 0
    outer loop
      vertex -1.85676 18.8092 0
      vertex -1.93516 18.9449 20
      vertex -1.93516 18.9449 0
    endloop
  endfacet
  facet normal -0.866024 -0.500003 0
    outer loop
      vertex -1.93516 18.9449 20
      vertex -1.85676 18.8092 0
      vertex -1.85676 18.8092 20
    endloop
  endfacet
  facet normal 0.587796 -0.80901 0
    outer loop
      vertex -0.875 18.6005 0
      vertex -0.748152 18.6926 20
      vertex -0.875 18.6005 20
    endloop
  endfacet
  facet normal 0.587796 -0.80901 0
    outer loop
      vertex -0.748152 18.6926 20
      vertex -0.875 18.6005 0
      vertex -0.748152 18.6926 0
    endloop
  endfacet
  facet normal 0.406731 -0.913548 0
    outer loop
      vertex -1.01824 18.5367 0
      vertex -0.875 18.6005 20
      vertex -1.01824 18.5367 20
    endloop
  endfacet
  facet normal 0.406731 -0.913548 0
    outer loop
      vertex -0.875 18.6005 20
      vertex -1.01824 18.5367 0
      vertex -0.875 18.6005 0
    endloop
  endfacet
  facet normal -0.207909 -0.978148 0
    outer loop
      vertex -1.48176 18.5367 0
      vertex -1.3284 18.5041 20
      vertex -1.48176 18.5367 20
    endloop
  endfacet
  facet normal -0.207909 -0.978148 -0
    outer loop
      vertex -1.3284 18.5041 20
      vertex -1.48176 18.5367 0
      vertex -1.3284 18.5041 0
    endloop
  endfacet
  facet normal -0.406729 -0.913549 0
    outer loop
      vertex -1.625 18.6005 0
      vertex -1.48176 18.5367 20
      vertex -1.625 18.6005 20
    endloop
  endfacet
  facet normal -0.406729 -0.913549 -0
    outer loop
      vertex -1.48176 18.5367 20
      vertex -1.625 18.6005 0
      vertex -1.48176 18.5367 0
    endloop
  endfacet
  facet normal -0.74314 -0.669135 0
    outer loop
      vertex -1.75185 18.6926 0
      vertex -1.85676 18.8092 20
      vertex -1.85676 18.8092 0
    endloop
  endfacet
  facet normal -0.74314 -0.669135 0
    outer loop
      vertex -1.85676 18.8092 20
      vertex -1.75185 18.6926 0
      vertex -1.75185 18.6926 20
    endloop
  endfacet
  facet normal -0.951058 -0.309012 0
    outer loop
      vertex -1.93516 18.9449 0
      vertex -1.95305 19 20
      vertex -1.95305 19 0
    endloop
  endfacet
  facet normal -0.951058 -0.309012 0
    outer loop
      vertex -1.95305 19 20
      vertex -1.93516 18.9449 0
      vertex -1.93516 18.9449 20
    endloop
  endfacet
  facet normal -0.587798 -0.809007 0
    outer loop
      vertex -1.75185 18.6926 0
      vertex -1.625 18.6005 20
      vertex -1.75185 18.6926 20
    endloop
  endfacet
  facet normal -0.587798 -0.809007 -0
    outer loop
      vertex -1.625 18.6005 20
      vertex -1.75185 18.6926 0
      vertex -1.625 18.6005 0
    endloop
  endfacet
endsolid OpenSCAD_Model
